<?xml version="1.0" encoding="utf-8" standalone="no"?>
<!DOCTYPE svg PUBLIC "-//W3C//DTD SVG 1.1//EN"
  "http://www.w3.org/Graphics/SVG/1.1/DTD/svg11.dtd">
<svg xmlns:xlink="http://www.w3.org/1999/xlink" width="129.3175pt" height="106.019309pt" viewBox="0 0 129.3175 106.019309" xmlns="http://www.w3.org/2000/svg" version="1.1">
 <metadata>
  <rdf:RDF xmlns:dc="http://purl.org/dc/elements/1.1/" xmlns:cc="http://creativecommons.org/ns#" xmlns:rdf="http://www.w3.org/1999/02/22-rdf-syntax-ns#">
   <cc:Work>
    <dc:type rdf:resource="http://purl.org/dc/dcmitype/StillImage"/>
    <dc:date>2025-10-29T04:04:04.662236</dc:date>
    <dc:format>image/svg+xml</dc:format>
    <dc:creator>
     <cc:Agent>
      <dc:title>Matplotlib v3.9.2, https://matplotlib.org/</dc:title>
     </cc:Agent>
    </dc:creator>
   </cc:Work>
  </rdf:RDF>
 </metadata>
 <defs>
  <style type="text/css">*{stroke-linejoin: round; stroke-linecap: butt}</style>
 </defs>
 <g id="figure_1">
  <g id="patch_1">
   <path d="M 0 106.019309 
L 129.3175 106.019309 
L 129.3175 0 
L 0 0 
z
" style="fill: #ffffff"/>
  </g>
  <g id="axes_1">
   <g id="patch_2">
    <path d="M 39.2775 72.995559 
L 122.1175 72.995559 
L 122.1175 8.342878 
L 39.2775 8.342878 
z
" style="fill: #ffffff"/>
   </g>
   <g id="matplotlib.axis_1">
    <g id="xtick_1">
     <g id="line2d_1">
      <defs>
       <path id="mf140c5f8bb" d="M 0 0 
L 0 3.5 
" style="stroke: #000000; stroke-width: 1.5"/>
      </defs>
      <g>
       <use xlink:href="#mf140c5f8bb" x="43.042955" y="72.995559" style="stroke: #000000; stroke-width: 1.5"/>
      </g>
     </g>
     <g id="text_1">
      <text style="font: 8px 'Arial', sans-serif, serif; text-anchor: middle" x="43.042955" y="85.721809" transform="rotate(-0 43.042955 85.721809)">0</text>
     </g>
    </g>
    <g id="xtick_2">
     <g id="line2d_2">
      <g>
       <use xlink:href="#mf140c5f8bb" x="93.207212" y="72.995559" style="stroke: #000000; stroke-width: 1.5"/>
      </g>
     </g>
     <g id="text_2">
      <text style="font: 8px 'Arial', sans-serif, serif; text-anchor: middle" x="93.207212" y="85.721809" transform="rotate(-0 93.207212 85.721809)">20</text>
     </g>
    </g>
    <g id="text_3">
     <text style="font: 8px 'Arial', sans-serif, serif; text-anchor: middle" x="80.6975" y="97.135559" transform="rotate(-0 80.6975 97.135559)">Time (ms)</text>
    </g>
   </g>
   <g id="matplotlib.axis_2">
    <g id="ytick_1">
     <g id="line2d_3">
      <defs>
       <path id="m0aec8851bc" d="M 0 0 
L -3.5 0 
" style="stroke: #000000; stroke-width: 1.5"/>
      </defs>
      <g>
       <use xlink:href="#m0aec8851bc" x="39.2775" y="60.057855" style="stroke: #000000; stroke-width: 1.5"/>
      </g>
     </g>
     <g id="text_4">
      <text style="font: 8px 'Arial', sans-serif, serif; text-anchor: end" x="32.2775" y="62.92098" transform="rotate(-0 32.2775 62.92098)">−50</text>
     </g>
    </g>
    <g id="ytick_2">
     <g id="line2d_4">
      <g>
       <use xlink:href="#m0aec8851bc" x="39.2775" y="35.06049" style="stroke: #000000; stroke-width: 1.5"/>
      </g>
     </g>
     <g id="text_5">
      <text style="font: 8px 'Arial', sans-serif, serif; text-anchor: end" x="32.2775" y="37.923615" transform="rotate(-0 32.2775 37.923615)">0</text>
     </g>
    </g>
    <g id="ytick_3">
     <g id="line2d_5">
      <g>
       <use xlink:href="#m0aec8851bc" x="39.2775" y="10.063125" style="stroke: #000000; stroke-width: 1.5"/>
      </g>
     </g>
     <g id="text_6">
      <text style="font: 8px 'Arial', sans-serif, serif; text-anchor: end" x="32.2775" y="12.92625" transform="rotate(-0 32.2775 12.92625)">50</text>
     </g>
    </g>
    <g id="text_7">
     <text style="font: 8px 'Arial', sans-serif, serif; text-anchor: middle" x="13.02375" y="40.669218" transform="rotate(-90 13.02375 40.669218)">V (mV)</text>
    </g>
   </g>
   <g id="line2d_6">
    <path d="M 43.042955 70.0568 
L 43.293776 68.778912 
L 43.858124 67.472434 
L 44.861409 65.773977 
L 46.303631 63.790304 
L 49.376192 59.718763 
L 49.564308 59.173303 
L 49.689719 58.038915 
L 49.94054 52.326583 
L 50.88112 22.146486 
L 51.320057 16.831731 
L 51.758994 14.096786 
L 52.197931 12.726655 
L 52.574163 12.197391 
L 52.88769 12.058977 
L 53.201217 12.129029 
L 53.577449 12.440473 
L 54.079091 13.190586 
L 54.706144 14.612209 
L 55.458608 16.962416 
L 56.336483 20.476808 
L 57.527884 26.24404 
L 59.597159 37.574866 
L 60.913971 44.217726 
L 62.544309 51.296388 
L 63.422184 54.164416 
L 64.111943 55.768206 
L 64.864406 56.943711 
L 66.620155 59.033945 
L 67.936967 60.452155 
L 68.752136 61.011733 
L 69.567305 61.3149 
L 70.44518 61.40947 
L 71.448465 61.289869 
L 72.577161 60.923547 
L 73.705857 60.317333 
L 74.521026 59.648889 
L 75.085374 58.903191 
L 75.3989 58.173647 
L 75.587016 57.232022 
L 75.775132 53.856146 
L 76.903828 26.498439 
L 77.342765 22.25091 
L 77.781703 19.960253 
L 78.157934 19.00744 
L 78.471461 18.709365 
L 78.722282 18.714995 
L 79.035809 18.963944 
L 79.474746 19.67554 
L 80.039094 21.085723 
L 80.791558 23.643824 
L 81.794843 27.936664 
L 83.425181 36.064188 
L 86.309626 50.381972 
L 87.250206 53.725164 
L 88.00267 55.681821 
L 88.755134 57.046538 
L 90.636293 59.758001 
L 91.576873 60.840091 
L 92.392042 61.449121 
L 93.207212 61.786716 
L 94.085086 61.913896 
L 95.088371 61.833121 
L 96.279772 61.501454 
L 97.533879 60.92402 
L 98.662575 60.170243 
L 99.415038 59.417721 
L 99.853976 58.715987 
L 100.167502 57.809611 
L 100.292913 57.049759 
L 100.481029 53.562927 
L 101.547019 26.941284 
L 101.985957 22.379181 
L 102.424894 19.878121 
L 102.801126 18.791278 
L 103.114652 18.404179 
L 103.428179 18.364879 
L 103.741706 18.596413 
L 104.180643 19.281599 
L 104.744991 20.657774 
L 105.497455 23.17603 
L 106.50074 27.433129 
L 108.068373 35.229161 
L 111.078228 50.225884 
L 112.018808 53.591463 
L 112.771272 55.578477 
L 113.523736 56.961529 
L 115.279485 59.489596 
L 116.28277 60.697027 
L 117.097939 61.346697 
L 117.913108 61.717599 
L 118.28934 61.810996 
L 118.352045 62.389906 
L 118.352045 62.389906 
" clip-path="url(#pfe88a2c3e2)" style="fill: none; stroke: #4682b4; stroke-width: 1.5; stroke-linecap: square"/>
   </g>
   <g id="line2d_7">
    <path d="M 43.042955 70.0568 
L 43.293776 68.831617 
L 43.858124 67.579259 
L 44.861409 65.950651 
L 46.303631 64.052362 
L 49.376192 60.179994 
L 49.752424 59.195145 
L 49.877835 58.524995 
L 50.003245 56.614757 
L 50.191361 49.192564 
L 50.693004 23.890698 
L 51.069236 16.630856 
L 51.445468 13.431539 
L 51.8217 11.962304 
L 52.135226 11.43132 
L 52.448753 11.281636 
L 52.762279 11.39037 
L 53.138511 11.769717 
L 53.640154 12.610372 
L 54.267207 14.133049 
L 55.019671 16.619511 
L 55.897545 20.386054 
L 56.963536 26.020732 
L 58.719285 36.718499 
L 60.851266 49.475104 
L 61.791846 53.804838 
L 62.481604 56.08058 
L 63.359479 58.124631 
L 65.366049 62.303017 
L 66.055807 63.0935 
L 66.808271 63.61117 
L 67.623441 63.883172 
L 68.501315 63.939938 
L 69.567305 63.779306 
L 70.884117 63.341796 
L 72.514456 62.5476 
L 74.144794 61.513961 
L 75.27349 60.554103 
L 75.900543 59.747455 
L 76.276775 58.921762 
L 76.527596 57.826213 
L 76.653007 56.654207 
L 76.778417 53.621908 
L 77.593587 22.563075 
L 77.969819 17.937318 
L 78.34605 15.688392 
L 78.659577 14.825824 
L 78.973104 14.546658 
L 79.223925 14.618576 
L 79.537452 14.978831 
L 79.976389 15.860545 
L 80.603442 17.691695 
L 81.418611 20.85856 
L 82.421896 25.731192 
L 83.864119 33.974406 
L 86.999385 52.167685 
L 87.814554 55.405492 
L 88.629723 57.681524 
L 90.510883 62.132494 
L 91.200641 63.11545 
L 91.8904 63.740268 
L 92.642864 64.127204 
L 93.458033 64.299377 
L 94.398613 64.273001 
L 95.590014 64.0001 
L 97.032236 63.427316 
L 98.787985 62.483665 
L 100.481029 61.331786 
L 101.484314 60.412751 
L 102.048662 59.633003 
L 102.424894 58.727826 
L 102.675715 57.426628 
L 102.801126 55.855131 
L 102.989242 48.726961 
L 103.490884 27.333119 
L 103.867116 20.381991 
L 104.243348 16.956296 
L 104.61958 15.303904 
L 104.933107 14.734863 
L 105.183928 14.636159 
L 105.434749 14.771018 
L 105.810981 15.302933 
L 106.312624 16.471371 
L 107.002382 18.72403 
L 107.880257 22.448976 
L 109.008953 28.322961 
L 111.140934 40.955959 
L 113.147504 52.30262 
L 113.962673 55.492851 
L 114.777842 57.74043 
L 116.659002 62.153492 
L 117.34876 63.118494 
L 118.038519 63.730611 
L 118.28934 63.885319 
L 118.352045 64.483301 
L 118.352045 64.483301 
" clip-path="url(#pfe88a2c3e2)" style="fill: none; stroke: #008000; stroke-width: 1.5; stroke-linecap: square"/>
   </g>
   <g id="line2d_8">
    <path d="M 43.042955 70.0568 
L 43.293776 68.794342 
L 43.858124 67.500982 
L 44.861409 65.818655 
L 46.303631 63.854582 
L 49.376192 59.877186 
L 49.627013 59.083127 
L 49.815129 56.295561 
L 50.065951 48.86875 
L 50.693004 26.698952 
L 51.131941 19.18738 
L 51.570878 15.358838 
L 52.009815 13.382817 
L 52.386047 12.532498 
L 52.762279 12.170237 
L 53.075806 12.132107 
L 53.452038 12.332875 
L 53.890975 12.854063 
L 54.455323 13.925741 
L 55.145082 15.793053 
L 55.960251 18.705743 
L 57.026241 23.451141 
L 58.65658 31.931589 
L 61.102087 44.638843 
L 62.66972 51.312793 
L 63.547595 54.130447 
L 64.237353 55.703239 
L 64.989817 56.845882 
L 66.369334 58.389609 
L 68.313199 60.425636 
L 69.128368 60.934316 
L 69.943537 61.200086 
L 70.884117 61.262527 
L 71.887402 61.103662 
L 73.016098 60.693533 
L 74.019383 60.10508 
L 74.771847 59.418507 
L 75.210784 58.7651 
L 75.524311 57.875019 
L 75.649722 56.820303 
L 75.900543 51.270212 
L 76.715712 30.051412 
L 77.154649 24.357369 
L 77.593587 21.170026 
L 78.032524 19.532334 
L 78.408756 18.951742 
L 78.722282 18.87716 
L 79.035809 19.08469 
L 79.412041 19.629986 
L 79.913683 20.761653 
L 80.603442 22.917839 
L 81.544022 26.70025 
L 82.923539 33.320651 
L 86.497742 50.825138 
L 87.438322 54.000062 
L 88.190786 55.826654 
L 89.005955 57.190922 
L 91.200641 60.163125 
L 92.078516 61.015027 
L 92.893685 61.503775 
L 93.771559 61.759995 
L 94.712139 61.796707 
L 95.77813 61.61505 
L 97.032236 61.164925 
L 98.223637 60.511541 
L 99.164217 59.753855 
L 99.728565 59.043386 
L 100.104797 58.220644 
L 100.292913 57.361943 
L 100.481029 54.309381 
L 101.735135 25.254001 
L 102.174073 21.500421 
L 102.61301 19.485347 
L 102.989242 18.672796 
L 103.302768 18.448181 
L 103.616295 18.531581 
L 103.992527 18.950537 
L 104.494169 19.939483 
L 105.121223 21.727226 
L 105.936392 24.764595 
L 107.065088 29.894131 
L 109.44789 42.064261 
L 110.890112 49.065893 
L 111.893397 52.835817 
L 112.708567 55.136121 
L 113.46103 56.5984 
L 114.589726 58.205709 
L 116.470886 60.586412 
L 117.286055 61.230168 
L 118.101224 61.601701 
L 118.28934 61.654506 
L 118.352045 62.237212 
L 118.352045 62.237212 
" clip-path="url(#pfe88a2c3e2)" style="fill: none; stroke-dasharray: 7.4,3.2; stroke-dashoffset: 0; stroke: #000000; stroke-width: 2"/>
   </g>
   <g id="patch_3">
    <path d="M 39.2775 72.995559 
L 39.2775 8.342878 
" style="fill: none; stroke: #000000; stroke-width: 1.5; stroke-linejoin: miter; stroke-linecap: square"/>
   </g>
   <g id="patch_4">
    <path d="M 39.2775 72.995559 
L 122.1175 72.995559 
" style="fill: none; stroke: #000000; stroke-width: 1.5; stroke-linejoin: miter; stroke-linecap: square"/>
   </g>
   <g id="legend_1">
    <g id="line2d_9">
     <path d="M 47.45625 18.469128 
L 55.45625 18.469128 
L 63.45625 18.469128 
" style="fill: none; stroke: #4682b4; stroke-width: 1.5; stroke-linecap: square"/>
    </g>
    <g id="text_8">
     <text style="font: 8px 'Arial', sans-serif, serif; text-anchor: start" x="69.85625" y="21.269128" transform="rotate(-0 69.85625 21.269128)">Inferred</text>
    </g>
    <g id="line2d_10">
     <path d="M 47.45625 29.785378 
L 55.45625 29.785378 
L 63.45625 29.785378 
" style="fill: none; stroke: #008000; stroke-width: 1.5; stroke-linecap: square"/>
    </g>
    <g id="text_9">
     <text style="font: 8px 'Arial', sans-serif, serif; text-anchor: start" x="69.85625" y="32.585378" transform="rotate(-0 69.85625 32.585378)">Initial guess</text>
    </g>
    <g id="line2d_11">
     <path d="M 47.45625 41.195378 
L 55.45625 41.195378 
L 63.45625 41.195378 
" style="fill: none; stroke-dasharray: 7.4,3.2; stroke-dashoffset: 0; stroke: #000000; stroke-width: 2"/>
    </g>
    <g id="text_10">
     <text style="font: 8px 'Arial', sans-serif, serif; text-anchor: start" x="69.85625" y="43.995378" transform="rotate(-0 69.85625 43.995378)">True Voltage</text>
    </g>
   </g>
  </g>
 </g>
 <defs>
  <clipPath id="pfe88a2c3e2">
   <rect x="39.2775" y="8.342878" width="82.84" height="64.652681"/>
  </clipPath>
 </defs>
</svg>
