<?xml version="1.0" encoding="utf-8" standalone="no"?>
<!DOCTYPE svg PUBLIC "-//W3C//DTD SVG 1.1//EN"
  "http://www.w3.org/Graphics/SVG/1.1/DTD/svg11.dtd">
<svg xmlns:xlink="http://www.w3.org/1999/xlink" width="389.55925pt" height="105.31875pt" viewBox="0 0 389.55925 105.31875" xmlns="http://www.w3.org/2000/svg" version="1.1">
 <metadata>
  <rdf:RDF xmlns:dc="http://purl.org/dc/elements/1.1/" xmlns:cc="http://creativecommons.org/ns#" xmlns:rdf="http://www.w3.org/1999/02/22-rdf-syntax-ns#">
   <cc:Work>
    <dc:type rdf:resource="http://purl.org/dc/dcmitype/StillImage"/>
    <dc:date>2025-10-29T05:05:15.691279</dc:date>
    <dc:format>image/svg+xml</dc:format>
    <dc:creator>
     <cc:Agent>
      <dc:title>Matplotlib v3.9.2, https://matplotlib.org/</dc:title>
     </cc:Agent>
    </dc:creator>
   </cc:Work>
  </rdf:RDF>
 </metadata>
 <defs>
  <style type="text/css">*{stroke-linejoin: round; stroke-linecap: butt}</style>
 </defs>
 <g id="figure_1">
  <g id="patch_1">
   <path d="M 0 105.31875 
L 389.55925 105.31875 
L 389.55925 0 
L 0 0 
z
" style="fill: #ffffff"/>
  </g>
  <g id="axes_1">
   <g id="patch_2">
    <path d="M 30.88875 72.48625 
L 107.67925 72.48625 
L 107.67925 15.92625 
L 30.88875 15.92625 
z
" style="fill: #ffffff"/>
   </g>
   <g id="matplotlib.axis_1">
    <g id="xtick_1">
     <g id="line2d_1">
      <defs>
       <path id="me0afa98a29" d="M 0 0 
L 0 3.5 
" style="stroke: #000000; stroke-width: 1.5"/>
      </defs>
      <g>
       <use xlink:href="#me0afa98a29" x="34.379227" y="72.48625" style="stroke: #000000; stroke-width: 1.5"/>
      </g>
     </g>
     <g id="text_1">
      <text style="font: 8px 'Arial', sans-serif, serif; text-anchor: middle" x="34.379227" y="85.2125" transform="rotate(-0 34.379227 85.2125)">0</text>
     </g>
    </g>
    <g id="xtick_2">
     <g id="line2d_2">
      <g>
       <use xlink:href="#me0afa98a29" x="62.314219" y="72.48625" style="stroke: #000000; stroke-width: 1.5"/>
      </g>
     </g>
     <g id="text_2">
      <text style="font: 8px 'Arial', sans-serif, serif; text-anchor: middle" x="62.314219" y="85.2125" transform="rotate(-0 62.314219 85.2125)">1000</text>
     </g>
    </g>
    <g id="xtick_3">
     <g id="line2d_3">
      <g>
       <use xlink:href="#me0afa98a29" x="90.249212" y="72.48625" style="stroke: #000000; stroke-width: 1.5"/>
      </g>
     </g>
     <g id="text_3">
      <text style="font: 8px 'Arial', sans-serif, serif; text-anchor: middle" x="90.249212" y="85.2125" transform="rotate(-0 90.249212 85.2125)">2000</text>
     </g>
    </g>
    <g id="text_4">
     <text style="font: 8px 'Arial', sans-serif, serif; text-anchor: middle" x="69.284" y="96.52875" transform="rotate(-0 69.284 96.52875)">iteration</text>
    </g>
   </g>
   <g id="matplotlib.axis_2">
    <g id="ytick_1">
     <g id="line2d_4">
      <defs>
       <path id="mddf8560aad" d="M 0 0 
L -3.5 0 
" style="stroke: #000000; stroke-width: 1.5"/>
      </defs>
      <g>
       <use xlink:href="#mddf8560aad" x="30.88875" y="58.275664" style="stroke: #000000; stroke-width: 1.5"/>
      </g>
     </g>
     <g id="text_5">
      <text style="font: 8px 'Arial', sans-serif, serif; text-anchor: end" x="23.88875" y="61.138789" transform="rotate(-0 23.88875 61.138789)">6</text>
     </g>
    </g>
    <g id="ytick_2">
     <g id="line2d_5">
      <g>
       <use xlink:href="#mddf8560aad" x="30.88875" y="34.996309" style="stroke: #000000; stroke-width: 1.5"/>
      </g>
     </g>
     <g id="text_6">
      <text style="font: 8px 'Arial', sans-serif, serif; text-anchor: end" x="23.88875" y="37.859434" transform="rotate(-0 23.88875 37.859434)">8</text>
     </g>
    </g>
    <g id="text_7">
     <!-- $g_L$ (S/cm²) -->
     <g transform="translate(13.04 62.48625) rotate(-90)">
      <text>
       <tspan style="font: 8px 'Arial'" x="0 8.101309 10.323966 12.988028 18.323966 20.546622 24.546622 31.210684 33.874747" y="-0.171875">g (S/cm²)</tspan>
       <tspan style="font: 5.6px 'Arial'" x="4.588606" y="2.217625">L</tspan>
      </text>
     </g>
    </g>
    <g id="text_8">
     <text style="font: 8px 'Arial', sans-serif, serif; text-anchor: start" x="30.88875" y="12.92625" transform="rotate(-0 30.88875 12.92625)">1e−6</text>
    </g>
   </g>
   <g id="line2d_6">
    <path d="M 34.379227 18.497159 
L 34.490967 49.119926 
L 34.546837 45.634867 
L 34.574772 43.940558 
L 34.630642 45.844533 
L 34.658577 48.137541 
L 34.714447 44.924849 
L 34.742382 44.382099 
L 34.770317 45.589389 
L 34.909992 53.873348 
L 34.965862 52.565949 
L 35.021732 51.476669 
L 35.049667 51.821515 
L 35.161407 54.461196 
L 35.189342 54.092784 
L 35.301082 51.967113 
L 35.329017 52.332671 
L 35.412822 53.727708 
L 35.468692 53.228038 
L 35.524562 52.554066 
L 35.580432 52.855752 
L 35.636302 53.16324 
L 35.664237 53.022506 
L 35.915652 51.544611 
L 36.222937 49.929069 
L 36.306742 49.490529 
L 36.586092 48.079401 
L 37.033052 46.486857 
L 38.038711 44.483933 
L 38.876761 43.604186 
L 40.99982 41.562643 
L 41.782 40.435856 
L 42.56418 38.898985 
L 43.62571 36.252047 
L 44.407889 33.824869 
L 45.720834 29.588749 
L 47.648349 25.108108 
L 48.234983 24.429754 
L 48.737813 24.149547 
L 49.212708 24.119493 
L 49.715538 24.308255 
L 50.330108 24.807078 
L 51.056418 25.703351 
L 52.034142 27.287897 
L 52.509037 28.347387 
L 52.564907 28.682494 
L 52.592842 27.739007 
L 52.676647 29.69928 
L 52.648712 27.508905 
L 52.732517 29.484591 
L 52.760452 29.42823 
L 52.788387 29.056167 
L 52.816322 30.332357 
L 52.900127 30.322279 
L 52.928062 30.006175 
L 53.039802 31.030074 
L 53.067737 30.719326 
L 53.095672 31.480751 
L 53.123607 30.942177 
L 53.235347 31.835824 
L 53.263282 31.388736 
L 53.347087 31.681815 
L 53.430892 32.094117 
L 53.458827 31.935112 
L 53.710242 32.41381 
L 53.738177 32.218844 
L 53.766112 32.44703 
L 53.821982 32.414181 
L 53.961657 32.603092 
L 53.989592 32.530375 
L 54.073397 32.590981 
L 54.213072 32.779268 
L 54.324812 32.805088 
L 54.464487 32.977728 
L 54.492422 32.924638 
L 54.520357 33.012017 
L 54.548292 32.979813 
L 54.743837 33.163813 
L 55.051121 33.542535 
L 55.106991 33.668183 
L 55.134926 33.321134 
L 55.190796 33.193242 
L 55.218731 34.221038 
L 55.246666 32.979993 
L 55.274601 34.654046 
L 55.302536 33.09225 
L 55.414276 34.989905 
L 55.442211 34.20465 
L 55.470146 35.518507 
L 55.498081 34.664738 
L 55.609821 36.053058 
L 55.637756 35.355616 
L 55.721561 35.852936 
L 55.805366 36.541655 
L 55.833301 36.263438 
L 55.945041 36.840091 
L 56.028846 36.781496 
L 56.056781 36.622745 
L 56.084716 36.979173 
L 56.112651 36.65101 
L 56.224391 37.028007 
L 56.252326 36.84314 
L 56.280261 37.106588 
L 56.308196 36.907017 
L 56.419936 37.155783 
L 56.447871 37.000642 
L 56.475806 37.20557 
L 56.503741 37.048597 
L 56.615481 37.234258 
L 56.643416 37.118212 
L 56.671351 37.271331 
L 56.699286 37.149717 
L 56.811026 37.267086 
L 56.866896 37.309272 
L 56.894831 37.22941 
L 57.034506 37.327534 
L 57.257986 37.343032 
L 57.397661 37.457321 
L 57.481466 37.420481 
L 57.621141 37.571546 
L 57.677011 37.622212 
L 57.704946 37.444522 
L 57.760816 37.409757 
L 57.788751 37.811451 
L 57.844621 38.030184 
L 57.872556 37.120562 
L 57.956361 38.710656 
L 57.928426 36.971095 
L 58.012231 38.599416 
L 58.068101 38.338931 
L 58.151906 39.334894 
L 58.207776 39.230185 
L 58.263646 39.091474 
L 58.347451 39.844467 
L 58.431256 40.014598 
L 58.459191 39.627862 
L 58.487126 40.18583 
L 58.57093 40.062644 
L 58.598865 39.983427 
L 58.68267 40.325171 
L 58.654735 39.948619 
L 58.710605 40.083297 
L 58.822345 40.368273 
L 58.85028 40.159994 
L 58.878215 40.37915 
L 58.934085 40.334212 
L 59.57659 40.388022 
L 59.660395 40.329358 
L 59.68833 40.340405 
L 60.107355 40.358566 
L 60.19116 40.246182 
L 60.24703 40.220955 
L 60.274965 40.43611 
L 60.330835 40.510917 
L 60.35877 40.08993 
L 60.41464 39.904215 
L 60.442575 40.988986 
L 60.47051 39.668688 
L 60.498445 41.333123 
L 60.52638 39.923138 
L 60.63812 41.702434 
L 60.666055 40.89904 
L 60.69399 41.998843 
L 60.721925 41.417077 
L 60.833665 42.438314 
L 60.8616 41.85739 
L 60.889535 42.453103 
L 60.945405 42.290552 
L 61.02921 42.803576 
L 61.001275 42.212679 
L 61.08508 42.686995 
L 61.113015 42.744489 
L 61.14095 42.489933 
L 61.168885 42.931219 
L 61.19682 42.516467 
L 61.30856 42.920247 
L 61.336495 42.657497 
L 61.36443 42.932675 
L 61.4203 42.850674 
L 61.504105 42.918055 
L 61.53204 42.751248 
L 61.615845 42.840993 
L 61.69965 42.889531 
L 61.727585 42.725683 
L 61.81139 42.781123 
L 61.86726 42.708416 
L 61.895195 42.813749 
L 61.92313 42.687318 
L 62.006935 42.709147 
L 62.146609 42.673794 
L 62.286284 42.580445 
L 62.481829 42.460783 
L 62.621504 42.411595 
L 62.872919 42.34496 
L 63.012594 42.239949 
L 63.068464 42.211203 
L 63.096399 42.314847 
L 63.152269 42.328355 
L 63.180204 42.122924 
L 63.236074 42.037266 
L 63.264009 42.466177 
L 63.319879 42.719167 
L 63.347814 41.562145 
L 63.431619 43.391715 
L 63.403684 41.522436 
L 63.459554 42.30135 
L 63.571294 44.043482 
L 63.599229 43.314594 
L 63.710969 44.532889 
L 63.766839 44.434072 
L 63.822709 44.243922 
L 63.850644 44.873347 
L 63.878579 44.368606 
L 63.962384 44.58907 
L 63.990319 45.040758 
L 64.018254 44.553532 
L 64.074124 44.835231 
L 64.102059 44.758952 
L 64.129994 45.079096 
L 64.157929 44.678465 
L 64.213799 44.871759 
L 64.241734 44.835623 
L 64.269669 45.029033 
L 64.297604 44.769602 
L 64.353474 44.8716 
L 64.604889 44.854927 
L 64.716629 44.714903 
L 64.772499 44.619251 
L 64.800434 44.72532 
L 64.968044 44.488003 
L 64.995979 44.520693 
L 65.051849 44.44253 
L 65.191524 44.341929 
L 65.415004 44.105279 
L 65.582614 43.997692 
L 65.806093 43.821992 
L 66.169248 43.599591 
L 66.364793 43.448494 
L 66.448598 43.461494 
L 66.588273 43.216846 
L 66.644143 43.074234 
L 66.672078 43.67234 
L 66.727948 44.070419 
L 66.755883 42.454088 
L 66.783818 44.590896 
L 66.867623 44.407251 
L 66.895558 43.98854 
L 67.007298 45.697453 
L 67.035233 44.944365 
L 67.063168 45.978432 
L 67.091103 45.659872 
L 67.119038 45.746716 
L 67.202843 46.379365 
L 67.174908 45.711522 
L 67.230778 46.17144 
L 67.258713 46.165427 
L 67.342518 46.593047 
L 67.314583 46.059782 
L 67.370453 46.348569 
L 67.398388 46.316281 
L 67.426323 46.646598 
L 67.454258 46.182932 
L 67.510128 46.421831 
L 67.565998 46.625616 
L 67.593933 46.249165 
L 67.705673 46.522739 
L 67.817413 46.270702 
L 67.845348 46.390978 
L 67.929153 46.271025 
L 68.152633 45.981725 
L 68.180568 46.060952 
L 68.236438 45.935108 
L 68.264373 45.94678 
L 68.431983 45.659872 
L 68.459918 45.689984 
L 68.487853 45.600086 
L 68.515788 45.592062 
L 69.158293 44.825301 
L 69.968407 44.051904 
L 70.052212 44.018229 
L 70.191887 43.81564 
L 70.247757 43.723461 
L 70.275692 43.980923 
L 70.331562 44.107275 
L 70.359497 43.291543 
L 70.415367 42.908549 
L 70.443302 45.032839 
L 70.471237 43.186893 
L 70.499172 45.043372 
L 70.555042 44.477078 
L 70.666782 46.220116 
L 70.694717 45.423868 
L 70.722652 46.550819 
L 70.750587 46.211213 
L 70.778522 46.262673 
L 70.862327 46.9399 
L 70.834392 46.245258 
L 70.890262 46.799431 
L 70.918197 46.686291 
L 70.946132 47.149189 
L 70.974067 46.655686 
L 71.029937 46.989893 
L 71.085807 47.231222 
L 71.113742 46.787956 
L 71.225482 47.195271 
L 71.337222 46.792143 
L 71.365157 47.074329 
L 71.448962 46.951047 
L 71.476897 46.747384 
L 71.560702 46.782218 
L 71.588637 46.793768 
L 71.756247 46.52375 
L 71.784182 46.561167 
L 71.812117 46.422609 
L 71.840052 46.480087 
L 72.035597 46.14425 
L 72.063532 46.146748 
L 72.231142 45.826721 
L 72.314947 45.735484 
L 72.594297 45.317979 
L 72.985386 44.815139 
L 73.152996 44.627773 
L 73.795501 43.844255 
L 73.851371 43.721693 
L 73.879306 44.074907 
L 73.935176 44.286383 
L 73.963111 43.139249 
L 74.046916 45.154369 
L 74.018981 42.947871 
L 74.102786 44.837375 
L 74.158656 44.401027 
L 74.270396 46.461948 
L 74.298331 45.598832 
L 74.354201 46.48032 
L 74.382136 46.196837 
L 74.410071 46.883062 
L 74.493876 46.827262 
L 74.521811 46.616761 
L 74.549746 47.077732 
L 74.577681 46.628882 
L 74.689421 47.135909 
L 74.717356 46.684195 
L 74.801161 46.730933 
L 74.829096 47.047117 
L 74.857031 46.677589 
L 74.912901 46.856644 
L 74.996706 46.653511 
L 74.968771 46.891658 
L 75.024641 46.750486 
L 75.248121 46.486238 
L 75.415731 46.162225 
L 75.443666 46.229644 
L 75.471601 46.071517 
L 75.499536 46.112348 
L 75.890626 45.443897 
L 76.365521 44.72333 
L 76.589 44.445161 
L 76.952155 43.944967 
L 76.98009 43.986782 
L 77.008025 43.861696 
L 77.03596 43.941997 
L 77.175635 43.465046 
L 77.231505 43.136338 
L 77.25944 44.439979 
L 77.287375 42.813993 
L 77.31531 44.931195 
L 77.343245 43.242994 
L 77.454985 45.743736 
L 77.48292 44.781919 
L 77.53879 45.975616 
L 77.566725 45.278725 
L 77.678465 46.561008 
L 77.7064 45.923665 
L 77.734335 46.752349 
L 77.790205 46.518695 
L 77.846075 46.259465 
L 77.87401 46.935792 
L 77.98575 46.393862 
L 78.013685 46.978365 
L 78.09749 46.840056 
L 78.125425 46.423313 
L 78.15336 46.893908 
L 78.20923 46.659487 
L 78.2651 46.44746 
L 78.293035 46.776163 
L 78.404775 46.421286 
L 78.43271 46.608752 
L 78.460645 46.364396 
L 78.48858 46.485925 
L 78.684125 46.144721 
L 78.71206 46.169567 
L 78.87967 45.782841 
L 78.907605 45.852774 
L 78.93554 45.675598 
L 78.963475 45.727703 
L 79.186955 45.266562 
L 79.354565 45.03394 
L 79.578045 44.631192 
L 79.66185 44.543808 
L 79.9412 44.097345 
L 80.025004 44.014137 
L 80.220549 43.682645 
L 80.248484 43.733195 
L 80.276419 43.589836 
L 80.304354 43.68281 
L 80.444029 43.162587 
L 80.499899 42.829279 
L 80.527834 44.158295 
L 80.555769 42.561353 
L 80.583704 44.574567 
L 80.611639 43.015502 
L 80.723379 45.319715 
L 80.751314 44.34728 
L 80.807184 45.415356 
L 80.835119 44.903348 
L 80.863054 45.908378 
L 80.946859 45.874582 
L 80.974794 45.49804 
L 81.002729 46.197229 
L 81.030664 45.59411 
L 81.142404 46.279605 
L 81.170339 45.76439 
L 81.254144 45.999504 
L 81.310014 45.796423 
L 81.337949 46.219645 
L 81.449689 45.793602 
L 81.477624 46.096702 
L 81.561429 45.909394 
L 81.701104 45.668447 
L 81.756974 45.659872 
L 81.924584 45.354925 
L 81.952519 45.378199 
L 82.120129 45.018098 
L 82.148064 45.027366 
L 82.315674 44.689999 
L 82.958179 43.606922 
L 82.986114 43.630455 
L 83.014049 43.517342 
L 83.041984 43.556135 
L 83.181659 43.216439 
L 83.237529 43.08048 
L 83.265464 43.403423 
L 83.321334 43.532909 
L 83.349269 42.559722 
L 83.433074 44.209607 
L 83.405139 42.314032 
L 83.488944 44.112404 
L 83.544814 43.716056 
L 83.628618 44.849925 
L 83.656553 44.769051 
L 83.684488 44.579987 
L 83.768293 45.361552 
L 83.796228 45.031727 
L 83.880033 44.976801 
L 83.907968 45.600721 
L 83.935903 45.076719 
L 84.019708 45.222936 
L 84.047643 45.582381 
L 84.075578 45.109737 
L 84.131448 45.231394 
L 84.215253 45.132133 
L 84.243188 45.440589 
L 84.271123 45.113141 
L 84.354928 45.16513 
L 84.382863 45.245702 
L 84.410798 45.039969 
L 84.438733 45.206728 
L 84.578408 44.953723 
L 84.718083 44.656504 
L 84.773953 44.635014 
L 84.969498 44.254561 
L 85.109173 43.974984 
L 85.137108 44.011252 
L 85.276783 43.692628 
L 85.304718 43.698509 
L 85.528198 43.310143 
L 85.807548 42.832699 
L 85.835483 42.917076 
L 85.919288 42.55409 
L 85.975158 42.305605 
L 86.003093 43.133337 
L 86.058963 43.539927 
L 86.086898 41.771964 
L 86.198638 44.085885 
L 86.226573 43.257397 
L 86.254508 44.726828 
L 86.282443 44.045086 
L 86.477988 45.395168 
L 86.505923 44.823237 
L 86.533858 45.523484 
L 86.589728 45.351214 
L 86.617663 45.462582 
L 86.645598 45.094536 
L 86.673533 45.620078 
L 86.701468 45.122637 
L 86.813208 45.539475 
L 86.841143 45.068245 
L 86.924948 45.185926 
L 86.952883 45.394771 
L 86.980818 45.028636 
L 87.008753 45.352083 
L 87.120493 44.979262 
L 87.148427 45.149939 
L 87.176362 44.900892 
L 87.204297 45.023486 
L 87.371907 44.610009 
L 87.399842 44.700823 
L 87.455712 44.547477 
L 87.483647 44.534403 
L 87.651257 44.184957 
L 87.986477 43.556219 
L 88.237892 43.075287 
L 88.265827 43.102536 
L 88.293762 42.981726 
L 88.321697 43.013713 
L 88.517242 42.580609 
L 88.545177 42.718352 
L 88.573112 42.452288 
L 88.601047 42.691965 
L 88.656917 42.735702 
L 88.684852 42.032343 
L 88.740722 41.684305 
L 88.768657 43.279649 
L 88.796592 41.740089 
L 88.824527 43.429116 
L 88.880397 43.148168 
L 88.964202 44.091734 
L 88.936267 42.880427 
L 89.020072 43.949307 
L 89.048007 44.018705 
L 89.075942 43.685625 
L 89.103877 44.405097 
L 89.131812 43.708651 
L 89.159747 44.433828 
L 89.243552 44.42529 
L 89.271487 44.021272 
L 89.299422 44.598142 
L 89.327357 44.032097 
L 89.355292 44.535122 
L 89.439097 44.481942 
L 89.522902 44.089172 
L 89.494967 44.527712 
L 89.550837 44.390885 
L 89.662577 44.064808 
L 89.690512 44.320593 
L 89.718447 44.032743 
L 89.746382 44.225766 
L 89.913992 43.791276 
L 89.941927 43.965758 
L 89.969862 43.723699 
L 89.997797 43.838395 
L 90.165407 43.435007 
L 90.193342 43.527668 
L 90.221277 43.349608 
L 90.249212 43.410373 
L 90.416822 43.028565 
L 90.444757 43.036351 
L 90.640302 42.574654 
L 90.668237 42.696846 
L 90.696172 42.455474 
L 90.724106 42.639484 
L 90.807911 42.160807 
L 90.863781 41.922754 
L 90.891716 42.848398 
L 90.919651 41.641272 
L 90.947586 43.087043 
L 90.975521 41.771631 
L 91.087261 43.212067 
L 91.115196 42.607524 
L 91.143131 43.62087 
L 91.171066 42.750354 
L 91.282806 43.678781 
L 91.310741 43.196611 
L 91.338676 43.901939 
L 91.366611 43.222192 
L 91.394546 43.904273 
L 91.478351 43.770612 
L 91.534221 43.942723 
L 91.562156 43.41013 
L 91.590091 43.937107 
L 91.673896 43.670323 
L 91.729766 43.772305 
L 91.757701 43.460197 
L 91.785636 43.778895 
L 91.813571 43.429921 
L 91.841506 43.704146 
L 91.953246 43.417646 
L 91.981181 43.50322 
L 92.009116 43.274801 
L 92.037051 43.46811 
L 92.176726 43.101642 
L 92.204661 43.121988 
L 92.232596 43.073022 
L 92.428141 42.649266 
L 92.456076 42.777947 
L 92.484011 42.547728 
L 92.511946 42.682263 
L 92.651621 42.242405 
L 92.679556 42.449673 
L 92.707491 42.114556 
L 92.735426 42.41838 
L 92.791296 42.450652 
L 92.819231 41.737787 
L 92.875101 41.480806 
L 92.903036 42.822938 
L 92.930971 41.568174 
L 92.958906 42.851405 
L 93.014776 42.652849 
L 93.070646 42.423038 
L 93.098581 43.21474 
L 93.126516 42.419195 
L 93.154451 43.31055 
L 93.182386 42.7186 
L 93.294126 43.356553 
L 93.322061 42.866448 
L 93.349996 43.476505 
L 93.377931 42.889372 
L 93.405866 43.441068 
L 93.489671 43.242671 
L 93.545541 43.355425 
L 93.573476 42.977592 
L 93.601411 43.350571 
L 93.629346 42.953794 
L 93.685216 42.993985 
L 93.713151 43.147761 
L 93.796956 43.073419 
L 93.936631 42.688377 
L 93.964566 42.923497 
L 93.992501 42.634435 
L 94.020436 42.815782 
L 94.160111 42.507241 
L 94.411525 41.987505 
L 94.43946 42.177687 
L 94.523265 41.677625 
L 94.579135 41.433618 
L 94.60707 42.36393 
L 94.635005 41.163209 
L 94.66294 42.573998 
L 94.690875 41.302412 
L 94.802615 42.635324 
L 94.83055 42.114312 
L 94.858485 43.028888 
L 94.88642 42.168429 
L 94.914355 43.066527 
L 94.99816 42.983028 
L 95.05403 43.227861 
L 95.081965 42.6041 
L 95.1099 43.297937 
L 95.193705 42.981239 
L 95.22164 42.970441 
L 95.27751 42.794546 
L 95.305445 43.252622 
L 95.33338 42.758087 
L 95.417185 43.027506 
L 95.528925 42.748967 
L 95.55686 42.995202 
L 95.584795 42.664584 
L 95.61273 42.934956 
L 95.752405 42.593413 
L 96.2273 41.727486 
L 96.255235 41.947415 
L 96.33904 41.433115 
L 96.39491 41.202918 
L 96.422845 42.133833 
L 96.45078 40.962309 
L 96.478715 42.322051 
L 96.50665 41.116513 
L 96.61839 42.329255 
L 96.67426 42.695464 
L 96.702195 41.889874 
L 96.73013 42.778026 
L 96.813935 42.540709 
L 96.84187 42.45891 
L 96.89774 42.315747 
L 96.925675 42.914403 
L 96.95361 42.324592 
L 97.037415 42.722184 
L 97.12122 42.761014 
L 97.149155 42.395985 
L 97.17709 42.759712 
L 97.205025 42.353714 
L 97.23296 42.685365 
L 97.260895 42.377914 
L 97.3447 42.452288 
L 97.372635 42.442565 
L 97.51231 42.073296 
L 97.540245 42.317716 
L 97.56818 41.991284 
L 97.596115 42.228897 
L 97.73579 41.810233 
L 97.763725 41.946012 
L 97.79166 41.744292 
L 97.819595 41.845708 
L 97.959269 41.501618 
L 97.987204 41.548113 
L 98.015139 41.400128 
L 98.043074 41.465017 
L 98.182749 41.000287 
L 98.238619 40.774774 
L 98.266554 41.48006 
L 98.322424 41.779364 
L 98.350359 40.248617 
L 98.378294 42.056226 
L 98.462099 41.865689 
L 98.490034 41.615039 
L 98.573839 42.652362 
L 98.601774 42.309946 
L 98.685579 42.240929 
L 98.713514 42.988628 
L 98.741449 42.379391 
L 98.825254 42.660752 
L 98.881124 42.485777 
L 98.909059 43.008679 
L 98.936994 42.516467 
L 99.020799 42.64103 
L 99.076669 42.437991 
L 99.104604 42.844084 
L 99.132539 42.412907 
L 99.216344 42.557764 
L 99.244279 42.583303 
L 99.383954 42.221111 
L 99.411889 42.389279 
L 99.439824 42.176787 
L 99.467759 42.248387 
L 99.635369 41.830151 
L 99.663304 41.984467 
L 99.691239 41.737951 
L 99.719174 41.873094 
L 99.858849 41.480139 
L 99.886784 41.508976 
L 99.914719 41.388219 
L 99.970589 41.295372 
L 100.110264 41.056013 
L 100.724834 39.896562 
L 100.780704 39.679147 
L 100.808639 40.187005 
L 100.864509 40.631886 
L 100.892444 38.669814 
L 101.004184 41.571472 
L 101.032119 40.551674 
L 101.060054 42.370065 
L 101.087989 41.841918 
L 101.115924 41.896368 
L 101.227664 43.136661 
L 101.255599 42.613146 
L 101.283534 43.502251 
L 101.311469 42.985384 
L 101.367339 43.606848 
L 101.451143 43.358014 
L 101.479078 43.374825 
L 101.507013 43.568637 
L 101.534948 43.220816 
L 101.562883 43.540811 
L 101.674623 43.163476 
L 101.702558 43.46359 
L 101.730493 43.111778 
L 101.786363 43.246557 
L 101.842233 43.340303 
L 101.953973 42.938524 
L 101.981908 43.036759 
L 102.009843 42.739609 
L 102.037778 42.92537 
L 102.205388 42.455638 
L 102.233323 42.493849 
L 102.261258 42.345939 
L 102.289193 42.354688 
L 102.540608 41.755656 
L 103.211048 40.410517 
L 103.238983 40.464036 
L 103.378658 39.946523 
L 103.434528 39.666496 
L 103.462463 40.61011 
L 103.490398 39.300255 
L 103.518333 40.934964 
L 103.546268 39.3927 
L 103.658008 41.322277 
L 103.685943 40.506905 
L 103.713878 41.739269 
L 103.741813 40.992559 
L 103.853553 42.065007 
L 103.881488 41.318053 
L 103.965293 41.710845 
L 104.021163 41.541423 
L 104.049098 42.14064 
L 104.077033 41.656691 
L 104.160838 41.692795 
L 104.188773 42.04547 
L 104.188773 42.04547 
" clip-path="url(#p2bd5566d56)" style="fill: none; stroke: #000000; stroke-width: 1.5; stroke-linecap: square"/>
   </g>
   <g id="line2d_7">
    <path d="M 30.88875 69.915341 
L 107.67925 69.915341 
" clip-path="url(#p2bd5566d56)" style="fill: none; stroke-dasharray: 5.55,2.4; stroke-dashoffset: 0; stroke: #000000; stroke-width: 1.5"/>
   </g>
   <g id="patch_3">
    <path d="M 30.88875 72.48625 
L 30.88875 15.92625 
" style="fill: none; stroke: #000000; stroke-width: 1.5; stroke-linejoin: miter; stroke-linecap: square"/>
   </g>
   <g id="patch_4">
    <path d="M 30.88875 72.48625 
L 107.67925 72.48625 
" style="fill: none; stroke: #000000; stroke-width: 1.5; stroke-linejoin: miter; stroke-linecap: square"/>
   </g>
   <g id="legend_1">
    <g id="line2d_8">
     <path d="M 38.08875 60.89625 
L 46.08875 60.89625 
L 54.08875 60.89625 
" style="fill: none; stroke-dasharray: 5.55,2.4; stroke-dashoffset: 0; stroke: #000000; stroke-width: 1.5"/>
    </g>
    <g id="text_9">
     <text style="font: 8px 'Arial', sans-serif, serif; text-anchor: start" x="60.48875" y="63.69625" transform="rotate(-0 60.48875 63.69625)">true value</text>
    </g>
   </g>
  </g>
  <g id="axes_2">
   <g id="patch_5">
    <path d="M 168.22875 72.48625 
L 245.01925 72.48625 
L 245.01925 15.92625 
L 168.22875 15.92625 
z
" style="fill: #ffffff"/>
   </g>
   <g id="matplotlib.axis_3">
    <g id="xtick_4">
     <g id="line2d_9">
      <g>
       <use xlink:href="#me0afa98a29" x="171.719227" y="72.48625" style="stroke: #000000; stroke-width: 1.5"/>
      </g>
     </g>
     <g id="text_10">
      <text style="font: 8px 'Arial', sans-serif, serif; text-anchor: middle" x="171.719227" y="85.2125" transform="rotate(-0 171.719227 85.2125)">0</text>
     </g>
    </g>
    <g id="xtick_5">
     <g id="line2d_10">
      <g>
       <use xlink:href="#me0afa98a29" x="199.654219" y="72.48625" style="stroke: #000000; stroke-width: 1.5"/>
      </g>
     </g>
     <g id="text_11">
      <text style="font: 8px 'Arial', sans-serif, serif; text-anchor: middle" x="199.654219" y="85.2125" transform="rotate(-0 199.654219 85.2125)">1000</text>
     </g>
    </g>
    <g id="xtick_6">
     <g id="line2d_11">
      <g>
       <use xlink:href="#me0afa98a29" x="227.589212" y="72.48625" style="stroke: #000000; stroke-width: 1.5"/>
      </g>
     </g>
     <g id="text_12">
      <text style="font: 8px 'Arial', sans-serif, serif; text-anchor: middle" x="227.589212" y="85.2125" transform="rotate(-0 227.589212 85.2125)">2000</text>
     </g>
    </g>
    <g id="text_13">
     <text style="font: 8px 'Arial', sans-serif, serif; text-anchor: middle" x="206.624" y="96.52875" transform="rotate(-0 206.624 96.52875)">iteration</text>
    </g>
   </g>
   <g id="matplotlib.axis_4">
    <g id="ytick_3">
     <g id="line2d_12">
      <g>
       <use xlink:href="#mddf8560aad" x="168.22875" y="61.64259" style="stroke: #000000; stroke-width: 1.5"/>
      </g>
     </g>
     <g id="text_14">
      <text style="font: 8px 'Arial', sans-serif, serif; text-anchor: end" x="161.22875" y="64.505715" transform="rotate(-0 161.22875 64.505715)">0.0075</text>
     </g>
    </g>
    <g id="ytick_4">
     <g id="line2d_13">
      <g>
       <use xlink:href="#mddf8560aad" x="168.22875" y="40.58804" style="stroke: #000000; stroke-width: 1.5"/>
      </g>
     </g>
     <g id="text_15">
      <text style="font: 8px 'Arial', sans-serif, serif; text-anchor: end" x="161.22875" y="43.451165" transform="rotate(-0 161.22875 43.451165)">0.0100</text>
     </g>
    </g>
    <g id="ytick_5">
     <g id="line2d_14">
      <g>
       <use xlink:href="#mddf8560aad" x="168.22875" y="19.53349" style="stroke: #000000; stroke-width: 1.5"/>
      </g>
     </g>
     <g id="text_16">
      <text style="font: 8px 'Arial', sans-serif, serif; text-anchor: end" x="161.22875" y="22.396615" transform="rotate(-0 161.22875 22.396615)">0.0125</text>
     </g>
    </g>
    <g id="text_17">
     <!-- $g_{Na}$ (S/cm²) -->
     <g transform="translate(130.2825 64.52625) rotate(-90)">
      <text>
       <tspan style="font: 8px 'Arial'" x="0 12.14545 14.368106 17.032169 22.368106 24.590763 28.590763 35.254825 37.918887" y="-0.171875">g (S/cm²)</tspan>
       <tspan style="font: 5.6px 'Arial'" x="4.588606 8.632747" y="2.217625">Na</tspan>
      </text>
     </g>
    </g>
   </g>
   <g id="line2d_15">
    <path d="M 171.719227 18.497159 
L 171.914772 55.861689 
L 171.998577 49.696179 
L 172.026512 52.750466 
L 172.249992 63.663514 
L 172.501407 68.788032 
L 172.613147 69.915341 
L 172.669017 69.68316 
L 173.060107 65.560684 
L 173.115977 65.677453 
L 173.339457 66.54827 
L 173.451197 66.358 
L 173.898157 65.639263 
L 174.875881 60.76548 
L 176.468176 54.213541 
L 177.306226 51.68332 
L 177.976666 50.317136 
L 178.591235 49.547985 
L 179.149935 49.175383 
L 179.73657 49.054618 
L 180.323205 49.161775 
L 180.937775 49.508674 
L 183.060834 51.197663 
L 184.094429 52.21498 
L 184.932479 52.997636 
L 189.374142 57.531547 
L 189.876972 58.033739 
L 189.904907 57.883459 
L 189.960777 57.842704 
L 190.044582 58.522432 
L 190.072517 58.337217 
L 190.100452 58.503545 
L 190.268062 59.033655 
L 190.295997 58.838012 
L 190.323932 59.075346 
L 190.379802 58.912109 
L 190.407737 58.985994 
L 190.435672 58.752989 
L 190.463607 58.877174 
L 190.631217 58.543774 
L 191.161982 59.024152 
L 191.385462 59.155165 
L 191.664812 59.349019 
L 191.804487 59.431893 
L 192.027967 59.569961 
L 192.474926 59.862717 
L 192.502861 59.7279 
L 192.558731 59.691134 
L 192.586666 60.122468 
L 192.614601 59.701397 
L 192.642536 60.300526 
L 192.670471 59.936528 
L 192.782211 60.645174 
L 192.810146 60.353696 
L 192.921886 60.820463 
L 192.949821 60.563594 
L 193.033626 60.591329 
L 193.061561 60.605023 
L 193.145366 60.291521 
L 193.201236 60.300067 
L 193.285041 60.151744 
L 193.257106 60.325491 
L 193.340911 60.212891 
L 194.430376 60.845985 
L 194.905271 60.969351 
L 195.044946 61.073366 
L 195.100816 61.118372 
L 195.128751 61.002391 
L 195.184621 60.97459 
L 195.212556 61.313571 
L 195.240491 60.931643 
L 195.268426 61.509747 
L 195.296361 61.053201 
L 195.408101 61.789127 
L 195.436036 61.631285 
L 195.463971 61.979542 
L 195.491906 61.740133 
L 195.603646 61.966796 
L 195.771256 61.390743 
L 195.799191 61.48779 
L 195.827126 61.262577 
L 195.855061 61.402277 
L 195.9668 61.25304 
L 196.106475 61.423654 
L 196.24615 61.553659 
L 196.35789 61.539835 
L 196.497565 61.611296 
L 196.832785 61.718442 
L 196.97246 61.762902 
L 197.19594 61.83052 
L 197.391485 61.824567 
L 197.53116 61.894687 
L 197.614965 61.852505 
L 197.69877 62.012723 
L 197.75464 62.120496 
L 197.782575 61.766467 
L 197.92225 62.52468 
L 198.061925 62.887148 
L 197.97812 62.488776 
L 198.08986 62.797211 
L 198.14573 62.888089 
L 198.508885 61.974702 
L 198.620625 62.165121 
L 198.64856 62.114213 
L 198.676495 62.243963 
L 198.70443 62.159737 
L 198.81617 62.275255 
L 198.899975 62.24661 
L 198.92791 62.300083 
L 199.09552 62.28262 
L 199.26313 62.354105 
L 199.37487 62.365168 
L 199.598349 62.444567 
L 200.324659 62.505679 
L 200.464334 62.576407 
L 200.548139 62.509824 
L 200.604009 62.481968 
L 200.631944 62.721518 
L 200.687814 62.90447 
L 200.715749 62.38602 
L 200.799554 63.320529 
L 200.855424 63.289383 
L 200.939229 63.790535 
L 200.967164 63.703563 
L 201.386189 62.562422 
L 201.023034 63.856133 
L 201.414124 62.653853 
L 201.469994 62.594851 
L 201.581734 62.817334 
L 201.609669 62.751006 
L 201.637604 62.873026 
L 201.665539 62.791058 
L 201.833149 62.887179 
L 202.000759 62.837272 
L 202.168369 62.893093 
L 202.335979 62.945044 
L 202.531524 62.966469 
L 202.755004 62.936868 
L 202.978484 62.933789 
L 203.341638 63.003294 
L 203.704793 63.047205 
L 203.844468 63.033146 
L 203.928273 63.125028 
L 203.984143 63.185897 
L 204.012078 62.951625 
L 204.067948 62.855457 
L 204.151753 63.975754 
L 204.179688 63.667413 
L 204.207623 64.022187 
L 204.291428 64.689474 
L 204.347298 64.504613 
L 204.375233 64.86725 
L 204.403168 64.469247 
L 204.431103 64.548689 
L 204.766323 62.992399 
L 204.822193 63.054099 
L 204.933933 63.365707 
L 204.989803 63.307795 
L 205.073608 63.390951 
L 205.045673 63.285963 
L 205.101543 63.349212 
L 205.604373 63.359872 
L 205.771983 63.476213 
L 205.995463 63.374547 
L 207.643627 63.588755 
L 207.699497 63.725478 
L 207.727432 63.259829 
L 207.895042 64.951116 
L 207.922977 64.616217 
L 207.950912 65.287783 
L 207.978847 65.155959 
L 208.006782 65.074622 
L 208.034717 65.473296 
L 208.062652 65.020585 
L 208.090587 65.1066 
L 208.258197 63.967345 
L 208.342002 63.516348 
L 208.397872 63.597512 
L 208.425807 63.428698 
L 208.453742 63.655526 
L 208.481677 63.513003 
L 208.677222 63.820532 
L 208.705157 63.684515 
L 208.788962 63.741612 
L 208.816897 63.835164 
L 208.900702 63.770444 
L 209.068312 63.694069 
L 209.515272 63.802626 
L 209.906362 63.672468 
L 211.219306 63.722572 
L 211.275176 63.64007 
L 211.303111 64.181624 
L 211.331046 63.574386 
L 211.358981 64.530272 
L 211.386916 63.859259 
L 211.498656 65.430938 
L 211.526591 64.997627 
L 211.638331 65.531883 
L 211.833876 64.159611 
L 211.861811 64.16209 
L 211.945616 63.836148 
L 211.973551 63.888268 
L 212.029421 63.789868 
L 212.141161 64.068636 
L 212.169096 63.921748 
L 212.197031 64.108708 
L 212.252901 64.019183 
L 212.336706 64.116982 
L 212.308771 64.001939 
L 212.364641 64.068694 
L 212.867471 64.107437 
L 213.007146 64.116547 
L 213.509976 63.96891 
L 213.845195 64.033015 
L 214.26422 64.034054 
L 214.403895 64.100256 
L 214.459765 64.134222 
L 214.4877 63.993531 
L 214.54357 63.927211 
L 214.571505 64.368019 
L 214.59944 63.826148 
L 214.627375 64.685847 
L 214.65531 63.964632 
L 214.76705 65.564884 
L 214.794985 65.166959 
L 214.906725 65.880354 
L 215.074335 64.503291 
L 215.10227 64.610581 
L 215.130205 64.421492 
L 215.21401 64.085687 
L 215.186075 64.430677 
L 215.26988 64.209986 
L 215.297815 64.143332 
L 215.38162 64.388636 
L 215.353685 64.127881 
L 215.409555 64.308696 
L 215.43749 64.252988 
L 215.465425 64.461474 
L 215.49336 64.225853 
L 215.54923 64.344411 
L 215.6051 64.44321 
L 215.633035 64.272718 
L 215.66097 64.400809 
L 215.744775 64.354003 
L 215.82858 64.217822 
L 215.856515 64.237967 
L 216.21967 64.390644 
L 216.38728 64.2638 
L 216.526955 64.216437 
L 216.750435 64.181248 
L 217.11359 64.238712 
L 217.476744 64.236065 
L 217.616419 64.290981 
L 217.700224 64.220214 
L 217.756094 64.19035 
L 217.784029 64.420174 
L 217.839899 64.596796 
L 217.867834 64.032783 
L 218.007509 65.264304 
L 218.091314 65.893963 
L 218.119249 65.658264 
L 218.147184 65.635718 
L 218.175119 65.86977 
L 218.203054 65.35508 
L 218.230989 65.59612 
L 218.398599 64.508593 
L 218.454469 64.560281 
L 218.538274 64.31777 
L 218.510339 64.567184 
L 218.566209 64.470219 
L 218.622079 64.360635 
L 218.650014 64.580321 
L 218.733819 64.483694 
L 218.789689 64.576137 
L 218.817624 64.420374 
L 218.929364 64.556105 
L 219.069039 64.442979 
L 219.208714 64.425712 
L 219.376324 64.566693 
L 219.543934 64.475694 
L 219.655674 64.439736 
L 220.046764 64.388032 
L 220.242309 64.439222 
L 220.381984 64.407064 
L 220.521659 64.479137 
L 220.577529 64.512864 
L 220.605464 64.344815 
L 220.661334 64.273639 
L 220.689269 64.758473 
L 220.717204 64.194527 
L 220.745139 65.059347 
L 220.773074 64.382522 
L 220.884814 65.697512 
L 220.912748 65.330185 
L 220.940683 65.926788 
L 220.968618 65.609901 
L 221.024488 65.780649 
L 221.192098 64.724507 
L 221.220033 64.860297 
L 221.247968 64.493981 
L 221.275903 64.723656 
L 221.387643 64.435551 
L 221.415578 64.68567 
L 221.499383 64.615217 
L 221.555253 64.718028 
L 221.583188 64.554328 
L 221.611123 64.716887 
L 221.694928 64.676215 
L 221.834603 64.576223 
L 221.946343 64.607295 
L 221.974278 64.529331 
L 222.002213 64.627315 
L 222.030148 64.557964 
L 222.197758 64.70304 
L 222.337433 64.639724 
L 222.756458 64.512864 
L 223.091678 64.581835 
L 223.231353 64.508793 
L 223.287223 64.46185 
L 223.315158 64.752849 
L 223.371028 65.003851 
L 223.398963 64.319037 
L 223.482768 65.711889 
L 223.538638 65.659836 
L 223.566573 66.264628 
L 223.650378 66.184711 
L 223.706248 66.201896 
L 223.873858 64.803389 
L 223.901793 64.954359 
L 223.957663 64.681447 
L 223.985598 64.832978 
L 224.013533 64.553473 
L 224.097338 64.694561 
L 224.153208 64.61908 
L 224.181143 64.872089 
L 224.209078 64.674301 
L 224.292883 64.688016 
L 224.320818 64.876532 
L 224.404623 64.770368 
L 224.600167 64.661815 
L 224.683972 64.649955 
L 224.823647 64.753022 
L 224.907452 64.818954 
L 224.935387 64.746688 
L 225.047127 64.731821 
L 225.186802 64.62008 
L 225.214737 64.637065 
L 225.382347 64.574419 
L 225.522022 64.635465 
L 225.661697 64.622852 
L 225.801372 64.67596 
L 225.885177 64.599918 
L 225.941047 64.575309 
L 225.968982 64.761838 
L 226.024852 64.873913 
L 226.052787 64.431077 
L 226.192462 65.577853 
L 226.248332 65.515203 
L 226.332137 66.014046 
L 226.360072 65.754303 
L 226.388007 65.700881 
L 226.415942 65.790629 
L 226.555617 65.023852 
L 226.695292 64.694075 
L 226.807032 64.928276 
L 226.834967 64.699985 
L 226.862902 64.938292 
L 226.918772 64.863289 
L 227.002577 64.933829 
L 227.030512 64.790129 
L 227.114317 64.878407 
L 227.281927 64.717828 
L 227.393667 64.814024 
L 227.477472 64.807695 
L 227.561277 64.889486 
L 227.589212 64.827476 
L 227.673017 64.828413 
L 227.700952 64.804271 
L 228.008237 64.657873 
L 228.092041 64.792188 
L 228.147911 64.851096 
L 228.175846 64.594134 
L 228.231716 64.527386 
L 228.259651 65.208286 
L 228.287586 64.596196 
L 228.315521 65.438946 
L 228.343456 64.979411 
L 228.455196 65.76042 
L 228.483131 65.319329 
L 228.511066 65.801034 
L 228.566936 65.575265 
L 228.818351 64.862689 
L 228.874221 64.739178 
L 228.902156 65.018001 
L 228.930091 64.751371 
L 229.013896 64.902412 
L 229.069766 64.82668 
L 229.097701 64.979921 
L 229.125636 64.804047 
L 229.209441 64.941507 
L 229.321181 64.806726 
L 229.377051 64.76472 
L 229.404986 64.895094 
L 229.432921 64.766517 
L 229.516726 64.871317 
L 229.628466 64.859018 
L 229.768141 64.923468 
L 229.907816 64.78189 
L 229.963686 64.76041 
L 229.991621 64.868446 
L 230.075426 64.695075 
L 230.131296 64.648751 
L 230.159231 65.015898 
L 230.187166 64.582694 
L 230.215101 65.22242 
L 230.243036 64.634888 
L 230.326841 65.498607 
L 230.354776 65.407631 
L 230.382711 65.424812 
L 230.438581 65.332197 
L 230.466516 65.755511 
L 230.606191 65.263033 
L 230.745866 64.808746 
L 230.773801 65.007686 
L 230.857606 64.948755 
L 230.913476 65.008679 
L 230.941411 64.813852 
L 230.969346 65.022377 
L 231.053151 64.895949 
L 231.164891 64.970312 
L 231.304566 64.805585 
L 231.332501 64.931205 
L 231.416306 64.842778 
L 231.555981 64.90198 
L 231.695655 64.958143 
L 231.83533 64.778725 
L 231.8912 64.716574 
L 231.919135 65.099278 
L 231.94707 64.628884 
L 231.975005 65.311902 
L 232.00294 64.691075 
L 232.086745 65.559813 
L 232.11468 65.514443 
L 232.142615 65.466841 
L 232.198485 65.376492 
L 232.22642 65.846773 
L 232.33816 65.316227 
L 232.366095 65.383383 
L 232.4499 64.899706 
L 232.50577 64.928017 
L 232.589575 64.874081 
L 232.61751 65.070983 
L 232.645445 64.82357 
L 232.67338 65.090086 
L 232.72925 65.047739 
L 232.84099 64.908585 
L 232.89686 64.882964 
L 232.924795 65.039386 
L 233.06447 64.872513 
L 233.23208 64.973579 
L 233.315885 64.891964 
L 233.45556 65.00118 
L 233.595235 64.830413 
L 233.651105 64.789961 
L 233.67904 65.022173 
L 233.73491 65.118255 
L 233.762845 64.644924 
L 233.90252 65.562911 
L 233.95839 65.472421 
L 234.01426 65.369712 
L 234.042195 65.799379 
L 234.18187 65.301748 
L 234.321545 64.884278 
L 234.34948 65.09278 
L 234.433285 65.015161 
L 234.489155 65.074509 
L 234.51709 64.875874 
L 234.545025 65.089544 
L 234.62883 64.937947 
L 234.74057 65.005871 
L 234.880245 64.847935 
L 235.01992 65.010816 
L 235.047855 64.90833 
L 235.13166 65.016722 
L 235.271334 64.938633 
L 235.355139 64.957516 
L 235.494814 64.823374 
L 235.550684 64.768081 
L 235.578619 65.053472 
L 235.634489 65.259978 
L 235.662424 64.623111 
L 235.746229 65.866436 
L 235.802099 65.840612 
L 235.885904 66.311316 
L 235.857969 65.755903 
L 235.913839 65.901661 
L 235.941774 66.085127 
L 235.969709 65.982017 
L 236.109384 65.175371 
L 236.137319 65.198403 
L 236.165254 65.167073 
L 236.249059 64.862006 
L 236.304929 64.905114 
L 236.416669 65.120663 
L 236.444604 64.891451 
L 236.472539 65.128832 
L 236.528409 65.061394 
L 236.640149 64.939429 
L 236.668084 65.066496 
L 236.696019 64.910608 
L 236.723954 65.024448 
L 236.751889 64.894408 
L 236.835694 64.950374 
L 237.087109 65.05708 
L 237.226784 64.93024 
L 237.338524 64.885015 
L 238.036899 64.881195 
L 238.092769 64.844174 
L 238.120704 65.034134 
L 238.176574 65.240279 
L 238.204509 64.565984 
L 238.372119 67.177905 
L 238.400054 66.610586 
L 238.455924 67.293572 
L 238.483859 66.72237 
L 238.511794 67.225581 
L 238.567664 66.405441 
L 238.595599 66.477691 
L 238.707339 65.281842 
L 238.735274 65.505968 
L 238.847013 64.976144 
L 238.874948 65.113941 
L 238.902883 64.925087 
L 238.986688 65.010785 
L 239.070493 65.182313 
L 239.042558 64.974207 
L 239.098428 65.03104 
L 239.210168 65.20611 
L 239.321908 64.927252 
L 239.349843 65.055484 
L 239.433648 64.997913 
L 239.740933 65.002518 
L 239.880608 64.851637 
L 240.076153 64.753681 
L 240.215828 64.845057 
L 240.355503 64.852747 
L 240.495178 64.898792 
L 240.634853 64.8395 
L 240.690723 64.810518 
L 240.718658 65.013 
L 240.774528 65.143464 
L 240.802463 64.649983 
L 240.942138 65.900622 
L 240.970073 65.929556 
L 240.998008 65.801567 
L 241.025943 66.360165 
L 241.109748 66.099163 
L 241.165618 66.134333 
L 241.333228 65.192003 
L 241.361163 65.424078 
L 241.389098 65.058382 
L 241.417033 65.29658 
L 241.528773 64.964736 
L 241.528773 64.964736 
" clip-path="url(#p3cab1c5542)" style="fill: none; stroke: #000000; stroke-width: 1.5; stroke-linecap: square"/>
   </g>
   <g id="line2d_16">
    <path d="M 168.22875 65.8535 
L 245.01925 65.8535 
" clip-path="url(#p3cab1c5542)" style="fill: none; stroke-dasharray: 5.55,2.4; stroke-dashoffset: 0; stroke: #000000; stroke-width: 1.5"/>
   </g>
   <g id="patch_6">
    <path d="M 168.22875 72.48625 
L 168.22875 15.92625 
" style="fill: none; stroke: #000000; stroke-width: 1.5; stroke-linejoin: miter; stroke-linecap: square"/>
   </g>
   <g id="patch_7">
    <path d="M 168.22875 72.48625 
L 245.01925 72.48625 
" style="fill: none; stroke: #000000; stroke-width: 1.5; stroke-linejoin: miter; stroke-linecap: square"/>
   </g>
   <g id="legend_2">
    <g id="line2d_17">
     <path d="M 180.28925 26.0525 
L 188.28925 26.0525 
L 196.28925 26.0525 
" style="fill: none; stroke-dasharray: 5.55,2.4; stroke-dashoffset: 0; stroke: #000000; stroke-width: 1.5"/>
    </g>
    <g id="text_18">
     <text style="font: 8px 'Arial', sans-serif, serif; text-anchor: start" x="202.68925" y="28.8525" transform="rotate(-0 202.68925 28.8525)">true value</text>
    </g>
   </g>
  </g>
  <g id="axes_3">
   <g id="patch_8">
    <path d="M 305.56875 72.48625 
L 382.35925 72.48625 
L 382.35925 15.92625 
L 305.56875 15.92625 
z
" style="fill: #ffffff"/>
   </g>
   <g id="matplotlib.axis_5">
    <g id="xtick_7">
     <g id="line2d_18">
      <g>
       <use xlink:href="#me0afa98a29" x="309.059227" y="72.48625" style="stroke: #000000; stroke-width: 1.5"/>
      </g>
     </g>
     <g id="text_19">
      <text style="font: 8px 'Arial', sans-serif, serif; text-anchor: middle" x="309.059227" y="85.2125" transform="rotate(-0 309.059227 85.2125)">0</text>
     </g>
    </g>
    <g id="xtick_8">
     <g id="line2d_19">
      <g>
       <use xlink:href="#me0afa98a29" x="336.994219" y="72.48625" style="stroke: #000000; stroke-width: 1.5"/>
      </g>
     </g>
     <g id="text_20">
      <text style="font: 8px 'Arial', sans-serif, serif; text-anchor: middle" x="336.994219" y="85.2125" transform="rotate(-0 336.994219 85.2125)">1000</text>
     </g>
    </g>
    <g id="xtick_9">
     <g id="line2d_20">
      <g>
       <use xlink:href="#me0afa98a29" x="364.929212" y="72.48625" style="stroke: #000000; stroke-width: 1.5"/>
      </g>
     </g>
     <g id="text_21">
      <text style="font: 8px 'Arial', sans-serif, serif; text-anchor: middle" x="364.929212" y="85.2125" transform="rotate(-0 364.929212 85.2125)">2000</text>
     </g>
    </g>
    <g id="text_22">
     <text style="font: 8px 'Arial', sans-serif, serif; text-anchor: middle" x="343.964" y="96.52875" transform="rotate(-0 343.964 96.52875)">iteration</text>
    </g>
   </g>
   <g id="matplotlib.axis_6">
    <g id="ytick_6">
     <g id="line2d_21">
      <g>
       <use xlink:href="#mddf8560aad" x="305.56875" y="64.022033" style="stroke: #000000; stroke-width: 1.5"/>
      </g>
     </g>
     <g id="text_23">
      <text style="font: 8px 'Arial', sans-serif, serif; text-anchor: end" x="298.56875" y="66.885158" transform="rotate(-0 298.56875 66.885158)">0.0010</text>
     </g>
    </g>
    <g id="ytick_7">
     <g id="line2d_22">
      <g>
       <use xlink:href="#mddf8560aad" x="305.56875" y="39.811666" style="stroke: #000000; stroke-width: 1.5"/>
      </g>
     </g>
     <g id="text_24">
      <text style="font: 8px 'Arial', sans-serif, serif; text-anchor: end" x="298.56875" y="42.674791" transform="rotate(-0 298.56875 42.674791)">0.0015</text>
     </g>
    </g>
    <g id="text_25">
     <!-- $g_K$ (S/cm²) -->
     <g transform="translate(267.7025 62.80625) rotate(-90)">
      <text>
       <tspan style="font: 8px 'Arial'" x="0 8.722012 10.944669 13.608731 18.944669 21.167325 25.167325 31.831387 34.49545" y="-0.171875">g (S/cm²)</tspan>
       <tspan style="font: 5.6px 'Arial'" x="4.588606" y="2.217625">K</tspan>
      </text>
     </g>
    </g>
   </g>
   <g id="line2d_23">
    <path d="M 309.059227 27.429409 
L 309.087162 18.497159 
L 309.143032 26.291288 
L 309.338577 62.22992 
L 309.366512 60.114938 
L 309.673797 45.116544 
L 309.953147 38.445086 
L 310.009017 38.097931 
L 310.064887 38.206926 
L 310.204562 39.144729 
L 310.707392 44.59 
L 310.902937 45.147046 
L 310.986742 45.118021 
L 311.238157 44.928609 
L 311.433702 45.211154 
L 312.886321 47.926885 
L 313.305346 48.067323 
L 313.808176 47.944872 
L 315.67982 47.276864 
L 316.266455 47.411372 
L 316.881025 47.784333 
L 317.5794 48.48738 
L 318.41745 49.678562 
L 319.898004 51.818786 
L 321.741714 54.070773 
L 323.753033 56.451501 
L 327.189037 60.577165 
L 327.244907 60.673596 
L 327.272842 60.508598 
L 327.328712 60.43737 
L 327.356647 60.797822 
L 327.468387 60.347619 
L 327.496322 60.527357 
L 327.524257 60.271019 
L 327.580127 60.355787 
L 327.608062 60.265844 
L 327.635997 60.433599 
L 327.663932 60.291526 
L 327.859477 60.711329 
L 327.887412 60.707113 
L 328.055022 61.016264 
L 328.082957 60.963564 
L 328.110892 61.060097 
L 328.138827 61.046309 
L 329.898731 63.193522 
L 329.982536 62.860747 
L 329.954601 63.247146 
L 330.038406 62.880228 
L 330.094276 62.944512 
L 330.178081 62.696121 
L 330.206016 62.791272 
L 330.233951 62.796977 
L 330.261886 62.684261 
L 330.289821 62.872585 
L 330.317756 62.722383 
L 330.485366 63.095468 
L 330.513301 63.056861 
L 330.541236 63.109797 
L 330.708846 63.283426 
L 330.792651 63.307929 
L 330.988196 63.579521 
L 331.211676 63.906367 
L 331.826246 64.476084 
L 332.189401 64.771487 
L 332.329076 64.839287 
L 332.468751 64.990419 
L 332.524621 65.055982 
L 332.552556 64.851057 
L 332.580491 65.126708 
L 332.608426 64.762811 
L 332.636361 65.086889 
L 332.748101 64.641809 
L 332.776036 64.748466 
L 332.803971 64.518975 
L 332.831906 64.680975 
L 332.943646 64.537397 
L 333.111256 64.884298 
L 333.139191 64.823307 
L 333.167126 64.973474 
L 333.195061 64.89117 
L 333.36267 65.077188 
L 333.390605 65.033344 
L 333.446475 65.111827 
L 333.53028 65.172376 
L 333.75376 65.493832 
L 333.8655 65.568217 
L 334.14485 65.798186 
L 334.340395 65.916947 
L 334.899095 66.245653 
L 334.9829 66.229334 
L 335.066705 66.367469 
L 335.122575 66.43306 
L 335.15051 66.091314 
L 335.178445 66.422711 
L 335.20638 65.997575 
L 335.234315 66.216952 
L 335.401925 65.728395 
L 335.65334 66.044855 
L 335.681275 65.962716 
L 335.70921 66.123599 
L 335.737145 66.03937 
L 335.848885 66.195839 
L 335.87682 66.099155 
L 335.960625 66.177102 
L 336.184105 66.469605 
L 336.26791 66.533471 
L 336.575195 66.792901 
L 336.686935 66.843326 
L 337.329439 67.140324 
L 337.804334 67.274531 
L 337.944009 67.38752 
L 337.999879 67.447113 
L 338.027814 67.14414 
L 338.055749 67.479464 
L 338.083684 66.999384 
L 338.111619 67.33002 
L 338.223359 66.636702 
L 338.251294 66.829832 
L 338.363034 66.460073 
L 338.530644 66.867509 
L 338.558579 66.773928 
L 338.586514 66.91549 
L 338.614449 66.909893 
L 338.670319 67.002203 
L 338.698254 66.88002 
L 338.809994 67.0145 
L 338.837929 66.922889 
L 338.893799 67.011492 
L 339.061409 67.244424 
L 339.284889 67.499601 
L 339.396629 67.560356 
L 339.648044 67.676936 
L 339.955329 67.826571 
L 341.156533 68.066957 
L 341.296208 68.150888 
L 341.352078 68.198573 
L 341.380013 67.963477 
L 341.407948 68.266653 
L 341.435883 67.790469 
L 341.463818 68.217589 
L 341.575558 67.282022 
L 341.603493 67.462463 
L 341.715233 66.887252 
L 341.882843 67.340401 
L 341.938713 67.378715 
L 342.022518 67.549762 
L 342.050453 67.48304 
L 342.218063 67.482634 
L 342.413608 67.792873 
L 342.637088 68.082081 
L 342.860568 68.242268 
L 343.028178 68.280965 
L 343.475138 68.421054 
L 343.754488 68.438714 
L 344.620472 68.579767 
L 344.983627 68.562642 
L 345.039497 68.483536 
L 345.067432 68.776574 
L 345.235042 67.744072 
L 345.262977 67.922584 
L 345.290912 67.482161 
L 345.346782 67.552053 
L 345.374717 67.271041 
L 345.458522 67.433836 
L 345.626132 67.933573 
L 345.654067 67.819995 
L 345.682002 67.947488 
L 345.737872 67.863259 
L 345.765807 67.955696 
L 345.793742 67.832712 
L 345.849612 67.915005 
L 345.877547 67.891638 
L 346.045157 68.260548 
L 346.073092 68.245278 
L 346.101027 68.314742 
L 346.324507 68.560928 
L 346.492117 68.627619 
L 346.687662 68.70071 
L 347.106687 68.793302 
L 347.693321 68.835745 
L 348.252021 68.903616 
L 348.503436 68.966758 
L 348.559306 68.995678 
L 348.587241 68.844679 
L 348.643111 68.714841 
L 348.671046 69.095164 
L 348.838656 67.861111 
L 348.866591 68.085714 
L 348.922461 67.708714 
L 348.950396 67.887263 
L 348.978331 67.620465 
L 349.062136 67.827594 
L 349.173876 68.18113 
L 349.201811 68.152069 
L 349.229746 68.286526 
L 349.313551 68.231098 
L 349.369421 68.292081 
L 349.397356 68.173407 
L 349.592901 68.520607 
L 349.620836 68.520624 
L 349.788446 68.7886 
L 349.900186 68.860119 
L 350.179536 68.976163 
L 351.8277 69.18901 
L 351.88357 69.234872 
L 351.911505 68.95691 
L 351.93944 69.295872 
L 351.967375 68.753088 
L 351.99531 69.212998 
L 352.10705 68.164946 
L 352.134985 68.373611 
L 352.246725 67.816066 
L 352.414335 68.392297 
L 352.49814 68.451406 
L 352.526075 68.301951 
L 352.55401 68.477606 
L 352.637815 68.422333 
L 352.66575 68.297236 
L 352.693685 68.480602 
L 352.72162 68.371491 
L 352.973035 68.88186 
L 353.00097 68.836077 
L 353.05684 68.937429 
L 353.140645 68.960642 
L 353.308255 69.09564 
L 353.419995 69.084544 
L 353.587605 69.203807 
L 353.72728 69.224202 
L 353.95076 69.200735 
L 354.17424 69.217201 
L 354.45359 69.223176 
L 355.096094 69.341275 
L 355.151964 69.38858 
L 355.179899 69.085866 
L 355.207834 69.440016 
L 355.235769 68.88265 
L 355.263704 69.32712 
L 355.375444 68.337343 
L 355.403379 68.549674 
L 355.515119 68.076159 
L 355.626859 68.448576 
L 355.654794 68.3906 
L 355.738599 68.632272 
L 355.766534 68.595547 
L 355.822404 68.661832 
L 355.850339 68.505427 
L 355.962079 68.689574 
L 355.990014 68.604096 
L 356.017949 68.777366 
L 356.045884 68.732513 
L 356.297299 69.141254 
L 356.325234 69.108408 
L 356.381104 69.163334 
L 356.632519 69.287518 
L 356.716324 69.284579 
L 356.744259 69.321591 
L 357.889594 69.399453 
L 357.945464 69.426423 
L 357.973399 69.275855 
L 358.029269 69.166178 
L 358.057204 69.522558 
L 358.196879 68.730867 
L 358.280683 68.28636 
L 358.336553 68.384425 
L 358.364488 68.310976 
L 358.392423 68.533896 
L 358.420358 68.365775 
L 358.532098 68.766335 
L 358.560033 68.657801 
L 358.587968 68.851745 
L 358.671773 68.767854 
L 358.727643 68.835829 
L 358.755578 68.70759 
L 358.923188 69.06344 
L 358.951123 69.01654 
L 358.979058 69.128605 
L 359.006993 69.136201 
L 359.370148 69.373433 
L 359.481888 69.364854 
L 359.649498 69.431324 
L 359.928848 69.445056 
L 360.124393 69.431037 
L 360.627223 69.510281 
L 360.683093 69.577817 
L 360.711028 69.164219 
L 360.738963 69.602633 
L 360.766898 68.913368 
L 360.794833 69.357334 
L 360.906573 68.253471 
L 360.934508 68.520963 
L 361.046248 68.127345 
L 361.157988 68.633174 
L 361.185923 68.508564 
L 361.213858 68.73899 
L 361.297663 68.722804 
L 361.353533 68.767978 
L 361.381468 68.621539 
L 361.549078 68.972144 
L 361.604948 69.011036 
L 361.772558 69.281039 
L 361.828427 69.344789 
L 361.856362 69.302267 
L 362.023972 69.4377 
L 362.107777 69.436119 
L 362.135712 69.458539 
L 362.415062 69.546157 
L 362.582672 69.523702 
L 362.973762 69.482916 
L 363.113437 69.509235 
L 363.253112 69.457333 
L 363.308982 69.430563 
L 363.336917 69.584026 
L 363.392787 69.646001 
L 363.420722 69.197953 
L 363.448657 69.624208 
L 363.476592 68.993564 
L 363.504527 69.339259 
L 363.616267 68.540596 
L 363.644202 68.811985 
L 363.672137 68.488187 
L 363.755942 68.564964 
L 363.839747 68.899882 
L 363.895617 68.889273 
L 363.951487 68.837884 
L 363.979422 69.014785 
L 364.007357 68.832814 
L 364.091162 68.92573 
L 364.314642 69.280342 
L 364.342577 69.236913 
L 364.370512 69.357399 
L 364.398447 69.301667 
L 364.566057 69.476341 
L 364.649862 69.444833 
L 364.677797 69.5022 
L 364.789537 69.492558 
L 364.929212 69.574262 
L 365.096822 69.564206 
L 365.292367 69.584457 
L 365.432041 69.503609 
L 365.487911 69.464481 
L 365.515846 69.628292 
L 365.571716 69.664946 
L 365.655521 69.062098 
L 365.683456 69.340578 
L 365.739326 68.986045 
L 365.767261 69.003708 
L 365.851066 68.682694 
L 365.879001 68.913241 
L 365.906936 68.794553 
L 365.962806 68.964622 
L 365.990741 68.84705 
L 366.074546 69.110598 
L 366.102481 68.964748 
L 366.214221 69.120801 
L 366.242156 68.961555 
L 366.270091 69.146683 
L 366.298026 69.027265 
L 366.465636 69.359699 
L 366.493571 69.284846 
L 366.521506 69.406288 
L 366.549441 69.35442 
L 366.717051 69.521453 
L 366.744986 69.447474 
L 366.828791 69.53346 
L 366.940531 69.534091 
L 367.136076 69.627292 
L 367.275751 69.557278 
L 367.359556 69.624189 
L 367.443361 69.489692 
L 367.499231 69.417317 
L 367.527166 69.692872 
L 367.666841 69.059928 
L 367.694776 69.095826 
L 367.722711 69.060503 
L 367.806516 68.790035 
L 367.778581 69.075658 
L 367.862386 68.851807 
L 367.974126 69.128106 
L 368.002061 68.992547 
L 368.029996 69.200839 
L 368.057931 69.013003 
L 368.085866 69.189625 
L 368.169671 69.134983 
L 368.225541 69.218373 
L 368.253476 69.126308 
L 368.393151 69.374459 
L 368.560761 69.447353 
L 368.700436 69.570114 
L 368.784241 69.536487 
L 368.812176 69.564945 
L 369.035655 69.596261 
L 369.11946 69.671877 
L 369.203265 69.531557 
L 369.259135 69.444402 
L 369.28707 69.738119 
L 369.426745 69.073321 
L 369.482615 69.082002 
L 369.56642 68.781673 
L 369.538485 69.095702 
L 369.594355 69.04032 
L 369.62229 68.868013 
L 369.706095 68.949678 
L 369.7899 69.183458 
L 369.817835 68.990687 
L 369.929575 69.146085 
L 369.95751 69.041005 
L 369.985445 69.221237 
L 370.01338 69.088885 
L 370.153055 69.328267 
L 370.29273 69.522042 
L 370.320665 69.440403 
L 370.376535 69.482074 
L 370.544145 69.595773 
L 370.62795 69.568806 
L 370.767625 69.671246 
L 370.9073 69.589603 
L 370.96317 69.566413 
L 370.991105 69.685045 
L 371.046975 69.710185 
L 371.07491 69.445487 
L 371.102845 69.745264 
L 371.13078 69.299328 
L 371.158715 69.680904 
L 371.24252 69.098467 
L 371.29839 69.107289 
L 371.35426 69.1323 
L 371.382195 68.84252 
L 371.41013 69.113571 
L 371.493935 69.045926 
L 371.52187 69.041044 
L 371.605675 69.234131 
L 371.661545 69.218477 
L 371.68948 69.079854 
L 371.773285 69.15217 
L 371.91296 69.400502 
L 371.940895 69.337332 
L 371.96883 69.443027 
L 371.996765 69.425789 
L 372.164375 69.595691 
L 372.220245 69.621187 
L 372.24818 69.530514 
L 372.387855 69.635454 
L 372.47166 69.595322 
L 372.499595 69.652179 
L 372.639269 69.639389 
L 372.778944 69.686654 
L 372.862749 69.594279 
L 372.918619 69.535255 
L 372.946554 69.779074 
L 373.002424 69.804931 
L 373.086229 68.968229 
L 373.114164 69.129386 
L 373.142099 68.925563 
L 373.225904 68.529734 
L 373.281774 68.639789 
L 373.980149 69.551534 
L 374.008084 69.483815 
L 374.036019 69.588214 
L 374.063954 69.520264 
L 374.203629 69.606635 
L 374.399174 69.715481 
L 374.538849 69.679256 
L 374.678524 69.68812 
L 375.181354 69.668779 
L 375.488639 69.796354 
L 375.544509 69.915341 
L 375.712119 68.065962 
L 375.740054 68.3767 
L 375.795924 67.873118 
L 375.823859 68.204751 
L 375.851794 67.862644 
L 375.907664 68.292439 
L 375.935599 68.191699 
L 376.047339 68.648033 
L 376.075274 68.454571 
L 376.159078 68.567743 
L 376.466363 69.325102 
L 376.494298 69.322202 
L 376.578103 69.48797 
L 376.633973 69.472243 
L 376.801583 69.633636 
L 376.885388 69.67954 
L 377.052998 69.794626 
L 377.220608 69.766422 
L 377.583763 69.758409 
L 377.779308 69.69403 
L 377.918983 69.723951 
L 378.002788 69.663887 
L 378.058658 69.631373 
L 378.086593 69.806475 
L 378.142463 69.874806 
L 378.170398 69.344352 
L 378.198333 69.830973 
L 378.226268 69.102503 
L 378.254203 69.472347 
L 378.365943 68.616441 
L 378.393878 68.943213 
L 378.421813 68.624566 
L 378.505618 68.702483 
L 378.589423 69.040401 
L 378.617358 68.983539 
L 378.645293 68.97169 
L 378.729098 69.125756 
L 378.701163 68.921747 
L 378.784968 69.092332 
L 378.840838 69.072597 
L 378.868773 69.248998 
L 378.868773 69.248998 
" clip-path="url(#p252e26a5fb)" style="fill: none; stroke: #000000; stroke-width: 1.5; stroke-linecap: square"/>
   </g>
   <g id="line2d_24">
    <path d="M 305.56875 70.41357 
L 382.35925 70.41357 
" clip-path="url(#p252e26a5fb)" style="fill: none; stroke-dasharray: 5.55,2.4; stroke-dashoffset: 0; stroke: #000000; stroke-width: 1.5"/>
   </g>
   <g id="patch_9">
    <path d="M 305.56875 72.48625 
L 305.56875 15.92625 
" style="fill: none; stroke: #000000; stroke-width: 1.5; stroke-linejoin: miter; stroke-linecap: square"/>
   </g>
   <g id="patch_10">
    <path d="M 305.56875 72.48625 
L 382.35925 72.48625 
" style="fill: none; stroke: #000000; stroke-width: 1.5; stroke-linejoin: miter; stroke-linecap: square"/>
   </g>
   <g id="legend_3">
    <g id="line2d_25">
     <path d="M 317.62925 26.0525 
L 325.62925 26.0525 
L 333.62925 26.0525 
" style="fill: none; stroke-dasharray: 5.55,2.4; stroke-dashoffset: 0; stroke: #000000; stroke-width: 1.5"/>
    </g>
    <g id="text_26">
     <text style="font: 8px 'Arial', sans-serif, serif; text-anchor: start" x="340.02925" y="28.8525" transform="rotate(-0 340.02925 28.8525)">true value</text>
    </g>
   </g>
  </g>
 </g>
 <defs>
  <clipPath id="p2bd5566d56">
   <rect x="30.88875" y="15.92625" width="76.7905" height="56.56"/>
  </clipPath>
  <clipPath id="p3cab1c5542">
   <rect x="168.22875" y="15.92625" width="76.7905" height="56.56"/>
  </clipPath>
  <clipPath id="p252e26a5fb">
   <rect x="305.56875" y="15.92625" width="76.7905" height="56.56"/>
  </clipPath>
 </defs>
</svg>
