<?xml version="1.0" encoding="utf-8" standalone="no"?>
<!DOCTYPE svg PUBLIC "-//W3C//DTD SVG 1.1//EN"
  "http://www.w3.org/Graphics/SVG/1.1/DTD/svg11.dtd">
<svg xmlns:xlink="http://www.w3.org/1999/xlink" width="389.55925pt" height="105.31875pt" viewBox="0 0 389.55925 105.31875" xmlns="http://www.w3.org/2000/svg" version="1.1">
 <metadata>
  <rdf:RDF xmlns:dc="http://purl.org/dc/elements/1.1/" xmlns:cc="http://creativecommons.org/ns#" xmlns:rdf="http://www.w3.org/1999/02/22-rdf-syntax-ns#">
   <cc:Work>
    <dc:type rdf:resource="http://purl.org/dc/dcmitype/StillImage"/>
    <dc:date>2025-10-29T05:07:14.471862</dc:date>
    <dc:format>image/svg+xml</dc:format>
    <dc:creator>
     <cc:Agent>
      <dc:title>Matplotlib v3.9.2, https://matplotlib.org/</dc:title>
     </cc:Agent>
    </dc:creator>
   </cc:Work>
  </rdf:RDF>
 </metadata>
 <defs>
  <style type="text/css">*{stroke-linejoin: round; stroke-linecap: butt}</style>
 </defs>
 <g id="figure_1">
  <g id="patch_1">
   <path d="M 0 105.31875 
L 389.55925 105.31875 
L 389.55925 0 
L 0 0 
z
" style="fill: #ffffff"/>
  </g>
  <g id="axes_1">
   <g id="patch_2">
    <path d="M 30.88875 72.48625 
L 110.67925 72.48625 
L 110.67925 15.92625 
L 30.88875 15.92625 
z
" style="fill: #ffffff"/>
   </g>
   <g id="matplotlib.axis_1">
    <g id="xtick_1">
     <g id="line2d_1">
      <defs>
       <path id="mf055e10bca" d="M 0 0 
L 0 3.5 
" style="stroke: #000000; stroke-width: 1.5"/>
      </defs>
      <g>
       <use xlink:href="#mf055e10bca" x="34.515591" y="72.48625" style="stroke: #000000; stroke-width: 1.5"/>
      </g>
     </g>
     <g id="text_1">
      <text style="font: 8px 'Arial', sans-serif, serif; text-anchor: middle" x="34.515591" y="85.2125" transform="rotate(-0 34.515591 85.2125)">0</text>
     </g>
    </g>
    <g id="xtick_2">
     <g id="line2d_2">
      <g>
       <use xlink:href="#mf055e10bca" x="63.541929" y="72.48625" style="stroke: #000000; stroke-width: 1.5"/>
      </g>
     </g>
     <g id="text_2">
      <text style="font: 8px 'Arial', sans-serif, serif; text-anchor: middle" x="63.541929" y="85.2125" transform="rotate(-0 63.541929 85.2125)">1000</text>
     </g>
    </g>
    <g id="xtick_3">
     <g id="line2d_3">
      <g>
       <use xlink:href="#mf055e10bca" x="92.568267" y="72.48625" style="stroke: #000000; stroke-width: 1.5"/>
      </g>
     </g>
     <g id="text_3">
      <text style="font: 8px 'Arial', sans-serif, serif; text-anchor: middle" x="92.568267" y="85.2125" transform="rotate(-0 92.568267 85.2125)">2000</text>
     </g>
    </g>
    <g id="text_4">
     <text style="font: 8px 'Arial', sans-serif, serif; text-anchor: middle" x="70.784" y="96.52875" transform="rotate(-0 70.784 96.52875)">iteration</text>
    </g>
   </g>
   <g id="matplotlib.axis_2">
    <g id="ytick_1">
     <g id="line2d_4">
      <defs>
       <path id="mc6de8e85ba" d="M 0 0 
L -3.5 0 
" style="stroke: #000000; stroke-width: 1.5"/>
      </defs>
      <g>
       <use xlink:href="#mc6de8e85ba" x="30.88875" y="61.316249" style="stroke: #000000; stroke-width: 1.5"/>
      </g>
     </g>
     <g id="text_5">
      <text style="font: 8px 'Arial', sans-serif, serif; text-anchor: end" x="23.88875" y="64.179374" transform="rotate(-0 23.88875 64.179374)">2</text>
     </g>
    </g>
    <g id="ytick_2">
     <g id="line2d_5">
      <g>
       <use xlink:href="#mc6de8e85ba" x="30.88875" y="32.770189" style="stroke: #000000; stroke-width: 1.5"/>
      </g>
     </g>
     <g id="text_6">
      <text style="font: 8px 'Arial', sans-serif, serif; text-anchor: end" x="23.88875" y="35.633314" transform="rotate(-0 23.88875 35.633314)">4</text>
     </g>
    </g>
    <g id="text_7">
     <!-- $g_L$ (S/cm²) -->
     <g transform="translate(13.04 62.48625) rotate(-90)">
      <text>
       <tspan style="font: 8px 'Arial'" x="0 8.101309 10.323966 12.988028 18.323966 20.546622 24.546622 31.210684 33.874747" y="-0.171875">g (S/cm²)</tspan>
       <tspan style="font: 5.6px 'Arial'" x="4.588606" y="2.217625">L</tspan>
      </text>
     </g>
    </g>
    <g id="text_8">
     <text style="font: 8px 'Arial', sans-serif, serif; text-anchor: start" x="30.88875" y="12.92625" transform="rotate(-0 30.88875 12.92625)">1e−6</text>
    </g>
   </g>
   <g id="line2d_6">
    <path d="M 34.515591 57.534254 
L 34.631696 66.512234 
L 34.689749 65.40951 
L 34.747802 64.775548 
L 34.776828 65.150956 
L 34.805854 65.698705 
L 34.834881 65.125492 
L 34.892933 64.351894 
L 34.92196 64.720005 
L 35.067091 67.232129 
L 35.125144 66.893987 
L 35.183197 66.594927 
L 35.212223 66.68661 
L 35.328328 67.44489 
L 35.357355 67.312895 
L 35.47346 66.509383 
L 35.531513 66.688776 
L 35.589565 66.780836 
L 35.618592 66.650288 
L 35.966908 64.759945 
L 36.634514 62.725826 
L 36.98283 62.44049 
L 37.244067 62.566174 
L 37.679462 63.334917 
L 38.434147 65.227218 
L 39.333963 67.276952 
L 40.059621 68.416226 
L 40.78528 69.169841 
L 41.539965 69.644207 
L 42.323676 69.877372 
L 43.194466 69.898269 
L 44.297467 69.687987 
L 44.936046 69.363231 
L 45.980994 68.491217 
L 47.258153 67.248589 
L 48.622391 65.277655 
L 50.480077 62.156727 
L 52.686078 58.015206 
L 53.38271 56.487054 
L 53.411737 56.678433 
L 53.469789 56.730894 
L 53.498816 56.015387 
L 53.527842 56.746844 
L 53.614921 56.436885 
L 53.672974 56.634161 
L 53.702 56.192906 
L 53.818106 56.560625 
L 53.934211 56.189147 
L 53.963237 56.406875 
L 53.992264 56.123764 
L 54.02129 56.245009 
L 55.820923 52.420974 
L 56.140213 51.40735 
L 56.198265 51.128357 
L 56.227292 51.927353 
L 56.256318 51.041597 
L 56.343397 51.561545 
L 56.40145 51.294965 
L 56.430476 51.91936 
L 56.459502 51.420403 
L 56.546581 51.482602 
L 56.575608 51.911759 
L 56.662687 51.676649 
L 56.720739 51.763659 
L 56.749766 51.406873 
L 56.778792 51.679015 
L 56.865871 51.535384 
L 56.95295 51.214553 
L 56.981976 51.310666 
L 57.997898 48.999693 
L 58.346214 48.008873 
L 58.433293 47.812395 
L 58.752583 46.82461 
L 58.781609 46.905435 
L 58.926741 46.05969 
L 58.984794 45.807741 
L 59.01382 46.938193 
L 59.042846 46.035623 
L 59.129925 46.469398 
L 59.217004 46.99841 
L 59.187978 46.380953 
L 59.246031 46.637333 
L 59.362136 47.050253 
L 59.391162 46.613746 
L 59.478241 46.717518 
L 59.507268 46.846114 
L 59.536294 46.509562 
L 59.56532 46.82412 
L 59.681426 46.415523 
L 59.710452 46.554892 
L 59.739478 46.251469 
L 59.768505 46.44497 
L 59.942663 45.884181 
L 59.971689 45.961789 
L 60.000716 45.782654 
L 60.058768 45.699633 
L 60.290979 45.104342 
L 60.320005 45.094736 
L 60.52319 44.523853 
L 61.103716 42.798639 
L 61.190795 42.600873 
L 61.39398 41.87639 
L 61.423006 41.970523 
L 61.568138 41.077472 
L 61.62619 40.733236 
L 61.655217 42.085437 
L 61.684243 40.860182 
L 61.771322 41.668268 
L 61.858401 42.373341 
L 61.829375 41.499613 
L 61.887427 41.881242 
L 62.003533 42.565568 
L 62.032559 42.043861 
L 62.119638 42.215022 
L 62.177691 42.026346 
L 62.206717 42.451628 
L 62.322823 41.968833 
L 62.351849 42.27519 
L 62.380875 41.874011 
L 62.409902 42.117319 
L 62.58406 41.618053 
L 62.613086 41.635211 
L 62.642112 41.576948 
L 62.874323 40.970676 
L 62.903349 41.019238 
L 63.077507 40.469262 
L 63.106534 40.494601 
L 63.309718 39.911335 
L 63.599981 39.006668 
L 63.68706 38.794912 
L 64.093429 37.535004 
L 64.238561 37.147124 
L 64.441745 36.378177 
L 64.470772 36.545113 
L 64.499798 36.127149 
L 64.528824 36.484519 
L 64.586877 36.59045 
L 64.615903 35.347012 
L 64.702982 37.044923 
L 64.673956 35.243136 
L 64.732009 35.989016 
L 64.848114 37.635362 
L 64.87714 36.970222 
L 64.993246 38.090702 
L 65.022272 37.58528 
L 65.138377 38.203642 
L 65.167404 37.6948 
L 65.254483 37.780697 
L 65.283509 38.16022 
L 65.312535 37.67206 
L 65.370588 37.860652 
L 65.428641 38.006996 
L 65.457667 37.589022 
L 65.486693 37.873941 
L 65.573772 37.715093 
L 65.689878 37.33877 
L 65.718904 37.360604 
L 65.893062 36.93899 
L 65.922088 36.965731 
L 66.096246 36.455244 
L 66.125273 36.508794 
L 66.154299 36.338123 
L 66.270404 36.127094 
L 66.502615 35.431429 
L 66.618721 35.131867 
L 67.170221 33.592207 
L 67.779774 31.859905 
L 67.982958 31.077889 
L 68.041011 30.779846 
L 68.070037 31.395398 
L 68.12809 31.730937 
L 68.157116 29.894915 
L 68.186143 32.217084 
L 68.273222 32.066359 
L 68.302248 31.661546 
L 68.418353 33.606376 
L 68.44738 32.886715 
L 68.476406 33.945485 
L 68.505432 33.64617 
L 68.534459 33.718761 
L 68.621538 34.255361 
L 68.592511 33.633513 
L 68.650564 34.019621 
L 68.679591 33.988025 
L 68.76667 34.354914 
L 68.737643 33.841246 
L 68.795696 34.099339 
L 68.824722 34.056884 
L 68.853749 34.36709 
L 68.882775 33.891704 
L 68.911801 34.304657 
L 69.027907 33.833438 
L 69.056933 34.051237 
L 69.31817 33.522939 
L 69.347196 33.546844 
L 69.376223 33.493271 
L 69.753565 32.708541 
L 69.782591 32.746901 
L 69.811618 32.6098 
L 70.072855 32.001453 
L 70.421171 31.145632 
L 71.611251 28.089581 
L 71.640277 28.082869 
L 71.785409 27.529343 
L 71.843461 27.262214 
L 71.872488 27.824854 
L 71.93054 28.167001 
L 71.959567 26.358408 
L 72.046646 28.763002 
L 72.075672 28.492032 
L 72.104698 28.2452 
L 72.220804 30.32719 
L 72.24983 29.557759 
L 72.278856 30.751891 
L 72.307883 30.433267 
L 72.336909 30.481531 
L 72.423988 31.111803 
L 72.394962 30.434117 
L 72.453014 30.954879 
L 72.482041 30.82935 
L 72.511067 31.288302 
L 72.540093 30.793366 
L 72.598146 31.138518 
L 72.627172 31.010581 
L 72.656199 31.389653 
L 72.685225 30.944312 
L 72.743278 31.191644 
L 72.830357 30.91391 
L 72.80133 31.320132 
L 72.859383 31.106026 
L 72.888409 31.077889 
L 72.975489 30.794158 
L 73.004515 30.85665 
L 73.033541 30.903285 
L 73.062568 30.690185 
L 73.149647 30.713713 
L 73.178673 30.721664 
L 73.352831 30.409913 
L 73.381857 30.438083 
L 73.556015 30.035268 
L 73.585042 30.083857 
L 73.614068 29.962073 
L 74.281674 28.5866 
L 74.62999 27.826749 
L 74.8622 27.329639 
L 75.529806 25.630063 
L 75.587859 25.336272 
L 75.616885 26.158543 
L 75.674938 26.589513 
L 75.703964 24.670554 
L 75.82007 27.370004 
L 75.849096 26.432551 
L 75.878122 28.073023 
L 75.907149 27.639339 
L 75.936175 27.803085 
L 76.05228 28.895125 
L 76.081307 28.603774 
L 76.110333 29.278994 
L 76.139359 28.750066 
L 76.255465 29.479554 
L 76.284491 29.051043 
L 76.37157 29.223045 
L 76.400596 29.607315 
L 76.429623 29.16472 
L 76.487675 29.38988 
L 76.574754 29.119675 
L 76.545728 29.504082 
L 76.603781 29.310188 
L 77.010149 28.771096 
L 77.039176 28.836547 
L 77.068202 28.695026 
L 77.097228 28.721378 
L 77.997045 27.088967 
L 78.403414 26.300544 
L 78.664651 25.807945 
L 78.867835 25.290792 
L 78.896861 25.423226 
L 78.925888 25.116531 
L 78.954914 25.395388 
L 79.012967 25.493312 
L 79.041993 24.498663 
L 79.100046 24.160125 
L 79.129072 26.332783 
L 79.158098 24.651024 
L 79.245177 25.865647 
L 79.361283 27.704278 
L 79.390309 27.062141 
L 79.419335 28.160348 
L 79.448362 27.635179 
L 79.564467 28.478453 
L 79.62252 28.267287 
L 79.680573 28.051273 
L 79.709599 28.719106 
L 79.825704 28.271279 
L 79.854731 28.839637 
L 79.94181 28.704353 
L 79.970836 28.296184 
L 79.999862 28.73654 
L 80.057915 28.50426 
L 80.115968 28.310444 
L 80.144994 28.632982 
L 80.261099 28.349238 
L 80.290126 28.539128 
L 80.319152 28.321958 
L 80.348178 28.44959 
L 80.551363 28.201706 
L 80.580389 28.231985 
L 80.725521 28.005164 
L 80.899679 27.697229 
L 80.986758 27.608651 
L 81.160916 27.272723 
L 81.189942 27.281498 
L 81.3641 26.962523 
L 81.509232 26.759081 
L 81.799495 26.234197 
L 81.944627 26.01044 
L 82.205864 25.458925 
L 82.23489 25.533203 
L 82.263917 25.324335 
L 82.292943 25.471517 
L 82.380022 24.945328 
L 82.438075 24.595776 
L 82.467101 25.882977 
L 82.496127 24.338202 
L 82.525154 26.281144 
L 82.55418 24.815315 
L 82.670285 27.129059 
L 82.699312 26.27059 
L 82.757364 27.35468 
L 82.786391 26.903887 
L 82.815417 27.847506 
L 82.902496 27.796925 
L 82.931522 27.440466 
L 82.960549 28.08074 
L 82.989575 27.533678 
L 83.10568 28.228104 
L 83.134707 27.773422 
L 83.163733 28.251015 
L 83.221786 28.032346 
L 83.250812 28.242201 
L 83.279838 27.848869 
L 83.308865 28.233854 
L 83.42497 27.81959 
L 83.453996 28.098538 
L 83.541075 27.95246 
L 83.599128 27.97837 
L 83.686207 27.794679 
L 83.74426 27.811776 
L 83.889392 27.623372 
L 84.150629 27.336324 
L 84.324787 27.055553 
L 85.282656 25.450078 
L 85.340708 25.247915 
L 85.369735 25.838788 
L 85.427787 26.126089 
L 85.456814 24.712815 
L 85.48584 26.453055 
L 85.572919 26.321632 
L 85.601945 26.100497 
L 85.689024 27.231222 
L 85.718051 27.193758 
L 85.747077 27.042079 
L 85.834156 27.727806 
L 85.863182 27.427725 
L 85.950262 27.380493 
L 85.979288 27.945437 
L 86.008314 27.498246 
L 86.095393 27.682703 
L 86.12442 28.015425 
L 86.153446 27.609722 
L 86.182472 28.009824 
L 86.298578 27.636016 
L 86.327604 27.903553 
L 86.35663 27.61263 
L 86.414683 27.698053 
L 86.704946 27.458497 
L 86.733973 27.572486 
L 86.762999 27.392111 
L 86.792025 27.505022 
L 86.966183 27.194297 
L 86.99521 27.257736 
L 87.024236 27.134388 
L 87.053262 27.158371 
L 87.285473 26.774665 
L 87.314499 26.817425 
L 87.343526 26.701405 
L 87.372552 26.728932 
L 87.575736 26.409983 
L 87.953079 25.824626 
L 87.982105 25.892985 
L 88.127237 25.316826 
L 88.18529 24.948366 
L 88.214316 26.397943 
L 88.243342 24.852649 
L 88.272369 26.734527 
L 88.301395 25.632387 
L 88.4175 27.58585 
L 88.446527 27.045551 
L 88.649711 28.227805 
L 88.678737 27.73788 
L 88.707764 28.33821 
L 88.73679 27.979727 
L 88.852895 28.517254 
L 88.881922 28.112259 
L 88.969001 28.194943 
L 88.998027 28.495485 
L 89.027053 28.092054 
L 89.05608 28.410685 
L 89.172185 28.048677 
L 89.201211 28.331934 
L 89.28829 28.225988 
L 89.375369 28.036422 
L 89.433422 28.053986 
L 89.549527 28.047677 
L 89.694659 27.875241 
L 89.868817 27.627883 
L 90.15908 27.253679 
L 90.768634 26.385896 
L 90.79766 26.498813 
L 90.884739 26.12324 
L 90.942792 25.900612 
L 90.971818 26.676949 
L 91.000844 25.605795 
L 91.029871 26.950704 
L 91.058897 25.668825 
L 91.175002 27.283939 
L 91.204029 26.715568 
L 91.233055 27.749848 
L 91.262081 27.106985 
L 91.378187 28.046678 
L 91.407213 27.463735 
L 91.436239 28.054285 
L 91.494292 27.909933 
L 91.552345 27.738477 
L 91.581371 28.228629 
L 91.610397 27.781003 
L 91.697476 28.049923 
L 91.755529 27.885055 
L 91.784555 28.251256 
L 91.813582 27.891792 
L 91.900661 27.976663 
L 91.958713 27.873287 
L 91.98774 28.090639 
L 92.016766 27.867439 
L 92.103845 27.951454 
L 92.161898 27.844969 
L 92.190924 27.950156 
L 92.278003 27.740197 
L 92.307029 27.846624 
L 92.481188 27.570045 
L 92.510214 27.652392 
L 92.53924 27.513642 
L 92.568267 27.568565 
L 92.742425 27.303813 
L 92.829504 27.261676 
L 92.974635 26.978412 
L 93.003662 27.080704 
L 93.032688 26.886771 
L 93.061714 27.039619 
L 93.148793 26.657483 
L 93.206846 26.470105 
L 93.235872 27.228119 
L 93.264899 26.252695 
L 93.293925 27.435521 
L 93.322951 26.381541 
L 93.439057 27.611378 
L 93.468083 27.147012 
L 93.497109 27.986276 
L 93.526136 27.310018 
L 93.642241 28.066954 
L 93.671267 27.677718 
L 93.700294 28.244434 
L 93.72932 27.709496 
L 93.758346 28.268345 
L 93.845425 28.199649 
L 93.903478 28.366308 
L 93.932504 27.956536 
L 93.961531 28.392102 
L 94.04861 28.193586 
L 94.106662 28.273927 
L 94.135689 28.028225 
L 94.164715 28.287253 
L 94.193741 28.016373 
L 94.222768 28.241318 
L 94.338873 28.053752 
L 94.396926 27.966155 
L 94.425952 28.131692 
L 94.513031 27.889488 
L 94.542057 28.004398 
L 94.716216 27.74304 
L 94.745242 27.810776 
L 94.774268 27.666217 
L 94.803295 27.760337 
L 94.948426 27.461892 
L 94.977453 27.5808 
L 95.006479 27.399913 
L 95.035505 27.532432 
L 95.180637 27.118772 
L 95.23869 26.956402 
L 95.267716 27.65417 
L 95.296742 26.766967 
L 95.325769 27.83509 
L 95.354795 26.8589 
L 95.4709 27.905559 
L 95.499927 27.61411 
L 95.528953 28.254189 
L 95.557979 27.651619 
L 95.587006 28.361849 
L 95.674085 28.198941 
L 95.703111 28.119911 
L 95.761164 28.02716 
L 95.79019 28.516547 
L 95.819216 28.073555 
L 95.906295 28.42229 
L 95.964348 28.29595 
L 96.022401 28.224164 
L 96.051427 28.520467 
L 96.080453 28.214759 
L 96.167532 28.367009 
L 96.283638 28.184947 
L 96.312664 28.329636 
L 96.34169 28.116439 
L 96.370717 28.310275 
L 96.515848 28.040187 
L 96.544875 28.129569 
L 96.602927 28.05729 
L 96.835138 27.733797 
L 96.864165 27.838991 
L 96.893191 27.647881 
L 96.922217 27.800177 
L 97.009296 27.433385 
L 97.067349 27.259287 
L 97.096375 27.984926 
L 97.125402 27.066152 
L 97.154428 28.163171 
L 97.183454 27.196387 
L 97.29956 28.280801 
L 97.328586 27.9006 
L 97.357612 28.620773 
L 97.386639 27.981265 
L 97.415665 28.679091 
L 97.502744 28.61277 
L 97.560797 28.801913 
L 97.589823 28.33762 
L 97.618849 28.881923 
L 97.705928 28.681311 
L 97.734955 28.685219 
L 97.793007 28.575904 
L 97.822034 28.936626 
L 97.85106 28.567544 
L 97.938139 28.77588 
L 98.054244 28.579817 
L 98.083271 28.774945 
L 98.112297 28.533578 
L 98.141323 28.748723 
L 98.17035 28.517131 
L 98.257429 28.620715 
L 98.431587 28.378679 
L 98.460613 28.490513 
L 98.489639 28.320718 
L 98.518666 28.436057 
L 98.663797 28.142817 
L 98.692824 28.27187 
L 98.72185 28.082746 
L 98.750876 28.222522 
L 98.896008 27.824387 
L 98.954061 27.662537 
L 98.983087 28.371468 
L 99.012114 27.497292 
L 99.04114 28.53141 
L 99.070166 27.637678 
L 99.186272 28.606461 
L 99.215298 28.299176 
L 99.244324 28.916285 
L 99.273351 28.330052 
L 99.302377 29.003817 
L 99.389456 28.822989 
L 99.418482 28.760906 
L 99.476535 28.669816 
L 99.505561 29.131715 
L 99.534588 28.70669 
L 99.621667 29.040028 
L 99.737772 28.830498 
L 99.766798 29.105824 
L 99.795825 28.805581 
L 99.824851 29.053308 
L 99.853877 28.826247 
L 99.940956 28.894898 
L 100.028035 28.905828 
L 100.173167 28.630178 
L 100.202193 28.815362 
L 100.23122 28.600036 
L 100.260246 28.763294 
L 100.405378 28.507129 
L 100.434404 28.588002 
L 100.46343 28.465453 
L 100.492457 28.524621 
L 100.637588 28.301584 
L 100.666615 28.355923 
L 100.695641 28.231037 
L 100.724667 28.31661 
L 100.811746 28.03872 
L 100.869799 27.879615 
L 100.898825 28.405057 
L 100.956878 28.637824 
L 100.985904 27.517212 
L 101.014931 28.857551 
L 101.10201 28.759796 
L 101.131036 28.592792 
L 101.218115 29.410637 
L 101.247142 29.169932 
L 101.334221 29.094809 
L 101.363247 29.633057 
L 101.392273 29.186016 
L 101.479352 29.415251 
L 101.537405 29.31538 
L 101.566431 29.713586 
L 101.595458 29.367558 
L 101.682537 29.476497 
L 101.740589 29.32387 
L 101.769616 29.620589 
L 101.798642 29.304872 
L 101.885721 29.41727 
L 101.914747 29.444128 
L 101.9728 29.466936 
L 102.001826 29.270621 
L 102.030853 29.443836 
L 102.059879 29.249753 
L 102.088905 29.38383 
L 102.205011 29.222344 
L 102.263063 29.135363 
L 102.29209 29.230152 
L 102.437221 28.964166 
L 102.466248 29.038458 
L 102.495274 28.917044 
L 102.5243 28.965328 
L 102.698458 28.765274 
L 103.104827 28.295892 
L 103.453143 27.79331 
L 103.48217 27.919267 
L 103.540222 27.989885 
L 103.569249 27.317891 
L 103.656328 28.827993 
L 103.627301 26.887134 
L 103.71438 28.602554 
L 103.772433 28.30111 
L 103.888538 30.22371 
L 103.917565 29.475231 
L 104.004644 29.785587 
L 104.120749 30.498069 
L 104.149775 30.114694 
L 104.178802 30.531294 
L 104.236854 30.419377 
L 104.265881 30.57151 
L 104.294907 30.329352 
L 104.323933 30.558107 
L 104.440039 30.267827 
L 104.469065 30.47763 
L 104.498091 30.223308 
L 104.556144 30.333376 
L 104.614197 30.433721 
L 104.643223 30.171247 
L 104.672249 30.382977 
L 104.759328 30.304986 
L 104.788355 30.106886 
L 104.875434 30.146706 
L 104.962513 30.093723 
L 105.136671 29.837927 
L 105.22375 29.791948 
L 105.368881 29.60714 
L 105.630119 29.280149 
L 105.659145 29.30874 
L 105.717198 29.240498 
L 105.978435 28.893444 
L 106.065514 28.850574 
L 106.210645 28.477635 
L 106.268698 28.277685 
L 106.297724 28.944474 
L 106.326751 28.020261 
L 106.355777 29.17763 
L 106.384803 28.094585 
L 106.500909 29.487732 
L 106.529935 28.926345 
L 106.558961 29.809128 
L 106.587988 29.294305 
L 106.704093 30.015465 
L 106.733119 29.480015 
L 106.820198 29.759456 
L 106.878251 29.664348 
L 106.907277 30.101304 
L 106.936304 29.775384 
L 107.023383 29.822927 
L 107.052409 30.0712 
L 107.052409 30.0712 
" clip-path="url(#p2eb306cd75)" style="fill: none; stroke: #000000; stroke-width: 1.5; stroke-linecap: square"/>
   </g>
   <g id="line2d_7">
    <path d="M 30.88875 18.497159 
L 110.67925 18.497159 
" clip-path="url(#p2eb306cd75)" style="fill: none; stroke-dasharray: 5.55,2.4; stroke-dashoffset: 0; stroke: #000000; stroke-width: 1.5"/>
   </g>
   <g id="patch_3">
    <path d="M 30.88875 72.48625 
L 30.88875 15.92625 
" style="fill: none; stroke: #000000; stroke-width: 1.5; stroke-linejoin: miter; stroke-linecap: square"/>
   </g>
   <g id="patch_4">
    <path d="M 30.88875 72.48625 
L 110.67925 72.48625 
" style="fill: none; stroke: #000000; stroke-width: 1.5; stroke-linejoin: miter; stroke-linecap: square"/>
   </g>
   <g id="legend_1">
    <g id="line2d_8">
     <path d="M 45.94925 43.474375 
L 53.94925 43.474375 
L 61.94925 43.474375 
" style="fill: none; stroke-dasharray: 5.55,2.4; stroke-dashoffset: 0; stroke: #000000; stroke-width: 1.5"/>
    </g>
    <g id="text_9">
     <text style="font: 8px 'Arial', sans-serif, serif; text-anchor: start" x="68.34925" y="46.274375" transform="rotate(-0 68.34925 46.274375)">true value</text>
    </g>
   </g>
  </g>
  <g id="axes_2">
   <g id="patch_5">
    <path d="M 166.72875 72.48625 
L 246.51925 72.48625 
L 246.51925 15.92625 
L 166.72875 15.92625 
z
" style="fill: #ffffff"/>
   </g>
   <g id="matplotlib.axis_3">
    <g id="xtick_4">
     <g id="line2d_9">
      <g>
       <use xlink:href="#mf055e10bca" x="170.355591" y="72.48625" style="stroke: #000000; stroke-width: 1.5"/>
      </g>
     </g>
     <g id="text_10">
      <text style="font: 8px 'Arial', sans-serif, serif; text-anchor: middle" x="170.355591" y="85.2125" transform="rotate(-0 170.355591 85.2125)">0</text>
     </g>
    </g>
    <g id="xtick_5">
     <g id="line2d_10">
      <g>
       <use xlink:href="#mf055e10bca" x="199.381929" y="72.48625" style="stroke: #000000; stroke-width: 1.5"/>
      </g>
     </g>
     <g id="text_11">
      <text style="font: 8px 'Arial', sans-serif, serif; text-anchor: middle" x="199.381929" y="85.2125" transform="rotate(-0 199.381929 85.2125)">1000</text>
     </g>
    </g>
    <g id="xtick_6">
     <g id="line2d_11">
      <g>
       <use xlink:href="#mf055e10bca" x="228.408267" y="72.48625" style="stroke: #000000; stroke-width: 1.5"/>
      </g>
     </g>
     <g id="text_12">
      <text style="font: 8px 'Arial', sans-serif, serif; text-anchor: middle" x="228.408267" y="85.2125" transform="rotate(-0 228.408267 85.2125)">2000</text>
     </g>
    </g>
    <g id="text_13">
     <text style="font: 8px 'Arial', sans-serif, serif; text-anchor: middle" x="206.624" y="96.52875" transform="rotate(-0 206.624 96.52875)">iteration</text>
    </g>
   </g>
   <g id="matplotlib.axis_4">
    <g id="ytick_3">
     <g id="line2d_12">
      <g>
       <use xlink:href="#mc6de8e85ba" x="166.72875" y="52.435866" style="stroke: #000000; stroke-width: 1.5"/>
      </g>
     </g>
     <g id="text_14">
      <text style="font: 8px 'Arial', sans-serif, serif; text-anchor: end" x="159.72875" y="55.298991" transform="rotate(-0 159.72875 55.298991)">0.0075</text>
     </g>
    </g>
    <g id="ytick_4">
     <g id="line2d_13">
      <g>
       <use xlink:href="#mc6de8e85ba" x="166.72875" y="31.686433" style="stroke: #000000; stroke-width: 1.5"/>
      </g>
     </g>
     <g id="text_15">
      <text style="font: 8px 'Arial', sans-serif, serif; text-anchor: end" x="159.72875" y="34.549558" transform="rotate(-0 159.72875 34.549558)">0.0100</text>
     </g>
    </g>
    <g id="text_16">
     <!-- $g_{Na}$ (S/cm²) -->
     <g transform="translate(128.7825 64.52625) rotate(-90)">
      <text>
       <tspan style="font: 8px 'Arial'" x="0 12.14545 14.368106 17.032169 22.368106 24.590763 28.590763 35.254825 37.918887" y="-0.171875">g (S/cm²)</tspan>
       <tspan style="font: 5.6px 'Arial'" x="4.588606 8.632747" y="2.217625">Na</tspan>
      </text>
     </g>
    </g>
   </g>
   <g id="line2d_14">
    <path d="M 170.355591 28.754056 
L 170.384617 19.768195 
L 170.44267 27.363718 
L 170.471696 27.256831 
L 170.558775 18.497159 
L 170.616828 23.678568 
L 170.936118 61.250672 
L 170.965144 60.991326 
L 171.023197 60.61513 
L 171.052223 60.950633 
L 171.168328 62.801216 
L 171.197355 62.55192 
L 171.284434 61.560129 
L 171.31346 61.839023 
L 171.661776 67.333104 
L 171.777881 68.192774 
L 171.806908 68.038681 
L 172.010092 64.556642 
L 172.068145 65.191403 
L 172.300356 69.043937 
L 172.387435 68.903611 
L 172.416461 68.968804 
L 172.735751 69.915341 
L 172.764777 69.848911 
L 173.258225 68.225993 
L 173.577514 67.674741 
L 174.8837 64.776898 
L 175.725463 63.240684 
L 176.62528 62.024023 
L 177.525096 61.175573 
L 178.482965 60.57788 
L 180.050388 59.933342 
L 181.269494 59.516495 
L 182.082231 59.179373 
L 183.243285 58.587752 
L 188.293868 57.664481 
L 189.280763 57.454213 
L 189.338816 57.431526 
L 189.425895 57.888695 
L 189.512974 58.292239 
L 189.600053 58.183415 
L 189.774211 57.787122 
L 189.803237 57.933504 
L 189.890316 57.902106 
L 190.064474 57.772899 
L 190.151553 57.819343 
L 190.18058 57.773521 
L 190.877212 57.620379 
L 191.05137 57.607362 
L 191.92216 57.378615 
L 191.980213 57.334726 
L 192.009239 57.536608 
L 192.038265 57.309187 
L 192.067292 57.652183 
L 192.096318 57.386183 
L 192.212423 58.015969 
L 192.24145 57.885213 
L 192.270476 58.141323 
L 192.357555 57.943132 
L 192.444634 57.709473 
L 192.502687 57.718571 
L 192.618792 57.759782 
L 192.734897 57.563705 
L 192.763924 57.652535 
L 192.79295 57.544485 
L 192.851003 57.596784 
L 192.996134 57.529875 
L 193.11224 57.541605 
L 193.315424 57.54014 
L 193.489582 57.447113 
L 193.634714 57.41653 
L 194.273293 57.292197 
L 194.592583 57.209504 
L 194.679662 57.250811 
L 194.737715 57.286307 
L 194.766741 57.128082 
L 194.940899 57.716862 
L 194.969925 57.715969 
L 194.998952 57.941516 
L 195.086031 57.767488 
L 195.231162 57.45027 
L 195.40532 57.486623 
L 195.521426 57.306814 
L 195.550452 57.381769 
L 195.637531 57.334591 
L 195.753636 57.27722 
L 195.782663 57.29978 
L 195.898768 57.334699 
L 196.014874 57.324264 
L 196.189032 57.23323 
L 196.36319 57.205979 
L 197.030795 57.079705 
L 197.292032 57.013921 
L 197.379111 57.084223 
L 197.408138 56.965262 
L 197.437164 57.167643 
L 197.46619 56.987253 
L 197.640348 57.841497 
L 197.843533 57.3468 
L 197.959638 57.432998 
L 198.162823 57.138776 
L 198.191849 57.257003 
L 198.278928 57.190028 
L 198.395033 57.12075 
L 198.569191 57.243055 
L 198.772376 57.087675 
L 198.888481 57.095393 
L 199.033613 57.080308 
L 199.29485 56.996382 
L 199.469008 56.979899 
L 199.759271 56.906099 
L 200.397851 56.781097 
L 200.455903 56.763983 
L 200.630061 57.862808 
L 200.688114 57.967206 
L 200.746167 57.533864 
L 200.775193 57.708472 
L 200.804219 57.345053 
L 200.833246 57.317883 
L 200.862272 57.445969 
L 200.891298 57.183686 
L 200.949351 57.424592 
L 201.065456 57.084308 
L 201.094483 57.188363 
L 201.152535 56.948581 
L 201.239614 57.010277 
L 201.268641 57.157038 
L 201.297667 56.95788 
L 201.35572 57.06435 
L 201.384746 56.953053 
L 201.413772 57.114056 
L 201.442799 57.063859 
L 201.645983 57.104804 
L 201.762088 56.980011 
L 201.791115 56.992873 
L 201.90722 56.981959 
L 202.023325 56.975381 
L 202.110404 56.989116 
L 202.139431 56.960818 
L 202.313589 56.884676 
L 202.458721 56.851186 
L 203.851985 56.726076 
L 203.910037 56.779334 
L 203.939064 56.584343 
L 204.171274 58.28551 
L 204.374459 57.05926 
L 204.403485 57.27504 
L 204.432511 57.495428 
L 204.519591 57.409515 
L 204.635696 56.842943 
L 204.664722 57.03718 
L 204.693749 57.031483 
L 204.722775 56.859102 
L 204.751801 57.124449 
L 204.809854 56.904421 
L 204.867907 56.887617 
L 204.925959 57.140361 
L 204.954986 57.027406 
L 204.984012 57.219003 
L 205.042065 57.111235 
L 205.071091 57.21447 
L 205.100117 57.060107 
L 205.274275 56.892919 
L 205.390381 56.970797 
L 205.506486 56.922374 
L 205.622591 56.93752 
L 205.738697 56.823591 
L 205.767723 56.846216 
L 205.941881 56.803849 
L 206.145065 56.709933 
L 206.34825 56.70492 
L 207.741514 56.489101 
L 207.973725 58.426849 
L 208.176909 57.035677 
L 208.234962 57.515154 
L 208.293014 57.381336 
L 208.322041 57.363496 
L 208.438146 56.850471 
L 208.467172 57.059368 
L 208.525225 56.836894 
L 208.612304 56.882867 
L 208.728409 57.151654 
L 208.757436 57.054271 
L 208.786462 57.255643 
L 208.844515 57.080911 
L 208.873541 57.1627 
L 208.902568 56.971377 
L 209.076726 56.863032 
L 209.192831 56.970855 
L 209.308936 56.916449 
L 209.337963 56.960103 
L 209.396015 56.856961 
L 209.512121 56.835275 
L 209.628226 56.781568 
L 209.657252 56.801731 
L 209.860437 56.685982 
L 210.1507 56.662225 
L 211.224675 56.594972 
L 211.369806 56.538633 
L 211.427859 56.493136 
L 211.456885 56.761668 
L 211.485912 56.438892 
L 211.514938 57.017593 
L 211.543964 56.547751 
L 211.66007 58.110895 
L 211.689096 57.687161 
L 211.718122 58.204966 
L 211.776175 57.409538 
L 211.805201 57.876497 
L 211.921307 57.135851 
L 211.979359 57.67494 
L 212.037412 57.193986 
L 212.066438 57.358023 
L 212.095465 56.967202 
L 212.182544 56.708391 
L 212.153517 57.036716 
L 212.21157 56.930362 
L 212.240596 56.993418 
L 212.269623 56.721118 
L 212.298649 57.069251 
L 212.356702 56.829779 
L 212.472807 57.224468 
L 212.588912 56.87196 
L 212.617939 56.978998 
L 212.646965 56.801704 
L 212.705018 56.919274 
L 212.734044 56.805743 
L 212.821123 56.846379 
L 212.937228 56.98931 
L 213.111387 56.830274 
L 213.198466 56.761339 
L 213.227492 56.784289 
L 213.343597 56.759604 
L 213.546782 56.677004 
L 214.649782 56.577302 
L 214.794914 56.656903 
L 214.852967 56.741795 
L 214.881993 56.437339 
L 215.056151 57.829775 
L 215.085177 57.671094 
L 215.114204 58.366634 
L 215.201283 57.894929 
L 215.317388 57.152257 
L 215.375441 57.507003 
L 215.433494 57.353528 
L 215.578625 56.834231 
L 215.607652 57.073054 
L 215.694731 57.156466 
L 215.723757 56.890608 
L 215.839862 57.301878 
L 215.868889 57.199749 
L 216.043047 56.823974 
L 215.926941 57.250676 
L 216.101099 56.891489 
L 216.217205 56.932971 
L 216.33331 57.017017 
L 216.507468 56.816302 
L 216.681626 56.81391 
L 216.797731 56.74978 
L 217.058968 56.660377 
L 217.175074 56.69084 
L 217.378258 56.635395 
L 217.610469 56.638123 
L 217.987811 56.600383 
L 218.132943 56.651306 
L 218.190996 56.683284 
L 218.220022 56.518435 
L 218.278075 56.444782 
L 218.307101 57.008108 
L 218.336127 56.493414 
L 218.365154 57.437543 
L 218.39418 56.937578 
L 218.510285 58.260338 
L 218.539312 57.812398 
L 218.626391 57.124202 
L 218.71347 57.26178 
L 218.742496 57.487354 
L 218.829575 57.301847 
L 218.974707 56.859488 
L 219.003733 57.109318 
L 219.032759 56.826641 
L 219.090812 57.057753 
L 219.119838 56.867318 
L 219.148865 57.181066 
L 219.177891 57.038962 
L 219.235944 57.249988 
L 219.293996 57.14496 
L 219.497181 56.841625 
L 219.613286 57.008108 
L 219.642313 56.978094 
L 219.816471 56.850174 
L 219.845497 56.906234 
L 219.874523 56.806052 
L 219.90355 56.811877 
L 220.106734 56.768026 
L 220.426024 56.681796 
L 220.600182 56.666136 
L 221.122656 56.586326 
L 221.180708 56.535483 
L 221.209735 56.815865 
L 221.238761 56.462545 
L 221.267787 57.040442 
L 221.296814 56.516468 
L 221.412919 57.682878 
L 221.441945 57.548206 
L 221.470972 58.147824 
L 221.529024 57.569622 
L 221.558051 57.540249 
L 221.587077 57.075381 
L 221.674156 57.338053 
L 221.732209 57.351349 
L 221.906367 56.859952 
L 221.935393 56.938923 
L 221.993446 56.855886 
L 222.022472 57.096212 
L 222.051499 56.932337 
L 222.109551 57.148458 
L 222.138578 57.014358 
L 222.167604 57.199505 
L 222.254683 57.049865 
L 222.370788 56.814439 
L 222.399815 56.84709 
L 222.544946 56.96246 
L 222.602999 56.915815 
L 222.632025 56.987938 
L 222.748131 56.863585 
L 222.777157 56.904611 
L 222.893262 56.785224 
L 222.922289 56.805604 
L 223.038394 56.780876 
L 223.183526 56.704066 
L 223.212552 56.727889 
L 223.502815 56.676973 
L 223.880158 56.715247 
L 223.938211 56.753026 
L 223.967237 56.533744 
L 224.02529 56.460891 
L 224.054316 57.215293 
L 224.083342 56.581441 
L 224.112369 57.687621 
L 224.141395 57.19915 
L 224.2575 58.278302 
L 224.286527 57.865695 
L 224.373606 57.165023 
L 224.402632 57.40989 
L 224.431658 57.731398 
L 224.460685 57.246579 
L 224.518737 57.525064 
L 224.634843 56.897723 
L 224.692895 56.964053 
L 224.721922 56.858062 
L 224.838027 57.226246 
L 224.867053 56.974418 
L 224.89608 57.301252 
L 224.954132 57.102779 
L 224.983159 57.2707 
L 225.012185 56.959198 
L 225.041211 57.085236 
L 225.157317 56.754812 
L 225.186343 56.881108 
L 225.360501 57.05526 
L 225.563685 56.83764 
L 225.650764 56.860366 
L 225.621738 56.784618 
L 225.679791 56.830107 
L 226.376423 56.650947 
L 226.521555 56.695354 
L 226.666686 56.621906 
L 226.724739 56.588011 
L 226.753765 56.788413 
L 226.811818 56.955469 
L 226.840844 56.481993 
L 226.985976 57.533624 
L 227.015002 57.995285 
L 227.044029 57.496429 
L 227.073055 57.885402 
L 227.18916 57.127236 
L 227.218187 57.455789 
L 227.305266 57.22916 
L 227.334292 57.220182 
L 227.450397 56.845911 
L 227.50845 56.826397 
L 227.566503 57.127015 
L 227.595529 56.965865 
L 227.624555 57.26961 
L 227.682608 57.091559 
L 227.711634 57.117168 
L 227.769687 57.146023 
L 227.885792 56.80742 
L 227.972871 56.837226 
L 228.088977 57.022524 
L 228.118003 56.884594 
L 228.205082 56.947291 
L 228.234108 56.997341 
L 228.263135 56.886902 
L 228.292161 56.918451 
L 228.408267 56.829613 
L 228.611451 56.793835 
L 228.756583 56.706709 
L 228.901714 56.774244 
L 228.959767 56.789105 
L 228.988793 56.617547 
L 229.046846 56.568988 
L 229.075872 57.001615 
L 229.104899 56.549459 
L 229.133925 57.222776 
L 229.162951 56.733972 
L 229.279057 57.746173 
L 229.424188 57.113396 
L 229.540294 57.383048 
L 229.627373 56.800104 
L 229.656399 57.040334 
L 229.714452 57.017786 
L 229.743478 57.218872 
L 229.772504 56.871523 
L 229.801531 57.057011 
L 229.830557 56.859736 
L 229.88861 57.109782 
L 229.946662 57.196309 
L 230.149847 56.858221 
L 230.382057 56.968992 
L 230.614268 56.801507 
L 230.817453 56.817566 
L 230.962584 56.712959 
L 231.020637 56.659716 
L 231.049663 56.88056 
L 231.07869 56.591161 
L 231.107716 57.014033 
L 231.136742 56.599857 
L 231.281874 57.361455 
L 231.3109 57.600773 
L 231.339927 57.31859 
L 231.368953 57.54891 
L 231.456032 57.00189 
L 231.485058 57.144411 
L 231.572137 57.336879 
L 231.659216 56.751925 
L 231.717269 56.808085 
L 231.833374 57.118837 
L 231.862401 56.880308 
L 231.94948 57.006358 
L 232.065585 56.94079 
L 232.239743 56.765027 
L 232.326822 56.956895 
L 232.384875 56.942873 
L 232.733191 56.759689 
L 232.82027 56.869212 
L 232.878323 56.893573 
L 232.907349 56.594137 
L 233.052481 57.378994 
L 233.081507 57.267697 
L 233.110533 57.383188 
L 233.13956 57.697422 
L 233.168586 57.313546 
L 233.197612 57.567396 
L 233.284691 57.06624 
L 233.313718 57.167728 
L 233.400797 57.375071 
L 233.487876 56.755229 
L 233.545928 56.949845 
L 233.603981 57.203219 
L 233.662034 57.130544 
L 233.69106 56.846297 
L 233.778139 57.056875 
L 233.807165 57.128024 
L 233.836192 57.002933 
L 233.865218 56.997012 
L 234.01035 56.783845 
L 234.155481 56.951407 
L 234.184508 57.015892 
L 234.213534 56.909913 
L 234.24256 56.959906 
L 234.329639 56.859295 
L 234.358666 56.890144 
L 234.503797 56.749555 
L 234.590876 56.887424 
L 234.619903 56.809705 
L 234.677955 56.734494 
L 234.706982 56.848794 
L 234.765035 56.932994 
L 234.794061 56.616546 
L 234.939193 57.332005 
L 234.968219 57.234513 
L 234.997245 57.374963 
L 235.026272 57.620978 
L 235.055298 57.298141 
L 235.084324 57.492436 
L 235.171403 56.987056 
L 235.20043 57.190817 
L 235.287509 57.336337 
L 235.374588 56.737474 
L 235.43264 56.831564 
L 235.548746 57.142958 
L 235.577772 56.911915 
L 235.664851 57.020256 
L 235.897062 56.78866 
L 236.042193 57.005998 
L 236.187325 56.835909 
L 236.274404 56.919027 
L 236.30343 56.835986 
L 236.448562 56.849045 
L 236.651746 56.683671 
L 236.709799 56.633157 
L 236.738825 56.977131 
L 236.767852 56.534873 
L 236.796878 57.219881 
L 236.825904 56.573491 
L 236.94201 57.773734 
L 237.000063 58.086778 
L 237.116168 57.051016 
L 237.203247 57.501132 
L 237.232273 57.429814 
L 237.348379 57.044798 
L 237.377405 57.080123 
L 237.406431 57.10371 
L 237.435458 56.843658 
L 237.464484 57.131039 
L 237.49351 56.937748 
L 237.609616 57.278666 
L 237.725721 56.904533 
L 237.754747 57.034007 
L 237.783774 56.825183 
L 237.8128 56.866491 
L 237.841826 56.765579 
L 237.899879 56.871632 
L 237.986958 57.099965 
L 238.045011 56.9969 
L 238.161116 56.860779 
L 238.190142 56.95739 
L 238.219169 56.816441 
L 238.248195 56.85446 
L 238.277221 56.798013 
L 238.335274 56.845772 
L 238.422353 56.858742 
L 238.567485 56.769348 
L 238.828722 56.715908 
L 239.118985 56.724198 
L 239.32217 56.779613 
L 239.380222 56.889402 
L 239.409249 56.470901 
L 239.467301 56.357795 
L 239.583407 58.746015 
L 239.641459 58.967419 
L 239.699512 57.448338 
L 239.757565 57.335 
L 239.815617 58.60611 
L 239.931723 57.24467 
L 239.960749 57.931595 
L 240.018802 56.928082 
L 240.047828 57.579118 
L 240.076854 56.810636 
L 240.134907 57.642587 
L 240.163933 57.182322 
L 240.221986 57.504444 
L 240.251012 57.102779 
L 240.280039 57.449289 
L 240.396144 56.747298 
L 240.42517 56.824167 
L 240.454197 56.951956 
L 240.483223 56.468389 
L 240.512249 56.956647 
L 240.570302 56.834946 
L 240.599328 57.289634 
L 240.686407 57.168876 
L 240.773486 56.87322 
L 240.802513 56.88723 
L 240.831539 56.986183 
L 240.860565 56.80533 
L 240.889592 56.886021 
L 241.034723 56.818915 
L 241.06375 56.934753 
L 241.092776 56.739344 
L 241.121802 56.858854 
L 241.237908 56.631669 
L 241.266934 56.703536 
L 241.412066 56.635174 
L 241.441092 56.702075 
L 241.470119 56.588757 
L 241.499145 56.675126 
L 241.61525 56.656126 
L 241.905514 56.705028 
L 241.963566 56.733837 
L 241.992593 56.614068 
L 242.050645 56.594999 
L 242.079672 56.840581 
L 242.137724 57.038633 
L 242.166751 56.457765 
L 242.25383 57.614172 
L 242.311882 57.560176 
L 242.340909 58.107884 
L 242.369935 57.485452 
L 242.398961 57.910331 
L 242.515067 57.228511 
L 242.544093 57.647488 
L 242.631172 57.334235 
L 242.776304 56.93231 
L 242.892409 57.373278 
L 242.892409 57.373278 
" clip-path="url(#p3111fac6aa)" style="fill: none; stroke: #000000; stroke-width: 1.5; stroke-linecap: square"/>
   </g>
   <g id="line2d_15">
    <path d="M 166.72875 56.585752 
L 246.51925 56.585752 
" clip-path="url(#p3111fac6aa)" style="fill: none; stroke-dasharray: 5.55,2.4; stroke-dashoffset: 0; stroke: #000000; stroke-width: 1.5"/>
   </g>
   <g id="patch_6">
    <path d="M 166.72875 72.48625 
L 166.72875 15.92625 
" style="fill: none; stroke: #000000; stroke-width: 1.5; stroke-linejoin: miter; stroke-linecap: square"/>
   </g>
   <g id="patch_7">
    <path d="M 166.72875 72.48625 
L 246.51925 72.48625 
" style="fill: none; stroke: #000000; stroke-width: 1.5; stroke-linejoin: miter; stroke-linecap: square"/>
   </g>
   <g id="legend_2">
    <g id="line2d_16">
     <path d="M 181.78925 26.0525 
L 189.78925 26.0525 
L 197.78925 26.0525 
" style="fill: none; stroke-dasharray: 5.55,2.4; stroke-dashoffset: 0; stroke: #000000; stroke-width: 1.5"/>
    </g>
    <g id="text_17">
     <text style="font: 8px 'Arial', sans-serif, serif; text-anchor: start" x="204.18925" y="28.8525" transform="rotate(-0 204.18925 28.8525)">true value</text>
    </g>
   </g>
  </g>
  <g id="axes_3">
   <g id="patch_8">
    <path d="M 302.56875 72.48625 
L 382.35925 72.48625 
L 382.35925 15.92625 
L 302.56875 15.92625 
z
" style="fill: #ffffff"/>
   </g>
   <g id="matplotlib.axis_5">
    <g id="xtick_7">
     <g id="line2d_17">
      <g>
       <use xlink:href="#mf055e10bca" x="306.195591" y="72.48625" style="stroke: #000000; stroke-width: 1.5"/>
      </g>
     </g>
     <g id="text_18">
      <text style="font: 8px 'Arial', sans-serif, serif; text-anchor: middle" x="306.195591" y="85.2125" transform="rotate(-0 306.195591 85.2125)">0</text>
     </g>
    </g>
    <g id="xtick_8">
     <g id="line2d_18">
      <g>
       <use xlink:href="#mf055e10bca" x="335.221929" y="72.48625" style="stroke: #000000; stroke-width: 1.5"/>
      </g>
     </g>
     <g id="text_19">
      <text style="font: 8px 'Arial', sans-serif, serif; text-anchor: middle" x="335.221929" y="85.2125" transform="rotate(-0 335.221929 85.2125)">1000</text>
     </g>
    </g>
    <g id="xtick_9">
     <g id="line2d_19">
      <g>
       <use xlink:href="#mf055e10bca" x="364.248267" y="72.48625" style="stroke: #000000; stroke-width: 1.5"/>
      </g>
     </g>
     <g id="text_20">
      <text style="font: 8px 'Arial', sans-serif, serif; text-anchor: middle" x="364.248267" y="85.2125" transform="rotate(-0 364.248267 85.2125)">2000</text>
     </g>
    </g>
    <g id="text_21">
     <text style="font: 8px 'Arial', sans-serif, serif; text-anchor: middle" x="342.464" y="96.52875" transform="rotate(-0 342.464 96.52875)">iteration</text>
    </g>
   </g>
   <g id="matplotlib.axis_6">
    <g id="ytick_5">
     <g id="line2d_20">
      <g>
       <use xlink:href="#mc6de8e85ba" x="302.56875" y="62.348566" style="stroke: #000000; stroke-width: 1.5"/>
      </g>
     </g>
     <g id="text_22">
      <text style="font: 8px 'Arial', sans-serif, serif; text-anchor: end" x="295.56875" y="65.211691" transform="rotate(-0 295.56875 65.211691)">0.0010</text>
     </g>
    </g>
    <g id="ytick_6">
     <g id="line2d_21">
      <g>
       <use xlink:href="#mc6de8e85ba" x="302.56875" y="30.533915" style="stroke: #000000; stroke-width: 1.5"/>
      </g>
     </g>
     <g id="text_23">
      <text style="font: 8px 'Arial', sans-serif, serif; text-anchor: end" x="295.56875" y="33.39704" transform="rotate(-0 295.56875 33.39704)">0.0015</text>
     </g>
    </g>
    <g id="text_24">
     <!-- $g_K$ (S/cm²) -->
     <g transform="translate(264.7025 62.80625) rotate(-90)">
      <text>
       <tspan style="font: 8px 'Arial'" x="0 8.722012 10.944669 13.608731 18.944669 21.167325 25.167325 31.831387 34.49545" y="-0.171875">g (S/cm²)</tspan>
       <tspan style="font: 5.6px 'Arial'" x="4.588606" y="2.217625">K</tspan>
      </text>
     </g>
    </g>
   </g>
   <g id="line2d_22">
    <path d="M 306.195591 38.027585 
L 306.28267 60.784818 
L 306.340723 56.273496 
L 306.689039 19.136516 
L 306.718065 18.497159 
L 306.776118 19.142272 
L 306.921249 28.266316 
L 307.211513 43.021404 
L 307.327618 44.66509 
L 307.356644 44.578208 
L 307.617881 43.816058 
L 307.646908 43.906681 
L 307.995224 46.747436 
L 308.169382 49.742754 
L 308.517698 54.524448 
L 309.359462 59.412326 
L 309.852909 61.856451 
L 310.375384 63.617611 
L 311.101042 65.221948 
L 311.710595 66.059091 
L 312.320148 66.556496 
L 312.958728 66.799533 
L 313.684386 66.830185 
L 314.729334 66.613196 
L 316.412862 66.260825 
L 317.893205 66.24825 
L 319.51868 66.486414 
L 321.956892 67.071482 
L 325.091737 68.002729 
L 325.149789 68.079825 
L 325.178816 67.633665 
L 325.207842 68.019281 
L 325.236869 67.538654 
L 325.265895 67.69045 
L 325.382 67.258449 
L 325.440053 67.388357 
L 325.469079 67.311542 
L 325.498106 67.526091 
L 325.527132 67.376435 
L 325.643237 67.660717 
L 325.672264 67.540298 
L 325.846422 67.792654 
L 326.049606 67.807373 
L 326.194738 67.813088 
L 326.455975 67.867203 
L 326.630133 67.993088 
L 326.862343 68.054492 
L 327.733134 68.367733 
L 327.791186 68.410852 
L 327.820213 68.221555 
L 327.878265 68.10684 
L 327.907292 68.489711 
L 327.994371 67.944481 
L 328.023397 67.950732 
L 328.052423 67.991288 
L 328.08145 67.711924 
L 328.168529 67.87158 
L 328.226581 67.787547 
L 328.400739 68.11114 
L 328.429766 67.965884 
L 328.458792 68.144474 
L 328.487818 68.071136 
L 328.691003 68.200189 
L 328.778082 68.135274 
L 328.749055 68.23724 
L 328.807108 68.217396 
L 328.923213 68.142633 
L 329.068345 68.208418 
L 329.242503 68.32337 
L 330.490636 68.624549 
L 330.548688 68.588704 
L 330.577715 68.79872 
L 330.635767 68.859405 
L 330.664794 68.338896 
L 330.69382 68.763683 
L 330.722846 68.236715 
L 330.751873 68.434522 
L 330.867978 68.009421 
L 330.984083 68.304322 
L 331.01311 68.198529 
L 331.042136 68.424404 
L 331.071162 68.254244 
L 331.187268 68.493519 
L 331.216294 68.378711 
L 331.24532 68.562378 
L 331.274347 68.433071 
L 331.390452 68.585282 
L 331.419478 68.468578 
L 331.506557 68.529697 
L 331.825847 68.541278 
L 331.970979 68.647264 
L 332.116111 68.704482 
L 332.290269 68.704153 
L 332.493453 68.782364 
L 333.103006 68.972705 
L 333.161059 69.001253 
L 333.190085 68.854775 
L 333.248138 68.771894 
L 333.277164 69.118069 
L 333.422296 68.450156 
L 333.480348 68.503108 
L 333.509375 68.171596 
L 333.62548 68.493815 
L 333.654506 68.356226 
L 333.683533 68.62149 
L 333.712559 68.418089 
L 333.828665 68.685316 
L 333.857691 68.533341 
L 333.886717 68.745682 
L 333.915744 68.610634 
L 334.031849 68.792668 
L 334.060875 68.63893 
L 334.147954 68.682253 
L 334.206007 68.642534 
L 334.235033 68.729375 
L 334.351139 68.656116 
L 334.525297 68.78689 
L 334.670428 68.831546 
L 334.989718 68.905883 
L 335.13485 68.935283 
L 335.68635 69.088902 
L 335.889534 69.106713 
L 336.034666 69.169376 
L 336.121745 69.120428 
L 336.179798 69.098472 
L 336.208824 69.261117 
L 336.266877 69.338484 
L 336.295903 68.868198 
L 336.32493 69.373166 
L 336.353956 68.637453 
L 336.382982 69.128424 
L 336.499088 68.228544 
L 336.528114 68.594582 
L 336.615193 68.577812 
L 336.644219 68.373633 
L 336.673246 68.705816 
L 336.702272 68.502915 
L 336.818377 68.791031 
L 336.847404 68.599697 
L 336.934483 68.709038 
L 337.021562 68.894131 
L 337.050588 68.825497 
L 337.108641 68.91162 
L 337.137667 68.752642 
L 337.166693 68.875735 
L 337.253772 68.833123 
L 337.369878 68.742875 
L 337.602088 68.934576 
L 337.718194 68.954039 
L 337.892352 68.982487 
L 338.037483 69.003479 
L 339.691985 69.431706 
L 339.750037 69.499636 
L 339.779064 69.124817 
L 339.80809 69.60084 
L 339.837116 68.851453 
L 339.866143 69.512721 
L 339.982248 68.239333 
L 340.011274 68.610171 
L 340.040301 68.170296 
L 340.098353 68.551712 
L 340.12738 68.270829 
L 340.156406 68.673816 
L 340.185432 68.540271 
L 340.214459 68.562793 
L 340.243485 68.756786 
L 340.272511 68.502012 
L 340.330564 68.650404 
L 340.359591 68.652834 
L 340.44667 68.898379 
L 340.475696 68.826205 
L 340.504722 68.836016 
L 340.591801 68.998916 
L 340.562775 68.816972 
L 340.620828 68.92495 
L 340.67888 68.997668 
L 340.794986 68.768512 
L 340.824012 68.839938 
L 340.853038 68.739357 
L 340.911091 68.800401 
L 340.99817 68.837509 
L 341.201354 69.001853 
L 341.54967 69.071657 
L 341.694802 69.086435 
L 342.50754 69.282121 
L 342.971961 69.391132 
L 343.407356 69.43518 
L 343.494435 69.542203 
L 343.552488 69.607722 
L 343.581514 69.253032 
L 343.61054 69.723159 
L 343.639567 68.973246 
L 343.668593 69.685155 
L 343.784698 68.333756 
L 343.813725 68.721242 
L 343.842751 68.206848 
L 343.900804 68.640512 
L 343.92983 68.318178 
L 343.958856 68.765053 
L 344.016909 68.585397 
L 344.045935 68.812938 
L 344.074962 68.497297 
L 344.133014 68.67969 
L 344.162041 68.638764 
L 344.24912 68.916301 
L 344.278146 68.894646 
L 344.307172 68.87462 
L 344.394251 69.083913 
L 344.423278 69.049546 
L 344.48133 69.109587 
L 344.597436 68.829801 
L 344.626462 68.923346 
L 344.655489 68.807875 
L 344.713541 68.878783 
L 344.742568 68.819153 
L 344.771594 68.922094 
L 344.80062 68.891546 
L 345.061857 69.117287 
L 345.177963 69.106387 
L 345.352121 69.135761 
L 345.468226 69.133298 
L 346.164858 69.318884 
L 346.803438 69.450677 
L 347.122727 69.542766 
L 347.18078 69.57224 
L 347.209806 69.452266 
L 347.267859 69.378747 
L 347.296885 69.714685 
L 347.354938 69.791544 
L 347.442017 68.633486 
L 347.471043 68.778327 
L 347.50007 68.768705 
L 347.529096 68.229811 
L 347.616175 68.461482 
L 347.645201 68.842823 
L 347.73228 68.77612 
L 347.790333 68.884987 
L 347.819359 68.622171 
L 347.935465 68.979768 
L 347.964491 68.823238 
L 347.993517 69.045231 
L 348.022544 69.036302 
L 348.05157 69.002965 
L 348.138649 69.200561 
L 348.167675 69.153591 
L 348.225728 69.181365 
L 348.341833 68.887438 
L 348.457939 68.940198 
L 348.545018 68.978109 
L 348.719176 69.201124 
L 348.835281 69.181717 
L 348.951387 69.190706 
L 349.125545 69.180417 
L 349.618992 69.362103 
L 349.967308 69.396684 
L 350.460756 69.526921 
L 350.547835 69.485392 
L 350.634914 69.614385 
L 350.692967 69.693496 
L 350.721993 69.257843 
L 350.751019 69.802467 
L 350.780046 68.961564 
L 350.809072 69.697733 
L 350.925177 68.402045 
L 350.954204 68.861312 
L 350.98323 68.3752 
L 351.041283 68.826046 
L 351.070309 68.518993 
L 351.099335 68.985824 
L 351.157388 68.761175 
L 351.215441 68.557234 
L 351.244467 68.897179 
L 351.273494 68.681297 
L 351.331546 68.942376 
L 351.360573 68.745771 
L 351.476678 69.18445 
L 351.505704 69.005572 
L 351.534731 69.284491 
L 351.592783 69.145135 
L 351.62181 69.170461 
L 351.708889 68.902294 
L 351.737915 68.928779 
L 351.766941 68.957924 
L 351.795968 68.814931 
L 351.824994 68.970342 
L 351.85402 68.864879 
L 352.057205 69.121483 
L 353.885864 69.480358 
L 353.972943 69.57437 
L 354.030996 69.618329 
L 354.060022 69.394906 
L 354.118075 69.232673 
L 354.147101 69.798181 
L 354.23418 68.701282 
L 354.263206 69.049191 
L 354.379312 68.454519 
L 354.495417 69.073687 
L 354.611522 68.673897 
L 354.640549 68.983002 
L 354.727628 68.954227 
L 354.756654 68.922313 
L 354.843733 69.257713 
L 354.872759 69.167158 
L 354.988865 69.286628 
L 355.10497 68.954039 
L 355.133996 69.072413 
L 355.163023 68.937101 
L 355.250102 68.981861 
L 355.42426 69.222558 
L 355.511339 69.230584 
L 355.627444 69.288899 
L 355.772576 69.230232 
L 355.917708 69.239191 
L 356.091866 69.366528 
L 356.236997 69.388647 
L 356.469208 69.42801 
L 356.61434 69.418688 
L 356.817524 69.513984 
L 356.904603 69.462073 
L 356.962656 69.43998 
L 356.991682 69.610381 
L 357.049735 69.688344 
L 357.078761 69.214413 
L 357.107787 69.777937 
L 357.136814 68.948409 
L 357.16584 69.640437 
L 357.281945 68.58646 
L 357.310972 69.00215 
L 357.339998 68.526249 
L 357.398051 68.886838 
L 357.427077 68.788794 
L 357.456103 69.098091 
L 357.48513 68.717338 
L 357.514156 69.022028 
L 357.630262 68.785527 
L 357.746367 69.150524 
L 357.775393 69.127713 
L 357.862472 69.395551 
L 357.891499 69.251976 
L 357.949551 69.292843 
L 358.094683 69.056054 
L 358.181762 69.026887 
L 358.35592 69.288976 
L 358.413973 69.35514 
L 358.442999 69.288843 
L 358.472025 69.370873 
L 358.559104 69.334165 
L 358.704236 69.261928 
L 358.936447 69.388969 
L 359.023526 69.387706 
L 359.168657 69.455714 
L 359.458921 69.461588 
L 359.720158 69.585792 
L 359.778211 69.64704 
L 359.807237 69.362399 
L 359.86529 69.135898 
L 359.894316 69.827118 
L 359.981395 68.638082 
L 360.010421 68.818938 
L 360.039448 68.826127 
L 360.068474 68.342385 
L 360.0975 68.922801 
L 360.155553 68.700416 
L 360.184579 68.974879 
L 360.213606 68.54993 
L 360.242632 68.958927 
L 360.358737 68.556415 
L 360.474843 69.038939 
L 360.503869 68.940364 
L 360.590948 69.324421 
L 360.619974 69.300513 
L 360.678027 69.378914 
L 360.794132 69.032013 
L 360.823159 69.08532 
L 360.852185 68.884716 
L 360.939264 68.975968 
L 361.229527 69.330573 
L 361.374659 69.271762 
L 361.519791 69.202965 
L 362.013239 69.42998 
L 362.15837 69.399762 
L 362.303502 69.447092 
L 362.390581 69.421947 
L 362.535713 69.564607 
L 362.593765 69.624885 
L 362.622792 69.287525 
L 362.680844 69.06875 
L 362.709871 69.738122 
L 362.79695 68.812883 
L 362.825976 68.892798 
L 362.855002 68.988705 
L 362.884029 68.609078 
L 362.913055 69.148521 
L 362.942081 68.740449 
L 363.058187 69.104465 
L 363.087213 68.711056 
L 363.174292 68.923046 
L 363.232345 68.872579 
L 363.406503 69.40491 
L 363.464555 69.425529 
L 363.551634 69.196232 
L 363.696766 69.018576 
L 363.870924 69.306865 
L 363.89995 69.247136 
L 363.928977 69.385358 
L 363.958003 69.311995 
L 363.987029 69.397495 
L 364.074108 69.36531 
L 364.21924 69.272658 
L 364.393398 69.35074 
L 364.53853 69.395529 
L 364.683662 69.499232 
L 364.741714 69.519821 
L 364.770741 69.386166 
L 364.828793 69.339399 
L 364.85782 69.593477 
L 364.915872 69.672996 
L 364.944899 69.035517 
L 364.973925 69.650077 
L 365.002951 68.879572 
L 365.031978 69.352443 
L 365.148083 68.766631 
L 365.177109 69.250495 
L 365.264188 68.990794 
L 365.322241 69.087898 
L 365.351267 68.818909 
L 365.380294 69.160358 
L 365.40932 68.834323 
L 365.438346 69.188135 
L 365.525425 69.178091 
L 365.554452 69.08215 
L 365.583478 69.360051 
L 365.612504 69.152935 
L 365.641531 69.451458 
L 365.72861 69.284821 
L 365.873741 69.09552 
L 365.902768 69.228398 
L 365.989847 69.171706 
L 366.076926 69.232265 
L 366.222057 69.403266 
L 366.396216 69.305921 
L 366.541347 69.38854 
L 366.570374 69.302891 
L 366.628426 69.32531 
L 366.773558 69.495547 
L 366.831611 69.529244 
L 366.860637 69.321073 
L 366.91869 69.233269 
L 366.947716 69.658103 
L 367.034795 68.915783 
L 367.092848 68.938598 
L 367.179927 68.863568 
L 367.208953 69.246221 
L 367.237979 68.856464 
L 367.267006 69.282739 
L 367.325058 69.126957 
L 367.441164 68.893046 
L 367.528243 69.291088 
L 367.557269 69.116876 
L 367.673374 69.41928 
L 367.731427 69.455121 
L 367.818506 69.208732 
L 367.934611 69.233376 
L 367.992664 69.283199 
L 368.02169 69.179609 
L 368.166822 69.411892 
L 368.195848 69.332384 
L 368.282927 69.406769 
L 368.515138 69.331817 
L 368.602217 69.453021 
L 368.66027 69.501358 
L 368.689296 69.297654 
L 368.747349 69.213976 
L 368.776375 69.675281 
L 368.863454 68.904061 
L 368.892481 69.373188 
L 369.008586 68.823131 
L 369.037612 69.26741 
L 369.124691 68.937783 
L 369.153718 69.038831 
L 369.182744 69.019824 
L 369.240797 69.116554 
L 369.269823 68.831601 
L 369.356902 69.219473 
L 369.385928 69.145058 
L 369.443981 69.334217 
L 369.473007 69.193602 
L 369.502034 69.463688 
L 369.560086 69.42591 
L 369.676192 69.153669 
L 369.734244 69.102183 
L 369.763271 69.24338 
L 369.792297 69.098876 
L 369.821323 69.26601 
L 369.85035 69.143672 
L 369.995481 69.338025 
L 370.140613 69.426366 
L 370.285745 69.275199 
L 370.430876 69.416717 
L 370.488929 69.459536 
L 370.517955 69.318532 
L 370.576008 69.286521 
L 370.605035 69.567033 
L 370.663087 69.642129 
L 370.692114 69.014179 
L 370.72114 69.614248 
L 370.750166 68.903679 
L 370.779193 69.357188 
L 370.895298 68.869612 
L 370.953351 68.860901 
L 370.982377 69.284928 
L 371.098482 68.90849 
L 371.156535 68.881724 
L 371.243614 69.30181 
L 371.27264 69.121972 
L 371.359719 69.261658 
L 371.417772 69.247243 
L 371.446798 69.43014 
L 371.59193 69.163417 
L 371.998299 69.422299 
L 372.14343 69.305054 
L 372.288562 69.398358 
L 372.375641 69.379128 
L 372.46272 69.515655 
L 372.520773 69.569285 
L 372.549799 69.294739 
L 372.607852 69.117313 
L 372.636878 69.750211 
L 372.723957 68.727842 
L 372.752984 69.069131 
L 372.869089 68.603745 
L 372.898115 69.06132 
L 372.985194 68.99055 
L 373.014221 68.637179 
L 373.072273 68.66076 
L 373.246431 69.360128 
L 373.275458 69.190517 
L 373.304484 69.43691 
L 373.362537 69.333865 
L 373.391563 69.404588 
L 373.536695 69.050061 
L 373.681826 69.071657 
L 373.826958 69.346447 
L 374.030142 69.356865 
L 374.117221 69.23608 
L 374.146248 69.306273 
L 374.175274 69.24251 
L 374.233327 69.274954 
L 374.407485 69.401377 
L 374.726774 69.471688 
L 375.191196 69.42691 
L 375.249249 69.235561 
L 375.278275 69.915341 
L 375.365354 68.509019 
L 375.39438 68.82569 
L 375.423407 68.777538 
L 375.452433 68.089459 
L 375.481459 68.801168 
L 375.539512 68.39123 
L 375.568538 68.927316 
L 375.597565 68.253666 
L 375.655617 68.494834 
L 375.684644 68.104966 
L 375.771723 68.350815 
L 375.945881 69.393717 
L 376.003933 69.465625 
L 376.120039 69.01315 
L 376.149065 69.068105 
L 376.26517 68.717497 
L 376.439328 69.169972 
L 376.468355 69.100346 
L 376.497381 69.260684 
L 376.526407 69.204402 
L 376.58446 69.25898 
L 376.642513 69.218739 
L 376.787644 69.09145 
L 377.019855 69.273469 
L 377.281092 69.356221 
L 377.426224 69.352628 
L 377.571356 69.384332 
L 377.716487 69.36531 
L 377.803566 69.457118 
L 377.861619 69.496214 
L 377.890645 69.308754 
L 377.948698 69.201532 
L 377.977724 69.694518 
L 378.064803 68.756538 
L 378.035777 69.714792 
L 378.122856 68.797983 
L 378.180909 69.022135 
L 378.209935 68.564986 
L 378.238961 69.153943 
L 378.297014 68.936257 
L 378.32604 68.964746 
L 378.413119 68.556363 
L 378.384093 69.003072 
L 378.442146 68.878101 
L 378.471172 68.783127 
L 378.500198 68.79752 
L 378.674356 69.383284 
L 378.703383 69.289306 
L 378.732409 69.46571 
L 378.732409 69.46571 
" clip-path="url(#p5c4e795331)" style="fill: none; stroke: #000000; stroke-width: 1.5; stroke-linecap: square"/>
   </g>
   <g id="line2d_23">
    <path d="M 302.56875 70.747634 
L 382.35925 70.747634 
" clip-path="url(#p5c4e795331)" style="fill: none; stroke-dasharray: 5.55,2.4; stroke-dashoffset: 0; stroke: #000000; stroke-width: 1.5"/>
   </g>
   <g id="patch_9">
    <path d="M 302.56875 72.48625 
L 302.56875 15.92625 
" style="fill: none; stroke: #000000; stroke-width: 1.5; stroke-linejoin: miter; stroke-linecap: square"/>
   </g>
   <g id="patch_10">
    <path d="M 302.56875 72.48625 
L 382.35925 72.48625 
" style="fill: none; stroke: #000000; stroke-width: 1.5; stroke-linejoin: miter; stroke-linecap: square"/>
   </g>
   <g id="legend_3">
    <g id="line2d_24">
     <path d="M 317.62925 26.0525 
L 325.62925 26.0525 
L 333.62925 26.0525 
" style="fill: none; stroke-dasharray: 5.55,2.4; stroke-dashoffset: 0; stroke: #000000; stroke-width: 1.5"/>
    </g>
    <g id="text_25">
     <text style="font: 8px 'Arial', sans-serif, serif; text-anchor: start" x="340.02925" y="28.8525" transform="rotate(-0 340.02925 28.8525)">true value</text>
    </g>
   </g>
  </g>
 </g>
 <defs>
  <clipPath id="p2eb306cd75">
   <rect x="30.88875" y="15.92625" width="79.7905" height="56.56"/>
  </clipPath>
  <clipPath id="p3111fac6aa">
   <rect x="166.72875" y="15.92625" width="79.7905" height="56.56"/>
  </clipPath>
  <clipPath id="p5c4e795331">
   <rect x="302.56875" y="15.92625" width="79.7905" height="56.56"/>
  </clipPath>
 </defs>
</svg>
