<?xml version="1.0" encoding="utf-8" standalone="no"?>
<!DOCTYPE svg PUBLIC "-//W3C//DTD SVG 1.1//EN"
  "http://www.w3.org/Graphics/SVG/1.1/DTD/svg11.dtd">
<svg xmlns:xlink="http://www.w3.org/1999/xlink" width="382.80925pt" height="105.31875pt" viewBox="0 0 382.80925 105.31875" xmlns="http://www.w3.org/2000/svg" version="1.1">
 <metadata>
  <rdf:RDF xmlns:dc="http://purl.org/dc/elements/1.1/" xmlns:cc="http://creativecommons.org/ns#" xmlns:rdf="http://www.w3.org/1999/02/22-rdf-syntax-ns#">
   <cc:Work>
    <dc:type rdf:resource="http://purl.org/dc/dcmitype/StillImage"/>
    <dc:date>2025-10-29T05:02:50.685295</dc:date>
    <dc:format>image/svg+xml</dc:format>
    <dc:creator>
     <cc:Agent>
      <dc:title>Matplotlib v3.9.2, https://matplotlib.org/</dc:title>
     </cc:Agent>
    </dc:creator>
   </cc:Work>
  </rdf:RDF>
 </metadata>
 <defs>
  <style type="text/css">*{stroke-linejoin: round; stroke-linecap: butt}</style>
 </defs>
 <g id="figure_1">
  <g id="patch_1">
   <path d="M 0 105.31875 
L 382.80925 105.31875 
L 382.80925 0 
L 0 0 
z
" style="fill: #ffffff"/>
  </g>
  <g id="axes_1">
   <g id="patch_2">
    <path d="M 30.88875 72.48625 
L 111.36925 72.48625 
L 111.36925 15.92625 
L 30.88875 15.92625 
z
" style="fill: #ffffff"/>
   </g>
   <g id="matplotlib.axis_1">
    <g id="xtick_1">
     <g id="line2d_1">
      <defs>
       <path id="m50072c1a86" d="M 0 0 
L 0 3.5 
" style="stroke: #000000; stroke-width: 1.5"/>
      </defs>
      <g>
       <use xlink:href="#m50072c1a86" x="34.546955" y="72.48625" style="stroke: #000000; stroke-width: 1.5"/>
      </g>
     </g>
     <g id="text_1">
      <text style="font: 8px 'Arial', sans-serif, serif; text-anchor: middle" x="34.546955" y="85.2125" transform="rotate(-0 34.546955 85.2125)">0</text>
     </g>
    </g>
    <g id="xtick_2">
     <g id="line2d_2">
      <g>
       <use xlink:href="#m50072c1a86" x="63.824302" y="72.48625" style="stroke: #000000; stroke-width: 1.5"/>
      </g>
     </g>
     <g id="text_2">
      <text style="font: 8px 'Arial', sans-serif, serif; text-anchor: middle" x="63.824302" y="85.2125" transform="rotate(-0 63.824302 85.2125)">1000</text>
     </g>
    </g>
    <g id="xtick_3">
     <g id="line2d_3">
      <g>
       <use xlink:href="#m50072c1a86" x="93.101649" y="72.48625" style="stroke: #000000; stroke-width: 1.5"/>
      </g>
     </g>
     <g id="text_3">
      <text style="font: 8px 'Arial', sans-serif, serif; text-anchor: middle" x="93.101649" y="85.2125" transform="rotate(-0 93.101649 85.2125)">2000</text>
     </g>
    </g>
    <g id="text_4">
     <text style="font: 8px 'Arial', sans-serif, serif; text-anchor: middle" x="71.129" y="96.52875" transform="rotate(-0 71.129 96.52875)">iteration</text>
    </g>
   </g>
   <g id="matplotlib.axis_2">
    <g id="ytick_1">
     <g id="line2d_4">
      <defs>
       <path id="m3a997afcde" d="M 0 0 
L -3.5 0 
" style="stroke: #000000; stroke-width: 1.5"/>
      </defs>
      <g>
       <use xlink:href="#m3a997afcde" x="30.88875" y="55.648193" style="stroke: #000000; stroke-width: 1.5"/>
      </g>
     </g>
     <g id="text_5">
      <text style="font: 8px 'Arial', sans-serif, serif; text-anchor: end" x="23.88875" y="58.511318" transform="rotate(-0 23.88875 58.511318)">1</text>
     </g>
    </g>
    <g id="ytick_2">
     <g id="line2d_5">
      <g>
       <use xlink:href="#m3a997afcde" x="30.88875" y="26.434019" style="stroke: #000000; stroke-width: 1.5"/>
      </g>
     </g>
     <g id="text_6">
      <text style="font: 8px 'Arial', sans-serif, serif; text-anchor: end" x="23.88875" y="29.297144" transform="rotate(-0 23.88875 29.297144)">2</text>
     </g>
    </g>
    <g id="text_7">
     <!-- $g_L$ (S/cm²) -->
     <g transform="translate(13.04 62.48625) rotate(-90)">
      <text>
       <tspan style="font: 8px 'Arial'" x="0 8.101309 10.323966 12.988028 18.323966 20.546622 24.546622 31.210684 33.874747" y="-0.171875">g (S/cm²)</tspan>
       <tspan style="font: 5.6px 'Arial'" x="4.588606" y="2.217625">L</tspan>
      </text>
     </g>
    </g>
    <g id="text_8">
     <text style="font: 8px 'Arial', sans-serif, serif; text-anchor: start" x="30.88875" y="12.92625" transform="rotate(-0 30.88875 12.92625)">1e−5</text>
    </g>
   </g>
   <g id="line2d_6">
    <path d="M 34.546955 62.573818 
L 34.664064 68.869176 
L 34.722619 68.441498 
L 34.751896 68.214786 
L 34.781173 68.331289 
L 34.839728 69.152166 
L 34.869005 68.704819 
L 34.92756 68.055358 
L 34.956837 68.382793 
L 35.103224 69.915341 
L 35.161779 69.697844 
L 35.249611 69.359047 
L 35.308166 69.413021 
L 35.36672 69.31267 
L 35.80588 67.224655 
L 35.92299 66.654986 
L 36.332873 64.452106 
L 36.80131 62.281327 
L 37.738185 59.284734 
L 38.177346 58.589309 
L 38.616506 58.261074 
L 39.34844 58.071528 
L 41.719905 57.507466 
L 43.066663 56.930912 
L 44.032815 56.586221 
L 44.794026 56.364992 
L 45.262464 55.895211 
L 46.579944 54.431608 
L 47.048382 53.936471 
L 47.487542 53.028671 
L 48.629359 49.96447 
L 49.771175 46.158274 
L 51.14721 40.75838 
L 53.079515 32.165757 
L 53.57723 29.533868 
L 53.635785 28.90906 
L 53.665062 30.635253 
L 53.69434 28.441277 
L 53.723617 30.900264 
L 53.752894 29.20841 
L 53.870004 31.370157 
L 53.899281 30.246787 
L 53.987113 30.585014 
L 54.016391 31.421405 
L 54.045668 30.55017 
L 54.104223 30.97432 
L 54.192055 30.334006 
L 54.162777 31.072332 
L 54.221332 30.684881 
L 54.57266 29.438125 
L 54.601937 29.504471 
L 54.748324 28.929333 
L 54.923988 28.256578 
L 54.982543 27.953465 
L 55.01182 28.026358 
L 55.187484 27.231555 
L 55.216762 27.247056 
L 55.392426 26.564963 
L 55.831586 24.955206 
L 56.300024 23.079907 
L 56.358578 22.651618 
L 56.387856 23.920581 
L 56.417133 22.179302 
L 56.44641 24.295385 
L 56.475688 22.323083 
L 56.592797 24.685105 
L 56.622074 23.704635 
L 56.651352 25.19058 
L 56.680629 24.141081 
L 56.797738 25.364514 
L 56.827016 24.441861 
L 56.914848 24.655368 
L 56.944125 25.201676 
L 56.973403 24.455055 
L 57.00268 25.087711 
L 57.119789 24.350061 
L 57.149067 24.883632 
L 57.178344 24.336265 
L 57.236899 24.512521 
L 57.324731 24.060595 
L 57.295453 24.547275 
L 57.383285 24.091028 
L 57.471117 23.794564 
L 57.500395 24.01355 
L 57.617504 23.527423 
L 57.646782 23.585946 
L 57.793168 23.114602 
L 58.085942 22.393595 
L 58.115219 22.415043 
L 58.290883 21.947706 
L 58.759321 20.760164 
L 58.788598 20.792867 
L 58.934985 20.357945 
L 58.964262 20.512286 
L 58.99354 20.201384 
L 59.022817 20.465576 
L 59.081372 20.479334 
L 59.110649 19.744446 
L 59.169204 19.356469 
L 59.198481 21.027306 
L 59.227758 19.147734 
L 59.257036 21.404846 
L 59.286313 19.941687 
L 59.403422 22.101122 
L 59.4327 21.164376 
L 59.461977 22.311031 
L 59.491254 21.69809 
L 59.608364 22.511147 
L 59.637641 21.769978 
L 59.725473 22.076513 
L 59.784028 21.806613 
L 59.813305 22.399318 
L 59.842583 21.828018 
L 59.930415 21.89321 
L 59.959692 22.188628 
L 59.988969 21.726881 
L 60.018247 22.119014 
L 60.135356 21.679177 
L 60.164633 21.869244 
L 60.193911 21.552698 
L 60.223188 21.759812 
L 60.340298 21.385779 
L 60.369575 21.493495 
L 60.398852 21.238682 
L 60.42813 21.398188 
L 60.545239 21.06875 
L 60.574516 21.129319 
L 60.720903 20.823104 
L 60.779458 20.782717 
L 61.042954 20.343491 
L 61.247895 19.984151 
L 61.277173 20.01433 
L 61.423559 19.721713 
L 61.452837 19.786161 
L 61.482114 19.643145 
L 61.511391 19.722956 
L 61.657778 19.379075 
L 61.716333 19.256879 
L 61.74561 19.655208 
L 61.804165 19.789642 
L 61.833442 18.785891 
L 61.891997 18.497159 
L 61.921274 20.616776 
L 61.950552 18.995339 
L 61.979829 20.802517 
L 62.009106 20.353455 
L 62.214048 21.88618 
L 62.243325 21.343873 
L 62.272602 22.176794 
L 62.30188 21.453416 
L 62.418989 22.191673 
L 62.448267 21.61618 
L 62.477544 22.253443 
L 62.536099 22.040521 
L 62.565376 22.071847 
L 62.623931 22.215395 
L 62.653208 21.706226 
L 62.682485 22.091004 
L 62.770317 22.03357 
L 62.799595 21.694907 
L 62.887427 21.808717 
L 62.945981 21.639758 
L 62.975259 21.775329 
L 63.063091 21.52202 
L 63.092368 21.551008 
L 63.150923 21.401275 
L 63.1802 21.529205 
L 63.268032 21.316001 
L 63.29731 21.324849 
L 63.326587 21.339691 
L 63.472974 21.13965 
L 63.590083 21.070758 
L 63.765747 20.819804 
L 64.556236 20.106725 
L 64.61479 20.060328 
L 64.644068 20.177768 
L 64.7319 19.932526 
L 64.790454 19.819725 
L 64.819732 20.325089 
L 64.878286 20.617328 
L 64.907564 19.264951 
L 65.05395 21.619198 
L 65.112505 21.413317 
L 65.229615 23.06329 
L 65.258892 22.427966 
L 65.288169 23.363602 
L 65.317447 22.767437 
L 65.434556 23.576014 
L 65.463833 23.012525 
L 65.551665 23.186698 
L 65.580943 23.654927 
L 65.61022 23.126559 
L 65.668775 23.40089 
L 65.698052 23.306566 
L 65.727329 23.629999 
L 65.756607 23.192283 
L 65.785884 23.549003 
L 65.902994 23.183876 
L 65.932271 23.39081 
L 66.020103 23.272626 
L 66.16649 23.073307 
L 66.342154 22.926236 
L 66.400708 22.831832 
L 66.429986 22.946371 
L 66.547095 22.74718 
L 66.576372 22.809997 
L 66.60565 22.695209 
L 66.634927 22.727093 
L 66.898423 22.419448 
L 67.337584 22.090462 
L 67.48397 22.036142 
L 67.864576 21.913744 
L 68.069517 21.817018 
L 68.157349 21.858611 
L 68.245181 21.716641 
L 68.303736 21.647059 
L 68.333013 21.969663 
L 68.391568 22.158731 
L 68.420845 21.22503 
L 68.4794 20.971763 
L 68.567232 23.547191 
L 68.596509 23.61148 
L 68.625787 23.330692 
L 68.742896 25.272863 
L 68.772174 24.565157 
L 68.801451 25.557232 
L 68.830728 25.231653 
L 68.860006 25.306952 
L 68.947838 25.82938 
L 68.91856 25.202468 
L 68.977115 25.607833 
L 69.006392 25.575948 
L 69.094224 25.94861 
L 69.064947 25.445935 
L 69.123502 25.712508 
L 69.152779 25.671431 
L 69.182056 25.987706 
L 69.211334 25.542869 
L 69.269888 25.76517 
L 69.328443 25.945523 
L 69.35772 25.57793 
L 69.386998 25.811418 
L 69.47483 25.779704 
L 69.591939 25.474721 
L 69.621217 25.578945 
L 69.650494 25.441355 
L 69.679771 25.483155 
L 69.943267 25.251261 
L 69.972545 25.338863 
L 70.060377 25.263542 
L 70.236041 25.021605 
L 70.265318 25.052129 
L 70.323873 24.964341 
L 70.704478 24.620794 
L 70.880143 24.566767 
L 71.114361 24.465593 
L 71.290025 24.41731 
L 72.139068 24.127998 
L 72.197623 24.026952 
L 72.226901 24.532831 
L 72.285455 24.909022 
L 72.314733 23.511512 
L 72.402565 25.854993 
L 72.431842 25.756833 
L 72.461119 25.649181 
L 72.578229 27.456508 
L 72.607506 26.791798 
L 72.636783 27.76766 
L 72.666061 27.464006 
L 72.695338 27.505817 
L 72.78317 28.026687 
L 72.753893 27.436634 
L 72.812447 27.887109 
L 72.841725 27.771582 
L 72.871002 28.161658 
L 72.90028 27.722172 
L 72.958834 28.009667 
L 73.017389 28.218455 
L 73.046666 27.839437 
L 73.163776 28.195705 
L 73.280885 27.82535 
L 73.310162 28.05584 
L 73.397994 27.915948 
L 73.485826 27.735909 
L 73.515104 27.7553 
L 73.602936 27.744789 
L 73.720045 27.609053 
L 73.749323 27.659313 
L 73.7786 27.556667 
L 73.807877 27.620733 
L 74.012819 27.417184 
L 74.100651 27.373014 
L 74.276315 27.153678 
L 74.393424 27.087332 
L 74.627643 26.954391 
L 74.803307 26.900905 
L 75.65235 26.699238 
L 75.798737 26.616924 
L 75.857292 26.580804 
L 75.886569 26.747479 
L 75.945124 26.825457 
L 75.974401 26.385562 
L 76.032956 26.118883 
L 76.062233 27.442378 
L 76.09151 26.068612 
L 76.120788 27.954603 
L 76.150065 26.974159 
L 76.267174 29.018662 
L 76.296452 28.663924 
L 76.325729 28.776566 
L 76.355006 29.503732 
L 76.442839 29.495761 
L 76.472116 29.261513 
L 76.501393 29.776368 
L 76.530671 29.333742 
L 76.64778 29.87929 
L 76.677057 29.525004 
L 76.764889 29.644718 
L 76.794167 29.955483 
L 76.823444 29.611166 
L 76.881999 29.801429 
L 76.969831 29.62054 
L 76.940553 29.911477 
L 76.999108 29.778839 
L 77.408991 29.389953 
L 77.438268 29.459052 
L 77.5261 29.386404 
L 77.701764 29.238551 
L 77.731042 29.274665 
L 77.760319 29.183036 
L 77.789597 29.216376 
L 78.023815 28.992937 
L 78.199479 28.922186 
L 78.375143 28.831258 
L 78.609362 28.77486 
L 79.312019 28.695803 
L 79.370573 28.747626 
L 79.399851 28.414797 
L 79.458405 28.207109 
L 79.487683 29.197692 
L 79.51696 28.033622 
L 79.546237 29.674201 
L 79.575515 28.544869 
L 79.692624 30.71101 
L 79.721901 30.06492 
L 79.780456 30.985309 
L 79.809733 30.487459 
L 79.926843 31.384749 
L 79.95612 30.905254 
L 79.985398 31.500951 
L 80.014675 31.164179 
L 80.102507 31.125398 
L 80.131784 31.624417 
L 80.248894 31.257101 
L 80.278171 31.688653 
L 80.366003 31.596178 
L 80.39528 31.292407 
L 80.424558 31.628424 
L 80.483112 31.446269 
L 80.51239 31.514847 
L 80.541667 31.278761 
L 80.629499 31.383521 
L 80.658777 31.393416 
L 80.746609 31.239713 
L 80.775886 31.342348 
L 80.95155 31.201755 
L 81.068659 31.223803 
L 81.185769 31.042313 
L 81.215046 31.103716 
L 81.244323 30.990501 
L 81.273601 31.040155 
L 81.449265 30.8513 
L 81.566374 30.817758 
L 81.742038 30.743022 
L 82.093367 30.63334 
L 82.708191 30.415066 
L 82.766746 30.363956 
L 82.796023 30.596248 
L 82.854578 30.725884 
L 82.883855 30.077509 
L 82.94241 29.95747 
L 83.030242 31.494441 
L 83.059519 31.533765 
L 83.088796 31.322389 
L 83.205906 32.368402 
L 83.235183 32.027231 
L 83.26446 32.69454 
L 83.293738 32.205851 
L 83.410847 32.85598 
L 83.440125 32.442044 
L 83.527957 32.617268 
L 83.615789 32.917591 
L 83.586511 32.572907 
L 83.645066 32.736861 
L 83.674343 32.75157 
L 83.732898 32.625144 
L 83.762175 32.911246 
L 83.879285 32.614176 
L 83.908562 32.812957 
L 83.996394 32.679214 
L 84.142781 32.556343 
L 84.25989 32.587616 
L 84.377 32.474077 
L 84.435554 32.408188 
L 84.464832 32.485167 
L 84.581941 32.351679 
L 84.611218 32.371553 
L 84.757605 32.238628 
L 84.933269 32.181385 
L 85.079656 32.097976 
L 85.723758 32.031206 
L 85.782312 32.072708 
L 85.81159 31.75798 
L 85.870144 31.58622 
L 85.899422 32.432946 
L 85.928699 31.486698 
L 85.957976 32.749582 
L 85.987254 31.895501 
L 86.104363 33.425723 
L 86.13364 32.843327 
L 86.162918 33.47593 
L 86.192195 33.429597 
L 86.221473 33.312827 
L 86.309305 33.787146 
L 86.280027 33.307173 
L 86.338582 33.568862 
L 86.426414 33.510567 
L 86.455691 33.90761 
L 86.484969 33.57458 
L 86.572801 33.678113 
L 86.602078 33.913397 
L 86.631355 33.61824 
L 86.660633 33.903385 
L 86.777742 33.647403 
L 86.807019 33.842061 
L 86.836297 33.630946 
L 86.894852 33.684655 
L 87.187625 33.524469 
L 87.216902 33.613941 
L 87.24618 33.493371 
L 87.275457 33.580792 
L 87.392566 33.45681 
L 87.421844 33.509095 
L 87.451121 33.418709 
L 87.480398 33.474995 
L 87.626785 33.366382 
L 87.831727 33.235141 
L 87.919559 33.242575 
L 87.948836 33.206286 
L 88.1245 33.174349 
L 88.505106 33.045335 
L 88.56366 32.987247 
L 88.592938 33.22633 
L 88.651492 33.38784 
L 88.68077 32.665429 
L 88.827156 34.044606 
L 88.885711 33.914221 
L 89.002821 35.052496 
L 89.032098 34.568771 
L 89.061375 35.153244 
L 89.090653 34.887862 
L 89.207762 35.279128 
L 89.178485 34.858167 
L 89.295594 35.242467 
L 89.324871 35.01847 
L 89.354149 35.3493 
L 89.383426 35.056008 
L 89.500535 35.342923 
L 89.529813 35.062662 
L 89.617645 35.133041 
L 89.646922 35.255858 
L 89.6762 35.033296 
L 89.705477 35.224814 
L 89.822586 35.007443 
L 89.851864 35.116865 
L 89.881141 34.975336 
L 89.910418 35.061046 
L 90.086082 34.890721 
L 90.11536 34.957683 
L 90.203192 34.899489 
L 90.349579 34.778414 
L 90.525243 34.718483 
L 90.671629 34.616905 
L 91.286454 34.418617 
L 91.345008 34.380601 
L 91.374286 34.534516 
L 91.43284 34.591833 
L 91.462118 34.205541 
L 91.520672 34.04562 
L 91.54995 34.98666 
L 91.579227 34.153485 
L 91.608504 35.173145 
L 91.637782 34.759693 
L 91.754891 35.725007 
L 91.813446 35.668928 
L 91.842723 35.70762 
L 91.901278 35.920633 
L 91.930555 35.513206 
L 91.959833 35.92871 
L 92.047665 35.91779 
L 92.076942 35.682766 
L 92.106219 36.018692 
L 92.135497 35.697162 
L 92.164774 35.991017 
L 92.252606 35.978104 
L 92.340438 35.762482 
L 92.311161 36.012448 
L 92.369715 35.936686 
L 92.486825 35.748293 
L 92.516102 35.896868 
L 92.54538 35.733111 
L 92.574657 35.849637 
L 92.691766 35.714177 
L 92.750321 35.667052 
L 92.779598 35.779619 
L 92.896708 35.671272 
L 92.98454 35.679248 
L 93.130926 35.54821 
L 93.248036 35.523186 
L 93.452977 35.397865 
L 93.511532 35.3713 
L 93.540809 35.457175 
L 93.628641 35.305082 
L 93.687196 35.250512 
L 93.716473 35.540823 
L 93.775028 35.682862 
L 93.804305 35.041379 
L 93.892138 35.95875 
L 93.921415 35.657195 
L 94.038524 36.358753 
L 94.067802 35.887765 
L 94.097079 36.368462 
L 94.155634 36.264902 
L 94.214188 36.148195 
L 94.243466 36.538441 
L 94.272743 36.162734 
L 94.30202 36.54425 
L 94.360575 36.455144 
L 94.389852 36.486109 
L 94.448407 36.591874 
L 94.477684 36.302004 
L 94.506962 36.599005 
L 94.594794 36.464374 
L 94.653349 36.526782 
L 94.682626 36.355097 
L 94.711903 36.533744 
L 94.741181 36.341865 
L 94.770458 36.498241 
L 94.887567 36.367957 
L 94.946122 36.311639 
L 94.975399 36.430115 
L 95.063231 36.279494 
L 95.092509 36.363791 
L 95.209618 36.269392 
L 95.238896 36.29719 
L 95.385282 36.16622 
L 95.41456 36.250618 
L 95.443837 36.141414 
L 95.473114 36.229011 
L 95.619501 36.067719 
L 95.678056 36.030149 
L 95.707333 36.208509 
L 95.765888 36.255815 
L 95.795165 35.888791 
L 95.85372 35.78818 
L 95.882997 36.532362 
L 95.912274 35.893786 
L 95.941552 36.617647 
L 95.970829 36.288714 
L 96.087939 36.924011 
L 96.117216 36.505064 
L 96.146493 36.992041 
L 96.175771 36.680273 
L 96.29288 37.035755 
L 96.322157 36.771897 
L 96.351435 37.102525 
L 96.380712 36.790608 
L 96.409989 37.092275 
L 96.497821 37.003631 
L 96.556376 37.076104 
L 96.585653 36.878502 
L 96.614931 37.084394 
L 96.673486 37.047839 
L 96.702763 36.904806 
L 96.790595 36.929639 
L 96.84915 36.871774 
L 96.878427 36.974457 
L 97.024814 36.804127 
L 97.054091 36.912905 
L 97.112646 36.874931 
L 97.259032 36.805413 
L 97.405419 36.697639 
L 97.463974 36.663268 
L 97.493251 36.77846 
L 97.551806 36.79166 
L 97.581083 36.561988 
L 97.639638 36.464603 
L 97.668915 36.967108 
L 97.698193 36.361203 
L 97.72747 37.125067 
L 97.756747 36.495754 
L 97.873857 37.312716 
L 97.903134 37.054768 
L 97.932411 37.54148 
L 97.961689 37.099608 
L 97.990966 37.581 
L 98.078798 37.555195 
L 98.137353 37.687563 
L 98.16663 37.361441 
L 98.195908 37.731228 
L 98.28374 37.58564 
L 98.313017 37.585958 
L 98.371572 37.505722 
L 98.400849 37.750948 
L 98.430126 37.495832 
L 98.517958 37.649036 
L 98.635068 37.514575 
L 98.664345 37.649711 
L 98.693622 37.482505 
L 98.7229 37.632552 
L 98.752177 37.474417 
L 98.840009 37.552852 
L 99.015673 37.417254 
L 99.074228 37.392868 
L 99.103505 37.48133 
L 99.249892 37.327543 
L 99.308447 37.305914 
L 99.337724 37.410154 
L 99.425556 37.241381 
L 99.484111 37.184802 
L 99.513388 37.467817 
L 99.571943 37.584784 
L 99.60122 37.008063 
L 99.689052 37.787689 
L 99.71833 37.516828 
L 99.835439 38.08096 
L 99.864716 37.676807 
L 99.893994 38.140126 
L 99.923271 37.838752 
L 100.04038 38.174471 
L 100.069658 37.929165 
L 100.098935 38.239424 
L 100.128213 37.941871 
L 100.15749 38.23022 
L 100.245322 38.133659 
L 100.303877 38.200372 
L 100.333154 38.018552 
L 100.362431 38.209405 
L 100.391709 38.004789 
L 100.420986 38.179227 
L 100.450263 38.024536 
L 100.538095 38.076762 
L 100.625927 38.090238 
L 100.772314 37.923569 
L 100.801591 38.055304 
L 100.860146 38.02994 
L 101.006533 37.889442 
L 101.094365 37.92612 
L 101.240752 37.824712 
L 101.328584 37.866858 
L 101.416416 37.716976 
L 101.47497 37.635389 
L 101.504248 38.000771 
L 101.562803 38.187421 
L 101.59208 37.459724 
L 101.709189 38.44935 
L 101.738467 38.353293 
L 101.826299 38.912839 
L 101.855576 38.745405 
L 101.972685 39.076745 
L 102.001963 38.76673 
L 102.089795 38.910427 
L 102.148349 38.827926 
L 102.177627 39.098001 
L 102.206904 38.856542 
L 102.294736 38.936938 
L 102.353291 38.844251 
L 102.382568 39.049404 
L 102.411846 38.834904 
L 102.499678 38.912797 
L 102.58751 38.938687 
L 102.675342 38.787518 
L 102.704619 38.883081 
L 102.821728 38.781763 
L 102.90956 38.802323 
L 103.055947 38.659169 
L 103.085225 38.718441 
L 103.143779 38.68626 
L 103.290166 38.596383 
L 103.553662 38.525776 
L 104.139209 38.304473 
L 104.197764 38.136561 
L 104.227041 38.799294 
L 104.256318 37.900597 
L 104.285596 39.234752 
L 104.314873 38.43886 
L 104.431983 40.046374 
L 104.46126 39.820395 
L 104.490537 39.86685 
L 104.519815 40.439256 
L 104.607647 40.434721 
L 104.636924 40.171041 
L 104.666201 40.578375 
L 104.695479 40.307261 
L 104.754033 40.585934 
L 104.841865 40.441244 
L 105.046807 40.498571 
L 105.105362 40.542888 
L 105.134639 40.376086 
L 105.251748 40.509779 
L 105.281026 40.330839 
L 105.368858 40.349053 
L 105.398135 40.401365 
L 105.427412 40.266832 
L 105.45669 40.358903 
L 105.573799 40.199843 
L 105.603076 40.2256 
L 105.778741 40.06983 
L 105.925127 40.014224 
L 106.100791 39.89383 
L 106.247178 39.881267 
L 106.393565 39.819965 
L 106.539952 39.81455 
L 106.686338 39.739787 
L 106.77417 39.776778 
L 106.862002 39.612319 
L 106.920557 39.509843 
L 106.949834 39.953958 
L 106.979112 39.374352 
L 107.008389 40.146607 
L 107.037666 39.477088 
L 107.154776 40.500091 
L 107.184053 40.140342 
L 107.213331 40.714366 
L 107.242608 40.376766 
L 107.359717 40.861812 
L 107.388995 40.508556 
L 107.476827 40.683874 
L 107.535381 40.60088 
L 107.564659 40.883838 
L 107.593936 40.66002 
L 107.681768 40.684759 
L 107.711045 40.852456 
L 107.711045 40.852456 
" clip-path="url(#p5e31bafe50)" style="fill: none; stroke: #000000; stroke-width: 1.5; stroke-linecap: square"/>
   </g>
   <g id="line2d_7">
    <path d="M 30.88875 70.25528 
L 111.36925 70.25528 
" clip-path="url(#p5e31bafe50)" style="fill: none; stroke-dasharray: 5.55,2.4; stroke-dashoffset: 0; stroke: #000000; stroke-width: 1.5"/>
   </g>
   <g id="patch_3">
    <path d="M 30.88875 72.48625 
L 30.88875 15.92625 
" style="fill: none; stroke: #000000; stroke-width: 1.5; stroke-linejoin: miter; stroke-linecap: square"/>
   </g>
   <g id="patch_4">
    <path d="M 30.88875 72.48625 
L 111.36925 72.48625 
" style="fill: none; stroke: #000000; stroke-width: 1.5; stroke-linejoin: miter; stroke-linecap: square"/>
   </g>
   <g id="legend_1">
    <g id="line2d_8">
     <path d="M 46.63925 60.89625 
L 54.63925 60.89625 
L 62.63925 60.89625 
" style="fill: none; stroke-dasharray: 5.55,2.4; stroke-dashoffset: 0; stroke: #000000; stroke-width: 1.5"/>
    </g>
    <g id="text_9">
     <text style="font: 8px 'Arial', sans-serif, serif; text-anchor: start" x="69.03925" y="63.69625" transform="rotate(-0 69.03925 63.69625)">true value</text>
    </g>
   </g>
  </g>
  <g id="axes_2">
   <g id="patch_5">
    <path d="M 163.00875 72.48625 
L 243.48925 72.48625 
L 243.48925 15.92625 
L 163.00875 15.92625 
z
" style="fill: #ffffff"/>
   </g>
   <g id="matplotlib.axis_3">
    <g id="xtick_4">
     <g id="line2d_9">
      <g>
       <use xlink:href="#m50072c1a86" x="166.666955" y="72.48625" style="stroke: #000000; stroke-width: 1.5"/>
      </g>
     </g>
     <g id="text_10">
      <text style="font: 8px 'Arial', sans-serif, serif; text-anchor: middle" x="166.666955" y="85.2125" transform="rotate(-0 166.666955 85.2125)">0</text>
     </g>
    </g>
    <g id="xtick_5">
     <g id="line2d_10">
      <g>
       <use xlink:href="#m50072c1a86" x="195.944302" y="72.48625" style="stroke: #000000; stroke-width: 1.5"/>
      </g>
     </g>
     <g id="text_11">
      <text style="font: 8px 'Arial', sans-serif, serif; text-anchor: middle" x="195.944302" y="85.2125" transform="rotate(-0 195.944302 85.2125)">1000</text>
     </g>
    </g>
    <g id="xtick_6">
     <g id="line2d_11">
      <g>
       <use xlink:href="#m50072c1a86" x="225.221649" y="72.48625" style="stroke: #000000; stroke-width: 1.5"/>
      </g>
     </g>
     <g id="text_12">
      <text style="font: 8px 'Arial', sans-serif, serif; text-anchor: middle" x="225.221649" y="85.2125" transform="rotate(-0 225.221649 85.2125)">2000</text>
     </g>
    </g>
    <g id="text_13">
     <text style="font: 8px 'Arial', sans-serif, serif; text-anchor: middle" x="203.249" y="96.52875" transform="rotate(-0 203.249 96.52875)">iteration</text>
    </g>
   </g>
   <g id="matplotlib.axis_4">
    <g id="ytick_3">
     <g id="line2d_12">
      <g>
       <use xlink:href="#m3a997afcde" x="163.00875" y="57.636402" style="stroke: #000000; stroke-width: 1.5"/>
      </g>
     </g>
     <g id="text_14">
      <text style="font: 8px 'Arial', sans-serif, serif; text-anchor: end" x="156.00875" y="60.499527" transform="rotate(-0 156.00875 60.499527)">0.05</text>
     </g>
    </g>
    <g id="ytick_4">
     <g id="line2d_13">
      <g>
       <use xlink:href="#m3a997afcde" x="163.00875" y="24.277093" style="stroke: #000000; stroke-width: 1.5"/>
      </g>
     </g>
     <g id="text_15">
      <text style="font: 8px 'Arial', sans-serif, serif; text-anchor: end" x="156.00875" y="27.140218" transform="rotate(-0 156.00875 27.140218)">0.10</text>
     </g>
    </g>
    <g id="text_16">
     <!-- $g_{Na}$ (S/cm²) -->
     <g transform="translate(133.96 64.52625) rotate(-90)">
      <text>
       <tspan style="font: 8px 'Arial'" x="0 12.14545 14.368106 17.032169 22.368106 24.590763 28.590763 35.254825 37.918887" y="-0.171875">g (S/cm²)</tspan>
       <tspan style="font: 5.6px 'Arial'" x="4.588606 8.632747" y="2.217625">Na</tspan>
      </text>
     </g>
    </g>
   </g>
   <g id="line2d_14">
    <path d="M 166.666955 32.323333 
L 166.784064 47.344801 
L 166.813341 45.948205 
L 166.901173 41.218504 
L 166.959728 42.698274 
L 166.989005 42.712178 
L 167.076837 42.084857 
L 167.04756 42.964969 
L 167.106115 42.360947 
L 167.193947 43.708938 
L 167.369611 46.292755 
L 167.633107 55.081148 
L 168.013713 62.674036 
L 168.48215 67.401569 
L 168.950588 69.338351 
L 169.272638 69.860648 
L 169.506857 69.910733 
L 169.770353 69.716032 
L 170.121682 69.100204 
L 170.736506 67.4284 
L 172.727365 61.659602 
L 174.22051 58.249866 
L 175.625823 54.969347 
L 176.299202 52.76724 
L 179.08055 41.834143 
L 179.636819 39.953369 
L 181.276351 35.674278 
L 183.208656 31.475751 
L 185.69723 26.369389 
L 185.755785 26.162822 
L 185.785062 26.614455 
L 185.81434 25.93483 
L 185.843617 26.622384 
L 185.902172 26.381856 
L 185.960726 26.135422 
L 186.077836 26.567942 
L 186.107113 26.479574 
L 186.224223 26.89227 
L 186.2535 26.775329 
L 186.282777 27.032584 
L 186.312055 26.815738 
L 186.429164 27.007158 
L 186.546273 26.784709 
L 186.575551 26.878262 
L 186.604828 26.703643 
L 186.634105 26.807869 
L 186.809769 26.487577 
L 186.868324 26.439255 
L 187.102543 25.98796 
L 187.13182 25.99813 
L 187.366039 25.487924 
L 187.453871 25.332727 
L 187.834477 24.568815 
L 188.361469 23.546301 
L 188.390746 23.613175 
L 188.420024 23.406981 
L 188.449301 23.577603 
L 188.507856 23.619418 
L 188.537133 23.035305 
L 188.56641 23.693426 
L 188.595688 22.94977 
L 188.654242 23.191278 
L 188.859184 23.814438 
L 188.888461 23.642707 
L 188.917738 24.059301 
L 188.947016 23.764246 
L 189.064125 24.154822 
L 189.093403 23.891502 
L 189.181235 24.015238 
L 189.239789 23.895832 
L 189.269067 24.111416 
L 189.386176 23.901727 
L 189.415453 24.036325 
L 189.444731 23.857988 
L 189.474008 23.977926 
L 189.649672 23.712926 
L 189.67895 23.754667 
L 189.708227 23.689479 
L 191.172094 21.391743 
L 191.230649 21.263091 
L 191.259926 21.576751 
L 191.318481 21.699712 
L 191.347758 20.930099 
L 191.377036 21.733991 
L 191.464868 21.402416 
L 191.494145 21.334772 
L 191.640532 21.869191 
L 191.699086 21.835871 
L 191.786919 22.17713 
L 191.904028 21.942994 
L 191.933305 22.198201 
L 192.021137 22.074455 
L 192.079692 22.161377 
L 192.108969 21.976076 
L 192.138247 22.162749 
L 192.226079 22.095775 
L 192.372465 21.963101 
L 192.489575 21.945639 
L 192.635962 21.77874 
L 193.192231 21.03421 
L 193.777778 20.301779 
L 193.807055 20.387194 
L 193.894888 20.105979 
L 193.953442 19.953998 
L 193.98272 20.527414 
L 194.011997 19.769075 
L 194.041274 20.636431 
L 194.070552 19.786085 
L 194.187661 20.607133 
L 194.216938 20.18864 
L 194.246216 20.81779 
L 194.275493 20.543212 
L 194.392602 21.182631 
L 194.451157 21.172327 
L 194.538989 21.211135 
L 194.568267 20.932907 
L 194.597544 21.239424 
L 194.685376 21.172202 
L 194.714653 21.023572 
L 194.743931 21.277596 
L 194.773208 21.045046 
L 194.890317 21.297385 
L 194.919595 21.14523 
L 195.007427 21.239563 
L 195.241646 21.16657 
L 195.475864 20.869409 
L 195.505142 20.896828 
L 195.534419 20.78958 
L 195.563696 20.805274 
L 195.797915 20.513923 
L 195.915025 20.425331 
L 196.29563 20.030421 
L 196.676236 19.625991 
L 196.764068 19.607321 
L 196.910454 19.343449 
L 196.969009 19.213738 
L 196.998286 19.706327 
L 197.056841 19.912322 
L 197.086118 18.912385 
L 197.115396 19.935292 
L 197.203228 19.803071 
L 197.232505 19.407062 
L 197.261782 20.192647 
L 197.29106 19.824754 
L 197.408169 20.69314 
L 197.466724 20.638261 
L 197.496001 20.708694 
L 197.554556 20.805801 
L 197.583833 20.471009 
L 197.700943 20.805274 
L 197.73022 20.513122 
L 197.759497 20.818253 
L 197.818052 20.707774 
L 197.905884 20.958696 
L 197.935161 20.886687 
L 197.964439 20.881687 
L 198.052271 21.027941 
L 198.081548 20.977705 
L 198.345044 21.012641 
L 198.520708 20.70337 
L 198.549986 20.741661 
L 198.579263 20.637853 
L 198.696372 20.562578 
L 198.872037 20.384714 
L 198.989146 20.284201 
L 199.223365 20.075577 
L 200.013853 19.336987 
L 200.277349 19.188326 
L 200.423736 18.995141 
L 200.482291 18.896399 
L 200.511568 19.269164 
L 200.570123 19.524376 
L 200.5994 18.497159 
L 200.628677 19.762458 
L 200.716509 19.318028 
L 200.745787 19.026408 
L 200.862896 20.219599 
L 200.892174 19.826494 
L 200.921451 20.492627 
L 200.950728 20.34177 
L 200.980006 20.379494 
L 201.009283 20.691678 
L 201.03856 20.326146 
L 201.097115 20.507669 
L 201.126392 20.478217 
L 201.214224 20.728065 
L 201.184947 20.378008 
L 201.243502 20.590972 
L 201.272779 20.613028 
L 201.360611 20.946244 
L 201.389888 20.868981 
L 201.419166 20.852214 
L 201.536275 21.095993 
L 201.565553 21.020167 
L 201.59483 21.209315 
L 201.624107 21.100074 
L 201.741217 21.314769 
L 201.770494 21.261808 
L 201.887603 21.268614 
L 202.121822 20.867356 
L 202.736646 20.354008 
L 203.02942 20.027836 
L 203.527135 19.589858 
L 204.083404 19.224216 
L 204.171236 19.227184 
L 204.259068 19.069586 
L 204.317623 18.978688 
L 204.346901 19.324624 
L 204.405455 19.585657 
L 204.434733 18.57227 
L 204.46401 19.881939 
L 204.551842 19.334864 
L 204.581119 19.111093 
L 204.698229 20.316696 
L 204.727506 19.876889 
L 204.756783 20.607292 
L 204.786061 20.423969 
L 204.815338 20.427642 
L 204.844615 20.797807 
L 204.873893 20.362046 
L 204.932447 20.607406 
L 204.991002 20.787433 
L 205.02028 20.475716 
L 205.137389 20.99138 
L 205.166666 20.748928 
L 205.195944 21.046264 
L 205.254498 20.933936 
L 205.371608 21.206949 
L 205.400885 21.089079 
L 205.430162 21.330715 
L 205.45944 21.219362 
L 205.576549 21.512641 
L 205.635104 21.494761 
L 205.722936 21.492245 
L 205.8986 21.170418 
L 205.927877 21.198335 
L 206.132819 20.983238 
L 206.220651 20.932211 
L 206.425592 20.725296 
L 206.806198 20.31946 
L 206.981862 20.164641 
L 207.508854 19.729993 
L 207.830905 19.566748 
L 207.977292 19.410467 
L 208.035846 19.338284 
L 208.065124 19.57749 
L 208.123678 19.740367 
L 208.152956 19.005004 
L 208.21151 18.858168 
L 208.240788 20.209329 
L 208.270065 19.178066 
L 208.357897 19.531047 
L 208.475006 21.015807 
L 208.504284 20.488203 
L 208.592116 20.761008 
L 208.621393 21.148158 
L 208.709225 20.9419 
L 208.76778 21.051056 
L 208.797057 20.747621 
L 208.914167 21.143729 
L 208.943444 20.857757 
L 209.031276 20.976691 
L 209.148385 21.268082 
L 209.177663 21.203425 
L 209.294772 21.542288 
L 209.32405 21.515475 
L 209.353327 21.622434 
L 209.441159 21.557022 
L 209.851042 21.177064 
L 210.026706 20.952537 
L 210.173093 20.84445 
L 210.992858 20.073171 
L 211.1978 19.960117 
L 211.344187 19.829889 
L 211.402741 19.780965 
L 211.432019 19.888948 
L 211.490573 19.919684 
L 211.519851 19.619266 
L 211.578405 19.437017 
L 211.607683 20.317929 
L 211.63696 19.240849 
L 211.666237 20.571402 
L 211.695515 19.345507 
L 211.812624 20.79557 
L 211.841901 20.1999 
L 211.900456 20.994457 
L 211.929733 20.568772 
L 211.959011 21.265522 
L 212.046843 21.221971 
L 212.07612 20.756539 
L 212.105398 21.237163 
L 212.163952 21.022086 
L 212.222507 20.8615 
L 212.339616 21.394607 
L 212.368894 21.115847 
L 212.398171 21.545042 
L 212.427448 21.263498 
L 212.63239 21.81892 
L 212.661667 21.673515 
L 212.690945 21.966183 
L 212.720222 21.841776 
L 212.837331 22.045892 
L 212.954441 21.824512 
L 212.983718 21.872377 
L 213.012995 21.720988 
L 213.042273 21.813452 
L 213.159382 21.618333 
L 213.188659 21.713427 
L 213.217937 21.593414 
L 213.247214 21.62405 
L 214.06698 20.821459 
L 214.301199 20.566734 
L 214.564695 20.39306 
L 214.769636 20.212148 
L 214.828191 20.159665 
L 214.857468 20.281463 
L 214.916023 20.313873 
L 214.9453 19.99131 
L 215.003855 19.808464 
L 215.033132 20.710886 
L 215.06241 19.6485 
L 215.091687 20.918989 
L 215.120964 19.790564 
L 215.238074 21.188239 
L 215.267351 20.581169 
L 215.325906 21.279331 
L 215.355183 20.947129 
L 215.38446 21.563543 
L 215.472292 21.337655 
L 215.530847 21.438122 
L 215.560125 21.007133 
L 215.677234 21.465283 
L 215.706511 21.145787 
L 215.735789 21.517438 
L 215.794343 21.403027 
L 215.882175 21.643993 
L 215.852898 21.317612 
L 215.911453 21.467505 
L 216.116394 21.961744 
L 216.174949 22.060248 
L 216.204226 21.944053 
L 216.233504 22.051425 
L 216.321336 21.954099 
L 216.467722 21.794259 
L 216.731218 21.620908 
L 216.906883 21.427663 
L 217.81448 20.525848 
L 217.873035 20.453939 
L 217.902312 20.68114 
L 217.960867 20.79821 
L 217.990144 20.171178 
L 218.048699 20.025525 
L 218.077976 21.229994 
L 218.107254 20.178773 
L 218.195086 20.719272 
L 218.282918 21.494368 
L 218.312195 21.451906 
L 218.341473 21.30862 
L 218.37075 21.734837 
L 218.400027 21.235791 
L 218.429305 21.654223 
L 218.546414 21.220565 
L 218.575691 21.624035 
L 218.663523 21.517846 
L 218.692801 21.439693 
L 218.780633 21.748372 
L 218.751355 21.418243 
L 218.80991 21.561948 
L 218.985574 21.904131 
L 219.014852 21.890347 
L 219.190516 22.083731 
L 219.24907 22.003152 
L 219.336902 21.982896 
L 219.424734 21.854104 
L 219.454012 21.872919 
L 219.541844 21.860238 
L 219.688231 21.674405 
L 220.098113 21.276632 
L 220.390887 20.98628 
L 220.537274 20.891748 
L 220.68366 20.645081 
L 220.742215 20.508435 
L 220.771492 21.076562 
L 220.830047 21.356405 
L 220.859324 20.142053 
L 220.888602 21.450768 
L 220.976434 21.310717 
L 221.005711 20.778182 
L 221.034988 21.759303 
L 221.064266 21.338385 
L 221.181375 21.965637 
L 221.210653 21.638247 
L 221.23993 21.658776 
L 221.298485 21.443963 
L 221.327762 21.865189 
L 221.357039 21.557593 
L 221.444871 21.584232 
L 221.474149 21.946414 
L 221.561981 21.823995 
L 221.620535 21.968137 
L 221.649813 21.67449 
L 221.766922 22.154079 
L 221.7962 21.985908 
L 221.825477 22.297829 
L 221.854754 22.20354 
L 221.971864 22.484258 
L 222.001141 22.350242 
L 222.030418 22.454925 
L 222.11825 22.405002 
L 222.264637 22.32072 
L 222.381746 22.304534 
L 222.557411 22.023274 
L 222.645243 21.985744 
L 222.820907 21.771751 
L 223.201512 21.42475 
L 223.347899 21.220873 
L 223.406454 21.157121 
L 223.435731 21.25733 
L 223.523563 20.999309 
L 223.582118 20.86144 
L 223.611395 21.494671 
L 223.66995 21.71037 
L 223.699227 20.649077 
L 223.728504 21.70009 
L 223.816336 21.687533 
L 223.845614 21.240319 
L 223.874891 22.052941 
L 223.904169 21.538957 
L 224.021278 22.100443 
L 224.050555 21.596963 
L 224.138387 21.819362 
L 224.167665 21.907889 
L 224.196942 21.634513 
L 224.226219 22.021057 
L 224.255497 21.656137 
L 224.372606 22.042994 
L 224.401883 21.790889 
L 224.431161 22.117404 
L 224.460438 21.856858 
L 224.577548 22.239455 
L 224.606825 22.113333 
L 224.636102 22.346414 
L 224.66538 22.215898 
L 224.694657 22.396094 
L 224.782489 22.374177 
L 224.928876 22.227087 
L 224.958153 22.325417 
L 225.045985 22.28559 
L 225.192372 22.139355 
L 225.221649 22.182612 
L 225.250926 22.09064 
L 225.280204 22.107035 
L 225.514423 21.81283 
L 225.5437 21.862216 
L 225.572977 21.748636 
L 225.602255 21.808426 
L 225.748641 21.527395 
L 225.807196 21.437809 
L 225.836473 21.779575 
L 225.895028 21.932714 
L 225.924305 21.132137 
L 225.953583 22.083776 
L 226.041415 21.58463 
L 226.158524 22.342458 
L 226.187802 21.776786 
L 226.275634 22.066725 
L 226.304911 22.188687 
L 226.363466 22.253538 
L 226.392743 21.776826 
L 226.42202 22.206518 
L 226.509852 22.07615 
L 226.568407 22.210072 
L 226.597684 21.87355 
L 226.626962 22.248552 
L 226.714794 22.108745 
L 226.744071 22.06857 
L 226.890458 22.366835 
L 226.919735 22.234211 
L 227.007567 22.308829 
L 227.066122 22.262038 
L 227.095399 22.408621 
L 227.183231 22.225099 
L 227.212509 22.339122 
L 227.329618 22.262585 
L 227.388173 22.211051 
L 227.41745 22.274758 
L 227.563837 22.038147 
L 227.593114 22.133803 
L 227.622392 21.986147 
L 227.651669 22.089065 
L 227.798056 21.804509 
L 227.85661 21.715077 
L 227.885888 22.054765 
L 227.944442 22.18395 
L 227.97372 21.432261 
L 228.002997 22.318841 
L 228.090829 21.805399 
L 228.207939 22.478914 
L 228.237216 21.961555 
L 228.266493 22.512786 
L 228.325048 22.343775 
L 228.442157 21.960497 
L 228.471435 22.351942 
L 228.500712 21.950923 
L 228.559267 22.038321 
L 228.676376 22.283497 
L 228.705653 22.045365 
L 228.734931 22.311195 
L 228.764208 22.063136 
L 228.793486 22.291724 
L 228.881318 22.253955 
L 229.056982 22.428136 
L 229.086259 22.240777 
L 229.174091 22.396248 
L 229.203368 22.27108 
L 229.2912 22.34121 
L 229.642529 21.973317 
L 229.701083 21.87524 
L 229.730361 22.221589 
L 229.788915 22.363659 
L 229.818193 21.564001 
L 229.84747 22.486808 
L 229.935302 21.983239 
L 230.052411 22.674456 
L 230.081689 22.109962 
L 230.169521 22.436592 
L 230.198798 22.425447 
L 230.257353 22.500657 
L 230.28663 22.067068 
L 230.315908 22.506672 
L 230.40374 22.250605 
L 230.433017 22.243228 
L 230.491572 22.146653 
L 230.520849 22.47204 
L 230.550126 22.156247 
L 230.637958 22.392316 
L 230.696513 22.368013 
L 230.8429 22.615083 
L 230.872177 22.431954 
L 230.960009 22.577373 
L 231.077119 22.474495 
L 231.164951 22.582414 
L 231.311337 22.384114 
L 231.340615 22.500468 
L 231.369892 22.340176 
L 231.399169 22.4558 
L 231.545556 22.164354 
L 231.604111 22.070946 
L 231.633388 22.429613 
L 231.691943 22.560378 
L 231.72122 21.780027 
L 231.750498 22.668525 
L 231.83833 22.175579 
L 231.955439 22.788787 
L 231.984716 22.255451 
L 232.013994 22.792416 
L 232.072548 22.601756 
L 232.189658 22.226471 
L 232.218935 22.614556 
L 232.248213 22.215679 
L 232.27749 22.576643 
L 232.306767 22.296104 
L 232.394599 22.359562 
L 232.453154 22.29932 
L 232.482431 22.559632 
L 232.511709 22.31032 
L 232.570263 22.391153 
L 232.687373 22.596024 
L 232.745927 22.646932 
L 232.775205 22.506766 
L 232.833759 22.485426 
L 232.863037 22.673461 
L 232.892314 22.479123 
L 232.950869 22.491416 
L 233.038701 22.66428 
L 233.067978 22.539157 
L 233.097256 22.652976 
L 233.15581 22.62072 
L 233.302197 22.425328 
L 233.360752 22.3599 
L 233.390029 22.404584 
L 233.536416 22.100493 
L 233.59497 21.960352 
L 233.624248 22.435667 
L 233.682803 22.639808 
L 233.71208 21.597813 
L 233.741357 22.715963 
L 233.829189 22.379024 
L 233.858467 22.198733 
L 233.887744 22.828718 
L 233.975576 22.570036 
L 234.004853 22.57277 
L 234.063408 22.330428 
L 234.092685 22.760254 
L 234.121963 22.32156 
L 234.209795 22.435379 
L 234.268349 22.330507 
L 234.297627 22.692709 
L 234.326904 22.383905 
L 234.414736 22.50793 
L 234.473291 22.415769 
L 234.502568 22.740037 
L 234.531846 22.509824 
L 234.561123 22.794901 
L 234.5904 22.709933 
L 234.766064 23.036056 
L 234.795342 22.876688 
L 234.883174 22.9721 
L 235.000283 22.917081 
L 235.058838 22.892018 
L 235.088115 23.019552 
L 235.234502 22.800901 
L 235.263779 22.840624 
L 235.293057 22.748706 
L 235.322334 22.775132 
L 235.527275 22.521724 
L 236.200654 21.841453 
L 236.259209 21.724174 
L 236.288486 22.073506 
L 236.347041 22.403789 
L 236.376318 21.09481 
L 236.405596 22.727321 
L 236.493428 22.348303 
L 236.522705 21.623344 
L 236.551983 22.754955 
L 236.58126 22.390606 
L 236.610537 22.357847 
L 236.639815 23.056665 
L 236.669092 22.302561 
L 236.727647 22.734221 
L 236.756924 22.283587 
L 236.786201 22.807115 
L 236.844756 22.519567 
L 236.932588 22.857401 
L 236.903311 22.466278 
L 236.961865 22.752569 
L 236.991143 22.75741 
L 237.02042 22.890532 
L 237.049697 22.662968 
L 237.078975 22.838108 
L 237.196084 22.630731 
L 237.371748 23.194648 
L 237.401026 22.997382 
L 237.430303 23.252306 
L 237.45958 23.163336 
L 237.57669 23.409362 
L 237.605967 23.356869 
L 237.781631 23.683295 
L 238.01585 23.376743 
L 238.045127 23.421372 
L 238.103682 23.30877 
L 238.982002 22.248239 
L 239.040557 22.100707 
L 239.069834 22.741697 
L 239.128389 22.942717 
L 239.157666 21.877795 
L 239.274776 22.910087 
L 239.304053 22.384556 
L 239.333331 23.172676 
L 239.362608 22.673292 
L 239.45044 22.64721 
L 239.479717 23.139983 
L 239.508995 22.607721 
L 239.596827 22.767621 
L 239.655381 22.658941 
L 239.684659 23.06264 
L 239.713936 22.758772 
L 239.801768 22.817931 
L 239.831045 23.063192 
L 239.831045 23.063192 
" clip-path="url(#p4559b37041)" style="fill: none; stroke: #000000; stroke-width: 1.5; stroke-linecap: square"/>
   </g>
   <g id="line2d_15">
    <path d="M 163.00875 24.277093 
L 243.48925 24.277093 
" clip-path="url(#p4559b37041)" style="fill: none; stroke-dasharray: 5.55,2.4; stroke-dashoffset: 0; stroke: #000000; stroke-width: 1.5"/>
   </g>
   <g id="patch_6">
    <path d="M 163.00875 72.48625 
L 163.00875 15.92625 
" style="fill: none; stroke: #000000; stroke-width: 1.5; stroke-linejoin: miter; stroke-linecap: square"/>
   </g>
   <g id="patch_7">
    <path d="M 163.00875 72.48625 
L 243.48925 72.48625 
" style="fill: none; stroke: #000000; stroke-width: 1.5; stroke-linejoin: miter; stroke-linecap: square"/>
   </g>
   <g id="legend_2">
    <g id="line2d_16">
     <path d="M 178.75925 60.89625 
L 186.75925 60.89625 
L 194.75925 60.89625 
" style="fill: none; stroke-dasharray: 5.55,2.4; stroke-dashoffset: 0; stroke: #000000; stroke-width: 1.5"/>
    </g>
    <g id="text_17">
     <text style="font: 8px 'Arial', sans-serif, serif; text-anchor: start" x="201.15925" y="63.69625" transform="rotate(-0 201.15925 63.69625)">true value</text>
    </g>
   </g>
  </g>
  <g id="axes_3">
   <g id="patch_8">
    <path d="M 295.12875 72.48625 
L 375.60925 72.48625 
L 375.60925 15.92625 
L 295.12875 15.92625 
z
" style="fill: #ffffff"/>
   </g>
   <g id="matplotlib.axis_5">
    <g id="xtick_7">
     <g id="line2d_17">
      <g>
       <use xlink:href="#m50072c1a86" x="298.786955" y="72.48625" style="stroke: #000000; stroke-width: 1.5"/>
      </g>
     </g>
     <g id="text_18">
      <text style="font: 8px 'Arial', sans-serif, serif; text-anchor: middle" x="298.786955" y="85.2125" transform="rotate(-0 298.786955 85.2125)">0</text>
     </g>
    </g>
    <g id="xtick_8">
     <g id="line2d_18">
      <g>
       <use xlink:href="#m50072c1a86" x="328.064302" y="72.48625" style="stroke: #000000; stroke-width: 1.5"/>
      </g>
     </g>
     <g id="text_19">
      <text style="font: 8px 'Arial', sans-serif, serif; text-anchor: middle" x="328.064302" y="85.2125" transform="rotate(-0 328.064302 85.2125)">1000</text>
     </g>
    </g>
    <g id="xtick_9">
     <g id="line2d_19">
      <g>
       <use xlink:href="#m50072c1a86" x="357.341649" y="72.48625" style="stroke: #000000; stroke-width: 1.5"/>
      </g>
     </g>
     <g id="text_20">
      <text style="font: 8px 'Arial', sans-serif, serif; text-anchor: middle" x="357.341649" y="85.2125" transform="rotate(-0 357.341649 85.2125)">2000</text>
     </g>
    </g>
    <g id="text_21">
     <text style="font: 8px 'Arial', sans-serif, serif; text-anchor: middle" x="335.369" y="96.52875" transform="rotate(-0 335.369 96.52875)">iteration</text>
    </g>
   </g>
   <g id="matplotlib.axis_6">
    <g id="ytick_5">
     <g id="line2d_20">
      <g>
       <use xlink:href="#m3a997afcde" x="295.12875" y="60.433927" style="stroke: #000000; stroke-width: 1.5"/>
      </g>
     </g>
     <g id="text_22">
      <text style="font: 8px 'Arial', sans-serif, serif; text-anchor: end" x="288.12875" y="63.297052" transform="rotate(-0 288.12875 63.297052)">0.01</text>
     </g>
    </g>
    <g id="ytick_6">
     <g id="line2d_21">
      <g>
       <use xlink:href="#m3a997afcde" x="295.12875" y="33.216885" style="stroke: #000000; stroke-width: 1.5"/>
      </g>
     </g>
     <g id="text_23">
      <text style="font: 8px 'Arial', sans-serif, serif; text-anchor: end" x="288.12875" y="36.08001" transform="rotate(-0 288.12875 36.08001)">0.02</text>
     </g>
    </g>
    <g id="text_24">
     <!-- $g_K$ (S/cm²) -->
     <g transform="translate(266.16 62.80625) rotate(-90)">
      <text>
       <tspan style="font: 8px 'Arial'" x="0 8.722012 10.944669 13.608731 18.944669 21.167325 25.167325 31.831387 34.49545" y="-0.171875">g (S/cm²)</tspan>
       <tspan style="font: 5.6px 'Arial'" x="4.588606" y="2.217625">K</tspan>
      </text>
     </g>
    </g>
   </g>
   <g id="line2d_22">
    <path d="M 298.786955 33.149182 
L 298.874787 18.497159 
L 298.933341 25.161939 
L 299.16756 43.888172 
L 299.226115 44.577998 
L 299.255392 44.281667 
L 299.343224 43.241082 
L 299.401779 43.453897 
L 299.431056 43.411567 
L 299.518888 41.136035 
L 299.635998 38.336289 
L 299.694552 38.586842 
L 299.72383 38.717647 
L 299.782384 38.532142 
L 299.840939 38.185368 
L 299.870216 38.269178 
L 300.133713 42.275882 
L 300.836369 56.118104 
L 301.363361 62.181626 
L 301.890353 65.847621 
L 302.417346 68.113525 
L 302.856506 69.122089 
L 303.324943 69.685086 
L 303.764104 69.898752 
L 304.203264 69.87627 
L 304.671701 69.635299 
L 305.198694 69.11322 
L 305.813518 68.168346 
L 306.486897 66.69448 
L 307.218831 64.518401 
L 308.067874 61.238496 
L 309.20969 55.84544 
L 310.615003 49.297159 
L 312.371644 42.72136 
L 313.337796 40.202676 
L 314.479613 37.84266 
L 315.855648 35.502375 
L 317.436625 33.243248 
L 317.787953 32.690107 
L 317.81723 32.905457 
L 317.875785 32.993115 
L 317.905062 32.152926 
L 317.93434 33.107363 
L 317.963617 31.891042 
L 317.992894 32.748134 
L 318.110004 31.610309 
L 318.139281 32.219474 
L 318.227113 32.053319 
L 318.256391 31.609929 
L 318.285668 32.123826 
L 318.314945 31.893582 
L 318.724828 33.371797 
L 318.81266 33.324209 
L 318.871215 33.395163 
L 318.900492 33.207766 
L 318.929769 33.341035 
L 319.017602 33.254675 
L 319.193266 32.896205 
L 319.222543 32.913848 
L 319.398207 32.515542 
L 319.486039 32.421349 
L 319.661703 32.119583 
L 319.80809 31.96962 
L 319.983754 31.765134 
L 320.335082 31.409813 
L 320.422914 31.384288 
L 320.569301 30.985637 
L 320.627856 30.727033 
L 320.657133 31.52292 
L 320.744965 30.331085 
L 320.774242 30.851324 
L 320.891352 29.961402 
L 321.008461 30.590175 
L 321.037738 30.111562 
L 321.067016 30.728873 
L 321.096293 30.446367 
L 321.359789 31.796074 
L 321.389067 31.540988 
L 321.418344 31.902382 
L 321.447621 31.783947 
L 321.564731 32.104577 
L 321.652563 32.025172 
L 321.711117 32.082048 
L 321.740395 31.900177 
L 321.769672 32.030911 
L 321.828227 31.904674 
L 321.886782 31.768799 
L 321.916059 31.843033 
L 322.091723 31.450516 
L 322.121 31.495402 
L 322.150278 31.354169 
L 322.179555 31.406234 
L 322.355219 31.121912 
L 322.384496 31.152578 
L 322.413774 31.055313 
L 322.443051 31.090369 
L 322.618715 30.895155 
L 322.706547 30.873148 
L 322.852934 30.731251 
L 322.940766 30.716798 
L 323.087153 30.544397 
L 323.145708 30.48484 
L 323.174985 30.554607 
L 323.321372 30.216832 
L 323.379926 30.026936 
L 323.409204 30.665504 
L 323.497036 29.475529 
L 323.467758 30.744052 
L 323.526313 30.354445 
L 323.643422 29.221615 
L 323.6727 29.813907 
L 323.701977 29.176713 
L 323.760532 29.452412 
L 323.789809 29.41804 
L 323.965473 30.37992 
L 323.994751 30.356473 
L 324.141137 31.062618 
L 324.287524 31.411329 
L 324.375356 31.445026 
L 324.404633 31.305856 
L 324.433911 31.470703 
L 324.492465 31.40594 
L 324.726684 31.018173 
L 325.10729 30.620724 
L 325.253677 30.471258 
L 325.429341 30.426073 
L 325.575727 30.31871 
L 325.663559 30.323916 
L 325.809946 30.149356 
L 325.868501 30.090478 
L 325.897778 30.203377 
L 325.98561 29.922878 
L 326.044165 29.767125 
L 326.073442 30.327054 
L 326.131997 30.469139 
L 326.161274 29.178863 
L 326.190552 30.225491 
L 326.219829 29.13491 
L 326.249106 29.471854 
L 326.366216 28.719144 
L 326.336938 29.497713 
L 326.454048 28.956988 
L 326.629712 30.082808 
L 326.658989 30.017035 
L 326.805376 30.84848 
L 326.893208 31.343366 
L 326.951763 31.301086 
L 327.010317 31.250066 
L 327.039595 31.484949 
L 327.068872 31.28936 
L 327.156704 31.349029 
L 327.185981 31.406203 
L 327.215259 31.266025 
L 327.244536 31.364881 
L 327.4202 30.962449 
L 327.449478 31.038878 
L 327.478755 30.882284 
L 327.508032 30.915307 
L 327.771528 30.610986 
L 327.85936 30.589754 
L 328.005747 30.497453 
L 328.85479 30.061439 
L 329.001177 29.821218 
L 329.059732 29.703148 
L 329.089009 30.149848 
L 329.147564 30.351191 
L 329.176841 29.108578 
L 329.206118 30.324535 
L 329.235396 28.845062 
L 329.264673 29.66219 
L 329.381782 28.361298 
L 329.498892 29.191385 
L 329.528169 28.720031 
L 329.557447 29.38923 
L 329.586724 29.33239 
L 329.996607 31.853111 
L 330.084439 31.821122 
L 330.113716 31.676883 
L 330.142994 31.883965 
L 330.201548 31.77071 
L 330.435767 31.40271 
L 330.611431 31.079449 
L 330.640708 31.135083 
L 330.669986 31.003431 
L 330.699263 31.054492 
L 330.874927 30.863263 
L 331.138423 30.800846 
L 331.460474 30.658711 
L 331.782525 30.41347 
L 332.104576 30.204401 
L 332.309517 30.128778 
L 332.455904 29.993375 
L 332.514459 29.933889 
L 332.543736 30.099927 
L 332.602291 30.159135 
L 332.631568 29.66761 
L 332.690123 29.307305 
L 332.7194 30.536245 
L 332.807232 28.844368 
L 332.836509 28.892802 
L 332.865787 29.201777 
L 332.895064 28.140458 
L 332.982896 28.189724 
L 333.15856 30.059239 
L 333.187838 29.926746 
L 333.392779 32.036822 
L 333.422056 31.920947 
L 333.539166 32.526563 
L 333.568443 32.322092 
L 333.59772 32.647908 
L 333.656275 32.490468 
L 333.685553 32.602049 
L 333.71483 32.383784 
L 333.744107 32.522381 
L 333.978326 31.92698 
L 334.15399 31.576181 
L 334.183267 31.616844 
L 334.212545 31.494607 
L 334.241822 31.525516 
L 334.446764 31.323032 
L 334.534596 31.343604 
L 334.563873 31.319083 
L 334.827369 31.271348 
L 335.325084 30.83938 
L 335.852076 30.538831 
L 336.232682 30.306604 
L 336.291236 30.260988 
L 336.320514 30.339683 
L 336.408346 30.119014 
L 336.466901 29.962314 
L 336.496178 30.553289 
L 336.554733 30.782971 
L 336.58401 29.140882 
L 336.613287 30.495805 
L 336.642565 29.054729 
L 336.701119 29.426734 
L 336.730397 28.362099 
L 336.818229 28.382702 
L 336.993893 30.330867 
L 337.02317 30.208746 
L 337.228112 32.471274 
L 337.257389 32.33614 
L 337.374498 33.025915 
L 337.403776 32.799448 
L 337.433053 33.124579 
L 337.491608 32.947363 
L 337.520885 33.105629 
L 337.550162 32.8346 
L 337.57944 32.970586 
L 337.842936 32.171039 
L 337.872213 32.19078 
L 337.901491 32.085754 
L 338.340651 31.682236 
L 338.369928 31.729566 
L 340.068014 30.581349 
L 340.126569 30.512834 
L 340.155846 30.701001 
L 340.214401 30.778449 
L 340.243678 30.175069 
L 340.302233 29.7853 
L 340.33151 31.043673 
L 340.44862 29.134509 
L 340.477897 29.836046 
L 340.507174 28.751878 
L 340.536452 29.202827 
L 340.565729 29.259256 
L 340.595006 28.775214 
L 340.624284 29.671605 
L 340.653561 29.363471 
L 341.063444 33.248272 
L 341.092721 33.048267 
L 341.151276 33.343544 
L 341.180553 33.101984 
L 341.209831 33.370555 
L 341.297663 33.226163 
L 341.473327 32.622246 
L 341.502604 32.638783 
L 341.678268 32.1977 
L 341.707546 32.228908 
L 341.736823 32.136378 
L 342.029597 31.89819 
L 342.205261 31.92702 
L 342.439479 31.783881 
L 342.527311 31.723716 
L 343.20069 31.137846 
L 343.347077 31.084058 
L 343.493464 30.93596 
L 343.552019 30.871141 
L 343.581296 31.025266 
L 343.639851 31.073107 
L 343.669128 30.598362 
L 343.727683 30.255072 
L 343.75696 31.382655 
L 343.786237 29.833998 
L 343.874069 29.865678 
L 343.903347 30.162932 
L 343.932624 29.182422 
L 344.020456 29.354371 
L 344.19612 31.354712 
L 344.225398 31.115611 
L 344.401062 33.001267 
L 344.459616 32.997536 
L 344.547448 33.518693 
L 344.576726 33.413246 
L 344.606003 33.344077 
L 344.63528 33.667966 
L 344.664558 33.304498 
L 344.723112 33.410402 
L 344.781667 33.446664 
L 344.898777 32.997749 
L 344.928054 33.058452 
L 345.074441 32.764741 
L 345.250105 32.460314 
L 345.279382 32.537189 
L 345.308659 32.388113 
L 345.337937 32.472344 
L 345.455046 32.336373 
L 345.484323 32.424061 
L 345.572156 32.370643 
L 345.806374 32.252365 
L 345.894206 32.211611 
L 346.128425 31.896715 
L 346.216257 31.831439 
L 346.450476 31.614771 
L 346.596863 31.537556 
L 346.801804 31.368967 
L 346.889636 31.376004 
L 347.036023 31.097639 
L 347.094578 30.915707 
L 347.123855 31.55458 
L 347.211687 30.217471 
L 347.18241 31.654252 
L 347.270242 30.223402 
L 347.299519 30.232071 
L 347.328796 30.502107 
L 347.358074 29.622932 
L 347.445906 29.907847 
L 347.62157 31.73571 
L 347.650847 31.572977 
L 347.826511 33.332716 
L 347.855789 33.093011 
L 347.914343 33.465366 
L 347.943621 33.359584 
L 347.972898 33.713065 
L 348.06073 33.579477 
L 348.119285 33.644864 
L 348.236394 33.261316 
L 348.265671 33.270096 
L 348.441336 32.828263 
L 348.470613 32.848952 
L 348.646277 32.509048 
L 348.675554 32.565842 
L 348.704832 32.439493 
L 348.734109 32.507562 
L 348.851218 32.395053 
L 348.93905 32.433759 
L 348.968328 32.378983 
L 349.085437 32.373502 
L 349.436765 32.035489 
L 349.641707 31.84426 
L 349.846648 31.621325 
L 349.905203 31.56479 
L 349.93448 31.664741 
L 350.022312 31.401453 
L 350.080867 31.227547 
L 350.110144 31.846957 
L 350.168699 31.92955 
L 350.256531 30.601105 
L 350.315086 30.84486 
L 350.344363 30.101367 
L 350.432195 30.484546 
L 350.724969 32.979321 
L 350.754246 32.875861 
L 350.92991 33.617955 
L 350.988465 33.524518 
L 351.017742 33.715853 
L 351.047019 33.471201 
L 351.076297 33.662785 
L 351.251961 33.14867 
L 351.281238 33.219289 
L 351.310516 33.039015 
L 351.339793 33.051491 
L 351.36907 32.972457 
L 351.603289 32.582992 
L 351.691121 32.563525 
L 351.837508 32.458651 
L 352.276668 32.216326 
L 352.627996 31.869668 
L 352.774383 31.647697 
L 352.832938 31.529227 
L 352.862215 31.891975 
L 352.92077 32.076198 
L 352.950047 30.942089 
L 352.979324 32.071665 
L 353.008602 30.60945 
L 353.037879 31.43325 
L 353.154988 30.058859 
L 353.330653 31.434365 
L 353.769813 34.301703 
L 353.886922 33.942494 
L 353.9162 34.127898 
L 353.945477 33.81798 
L 353.974754 33.913237 
L 354.179696 33.368836 
L 354.443192 32.909087 
L 354.501746 32.844977 
L 354.531024 32.926983 
L 354.648133 32.836876 
L 354.735965 32.862361 
L 354.882352 32.768533 
L 354.999461 32.706735 
L 355.262957 32.332262 
L 355.35079 32.282575 
L 355.497176 32.071458 
L 355.555731 32.003845 
L 355.585008 32.128637 
L 355.643563 32.140348 
L 355.67284 31.801478 
L 355.731395 31.573018 
L 355.760672 32.366811 
L 355.848504 31.122515 
L 355.877782 31.644575 
L 355.994891 30.747058 
L 356.112001 31.681522 
L 356.141278 31.453807 
L 356.316942 33.197095 
L 356.346219 32.980756 
L 356.375497 33.515626 
L 356.404774 33.294917 
L 356.521883 33.901846 
L 356.551161 33.631911 
L 356.580438 33.944648 
L 356.638993 33.819678 
L 356.66827 33.822745 
L 356.814657 33.50171 
L 356.843934 33.543848 
L 356.873212 33.43979 
L 357.22454 32.85971 
L 357.253817 32.926669 
L 357.283094 32.810281 
L 357.312372 32.878107 
L 357.458759 32.774105 
L 357.839364 32.466641 
L 357.868641 32.608482 
L 357.956473 32.204843 
L 358.015028 31.966994 
L 358.044305 32.69757 
L 358.132138 31.628965 
L 358.161415 32.00352 
L 358.278524 31.320959 
L 358.395634 31.999328 
L 358.424911 32.012367 
L 358.571298 33.060885 
L 358.600575 33.041003 
L 358.629852 33.143408 
L 358.776239 33.688792 
L 358.805517 33.541577 
L 358.864071 33.721116 
L 358.893349 33.594736 
L 358.922626 33.785301 
L 358.951903 33.542282 
L 358.981181 33.739523 
L 359.09829 33.501309 
L 359.156845 33.350343 
L 359.186122 33.429352 
L 359.332509 33.098152 
L 359.361786 33.127565 
L 359.391063 33.045007 
L 359.713114 32.75151 
L 359.742392 32.855167 
L 359.771669 32.718188 
L 359.800946 32.825617 
L 359.947333 32.553579 
L 360.005888 32.43493 
L 360.035165 32.841267 
L 360.09372 32.919647 
L 360.122997 32.022252 
L 360.152274 32.789212 
L 360.181552 31.938665 
L 360.210829 32.350639 
L 360.327939 31.719548 
L 360.415771 32.321296 
L 360.445048 32.15942 
L 360.679267 33.405692 
L 360.708544 33.33852 
L 360.737821 33.440672 
L 360.884208 33.788647 
L 360.913486 33.584927 
L 361.001318 33.655536 
L 361.118427 33.43393 
L 361.147704 33.555113 
L 361.294091 33.159965 
L 361.323368 33.232318 
L 361.352646 33.094248 
L 361.381923 33.11657 
L 361.557587 32.865606 
L 361.616142 32.814352 
L 361.645419 32.897072 
L 361.733251 32.724023 
L 361.791806 32.657566 
L 361.821083 32.908601 
L 361.879638 32.973491 
L 361.908915 32.345265 
L 361.938193 33.069438 
L 361.96747 32.143075 
L 361.996747 32.916687 
L 362.113857 32.015926 
L 362.172411 31.81875 
L 362.201689 32.43562 
L 362.230966 31.966457 
L 362.289521 32.36128 
L 362.728681 33.94513 
L 362.757958 33.825615 
L 362.875068 33.895382 
L 363.021455 33.54182 
L 363.050732 33.623709 
L 363.080009 33.48129 
L 363.109287 33.482009 
L 363.519169 32.950409 
L 363.548447 33.067248 
L 363.577724 32.910512 
L 363.607001 33.043821 
L 363.694834 32.790236 
L 363.753388 32.684166 
L 363.782666 33.119226 
L 363.84122 33.199599 
L 363.870498 32.316733 
L 363.899775 33.044754 
L 363.929052 32.273505 
L 363.95833 32.629445 
L 364.075439 32.070555 
L 364.221826 32.760508 
L 364.426767 33.685943 
L 364.456045 33.597945 
L 364.485322 33.704051 
L 364.631709 34.022466 
L 364.660986 33.802938 
L 364.748818 33.882941 
L 364.983037 33.436551 
L 365.012314 33.571112 
L 365.041591 33.349354 
L 365.070869 33.46963 
L 365.217256 33.123444 
L 365.246533 33.193328 
L 365.27581 33.076424 
L 365.305088 33.134501 
L 365.451474 32.998185 
L 365.539306 33.045869 
L 365.627138 32.889073 
L 365.685693 32.799889 
L 365.71497 33.105797 
L 365.773525 33.22263 
L 365.802803 32.345082 
L 365.83208 33.246391 
L 365.861357 32.093956 
L 365.890635 32.847497 
L 366.007744 31.703402 
L 366.124853 32.328322 
L 366.154131 32.309134 
L 366.329795 33.787476 
L 366.359072 33.772891 
L 366.505459 34.405203 
L 366.593291 34.63378 
L 366.681123 34.346046 
L 366.7104 34.438054 
L 367.032451 33.731949 
L 367.383779 33.326125 
L 367.471611 33.339124 
L 367.647275 33.258583 
L 367.998604 32.875126 
L 368.349932 32.426743 
L 368.408486 32.260684 
L 368.437764 32.764564 
L 368.525596 31.377317 
L 368.496318 33.028998 
L 368.584151 31.540932 
L 368.671983 30.761207 
L 368.642705 31.820676 
L 368.70126 31.19424 
L 368.730537 31.332188 
L 368.759815 30.850214 
L 368.789092 31.825173 
L 368.818369 31.69635 
L 369.228252 35.651643 
L 369.286807 35.633205 
L 369.316084 35.767898 
L 369.345362 35.517654 
L 369.374639 35.675044 
L 369.57958 34.818987 
L 369.901631 33.889922 
L 370.018741 33.866146 
L 370.165127 33.822248 
L 370.282237 33.870957 
L 371.01417 32.928869 
L 371.072725 32.847304 
L 371.102002 33.042427 
L 371.160557 33.111966 
L 371.189834 32.503177 
L 371.219112 33.246097 
L 371.248389 32.230404 
L 371.277666 33.121913 
L 371.394776 31.94229 
L 371.424053 32.475005 
L 371.453331 31.809041 
L 371.511885 32.242616 
L 371.541163 32.33871 
L 371.716827 33.839394 
L 371.746104 33.815587 
L 371.892491 34.560459 
L 371.921768 34.766993 
L 371.951045 34.596787 
" clip-path="url(#pb45d48eeaf)" style="fill: none; stroke: #000000; stroke-width: 1.5; stroke-linecap: square"/>
   </g>
   <g id="line2d_23">
    <path d="M 295.12875 33.216885 
L 375.60925 33.216885 
" clip-path="url(#pb45d48eeaf)" style="fill: none; stroke-dasharray: 5.55,2.4; stroke-dashoffset: 0; stroke: #000000; stroke-width: 1.5"/>
   </g>
   <g id="patch_9">
    <path d="M 295.12875 72.48625 
L 295.12875 15.92625 
" style="fill: none; stroke: #000000; stroke-width: 1.5; stroke-linejoin: miter; stroke-linecap: square"/>
   </g>
   <g id="patch_10">
    <path d="M 295.12875 72.48625 
L 375.60925 72.48625 
" style="fill: none; stroke: #000000; stroke-width: 1.5; stroke-linejoin: miter; stroke-linecap: square"/>
   </g>
   <g id="legend_3">
    <g id="line2d_24">
     <path d="M 310.87925 60.89625 
L 318.87925 60.89625 
L 326.87925 60.89625 
" style="fill: none; stroke-dasharray: 5.55,2.4; stroke-dashoffset: 0; stroke: #000000; stroke-width: 1.5"/>
    </g>
    <g id="text_25">
     <text style="font: 8px 'Arial', sans-serif, serif; text-anchor: start" x="333.27925" y="63.69625" transform="rotate(-0 333.27925 63.69625)">true value</text>
    </g>
   </g>
  </g>
 </g>
 <defs>
  <clipPath id="p5e31bafe50">
   <rect x="30.88875" y="15.92625" width="80.4805" height="56.56"/>
  </clipPath>
  <clipPath id="p4559b37041">
   <rect x="163.00875" y="15.92625" width="80.4805" height="56.56"/>
  </clipPath>
  <clipPath id="pb45d48eeaf">
   <rect x="295.12875" y="15.92625" width="80.4805" height="56.56"/>
  </clipPath>
 </defs>
</svg>
