<?xml version="1.0" encoding="utf-8" standalone="no"?>
<!DOCTYPE svg PUBLIC "-//W3C//DTD SVG 1.1//EN"
  "http://www.w3.org/Graphics/SVG/1.1/DTD/svg11.dtd">
<svg xmlns:xlink="http://www.w3.org/1999/xlink" width="129.3175pt" height="105.77493pt" viewBox="0 0 129.3175 105.77493" xmlns="http://www.w3.org/2000/svg" version="1.1">
 <metadata>
  <rdf:RDF xmlns:dc="http://purl.org/dc/elements/1.1/" xmlns:cc="http://creativecommons.org/ns#" xmlns:rdf="http://www.w3.org/1999/02/22-rdf-syntax-ns#">
   <cc:Work>
    <dc:type rdf:resource="http://purl.org/dc/dcmitype/StillImage"/>
    <dc:date>2025-10-29T03:53:46.122864</dc:date>
    <dc:format>image/svg+xml</dc:format>
    <dc:creator>
     <cc:Agent>
      <dc:title>Matplotlib v3.9.2, https://matplotlib.org/</dc:title>
     </cc:Agent>
    </dc:creator>
   </cc:Work>
  </rdf:RDF>
 </metadata>
 <defs>
  <style type="text/css">*{stroke-linejoin: round; stroke-linecap: butt}</style>
 </defs>
 <g id="figure_1">
  <g id="patch_1">
   <path d="M 0 105.77493 
L 129.3175 105.77493 
L 129.3175 0 
L 0 0 
z
" style="fill: #ffffff"/>
  </g>
  <g id="axes_1">
   <g id="patch_2">
    <path d="M 39.2775 72.75118 
L 122.1175 72.75118 
L 122.1175 9.262537 
L 39.2775 9.262537 
z
" style="fill: #ffffff"/>
   </g>
   <g id="matplotlib.axis_1">
    <g id="xtick_1">
     <g id="line2d_1">
      <defs>
       <path id="m08b8a11299" d="M 0 0 
L 0 3.5 
" style="stroke: #000000; stroke-width: 1.5"/>
      </defs>
      <g>
       <use xlink:href="#m08b8a11299" x="43.042955" y="72.75118" style="stroke: #000000; stroke-width: 1.5"/>
      </g>
     </g>
     <g id="text_1">
      <text style="font: 8px 'Arial', sans-serif, serif; text-anchor: middle" x="43.042955" y="85.47743" transform="rotate(-0 43.042955 85.47743)">0</text>
     </g>
    </g>
    <g id="xtick_2">
     <g id="line2d_2">
      <g>
       <use xlink:href="#m08b8a11299" x="93.207212" y="72.75118" style="stroke: #000000; stroke-width: 1.5"/>
      </g>
     </g>
     <g id="text_2">
      <text style="font: 8px 'Arial', sans-serif, serif; text-anchor: middle" x="93.207212" y="85.47743" transform="rotate(-0 93.207212 85.47743)">20</text>
     </g>
    </g>
    <g id="text_3">
     <text style="font: 8px 'Arial', sans-serif, serif; text-anchor: middle" x="80.6975" y="96.89118" transform="rotate(-0 80.6975 96.89118)">Time (ms)</text>
    </g>
   </g>
   <g id="matplotlib.axis_2">
    <g id="ytick_1">
     <g id="line2d_3">
      <defs>
       <path id="m3169c3eac8" d="M 0 0 
L -3.5 0 
" style="stroke: #000000; stroke-width: 1.5"/>
      </defs>
      <g>
       <use xlink:href="#m3169c3eac8" x="39.2775" y="59.898298" style="stroke: #000000; stroke-width: 1.5"/>
      </g>
     </g>
     <g id="text_4">
      <text style="font: 8px 'Arial', sans-serif, serif; text-anchor: end" x="32.2775" y="62.761423" transform="rotate(-0 32.2775 62.761423)">−50</text>
     </g>
    </g>
    <g id="ytick_2">
     <g id="line2d_4">
      <g>
       <use xlink:href="#m3169c3eac8" x="39.2775" y="34.980711" style="stroke: #000000; stroke-width: 1.5"/>
      </g>
     </g>
     <g id="text_5">
      <text style="font: 8px 'Arial', sans-serif, serif; text-anchor: end" x="32.2775" y="37.843836" transform="rotate(-0 32.2775 37.843836)">0</text>
     </g>
    </g>
    <g id="ytick_3">
     <g id="line2d_5">
      <g>
       <use xlink:href="#m3169c3eac8" x="39.2775" y="10.063125" style="stroke: #000000; stroke-width: 1.5"/>
      </g>
     </g>
     <g id="text_6">
      <text style="font: 8px 'Arial', sans-serif, serif; text-anchor: end" x="32.2775" y="12.92625" transform="rotate(-0 32.2775 12.92625)">50</text>
     </g>
    </g>
    <g id="text_7">
     <text style="font: 8px 'Arial', sans-serif, serif; text-anchor: middle" x="13.02375" y="41.006858" transform="rotate(-90 13.02375 41.006858)">V (mV)</text>
    </g>
   </g>
   <g id="line2d_6">
    <path d="M 43.042955 69.865332 
L 43.544597 69.816029 
L 45.363051 69.657858 
L 46.742569 69.300229 
L 48.372907 68.634602 
L 50.316772 67.596661 
L 51.069236 67.02775 
L 51.382762 66.472683 
L 51.633584 65.582961 
L 51.884405 63.838628 
L 52.072521 61.18822 
L 52.260637 55.390701 
L 52.950395 19.81969 
L 53.263922 15.636565 
L 53.640154 13.451142 
L 54.016386 12.531518 
L 54.392618 12.200223 
L 54.76885 12.201894 
L 55.207787 12.487341 
L 55.709429 13.107171 
L 56.336483 14.271141 
L 57.088947 16.211723 
L 57.904116 18.960076 
L 58.907401 23.183983 
L 60.224213 29.820899 
L 64.67629 53.255841 
L 65.49146 56.115506 
L 66.808271 59.57655 
L 67.936967 62.199839 
L 68.752136 63.554058 
L 69.630011 64.586676 
L 70.570591 65.336826 
L 71.573876 65.843098 
L 72.639866 66.13599 
L 73.831267 66.238302 
L 75.210784 66.126407 
L 76.527596 65.810265 
L 77.029239 65.515178 
L 77.342765 65.02274 
L 77.593587 64.205199 
L 77.844408 62.56549 
L 78.032524 60.022999 
L 78.22064 54.21136 
L 78.847693 24.055597 
L 79.223925 18.6059 
L 79.600157 16.345952 
L 79.913683 15.54713 
L 80.22721 15.283646 
L 80.478031 15.324971 
L 80.791558 15.603262 
L 81.230495 16.314306 
L 81.857548 17.834169 
L 82.610012 20.291174 
L 83.550592 24.159124 
L 84.804699 30.342896 
L 89.444892 54.272256 
L 90.260062 56.975531 
L 92.141221 62.154192 
L 92.95639 63.681271 
L 93.771559 64.758851 
L 94.649434 65.557857 
L 95.590014 66.114052 
L 96.593299 66.457316 
L 97.721995 66.61439 
L 99.038806 66.566348 
L 100.481029 66.287252 
L 101.484314 65.919686 
L 101.860546 65.558996 
L 102.174073 64.846475 
L 102.424894 63.698845 
L 102.675715 61.306419 
L 102.863831 57.342677 
L 103.051947 47.565756 
L 103.428179 28.1508 
L 103.741706 21.231478 
L 104.117938 17.542647 
L 104.494169 15.981853 
L 104.807696 15.472955 
L 105.058517 15.376378 
L 105.372044 15.523687 
L 105.748276 15.991578 
L 106.249918 16.99182 
L 106.939677 18.924753 
L 107.817551 22.149553 
L 108.883542 26.980042 
L 110.451175 35.236323 
L 113.398325 50.835093 
L 114.40161 55.034293 
L 115.34219 57.931977 
L 116.972528 62.308336 
L 117.787698 63.781635 
L 118.352045 64.539642 
L 118.352045 64.539642 
" clip-path="url(#pa0666f9d77)" style="fill: none; stroke: #4682b4; stroke-width: 1.5; stroke-linecap: square"/>
   </g>
   <g id="line2d_7">
    <path d="M 43.042955 69.865332 
L 43.481892 69.845866 
L 45.237641 69.802848 
L 46.617158 69.532358 
L 48.184791 68.991602 
L 50.128656 68.078517 
L 51.194646 67.391708 
L 51.445468 66.994198 
L 51.696289 66.164818 
L 51.94711 64.574405 
L 52.260637 60.827245 
L 52.511458 54.787329 
L 53.263922 28.782752 
L 53.702859 23.020244 
L 54.141796 19.995194 
L 54.580734 18.406707 
L 54.956966 17.759743 
L 55.270492 17.584931 
L 55.584019 17.675746 
L 55.960251 18.0803 
L 56.399188 18.902792 
L 56.963536 20.439035 
L 57.716 23.199558 
L 58.65658 27.56759 
L 60.036097 35.181239 
L 63.171363 52.853809 
L 64.174648 57.208645 
L 65.303344 61.073953 
L 66.118513 63.133406 
L 66.933682 64.62291 
L 67.811556 65.76382 
L 68.752136 66.60754 
L 69.755421 67.198986 
L 70.821412 67.573732 
L 72.075518 67.768279 
L 73.455035 67.752661 
L 75.022668 67.513707 
L 76.778417 67.021322 
L 77.781703 66.579572 
L 78.095229 66.224008 
L 78.34605 65.577218 
L 78.596872 64.321353 
L 78.910398 61.400717 
L 79.16122 57.084772 
L 79.474746 45.773565 
L 79.913683 33.230513 
L 80.352621 27.10066 
L 80.791558 23.927079 
L 81.16779 22.505604 
L 81.544022 21.85875 
L 81.857548 21.753223 
L 82.171075 21.957708 
L 82.547307 22.53852 
L 83.04895 23.779124 
L 83.738708 26.176749 
L 84.679288 30.402521 
L 86.058805 37.791708 
L 88.94325 53.423321 
L 90.00924 57.96113 
L 91.075231 61.611498 
L 91.8904 63.615013 
L 92.705569 65.048213 
L 93.583444 66.139117 
L 94.524023 66.940521 
L 95.527308 67.496798 
L 96.656004 67.856521 
L 97.910111 68.013976 
L 99.352333 67.961286 
L 100.982671 67.674508 
L 102.801126 67.127829 
L 103.929822 66.599503 
L 104.243348 66.19726 
L 104.494169 65.481585 
L 104.807696 63.669471 
L 105.121223 60.201208 
L 105.372044 54.825021 
L 106.124508 32.179349 
L 106.563445 26.764221 
L 107.002382 23.911388 
L 107.378614 22.637779 
L 107.754846 22.082855 
L 108.005667 22.015198 
L 108.319194 22.204733 
L 108.695426 22.767762 
L 109.197069 23.986244 
L 109.886827 26.357222 
L 110.764702 30.246267 
L 112.081513 37.205758 
L 115.154074 53.776878 
L 116.220065 58.240815 
L 117.22335 61.632135 
L 118.038519 63.622539 
L 118.352045 64.227439 
L 118.352045 64.227439 
" clip-path="url(#pa0666f9d77)" style="fill: none; stroke: #008000; stroke-width: 1.5; stroke-linecap: square"/>
   </g>
   <g id="line2d_8">
    <path d="M 43.042955 69.865332 
L 43.544597 69.828725 
L 45.300346 69.721291 
L 46.679863 69.401706 
L 48.310202 68.777096 
L 50.254066 67.785728 
L 51.069236 67.213542 
L 51.382762 66.710204 
L 51.633584 65.905098 
L 51.884405 64.357038 
L 52.135226 60.904626 
L 52.323342 54.51543 
L 52.88769 22.139585 
L 53.201217 16.595374 
L 53.577449 13.822059 
L 53.95368 12.67112 
L 54.329912 12.226135 
L 54.643439 12.148903 
L 55.019671 12.286235 
L 55.458608 12.686542 
L 56.022956 13.520366 
L 56.712715 14.989904 
L 57.465178 17.141002 
L 58.343053 20.341381 
L 59.409043 25.105975 
L 60.913971 32.972906 
L 64.237353 50.637504 
L 65.240638 54.783839 
L 65.993102 56.97786 
L 68.125083 62.069705 
L 69.002958 63.516086 
L 69.880832 64.533911 
L 70.821412 65.27862 
L 71.824697 65.785956 
L 72.953393 66.095635 
L 74.207499 66.196205 
L 75.587016 66.075539 
L 76.778417 65.764589 
L 77.154649 65.471314 
L 77.405471 65.025833 
L 77.656292 64.166111 
L 77.907113 62.423203 
L 78.095229 59.681616 
L 78.283345 53.215857 
L 78.847693 24.944477 
L 79.16122 19.577067 
L 79.537452 16.719902 
L 79.850978 15.684332 
L 80.164505 15.280763 
L 80.415326 15.244106 
L 80.728853 15.446827 
L 81.16779 16.072183 
L 81.732138 17.320428 
L 82.484602 19.603672 
L 83.425181 23.274933 
L 84.616583 28.926954 
L 86.685858 40.07641 
L 88.692428 50.46463 
L 89.758419 54.927772 
L 90.636293 57.594083 
L 92.454748 62.383964 
L 93.269917 63.818493 
L 94.085086 64.835117 
L 94.962961 65.591855 
L 95.90354 66.119611 
L 96.969531 66.458184 
L 98.160932 66.594567 
L 99.477744 66.520317 
L 100.919966 66.215952 
L 101.67243 65.878688 
L 101.985957 65.487954 
L 102.236778 64.848384 
L 102.487599 63.6437 
L 102.73842 61.098972 
L 102.926536 56.798146 
L 103.177358 42.13975 
L 103.55359 25.682272 
L 103.867116 20.027333 
L 104.243348 16.984481 
L 104.61958 15.72062 
L 104.933107 15.348948 
L 105.183928 15.32546 
L 105.497455 15.53737 
L 105.936392 16.169434 
L 106.50074 17.422205 
L 107.253204 19.708514 
L 108.193783 23.379721 
L 109.385185 29.024622 
L 111.517165 40.488334 
L 113.523736 50.795714 
L 114.527021 54.950697 
L 115.404895 57.608019 
L 117.22335 62.371975 
L 118.038519 63.799844 
L 118.352045 64.231697 
L 118.352045 64.231697 
" clip-path="url(#pa0666f9d77)" style="fill: none; stroke-dasharray: 7.4,3.2; stroke-dashoffset: 0; stroke: #000000; stroke-width: 2"/>
   </g>
   <g id="patch_3">
    <path d="M 39.2775 72.75118 
L 39.2775 9.262537 
" style="fill: none; stroke: #000000; stroke-width: 1.5; stroke-linejoin: miter; stroke-linecap: square"/>
   </g>
   <g id="patch_4">
    <path d="M 39.2775 72.75118 
L 122.1175 72.75118 
" style="fill: none; stroke: #000000; stroke-width: 1.5; stroke-linejoin: miter; stroke-linecap: square"/>
   </g>
   <g id="legend_1">
    <g id="line2d_9">
     <path d="M 47.45625 19.388787 
L 55.45625 19.388787 
L 63.45625 19.388787 
" style="fill: none; stroke: #4682b4; stroke-width: 1.5; stroke-linecap: square"/>
    </g>
    <g id="text_8">
     <text style="font: 8px 'Arial', sans-serif, serif; text-anchor: start" x="69.85625" y="22.188787" transform="rotate(-0 69.85625 22.188787)">Inferred</text>
    </g>
    <g id="line2d_10">
     <path d="M 47.45625 30.705037 
L 55.45625 30.705037 
L 63.45625 30.705037 
" style="fill: none; stroke: #008000; stroke-width: 1.5; stroke-linecap: square"/>
    </g>
    <g id="text_9">
     <text style="font: 8px 'Arial', sans-serif, serif; text-anchor: start" x="69.85625" y="33.505037" transform="rotate(-0 69.85625 33.505037)">Initial guess</text>
    </g>
    <g id="line2d_11">
     <path d="M 47.45625 42.115037 
L 55.45625 42.115037 
L 63.45625 42.115037 
" style="fill: none; stroke-dasharray: 7.4,3.2; stroke-dashoffset: 0; stroke: #000000; stroke-width: 2"/>
    </g>
    <g id="text_10">
     <text style="font: 8px 'Arial', sans-serif, serif; text-anchor: start" x="69.85625" y="44.915037" transform="rotate(-0 69.85625 44.915037)">True Voltage</text>
    </g>
   </g>
  </g>
 </g>
 <defs>
  <clipPath id="pa0666f9d77">
   <rect x="39.2775" y="9.262537" width="82.84" height="63.488643"/>
  </clipPath>
 </defs>
</svg>
