<?xml version="1.0" encoding="utf-8" standalone="no"?>
<!DOCTYPE svg PUBLIC "-//W3C//DTD SVG 1.1//EN"
  "http://www.w3.org/Graphics/SVG/1.1/DTD/svg11.dtd">
<svg xmlns:xlink="http://www.w3.org/1999/xlink" width="144.1375pt" height="132.11pt" viewBox="0 0 144.1375 132.11" xmlns="http://www.w3.org/2000/svg" version="1.1">
 <metadata>
  <rdf:RDF xmlns:dc="http://purl.org/dc/elements/1.1/" xmlns:cc="http://creativecommons.org/ns#" xmlns:rdf="http://www.w3.org/1999/02/22-rdf-syntax-ns#">
   <cc:Work>
    <dc:type rdf:resource="http://purl.org/dc/dcmitype/StillImage"/>
    <dc:date>2025-10-29T04:33:22.275275</dc:date>
    <dc:format>image/svg+xml</dc:format>
    <dc:creator>
     <cc:Agent>
      <dc:title>Matplotlib v3.9.2, https://matplotlib.org/</dc:title>
     </cc:Agent>
    </dc:creator>
   </cc:Work>
  </rdf:RDF>
 </metadata>
 <defs>
  <style type="text/css">*{stroke-linejoin: round; stroke-linecap: butt}</style>
 </defs>
 <g id="figure_1">
  <g id="patch_1">
   <path d="M 0 132.11 
L 144.1375 132.11 
L 144.1375 -0 
L 0 -0 
z
" style="fill: #ffffff"/>
  </g>
  <g id="axes_1">
   <g id="patch_2">
    <path d="M 34.6375 99.08625 
L 136.9375 99.08625 
L 136.9375 15.92625 
L 34.6375 15.92625 
z
" style="fill: #ffffff"/>
   </g>
   <g id="matplotlib.axis_1">
    <g id="xtick_1">
     <g id="line2d_1">
      <defs>
       <path id="me88f9be99c" d="M 0 0 
L 0 3.5 
" style="stroke: #000000; stroke-width: 1.5"/>
      </defs>
      <g>
       <use xlink:href="#me88f9be99c" x="39.2875" y="99.08625" style="stroke: #000000; stroke-width: 1.5"/>
      </g>
     </g>
     <g id="text_1">
      <text style="font: 8px 'Arial', sans-serif, serif; text-anchor: middle" x="39.2875" y="111.8125" transform="rotate(-0 39.2875 111.8125)">0</text>
     </g>
    </g>
    <g id="xtick_2">
     <g id="line2d_2">
      <g>
       <use xlink:href="#me88f9be99c" x="76.502386" y="99.08625" style="stroke: #000000; stroke-width: 1.5"/>
      </g>
     </g>
     <g id="text_2">
      <text style="font: 8px 'Arial', sans-serif, serif; text-anchor: middle" x="76.502386" y="111.8125" transform="rotate(-0 76.502386 111.8125)">1000</text>
     </g>
    </g>
    <g id="xtick_3">
     <g id="line2d_3">
      <g>
       <use xlink:href="#me88f9be99c" x="113.717272" y="99.08625" style="stroke: #000000; stroke-width: 1.5"/>
      </g>
     </g>
     <g id="text_3">
      <text style="font: 8px 'Arial', sans-serif, serif; text-anchor: middle" x="113.717272" y="111.8125" transform="rotate(-0 113.717272 111.8125)">2000</text>
     </g>
    </g>
    <g id="text_4">
     <text style="font: 8px 'Arial', sans-serif, serif; text-anchor: middle" x="85.7875" y="123.22625" transform="rotate(-0 85.7875 123.22625)">Time (ms)</text>
    </g>
   </g>
   <g id="matplotlib.axis_2">
    <g id="ytick_1">
     <g id="line2d_4">
      <defs>
       <path id="m645f2d477f" d="M 0 0 
L -3.5 0 
" style="stroke: #000000; stroke-width: 1.5"/>
      </defs>
      <g>
       <use xlink:href="#m645f2d477f" x="34.6375" y="80.288928" style="stroke: #000000; stroke-width: 1.5"/>
      </g>
     </g>
     <g id="text_5">
      <text style="font: 8px 'Arial', sans-serif, serif; text-anchor: end" x="27.6375" y="83.152053" transform="rotate(-0 27.6375 83.152053)">−2</text>
     </g>
    </g>
    <g id="ytick_2">
     <g id="line2d_5">
      <g>
       <use xlink:href="#m645f2d477f" x="34.6375" y="58.538307" style="stroke: #000000; stroke-width: 1.5"/>
      </g>
     </g>
     <g id="text_6">
      <text style="font: 8px 'Arial', sans-serif, serif; text-anchor: end" x="27.6375" y="61.401432" transform="rotate(-0 27.6375 61.401432)">0</text>
     </g>
    </g>
    <g id="ytick_3">
     <g id="line2d_6">
      <g>
       <use xlink:href="#m645f2d477f" x="34.6375" y="36.787686" style="stroke: #000000; stroke-width: 1.5"/>
      </g>
     </g>
     <g id="text_7">
      <text style="font: 8px 'Arial', sans-serif, serif; text-anchor: end" x="27.6375" y="39.650811" transform="rotate(-0 27.6375 39.650811)">2</text>
     </g>
    </g>
    <g id="text_8">
     <text style="font: 8px 'Arial', sans-serif, serif; text-anchor: middle" x="12.92625" y="57.50625" transform="rotate(-90 12.92625 57.50625)">Iteration</text>
    </g>
    <g id="text_9">
     <text style="font: 8px 'Arial', sans-serif, serif; text-anchor: start" x="34.6375" y="12.92625" transform="rotate(-0 34.6375 12.92625)">1e6</text>
    </g>
   </g>
   <g id="line2d_7">
    <path d="M 39.2875 95.30625 
L 39.548004 41.007451 
L 39.734079 32.274876 
L 39.808508 38.903837 
L 39.845723 33.288633 
L 39.882938 33.403903 
L 39.920153 35.412983 
L 39.957368 33.620426 
L 40.143442 26.702367 
L 40.217872 28.7281 
L 40.255087 28.196552 
L 40.403947 26.57596 
L 40.478376 27.815026 
L 40.515591 27.591907 
L 40.664451 24.865335 
L 40.738881 25.708699 
L 40.776095 25.251769 
L 40.88774 24.407419 
L 40.924955 24.575828 
L 40.96217 24.788803 
L 40.999385 24.51731 
L 41.073815 24.228246 
L 41.111029 23.998709 
L 41.185459 24.179617 
L 41.222674 24.198252 
L 41.445963 23.578978 
L 41.669253 23.269974 
L 41.892542 23.004684 
L 41.966972 22.932283 
L 42.376336 22.328886 
L 43.046203 21.634099 
L 43.641642 21.386445 
L 44.944163 21.166128 
L 48.256288 20.868749 
L 61.653646 19.987653 
L 61.765291 20.089667 
L 61.914151 20.633898 
L 61.951366 20.303693 
L 61.98858 20.005291 
L 62.06301 20.24024 
L 62.100225 20.232928 
L 62.174655 20.009306 
L 62.21187 20.155373 
L 62.249085 20.139508 
L 62.2863 19.98993 
L 62.360729 20.114673 
L 62.621233 19.971405 
L 62.695663 20.041177 
L 62.732878 19.977929 
L 62.918953 19.946128 
L 63.477176 19.923033 
L 66.454367 19.945107 
L 66.603226 19.952731 
L 66.826516 19.874792 
L 67.049805 19.835275 
L 68.166252 19.839602 
L 68.352326 19.985958 
L 68.426756 20.028754 
L 68.463971 19.994961 
L 68.575615 19.808311 
L 68.61283 19.824733 
L 68.724475 19.880998 
L 68.76169 19.840565 
L 68.910549 19.840042 
L 69.357128 19.812351 
L 70.101426 19.783878 
L 70.771294 19.827637 
L 70.920153 20.231652 
L 70.957368 20.322546 
L 71.069013 19.783549 
L 71.106227 19.897241 
L 71.143442 20.034344 
L 71.180657 19.959182 
L 71.255087 19.790308 
L 71.292302 19.884166 
L 71.329517 19.94118 
L 71.366732 19.855558 
L 71.441161 19.795578 
L 71.478376 19.851462 
L 71.552806 19.809086 
L 71.664451 19.81659 
L 71.924955 19.794388 
L 72.259889 19.765303 
L 72.966972 19.75515 
L 74.790501 19.79614 
L 74.864931 19.974751 
L 74.939361 20.467851 
L 75.013791 20.187193 
L 75.08822 19.774237 
L 75.125435 19.967982 
L 75.16265 20.028113 
L 75.23708 19.756627 
L 75.274295 19.859954 
L 75.31151 19.97008 
L 75.348724 19.855555 
L 75.385939 19.753483 
L 75.460369 19.863625 
L 75.758088 19.763826 
L 75.869733 19.75818 
L 76.130237 19.747193 
L 76.427956 19.73918 
L 77.544403 19.730331 
L 79.405147 19.812034 
L 79.516792 20.258228 
L 79.554007 20.523633 
L 79.591221 20.258527 
L 79.665651 19.739228 
L 79.702866 19.856707 
L 79.740081 20.073809 
L 79.777296 19.945493 
L 79.814511 19.761295 
L 79.888941 19.904751 
L 79.926155 19.901925 
L 80.000585 19.749311 
L 80.0378 19.840423 
L 84.019793 19.75015 
L 84.131438 19.960415 
L 84.243082 20.485105 
L 84.354727 19.77031 
L 84.391942 19.966406 
L 84.429157 20.049508 
L 84.503586 19.734731 
L 84.540801 19.834056 
L 84.578016 19.886327 
L 84.615231 19.822175 
L 84.652446 19.730107 
L 84.689661 19.769504 
L 84.726876 19.860365 
L 84.764091 19.819701 
L 84.83852 19.725692 
L 84.875735 19.773785 
L 84.91295 19.821615 
L 84.950165 19.780598 
L 85.024595 19.724296 
L 85.06181 19.755254 
L 85.173454 19.7285 
L 85.657248 19.729551 
L 88.18786 19.713166 
L 88.560009 19.794555 
L 88.746083 20.357143 
L 88.820513 19.726692 
L 88.857728 19.845014 
L 88.894943 19.991458 
L 88.932158 19.963999 
L 89.006588 19.749448 
L 89.043803 19.869583 
L 89.118232 19.797477 
L 89.155447 19.72428 
L 89.192662 19.775807 
L 89.229877 19.867908 
L 89.267092 19.816163 
L 89.341522 19.722471 
L 89.378736 19.765775 
L 89.415951 19.819693 
L 89.490381 19.740438 
L 89.71367 19.716689 
L 90.160249 19.720873 
L 90.867332 19.71374 
L 92.839721 19.858432 
L 92.98858 20.394273 
L 93.06301 19.751625 
L 93.13744 19.923195 
L 93.174655 20.026012 
L 93.21187 19.847706 
L 93.249085 19.734166 
L 93.323514 19.843615 
L 93.360729 19.882008 
L 93.397944 19.773409 
L 93.435159 19.720056 
L 93.509589 19.790181 
L 93.621233 19.720967 
L 94.365531 19.720358 
L 96.48678 19.844925 
L 96.598424 20.400734 
L 96.635639 20.194762 
L 96.747284 19.740421 
L 96.784499 19.87038 
L 96.821714 19.93037 
L 96.858929 19.895851 
L 96.933358 19.729331 
L 96.970573 19.803947 
L 97.045003 19.82299 
L 97.119433 19.719542 
L 97.156648 19.75695 
L 97.268292 19.748671 
L 97.417152 19.760284 
L 98.08702 19.712234 
L 99.61283 19.709836 
L 99.947764 19.769731 
L 100.096624 20.317105 
L 100.133839 20.488787 
L 100.245483 19.751908 
L 100.282698 19.93002 
L 100.319913 20.060977 
L 100.357128 19.870588 
L 100.394343 19.743924 
L 100.468773 19.854096 
L 100.505987 19.905103 
L 100.543202 19.78223 
L 100.580417 19.720844 
L 100.654847 19.798673 
L 100.729277 19.753571 
L 100.840921 19.75564 
L 100.952566 19.727948 
L 101.250285 19.717504 
L 101.659649 19.712565 
L 103.557608 19.735126 
L 103.669253 19.921468 
L 103.743682 20.398656 
L 103.818112 20.258843 
L 103.892542 19.723779 
L 103.929757 19.833992 
L 104.004187 19.963379 
L 104.078616 19.727658 
L 104.115831 19.79272 
L 104.190261 19.849694 
L 104.264691 19.719316 
L 104.301906 19.761559 
L 104.41355 19.746154 
L 104.56241 19.767453 
L 104.971774 19.7157 
L 105.492782 19.709669 
L 107.093022 19.780097 
L 107.279097 20.385842 
L 107.353526 19.738322 
L 107.427956 19.938716 
L 107.465171 20.020408 
L 107.502386 19.842092 
L 107.539601 19.735309 
L 107.614031 19.834959 
L 107.651245 19.88925 
L 107.68846 19.788183 
L 107.76289 19.730701 
L 107.800105 19.777029 
L 107.83732 19.817416 
L 107.874535 19.772681 
L 108.023394 19.7689 
L 110.628436 19.767106 
L 110.777296 20.317598 
L 110.814511 20.490532 
L 110.926155 19.750645 
L 110.96337 19.930517 
L 111.000585 20.060682 
L 111.0378 19.879909 
L 111.11223 19.756314 
L 111.149445 19.850157 
L 111.18666 19.914073 
L 111.223875 19.799081 
L 111.298304 19.73595 
L 111.335519 19.790963 
L 111.372734 19.834259 
L 111.409949 19.76888 
L 111.521594 19.748894 
L 111.633238 19.740315 
L 111.782098 19.748837 
L 113.977776 19.793778 
L 114.089421 20.185125 
L 114.163851 20.147971 
L 114.275495 19.728685 
L 114.31271 19.818737 
L 114.349925 19.930461 
L 114.424355 19.803721 
L 114.498785 19.737168 
L 114.535999 19.816069 
L 114.610429 19.821909 
L 114.722074 19.728555 
L 114.759289 19.759463 
L 114.870933 19.738767 
L 115.019793 19.745911 
L 115.391942 19.72328 
L 115.950165 19.710677 
L 117.66205 19.851382 
L 117.810909 20.869679 
L 117.848124 20.237109 
L 117.885339 19.77603 
L 117.959769 20.149657 
L 117.996984 20.097819 
L 118.034199 19.795681 
L 118.108628 19.976494 
L 118.220273 19.790562 
L 118.257488 19.857002 
L 118.294703 19.895028 
L 118.331918 19.779482 
L 118.517992 19.722428 
L 118.592422 19.832127 
L 118.666852 19.73976 
L 119.225075 19.727836 
L 119.671654 19.71477 
L 121.681258 19.772244 
L 121.867332 20.337601 
L 121.904547 19.988773 
L 121.978977 19.740044 
L 122.016191 19.884452 
L 122.053406 20.013918 
L 122.090621 19.897779 
L 122.165051 19.725771 
L 122.202266 19.809861 
L 122.239481 19.915666 
L 122.276696 19.852649 
L 122.351125 19.715113 
L 122.38834 19.760303 
L 122.425555 19.841495 
L 122.499985 19.762546 
L 122.574415 19.730727 
L 122.61163 19.782328 
L 122.909349 19.743691 
L 123.207068 19.714869 
L 123.951366 19.708431 
L 125.067812 19.819595 
L 125.216672 20.252163 
L 125.253887 20.018725 
L 125.328316 19.719264 
L 125.365531 19.767372 
L 125.439961 19.933006 
L 125.477176 19.879845 
L 125.551606 19.717355 
L 125.588821 19.77103 
L 125.66325 19.841437 
L 125.700465 19.77029 
L 125.81211 19.743602 
L 125.923755 19.752022 
L 126.072614 19.741171 
L 126.333118 19.719065 
L 126.779697 19.716765 
L 127.821714 19.736529 
L 127.970573 19.882476 
L 128.082218 20.124137 
L 128.231077 19.726255 
L 128.268292 19.799904 
L 128.342722 19.870734 
L 128.379937 19.793352 
L 128.491582 19.732753 
L 128.603226 19.787838 
L 128.640441 19.746363 
L 128.789301 19.745722 
L 129.273094 19.719176 
L 129.942962 19.707744 
L 130.836119 19.802389 
L 130.947764 20.244248 
L 130.984979 20.527717 
L 131.022194 20.209493 
L 131.096624 19.730189 
L 131.133839 19.808661 
L 131.171053 20.002437 
L 131.245483 19.848827 
L 131.282698 19.737434 
L 131.319913 19.803418 
L 131.357128 19.924944 
L 131.431558 19.814382 
L 131.468773 19.726771 
L 131.505987 19.76874 
L 131.543202 19.874551 
L 131.617632 19.759958 
L 131.654847 19.714475 
L 131.692062 19.753339 
L 131.729277 19.823191 
L 131.803706 19.752821 
L 131.915351 19.756594 
L 132.175855 19.742069 
L 132.2875 19.715168 
L 132.2875 19.715168 
" clip-path="url(#pbc5901cd5d)" style="fill: none; stroke: #1f77b4; stroke-width: 1.5; stroke-linecap: square"/>
   </g>
   <g id="line2d_8">
    <path d="M 34.6375 19.776757 
L 136.9375 19.776757 
" clip-path="url(#pbc5901cd5d)" style="fill: none; stroke: #1f77b4; stroke-width: 1.5; stroke-linecap: square"/>
   </g>
   <g id="patch_3">
    <path d="M 34.6375 99.08625 
L 34.6375 15.92625 
" style="fill: none; stroke: #000000; stroke-width: 1.5; stroke-linejoin: miter; stroke-linecap: square"/>
   </g>
   <g id="patch_4">
    <path d="M 34.6375 99.08625 
L 136.9375 99.08625 
" style="fill: none; stroke: #000000; stroke-width: 1.5; stroke-linejoin: miter; stroke-linecap: square"/>
   </g>
  </g>
 </g>
 <defs>
  <clipPath id="pbc5901cd5d">
   <rect x="34.6375" y="15.92625" width="102.3" height="83.16"/>
  </clipPath>
 </defs>
</svg>
