<?xml version="1.0" encoding="utf-8" standalone="no"?>
<!DOCTYPE svg PUBLIC "-//W3C//DTD SVG 1.1//EN"
  "http://www.w3.org/Graphics/SVG/1.1/DTD/svg11.dtd">
<svg xmlns:xlink="http://www.w3.org/1999/xlink" width="389.2755pt" height="105.461877pt" viewBox="0 0 389.2755 105.461877" xmlns="http://www.w3.org/2000/svg" version="1.1">
 <metadata>
  <rdf:RDF xmlns:dc="http://purl.org/dc/elements/1.1/" xmlns:cc="http://creativecommons.org/ns#" xmlns:rdf="http://www.w3.org/1999/02/22-rdf-syntax-ns#">
   <cc:Work>
    <dc:type rdf:resource="http://purl.org/dc/dcmitype/StillImage"/>
    <dc:date>2025-10-29T05:00:12.691346</dc:date>
    <dc:format>image/svg+xml</dc:format>
    <dc:creator>
     <cc:Agent>
      <dc:title>Matplotlib v3.9.2, https://matplotlib.org/</dc:title>
     </cc:Agent>
    </dc:creator>
   </cc:Work>
  </rdf:RDF>
 </metadata>
 <defs>
  <style type="text/css">*{stroke-linejoin: round; stroke-linecap: butt}</style>
 </defs>
 <g id="figure_1">
  <g id="patch_1">
   <path d="M 0 105.461877 
L 389.2755 105.461877 
L 389.2755 0 
L 0 0 
z
" style="fill: #ffffff"/>
  </g>
  <g id="axes_1">
   <g id="patch_2">
    <path d="M 55.355 72.629377 
L 129.8355 72.629377 
L 129.8355 9.669625 
L 55.355 9.669625 
z
" style="fill: #ffffff"/>
   </g>
   <g id="matplotlib.axis_1">
    <g id="xtick_1">
     <g id="line2d_1">
      <defs>
       <path id="m8f4f491934" d="M 0 0 
L 0 3.5 
" style="stroke: #000000; stroke-width: 1.5"/>
      </defs>
      <g>
       <use xlink:href="#m8f4f491934" x="58.740477" y="72.629377" style="stroke: #000000; stroke-width: 1.5"/>
      </g>
     </g>
     <g id="text_1">
      <text style="font: 8px 'Arial', sans-serif, serif; text-anchor: middle" x="58.740477" y="85.355627" transform="rotate(-0 58.740477 85.355627)">0</text>
     </g>
    </g>
    <g id="xtick_2">
     <g id="line2d_2">
      <g>
       <use xlink:href="#m8f4f491934" x="85.835133" y="72.629377" style="stroke: #000000; stroke-width: 1.5"/>
      </g>
     </g>
     <g id="text_2">
      <text style="font: 8px 'Arial', sans-serif, serif; text-anchor: middle" x="85.835133" y="85.355627" transform="rotate(-0 85.835133 85.355627)">1000</text>
     </g>
    </g>
    <g id="xtick_3">
     <g id="line2d_3">
      <g>
       <use xlink:href="#m8f4f491934" x="112.929789" y="72.629377" style="stroke: #000000; stroke-width: 1.5"/>
      </g>
     </g>
     <g id="text_3">
      <text style="font: 8px 'Arial', sans-serif, serif; text-anchor: middle" x="112.929789" y="85.355627" transform="rotate(-0 112.929789 85.355627)">2000</text>
     </g>
    </g>
    <g id="text_4">
     <text style="font: 8px 'Arial', sans-serif, serif; text-anchor: middle" x="92.59525" y="96.671877" transform="rotate(-0 92.59525 96.671877)">Iteration</text>
    </g>
   </g>
   <g id="matplotlib.axis_2">
    <g id="ytick_1">
     <g id="line2d_4">
      <defs>
       <path id="m26fbab4a75" d="M 0 0 
L -3.5 0 
" style="stroke: #000000; stroke-width: 1.5"/>
      </defs>
      <g>
       <use xlink:href="#m26fbab4a75" x="55.355" y="70.169514" style="stroke: #000000; stroke-width: 1.5"/>
      </g>
     </g>
     <g id="text_5">
      <text style="font: 8px 'Arial', sans-serif, serif; text-anchor: end" x="48.355" y="73.032639" transform="rotate(-0 48.355 73.032639)">0.00015</text>
     </g>
    </g>
    <g id="ytick_2">
     <g id="line2d_5">
      <g>
       <use xlink:href="#m26fbab4a75" x="55.355" y="46.820758" style="stroke: #000000; stroke-width: 1.5"/>
      </g>
     </g>
     <g id="text_6">
      <text style="font: 8px 'Arial', sans-serif, serif; text-anchor: end" x="48.355" y="49.683883" transform="rotate(-0 48.355 49.683883)">0.00020</text>
     </g>
    </g>
    <g id="ytick_3">
     <g id="line2d_6">
      <g>
       <use xlink:href="#m26fbab4a75" x="55.355" y="23.472003" style="stroke: #000000; stroke-width: 1.5"/>
      </g>
     </g>
     <g id="text_7">
      <text style="font: 8px 'Arial', sans-serif, serif; text-anchor: end" x="48.355" y="26.335128" transform="rotate(-0 48.355 26.335128)">0.00025</text>
     </g>
    </g>
    <g id="text_8">
     <!-- $g_L$ (S/cm²) -->
     <g transform="translate(13.04 59.429501) rotate(-90)">
      <text>
       <tspan style="font: 8px 'Arial'" x="0 8.101309 10.323966 12.988028 18.323966 20.546622 24.546622 31.210684 33.874747" y="-0.171875">g (S/cm²)</tspan>
       <tspan style="font: 5.6px 'Arial'" x="4.588606" y="2.217625">L</tspan>
      </text>
     </g>
    </g>
   </g>
   <g id="line2d_7">
    <path d="M 58.740477 12.531432 
L 58.848856 48.232834 
L 58.903045 44.314127 
L 58.93014 42.393739 
L 58.984329 44.556981 
L 59.011424 47.150724 
L 59.065613 43.170838 
L 59.092708 42.35949 
L 59.119802 43.707925 
L 59.255276 53.05517 
L 59.309465 51.551855 
L 59.363654 50.365721 
L 59.390749 50.797969 
L 59.499128 53.909132 
L 59.553317 52.70005 
L 59.634601 51.103292 
L 59.661696 51.484024 
L 59.74298 52.915512 
L 59.797169 52.22735 
L 59.878453 51.2663 
L 59.932642 51.613639 
L 59.959737 51.598342 
L 60.528725 47.146015 
L 60.582914 46.957946 
L 60.826766 45.683771 
L 60.935144 45.348201 
L 61.124807 44.925073 
L 61.422848 44.652898 
L 61.802173 44.872715 
L 62.046025 45.269748 
L 62.615013 46.598864 
L 64.213598 50.485422 
L 65.2161 52.3201 
L 66.02894 53.369362 
L 66.814685 54.022384 
L 68.061039 54.707107 
L 68.575837 54.739311 
L 69.307393 54.775489 
L 69.822192 55.045558 
L 70.445369 55.364792 
L 71.55625 55.650014 
L 72.558752 56.298294 
L 73.832201 57.441012 
L 76.026868 59.791637 
L 76.324909 60.22035 
L 76.379098 60.399647 
L 76.406193 59.902768 
L 76.487477 60.931494 
L 76.460382 59.767024 
L 76.541666 60.784068 
L 76.595856 60.513272 
L 76.62295 61.196337 
L 76.704234 61.13242 
L 76.731329 60.936631 
L 76.758424 61.455581 
L 76.785518 61.048286 
L 76.893897 61.638472 
L 76.920991 61.31508 
L 77.002275 61.450926 
L 77.02937 61.755577 
L 77.110654 61.683043 
L 77.137749 61.627457 
L 77.219033 61.843373 
L 77.246127 61.747341 
L 77.489979 61.980314 
L 77.517074 61.86414 
L 77.598358 61.963903 
L 77.78802 62.051006 
L 78.113156 62.212437 
L 78.19444 62.20291 
L 78.357008 62.292806 
L 78.682144 62.484504 
L 78.763428 62.47145 
L 78.898901 62.762632 
L 78.953091 62.96474 
L 78.980185 62.238762 
L 79.061469 63.266258 
L 79.088564 62.775856 
L 79.196943 63.631843 
L 79.278227 63.599483 
L 79.305321 63.314227 
L 79.332416 63.86468 
L 79.359511 63.420201 
L 79.467889 64.000703 
L 79.494984 63.65492 
L 79.522078 64.035067 
L 79.576268 63.922896 
L 79.657552 64.158832 
L 79.630457 63.831539 
L 79.711741 64.093963 
L 81.201947 64.357732 
L 81.33742 64.471079 
L 81.39161 64.515046 
L 81.418704 64.336538 
L 81.472894 64.277105 
L 81.499988 64.719573 
L 81.554178 64.956127 
L 81.581272 64.041611 
L 81.608367 65.132895 
L 81.689651 64.917067 
L 81.716746 64.851267 
L 81.79803 65.450409 
L 81.770935 64.833015 
L 81.852219 65.352882 
L 81.906408 65.230993 
L 81.933503 65.671463 
L 81.960598 65.299606 
L 82.041881 65.557566 
L 82.123165 65.827329 
L 82.096071 65.47386 
L 82.177355 65.776866 
L 82.258639 65.854205 
L 82.285733 65.630643 
L 82.312828 65.872009 
L 82.394112 65.818957 
L 82.448301 65.875902 
L 82.475396 65.733838 
L 82.502491 65.872498 
L 82.583775 65.829741 
L 82.637964 65.86768 
L 82.665059 65.758702 
L 82.692153 65.870588 
L 82.773437 65.816402 
L 82.90891 65.774597 
L 83.017289 65.815192 
L 83.206952 65.7751 
L 83.342425 65.77389 
L 83.477898 65.793413 
L 83.613372 65.74272 
L 83.748845 65.807038 
L 83.830129 65.70877 
L 83.884318 65.679489 
L 83.911413 65.898932 
L 83.965602 65.998729 
L 83.992697 65.497101 
L 84.073981 66.433762 
L 84.046886 65.334399 
L 84.12817 66.422924 
L 84.209454 66.640322 
L 84.236549 66.087633 
L 84.344927 66.849042 
L 84.372022 66.54168 
L 84.399117 67.045517 
L 84.426211 66.632955 
L 84.53459 67.129678 
L 84.561684 66.806421 
L 84.588779 67.201077 
L 84.642968 67.105146 
L 84.670063 67.138525 
L 84.697158 66.958726 
L 84.724252 67.25614 
L 84.751347 66.96718 
L 84.859726 67.226559 
L 84.88682 67.041535 
L 84.968104 67.159224 
L 85.184862 67.12857 
L 85.320335 67.056532 
L 85.482903 67.064136 
L 85.645471 66.964387 
L 85.726755 66.976612 
L 85.753849 66.941398 
L 86.024796 66.872751 
L 86.295742 66.785417 
L 86.431216 66.79158 
L 86.566689 66.714446 
L 86.620878 66.691525 
L 86.647973 66.797601 
L 86.702162 66.82623 
L 86.729257 66.600107 
L 86.783446 66.485176 
L 86.810541 67.068743 
L 86.86473 67.345832 
L 86.891825 66.232966 
L 87.000204 67.564813 
L 87.027298 67.066229 
L 87.054393 67.938505 
L 87.081487 67.40945 
L 87.189866 68.210109 
L 87.244055 68.103809 
L 87.298245 67.933204 
L 87.325339 68.368829 
L 87.352434 67.995559 
L 87.433718 68.126084 
L 87.460813 68.443952 
L 87.487907 68.091156 
L 87.542097 68.284777 
L 87.569191 68.226935 
L 87.596286 68.45263 
L 87.623381 68.16299 
L 87.67757 68.292802 
L 87.731759 68.395678 
L 87.758854 68.20434 
L 87.785949 68.353961 
L 87.867233 68.308439 
L 87.948516 68.20118 
L 88.002706 68.217183 
L 88.165274 68.129659 
L 88.219463 68.063703 
L 88.246558 68.141007 
L 88.409126 67.981506 
L 88.517504 67.952707 
L 88.734262 67.79729 
L 88.869735 67.739257 
L 89.384533 67.496812 
L 89.628385 67.416463 
L 89.818048 67.315946 
L 89.899332 67.352301 
L 89.980616 67.18966 
L 90.034805 67.090781 
L 90.0619 67.516858 
L 90.116089 67.801088 
L 90.143184 66.644671 
L 90.170278 68.174882 
L 90.251562 68.024337 
L 90.278657 67.710221 
L 90.387036 68.899202 
L 90.41413 68.3286 
L 90.441225 69.069025 
L 90.495414 68.854373 
L 90.576698 69.259486 
L 90.549603 68.782274 
L 90.603793 69.08897 
L 90.630887 69.070113 
L 90.712171 69.363612 
L 90.685077 68.973774 
L 90.739266 69.178777 
L 90.766361 69.151005 
L 90.793455 69.394877 
L 90.82055 69.049414 
L 90.874739 69.223138 
L 90.928929 69.368477 
L 90.956023 69.085103 
L 91.064402 69.265235 
L 91.172781 69.058649 
L 91.199875 69.14531 
L 91.281159 69.050977 
L 91.497916 68.848733 
L 91.525011 68.910564 
L 91.606295 68.835794 
L 91.768863 68.64078 
L 91.795958 68.665488 
L 91.850147 68.59784 
L 92.446229 68.123196 
L 93.069406 67.74576 
L 93.421637 67.516233 
L 93.475826 67.469141 
L 93.502921 67.571398 
L 93.55711 67.596534 
L 93.584205 67.303707 
L 93.638394 67.096074 
L 93.665489 67.966284 
L 93.692584 66.812863 
L 93.719678 68.379029 
L 93.746773 67.006715 
L 93.855152 68.994419 
L 93.882246 68.210592 
L 93.936435 69.198559 
L 93.96353 68.58077 
L 94.071909 69.604807 
L 94.099003 69.088426 
L 94.180287 69.376244 
L 94.207382 69.720057 
L 94.234477 69.336716 
L 94.288666 69.585617 
L 94.342855 69.76757 
L 94.36995 69.429656 
L 94.478329 69.734178 
L 94.586707 69.407918 
L 94.613802 69.617331 
L 94.695086 69.510474 
L 94.77637 69.360703 
L 94.803464 69.375368 
L 94.884748 69.350837 
L 95.047316 69.121921 
L 95.074411 69.169842 
L 95.1286 69.072892 
L 95.155695 69.096635 
L 95.318263 68.859272 
L 95.345358 68.891591 
L 95.399547 68.805772 
L 96.971037 67.434797 
L 97.025226 67.348061 
L 97.052321 67.615439 
L 97.10651 67.778297 
L 97.133605 66.918341 
L 97.214889 68.438883 
L 97.187794 66.770222 
L 97.269078 68.190464 
L 97.323267 67.838429 
L 97.431646 69.356382 
L 97.458741 68.672725 
L 97.540025 69.071533 
L 97.567119 69.582382 
L 97.648403 69.501714 
L 97.702593 69.686841 
L 97.729687 69.337253 
L 97.838066 69.732832 
L 97.865161 69.384012 
L 97.946445 69.416229 
L 97.973539 69.65724 
L 98.000634 69.367261 
L 98.054823 69.495775 
L 98.136107 69.326917 
L 98.109013 69.514993 
L 98.163202 69.400151 
L 98.542527 68.975201 
L 98.569622 69.032106 
L 98.73219 68.771986 
L 98.759284 68.797258 
L 98.813474 68.706757 
L 99.08442 68.415948 
L 99.301177 68.173985 
L 99.517935 67.978679 
L 100.195301 67.294255 
L 100.222396 67.518516 
L 100.276585 67.627759 
L 100.30368 66.915127 
L 100.384964 68.29459 
L 100.357869 66.668801 
L 100.439153 68.216225 
L 100.466248 68.159756 
L 100.493342 67.822562 
L 100.601721 69.04412 
L 100.628816 68.484799 
L 100.65591 69.330362 
L 100.710099 69.101996 
L 100.791383 69.534067 
L 100.764289 68.896015 
L 100.818478 69.169026 
L 100.899762 69.127078 
L 100.926857 69.65879 
L 101.035235 69.236137 
L 101.06233 69.694581 
L 101.143614 69.578332 
L 101.170709 69.247037 
L 101.197803 69.611603 
L 101.251993 69.418451 
L 101.306182 69.245202 
L 101.333277 69.501714 
L 101.441655 69.221582 
L 101.46875 69.370903 
L 101.495845 69.180544 
L 101.550034 69.208303 
L 101.712602 69.044052 
L 101.739696 69.068889 
L 101.902264 68.793309 
L 101.929359 68.852266 
L 101.956454 68.71801 
L 101.983548 68.763532 
L 102.200306 68.446684 
L 102.417063 68.221988 
L 102.877672 67.722255 
L 103.013145 67.612809 
L 103.202808 67.38161 
L 103.256997 67.316985 
L 103.284092 67.392516 
L 103.419565 67.006715 
L 103.473754 66.754104 
L 103.500849 67.785269 
L 103.527944 66.548074 
L 103.555038 68.114396 
L 103.582133 66.899185 
L 103.690512 68.679065 
L 103.717606 67.905554 
L 103.771796 68.719641 
L 103.79889 68.302683 
L 103.825985 69.07771 
L 103.907269 69.0061 
L 103.934364 68.696937 
L 103.961458 69.241485 
L 103.988553 68.758361 
L 104.096931 69.3 
L 104.124026 68.893976 
L 104.20531 69.082249 
L 104.259499 68.92056 
L 104.286594 69.252582 
L 104.394973 68.903082 
L 104.422067 69.140295 
L 104.503351 68.989465 
L 104.638825 68.807879 
L 104.693014 68.809381 
L 104.855582 68.598866 
L 104.882677 68.62263 
L 105.045244 68.368075 
L 105.126528 68.313107 
L 105.289096 68.060951 
L 105.37038 68.003754 
L 105.560043 67.759779 
L 105.912273 67.352641 
L 105.939368 67.387168 
L 105.966463 67.288132 
L 105.993557 67.342081 
L 106.129031 67.042235 
L 106.18322 66.895339 
L 106.210315 67.405149 
L 106.264504 67.663047 
L 106.291599 66.458518 
L 106.318693 67.946292 
L 106.399977 67.773873 
L 106.427072 67.5504 
L 106.454167 68.434024 
L 106.535451 68.341899 
L 106.562545 68.180237 
L 106.643829 68.759387 
L 106.616735 68.167183 
L 106.670924 68.486233 
L 106.752208 68.42464 
L 106.779302 68.920084 
L 106.806397 68.5049 
L 106.887681 68.626999 
L 106.914776 68.914505 
L 106.94187 68.540657 
L 106.99606 68.637505 
L 107.077344 68.554051 
L 107.104438 68.796238 
L 107.131533 68.533345 
L 107.212817 68.571753 
L 107.239912 68.63635 
L 107.267006 68.473845 
L 107.294101 68.608563 
L 107.40248 68.420528 
L 107.429574 68.42464 
L 107.565047 68.214642 
L 107.619237 68.207982 
L 107.808899 67.940992 
L 107.998562 67.675224 
L 108.025657 67.715541 
L 108.188225 67.499652 
L 108.459171 67.177476 
L 108.594644 67.076694 
L 108.730118 66.767694 
L 108.784307 66.579469 
L 108.811402 67.232478 
L 108.865591 67.558643 
L 108.892686 66.168321 
L 109.001064 67.990877 
L 109.028159 67.32637 
L 109.055254 68.481646 
L 109.082348 67.92645 
L 109.272011 68.898047 
L 109.299105 68.431972 
L 109.3262 68.988915 
L 109.380389 68.850567 
L 109.434579 68.649247 
L 109.461673 69.07419 
L 109.488768 68.678998 
L 109.570052 68.734094 
L 109.597147 69.017584 
L 109.624241 68.639965 
L 109.678431 68.768302 
L 109.705525 68.726871 
L 109.73262 68.891659 
L 109.759715 68.598044 
L 109.786809 68.8558 
L 109.895188 68.561838 
L 109.922283 68.700688 
L 109.949377 68.50422 
L 109.976472 68.606586 
L 110.13904 68.308513 
L 110.166134 68.386844 
L 110.193229 68.28265 
L 110.220324 68.276133 
L 110.301608 68.230441 
L 110.464176 67.924099 
L 110.49127 67.946442 
L 110.518365 67.842364 
L 110.54546 67.874594 
L 110.708028 67.625333 
L 110.951879 67.359518 
L 111.141542 67.079833 
L 111.168637 67.124384 
L 111.195731 67.008584 
L 111.222826 67.077183 
L 111.358299 66.713114 
L 111.412489 66.518637 
L 111.439583 67.251131 
L 111.466678 66.249621 
L 111.493773 67.514357 
L 111.520867 66.297284 
L 111.629246 67.765515 
L 111.656341 67.190911 
L 111.683435 68.146634 
L 111.71053 67.490288 
L 111.818908 68.34635 
L 111.846003 67.778847 
L 111.873098 68.351698 
L 111.927287 68.198707 
L 111.981476 68.013736 
L 112.008571 68.47782 
L 112.035666 68.027579 
L 112.11695 68.247314 
L 112.171139 68.079047 
L 112.198234 68.431693 
L 112.225328 68.080284 
L 112.306612 68.161203 
L 112.333707 68.275182 
L 112.360802 68.055378 
L 112.387896 68.260701 
L 112.414991 68.031085 
L 112.496275 68.079808 
L 112.550464 67.95781 
L 112.577559 68.052212 
L 112.713032 67.814686 
L 112.848505 67.625061 
L 112.8756 67.704207 
L 113.038168 67.443257 
L 113.363304 66.952372 
L 113.390399 67.103332 
L 113.471682 66.737577 
L 113.525872 66.557561 
L 113.552966 67.296062 
L 113.580061 66.342168 
L 113.607156 67.494039 
L 113.63425 66.451695 
L 113.742629 67.598199 
L 113.769724 67.112533 
L 113.796818 67.915006 
L 113.823913 67.213967 
L 113.932292 67.930235 
L 113.959386 67.538685 
L 113.986481 68.098998 
L 114.013576 67.55303 
L 114.04067 68.098516 
L 114.121954 67.997625 
L 114.176144 68.138527 
L 114.203238 67.713822 
L 114.230333 68.136121 
L 114.311617 67.924445 
L 114.365806 68.004923 
L 114.392901 67.754112 
L 114.419995 68.008783 
L 114.44709 67.729581 
L 114.501279 67.750728 
L 114.528374 67.850647 
L 114.609658 67.802815 
L 114.745131 67.521153 
L 114.772226 67.631007 
L 114.85351 67.499727 
L 115.043173 67.196347 
L 115.070267 67.304197 
L 115.097362 67.126409 
L 115.124457 67.239226 
L 115.25993 66.917295 
L 115.287024 67.087573 
L 115.314119 66.82623 
L 115.341214 67.072719 
L 115.395403 67.107586 
L 115.422498 66.545193 
L 115.476687 66.349004 
L 115.503782 67.420914 
L 115.530876 66.425391 
L 115.557971 67.451167 
L 115.61216 67.295641 
L 115.66635 67.108204 
L 115.693444 67.73622 
L 115.720539 67.095871 
L 115.747634 67.803983 
L 115.801823 67.705376 
L 115.856012 67.537917 
L 115.910202 67.427574 
L 115.937296 67.916318 
L 115.964391 67.448598 
L 116.045675 67.774709 
L 116.154053 67.533976 
L 116.181148 67.833475 
L 116.208243 67.516919 
L 116.262432 67.550264 
L 116.289527 67.673777 
L 116.370811 67.617926 
L 116.506284 67.326302 
L 116.533379 67.517755 
L 116.560473 67.291054 
L 116.587568 67.440417 
L 116.723041 67.217583 
L 116.966893 66.847921 
L 116.993988 67.004962 
L 117.102366 67.031212 
L 117.129461 66.440171 
L 117.18365 66.234447 
L 117.210745 67.362501 
L 117.23784 66.352877 
L 117.264934 67.371192 
L 117.319124 67.194675 
L 117.373313 67.000708 
L 117.400408 67.727026 
L 117.427502 67.033931 
L 117.454597 67.748519 
L 117.508786 67.609411 
L 117.535881 67.668585 
L 117.59007 67.859413 
L 117.617165 67.359164 
L 117.64426 67.91659 
L 117.725543 67.672527 
L 117.752638 67.666159 
L 117.806827 67.528777 
L 117.833922 67.89638 
L 117.861017 67.501738 
L 117.942301 67.719897 
L 118.050679 67.498544 
L 118.077774 67.698268 
L 118.104869 67.436319 
L 118.131963 67.65634 
L 118.267437 67.401744 
L 118.728046 66.797879 
L 118.75514 66.97899 
L 118.863519 67.010962 
L 118.890614 66.411942 
L 118.944803 66.229167 
L 119.026087 67.318032 
L 119.053182 66.847853 
L 119.107371 67.332771 
L 119.134466 66.983665 
L 119.21575 67.678479 
L 119.188655 66.971162 
L 119.269939 67.577554 
L 119.351223 67.68007 
L 119.378317 67.295091 
L 119.405412 67.776292 
L 119.486696 67.425005 
L 119.595075 67.669965 
L 119.676359 67.347986 
L 119.730548 67.369242 
L 119.757643 67.531686 
L 119.838927 67.428409 
L 119.9744 67.151905 
L 120.001495 67.351397 
L 120.028589 67.095171 
L 120.055684 67.289872 
L 120.191157 66.979608 
L 120.218252 67.09267 
L 120.245346 66.936369 
L 120.272441 67.021991 
L 120.407914 66.773368 
L 120.435009 66.816084 
L 120.462104 66.703865 
L 120.489198 66.761395 
L 120.624672 66.419968 
L 120.678861 66.2506 
L 120.705956 66.816363 
L 120.760145 67.064 
L 120.78724 65.84974 
L 120.814334 67.295363 
L 120.895618 67.147515 
L 120.922713 66.943987 
L 121.003997 67.753011 
L 121.031092 67.469073 
L 121.112375 67.388351 
L 121.13947 67.982199 
L 121.166565 67.488909 
L 121.247849 67.719211 
L 121.302038 67.586565 
L 121.329133 68.010162 
L 121.356227 67.618551 
L 121.437511 67.725014 
L 121.491701 67.564331 
L 121.518795 67.889286 
L 121.54589 67.543747 
L 121.627174 67.662911 
L 121.654269 67.685465 
L 121.789742 67.413412 
L 121.816837 67.553512 
L 121.843931 67.388697 
L 121.871026 67.451446 
L 122.033594 67.151844 
L 122.060688 67.280827 
L 122.087783 67.089741 
L 122.114878 67.203516 
L 122.250351 66.921759 
L 122.277446 66.951326 
L 122.30454 66.861702 
L 122.331635 66.871569 
L 122.575487 66.532132 
L 123.090285 65.827044 
L 123.11738 65.9736 
L 123.171569 66.068259 
L 123.198664 65.340888 
L 123.279948 67.010616 
L 123.252853 64.875269 
L 123.334137 66.751372 
L 123.388327 66.367589 
L 123.496705 68.338399 
L 123.5238 67.495079 
L 123.605084 67.865556 
L 123.713462 68.631505 
L 123.740557 68.181195 
L 123.821841 68.452908 
L 123.848936 68.610269 
L 123.87603 68.329008 
L 123.903125 68.591011 
L 124.011504 68.287937 
L 124.038598 68.531776 
L 124.065693 68.250202 
L 124.119882 68.363964 
L 124.174072 68.446956 
L 124.28245 68.14272 
L 124.309545 68.225698 
L 124.33664 67.992943 
L 124.363734 68.147116 
L 124.526302 67.804466 
L 124.553397 67.842302 
L 124.580491 67.729853 
L 124.607586 67.744238 
L 124.851438 67.341456 
L 125.474615 66.525453 
L 125.610088 66.21773 
L 125.664278 66.077881 
L 125.691372 66.434537 
L 125.745562 66.616959 
L 125.772656 65.580127 
L 125.85394 66.992533 
L 125.881035 66.404699 
L 125.989414 67.509988 
L 126.070698 67.467891 
L 126.097792 67.055839 
L 126.124887 67.725639 
L 126.151982 67.119994 
L 126.26036 67.724049 
L 126.287455 67.298638 
L 126.314549 67.782095 
L 126.368739 67.649905 
L 126.422928 67.429381 
L 126.450023 67.712776 
L 126.450023 67.712776 
" clip-path="url(#pad5d97d46f)" style="fill: none; stroke: #000000; stroke-width: 1.5; stroke-linecap: square"/>
   </g>
   <g id="line2d_8">
    <path d="M 55.355 46.820758 
L 129.8355 46.820758 
" clip-path="url(#pad5d97d46f)" style="fill: none; stroke-dasharray: 5.55,2.4; stroke-dashoffset: 0; stroke: #000000; stroke-width: 1.5"/>
   </g>
   <g id="patch_3">
    <path d="M 55.355 72.629377 
L 55.355 9.669625 
" style="fill: none; stroke: #000000; stroke-width: 1.5; stroke-linejoin: miter; stroke-linecap: square"/>
   </g>
   <g id="patch_4">
    <path d="M 55.355 72.629377 
L 129.8355 72.629377 
" style="fill: none; stroke: #000000; stroke-width: 1.5; stroke-linejoin: miter; stroke-linecap: square"/>
   </g>
   <g id="legend_1">
    <g id="line2d_9">
     <path d="M 65.1055 19.795875 
L 73.1055 19.795875 
L 81.1055 19.795875 
" style="fill: none; stroke-dasharray: 5.55,2.4; stroke-dashoffset: 0; stroke: #000000; stroke-width: 1.5"/>
    </g>
    <g id="text_9">
     <text style="font: 8px 'Arial', sans-serif, serif; text-anchor: start" x="87.5055" y="22.595875" transform="rotate(-0 87.5055 22.595875)">true value</text>
    </g>
   </g>
  </g>
  <g id="axes_2">
   <g id="patch_5">
    <path d="M 181.475 72.629377 
L 255.9555 72.629377 
L 255.9555 9.669625 
L 181.475 9.669625 
z
" style="fill: #ffffff"/>
   </g>
   <g id="matplotlib.axis_3">
    <g id="xtick_4">
     <g id="line2d_10">
      <g>
       <use xlink:href="#m8f4f491934" x="184.860477" y="72.629377" style="stroke: #000000; stroke-width: 1.5"/>
      </g>
     </g>
     <g id="text_10">
      <text style="font: 8px 'Arial', sans-serif, serif; text-anchor: middle" x="184.860477" y="85.355627" transform="rotate(-0 184.860477 85.355627)">0</text>
     </g>
    </g>
    <g id="xtick_5">
     <g id="line2d_11">
      <g>
       <use xlink:href="#m8f4f491934" x="211.955133" y="72.629377" style="stroke: #000000; stroke-width: 1.5"/>
      </g>
     </g>
     <g id="text_11">
      <text style="font: 8px 'Arial', sans-serif, serif; text-anchor: middle" x="211.955133" y="85.355627" transform="rotate(-0 211.955133 85.355627)">1000</text>
     </g>
    </g>
    <g id="xtick_6">
     <g id="line2d_12">
      <g>
       <use xlink:href="#m8f4f491934" x="239.049789" y="72.629377" style="stroke: #000000; stroke-width: 1.5"/>
      </g>
     </g>
     <g id="text_12">
      <text style="font: 8px 'Arial', sans-serif, serif; text-anchor: middle" x="239.049789" y="85.355627" transform="rotate(-0 239.049789 85.355627)">2000</text>
     </g>
    </g>
    <g id="text_13">
     <text style="font: 8px 'Arial', sans-serif, serif; text-anchor: middle" x="218.71525" y="96.671877" transform="rotate(-0 218.71525 96.671877)">Iteration</text>
    </g>
   </g>
   <g id="matplotlib.axis_4">
    <g id="ytick_4">
     <g id="line2d_13">
      <g>
       <use xlink:href="#m26fbab4a75" x="181.475" y="51.23932" style="stroke: #000000; stroke-width: 1.5"/>
      </g>
     </g>
     <g id="text_14">
      <text style="font: 8px 'Arial', sans-serif, serif; text-anchor: end" x="174.475" y="54.102445" transform="rotate(-0 174.475 54.102445)">0.01</text>
     </g>
    </g>
    <g id="ytick_5">
     <g id="line2d_14">
      <g>
       <use xlink:href="#m26fbab4a75" x="181.475" y="10.063125" style="stroke: #000000; stroke-width: 1.5"/>
      </g>
     </g>
     <g id="text_15">
      <text style="font: 8px 'Arial', sans-serif, serif; text-anchor: end" x="174.475" y="12.92625" transform="rotate(-0 174.475 12.92625)">0.02</text>
     </g>
    </g>
    <g id="text_16">
     <!-- $g_{Na}$ (S/cm²) -->
     <g transform="translate(152.42625 61.469501) rotate(-90)">
      <text>
       <tspan style="font: 8px 'Arial'" x="0 12.14545 14.368106 17.032169 22.368106 24.590763 28.590763 35.254825 37.918887" y="-0.171875">g (S/cm²)</tspan>
       <tspan style="font: 5.6px 'Arial'" x="4.588606 8.632747" y="2.217625">Na</tspan>
      </text>
     </g>
    </g>
   </g>
   <g id="line2d_15">
    <path d="M 184.860477 31.261299 
L 184.941761 12.531432 
L 184.995951 17.599607 
L 185.185613 31.554108 
L 185.40237 39.62057 
L 185.592033 43.670049 
L 186.594535 56.04881 
L 187.136428 59.874741 
L 187.624132 61.65436 
L 188.003457 62.341138 
L 188.436972 62.667592 
L 188.978865 62.764252 
L 191.417384 63.017207 
L 192.636644 63.405916 
L 193.774619 64.001369 
L 194.8855 64.858734 
L 197.811723 67.083913 
L 199.329024 67.852091 
L 201.388217 68.639223 
L 204.124778 69.424477 
L 205.12728 69.466496 
L 205.154375 69.592942 
L 205.235659 69.567413 
L 205.316943 69.559034 
L 205.425321 69.673314 
L 205.452416 69.622138 
L 205.560794 69.695019 
L 205.587889 69.66267 
L 205.723362 69.688958 
L 205.88593 69.728909 
L 206.048498 69.716089 
L 206.265256 69.718235 
L 206.509107 69.695441 
L 206.888433 69.667182 
L 207.619988 69.610634 
L 207.674178 69.589099 
L 207.755462 69.713357 
L 207.86384 69.664866 
L 207.945124 69.741386 
L 207.972219 69.726039 
L 208.378639 69.7218 
L 208.514112 69.724981 
L 208.785059 69.689541 
L 209.056005 69.623503 
L 209.679182 69.531312 
L 210.085602 69.448802 
L 210.139791 69.420366 
L 210.166886 69.544945 
L 210.193981 69.406028 
L 210.275265 69.513524 
L 210.681684 69.567031 
L 210.790063 69.51849 
L 210.925536 69.513286 
L 211.331956 69.403378 
L 211.602903 69.306545 
L 212.253175 69.150805 
L 212.930541 68.969175 
L 213.011825 69.116872 
L 212.98473 68.934815 
L 213.066014 69.095104 
L 213.147298 69.136119 
L 213.174393 69.030824 
L 213.282771 69.168638 
L 213.39115 69.108919 
L 213.472434 69.141053 
L 213.499529 69.088715 
L 213.743381 69.082027 
L 213.905949 68.990027 
L 214.1498 68.890999 
L 214.502031 68.722113 
L 214.854262 68.606088 
L 215.450344 68.435574 
L 216.1819 68.21956 
L 216.236089 68.168785 
L 216.263184 68.371197 
L 216.290278 68.139488 
L 216.317373 68.39238 
L 216.371562 68.307368 
L 216.452846 68.441832 
L 216.425752 68.280188 
L 216.479941 68.398924 
L 216.53413 68.497368 
L 216.561225 68.394963 
L 216.669603 68.49259 
L 216.777982 68.391937 
L 216.805077 68.454299 
L 216.886361 68.414793 
L 217.048929 68.327063 
L 217.157307 68.310681 
L 217.34697 68.182003 
L 217.75339 67.929288 
L 218.051431 67.785131 
L 219.704205 67.331282 
L 219.758394 67.35679 
L 219.785489 67.192851 
L 219.866773 67.458658 
L 219.839678 67.149358 
L 219.893868 67.260578 
L 220.002246 67.53695 
L 220.029341 67.471921 
L 220.056435 67.448559 
L 220.08353 67.606054 
L 220.164814 67.577402 
L 220.246098 67.517498 
L 220.219003 67.611963 
L 220.273193 67.546468 
L 220.435761 67.543997 
L 220.598329 67.43359 
L 220.625423 67.474458 
L 220.706707 67.418348 
L 220.869275 67.26034 
L 221.031843 67.150633 
L 221.356979 66.931208 
L 222.115629 66.614742 
L 223.172321 66.302067 
L 223.22651 66.253474 
L 223.253605 66.432971 
L 223.2807 66.192795 
L 223.307794 66.502082 
L 223.334889 66.199113 
L 223.443267 66.596352 
L 223.470362 66.412834 
L 223.551646 66.489109 
L 223.578741 66.674889 
L 223.660025 66.662064 
L 223.687119 66.562134 
L 223.768403 66.601036 
L 223.849687 66.641939 
L 223.822593 66.563006 
L 223.876782 66.571399 
L 223.985161 66.604511 
L 224.012255 66.532071 
L 224.147729 66.460401 
L 225.637935 65.676397 
L 226.396585 65.436135 
L 226.450774 65.369938 
L 226.477869 65.676918 
L 226.504964 65.342533 
L 226.532058 65.71551 
L 226.586248 65.607247 
L 226.667532 65.825691 
L 226.640437 65.575006 
L 226.694626 65.746801 
L 226.721721 65.732094 
L 226.748816 65.90692 
L 226.830099 65.856283 
L 226.884289 65.936625 
L 226.911383 65.79567 
L 227.019762 65.930318 
L 227.046857 65.807397 
L 227.128141 65.825463 
L 227.155235 65.909073 
L 227.18233 65.788154 
L 227.236519 65.814351 
L 227.453277 65.636066 
L 227.561655 65.597562 
L 227.724223 65.418945 
L 227.832602 65.358394 
L 228.103548 65.189176 
L 228.455779 65.059576 
L 228.726725 64.967269 
L 229.16024 64.877609 
L 229.458281 64.79442 
L 229.539565 64.857108 
L 229.593754 64.911172 
L 229.620849 64.659622 
L 229.702133 65.028993 
L 229.675038 64.648781 
L 229.729228 64.828673 
L 229.91889 65.207997 
L 229.945985 65.044127 
L 229.97308 65.226418 
L 230.027269 65.141168 
L 230.108553 65.246104 
L 230.081458 65.107015 
L 230.135648 65.15012 
L 230.244026 65.245226 
L 230.298215 65.194222 
L 230.704635 64.926735 
L 230.921393 64.715783 
L 231.13815 64.598631 
L 232.276125 64.236655 
L 232.330315 64.192459 
L 232.357409 64.393253 
L 232.411599 64.478789 
L 232.438693 64.129648 
L 232.547072 64.538735 
L 232.574167 64.365235 
L 232.601261 64.638206 
L 232.628356 64.495315 
L 232.736735 64.7087 
L 232.790924 64.663317 
L 232.980586 64.650572 
L 233.034776 64.601446 
L 233.06187 64.69752 
L 233.170249 64.573225 
L 233.197344 64.614051 
L 233.359912 64.448743 
L 233.441196 64.422683 
L 233.603763 64.254445 
L 233.630858 64.275262 
L 233.793426 64.148648 
L 233.928899 64.101245 
L 234.362414 63.957248 
L 234.904307 63.940313 
L 234.958496 64.029534 
L 234.985591 63.690169 
L 235.066875 64.129554 
L 235.09397 64.01051 
L 235.121064 64.008536 
L 235.202348 64.286813 
L 235.229443 64.276934 
L 235.256538 64.191747 
L 235.283632 64.423494 
L 235.310727 64.246643 
L 235.419105 64.460981 
L 235.4462 64.318075 
L 235.527484 64.372205 
L 235.608768 64.45572 
L 235.581673 64.342339 
L 235.635863 64.363623 
L 235.744241 64.389951 
L 235.906809 64.171005 
L 235.933904 64.205104 
L 236.015188 64.131126 
L 236.177756 63.947645 
L 236.313229 63.865984 
L 236.66546 63.675466 
L 236.828028 63.639225 
L 237.288637 63.544407 
L 237.42411 63.570706 
L 237.505394 63.472554 
L 237.559583 63.413511 
L 237.586678 63.719622 
L 237.613773 63.378017 
L 237.640867 63.789694 
L 237.695057 63.747768 
L 237.749246 63.666423 
L 237.83053 63.933602 
L 237.857624 63.830677 
L 238.101476 64.032015 
L 238.128571 63.901046 
L 238.155666 64.04333 
L 238.209855 63.995928 
L 239.618777 63.261624 
L 239.672966 63.206633 
L 239.700061 63.509101 
L 239.727156 63.186279 
L 239.75425 63.550249 
L 239.80844 63.497465 
L 239.862629 63.427561 
L 239.943913 63.67044 
L 239.916818 63.41431 
L 239.998102 63.624386 
L 240.106481 63.54516 
L 240.133576 63.729073 
L 240.21486 63.648043 
L 240.756753 63.504074 
L 240.892226 63.379066 
L 241.000605 63.352704 
L 241.190267 63.247464 
L 241.32574 63.255224 
L 241.461214 63.155446 
L 241.515403 63.122102 
L 241.542498 63.290633 
L 241.596687 63.360201 
L 241.623782 63.049248 
L 241.650876 63.400775 
L 241.73216 63.291294 
L 241.759255 63.295588 
L 241.840539 63.502425 
L 241.813444 63.270032 
L 241.894728 63.489852 
L 242.003107 63.398929 
L 242.084391 63.543665 
L 242.057296 63.3878 
L 242.13858 63.518426 
L 242.246959 63.433237 
L 242.274053 63.518589 
L 242.301148 63.412283 
L 242.328243 63.498866 
L 242.463716 63.400374 
L 242.653379 63.256582 
L 242.680473 63.305892 
L 242.734663 63.268287 
L 242.897231 63.172512 
L 243.086893 63.141218 
L 243.222366 63.007875 
L 243.276556 62.949594 
L 243.30365 63.262953 
L 243.330745 62.931806 
L 243.35784 63.298393 
L 243.412029 63.246492 
L 243.466218 63.178224 
L 243.547502 63.414281 
L 243.520408 63.156531 
L 243.601692 63.383066 
L 243.71007 63.289178 
L 243.791354 63.454367 
L 243.818449 63.349331 
L 243.926827 63.455454 
L 244.008111 63.33176 
L 244.062301 63.343962 
L 244.170679 63.347839 
L 244.306153 63.205273 
L 244.333247 63.242931 
L 244.414531 63.177099 
L 244.658383 63.037174 
L 244.739667 63.061885 
L 244.87514 62.963476 
L 244.92933 62.938586 
L 244.956424 63.050084 
L 245.010614 63.089738 
L 245.037708 62.848856 
L 245.118992 63.194043 
L 245.091898 62.838685 
L 245.173182 63.148742 
L 245.227371 63.08727 
L 245.308655 63.304481 
L 245.28156 63.063139 
L 245.362844 63.291143 
L 245.471223 63.201109 
L 245.552507 63.351154 
L 245.525412 63.189834 
L 245.606696 63.327211 
L 245.715075 63.238452 
L 245.769264 63.213185 
L 245.796359 63.304703 
L 245.931832 63.194237 
L 246.392441 62.960176 
L 246.527914 62.949018 
L 246.717577 62.862044 
L 246.771766 62.830507 
L 246.798861 62.966822 
L 246.85305 63.047083 
L 246.880145 62.709991 
L 246.961429 63.161729 
L 246.988524 62.958621 
L 247.096902 63.326397 
L 247.178186 63.295212 
L 247.232375 63.401327 
L 247.25947 63.229316 
L 247.286565 63.41501 
L 247.367849 63.390154 
L 247.422038 63.446772 
L 247.449133 63.310375 
L 247.476227 63.439311 
L 247.557511 63.372884 
L 247.692985 63.242736 
L 247.801363 63.225115 
L 247.936837 63.063337 
L 247.963931 63.087577 
L 248.126499 62.941976 
L 248.207783 62.954157 
L 248.343256 62.862846 
L 248.47873 62.8471 
L 248.803866 62.79357 
L 249.291569 62.676707 
L 249.345759 62.563656 
L 249.372853 63.115115 
L 249.399948 62.514743 
L 249.427043 63.165525 
L 249.481232 62.972221 
L 249.589611 63.486207 
L 249.616705 63.276469 
L 249.6438 63.64416 
L 249.670895 63.510075 
L 249.697989 63.527666 
L 249.779273 63.733299 
L 249.806368 63.716338 
L 249.833462 63.642903 
L 249.860557 63.818001 
L 249.887652 63.693731 
L 249.99603 63.783355 
L 250.158598 63.495334 
L 250.185693 63.548219 
L 250.239882 63.41909 
L 250.321166 63.341349 
L 250.483734 63.027905 
L 250.565018 62.961896 
L 250.754681 62.826737 
L 251.161101 62.691287 
L 251.350763 62.702257 
L 251.594615 62.68949 
L 251.730088 62.739955 
L 251.784278 62.767957 
L 251.811372 62.63893 
L 251.865562 62.575751 
L 251.892656 62.945995 
L 251.919751 62.546361 
L 251.946846 63.031226 
L 252.001035 62.977385 
L 252.055224 62.888461 
L 252.136508 63.206537 
L 252.163603 63.126456 
L 252.190698 63.123661 
L 252.271982 63.348504 
L 252.244887 63.107512 
L 252.326171 63.292874 
L 252.38036 63.246216 
L 252.407455 63.403009 
L 252.434549 63.249748 
L 252.515833 63.314647 
L 252.542928 63.359771 
L 252.570023 63.246051 
L 252.570023 63.246051 
" clip-path="url(#p2dd66ed4c5)" style="fill: none; stroke: #000000; stroke-width: 1.5; stroke-linecap: square"/>
   </g>
   <g id="line2d_16">
    <path d="M 181.475 63.592178 
L 255.9555 63.592178 
" clip-path="url(#p2dd66ed4c5)" style="fill: none; stroke-dasharray: 5.55,2.4; stroke-dashoffset: 0; stroke: #000000; stroke-width: 1.5"/>
   </g>
   <g id="patch_6">
    <path d="M 181.475 72.629377 
L 181.475 9.669625 
" style="fill: none; stroke: #000000; stroke-width: 1.5; stroke-linejoin: miter; stroke-linecap: square"/>
   </g>
   <g id="patch_7">
    <path d="M 181.475 72.629377 
L 255.9555 72.629377 
" style="fill: none; stroke: #000000; stroke-width: 1.5; stroke-linejoin: miter; stroke-linecap: square"/>
   </g>
   <g id="legend_2">
    <g id="line2d_17">
     <path d="M 191.2255 19.795875 
L 199.2255 19.795875 
L 207.2255 19.795875 
" style="fill: none; stroke-dasharray: 5.55,2.4; stroke-dashoffset: 0; stroke: #000000; stroke-width: 1.5"/>
    </g>
    <g id="text_17">
     <text style="font: 8px 'Arial', sans-serif, serif; text-anchor: start" x="213.6255" y="22.595875" transform="rotate(-0 213.6255 22.595875)">true value</text>
    </g>
   </g>
  </g>
  <g id="axes_3">
   <g id="patch_8">
    <path d="M 307.595 72.629377 
L 382.0755 72.629377 
L 382.0755 9.669625 
L 307.595 9.669625 
z
" style="fill: #ffffff"/>
   </g>
   <g id="matplotlib.axis_5">
    <g id="xtick_7">
     <g id="line2d_18">
      <g>
       <use xlink:href="#m8f4f491934" x="310.980477" y="72.629377" style="stroke: #000000; stroke-width: 1.5"/>
      </g>
     </g>
     <g id="text_18">
      <text style="font: 8px 'Arial', sans-serif, serif; text-anchor: middle" x="310.980477" y="85.355627" transform="rotate(-0 310.980477 85.355627)">0</text>
     </g>
    </g>
    <g id="xtick_8">
     <g id="line2d_19">
      <g>
       <use xlink:href="#m8f4f491934" x="338.075133" y="72.629377" style="stroke: #000000; stroke-width: 1.5"/>
      </g>
     </g>
     <g id="text_19">
      <text style="font: 8px 'Arial', sans-serif, serif; text-anchor: middle" x="338.075133" y="85.355627" transform="rotate(-0 338.075133 85.355627)">1000</text>
     </g>
    </g>
    <g id="xtick_9">
     <g id="line2d_20">
      <g>
       <use xlink:href="#m8f4f491934" x="365.169789" y="72.629377" style="stroke: #000000; stroke-width: 1.5"/>
      </g>
     </g>
     <g id="text_20">
      <text style="font: 8px 'Arial', sans-serif, serif; text-anchor: middle" x="365.169789" y="85.355627" transform="rotate(-0 365.169789 85.355627)">2000</text>
     </g>
    </g>
    <g id="text_21">
     <text style="font: 8px 'Arial', sans-serif, serif; text-anchor: middle" x="344.83525" y="96.671877" transform="rotate(-0 344.83525 96.671877)">Iteration</text>
    </g>
   </g>
   <g id="matplotlib.axis_6">
    <g id="ytick_6">
     <g id="line2d_21">
      <g>
       <use xlink:href="#m26fbab4a75" x="307.595" y="55.797018" style="stroke: #000000; stroke-width: 1.5"/>
      </g>
     </g>
     <g id="text_22">
      <text style="font: 8px 'Arial', sans-serif, serif; text-anchor: end" x="300.595" y="58.660143" transform="rotate(-0 300.595 58.660143)">0.002</text>
     </g>
    </g>
    <g id="ytick_7">
     <g id="line2d_22">
      <g>
       <use xlink:href="#m26fbab4a75" x="307.595" y="32.512765" style="stroke: #000000; stroke-width: 1.5"/>
      </g>
     </g>
     <g id="text_23">
      <text style="font: 8px 'Arial', sans-serif, serif; text-anchor: end" x="300.595" y="35.37589" transform="rotate(-0 300.595 35.37589)">0.003</text>
     </g>
    </g>
    <g id="text_24">
     <!-- $g_K$ (S/cm²) -->
     <g transform="translate(274.1775 59.749501) rotate(-90)">
      <text>
       <tspan style="font: 8px 'Arial'" x="0 8.722012 10.944669 13.608731 18.944669 21.167325 25.167325 31.831387 34.49545" y="-0.171875">g (S/cm²)</tspan>
       <tspan style="font: 5.6px 'Arial'" x="4.588606" y="2.217625">K</tspan>
      </text>
     </g>
    </g>
   </g>
   <g id="line2d_23">
    <path d="M 310.980477 12.531432 
L 311.088856 38.252287 
L 311.143045 36.231372 
L 311.17014 35.648258 
L 311.197235 37.05512 
L 311.251424 43.152101 
L 311.305613 38.277371 
L 311.603654 23.416114 
L 311.874601 17.647431 
L 312.010074 17.534017 
L 312.064264 17.380606 
L 312.118453 17.528683 
L 313.473186 27.092631 
L 314.584067 33.455412 
L 315.396906 36.618571 
L 316.236841 39.008345 
L 317.212248 41.113957 
L 318.702454 43.719059 
L 320.165566 46.43822 
L 322.604085 51.138053 
L 323.606587 52.523051 
L 324.636184 53.615295 
L 325.665781 54.391894 
L 326.776662 54.949896 
L 328.050111 55.331826 
L 328.619098 55.497555 
L 328.673288 55.559515 
L 328.700382 55.246023 
L 328.727477 55.548699 
L 328.754572 55.221844 
L 328.808761 55.28652 
L 328.86295 55.313903 
L 328.971329 55.039727 
L 328.998424 55.160882 
L 329.025518 55.003914 
L 329.079708 55.062719 
L 329.160991 54.969998 
L 329.133897 55.0886 
L 329.188086 55.033753 
L 329.702885 54.839389 
L 329.838358 54.85195 
L 330.163494 54.875934 
L 330.353156 54.878921 
L 330.569914 54.885416 
L 331.003428 54.903008 
L 331.138901 54.979697 
L 331.193091 55.026694 
L 331.220185 54.760021 
L 331.24728 55.051876 
L 331.274375 54.683559 
L 331.301469 54.946958 
L 331.409848 54.549111 
L 331.436943 54.75029 
L 331.464037 54.51197 
L 331.518227 54.57689 
L 331.599511 54.403203 
L 331.572416 54.589316 
L 331.6537 54.457324 
L 331.707889 54.490583 
L 331.789173 54.369309 
L 331.978836 54.31013 
L 332.114309 54.240098 
L 333.22519 54.303375 
L 333.469042 54.351684 
L 333.604515 54.33432 
L 333.685799 54.415444 
L 333.739988 54.455448 
L 333.767083 54.234069 
L 333.794178 54.508522 
L 333.821272 54.132513 
L 333.848367 54.472335 
L 333.956746 54.057623 
L 333.98384 54.172012 
L 334.010935 53.931263 
L 334.03803 54.09812 
L 334.146408 53.852064 
L 334.173503 53.987059 
L 334.200598 53.825787 
L 334.254787 53.865124 
L 335.094721 53.772252 
L 335.257289 53.82042 
L 335.636614 53.882374 
L 335.880466 53.949875 
L 336.015939 53.948406 
L 336.151413 54.036979 
L 336.205602 54.076787 
L 336.232697 53.876395 
L 336.286886 53.768598 
L 336.313981 54.142802 
L 336.422359 53.69991 
L 336.449454 53.798079 
L 336.476549 53.516318 
L 336.503643 53.726772 
L 336.612022 53.412078 
L 336.639117 53.574125 
L 336.666211 53.384743 
L 336.720401 53.441244 
L 336.77459 53.494253 
L 336.801684 53.351251 
L 336.828779 53.489407 
L 336.910063 53.406597 
L 336.991347 53.287914 
L 337.045536 53.317948 
L 337.262294 53.3064 
L 337.424862 53.369228 
L 337.560335 53.387308 
L 337.966755 53.515434 
L 338.237701 53.590839 
L 338.671216 53.735712 
L 338.860878 53.766256 
L 338.996352 53.889281 
L 339.050541 53.959216 
L 339.077636 53.619149 
L 339.10473 54.016323 
L 339.131825 53.492275 
L 339.15892 53.911557 
L 339.267298 53.268273 
L 339.294393 53.518573 
L 339.402771 53.076809 
L 339.429866 53.276318 
L 339.51115 53.169551 
L 339.592434 53.030723 
L 339.565339 53.202859 
L 339.619529 53.14548 
L 339.809191 52.964198 
L 339.836286 53.045712 
L 339.863381 52.912755 
L 339.91757 52.95528 
L 340.080138 52.986284 
L 340.296895 53.09568 
L 340.405274 53.121345 
L 340.622031 53.224778 
L 340.757504 53.270587 
L 341.028451 53.378954 
L 341.299397 53.501117 
L 341.705817 53.671736 
L 342.112237 53.817297 
L 342.24771 53.932489 
L 342.3019 53.997869 
L 342.328994 53.730595 
L 342.383184 53.564275 
L 342.410278 54.108057 
L 342.518657 53.264483 
L 342.545752 53.53121 
L 342.572846 53.11459 
L 342.599941 53.183326 
L 342.627036 53.229808 
L 342.65413 52.908771 
L 342.735414 52.933058 
L 342.762509 53.05656 
L 342.789603 52.848833 
L 342.843793 52.933508 
L 342.897982 53.009921 
L 343.006361 52.84133 
L 343.033455 52.924791 
L 343.06055 52.754893 
L 343.087645 52.874486 
L 343.196023 52.72693 
L 343.223118 52.813887 
L 343.412781 52.843569 
L 343.575348 52.972455 
L 343.683727 53.022287 
L 343.954674 53.167746 
L 344.361094 53.402796 
L 344.604945 53.528576 
L 345.119744 53.790353 
L 345.79711 54.157759 
L 345.8513 54.22442 
L 345.878394 53.973994 
L 345.932584 53.801131 
L 345.959678 54.377544 
L 346.068057 53.47735 
L 346.095152 53.751857 
L 346.122246 53.267898 
L 346.149341 53.373332 
L 346.176435 53.403192 
L 346.20353 53.046677 
L 346.284814 53.065348 
L 346.311909 53.222745 
L 346.339003 52.97883 
L 346.393193 53.095068 
L 346.447382 53.167843 
L 346.555761 52.977442 
L 346.582855 53.082154 
L 346.60995 52.914918 
L 346.664139 52.972834 
L 346.745423 52.9002 
L 346.718329 53.024 
L 346.772518 52.982034 
L 347.693736 53.535954 
L 347.964683 53.716017 
L 348.235629 53.866414 
L 349.238132 54.449625 
L 349.292321 54.5047 
L 349.319416 54.338348 
L 349.373605 54.216456 
L 349.4007 54.692803 
L 349.481984 53.954564 
L 349.536173 54.095301 
L 349.644551 53.529947 
L 349.671646 53.724035 
L 349.698741 53.352064 
L 349.725835 53.540627 
L 349.915498 53.384602 
L 349.942593 53.524016 
L 349.969687 53.352693 
L 350.023877 53.412126 
L 350.105161 53.290207 
L 350.078066 53.457714 
L 350.15935 53.357783 
L 350.240634 53.299862 
L 350.213539 53.418258 
L 350.267729 53.387357 
L 350.592864 53.575318 
L 350.945095 53.842062 
L 351.053474 53.903756 
L 351.568272 54.244842 
L 351.947597 54.467022 
L 352.408206 54.761105 
L 352.462396 54.81303 
L 352.48949 54.674972 
L 352.54368 54.584539 
L 352.570774 55.003806 
L 352.652058 54.263247 
L 352.706248 54.371759 
L 352.868816 53.687761 
L 352.89591 53.970172 
L 352.977194 53.87466 
L 353.004289 53.633754 
L 353.031383 53.887828 
L 353.085573 53.756676 
L 353.139762 53.625622 
L 353.166857 53.834548 
L 353.275235 53.559439 
L 353.30233 53.75422 
L 353.383614 53.699005 
L 353.410709 53.560117 
L 353.437803 53.739111 
L 353.491993 53.681711 
L 353.546182 53.645497 
L 353.654561 53.800925 
L 353.681655 53.760352 
L 353.70875 53.857984 
L 353.735845 53.801115 
L 353.898412 53.983975 
L 354.006791 54.003583 
L 354.169359 54.180187 
L 354.250643 54.21201 
L 355.036388 54.751857 
L 355.496997 55.007546 
L 355.63247 55.165203 
L 355.68666 55.248853 
L 355.713754 54.916751 
L 355.740849 55.352031 
L 355.767944 54.744327 
L 355.795038 55.31901 
L 355.903417 54.435226 
L 355.930512 54.72449 
L 355.957606 54.25518 
L 355.984701 54.410603 
L 356.011796 54.372377 
L 356.09308 54.092796 
L 356.065985 54.391509 
L 356.120174 54.244636 
L 356.147269 54.247775 
L 356.228553 54.09259 
L 356.201458 54.322263 
L 356.255648 54.254768 
L 356.364026 54.057943 
L 356.418215 54.104425 
L 356.634973 54.113299 
L 356.743351 54.259653 
L 356.770446 54.240488 
L 356.933014 54.403571 
L 357.014298 54.426547 
L 357.176866 54.608111 
L 357.285244 54.659088 
L 357.529096 54.846225 
L 357.800043 55.03989 
L 358.314841 55.322642 
L 358.450315 55.553427 
L 358.504504 55.650793 
L 358.531599 55.054674 
L 358.558693 55.606262 
L 358.585788 54.944589 
L 358.639977 55.034387 
L 358.694167 55.05276 
L 358.802545 54.550819 
L 358.82964 54.747596 
L 358.856735 54.467591 
L 358.910924 54.557579 
L 359.019302 54.719042 
L 359.046397 54.519858 
L 359.127681 54.536035 
L 359.154776 54.659613 
L 359.18187 54.486523 
L 359.23606 54.532501 
L 359.398628 54.679472 
L 359.425722 54.660747 
L 359.886331 54.994687 
L 360.075994 55.159624 
L 360.888834 55.723525 
L 360.943023 55.772647 
L 360.970118 55.682957 
L 361.024307 55.64245 
L 361.051402 55.946356 
L 361.105591 56.032864 
L 361.186875 55.230334 
L 361.21397 55.366517 
L 361.241064 55.33548 
L 361.349443 54.828362 
L 361.376538 54.955047 
L 361.403632 54.603953 
L 361.430727 54.878628 
L 361.539105 54.614302 
L 361.5662 54.845027 
L 361.647484 54.773054 
L 361.728768 54.61041 
L 361.701673 54.804264 
L 361.755863 54.736092 
L 361.864241 54.600809 
L 361.97262 54.800139 
L 361.999715 54.690032 
L 362.026809 54.838955 
L 362.053904 54.766727 
L 362.270661 54.974146 
L 362.595797 55.284102 
L 362.704176 55.341888 
L 362.920933 55.529714 
L 363.517015 55.963086 
L 363.571205 56.014648 
L 363.598299 55.896556 
L 363.652489 55.847895 
L 363.679583 56.186996 
L 363.760867 55.571127 
L 363.733773 56.227238 
L 363.815057 55.575161 
L 363.869246 55.647719 
L 363.95053 55.210443 
L 364.004719 55.316451 
L 364.058908 55.380737 
L 364.086003 55.109271 
L 364.113098 55.342539 
L 364.194382 55.300339 
L 364.275666 55.133152 
L 364.248571 55.350665 
L 364.30276 55.30222 
L 364.411139 55.133645 
L 364.438234 55.306845 
L 364.519518 55.245291 
L 364.600802 55.256665 
L 364.736275 55.415032 
L 365.576209 56.087678 
L 365.630399 56.133206 
L 365.657493 56.048043 
L 365.738777 56.24701 
L 365.792966 56.335203 
L 365.820061 55.874367 
L 365.847156 56.347895 
L 365.87425 55.782926 
L 365.901345 56.150993 
L 366.009724 55.590671 
L 366.036818 55.880146 
L 366.063913 55.501529 
L 366.118102 55.56705 
L 366.172292 55.667485 
L 366.226481 55.726263 
L 366.253576 55.466643 
L 366.28067 55.697785 
L 366.361954 55.613684 
L 366.416144 55.668548 
L 366.443238 55.468898 
L 366.470333 55.660204 
L 366.551617 55.580669 
L 366.632901 55.559471 
L 366.768374 55.727927 
L 366.876753 55.737013 
L 367.012226 55.897792 
L 367.120605 55.941206 
L 367.310267 56.129108 
L 367.337362 56.081086 
L 367.364457 56.168342 
L 367.391551 56.118818 
L 367.527024 56.292554 
L 367.581214 56.34404 
L 367.608308 56.201162 
L 367.662498 56.160611 
L 367.689592 56.488897 
L 367.770876 55.971972 
L 367.743782 56.506532 
L 367.825066 55.990729 
L 367.85216 56.068433 
L 367.879255 56.049263 
L 367.960539 55.730437 
L 367.933444 56.069007 
L 368.014728 55.746517 
L 368.123107 55.914414 
L 368.204391 55.735945 
L 368.177296 55.955307 
L 368.231485 55.933128 
L 368.25858 55.781522 
L 368.339864 55.803684 
L 368.394053 55.78188 
L 368.475337 55.942881 
L 368.502432 55.863004 
L 368.583716 55.946286 
L 368.719189 56.100071 
L 368.746284 56.011829 
L 368.773379 56.130626 
L 368.800473 56.053123 
L 368.935947 56.196722 
L 369.152704 56.321558 
L 369.288177 56.512989 
L 369.342366 56.582945 
L 369.369461 56.323011 
L 369.42365 56.210709 
L 369.450745 56.681504 
L 369.47784 56.130029 
L 369.559124 56.199031 
L 369.586218 56.221172 
L 369.667502 55.862651 
L 369.640408 56.233018 
L 369.721692 55.903918 
L 369.83007 56.075643 
L 369.857165 55.839849 
L 369.88426 56.083975 
L 369.938449 56.020172 
L 370.046827 55.86952 
L 370.128111 56.040654 
L 370.155206 55.927642 
L 370.317774 56.133889 
L 370.344869 56.039483 
L 370.371963 56.171882 
L 370.399058 56.080403 
L 370.534531 56.213647 
L 370.778383 56.44724 
L 370.805478 56.391563 
L 370.832572 56.487542 
L 370.859667 56.428498 
L 370.99514 56.60758 
L 371.04933 56.661451 
L 371.076424 56.508142 
L 371.130614 56.463818 
L 371.157708 56.815931 
L 371.238992 56.28858 
L 371.293182 56.312364 
L 371.347371 56.368805 
L 371.428655 56.045972 
L 371.40156 56.388283 
L 371.482844 56.065099 
L 371.591223 56.232969 
L 371.672507 56.051692 
L 371.645412 56.273916 
L 371.699601 56.252019 
L 371.726696 56.094119 
L 371.80798 56.126836 
L 371.862169 56.106723 
L 371.943453 56.279494 
L 371.970548 56.186232 
L 372.051832 56.292381 
L 372.404063 56.564643 
L 372.431157 56.510544 
L 372.458252 56.595745 
L 372.485346 56.554148 
L 372.62082 56.697627 
L 372.647914 56.682811 
L 372.837577 56.890056 
L 372.891766 56.957551 
L 372.918861 56.770235 
L 372.97305 56.663658 
L 373.000145 57.141693 
L 373.081429 56.417813 
L 373.135618 56.482489 
L 373.216902 56.062453 
L 373.189808 56.492849 
L 373.271092 56.110225 
L 373.298186 56.097643 
L 373.352375 55.98437 
L 373.37947 56.242684 
L 373.406565 56.006766 
L 373.487849 56.089267 
L 373.542038 56.024656 
L 373.569133 56.216618 
L 373.596227 56.02922 
L 373.677511 56.098548 
L 373.731701 56.065386 
L 373.812985 56.25106 
L 373.840079 56.191138 
L 373.921363 56.24559 
L 374.056837 56.423814 
L 374.083931 56.381067 
L 374.138121 56.450389 
L 375.411569 57.519467 
L 375.465759 57.687774 
L 375.492853 56.883252 
L 375.519948 57.687115 
L 375.547043 56.718163 
L 375.601232 56.848664 
L 375.709611 55.990643 
L 375.736705 56.26226 
L 375.845084 55.739832 
L 375.872178 56.024412 
L 375.953462 55.987883 
L 375.980557 55.759398 
L 376.061841 55.820317 
L 376.143125 55.887963 
L 376.11603 55.759858 
L 376.197314 55.86566 
L 377.714615 57.273926 
L 377.795899 57.282779 
L 377.931372 57.495638 
L 377.985562 57.607249 
L 378.012656 57.080359 
L 378.039751 57.635982 
L 378.066846 56.925701 
L 378.09394 57.386087 
L 378.202319 56.582045 
L 378.229414 56.915783 
L 378.337792 56.439607 
L 378.364887 56.724533 
L 378.391982 56.420903 
L 378.446171 56.541467 
L 378.50036 56.638964 
L 378.527455 56.432456 
L 378.554549 56.647177 
L 378.635833 56.539239 
L 378.662928 56.467846 
L 378.690023 56.61846 
L 378.690023 56.61846 
" clip-path="url(#paa632da908)" style="fill: none; stroke: #000000; stroke-width: 1.5; stroke-linecap: square"/>
   </g>
   <g id="line2d_24">
    <path d="M 307.595 69.76757 
L 382.0755 69.76757 
" clip-path="url(#paa632da908)" style="fill: none; stroke-dasharray: 5.55,2.4; stroke-dashoffset: 0; stroke: #000000; stroke-width: 1.5"/>
   </g>
   <g id="patch_9">
    <path d="M 307.595 72.629377 
L 307.595 9.669625 
" style="fill: none; stroke: #000000; stroke-width: 1.5; stroke-linejoin: miter; stroke-linecap: square"/>
   </g>
   <g id="patch_10">
    <path d="M 307.595 72.629377 
L 382.0755 72.629377 
" style="fill: none; stroke: #000000; stroke-width: 1.5; stroke-linejoin: miter; stroke-linecap: square"/>
   </g>
   <g id="legend_3">
    <g id="line2d_25">
     <path d="M 317.3455 19.795875 
L 325.3455 19.795875 
L 333.3455 19.795875 
" style="fill: none; stroke-dasharray: 5.55,2.4; stroke-dashoffset: 0; stroke: #000000; stroke-width: 1.5"/>
    </g>
    <g id="text_25">
     <text style="font: 8px 'Arial', sans-serif, serif; text-anchor: start" x="339.7455" y="22.595875" transform="rotate(-0 339.7455 22.595875)">true value</text>
    </g>
   </g>
  </g>
 </g>
 <defs>
  <clipPath id="pad5d97d46f">
   <rect x="55.355" y="9.669625" width="74.4805" height="62.959752"/>
  </clipPath>
  <clipPath id="p2dd66ed4c5">
   <rect x="181.475" y="9.669625" width="74.4805" height="62.959752"/>
  </clipPath>
  <clipPath id="paa632da908">
   <rect x="307.595" y="9.669625" width="74.4805" height="62.959752"/>
  </clipPath>
 </defs>
</svg>
