<?xml version="1.0" encoding="utf-8" standalone="no"?>
<!DOCTYPE svg PUBLIC "-//W3C//DTD SVG 1.1//EN"
  "http://www.w3.org/Graphics/SVG/1.1/DTD/svg11.dtd">
<svg xmlns:xlink="http://www.w3.org/1999/xlink" width="396.2305pt" height="105.31875pt" viewBox="0 0 396.2305 105.31875" xmlns="http://www.w3.org/2000/svg" version="1.1">
 <metadata>
  <rdf:RDF xmlns:dc="http://purl.org/dc/elements/1.1/" xmlns:cc="http://creativecommons.org/ns#" xmlns:rdf="http://www.w3.org/1999/02/22-rdf-syntax-ns#">
   <cc:Work>
    <dc:type rdf:resource="http://purl.org/dc/dcmitype/StillImage"/>
    <dc:date>2025-10-29T05:06:22.662007</dc:date>
    <dc:format>image/svg+xml</dc:format>
    <dc:creator>
     <cc:Agent>
      <dc:title>Matplotlib v3.9.2, https://matplotlib.org/</dc:title>
     </cc:Agent>
    </dc:creator>
   </cc:Work>
  </rdf:RDF>
 </metadata>
 <defs>
  <style type="text/css">*{stroke-linejoin: round; stroke-linecap: butt}</style>
 </defs>
 <g id="figure_1">
  <g id="patch_1">
   <path d="M -0 105.31875 
L 396.2305 105.31875 
L 396.2305 0 
L -0 0 
z
" style="fill: #ffffff"/>
  </g>
  <g id="axes_1">
   <g id="patch_2">
    <path d="M 37.56 72.48625 
L 117.2905 72.48625 
L 117.2905 15.92625 
L 37.56 15.92625 
z
" style="fill: #ffffff"/>
   </g>
   <g id="matplotlib.axis_1">
    <g id="xtick_1">
     <g id="line2d_1">
      <defs>
       <path id="m1835a14556" d="M 0 0 
L 0 3.5 
" style="stroke: #000000; stroke-width: 1.5"/>
      </defs>
      <g>
       <use xlink:href="#m1835a14556" x="41.184114" y="72.48625" style="stroke: #000000; stroke-width: 1.5"/>
      </g>
     </g>
     <g id="text_1">
      <text style="font: 8px 'Arial', sans-serif, serif; text-anchor: middle" x="41.184114" y="85.2125" transform="rotate(-0 41.184114 85.2125)">0</text>
     </g>
    </g>
    <g id="xtick_2">
     <g id="line2d_2">
      <g>
       <use xlink:href="#m1835a14556" x="70.188625" y="72.48625" style="stroke: #000000; stroke-width: 1.5"/>
      </g>
     </g>
     <g id="text_2">
      <text style="font: 8px 'Arial', sans-serif, serif; text-anchor: middle" x="70.188625" y="85.2125" transform="rotate(-0 70.188625 85.2125)">1000</text>
     </g>
    </g>
    <g id="xtick_3">
     <g id="line2d_3">
      <g>
       <use xlink:href="#m1835a14556" x="99.193135" y="72.48625" style="stroke: #000000; stroke-width: 1.5"/>
      </g>
     </g>
     <g id="text_3">
      <text style="font: 8px 'Arial', sans-serif, serif; text-anchor: middle" x="99.193135" y="85.2125" transform="rotate(-0 99.193135 85.2125)">2000</text>
     </g>
    </g>
    <g id="text_4">
     <text style="font: 8px 'Arial', sans-serif, serif; text-anchor: middle" x="77.42525" y="96.52875" transform="rotate(-0 77.42525 96.52875)">iteration</text>
    </g>
   </g>
   <g id="matplotlib.axis_2">
    <g id="ytick_1">
     <g id="line2d_4">
      <defs>
       <path id="m67b56e2697" d="M 0 0 
L -3.5 0 
" style="stroke: #000000; stroke-width: 1.5"/>
      </defs>
      <g>
       <use xlink:href="#m67b56e2697" x="37.56" y="70.959168" style="stroke: #000000; stroke-width: 1.5"/>
      </g>
     </g>
     <g id="text_5">
      <text style="font: 8px 'Arial', sans-serif, serif; text-anchor: end" x="30.56" y="73.822293" transform="rotate(-0 30.56 73.822293)">2.5</text>
     </g>
    </g>
    <g id="ytick_2">
     <g id="line2d_5">
      <g>
       <use xlink:href="#m67b56e2697" x="37.56" y="52.023928" style="stroke: #000000; stroke-width: 1.5"/>
      </g>
     </g>
     <g id="text_6">
      <text style="font: 8px 'Arial', sans-serif, serif; text-anchor: end" x="30.56" y="54.887053" transform="rotate(-0 30.56 54.887053)">5.0</text>
     </g>
    </g>
    <g id="ytick_3">
     <g id="line2d_6">
      <g>
       <use xlink:href="#m67b56e2697" x="37.56" y="33.088687" style="stroke: #000000; stroke-width: 1.5"/>
      </g>
     </g>
     <g id="text_7">
      <text style="font: 8px 'Arial', sans-serif, serif; text-anchor: end" x="30.56" y="35.951812" transform="rotate(-0 30.56 35.951812)">7.5</text>
     </g>
    </g>
    <g id="text_8">
     <!-- $g_L$ (S/cm²) -->
     <g transform="translate(13.04 62.48625) rotate(-90)">
      <text>
       <tspan style="font: 8px 'Arial'" x="0 8.101309 10.323966 12.988028 18.323966 20.546622 24.546622 31.210684 33.874747" y="-0.171875">g (S/cm²)</tspan>
       <tspan style="font: 5.6px 'Arial'" x="4.588606" y="2.217625">L</tspan>
      </text>
     </g>
    </g>
    <g id="text_9">
     <text style="font: 8px 'Arial', sans-serif, serif; text-anchor: start" x="37.56" y="12.92625" transform="rotate(-0 37.56 12.92625)">1e−6</text>
    </g>
   </g>
   <g id="line2d_7">
    <path d="M 41.184114 61.00158 
L 41.300132 69.014074 
L 41.358141 67.978823 
L 41.41615 67.442971 
L 41.445154 67.831464 
L 41.474159 68.387126 
L 41.532168 67.459901 
L 41.561172 67.296493 
L 41.590177 67.637079 
L 41.735199 69.915341 
L 41.793208 69.595898 
L 41.851217 69.276911 
L 41.909226 69.512098 
L 41.99624 69.877903 
L 42.025244 69.731069 
L 42.141262 68.958084 
L 42.199272 69.160042 
L 42.257281 69.316963 
L 42.286285 69.246509 
L 42.402303 68.818133 
L 42.460312 68.906927 
L 42.518321 68.83035 
L 42.866375 67.915446 
L 43.185425 67.351767 
L 43.446465 66.99603 
L 44.490628 66.69516 
L 45.418772 66.6796 
L 46.462935 66.558605 
L 47.217052 66.240956 
L 47.942165 65.698174 
L 48.696282 64.84339 
L 49.479404 63.59727 
L 50.320535 61.812935 
L 51.19067 59.442889 
L 51.973792 56.575454 
L 53.511031 49.868 
L 54.497184 44.535531 
L 57.716685 26.912411 
L 58.644829 23.28413 
L 59.398946 21.142423 
L 59.921028 19.980853 
L 59.979037 19.760212 
L 60.008041 20.289401 
L 60.06605 20.636634 
L 60.095055 18.825945 
L 60.182068 21.963041 
L 60.153064 18.497159 
L 60.211073 19.782744 
L 60.327091 23.211097 
L 60.356095 21.936086 
L 60.414104 23.389236 
L 60.443109 23.022212 
L 60.559127 24.448021 
L 60.588131 24.05834 
L 60.617136 25.013341 
L 60.64614 24.335014 
L 60.762158 25.372588 
L 60.791163 24.791893 
L 60.878177 25.049286 
L 60.907181 25.460149 
L 60.936186 24.985497 
L 60.994195 25.187726 
L 61.052204 25.389018 
L 61.081208 25.047991 
L 61.110213 25.399289 
L 61.168222 25.230043 
L 61.603289 24.613148 
L 61.748312 24.27954 
L 61.777316 24.337273 
L 61.806321 24.227393 
L 61.951343 23.977798 
L 61.980348 24.046223 
L 62.125371 23.764534 
L 62.154375 23.784966 
L 62.212384 23.700429 
L 62.502429 23.318924 
L 62.560438 23.238059 
L 62.589443 23.335808 
L 62.676456 23.023169 
L 62.734465 22.846029 
L 62.76347 23.519514 
L 62.821479 23.887089 
L 62.850483 22.22363 
L 62.937497 24.528239 
L 62.966501 23.604912 
L 63.169533 25.662371 
L 63.198537 25.173219 
L 63.227542 26.254178 
L 63.256546 25.479196 
L 63.372564 26.690681 
L 63.401569 26.087604 
L 63.430573 26.79722 
L 63.459578 26.478099 
L 63.575596 27.048247 
L 63.604601 26.606481 
L 63.691614 26.718401 
L 63.720619 27.084743 
L 63.749623 26.693698 
L 63.807632 26.843243 
L 63.865641 26.976289 
L 63.952655 26.729436 
L 63.92365 26.987924 
L 63.981659 26.891924 
L 64.097677 26.626761 
L 64.126682 26.811541 
L 64.155686 26.593207 
L 64.184691 26.702316 
L 64.358718 26.399431 
L 64.387722 26.487054 
L 64.445731 26.379268 
L 64.561749 26.202816 
L 64.590754 26.281491 
L 64.735776 26.090649 
L 65.054826 25.777914 
L 65.083831 25.833346 
L 65.112835 25.734853 
L 65.14184 25.789411 
L 65.286862 25.590599 
L 65.344871 25.531515 
L 65.373876 25.696663 
L 65.431885 25.718699 
L 65.460889 25.356717 
L 65.518898 25.19365 
L 65.547903 25.994436 
L 65.605912 26.395559 
L 65.634916 24.757361 
L 65.663921 26.710031 
L 65.750934 26.46758 
L 65.779939 26.399555 
L 65.866952 27.528693 
L 65.924961 27.453111 
L 65.98297 27.327222 
L 66.069984 28.124584 
L 66.156998 28.290827 
L 66.186002 27.881995 
L 66.215007 28.451937 
L 66.30202 28.295587 
L 66.331025 28.201406 
L 66.418038 28.513384 
L 66.389034 28.13872 
L 66.447043 28.248276 
L 66.563061 28.463366 
L 66.592065 28.226405 
L 66.679079 28.337049 
L 68.042291 27.293922 
L 68.1003 27.219071 
L 68.129304 27.56253 
L 68.187313 27.702368 
L 68.216318 26.885614 
L 68.274327 26.642929 
L 68.303331 28.384464 
L 68.332336 26.956126 
L 68.36134 28.417481 
L 68.390345 27.979972 
L 68.709394 29.764967 
L 68.738399 29.62851 
L 68.767403 29.617757 
L 68.854417 30.114542 
L 68.825413 29.542176 
L 68.883422 29.724703 
L 68.99944 30.223162 
L 69.028444 29.81679 
L 69.115458 29.994929 
L 69.144462 30.180418 
L 69.173467 29.915985 
L 69.202471 30.171077 
L 69.318489 29.968304 
L 69.347494 30.096357 
L 69.376498 29.922344 
L 69.405503 30.057112 
L 69.521521 29.857915 
L 69.550525 29.968938 
L 69.57953 29.795008 
L 69.608534 29.913361 
L 69.724552 29.708005 
L 69.753557 29.798618 
L 69.782561 29.663959 
L 69.811566 29.734223 
L 69.985593 29.543732 
L 70.014597 29.589528 
L 70.072606 29.543388 
L 70.246634 29.380514 
L 70.275638 29.420957 
L 70.333647 29.377572 
L 70.507674 29.253653 
L 70.768715 29.154967 
L 70.913737 29.036621 
L 70.971746 29.002667 
L 71.000751 29.102173 
L 71.087764 28.905152 
L 71.145773 28.816324 
L 71.174778 29.237631 
L 71.232787 29.486144 
L 71.261791 28.357357 
L 71.348805 30.16629 
L 71.377809 29.168001 
L 71.493828 30.930897 
L 71.522832 30.295733 
L 71.63885 31.515098 
L 71.696859 31.460961 
L 71.754868 31.313379 
L 71.783873 31.886538 
L 71.812877 31.435707 
L 71.899891 31.642124 
L 71.928895 32.049785 
L 71.9579 31.611339 
L 72.015909 31.869717 
L 72.044913 31.801726 
L 72.073918 32.090427 
L 72.102922 31.727164 
L 72.160931 31.898098 
L 72.189936 31.86092 
L 72.21894 32.032405 
L 72.247945 31.79441 
L 72.276949 31.983606 
L 72.392967 31.798178 
L 72.421972 31.900088 
L 72.479981 31.830307 
L 72.886044 31.459624 
L 72.915049 31.517048 
L 72.944053 31.424169 
L 72.973058 31.456387 
L 73.234098 31.269003 
L 73.930206 30.882739 
L 74.133238 30.816408 
L 74.33627 30.712432 
L 74.423283 30.720898 
L 74.568306 30.581851 
L 74.626315 30.516251 
L 74.655319 30.788682 
L 74.713328 30.945742 
L 74.742333 30.147146 
L 74.800342 29.88974 
L 74.829346 31.801285 
L 74.858351 30.3125 
L 74.945364 31.403978 
L 75.061382 33.028961 
L 75.090387 32.421993 
L 75.119391 33.324399 
L 75.148396 33.086691 
L 75.1774 33.176818 
L 75.264414 33.746908 
L 75.293418 33.579756 
L 75.322423 33.580242 
L 75.409436 33.942758 
L 75.380432 33.495161 
L 75.438441 33.740323 
L 75.467446 33.718789 
L 75.49645 33.996682 
L 75.525455 33.612884 
L 75.583464 33.819204 
L 75.612468 33.739734 
L 75.641473 33.993909 
L 75.670477 33.680847 
L 75.728486 33.854167 
L 75.8155 33.720504 
L 75.786495 33.912176 
L 75.844504 33.802623 
L 75.873509 33.80904 
L 76.018531 33.687443 
L 76.250567 33.430797 
L 76.279572 33.50011 
L 76.366585 33.422018 
L 76.511608 33.311342 
L 76.685635 33.157292 
L 76.830658 33.068485 
L 77.149707 32.853195 
L 77.323734 32.779222 
L 78.19387 32.384326 
L 78.280883 32.39727 
L 78.425906 32.226925 
L 78.483915 32.126685 
L 78.512919 32.571644 
L 78.570928 32.896862 
L 78.599933 31.629731 
L 78.686946 33.420292 
L 78.715951 33.216889 
L 78.744955 33.035089 
L 78.860973 34.566607 
L 78.889978 33.971463 
L 78.918982 34.880452 
L 78.947987 34.64285 
L 78.976991 34.698513 
L 79.064005 35.261333 
L 79.093009 35.158699 
L 79.122014 35.074442 
L 79.151018 35.432948 
L 79.180023 35.053683 
L 79.238032 35.315439 
L 79.296041 35.510855 
L 79.325045 35.172325 
L 79.441064 35.505041 
L 79.557082 35.209313 
L 79.586086 35.431857 
L 79.6731 35.344475 
L 79.702104 35.187718 
L 79.789118 35.216195 
L 79.876131 35.18902 
L 80.050158 34.955059 
L 80.079163 35.007322 
L 80.166176 34.950553 
L 80.282194 34.832056 
L 80.311199 34.848223 
L 80.485226 34.681299 
L 80.572239 34.647434 
L 80.804276 34.466998 
L 81.036312 34.363242 
L 81.529388 34.110434 
L 82.022465 33.937902 
L 82.109479 33.80685 
L 82.167488 33.735928 
L 82.196492 34.014003 
L 82.254501 34.1966 
L 82.283506 33.344573 
L 82.370519 34.899175 
L 82.341515 33.236398 
L 82.399524 33.883017 
L 82.515542 35.615724 
L 82.544546 35.283786 
L 82.573551 35.385193 
L 82.689569 36.176311 
L 82.718573 35.982473 
L 82.747578 36.491823 
L 82.776582 36.119518 
L 82.8926 36.645407 
L 82.921605 36.32329 
L 83.008618 36.429808 
L 83.037623 36.709306 
L 83.066627 36.387319 
L 83.124636 36.564301 
L 83.182645 36.677846 
L 83.21165 36.416499 
L 83.327668 36.594704 
L 83.443686 36.401964 
L 83.472691 36.471656 
L 83.501695 36.364607 
L 83.5307 36.405329 
L 83.704727 36.195055 
L 83.733731 36.221734 
L 84.603866 35.643047 
L 84.806898 35.55777 
L 85.27097 35.312109 
L 85.415993 35.290292 
L 85.561015 35.106742 
L 85.619024 35.00188 
L 85.648029 35.440843 
L 85.706038 35.722872 
L 85.735042 34.597041 
L 85.764047 36.089921 
L 85.85106 36.031809 
L 85.880065 35.762795 
L 85.996083 37.008678 
L 86.025087 36.55082 
L 86.054092 37.32958 
L 86.083097 36.966144 
L 86.199115 37.617685 
L 86.257124 37.457356 
L 86.315133 37.279875 
L 86.344137 37.742569 
L 86.460155 37.391701 
L 86.48916 37.797398 
L 86.576173 37.722123 
L 86.605178 37.444051 
L 86.634182 37.772648 
L 86.692191 37.625807 
L 86.7502 37.491803 
L 86.779205 37.719437 
L 86.895223 37.4911 
L 86.924227 37.620723 
L 86.953232 37.458503 
L 86.982236 37.54365 
L 87.185268 37.365259 
L 87.243277 37.28128 
L 87.272281 37.380535 
L 87.388299 37.219228 
L 87.417304 37.28158 
L 87.446309 37.176308 
L 87.475313 37.225603 
L 87.64934 37.046138 
L 87.736354 37.015136 
L 88.954543 36.273251 
L 88.983548 36.491978 
L 89.041557 36.606342 
L 89.070561 35.971413 
L 89.157575 37.157351 
L 89.12857 35.82058 
L 89.215584 37.112971 
L 89.244588 37.103307 
L 89.273593 36.866659 
L 89.389611 37.877282 
L 89.418615 37.560868 
L 89.44762 38.229183 
L 89.476624 37.777222 
L 89.592642 38.440132 
L 89.621647 38.048736 
L 89.70866 38.211644 
L 89.795674 38.49158 
L 89.766669 38.161244 
L 89.824678 38.314405 
L 89.853683 38.331616 
L 89.911692 38.211441 
L 89.940696 38.493299 
L 90.056714 38.245095 
L 90.085719 38.447737 
L 90.172733 38.340568 
L 90.317755 38.204198 
L 90.433773 38.194681 
L 90.549791 38.065937 
L 90.6078 37.998924 
L 90.636805 38.075081 
L 90.752823 37.949705 
L 90.781827 37.970657 
L 90.92685 37.838076 
L 91.100877 37.761164 
L 91.274904 37.640958 
L 91.82599 37.417781 
L 91.913003 37.23108 
L 91.971012 37.130083 
L 92.000017 37.550539 
L 92.058026 37.776977 
L 92.08703 36.819203 
L 92.116035 38.020844 
L 92.203048 37.931323 
L 92.232053 37.778117 
L 92.319066 38.551649 
L 92.348071 38.520643 
L 92.377075 38.416274 
L 92.464089 38.927728 
L 92.493093 38.725903 
L 92.580107 38.690709 
L 92.609111 39.07687 
L 92.638116 38.750202 
L 92.725129 38.850679 
L 92.812143 39.074738 
L 92.783139 38.792812 
L 92.841148 38.883672 
L 92.928161 38.844445 
L 92.957166 39.04449 
L 92.98617 38.84946 
L 93.073184 38.90089 
L 93.131193 38.833055 
L 93.160197 38.94051 
L 93.276215 38.805772 
L 93.363229 38.797882 
L 93.450242 38.672003 
L 93.479247 38.685732 
L 93.682278 38.596717 
L 93.914314 38.40621 
L 94.001328 38.404739 
L 94.175355 38.298317 
L 94.523409 38.106845 
L 94.610423 38.126894 
L 94.697436 37.94044 
L 94.755445 37.812602 
L 94.78445 38.324194 
L 94.842459 38.591141 
L 94.871463 37.53456 
L 94.987481 38.989564 
L 95.016486 38.513241 
L 95.04549 39.42235 
L 95.074495 39.034791 
L 95.277526 39.901256 
L 95.306531 39.55517 
L 95.335535 39.968244 
L 95.36454 39.699796 
L 95.480558 40.016358 
L 95.509563 39.721092 
L 95.596576 39.772219 
L 95.625581 39.989379 
L 95.654585 39.711665 
L 95.712594 39.82472 
L 95.741599 39.801558 
L 95.770603 39.932427 
L 95.799608 39.716449 
L 95.828612 39.91441 
L 95.94463 39.701039 
L 95.973635 39.80557 
L 96.002639 39.659711 
L 96.031644 39.735348 
L 96.205671 39.527457 
L 96.234675 39.59274 
L 96.321689 39.531349 
L 96.466711 39.407664 
L 96.640738 39.333126 
L 96.814766 39.193918 
L 97.133815 39.05079 
L 97.278838 38.927432 
L 97.365851 38.948187 
L 97.510874 38.717509 
L 97.568883 38.589918 
L 97.597887 39.13925 
L 97.626892 38.407732 
L 97.655896 39.348264 
L 97.684901 38.46054 
L 97.800919 39.59792 
L 97.829923 39.201071 
L 97.858928 39.925704 
L 97.887932 39.471277 
L 98.00395 40.158521 
L 98.032955 39.758545 
L 98.06196 40.179483 
L 98.119969 40.072266 
L 98.177978 39.932806 
L 98.206982 40.267024 
L 98.235987 39.94038 
L 98.323 40.111875 
L 98.381009 39.999088 
L 98.410014 40.262763 
L 98.439018 40.015452 
L 98.526032 40.099675 
L 98.584041 40.036142 
L 98.613045 40.189486 
L 98.64205 40.028819 
L 98.729063 40.072979 
L 99.396167 39.715112 
L 99.54119 39.574606 
L 99.599199 39.53543 
L 99.628203 39.617439 
L 99.715217 39.443474 
L 99.773226 39.376407 
L 99.80223 39.670058 
L 99.860239 39.803659 
L 99.889244 39.129327 
L 99.976257 39.993422 
L 100.005262 39.655161 
L 100.12128 40.361966 
L 100.150284 39.883801 
L 100.179289 40.376373 
L 100.237298 40.276916 
L 100.295307 40.170425 
L 100.324311 40.572295 
L 100.353316 40.190385 
L 100.38232 40.577328 
L 100.440329 40.477849 
L 100.469334 40.504798 
L 100.527343 40.614188 
L 100.556347 40.32071 
L 100.585352 40.626781 
L 100.672365 40.493776 
L 100.730375 40.56562 
L 100.759379 40.398045 
L 100.788384 40.585794 
L 100.846393 40.555219 
L 100.962411 40.414137 
L 101.02042 40.347276 
L 101.049424 40.462388 
L 101.136438 40.288316 
L 101.165442 40.371369 
L 101.339469 40.222041 
L 101.397478 40.183465 
L 101.426483 40.258172 
L 101.571505 40.083573 
L 101.60051 40.173129 
L 101.629514 40.051734 
L 101.658519 40.15174 
L 101.745532 39.964817 
L 101.803541 39.901112 
L 101.832546 40.187684 
L 101.890555 40.301749 
L 101.919559 39.684427 
L 102.006573 40.479124 
L 102.035577 40.114772 
L 102.151596 40.753008 
L 102.1806 40.326572 
L 102.209605 40.83027 
L 102.238609 40.510921 
L 102.354627 40.880078 
L 102.383632 40.612732 
L 102.412636 40.952946 
L 102.441641 40.629884 
L 102.470645 40.937309 
L 102.557659 40.840848 
L 102.615668 40.919657 
L 102.644672 40.718551 
L 102.673677 40.931894 
L 102.76069 40.755022 
L 102.876708 40.827091 
L 103.021731 40.64435 
L 103.050735 40.780882 
L 103.07974 40.628758 
L 103.108744 40.735569 
L 103.253767 40.612077 
L 103.514808 40.430507 
L 103.543812 40.545523 
L 103.630826 40.305579 
L 103.688835 40.194559 
L 103.717839 40.712451 
L 103.746844 40.068704 
L 103.775848 40.847864 
L 103.804853 40.165544 
L 103.920871 40.945103 
L 103.949875 40.677732 
L 103.97888 41.190964 
L 104.007884 40.736978 
L 104.036889 41.23428 
L 104.123902 41.203687 
L 104.181911 41.342379 
L 104.210916 41.006081 
L 104.23992 41.384265 
L 104.326934 41.215388 
L 104.355938 41.214365 
L 104.413947 41.133196 
L 104.442952 41.390186 
L 104.471956 41.127899 
L 104.55897 41.290446 
L 104.674988 41.167178 
L 104.703992 41.305184 
L 104.732997 41.130499 
L 104.762002 41.280802 
L 104.849015 41.1152 
L 104.87802 41.180328 
L 105.052047 41.013028 
L 105.081051 41.098543 
L 105.110056 40.984254 
L 105.13906 41.0735 
L 105.284083 40.897561 
L 105.313087 40.995824 
L 105.342092 40.867506 
L 105.371096 40.972592 
L 105.45811 40.783975 
L 105.516119 40.716722 
L 105.545123 41.010228 
L 105.603132 41.124038 
L 105.632137 40.507484 
L 105.71915 41.261186 
L 105.748155 40.957193 
L 105.864173 41.535859 
L 105.893177 41.11799 
L 105.922182 41.600522 
L 105.951186 41.284463 
L 106.067205 41.628149 
L 106.096209 41.374456 
L 106.125214 41.696181 
L 106.154218 41.382505 
L 106.183223 41.679077 
L 106.270236 41.573154 
L 106.328245 41.64628 
L 106.35725 41.458042 
L 106.386254 41.658242 
L 106.415259 41.447554 
L 106.444263 41.630037 
L 106.473268 41.472959 
L 106.560281 41.531664 
L 106.647295 41.534526 
L 106.792317 41.333348 
L 106.821322 41.46645 
L 106.850326 41.313244 
L 106.879331 41.431893 
L 107.024353 41.276304 
L 107.053358 41.341036 
L 107.111367 41.308611 
L 107.256389 41.180834 
L 107.314398 41.141569 
L 107.343403 41.208144 
L 107.430417 41.031111 
L 107.488426 40.93404 
L 107.51743 41.315327 
L 107.575439 41.493229 
L 107.604444 40.698333 
L 107.633448 41.656771 
L 107.720462 41.592831 
L 107.749466 41.477161 
L 107.83648 42.066877 
L 107.865484 41.896491 
L 107.981502 42.258019 
L 108.010507 41.935518 
L 108.09752 42.068661 
L 108.155529 41.974153 
L 108.184534 42.251478 
L 108.213538 41.996582 
L 108.300552 42.075543 
L 108.358561 41.978128 
L 108.387565 42.198381 
L 108.41657 41.977398 
L 108.503583 42.065558 
L 108.590597 42.086809 
L 108.73562 41.89521 
L 108.851638 41.897266 
L 108.99666 41.746805 
L 109.025665 41.829065 
L 109.083674 41.787241 
L 109.228696 41.654746 
L 109.344714 41.598218 
L 109.924804 41.304347 
L 110.127836 41.07941 
L 110.185845 40.883681 
L 110.21485 41.592645 
L 110.243854 40.593457 
L 110.272859 41.974653 
L 110.301863 41.020998 
L 110.417881 42.574471 
L 110.446886 42.323891 
L 110.47589 42.366383 
L 110.591908 43.023959 
L 110.620913 42.743761 
L 110.649917 43.195871 
L 110.678922 42.917678 
L 110.736931 43.21386 
L 110.823944 43.06734 
L 111.026976 43.093013 
L 111.084985 43.13834 
L 111.113989 42.957621 
L 111.230007 43.07614 
L 111.346025 42.863706 
L 111.37503 42.915976 
L 111.404035 42.762326 
L 111.433039 42.861601 
L 111.549057 42.698724 
L 111.578062 42.730852 
L 111.752089 42.567882 
L 111.897111 42.486479 
L 112.071138 42.321804 
L 112.158152 42.303473 
L 112.332179 42.200836 
L 112.53521 42.052694 
L 112.622224 42.036905 
L 112.767247 41.868926 
L 112.825256 41.790496 
L 112.85426 42.022845 
L 112.912269 42.149413 
L 112.941274 41.494197 
L 113.028287 42.407835 
L 113.057292 42.043428 
L 113.260323 42.831581 
L 113.289328 42.576954 
L 113.318332 43.005718 
L 113.347337 42.625395 
L 113.463355 42.988813 
L 113.492359 42.716817 
L 113.521364 43.020607 
L 113.579373 42.941819 
L 113.637382 42.808955 
L 113.666386 42.992123 
" clip-path="url(#p990c21c675)" style="fill: none; stroke: #000000; stroke-width: 1.5; stroke-linecap: square"/>
   </g>
   <g id="line2d_8">
    <path d="M 37.56 52.023928 
L 117.2905 52.023928 
" clip-path="url(#p990c21c675)" style="fill: none; stroke-dasharray: 5.55,2.4; stroke-dashoffset: 0; stroke: #000000; stroke-width: 1.5"/>
   </g>
   <g id="patch_3">
    <path d="M 37.56 72.48625 
L 37.56 15.92625 
" style="fill: none; stroke: #000000; stroke-width: 1.5; stroke-linejoin: miter; stroke-linecap: square"/>
   </g>
   <g id="patch_4">
    <path d="M 37.56 72.48625 
L 117.2905 72.48625 
" style="fill: none; stroke: #000000; stroke-width: 1.5; stroke-linejoin: miter; stroke-linecap: square"/>
   </g>
   <g id="legend_1">
    <g id="line2d_9">
     <path d="M 52.5605 60.89625 
L 60.5605 60.89625 
L 68.5605 60.89625 
" style="fill: none; stroke-dasharray: 5.55,2.4; stroke-dashoffset: 0; stroke: #000000; stroke-width: 1.5"/>
    </g>
    <g id="text_10">
     <text style="font: 8px 'Arial', sans-serif, serif; text-anchor: start" x="74.9605" y="63.69625" transform="rotate(-0 74.9605 63.69625)">true value</text>
    </g>
   </g>
  </g>
  <g id="axes_2">
   <g id="patch_5">
    <path d="M 173.43 72.48625 
L 253.1605 72.48625 
L 253.1605 15.92625 
L 173.43 15.92625 
z
" style="fill: #ffffff"/>
   </g>
   <g id="matplotlib.axis_3">
    <g id="xtick_4">
     <g id="line2d_10">
      <g>
       <use xlink:href="#m1835a14556" x="177.054114" y="72.48625" style="stroke: #000000; stroke-width: 1.5"/>
      </g>
     </g>
     <g id="text_11">
      <text style="font: 8px 'Arial', sans-serif, serif; text-anchor: middle" x="177.054114" y="85.2125" transform="rotate(-0 177.054114 85.2125)">0</text>
     </g>
    </g>
    <g id="xtick_5">
     <g id="line2d_11">
      <g>
       <use xlink:href="#m1835a14556" x="206.058625" y="72.48625" style="stroke: #000000; stroke-width: 1.5"/>
      </g>
     </g>
     <g id="text_12">
      <text style="font: 8px 'Arial', sans-serif, serif; text-anchor: middle" x="206.058625" y="85.2125" transform="rotate(-0 206.058625 85.2125)">1000</text>
     </g>
    </g>
    <g id="xtick_6">
     <g id="line2d_12">
      <g>
       <use xlink:href="#m1835a14556" x="235.063135" y="72.48625" style="stroke: #000000; stroke-width: 1.5"/>
      </g>
     </g>
     <g id="text_13">
      <text style="font: 8px 'Arial', sans-serif, serif; text-anchor: middle" x="235.063135" y="85.2125" transform="rotate(-0 235.063135 85.2125)">2000</text>
     </g>
    </g>
    <g id="text_14">
     <text style="font: 8px 'Arial', sans-serif, serif; text-anchor: middle" x="213.29525" y="96.52875" transform="rotate(-0 213.29525 96.52875)">iteration</text>
    </g>
   </g>
   <g id="matplotlib.axis_4">
    <g id="ytick_4">
     <g id="line2d_13">
      <g>
       <use xlink:href="#m67b56e2697" x="173.43" y="70.844677" style="stroke: #000000; stroke-width: 1.5"/>
      </g>
     </g>
     <g id="text_15">
      <text style="font: 8px 'Arial', sans-serif, serif; text-anchor: end" x="166.43" y="73.707802" transform="rotate(-0 166.43 73.707802)">0.004</text>
     </g>
    </g>
    <g id="ytick_5">
     <g id="line2d_14">
      <g>
       <use xlink:href="#m67b56e2697" x="173.43" y="44.055833" style="stroke: #000000; stroke-width: 1.5"/>
      </g>
     </g>
     <g id="text_16">
      <text style="font: 8px 'Arial', sans-serif, serif; text-anchor: end" x="166.43" y="46.918958" transform="rotate(-0 166.43 46.918958)">0.006</text>
     </g>
    </g>
    <g id="ytick_6">
     <g id="line2d_15">
      <g>
       <use xlink:href="#m67b56e2697" x="173.43" y="17.266989" style="stroke: #000000; stroke-width: 1.5"/>
      </g>
     </g>
     <g id="text_17">
      <text style="font: 8px 'Arial', sans-serif, serif; text-anchor: end" x="166.43" y="20.130114" transform="rotate(-0 166.43 20.130114)">0.008</text>
     </g>
    </g>
    <g id="text_18">
     <!-- $g_{Na}$ (S/cm²) -->
     <g transform="translate(139.9325 64.52625) rotate(-90)">
      <text>
       <tspan style="font: 8px 'Arial'" x="0 12.14545 14.368106 17.032169 22.368106 24.590763 28.590763 35.254825 37.918887" y="-0.171875">g (S/cm²)</tspan>
       <tspan style="font: 5.6px 'Arial'" x="4.588606 8.632747" y="2.217625">Na</tspan>
      </text>
     </g>
    </g>
   </g>
   <g id="line2d_16">
    <path d="M 177.054114 69.915341 
L 177.344159 32.918724 
L 177.373163 33.588562 
L 177.402168 32.842673 
L 177.605199 27.32421 
L 177.692213 18.497159 
L 177.750222 20.848558 
L 178.127281 53.781604 
L 178.18529 52.962963 
L 178.417326 46.412302 
L 178.44633 46.627936 
L 178.562348 50.858304 
L 178.76538 56.258072 
L 178.823389 55.781065 
L 179.02642 52.428723 
L 179.084429 52.640952 
L 179.316465 55.717108 
L 179.374475 55.49687 
L 179.548502 54.21399 
L 179.606511 54.355526 
L 179.809542 55.564987 
L 179.838547 55.511921 
L 180.24461 54.214058 
L 180.331623 53.982949 
L 181.694835 47.907536 
L 182.738998 43.998381 
L 183.580129 41.696843 
L 184.421259 39.999309 
L 185.291395 38.723963 
L 186.422571 37.49385 
L 187.37972 36.672184 
L 190.135148 35.420752 
L 191.150306 35.115968 
L 193.934739 34.104103 
L 195.849037 33.3954 
L 195.907046 33.305602 
L 195.93605 33.621757 
L 195.994059 33.864324 
L 196.023064 33.091926 
L 196.052068 34.200456 
L 196.139082 34.098864 
L 196.226095 33.534678 
L 196.197091 34.215033 
L 196.2551 33.889111 
L 196.313109 33.517401 
L 196.342113 33.962785 
L 196.371118 33.571079 
L 196.487136 34.0598 
L 196.51614 33.724266 
L 196.603154 33.831404 
L 196.690168 34.179231 
L 196.719172 34.145606 
L 196.777181 34.203288 
L 196.951208 33.694564 
L 196.980213 33.855249 
L 197.067226 33.827736 
L 197.212249 33.697708 
L 197.386276 33.680156 
L 197.560303 33.427666 
L 197.647316 33.453001 
L 197.676321 33.414867 
L 197.908357 33.280485 
L 198.082384 33.165813 
L 198.430438 32.973755 
L 198.517452 32.998348 
L 198.604465 32.798669 
L 198.662474 32.677684 
L 198.691479 33.211114 
L 198.720483 32.567447 
L 198.749488 33.499207 
L 198.778492 32.7312 
L 198.807497 33.7075 
L 198.89451 33.595386 
L 198.981524 32.905937 
L 199.010528 33.223383 
L 199.039533 33.290751 
L 199.068537 32.983616 
L 199.097542 33.494323 
L 199.126546 33.05716 
L 199.242564 33.444874 
L 199.271569 33.106422 
L 199.300573 33.478636 
L 199.329578 33.327676 
L 199.445596 33.665025 
L 199.561614 33.189003 
L 199.590619 33.337163 
L 199.619623 33.101906 
L 199.648628 33.270655 
L 199.764646 33.151105 
L 199.79365 33.267187 
L 199.822655 33.118048 
L 199.851659 33.181805 
L 199.967677 33.052288 
L 199.996682 33.153401 
L 200.025686 33.034443 
L 200.054691 33.079645 
L 200.228718 32.831059 
L 200.257722 32.880314 
L 200.489758 32.675495 
L 200.605776 32.636687 
L 201.040844 32.396265 
L 201.127858 32.398935 
L 201.27288 32.252365 
L 201.330889 32.190716 
L 201.359894 32.407324 
L 201.417903 32.508586 
L 201.446907 31.963717 
L 201.59193 33.12126 
L 201.707948 32.204526 
L 201.765957 32.339481 
L 201.881975 32.864522 
L 201.910979 32.466559 
L 201.997993 32.629445 
L 202.056002 32.614096 
L 202.143016 33.02384 
L 202.404056 32.499411 
L 202.49107 32.63756 
L 202.520074 32.528146 
L 202.636092 32.54417 
L 202.781115 32.421146 
L 202.984146 32.23651 
L 203.100164 32.21627 
L 203.245187 32.062216 
L 203.274191 32.085562 
L 203.506228 31.938276 
L 203.65125 31.93928 
L 203.796273 31.807218 
L 203.883286 31.86331 
L 203.9703 31.689983 
L 204.028309 31.609665 
L 204.057313 31.975924 
L 204.115322 32.210389 
L 204.144327 31.410148 
L 204.23134 32.784036 
L 204.260345 32.401424 
L 204.347358 31.724169 
L 204.318354 32.531645 
L 204.434372 32.101711 
L 204.492381 31.985641 
L 204.521385 32.492681 
L 204.55039 32.049224 
L 204.637403 32.212933 
L 204.724417 32.689754 
L 204.782426 32.657538 
L 204.811431 32.641184 
L 204.898444 32.143987 
L 204.956453 32.153405 
L 205.014462 32.267254 
L 205.043467 32.09916 
L 205.072471 32.302544 
L 205.159485 32.215391 
L 205.304507 32.112632 
L 205.362516 32.128593 
L 205.536543 31.893043 
L 205.623557 31.933741 
L 205.797584 31.729988 
L 205.884597 31.718406 
L 206.058625 31.58355 
L 206.203647 31.576795 
L 206.435683 31.442981 
L 206.580706 31.420969 
L 206.725728 31.34732 
L 206.812742 31.375306 
L 206.957764 31.227957 
L 207.015773 31.166738 
L 207.044778 31.47156 
L 207.102787 31.675705 
L 207.131791 30.888126 
L 207.218805 32.659634 
L 207.276814 32.45895 
L 207.305819 32.468262 
L 207.392832 31.448594 
L 207.421837 31.709898 
L 207.50885 32.288099 
L 207.479846 31.574063 
L 207.537855 31.894141 
L 207.624868 31.858701 
L 207.653873 32.313796 
L 207.682877 32.008089 
L 207.711882 32.499579 
L 207.740886 32.492993 
L 207.769891 32.445758 
L 207.798895 32.741005 
L 207.8279 32.228184 
L 207.856904 32.46848 
L 207.972922 31.773238 
L 208.08894 32.179408 
L 208.204958 31.966088 
L 208.291972 32.034648 
L 208.320976 31.958746 
L 208.378985 31.888115 
L 208.524008 31.643047 
L 208.553012 31.668926 
L 208.611021 31.61473 
L 208.640026 31.707172 
L 208.814053 31.431579 
L 208.930071 31.389191 
L 209.075094 31.294097 
L 209.104098 31.314368 
L 210.438306 30.878889 
L 210.496315 30.833538 
L 210.525319 31.069774 
L 210.583328 31.22255 
L 210.612333 30.547285 
L 210.670342 30.493114 
L 210.757355 32.859993 
L 210.960387 31.217641 
L 211.076405 32.27908 
L 211.105409 31.787009 
L 211.163418 32.197471 
L 211.279436 32.983092 
L 211.308441 32.628622 
L 211.482468 31.817117 
L 211.511473 32.177443 
L 211.598486 32.15363 
L 211.6855 31.959894 
L 211.656495 32.165867 
L 211.714504 32.01616 
L 211.772513 31.954754 
L 211.801518 32.045438 
L 212.033554 31.568899 
L 212.091563 31.636249 
L 212.149572 31.592107 
L 212.323599 31.256125 
L 212.729662 31.029531 
L 213.019707 30.894438 
L 213.193734 30.859547 
L 213.657806 30.757817 
L 213.976856 30.751811 
L 214.121879 30.707507 
L 214.208892 30.77094 
L 214.266901 30.798441 
L 214.295906 30.627315 
L 214.353915 30.541035 
L 214.382919 31.005212 
L 214.440928 31.409792 
L 214.469933 30.238415 
L 214.556946 32.925029 
L 214.585951 32.534352 
L 214.672964 31.053501 
L 214.701969 31.44532 
L 214.788982 32.164676 
L 214.759978 31.040627 
L 214.817987 31.978967 
L 214.846991 31.865381 
L 214.875996 32.420878 
L 214.905 31.820023 
L 214.963009 32.383229 
L 214.992014 32.46437 
L 215.079027 33.051771 
L 215.108032 32.731762 
L 215.195045 31.773712 
L 215.282059 31.789822 
L 215.311064 32.234627 
L 215.398077 32.213158 
L 215.485091 31.950095 
L 215.514095 32.008089 
L 215.5431 32.105391 
L 215.572104 31.908786 
L 215.601109 32.033587 
L 215.775136 31.523535 
L 215.891154 31.599037 
L 216.065181 31.157651 
L 216.094185 31.232473 
L 216.152194 31.118955 
L 216.239208 31.084862 
L 216.355226 31.027448 
L 216.38423 31.055803 
L 216.442239 30.989538 
L 216.616266 30.818194 
L 216.732285 30.809206 
L 216.993325 30.722202 
L 217.341379 30.662081 
L 218.008483 30.745573 
L 218.066492 30.839357 
L 218.095497 30.376371 
L 218.153506 30.164142 
L 218.18251 31.688891 
L 218.211515 30.326666 
L 218.240519 32.633506 
L 218.269524 31.566522 
L 218.327533 32.472672 
L 218.356537 30.948815 
L 218.385542 31.936735 
L 218.443551 31.128311 
L 218.472555 32.171693 
L 218.50156 31.384775 
L 218.617578 32.386997 
L 218.646582 32.022354 
L 218.704591 32.591841 
L 218.733596 32.590706 
L 218.7626 32.939768 
L 218.791605 32.418963 
L 218.820609 32.608819 
L 218.936627 31.481097 
L 218.965632 31.928951 
L 219.023641 31.822175 
L 219.052645 32.237558 
L 219.139659 32.002594 
L 219.168663 31.759759 
L 219.255677 31.854871 
L 219.284681 31.862343 
L 219.429704 31.447534 
L 219.458709 31.459859 
L 219.545722 31.541586 
L 219.719749 31.062102 
L 219.748754 31.123882 
L 219.951785 30.947268 
L 220.096808 30.924128 
L 220.270835 30.733417 
L 220.357848 30.760437 
L 220.386853 30.741345 
L 220.763912 30.660204 
L 221.198979 30.59964 
L 221.344002 30.685683 
L 221.402011 30.719801 
L 221.431015 30.505657 
L 221.489024 30.398357 
L 221.518029 30.990517 
L 221.576038 31.469926 
L 221.605042 30.165346 
L 221.692056 32.689716 
L 221.72106 32.341446 
L 221.808074 30.872259 
L 221.837078 31.433038 
L 221.895087 31.190353 
L 222.011106 32.51806 
L 222.04011 31.927373 
L 222.069115 32.733427 
L 222.098119 32.458912 
L 222.156128 33.044086 
L 222.214137 32.913671 
L 222.330155 31.527458 
L 222.446173 32.357164 
L 222.475178 31.965426 
L 222.504182 32.411048 
L 222.562191 32.044608 
L 222.591196 32.148846 
L 222.6202 31.818302 
L 222.707214 31.88297 
L 222.736218 31.844392 
L 222.823232 31.492579 
L 222.852236 31.613364 
L 223.084272 31.274101 
L 223.171286 31.07124 
L 223.20029 31.134473 
L 224.186444 30.650181 
L 224.389475 30.632885 
L 224.534498 30.595043 
L 224.679521 30.668574 
L 224.73753 30.69018 
L 224.766534 30.541216 
L 224.824543 30.486827 
L 224.853548 30.808801 
L 224.911557 31.024292 
L 224.940561 30.178332 
L 225.085584 32.483076 
L 225.201602 30.807017 
L 225.230606 31.540176 
L 225.31762 32.404137 
L 225.288615 31.325028 
L 225.404633 32.390184 
L 225.433638 32.037897 
L 225.462642 32.724495 
L 225.491647 32.277502 
L 225.520651 32.817611 
L 225.607665 32.566437 
L 225.694678 31.65385 
L 225.723683 31.710073 
L 225.810696 32.298515 
L 225.868705 32.092623 
L 225.89771 32.161651 
L 225.984724 31.776269 
L 226.013728 31.868194 
L 226.042733 31.859355 
L 226.187755 31.43171 
L 226.21676 31.478227 
L 226.303773 31.574419 
L 226.4778 31.021678 
L 226.506805 31.148657 
L 226.535809 31.006859 
L 226.593818 31.03477 
L 226.738841 30.927184 
L 226.767845 30.969741 
L 226.825854 30.903906 
L 226.999881 30.710046 
L 227.028886 30.780328 
L 227.202913 30.702031 
L 227.347936 30.705013 
L 227.492958 30.634625 
L 227.579972 30.702206 
L 227.666985 30.579301 
L 227.724994 30.550279 
L 227.753999 30.753189 
L 227.812008 30.842825 
L 227.841012 30.394203 
L 227.899021 30.202333 
L 227.928026 31.524994 
L 227.95703 30.244896 
L 227.986035 32.294835 
L 228.015039 31.079529 
L 228.044044 32.334404 
L 228.131057 31.898756 
L 228.160062 30.735694 
L 228.247075 31.50022 
L 228.334089 32.355798 
L 228.363093 32.057775 
L 228.479111 32.776165 
L 228.653139 31.38954 
L 228.769157 32.103101 
L 228.827166 32.117273 
L 228.914179 31.726421 
L 228.972188 31.773537 
L 229.204224 31.353064 
L 229.233229 31.507555 
L 229.262233 31.298077 
L 229.291238 31.387737 
L 229.407256 31.001258 
L 229.43626 31.096738 
L 229.581283 30.956593 
L 229.697301 30.948952 
L 229.842323 30.738232 
L 229.929337 30.764934 
L 229.958342 30.73177 
L 230.045355 30.76209 
L 230.07436 30.734047 
L 230.538432 30.793719 
L 230.596441 30.889598 
L 230.625445 30.351528 
L 230.683454 30.149933 
L 230.712459 31.86815 
L 230.741463 30.422352 
L 230.770468 32.771543 
L 230.799472 31.642467 
L 230.828477 32.37431 
L 230.857481 32.322503 
L 230.886486 30.828729 
L 230.973499 31.498274 
L 231.060513 32.751596 
L 231.089517 32.432997 
L 231.118522 32.405621 
L 231.205535 33.054028 
L 231.176531 32.343991 
L 231.263544 32.955498 
L 231.292549 32.878181 
L 231.379563 31.705495 
L 231.437572 31.887941 
L 231.466576 31.900378 
L 231.55359 32.486999 
L 231.582594 32.195095 
L 231.669608 31.744216 
L 231.756621 31.828244 
L 231.785626 31.84985 
L 231.872639 31.472489 
L 231.930648 31.499952 
L 231.988657 31.567314 
L 232.046666 31.501991 
L 232.220693 30.983101 
L 232.249698 31.124986 
L 232.307707 31.079136 
L 232.481734 30.846424 
L 232.510738 30.88817 
L 232.539743 30.780864 
L 232.568747 30.801946 
L 232.655761 30.697702 
L 232.684766 30.713165 
L 232.829788 30.739074 
L 232.974811 30.630215 
L 233.061824 30.695794 
L 233.148838 30.611366 
L 233.235851 30.723805 
L 233.29386 30.746815 
L 233.322865 30.527562 
L 233.380874 30.447226 
L 233.409878 30.921321 
L 233.467887 31.267096 
L 233.496892 30.184064 
L 233.583905 32.333444 
L 233.61291 31.493995 
L 233.670919 31.84312 
L 233.699923 30.701582 
L 233.757932 30.982652 
L 233.87395 32.479576 
L 233.902955 31.790484 
L 233.989969 32.342332 
L 234.047978 32.2111 
L 234.076982 32.651039 
L 234.193 31.669805 
L 234.280014 32.174899 
L 234.251009 31.585714 
L 234.338023 32.12631 
L 234.51205 31.565231 
L 234.541054 31.705582 
L 234.570059 31.532498 
L 234.599063 31.555931 
L 234.976122 30.928119 
L 235.034131 30.967782 
L 235.063135 31.074701 
L 235.121144 31.022034 
L 235.295172 30.813073 
L 235.324176 30.878302 
L 235.353181 30.734845 
L 235.382185 30.811464 
L 235.469199 30.67687 
L 235.556212 30.88177 
L 235.614221 30.906083 
L 235.643226 30.501952 
L 235.701235 30.367252 
L 235.730239 31.333567 
L 235.759244 30.292673 
L 235.788248 31.805715 
L 235.817253 30.664795 
L 235.846257 31.983708 
L 235.933271 31.546438 
L 235.962275 30.700784 
L 235.99128 31.653969 
L 236.020284 30.894395 
L 236.136302 32.085824 
L 236.194311 32.159199 
L 236.223316 31.528743 
L 236.25232 32.278206 
L 236.339334 32.122842 
L 236.426347 31.189872 
L 236.484356 31.394361 
L 236.600375 31.930841 
L 236.687388 31.348243 
L 236.716393 31.639336 
L 236.89042 31.144665 
L 236.977433 31.454775 
L 237.006438 31.260553 
L 237.035442 31.377745 
L 237.064447 31.184421 
L 237.267478 30.952326 
L 237.296483 31.067828 
L 237.325487 30.874398 
L 237.354492 31.024036 
L 237.499514 30.782953 
L 237.528519 30.941486 
L 237.557523 30.705599 
L 237.586528 30.921227 
L 237.644537 30.961745 
L 237.673541 30.562223 
L 237.73155 30.460836 
L 237.760555 31.376953 
L 237.789559 30.388528 
L 237.818564 31.773057 
L 237.847568 30.669784 
L 237.876573 31.927635 
L 237.963587 31.447833 
L 238.021596 31.564757 
L 238.0506 30.839444 
L 238.137614 31.987357 
L 238.166618 31.89643 
L 238.224627 32.002195 
L 238.253632 31.491868 
L 238.340645 32.171743 
L 238.36965 31.734872 
L 238.398654 31.868194 
L 238.427659 31.656445 
L 238.514672 31.233097 
L 238.601686 31.885078 
L 238.63069 31.627392 
L 238.659695 31.666318 
L 238.775713 31.282278 
L 238.862726 31.507331 
L 238.94974 31.049497 
L 238.978744 31.256081 
L 239.123767 31.083521 
L 239.26879 30.918084 
L 239.326799 30.899721 
L 239.355803 31.047413 
L 239.442817 30.718772 
L 239.500826 30.618982 
L 239.52983 31.141964 
L 239.587839 31.426103 
L 239.616844 30.368768 
L 239.703857 31.970921 
L 239.732862 31.30379 
L 239.790871 31.531612 
L 239.819875 30.796969 
L 239.84888 31.666986 
L 239.877884 30.92777 
L 239.993902 32.068572 
L 240.051911 32.137182 
L 240.080916 31.525431 
L 240.10992 32.241014 
L 240.196934 31.92935 
L 240.283947 31.238854 
L 240.341956 31.322726 
L 240.42897 31.939548 
L 240.457974 31.798542 
L 240.544988 31.29595 
L 240.602997 31.334053 
L 240.632002 31.64732 
L 240.690011 31.519867 
L 240.777024 31.188276 
L 240.806029 31.214765 
L 240.893042 31.320113 
L 241.038065 30.874217 
L 241.125078 31.102507 
L 241.270101 30.751886 
L 241.32811 30.700297 
L 241.357114 31.037477 
L 241.415123 31.13922 
L 241.444128 30.436866 
L 241.502137 30.379496 
L 241.58915 31.930092 
L 241.705168 30.799732 
L 241.850191 32.091962 
L 241.966209 31.490066 
L 242.053223 32.168537 
L 242.082227 31.69849 
L 242.111232 31.832342 
L 242.140236 31.598195 
L 242.22725 31.317817 
L 242.314263 31.932032 
L 242.343268 31.587305 
L 242.372272 31.637315 
L 242.48829 31.311399 
L 242.517295 31.489885 
L 242.546299 31.288028 
L 242.575304 31.470188 
L 242.662317 31.014181 
L 242.720326 31.055933 
L 242.749331 31.293916 
L 242.80734 31.196465 
L 242.894353 30.865055 
L 242.952362 30.898486 
L 243.039376 31.023587 
L 243.184398 30.761728 
L 243.242407 30.717568 
L 243.271412 30.929629 
L 243.329421 30.981061 
L 243.358426 30.466687 
L 243.416435 30.28812 
L 243.445439 31.709324 
L 243.474444 30.422571 
L 243.503448 32.37829 
L 243.532453 31.231856 
L 243.561457 32.191945 
L 243.619466 31.044444 
L 243.648471 31.774423 
L 243.677475 30.823084 
L 243.70648 31.929044 
L 243.735484 31.881429 
L 243.851502 32.651999 
L 243.880507 32.093889 
L 243.96752 32.454496 
L 243.996525 32.616709 
L 244.083538 31.564663 
L 244.141547 31.714483 
L 244.257565 32.311345 
L 244.373583 31.694966 
L 244.402588 31.728573 
L 244.54761 31.2987 
L 244.576615 31.475227 
L 244.634624 31.412399 
L 244.86666 30.846829 
L 244.953674 31.010451 
L 244.982678 30.902303 
L 245.011683 30.981635 
L 245.040687 30.85848 
L 245.069692 30.891195 
L 245.214714 30.741126 
L 245.7658 30.671961 
L 245.910823 30.742817 
L 245.968832 30.820009 
L 245.997836 30.495609 
L 246.055845 30.225305 
L 246.08485 31.635325 
L 246.113854 30.037264 
L 246.142859 33.077948 
L 246.171863 31.756721 
L 246.229872 33.219827 
L 246.258877 31.219768 
L 246.287881 32.356858 
L 246.34589 31.39733 
L 246.461908 34.183266 
L 246.490913 33.343868 
L 246.577926 33.724222 
L 246.606931 34.225405 
L 246.635935 33.462557 
L 246.66494 33.748442 
L 246.780958 32.495388 
L 246.838967 32.807769 
L 246.896976 33.257787 
L 246.954985 33.11332 
L 247.071003 31.932344 
L 247.100007 32.183612 
L 247.216025 31.707385 
L 247.24503 31.832816 
L 247.361048 31.444347 
L 247.390053 31.418811 
L 247.535075 30.827837 
L 247.651093 30.956861 
L 247.796116 30.546349 
L 247.82512 30.554595 
L 247.912134 30.55099 
L 247.999147 30.459458 
L 248.028152 30.53118 
L 248.086161 30.571897 
L 248.173174 30.427754 
L 248.376206 30.554283 
L 248.521228 30.497043 
L 248.608242 30.661857 
L 248.666251 30.734714 
L 248.695256 30.395189 
L 248.753265 30.255636 
L 248.782269 31.260235 
L 248.811274 30.15173 
L 248.840278 31.911374 
L 248.869283 30.597095 
L 248.898287 32.331785 
L 248.985301 31.86916 
L 249.014305 30.706173 
L 249.04331 31.899586 
L 249.072314 31.354879 
L 249.188332 32.949854 
L 249.217337 32.198875 
L 249.30435 32.513869 
L 249.333355 32.842548 
L 249.362359 32.284325 
L 249.391364 32.691887 
L 249.507382 31.898444 
L 249.536386 32.368011 
L 249.536386 32.368011 
" clip-path="url(#pcdb9d02ca9)" style="fill: none; stroke: #000000; stroke-width: 1.5; stroke-linecap: square"/>
   </g>
   <g id="line2d_17">
    <path d="M 173.43 30.661411 
L 253.1605 30.661411 
" clip-path="url(#pcdb9d02ca9)" style="fill: none; stroke-dasharray: 5.55,2.4; stroke-dashoffset: 0; stroke: #000000; stroke-width: 1.5"/>
   </g>
   <g id="patch_6">
    <path d="M 173.43 72.48625 
L 173.43 15.92625 
" style="fill: none; stroke: #000000; stroke-width: 1.5; stroke-linejoin: miter; stroke-linecap: square"/>
   </g>
   <g id="patch_7">
    <path d="M 173.43 72.48625 
L 253.1605 72.48625 
" style="fill: none; stroke: #000000; stroke-width: 1.5; stroke-linejoin: miter; stroke-linecap: square"/>
   </g>
   <g id="legend_2">
    <g id="line2d_18">
     <path d="M 188.4305 60.89625 
L 196.4305 60.89625 
L 204.4305 60.89625 
" style="fill: none; stroke-dasharray: 5.55,2.4; stroke-dashoffset: 0; stroke: #000000; stroke-width: 1.5"/>
    </g>
    <g id="text_19">
     <text style="font: 8px 'Arial', sans-serif, serif; text-anchor: start" x="210.8305" y="63.69625" transform="rotate(-0 210.8305 63.69625)">true value</text>
    </g>
   </g>
  </g>
  <g id="axes_3">
   <g id="patch_8">
    <path d="M 309.3 72.48625 
L 389.0305 72.48625 
L 389.0305 15.92625 
L 309.3 15.92625 
z
" style="fill: #ffffff"/>
   </g>
   <g id="matplotlib.axis_5">
    <g id="xtick_7">
     <g id="line2d_19">
      <g>
       <use xlink:href="#m1835a14556" x="312.924114" y="72.48625" style="stroke: #000000; stroke-width: 1.5"/>
      </g>
     </g>
     <g id="text_20">
      <text style="font: 8px 'Arial', sans-serif, serif; text-anchor: middle" x="312.924114" y="85.2125" transform="rotate(-0 312.924114 85.2125)">0</text>
     </g>
    </g>
    <g id="xtick_8">
     <g id="line2d_20">
      <g>
       <use xlink:href="#m1835a14556" x="341.928625" y="72.48625" style="stroke: #000000; stroke-width: 1.5"/>
      </g>
     </g>
     <g id="text_21">
      <text style="font: 8px 'Arial', sans-serif, serif; text-anchor: middle" x="341.928625" y="85.2125" transform="rotate(-0 341.928625 85.2125)">1000</text>
     </g>
    </g>
    <g id="xtick_9">
     <g id="line2d_21">
      <g>
       <use xlink:href="#m1835a14556" x="370.933135" y="72.48625" style="stroke: #000000; stroke-width: 1.5"/>
      </g>
     </g>
     <g id="text_22">
      <text style="font: 8px 'Arial', sans-serif, serif; text-anchor: middle" x="370.933135" y="85.2125" transform="rotate(-0 370.933135 85.2125)">2000</text>
     </g>
    </g>
    <g id="text_23">
     <text style="font: 8px 'Arial', sans-serif, serif; text-anchor: middle" x="349.16525" y="96.52875" transform="rotate(-0 349.16525 96.52875)">iteration</text>
    </g>
   </g>
   <g id="matplotlib.axis_6">
    <g id="ytick_7">
     <g id="line2d_22">
      <g>
       <use xlink:href="#m67b56e2697" x="309.3" y="64.182968" style="stroke: #000000; stroke-width: 1.5"/>
      </g>
     </g>
     <g id="text_24">
      <text style="font: 8px 'Arial', sans-serif, serif; text-anchor: end" x="302.3" y="67.046093" transform="rotate(-0 302.3 67.046093)">0.0010</text>
     </g>
    </g>
    <g id="ytick_8">
     <g id="line2d_23">
      <g>
       <use xlink:href="#m67b56e2697" x="309.3" y="42.263742" style="stroke: #000000; stroke-width: 1.5"/>
      </g>
     </g>
     <g id="text_25">
      <text style="font: 8px 'Arial', sans-serif, serif; text-anchor: end" x="302.3" y="45.126867" transform="rotate(-0 302.3 45.126867)">0.0015</text>
     </g>
    </g>
    <g id="ytick_9">
     <g id="line2d_24">
      <g>
       <use xlink:href="#m67b56e2697" x="309.3" y="20.344516" style="stroke: #000000; stroke-width: 1.5"/>
      </g>
     </g>
     <g id="text_26">
      <text style="font: 8px 'Arial', sans-serif, serif; text-anchor: end" x="302.3" y="23.207641" transform="rotate(-0 302.3 23.207641)">0.0020</text>
     </g>
    </g>
    <g id="text_27">
     <!-- $g_K$ (S/cm²) -->
     <g transform="translate(271.43375 62.80625) rotate(-90)">
      <text>
       <tspan style="font: 8px 'Arial'" x="0 8.722012 10.944669 13.608731 18.944669 21.167325 25.167325 31.831387 34.49545" y="-0.171875">g (S/cm²)</tspan>
       <tspan style="font: 5.6px 'Arial'" x="4.588606" y="2.217625">K</tspan>
      </text>
     </g>
    </g>
   </g>
   <g id="line2d_25">
    <path d="M 312.924114 55.234536 
L 313.040132 35.761674 
L 313.098141 40.391356 
L 313.127145 41.930949 
L 313.185154 40.026376 
L 313.475199 18.497159 
L 313.591217 21.422987 
L 314.200312 39.943225 
L 314.519362 44.326262 
L 315.273479 49.729711 
L 315.882574 55.889014 
L 316.317641 58.224953 
L 317.100763 61.138921 
L 317.738862 62.67581 
L 318.579993 64.155836 
L 319.334111 65.062145 
L 320.088228 65.630419 
L 320.87135 65.945793 
L 321.857503 66.084015 
L 323.82981 66.314574 
L 324.902977 66.763432 
L 329.74673 68.999195 
L 331.632023 69.468104 
L 331.980077 69.379742 
L 332.183109 69.165693 
L 332.560168 69.500648 
L 333.227271 69.590656 
L 334.677497 69.558313 
L 334.851524 69.298066 
L 335.721659 69.695558 
L 337.46193 69.477323 
L 337.635957 69.28282 
L 337.926002 69.599426 
L 338.071025 69.677272 
L 338.245052 69.679045 
L 339.115187 69.553967 
L 339.695277 69.629871 
L 339.956318 69.581441 
L 339.985322 69.663505 
L 340.014327 69.522364 
L 340.043331 69.620062 
L 340.217358 69.216993 
L 340.333376 69.261135 
L 340.42039 69.336659 
L 340.594417 69.642589 
L 340.623422 69.62515 
L 340.797449 69.666669 
L 341.00048 69.671423 
L 341.261521 69.637886 
L 342.47971 69.574973 
L 342.914778 69.623466 
L 343.262832 69.057759 
L 343.291837 69.077867 
L 343.813918 69.644436 
L 343.929936 69.617995 
L 344.132967 69.665922 
L 344.306994 69.577961 
L 344.59704 69.397678 
L 344.800071 69.424178 
L 345.496179 69.510873 
L 346.511337 69.622022 
L 346.685364 68.948946 
L 346.714369 68.995181 
L 346.743373 68.857999 
L 346.859391 69.002747 
L 346.975409 69.329264 
L 347.149436 69.685113 
L 347.352468 69.573873 
L 347.584504 69.693422 
L 347.729527 69.612266 
L 348.164594 69.283317 
L 348.367626 69.385746 
L 348.657671 69.424658 
L 349.005725 69.449576 
L 350.020883 69.539241 
L 350.281924 69.474274 
L 350.310928 69.591151 
L 350.339933 69.367915 
L 350.368937 69.514364 
L 350.484955 68.876716 
L 350.51396 68.927634 
L 350.542964 68.774004 
L 350.629978 68.815883 
L 350.891018 69.653599 
L 351.123054 69.539499 
L 351.239073 69.617023 
L 351.4131 69.700128 
L 351.906176 69.222081 
L 352.051199 69.290276 
L 352.486266 69.375708 
L 353.820474 69.519575 
L 353.965497 69.47086 
L 354.023506 69.401817 
L 354.05251 69.546028 
L 354.226537 68.760383 
L 354.6326 69.625954 
L 354.806627 69.475231 
L 355.067668 69.698648 
L 355.676763 69.2302 
L 355.966808 69.390516 
L 356.343866 69.397347 
L 356.836943 69.441943 
L 357.388029 69.535995 
L 357.620065 68.783805 
L 357.649069 68.871922 
L 357.678074 68.75123 
L 357.736083 68.910846 
L 357.765087 68.919307 
L 357.939115 69.598951 
L 357.968119 69.578293 
L 358.084137 69.547422 
L 358.200155 69.406643 
L 358.403187 69.632578 
L 358.519205 69.659282 
L 358.867259 69.217975 
L 358.983277 69.173672 
L 359.012281 69.204083 
L 359.128299 69.274509 
L 359.302327 69.364304 
L 359.650381 69.355605 
L 360.027439 69.412292 
L 360.839566 69.515885 
L 361.013593 68.79454 
L 361.332642 69.622152 
L 361.506669 69.414795 
L 361.535674 69.453714 
L 361.651692 69.466634 
L 361.825719 69.683649 
L 362.318796 69.201695 
L 362.434814 69.258142 
L 362.753863 69.357728 
L 363.798026 69.502506 
L 363.972053 68.838805 
L 364.291102 69.607959 
L 364.523139 69.380574 
L 364.72617 69.615704 
L 364.842188 69.614076 
L 365.161238 69.237779 
L 365.30626 69.244304 
L 366.52445 69.511006 
L 366.727481 68.819024 
L 366.756486 68.692438 
L 366.78549 68.855665 
L 366.814495 68.818797 
L 367.075535 69.631279 
L 367.133544 69.513297 
L 367.249563 69.358318 
L 367.307572 69.418623 
L 367.481599 69.678788 
L 367.568612 69.699816 
L 367.945671 69.148537 
L 369.047842 69.423846 
L 369.250874 69.394177 
L 369.308883 69.359275 
L 369.337887 69.488438 
L 369.511914 68.929445 
L 369.656937 69.156261 
L 369.80196 69.580783 
L 369.888973 69.543002 
L 370.033996 69.367734 
L 370.208023 69.570025 
L 370.353045 69.624622 
L 370.38205 69.569165 
L 370.469063 69.485353 
L 370.788113 69.215015 
L 371.049153 69.380406 
L 371.600239 69.470729 
L 371.745262 69.022938 
L 371.832275 69.001705 
L 372.006302 69.449721 
L 372.035307 69.433686 
L 372.064311 69.552283 
L 372.12232 69.533025 
L 372.238338 69.335773 
L 372.267343 69.400587 
L 372.296347 69.344676 
L 372.325352 69.437422 
L 372.354356 69.396701 
L 372.528384 69.604466 
L 372.557388 69.562125 
L 372.586393 69.586114 
L 372.644402 69.515244 
L 372.963451 69.272161 
L 373.543541 69.327087 
L 373.60155 69.303917 
L 373.630555 69.43584 
L 373.775577 69.052 
L 373.891596 69.217901 
L 373.9206 69.169191 
L 374.065623 69.446414 
L 374.152636 69.523555 
L 374.297659 69.354687 
L 374.384672 69.40342 
L 374.529695 69.548687 
L 374.732726 69.467147 
L 374.935758 69.274654 
L 375.457839 69.410378 
L 375.602862 68.998597 
L 375.689875 69.03831 
L 375.863902 69.458563 
L 376.153947 69.339055 
L 376.29897 69.515775 
L 376.502002 69.50678 
L 376.676029 69.316796 
L 376.908065 69.286216 
L 377.053087 69.370385 
L 377.19811 69.325704 
L 377.285123 69.39269 
L 377.430146 69.071329 
L 377.45915 69.168339 
L 377.488155 69.018718 
L 377.546164 69.092529 
L 377.575168 69.07677 
L 377.720191 69.436115 
L 377.923223 69.402925 
L 377.952227 69.309784 
L 378.039241 69.357933 
L 378.184263 69.537335 
L 378.213268 69.509646 
L 378.329286 69.516252 
L 378.648335 69.245245 
L 378.909376 69.377423 
L 379.228426 69.314507 
L 379.286435 69.244985 
L 379.315439 69.434755 
L 379.460462 68.865484 
L 379.489466 68.82904 
L 379.721502 69.60714 
L 379.953538 69.293894 
L 380.185574 69.677254 
L 380.620642 69.177895 
L 380.939692 69.346041 
L 381.200732 69.369686 
L 381.722813 69.445564 
L 381.867836 69.413838 
L 381.925845 69.332584 
L 381.95485 69.550063 
L 382.128877 68.322327 
L 382.389917 69.791161 
L 382.592949 69.233824 
L 382.621953 69.312606 
L 382.79598 69.833047 
L 382.824985 69.915341 
L 382.882994 69.894047 
L 383.289057 69.02476 
L 383.318062 69.04498 
L 383.463084 69.176578 
L 383.666116 69.220417 
L 383.869147 69.290682 
L 384.072179 69.35828 
L 384.333219 69.353763 
L 384.536251 69.427414 
L 384.623265 69.301738 
L 384.652269 69.466448 
L 384.681274 69.164598 
L 384.710278 69.374475 
L 384.826296 68.797738 
L 385.116341 69.578821 
L 385.290368 69.253375 
L 385.319373 69.331476 
L 385.406386 69.510381 
L 385.406386 69.510381 
" clip-path="url(#p78b5c08660)" style="fill: none; stroke: #000000; stroke-width: 1.5; stroke-linecap: square"/>
   </g>
   <g id="line2d_26">
    <path d="M 309.3 69.969643 
L 389.0305 69.969643 
" clip-path="url(#p78b5c08660)" style="fill: none; stroke-dasharray: 5.55,2.4; stroke-dashoffset: 0; stroke: #000000; stroke-width: 1.5"/>
   </g>
   <g id="patch_9">
    <path d="M 309.3 72.48625 
L 309.3 15.92625 
" style="fill: none; stroke: #000000; stroke-width: 1.5; stroke-linejoin: miter; stroke-linecap: square"/>
   </g>
   <g id="patch_10">
    <path d="M 309.3 72.48625 
L 389.0305 72.48625 
" style="fill: none; stroke: #000000; stroke-width: 1.5; stroke-linejoin: miter; stroke-linecap: square"/>
   </g>
   <g id="legend_3">
    <g id="line2d_27">
     <path d="M 324.3005 26.0525 
L 332.3005 26.0525 
L 340.3005 26.0525 
" style="fill: none; stroke-dasharray: 5.55,2.4; stroke-dashoffset: 0; stroke: #000000; stroke-width: 1.5"/>
    </g>
    <g id="text_28">
     <text style="font: 8px 'Arial', sans-serif, serif; text-anchor: start" x="346.7005" y="28.8525" transform="rotate(-0 346.7005 28.8525)">true value</text>
    </g>
   </g>
  </g>
 </g>
 <defs>
  <clipPath id="p990c21c675">
   <rect x="37.56" y="15.92625" width="79.7305" height="56.56"/>
  </clipPath>
  <clipPath id="pcdb9d02ca9">
   <rect x="173.43" y="15.92625" width="79.7305" height="56.56"/>
  </clipPath>
  <clipPath id="p78b5c08660">
   <rect x="309.3" y="15.92625" width="79.7305" height="56.56"/>
  </clipPath>
 </defs>
</svg>
