<?xml version="1.0" encoding="utf-8" standalone="no"?>
<!DOCTYPE svg PUBLIC "-//W3C//DTD SVG 1.1//EN"
  "http://www.w3.org/Graphics/SVG/1.1/DTD/svg11.dtd">
<svg xmlns:xlink="http://www.w3.org/1999/xlink" width="389.55925pt" height="105.31875pt" viewBox="0 0 389.55925 105.31875" xmlns="http://www.w3.org/2000/svg" version="1.1">
 <metadata>
  <rdf:RDF xmlns:dc="http://purl.org/dc/elements/1.1/" xmlns:cc="http://creativecommons.org/ns#" xmlns:rdf="http://www.w3.org/1999/02/22-rdf-syntax-ns#">
   <cc:Work>
    <dc:type rdf:resource="http://purl.org/dc/dcmitype/StillImage"/>
    <dc:date>2025-10-29T05:04:06.399771</dc:date>
    <dc:format>image/svg+xml</dc:format>
    <dc:creator>
     <cc:Agent>
      <dc:title>Matplotlib v3.9.2, https://matplotlib.org/</dc:title>
     </cc:Agent>
    </dc:creator>
   </cc:Work>
  </rdf:RDF>
 </metadata>
 <defs>
  <style type="text/css">*{stroke-linejoin: round; stroke-linecap: butt}</style>
 </defs>
 <g id="figure_1">
  <g id="patch_1">
   <path d="M 0 105.31875 
L 389.55925 105.31875 
L 389.55925 0 
L 0 0 
z
" style="fill: #ffffff"/>
  </g>
  <g id="axes_1">
   <g id="patch_2">
    <path d="M 30.88875 72.48625 
L 110.67925 72.48625 
L 110.67925 15.92625 
L 30.88875 15.92625 
z
" style="fill: #ffffff"/>
   </g>
   <g id="matplotlib.axis_1">
    <g id="xtick_1">
     <g id="line2d_1">
      <defs>
       <path id="m2aa92df37a" d="M 0 0 
L 0 3.5 
" style="stroke: #000000; stroke-width: 1.5"/>
      </defs>
      <g>
       <use xlink:href="#m2aa92df37a" x="34.515591" y="72.48625" style="stroke: #000000; stroke-width: 1.5"/>
      </g>
     </g>
     <g id="text_1">
      <text style="font: 8px 'Arial', sans-serif, serif; text-anchor: middle" x="34.515591" y="85.2125" transform="rotate(-0 34.515591 85.2125)">0</text>
     </g>
    </g>
    <g id="xtick_2">
     <g id="line2d_2">
      <g>
       <use xlink:href="#m2aa92df37a" x="63.541929" y="72.48625" style="stroke: #000000; stroke-width: 1.5"/>
      </g>
     </g>
     <g id="text_2">
      <text style="font: 8px 'Arial', sans-serif, serif; text-anchor: middle" x="63.541929" y="85.2125" transform="rotate(-0 63.541929 85.2125)">1000</text>
     </g>
    </g>
    <g id="xtick_3">
     <g id="line2d_3">
      <g>
       <use xlink:href="#m2aa92df37a" x="92.568267" y="72.48625" style="stroke: #000000; stroke-width: 1.5"/>
      </g>
     </g>
     <g id="text_3">
      <text style="font: 8px 'Arial', sans-serif, serif; text-anchor: middle" x="92.568267" y="85.2125" transform="rotate(-0 92.568267 85.2125)">2000</text>
     </g>
    </g>
    <g id="text_4">
     <text style="font: 8px 'Arial', sans-serif, serif; text-anchor: middle" x="70.784" y="96.52875" transform="rotate(-0 70.784 96.52875)">iteration</text>
    </g>
   </g>
   <g id="matplotlib.axis_2">
    <g id="ytick_1">
     <g id="line2d_4">
      <defs>
       <path id="m4e824a84c4" d="M 0 0 
L -3.5 0 
" style="stroke: #000000; stroke-width: 1.5"/>
      </defs>
      <g>
       <use xlink:href="#m4e824a84c4" x="30.88875" y="69.033835" style="stroke: #000000; stroke-width: 1.5"/>
      </g>
     </g>
     <g id="text_5">
      <text style="font: 8px 'Arial', sans-serif, serif; text-anchor: end" x="23.88875" y="71.89696" transform="rotate(-0 23.88875 71.89696)">2</text>
     </g>
    </g>
    <g id="ytick_2">
     <g id="line2d_5">
      <g>
       <use xlink:href="#m4e824a84c4" x="30.88875" y="35.342718" style="stroke: #000000; stroke-width: 1.5"/>
      </g>
     </g>
     <g id="text_6">
      <text style="font: 8px 'Arial', sans-serif, serif; text-anchor: end" x="23.88875" y="38.205843" transform="rotate(-0 23.88875 38.205843)">4</text>
     </g>
    </g>
    <g id="text_7">
     <!-- $g_L$ (S/cm²) -->
     <g transform="translate(13.04 62.48625) rotate(-90)">
      <text>
       <tspan style="font: 8px 'Arial'" x="0 8.101309 10.323966 12.988028 18.323966 20.546622 24.546622 31.210684 33.874747" y="-0.171875">g (S/cm²)</tspan>
       <tspan style="font: 5.6px 'Arial'" x="4.588606" y="2.217625">L</tspan>
      </text>
     </g>
    </g>
    <g id="text_8">
     <text style="font: 8px 'Arial', sans-serif, serif; text-anchor: start" x="30.88875" y="12.92625" transform="rotate(-0 30.88875 12.92625)">1e−6</text>
    </g>
   </g>
   <g id="line2d_6">
    <path d="M 34.515591 56.537612 
L 34.631696 69.539675 
L 34.689749 68.357599 
L 34.718775 67.749177 
L 34.776828 68.562972 
L 34.805854 69.48583 
L 34.834881 68.58844 
L 34.892933 67.22586 
L 34.950986 67.898687 
L 35.067091 69.834611 
L 35.096118 69.560684 
L 35.183197 68.644974 
L 35.212223 68.794415 
L 35.328328 69.915341 
L 35.357355 69.774898 
L 35.47346 68.911026 
L 35.502486 69.045008 
L 35.589565 69.543567 
L 35.618592 69.467854 
L 35.734697 68.898578 
L 35.79275 69.010141 
L 35.850802 68.906284 
L 36.083013 68.246737 
L 36.402303 67.652146 
L 36.489382 67.641678 
L 36.721593 67.380609 
L 37.21504 67.192598 
L 37.592383 67.246673 
L 38.40512 67.788112 
L 39.827411 68.864979 
L 40.756254 69.266032 
L 41.627044 69.405376 
L 42.468807 69.309114 
L 43.339598 68.973949 
L 44.384546 68.32143 
L 45.081178 67.62317 
L 47.229127 64.921804 
L 53.324658 55.32307 
L 53.38271 55.170167 
L 53.411737 55.439019 
L 53.469789 55.568443 
L 53.498816 54.717732 
L 53.527842 55.653723 
L 53.614921 55.3566 
L 53.672974 55.649414 
L 53.702 55.118984 
L 53.818106 55.616363 
L 53.934211 55.201591 
L 53.963237 55.490306 
L 53.992264 55.159512 
L 54.050316 55.28291 
L 54.137395 55.046106 
L 54.108369 55.321944 
L 54.166422 55.20403 
L 54.369606 54.93799 
L 54.398632 54.979946 
L 54.543764 54.759102 
L 54.775975 54.340653 
L 54.805001 54.373865 
L 54.834027 54.241067 
L 54.863054 54.266676 
L 54.89208 54.16925 
L 55.066238 53.93456 
L 55.298449 53.514643 
L 55.385528 53.420132 
L 55.646765 52.982842 
L 56.08216 52.184961 
L 56.140213 51.993204 
L 56.169239 52.520463 
L 56.227292 52.66155 
L 56.256318 51.722219 
L 56.285344 52.643693 
L 56.372423 52.625063 
L 56.40145 52.122168 
L 56.430476 52.826285 
L 56.459502 52.281652 
L 56.575608 52.854307 
L 56.604634 52.38498 
L 56.691713 52.485788 
L 56.720739 52.763764 
L 56.749766 52.387906 
L 56.778792 52.712423 
L 56.894897 52.365963 
L 56.923924 52.647133 
L 57.011003 52.488519 
L 57.098082 52.285888 
L 57.069055 52.524585 
L 57.156134 52.313542 
L 57.359319 52.078668 
L 57.852767 51.289349 
L 57.939846 51.202306 
L 58.14303 50.862649 
L 58.46232 50.316725 
L 58.549399 50.22678 
L 58.752583 49.82205 
L 58.781609 49.93731 
L 58.810636 49.693595 
L 58.839662 49.911678 
L 58.897715 49.957843 
L 58.926741 49.295653 
L 58.984794 49.112365 
L 59.01382 50.251358 
L 59.042846 49.387341 
L 59.129925 49.884774 
L 59.217004 50.436937 
L 59.187978 49.814983 
L 59.246031 50.073907 
L 59.362136 50.504261 
L 59.391162 50.077623 
L 59.478241 50.239898 
L 59.536294 50.085302 
L 59.56532 50.426515 
L 59.594347 50.102623 
L 59.681426 50.156441 
L 59.710452 50.331414 
L 59.739478 50.072149 
L 59.768505 50.300929 
L 59.88461 50.050654 
L 59.913636 50.154135 
L 59.942663 49.966649 
L 59.971689 50.07511 
L 60.145847 49.694859 
L 60.174874 49.769652 
L 60.2039 49.621982 
L 60.232926 49.64502 
L 60.610269 49.004785 
L 60.697348 48.924645 
L 60.929558 48.508842 
L 61.016637 48.40808 
L 61.219822 48.033467 
L 61.248848 48.055679 
L 61.277874 47.938091 
L 61.306901 47.976014 
L 61.452032 47.606147 
L 61.510085 47.451915 
L 61.539111 47.844327 
L 61.597164 48.012286 
L 61.62619 46.982163 
L 61.655217 48.214933 
L 61.742296 47.829044 
L 61.829375 47.781434 
L 61.94548 48.563825 
L 61.974506 48.199596 
L 62.003533 48.729483 
L 62.032559 48.248558 
L 62.148665 48.695899 
L 62.177691 48.318234 
L 62.206717 48.734324 
L 62.26477 48.600331 
L 62.293796 48.624228 
L 62.351849 48.727625 
L 62.380875 48.39793 
L 62.409902 48.654245 
L 62.496981 48.617207 
L 62.58406 48.392123 
L 62.613086 48.436719 
L 62.845297 48.10972 
L 63.019455 47.813022 
L 63.106534 47.725448 
L 63.280692 47.389785 
L 63.367771 47.296882 
L 63.599981 46.864341 
L 63.68706 46.761856 
L 63.977324 46.26761 
L 64.122455 46.073662 
L 64.32564 45.699704 
L 64.354666 45.747268 
L 64.383693 45.594208 
L 64.412719 45.683165 
L 64.557851 45.119657 
L 64.615903 44.807378 
L 64.64493 46.077661 
L 64.673956 44.752062 
L 64.702982 46.282145 
L 64.732009 45.402267 
L 64.848114 46.795148 
L 64.87714 46.192614 
L 64.935193 46.879145 
L 64.964219 46.380353 
L 64.993246 47.072247 
L 65.080325 47.007301 
L 65.109351 46.687243 
L 65.138377 47.166478 
L 65.167404 46.733294 
L 65.283509 47.22754 
L 65.312535 46.83306 
L 65.399614 46.995393 
L 65.428641 47.248231 
L 65.457667 46.919979 
L 65.51572 47.050322 
L 65.573772 47.134522 
L 67.924906 43.229481 
L 67.953932 43.340983 
L 67.982958 43.093952 
L 68.011985 43.325122 
L 68.070037 43.410376 
L 68.099064 42.593409 
L 68.157116 42.284669 
L 68.186143 44.159195 
L 68.215169 42.678165 
L 68.302248 43.71342 
L 68.418353 45.16688 
L 68.44738 44.507287 
L 68.476406 45.361245 
L 68.505432 45.056006 
L 68.534459 45.097292 
L 68.621538 45.524149 
L 68.592511 44.983914 
L 68.650564 45.324808 
L 68.679591 45.301647 
L 68.76667 45.665807 
L 68.737643 45.206278 
L 68.795696 45.474869 
L 68.824722 45.461605 
L 68.911801 45.764274 
L 68.882775 45.385587 
L 68.940828 45.615018 
L 68.969854 45.539478 
L 68.99888 45.793005 
L 69.027907 45.471706 
L 69.085959 45.61311 
L 69.173038 45.398931 
L 69.231091 45.428118 
L 69.405249 45.079099 
L 69.434275 45.085645 
L 69.608433 44.705268 
L 69.63746 44.753498 
L 69.666486 44.637725 
L 69.86967 44.34906 
L 70.101881 43.882123 
L 70.217986 43.686796 
L 71.146829 42.14282 
L 71.582224 41.477673 
L 71.785409 41.037027 
L 71.843461 40.856623 
L 71.872488 41.319408 
L 71.93054 41.622414 
L 71.959567 40.186653 
L 72.046646 42.181464 
L 72.075672 41.950014 
L 72.104698 41.72966 
L 72.220804 43.285966 
L 72.24983 42.571098 
L 72.278856 43.538984 
L 72.307883 43.209618 
L 72.336909 43.224376 
L 72.365935 43.738175 
L 72.394962 43.13096 
L 72.453014 43.575321 
L 72.482041 43.466125 
L 72.56912 43.881897 
L 72.540093 43.449283 
L 72.598146 43.78395 
L 72.627172 43.689949 
L 72.656199 44.043908 
L 72.685225 43.684877 
L 72.743278 43.945445 
L 72.80133 44.096995 
L 72.830357 43.768154 
L 72.859383 43.94662 
L 72.917436 43.707794 
L 72.946462 43.930081 
L 73.062568 43.544063 
L 73.091594 43.666634 
L 73.149647 43.492963 
L 73.236726 43.38582 
L 73.410884 42.989846 
L 73.43991 43.027207 
L 73.468936 42.933596 
L 75.355648 39.716775 
L 75.384675 39.74243 
L 75.529806 39.333748 
L 75.587859 39.108032 
L 75.616885 39.805702 
L 75.674938 40.190767 
L 75.703964 38.57489 
L 75.82007 40.872963 
L 75.849096 40.026787 
L 75.878122 41.408709 
L 75.907149 40.964977 
L 75.936175 41.055198 
L 75.965201 41.865392 
L 76.05228 41.801975 
L 76.081307 41.521521 
L 76.110333 42.101381 
L 76.139359 41.607028 
L 76.255465 42.265874 
L 76.284491 41.890925 
L 76.313517 42.280575 
L 76.37157 42.088086 
L 76.400596 42.449641 
L 76.429623 42.077446 
L 76.487675 42.308011 
L 76.574754 42.103059 
L 76.545728 42.432796 
L 76.603781 42.275216 
L 77.474571 40.790685 
L 77.764834 40.230295 
L 77.851913 40.111044 
L 78.345361 39.275019 
L 78.664651 38.78116 
L 78.867835 38.368023 
L 78.925888 38.227131 
L 78.954914 38.479812 
L 79.012967 38.578988 
L 79.041993 37.706824 
L 79.100046 37.416063 
L 79.129072 39.366144 
L 79.158098 37.865243 
L 79.245177 38.934223 
L 79.361283 40.409136 
L 79.390309 39.76843 
L 79.419335 40.733542 
L 79.448362 40.210025 
L 79.564467 40.942535 
L 79.593494 40.539031 
L 79.796678 41.20429 
L 79.825704 40.812713 
L 79.854731 41.347629 
L 79.912783 41.136778 
L 79.94181 41.250973 
L 79.970836 40.880221 
L 79.999862 41.284437 
L 80.057915 41.052199 
L 80.086941 41.128554 
L 80.17402 40.832489 
L 80.203047 40.913123 
L 80.232073 40.904045 
L 80.377205 40.632248 
L 80.551363 40.372577 
L 80.580389 40.39077 
L 80.754547 40.012738 
L 80.783573 40.066901 
L 80.8126 39.901458 
L 80.841626 39.940335 
L 81.073837 39.470591 
L 81.335074 39.035368 
L 82.147811 37.66725 
L 82.176838 37.701431 
L 82.321969 37.298797 
L 82.380022 37.10108 
L 82.409048 37.679913 
L 82.467101 37.990438 
L 82.496127 36.550859 
L 82.525154 38.38784 
L 82.612233 38.320191 
L 82.641259 37.97815 
L 82.757364 39.220779 
L 82.786391 38.747672 
L 82.815417 39.616228 
L 82.844443 38.955451 
L 82.960549 39.783977 
L 82.989575 39.25293 
L 83.076654 39.534322 
L 83.163733 39.977201 
L 83.134707 39.512141 
L 83.192759 39.754744 
L 83.221786 39.785417 
L 83.279838 39.628324 
L 83.308865 40.001251 
L 83.42497 39.592993 
L 83.453996 39.844215 
L 83.483023 39.577454 
L 83.541075 39.63205 
L 83.715233 39.337252 
L 83.773286 39.177949 
L 83.802313 39.25771 
L 83.976471 38.863245 
L 84.005497 38.943412 
L 84.034523 38.784637 
L 84.06355 38.812801 
L 84.440892 38.097156 
L 84.469918 38.110776 
L 84.673103 37.741978 
L 85.108498 36.99748 
L 85.137524 37.045541 
L 85.16655 36.890647 
L 85.195577 36.974912 
L 85.340708 36.438434 
L 85.398761 36.137415 
L 85.427787 37.303784 
L 85.456814 35.930904 
L 85.48584 37.644476 
L 85.514866 36.366578 
L 85.630972 38.290889 
L 85.659998 37.438355 
L 85.747077 38.024259 
L 85.834156 38.643677 
L 85.80513 37.990683 
L 85.863182 38.335849 
L 85.950262 38.274664 
L 85.979288 38.837115 
L 86.008314 38.395761 
L 86.095393 38.59257 
L 86.182472 38.932094 
L 86.153446 38.532539 
L 86.211499 38.663602 
L 86.298578 38.573974 
L 86.327604 38.833641 
L 86.443709 38.537442 
L 86.472736 38.592938 
L 86.617867 38.273983 
L 86.704946 38.098075 
L 86.733973 38.19354 
L 86.879104 37.928242 
L 87.082289 37.561942 
L 87.285473 37.190194 
L 87.314499 37.224191 
L 87.517684 36.839957 
L 87.749894 36.496944 
L 88.011131 35.995337 
L 88.069184 35.839431 
L 88.098211 36.159761 
L 88.156263 36.338794 
L 88.18529 35.238941 
L 88.272369 37.077103 
L 88.243342 35.156001 
L 88.301395 35.97165 
L 88.4175 37.875263 
L 88.446527 37.275892 
L 88.649711 38.312147 
L 88.678737 37.805031 
L 88.707764 38.424212 
L 88.73679 38.053928 
L 88.852895 38.630846 
L 88.881922 38.228426 
L 88.969001 38.348312 
L 88.998027 38.666291 
L 89.027053 38.264583 
L 89.085106 38.403605 
L 89.143159 38.521155 
L 89.172185 38.192245 
L 89.201211 38.458301 
L 89.28829 38.262737 
L 89.433422 37.939917 
L 89.694659 37.596981 
L 89.868817 37.278014 
L 90.217133 36.692769 
L 90.47837 36.231271 
L 90.536423 36.139193 
L 90.565449 36.161668 
L 90.768634 35.7394 
L 90.79766 35.854031 
L 90.826686 35.613814 
L 90.855713 35.818249 
L 90.913765 35.845682 
L 90.942792 35.223169 
L 91.000844 34.921737 
L 91.029871 36.331639 
L 91.058897 35.001681 
L 91.087923 36.500231 
L 91.11695 35.801082 
L 91.233055 37.116225 
L 91.291108 36.978045 
L 91.320134 37.019917 
L 91.378187 37.312394 
L 91.407213 36.686909 
L 91.523318 37.303286 
L 91.552345 36.964065 
L 91.581371 37.481162 
L 91.610397 37.011399 
L 91.726503 37.468285 
L 91.755529 37.136173 
L 91.784555 37.521226 
L 91.842608 37.402045 
L 91.958713 37.082488 
L 91.98774 37.291994 
L 92.016766 37.030443 
L 92.045792 37.186824 
L 92.21995 36.750805 
L 92.248977 36.895672 
L 92.278003 36.681493 
L 92.307029 36.776467 
L 92.481188 36.408336 
L 92.510214 36.486457 
L 92.53924 36.328981 
L 92.568267 36.379617 
L 92.742425 36.033953 
L 92.771451 36.038595 
L 92.974635 35.61324 
L 93.003662 35.715882 
L 93.032688 35.501918 
L 93.061714 35.658345 
L 93.148793 35.231924 
L 93.206846 35.022342 
L 93.235872 35.83043 
L 93.264899 34.787242 
L 93.293925 36.055127 
L 93.322951 34.930661 
L 93.439057 36.228858 
L 93.468083 35.704193 
L 93.497109 36.574461 
L 93.526136 35.81576 
L 93.642241 36.575977 
L 93.671267 36.146685 
L 93.700294 36.748851 
L 93.72932 36.16294 
L 93.758346 36.757914 
L 93.845425 36.683132 
L 93.903478 36.855546 
L 93.932504 36.409914 
L 93.961531 36.872376 
L 94.04861 36.659254 
L 94.106662 36.738724 
L 94.135689 36.462702 
L 94.164715 36.728214 
L 94.193741 36.419528 
L 94.222768 36.648101 
L 94.338873 36.369175 
L 94.367899 36.434642 
L 94.396926 36.230322 
L 94.425952 36.390119 
L 94.571084 36.054046 
L 94.629137 36.022378 
L 94.832321 35.6357 
L 94.861347 35.744127 
L 94.890374 35.54369 
L 94.9194 35.657962 
L 95.064532 35.269897 
L 95.093558 35.446701 
L 95.122584 35.155029 
L 95.151611 35.414994 
L 95.209663 35.439577 
L 95.23869 34.824096 
L 95.296742 34.611824 
L 95.325769 35.779503 
L 95.354795 34.715287 
L 95.383821 35.837508 
L 95.412848 35.271115 
L 95.528953 36.177411 
L 95.557979 35.487685 
L 95.587006 36.246301 
L 95.616032 35.730705 
L 95.732137 36.243758 
L 95.761164 35.821566 
L 95.79019 36.347596 
L 95.819216 35.854667 
L 95.848243 36.338227 
L 95.935322 36.206091 
L 95.993374 36.317329 
L 96.022401 36.00004 
L 96.051427 36.321198 
L 96.080453 35.982988 
L 96.10948 36.248071 
L 96.225585 36.008635 
L 96.254611 36.05004 
L 96.399743 35.683218 
L 96.428769 35.877434 
L 96.457796 35.624692 
L 96.486822 35.775159 
L 96.631954 35.493261 
L 96.893191 35.020993 
L 96.922217 35.182545 
L 97.009296 34.752049 
L 97.067349 34.545469 
L 97.096375 35.346855 
L 97.125402 34.32684 
L 97.154428 35.546448 
L 97.183454 34.476441 
L 97.29956 35.663592 
L 97.328586 35.217699 
L 97.357612 35.991384 
L 97.386639 35.25162 
L 97.415665 36.012511 
L 97.502744 35.916886 
L 97.560797 36.112894 
L 97.589823 35.583724 
L 97.618849 36.181915 
L 97.705928 35.955992 
L 97.734955 35.958857 
L 97.793007 35.828897 
L 97.822034 36.223404 
L 97.85106 35.810397 
L 97.938139 36.041774 
L 98.054244 35.77804 
L 98.083271 35.980314 
L 98.112297 35.692878 
L 98.141323 35.916372 
L 98.286455 35.596402 
L 98.837955 34.70886 
L 98.866982 34.981335 
L 98.925035 35.016144 
L 98.954061 34.372619 
L 99.012114 34.180241 
L 99.04114 35.347046 
L 99.070166 34.340858 
L 99.099193 35.373513 
L 99.128219 34.888368 
L 99.244324 35.719337 
L 99.273351 35.030937 
L 99.302377 35.777465 
L 99.331403 35.26108 
L 99.447509 35.764557 
L 99.476535 35.359379 
L 99.505561 35.871183 
L 99.534588 35.384498 
L 99.563614 35.862259 
L 99.650693 35.706935 
L 99.708746 35.809693 
L 99.737772 35.505825 
L 99.766798 35.81327 
L 99.795825 35.470625 
L 99.824851 35.747957 
L 99.853877 35.484153 
L 99.940956 35.528186 
L 99.999009 35.396441 
L 100.028035 35.490182 
L 100.173167 35.090688 
L 100.202193 35.287516 
L 100.23122 35.02919 
L 100.260246 35.202822 
L 100.405378 34.861709 
L 100.434404 34.945139 
L 100.46343 34.796503 
L 100.492457 34.854531 
L 100.637588 34.557627 
L 100.666615 34.611426 
L 100.695641 34.460362 
L 100.724667 34.55002 
L 100.869799 34.02016 
L 100.927852 33.735344 
L 100.956878 34.882094 
L 100.985904 33.605744 
L 101.014931 35.149743 
L 101.043957 34.104441 
L 101.160063 35.655403 
L 101.189089 34.896388 
L 101.218115 35.697857 
L 101.276168 35.477236 
L 101.334221 35.285977 
L 101.363247 35.901595 
L 101.392273 35.385073 
L 101.479352 35.651695 
L 101.537405 35.541323 
L 101.566431 35.999151 
L 101.595458 35.606774 
L 101.682537 35.749229 
L 101.740589 35.585195 
L 101.769616 35.920195 
L 101.798642 35.555357 
L 101.885721 35.652201 
L 101.914747 35.663201 
L 102.059879 35.312084 
L 102.088905 35.446119 
L 102.117932 35.261785 
L 102.146958 35.316197 
L 102.321116 34.947928 
L 102.350142 35.075789 
L 102.379169 34.868634 
L 102.408195 34.981657 
L 102.553327 34.655589 
L 102.582353 34.680378 
L 102.611379 34.579658 
L 102.698458 34.483014 
L 103.104827 33.853269 
L 103.453143 33.252642 
L 103.48217 33.399639 
L 103.540222 33.485007 
L 103.569249 32.708373 
L 103.656328 34.496358 
L 103.627301 32.225273 
L 103.71438 34.292842 
L 103.772433 33.936837 
L 103.888538 36.006406 
L 103.917565 35.120679 
L 104.004644 35.461516 
L 104.120749 36.265123 
L 104.149775 35.822263 
L 104.178802 36.302506 
L 104.236854 36.180199 
L 104.294907 36.095045 
L 104.323933 36.385308 
L 104.440039 36.102476 
L 104.469065 36.351771 
L 104.498091 36.057287 
L 104.556144 36.156467 
L 104.614197 36.215736 
L 104.730302 35.83796 
L 104.759328 35.905609 
L 104.90446 35.583019 
L 105.107644 35.195039 
L 106.210645 33.269541 
L 106.268698 33.034464 
L 106.297724 33.823317 
L 106.326751 32.739475 
L 106.355777 34.112231 
L 106.384803 32.846851 
L 106.500909 34.49583 
L 106.529935 33.813588 
L 106.558961 34.826946 
L 106.587988 34.19652 
L 106.704093 35.014987 
L 106.733119 34.381604 
L 106.820198 34.711648 
L 106.878251 34.594734 
L 106.907277 35.107587 
L 106.936304 34.72294 
L 107.023383 34.784392 
L 107.052409 35.08063 
L 107.052409 35.08063 
" clip-path="url(#p24fcb8ae9e)" style="fill: none; stroke: #000000; stroke-width: 1.5; stroke-linecap: square"/>
   </g>
   <g id="line2d_7">
    <path d="M 30.88875 18.497159 
L 110.67925 18.497159 
" clip-path="url(#p24fcb8ae9e)" style="fill: none; stroke-dasharray: 5.55,2.4; stroke-dashoffset: 0; stroke: #000000; stroke-width: 1.5"/>
   </g>
   <g id="patch_3">
    <path d="M 30.88875 72.48625 
L 30.88875 15.92625 
" style="fill: none; stroke: #000000; stroke-width: 1.5; stroke-linejoin: miter; stroke-linecap: square"/>
   </g>
   <g id="patch_4">
    <path d="M 30.88875 72.48625 
L 110.67925 72.48625 
" style="fill: none; stroke: #000000; stroke-width: 1.5; stroke-linejoin: miter; stroke-linecap: square"/>
   </g>
   <g id="legend_1">
    <g id="line2d_8">
     <path d="M 38.08875 26.0525 
L 46.08875 26.0525 
L 54.08875 26.0525 
" style="fill: none; stroke-dasharray: 5.55,2.4; stroke-dashoffset: 0; stroke: #000000; stroke-width: 1.5"/>
    </g>
    <g id="text_9">
     <text style="font: 8px 'Arial', sans-serif, serif; text-anchor: start" x="60.48875" y="28.8525" transform="rotate(-0 60.48875 28.8525)">true value</text>
    </g>
   </g>
  </g>
  <g id="axes_2">
   <g id="patch_5">
    <path d="M 166.72875 72.48625 
L 246.51925 72.48625 
L 246.51925 15.92625 
L 166.72875 15.92625 
z
" style="fill: #ffffff"/>
   </g>
   <g id="matplotlib.axis_3">
    <g id="xtick_4">
     <g id="line2d_9">
      <g>
       <use xlink:href="#m2aa92df37a" x="170.355591" y="72.48625" style="stroke: #000000; stroke-width: 1.5"/>
      </g>
     </g>
     <g id="text_10">
      <text style="font: 8px 'Arial', sans-serif, serif; text-anchor: middle" x="170.355591" y="85.2125" transform="rotate(-0 170.355591 85.2125)">0</text>
     </g>
    </g>
    <g id="xtick_5">
     <g id="line2d_10">
      <g>
       <use xlink:href="#m2aa92df37a" x="199.381929" y="72.48625" style="stroke: #000000; stroke-width: 1.5"/>
      </g>
     </g>
     <g id="text_11">
      <text style="font: 8px 'Arial', sans-serif, serif; text-anchor: middle" x="199.381929" y="85.2125" transform="rotate(-0 199.381929 85.2125)">1000</text>
     </g>
    </g>
    <g id="xtick_6">
     <g id="line2d_11">
      <g>
       <use xlink:href="#m2aa92df37a" x="228.408267" y="72.48625" style="stroke: #000000; stroke-width: 1.5"/>
      </g>
     </g>
     <g id="text_12">
      <text style="font: 8px 'Arial', sans-serif, serif; text-anchor: middle" x="228.408267" y="85.2125" transform="rotate(-0 228.408267 85.2125)">2000</text>
     </g>
    </g>
    <g id="text_13">
     <text style="font: 8px 'Arial', sans-serif, serif; text-anchor: middle" x="206.624" y="96.52875" transform="rotate(-0 206.624 96.52875)">iteration</text>
    </g>
   </g>
   <g id="matplotlib.axis_4">
    <g id="ytick_3">
     <g id="line2d_12">
      <g>
       <use xlink:href="#m4e824a84c4" x="166.72875" y="56.870667" style="stroke: #000000; stroke-width: 1.5"/>
      </g>
     </g>
     <g id="text_14">
      <text style="font: 8px 'Arial', sans-serif, serif; text-anchor: end" x="159.72875" y="59.733792" transform="rotate(-0 159.72875 59.733792)">0.0075</text>
     </g>
    </g>
    <g id="ytick_4">
     <g id="line2d_13">
      <g>
       <use xlink:href="#m4e824a84c4" x="166.72875" y="40.91921" style="stroke: #000000; stroke-width: 1.5"/>
      </g>
     </g>
     <g id="text_15">
      <text style="font: 8px 'Arial', sans-serif, serif; text-anchor: end" x="159.72875" y="43.782335" transform="rotate(-0 159.72875 43.782335)">0.0100</text>
     </g>
    </g>
    <g id="ytick_5">
     <g id="line2d_14">
      <g>
       <use xlink:href="#m4e824a84c4" x="166.72875" y="24.967753" style="stroke: #000000; stroke-width: 1.5"/>
      </g>
     </g>
     <g id="text_16">
      <text style="font: 8px 'Arial', sans-serif, serif; text-anchor: end" x="159.72875" y="27.830878" transform="rotate(-0 159.72875 27.830878)">0.0125</text>
     </g>
    </g>
    <g id="text_17">
     <!-- $g_{Na}$ (S/cm²) -->
     <g transform="translate(128.7825 64.52625) rotate(-90)">
      <text>
       <tspan style="font: 8px 'Arial'" x="0 12.14545 14.368106 17.032169 22.368106 24.590763 28.590763 35.254825 37.918887" y="-0.171875">g (S/cm²)</tspan>
       <tspan style="font: 5.6px 'Arial'" x="4.588606 8.632747" y="2.217625">Na</tspan>
      </text>
     </g>
    </g>
   </g>
   <g id="line2d_15">
    <path d="M 170.355591 18.497159 
L 170.471696 40.465992 
L 170.500723 38.774084 
L 170.558775 33.888674 
L 170.616828 35.589627 
L 171.139302 65.002466 
L 171.429565 68.043848 
L 171.748855 69.560117 
L 172.155224 69.886048 
L 172.50354 69.703216 
L 173.171146 68.387124 
L 173.780699 66.408418 
L 174.999805 61.312336 
L 176.073779 57.325201 
L 176.886517 55.112552 
L 177.612175 53.74609 
L 178.279781 52.931806 
L 178.918361 52.489253 
L 179.527914 52.332588 
L 180.137467 52.407801 
L 180.834099 52.733253 
L 181.61781 53.363306 
L 183.881864 55.686827 
L 185.652471 57.42872 
L 187.016709 58.443703 
L 188.497052 59.261092 
L 189.309789 59.722794 
L 189.338816 59.474536 
L 189.367842 59.76921 
L 189.396869 59.526755 
L 189.512974 59.763508 
L 189.542 59.594139 
L 189.629079 59.640605 
L 189.745185 59.755263 
L 189.774211 59.705017 
L 189.803237 59.822329 
L 189.832264 59.740069 
L 189.948369 59.887888 
L 189.977395 59.818912 
L 190.093501 59.917897 
L 190.209606 59.905139 
L 190.383764 59.956951 
L 190.557922 60.01324 
L 191.022343 60.166945 
L 191.835081 60.37358 
L 191.92216 60.340439 
L 191.980213 60.317989 
L 192.009239 60.480177 
L 192.067292 60.534051 
L 192.096318 60.258253 
L 192.125344 60.516978 
L 192.212423 60.479313 
L 192.24145 60.322695 
L 192.270476 60.52487 
L 192.328529 60.448671 
L 192.763924 60.570745 
L 192.880029 60.504369 
L 192.967108 60.552903 
L 192.996134 60.522208 
L 194.505504 60.725612 
L 194.650636 60.692834 
L 194.737715 60.800671 
L 194.795767 60.858199 
L 194.824794 60.56986 
L 194.85382 60.880438 
L 194.940899 60.739639 
L 194.998952 60.823415 
L 195.027978 60.645732 
L 195.057004 60.815051 
L 195.144083 60.771461 
L 195.202136 60.811192 
L 195.231162 60.689174 
L 195.347268 60.825691 
L 195.434347 60.754308 
L 195.40532 60.849009 
L 195.463373 60.821309 
L 195.666557 60.782612 
L 196.392216 60.807914 
L 196.682479 60.818034 
L 197.23398 60.80729 
L 197.321059 60.865098 
L 197.379111 60.892166 
L 197.408138 60.728186 
L 197.46619 60.656624 
L 197.495217 60.991035 
L 197.524243 60.660977 
L 197.611322 60.804723 
L 197.669375 60.715576 
L 197.698401 60.929249 
L 197.814506 60.749213 
L 197.843533 60.908555 
L 197.930612 60.848655 
L 198.017691 60.80885 
L 198.046717 60.936885 
L 198.133796 60.891916 
L 198.220875 60.806491 
L 198.249902 60.879128 
L 198.42406 60.799984 
L 198.598218 60.830611 
L 198.772376 60.796368 
L 198.946534 60.837056 
L 199.120692 60.816073 
L 199.410955 60.814822 
L 199.672192 60.803487 
L 200.397851 60.694281 
L 200.455903 60.610107 
L 200.48493 60.958809 
L 200.513956 60.558385 
L 200.542982 60.970329 
L 200.601035 60.830695 
L 200.630061 60.877812 
L 200.659088 60.673037 
L 200.688114 60.943442 
L 200.746167 60.814739 
L 200.804219 60.698613 
L 200.833246 60.904475 
L 200.862272 60.749611 
L 200.949351 60.789211 
L 200.978377 60.949221 
L 201.065456 60.895395 
L 201.152535 60.807727 
L 201.123509 60.945124 
L 201.210588 60.851092 
L 201.384746 60.776809 
L 201.471825 60.801006 
L 201.500851 60.767744 
L 203.881011 60.56619 
L 203.939064 60.48852 
L 203.96809 60.806643 
L 203.997116 60.37965 
L 204.026143 60.900372 
L 204.055169 60.407752 
L 204.171274 60.891518 
L 204.28738 60.585949 
L 204.403485 60.882961 
L 204.432511 60.715261 
L 204.461538 60.906828 
L 204.519591 60.835535 
L 204.60667 60.92544 
L 204.577643 60.788539 
L 204.635696 60.841563 
L 204.954986 60.66213 
L 204.984012 60.722264 
L 205.071091 60.675236 
L 205.216223 60.639739 
L 205.593565 60.58914 
L 205.738697 60.560545 
L 205.941881 60.539658 
L 206.261171 60.51628 
L 207.277093 60.45065 
L 207.654435 60.488921 
L 207.712488 60.530292 
L 207.741514 60.309465 
L 207.799567 60.186612 
L 207.828593 60.748146 
L 207.857619 60.192049 
L 207.944698 60.412404 
L 207.973725 60.774593 
L 208.060804 60.721809 
L 208.08983 60.444779 
L 208.118856 60.749043 
L 208.176909 60.622664 
L 208.263988 60.823522 
L 208.234962 60.608221 
L 208.293014 60.776034 
L 208.351067 60.86877 
L 208.380093 60.701561 
L 208.40912 60.830011 
L 208.496199 60.803366 
L 208.612304 60.607003 
L 208.64133 60.693984 
L 208.670357 60.566104 
L 208.728409 60.6117 
L 208.815489 60.528379 
L 208.844515 60.545915 
L 209.018673 60.507964 
L 209.192831 60.471534 
L 209.337963 60.44444 
L 209.512121 60.411035 
L 209.686279 60.366095 
L 209.918489 60.351427 
L 210.208753 60.314741 
L 211.050517 60.285591 
L 211.311754 60.254263 
L 211.398833 60.34259 
L 211.456885 60.412069 
L 211.485912 60.07857 
L 211.543964 59.986764 
L 211.572991 60.603211 
L 211.602017 60.134794 
L 211.689096 60.180601 
L 211.805201 60.617467 
L 211.834228 60.308389 
L 211.921307 60.458033 
L 211.950333 60.677913 
L 212.037412 60.641168 
L 212.095465 60.696664 
L 212.124491 60.534767 
L 212.240596 60.628487 
L 212.356702 60.433877 
L 212.385728 60.522291 
L 212.414754 60.396568 
L 212.472807 60.436822 
L 212.617939 60.368645 
L 212.76307 60.331199 
L 213.430676 60.217628 
L 213.72094 60.185955 
L 214.82394 60.074853 
L 214.881993 59.984363 
L 214.911019 60.378132 
L 214.940046 59.867708 
L 214.969072 60.494703 
L 214.998098 59.926751 
L 215.114204 60.538921 
L 215.14323 60.175244 
L 215.230309 60.217521 
L 215.346415 60.600383 
L 215.375441 60.38515 
L 215.404467 60.663324 
L 215.46252 60.560839 
L 215.520573 60.43878 
L 215.549599 60.646674 
L 215.665704 60.377751 
L 215.694731 60.55137 
L 215.78181 60.449342 
L 215.868889 60.307524 
L 215.897915 60.342338 
L 215.955968 60.250183 
L 215.984994 60.352312 
L 216.101099 60.227249 
L 216.130126 60.297517 
L 216.217205 60.244289 
L 216.449415 60.147633 
L 216.565521 60.14596 
L 216.739679 60.101089 
L 217.029942 60.080392 
L 217.2041 60.051556 
L 217.726574 60.04559 
L 217.987811 60.027178 
L 218.132943 60.078018 
L 218.190996 60.105353 
L 218.220022 59.954247 
L 218.278075 59.860458 
L 218.307101 60.281301 
L 218.336127 59.75808 
L 218.365154 60.382137 
L 218.39418 59.83651 
L 218.510285 60.433013 
L 218.539312 60.059299 
L 218.626391 60.146935 
L 218.655417 60.477696 
L 218.742496 60.451722 
L 218.771522 60.320966 
L 218.800549 60.563335 
L 218.829575 60.342507 
L 218.94568 60.519474 
L 218.974707 60.323688 
L 219.061786 60.350645 
L 219.090812 60.412048 
L 219.119838 60.250332 
L 219.148865 60.380916 
L 219.26497 60.195371 
L 219.293996 60.290553 
L 219.381075 60.204237 
L 219.526207 60.143016 
L 219.700365 60.136509 
L 219.90355 60.061314 
L 220.222839 59.991333 
L 220.45505 59.977493 
L 221.209735 60.097975 
L 221.267787 60.208658 
L 221.296814 59.686768 
L 221.32584 60.296231 
L 221.412919 60.112986 
L 221.470972 60.339827 
L 221.499998 59.967709 
L 221.616103 60.373413 
L 221.64513 60.118625 
L 221.674156 60.392441 
L 221.732209 60.326071 
L 221.790262 60.248115 
L 221.819288 60.460496 
L 221.935393 60.264766 
L 221.96442 60.377374 
L 221.993446 60.195989 
L 222.022472 60.334238 
L 222.138578 60.137043 
L 222.167604 60.237817 
L 222.19663 60.115422 
L 222.225657 60.185572 
L 222.399815 60.057817 
L 222.51592 60.086545 
L 222.661052 60.01991 
L 222.893262 59.977603 
L 223.125473 59.919597 
L 223.270605 59.935543 
L 223.502815 59.914213 
L 223.938211 59.998791 
L 223.996263 60.089534 
L 224.02529 59.675252 
L 224.112369 60.302794 
L 224.083342 59.601599 
L 224.141395 59.809205 
L 224.2575 60.384285 
L 224.373606 60.083509 
L 224.489711 60.4967 
L 224.518737 60.281619 
L 224.547764 60.532836 
L 224.605816 60.434047 
L 224.634843 60.458179 
L 224.721922 60.280394 
L 224.692895 60.481167 
L 224.750948 60.394548 
L 224.954132 60.167561 
L 224.983159 60.230989 
L 225.012185 60.087734 
L 225.041211 60.19387 
L 225.157317 60.04614 
L 225.186343 60.114257 
L 225.273422 60.038239 
L 225.534659 59.960543 
L 225.679791 59.892363 
L 226.057133 59.861269 
L 226.31837 59.830818 
L 226.463502 59.861632 
L 226.608634 59.823607 
L 226.695713 59.909741 
L 226.753765 59.952862 
L 226.782792 59.718988 
L 226.840844 59.606683 
L 226.869871 60.157524 
L 226.898897 59.597288 
L 226.927923 60.167623 
L 226.985976 60.006822 
L 227.044029 59.860333 
L 227.073055 60.274966 
L 227.102081 59.948224 
L 227.18916 60.058449 
L 227.276239 60.349234 
L 227.305266 60.210818 
L 227.421371 60.375817 
L 227.450397 60.154455 
L 227.537476 60.211344 
L 227.595529 60.104548 
L 227.624555 60.25158 
L 227.740661 60.087603 
L 227.798713 60.024058 
L 227.82774 60.113538 
L 227.914819 60.009312 
L 227.943845 60.027478 
L 228.350214 59.921091 
L 228.495346 59.857113 
L 228.901714 59.873294 
L 228.959767 59.891576 
L 228.988793 59.742184 
L 229.046846 59.677243 
L 229.075872 60.014708 
L 229.104899 59.582575 
L 229.133925 60.095726 
L 229.162951 59.605694 
L 229.191978 60.069167 
L 229.279057 60.04926 
L 229.308083 59.812554 
L 229.337109 60.172707 
L 229.366136 59.831332 
L 229.482241 60.159304 
L 229.511267 59.983359 
L 229.540294 60.253903 
L 229.56932 59.997053 
L 229.598346 60.246377 
L 229.685425 60.163751 
L 229.743478 60.213314 
L 229.772504 60.00725 
L 229.801531 60.192726 
L 229.88861 60.054528 
L 230.033741 59.94708 
L 230.062768 60.046184 
L 230.149847 59.964393 
L 230.411084 59.887291 
L 230.585242 59.880407 
L 230.730374 59.79866 
L 230.817453 59.856899 
L 230.962584 59.755409 
L 231.020637 59.724758 
L 231.049663 59.916409 
L 231.107716 59.991244 
L 231.136742 59.578718 
L 231.165769 60.064671 
L 231.252848 59.77312 
L 231.368953 60.110211 
L 231.397979 59.799748 
L 231.427006 60.130406 
L 231.456032 59.898692 
L 231.572137 60.158602 
L 231.63019 60.206881 
L 231.659216 59.978536 
L 231.688243 60.177321 
L 231.775322 60.078716 
L 231.833374 60.112056 
L 231.862401 59.963544 
L 231.891427 60.095747 
L 231.920453 59.937204 
L 231.94948 60.048621 
L 232.065585 59.951035 
L 232.152664 59.973283 
L 232.297796 59.856602 
L 232.326822 59.93267 
L 232.413901 59.85432 
L 232.588059 59.847988 
L 232.733191 59.768613 
L 232.791244 59.747226 
L 232.82027 59.870691 
L 232.878323 59.909976 
L 232.907349 59.642917 
L 232.965402 59.550994 
L 232.994428 60.068299 
L 233.023454 59.580819 
L 233.110533 59.915321 
L 233.168586 59.797977 
L 233.197612 60.135026 
L 233.226639 59.792552 
L 233.313718 60.058981 
L 233.37177 59.982598 
L 233.400797 60.201893 
L 233.429823 59.961993 
L 233.458849 60.225092 
L 233.516902 60.16013 
L 233.633007 59.984892 
L 233.662034 60.151997 
L 233.69106 59.9528 
L 233.720086 60.10122 
L 233.836192 59.959907 
L 233.894244 59.911509 
L 233.923271 60.005063 
L 234.01035 59.863828 
L 234.039376 59.956098 
L 234.155481 59.878535 
L 234.300613 59.876384 
L 234.445745 59.764596 
L 234.532824 59.828557 
L 234.677955 59.710407 
L 234.736008 59.675576 
L 234.765035 59.886183 
L 234.823087 59.968072 
L 234.852114 59.529266 
L 234.88114 60.035545 
L 234.968219 59.75885 
L 235.084324 60.091866 
L 235.113351 59.771302 
L 235.142377 60.111842 
L 235.171403 59.872055 
L 235.287509 60.136217 
L 235.345561 60.18261 
L 235.374588 59.946926 
L 235.403614 60.151002 
L 235.490693 60.045355 
L 235.548746 60.079649 
L 235.635825 59.899969 
L 235.664851 60.023015 
L 235.75193 59.918492 
L 235.868035 59.931205 
L 236.013167 59.808201 
L 236.042193 59.906589 
L 236.100246 59.882071 
L 236.245378 59.771432 
L 236.332457 59.802458 
L 236.361483 59.757593 
L 236.506615 59.786829 
L 236.593694 59.719992 
L 236.651746 59.693403 
L 236.680773 59.840376 
L 236.738825 59.917217 
L 236.767852 59.529266 
L 236.825904 59.449522 
L 236.854931 60.117226 
L 236.883957 59.602158 
L 236.971036 59.843041 
L 237.000063 60.20134 
L 237.029089 59.82585 
L 237.087142 60.032107 
L 237.348379 60.285906 
L 237.435458 60.086694 
L 237.464484 60.218071 
L 237.580589 59.984571 
L 237.609616 60.132272 
L 237.638642 59.954948 
L 237.667668 60.071163 
L 237.783774 59.912213 
L 237.841826 59.875362 
L 237.870853 59.968116 
L 237.957932 59.856091 
L 237.986958 59.88987 
L 238.219169 59.740431 
L 238.306248 59.778076 
L 238.451379 59.713447 
L 238.654564 59.715455 
L 239.293143 59.711198 
L 239.351196 59.668617 
L 239.380222 59.876936 
L 239.438275 60.066071 
L 239.467301 59.322985 
L 239.496328 60.308116 
L 239.583407 60.247691 
L 239.612433 59.811232 
L 239.641459 60.477907 
L 239.670486 60.209716 
L 239.699512 60.193342 
L 239.728538 60.640327 
L 239.815617 60.612663 
L 239.844644 60.417479 
L 239.87367 60.784243 
L 239.902696 60.564006 
L 239.960749 60.789044 
L 240.018802 60.738698 
L 240.19296 60.448965 
L 240.251012 60.432026 
L 240.42517 60.158671 
L 240.454197 60.236953 
L 240.483223 60.069211 
L 240.512249 60.163431 
L 240.686407 59.927286 
L 240.802513 59.86553 
L 240.976671 59.71011 
L 241.266934 59.643089 
L 241.412066 59.606211 
L 241.557198 59.636107 
L 241.760382 59.635914 
L 241.905514 59.690194 
L 241.992593 59.633537 
L 242.050645 59.607494 
L 242.079672 59.800835 
L 242.137724 59.920135 
L 242.166751 59.422193 
L 242.25383 60.078484 
L 242.282856 59.763761 
L 242.398961 60.267401 
L 242.457014 60.148503 
L 242.515067 60.023375 
L 242.544093 60.37921 
L 242.573119 60.080368 
L 242.660198 60.242215 
L 242.718251 60.155239 
L 242.747277 60.389193 
L 242.863383 60.157078 
L 242.892409 60.283413 
L 242.892409 60.283413 
" clip-path="url(#p0a108bd93e)" style="fill: none; stroke: #000000; stroke-width: 1.5; stroke-linecap: square"/>
   </g>
   <g id="line2d_16">
    <path d="M 166.72875 60.060959 
L 246.51925 60.060959 
" clip-path="url(#p0a108bd93e)" style="fill: none; stroke-dasharray: 5.55,2.4; stroke-dashoffset: 0; stroke: #000000; stroke-width: 1.5"/>
   </g>
   <g id="patch_6">
    <path d="M 166.72875 72.48625 
L 166.72875 15.92625 
" style="fill: none; stroke: #000000; stroke-width: 1.5; stroke-linejoin: miter; stroke-linecap: square"/>
   </g>
   <g id="patch_7">
    <path d="M 166.72875 72.48625 
L 246.51925 72.48625 
" style="fill: none; stroke: #000000; stroke-width: 1.5; stroke-linejoin: miter; stroke-linecap: square"/>
   </g>
   <g id="legend_2">
    <g id="line2d_17">
     <path d="M 181.78925 26.0525 
L 189.78925 26.0525 
L 197.78925 26.0525 
" style="fill: none; stroke-dasharray: 5.55,2.4; stroke-dashoffset: 0; stroke: #000000; stroke-width: 1.5"/>
    </g>
    <g id="text_18">
     <text style="font: 8px 'Arial', sans-serif, serif; text-anchor: start" x="204.18925" y="28.8525" transform="rotate(-0 204.18925 28.8525)">true value</text>
    </g>
   </g>
  </g>
  <g id="axes_3">
   <g id="patch_8">
    <path d="M 302.56875 72.48625 
L 382.35925 72.48625 
L 382.35925 15.92625 
L 302.56875 15.92625 
z
" style="fill: #ffffff"/>
   </g>
   <g id="matplotlib.axis_5">
    <g id="xtick_7">
     <g id="line2d_18">
      <g>
       <use xlink:href="#m2aa92df37a" x="306.195591" y="72.48625" style="stroke: #000000; stroke-width: 1.5"/>
      </g>
     </g>
     <g id="text_19">
      <text style="font: 8px 'Arial', sans-serif, serif; text-anchor: middle" x="306.195591" y="85.2125" transform="rotate(-0 306.195591 85.2125)">0</text>
     </g>
    </g>
    <g id="xtick_8">
     <g id="line2d_19">
      <g>
       <use xlink:href="#m2aa92df37a" x="335.221929" y="72.48625" style="stroke: #000000; stroke-width: 1.5"/>
      </g>
     </g>
     <g id="text_20">
      <text style="font: 8px 'Arial', sans-serif, serif; text-anchor: middle" x="335.221929" y="85.2125" transform="rotate(-0 335.221929 85.2125)">1000</text>
     </g>
    </g>
    <g id="xtick_9">
     <g id="line2d_20">
      <g>
       <use xlink:href="#m2aa92df37a" x="364.248267" y="72.48625" style="stroke: #000000; stroke-width: 1.5"/>
      </g>
     </g>
     <g id="text_21">
      <text style="font: 8px 'Arial', sans-serif, serif; text-anchor: middle" x="364.248267" y="85.2125" transform="rotate(-0 364.248267 85.2125)">2000</text>
     </g>
    </g>
    <g id="text_22">
     <text style="font: 8px 'Arial', sans-serif, serif; text-anchor: middle" x="342.464" y="96.52875" transform="rotate(-0 342.464 96.52875)">iteration</text>
    </g>
   </g>
   <g id="matplotlib.axis_6">
    <g id="ytick_6">
     <g id="line2d_21">
      <g>
       <use xlink:href="#m4e824a84c4" x="302.56875" y="60.186789" style="stroke: #000000; stroke-width: 1.5"/>
      </g>
     </g>
     <g id="text_23">
      <text style="font: 8px 'Arial', sans-serif, serif; text-anchor: end" x="295.56875" y="63.049914" transform="rotate(-0 295.56875 63.049914)">0.0010</text>
     </g>
    </g>
    <g id="ytick_7">
     <g id="line2d_22">
      <g>
       <use xlink:href="#m4e824a84c4" x="302.56875" y="25.462541" style="stroke: #000000; stroke-width: 1.5"/>
      </g>
     </g>
     <g id="text_24">
      <text style="font: 8px 'Arial', sans-serif, serif; text-anchor: end" x="295.56875" y="28.325666" transform="rotate(-0 295.56875 28.325666)">0.0015</text>
     </g>
    </g>
    <g id="text_25">
     <!-- $g_K$ (S/cm²) -->
     <g transform="translate(264.7025 62.80625) rotate(-90)">
      <text>
       <tspan style="font: 8px 'Arial'" x="0 8.722012 10.944669 13.608731 18.944669 21.167325 25.167325 31.831387 34.49545" y="-0.171875">g (S/cm²)</tspan>
       <tspan style="font: 5.6px 'Arial'" x="4.588606" y="2.217625">K</tspan>
      </text>
     </g>
    </g>
   </g>
   <g id="line2d_23">
    <path d="M 306.195591 18.497159 
L 306.340723 39.462663 
L 306.427802 49.558918 
L 306.485854 60.46235 
L 306.543907 54.179009 
L 306.863197 32.839919 
L 307.15346 24.233915 
L 307.443723 21.029453 
L 307.559829 20.712405 
L 307.588855 20.745205 
L 307.733987 21.215793 
L 307.966198 23.195082 
L 309.127251 35.234536 
L 309.794857 39.376293 
L 310.375384 41.626425 
L 311.101042 43.530266 
L 312.116964 45.5157 
L 314.613229 50.111074 
L 316.238704 53.887525 
L 317.428784 56.425058 
L 318.415679 57.959138 
L 319.402575 59.134289 
L 320.157259 59.669718 
L 321.086102 60.047136 
L 322.392287 60.315845 
L 325.788369 60.908999 
L 326.25279 61.303314 
L 327.326765 61.356084 
L 328.197555 61.549854 
L 328.95224 62.0751 
L 329.300556 62.057067 
L 330.780899 62.245129 
L 331.767795 62.848713 
L 332.232216 62.807379 
L 333.277164 62.903023 
L 333.422296 62.974416 
L 333.973796 63.355565 
L 334.235033 63.674481 
L 334.438218 63.663102 
L 335.425113 63.636118 
L 336.615193 63.838854 
L 336.789351 63.935368 
L 336.87643 64.011256 
L 337.311825 64.651485 
L 337.631115 64.525834 
L 337.950404 64.475918 
L 338.61801 64.479985 
L 340.011274 64.501535 
L 340.185432 64.643404 
L 340.359591 64.774177 
L 340.504722 65.182928 
L 340.794986 65.681368 
L 341.491618 65.367376 
L 342.565592 65.253909 
L 343.668593 65.15214 
L 343.784698 65.242521 
L 343.813725 65.214956 
L 343.871777 65.283115 
L 344.133014 65.425425 
L 344.597436 66.484329 
L 344.684515 66.427743 
L 345.206989 66.10303 
L 345.758489 66.063346 
L 347.093701 65.829216 
L 347.50007 65.816167 
L 347.674228 65.927035 
L 347.790333 65.903621 
L 348.341833 67.015165 
L 348.399886 66.974923 
L 348.893334 66.653258 
L 351.041283 66.366164 
L 351.157388 66.380426 
L 351.244467 66.43877 
L 351.650836 67.529294 
L 351.679862 67.514644 
L 351.824994 67.437761 
L 352.695784 67.107797 
L 354.001969 66.783251 
L 354.205154 66.730028 
L 354.321259 66.790681 
L 354.437364 66.780344 
L 354.727628 67.137954 
L 354.988865 67.798876 
L 355.133996 67.773024 
L 355.366207 67.565308 
L 355.656471 67.418576 
L 356.759471 67.151981 
L 357.572209 67.13322 
L 357.688314 67.437228 
L 357.978578 67.998645 
L 358.90742 67.538652 
L 359.749184 67.320017 
L 359.952369 67.266386 
L 360.068474 67.32471 
L 360.184579 67.262194 
L 360.474843 67.817326 
L 360.707053 68.462235 
L 360.910238 68.372307 
L 361.374659 67.968642 
L 362.448634 67.665516 
L 362.767923 67.595655 
L 362.884029 67.633698 
L 363.058187 67.548237 
L 363.34845 68.202016 
L 363.551634 68.403078 
L 363.783845 68.222737 
L 364.132161 67.993883 
L 365.438346 67.871482 
L 365.72861 68.396538 
L 365.902768 68.347834 
L 366.193031 68.158018 
L 366.570374 68.032363 
L 367.1509 67.968027 
L 367.528243 68.125068 
L 367.760453 68.44856 
L 368.079743 68.291725 
L 368.370006 68.130202 
L 368.834428 68.055756 
L 368.950533 68.077444 
L 369.240797 68.034445 
L 369.589113 68.608515 
L 369.85035 68.500913 
L 370.198666 68.276223 
L 371.185561 68.255489 
L 371.417772 68.64803 
L 371.708035 68.561142 
L 372.404667 68.263562 
L 372.811036 68.203625 
L 372.985194 68.077711 
L 373.188379 68.541233 
L 373.391563 69.035408 
L 373.536695 69.010272 
L 374.320406 68.487565 
L 374.726774 68.35119 
L 375.71367 68.050651 
L 376.120039 69.915341 
L 376.26517 69.805965 
L 376.787644 69.02966 
L 377.310119 68.867974 
L 377.977724 68.542773 
L 378.064803 68.564747 
L 378.09383 68.513384 
L 378.209935 68.468295 
L 378.32604 68.340675 
L 378.355067 68.367663 
L 378.384093 68.327412 
L 378.442146 68.42741 
L 378.732409 69.285542 
L 378.732409 69.285542 
" clip-path="url(#pcf2c5aa950)" style="fill: none; stroke: #000000; stroke-width: 1.5; stroke-linecap: square"/>
   </g>
   <g id="line2d_24">
    <path d="M 302.56875 69.35399 
L 382.35925 69.35399 
" clip-path="url(#pcf2c5aa950)" style="fill: none; stroke-dasharray: 5.55,2.4; stroke-dashoffset: 0; stroke: #000000; stroke-width: 1.5"/>
   </g>
   <g id="patch_9">
    <path d="M 302.56875 72.48625 
L 302.56875 15.92625 
" style="fill: none; stroke: #000000; stroke-width: 1.5; stroke-linejoin: miter; stroke-linecap: square"/>
   </g>
   <g id="patch_10">
    <path d="M 302.56875 72.48625 
L 382.35925 72.48625 
" style="fill: none; stroke: #000000; stroke-width: 1.5; stroke-linejoin: miter; stroke-linecap: square"/>
   </g>
   <g id="legend_3">
    <g id="line2d_25">
     <path d="M 317.62925 26.0525 
L 325.62925 26.0525 
L 333.62925 26.0525 
" style="fill: none; stroke-dasharray: 5.55,2.4; stroke-dashoffset: 0; stroke: #000000; stroke-width: 1.5"/>
    </g>
    <g id="text_26">
     <text style="font: 8px 'Arial', sans-serif, serif; text-anchor: start" x="340.02925" y="28.8525" transform="rotate(-0 340.02925 28.8525)">true value</text>
    </g>
   </g>
  </g>
 </g>
 <defs>
  <clipPath id="p24fcb8ae9e">
   <rect x="30.88875" y="15.92625" width="79.7905" height="56.56"/>
  </clipPath>
  <clipPath id="p0a108bd93e">
   <rect x="166.72875" y="15.92625" width="79.7905" height="56.56"/>
  </clipPath>
  <clipPath id="pcf2c5aa950">
   <rect x="302.56875" y="15.92625" width="79.7905" height="56.56"/>
  </clipPath>
 </defs>
</svg>
