<?xml version="1.0" encoding="utf-8" standalone="no"?>
<!DOCTYPE svg PUBLIC "-//W3C//DTD SVG 1.1//EN"
  "http://www.w3.org/Graphics/SVG/1.1/DTD/svg11.dtd">
<svg xmlns:xlink="http://www.w3.org/1999/xlink" width="129.3175pt" height="105.54375pt" viewBox="0 0 129.3175 105.54375" xmlns="http://www.w3.org/2000/svg" version="1.1">
 <metadata>
  <rdf:RDF xmlns:dc="http://purl.org/dc/elements/1.1/" xmlns:cc="http://creativecommons.org/ns#" xmlns:rdf="http://www.w3.org/1999/02/22-rdf-syntax-ns#">
   <cc:Work>
    <dc:type rdf:resource="http://purl.org/dc/dcmitype/StillImage"/>
    <dc:date>2025-10-29T04:04:41.622511</dc:date>
    <dc:format>image/svg+xml</dc:format>
    <dc:creator>
     <cc:Agent>
      <dc:title>Matplotlib v3.9.2, https://matplotlib.org/</dc:title>
     </cc:Agent>
    </dc:creator>
   </cc:Work>
  </rdf:RDF>
 </metadata>
 <defs>
  <style type="text/css">*{stroke-linejoin: round; stroke-linecap: butt}</style>
 </defs>
 <g id="figure_1">
  <g id="patch_1">
   <path d="M 0 105.54375 
L 129.3175 105.54375 
L 129.3175 0 
L 0 0 
z
" style="fill: #ffffff"/>
  </g>
  <g id="axes_1">
   <g id="patch_2">
    <path d="M 39.2775 72.52 
L 122.1175 72.52 
L 122.1175 7.2 
L 39.2775 7.2 
z
" style="fill: #ffffff"/>
   </g>
   <g id="matplotlib.axis_1">
    <g id="xtick_1">
     <g id="line2d_1">
      <defs>
       <path id="md03880642e" d="M 0 0 
L 0 3.5 
" style="stroke: #000000; stroke-width: 1.5"/>
      </defs>
      <g>
       <use xlink:href="#md03880642e" x="43.042955" y="72.52" style="stroke: #000000; stroke-width: 1.5"/>
      </g>
     </g>
     <g id="text_1">
      <text style="font: 8px 'Arial', sans-serif, serif; text-anchor: middle" x="43.042955" y="85.24625" transform="rotate(-0 43.042955 85.24625)">0</text>
     </g>
    </g>
    <g id="xtick_2">
     <g id="line2d_2">
      <g>
       <use xlink:href="#md03880642e" x="93.207212" y="72.52" style="stroke: #000000; stroke-width: 1.5"/>
      </g>
     </g>
     <g id="text_2">
      <text style="font: 8px 'Arial', sans-serif, serif; text-anchor: middle" x="93.207212" y="85.24625" transform="rotate(-0 93.207212 85.24625)">20</text>
     </g>
    </g>
    <g id="text_3">
     <text style="font: 8px 'Arial', sans-serif, serif; text-anchor: middle" x="80.6975" y="96.66" transform="rotate(-0 80.6975 96.66)">Time (ms)</text>
    </g>
   </g>
   <g id="matplotlib.axis_2">
    <g id="ytick_1">
     <g id="line2d_3">
      <defs>
       <path id="mc4f1142da8" d="M 0 0 
L -3.5 0 
" style="stroke: #000000; stroke-width: 1.5"/>
      </defs>
      <g>
       <use xlink:href="#mc4f1142da8" x="39.2775" y="59.116319" style="stroke: #000000; stroke-width: 1.5"/>
      </g>
     </g>
     <g id="text_4">
      <text style="font: 8px 'Arial', sans-serif, serif; text-anchor: end" x="32.2775" y="61.979444" transform="rotate(-0 32.2775 61.979444)">−50</text>
     </g>
    </g>
    <g id="ytick_2">
     <g id="line2d_4">
      <g>
       <use xlink:href="#mc4f1142da8" x="39.2775" y="33.029842" style="stroke: #000000; stroke-width: 1.5"/>
      </g>
     </g>
     <g id="text_5">
      <text style="font: 8px 'Arial', sans-serif, serif; text-anchor: end" x="32.2775" y="35.892967" transform="rotate(-0 32.2775 35.892967)">0</text>
     </g>
    </g>
    <g id="text_6">
     <text style="font: 8px 'Arial', sans-serif, serif; text-anchor: middle" x="13.02375" y="39.86" transform="rotate(-90 13.02375 39.86)">V (mV)</text>
    </g>
   </g>
   <g id="line2d_5">
    <path d="M 43.042955 69.550909 
L 45.613873 68.627249 
L 47.745854 67.372381 
L 49.94054 65.840793 
L 50.316772 65.417548 
L 50.504888 64.928994 
L 50.693004 63.885044 
L 50.943825 60.809651 
L 51.257352 52.648976 
L 52.135226 25.478453 
L 52.574163 17.933043 
L 53.013101 13.715872 
L 53.452038 11.510855 
L 53.82827 10.595303 
L 54.204502 10.236106 
L 54.518028 10.225641 
L 54.89426 10.467392 
L 55.395903 11.127864 
L 56.022956 12.403341 
L 56.77542 14.516009 
L 57.653294 17.709034 
L 58.719285 22.496256 
L 60.161507 30.107776 
L 63.735711 49.444547 
L 64.738996 53.589844 
L 65.49146 55.820925 
L 67.372619 60.323998 
L 68.250494 61.95427 
L 69.065663 63.037509 
L 69.943537 63.837772 
L 70.884117 64.380123 
L 71.887402 64.6921 
L 73.016098 64.796732 
L 74.270205 64.674761 
L 75.461606 64.342948 
L 76.088659 64.000831 
L 76.33948 63.614199 
L 76.527596 62.923377 
L 76.778417 60.86446 
L 77.029239 56.587801 
L 77.656292 39.343159 
L 78.22064 26.472979 
L 78.722282 19.851957 
L 79.16122 16.706758 
L 79.537452 15.331452 
L 79.850978 14.825456 
L 80.101799 14.724778 
L 80.352621 14.832473 
L 80.728853 15.299281 
L 81.230495 16.358768 
L 81.920254 18.428535 
L 82.798128 21.838584 
L 83.989529 27.468258 
L 85.9961 38.273577 
L 88.065375 49.052191 
L 89.131366 53.502694 
L 90.00924 56.228157 
L 91.827695 60.985058 
L 92.642864 62.49999 
L 93.458033 63.565035 
L 94.273202 64.289444 
L 95.151077 64.78793 
L 96.154362 65.093335 
L 97.283057 65.187247 
L 98.537164 65.056409 
L 99.853976 64.689955 
L 100.73185 64.237873 
L 100.982671 63.903407 
L 101.170787 63.323511 
L 101.421609 61.580391 
L 101.67243 57.884545 
L 102.111367 46.542594 
L 102.926536 26.878792 
L 103.428179 20.179712 
L 103.867116 16.934335 
L 104.243348 15.477482 
L 104.556875 14.913269 
L 104.870401 14.772594 
L 105.183928 14.948381 
L 105.56016 15.47736 
L 106.061802 16.596521 
L 106.751561 18.726026 
L 107.629436 22.192132 
L 108.820837 27.871048 
L 110.952818 39.380283 
L 112.896682 49.396494 
L 113.899968 53.542615 
L 114.777842 56.253269 
L 116.596296 60.984708 
L 117.411466 62.491425 
L 118.226635 63.551372 
L 118.352045 63.681905 
L 118.352045 63.681905 
" clip-path="url(#pda99ee353a)" style="fill: none; stroke: #4682b4; stroke-width: 1.5; stroke-linecap: square"/>
   </g>
   <g id="line2d_6">
    <path d="M 43.042955 69.550909 
L 46.05281 68.517183 
L 48.310202 67.253512 
L 50.191361 65.987014 
L 50.504888 65.620163 
L 50.693004 65.094496 
L 50.88112 63.869818 
L 51.069236 61.122498 
L 51.320057 53.244091 
L 51.8217 34.842118 
L 52.260637 26.97104 
L 52.762279 21.364826 
L 53.326627 17.426067 
L 53.82827 15.382425 
L 54.267207 14.469463 
L 54.580734 14.211115 
L 54.89426 14.223176 
L 55.207787 14.468621 
L 55.646724 15.153742 
L 56.211072 16.54508 
L 56.900831 18.919178 
L 57.778705 22.835099 
L 58.970106 29.329618 
L 63.234068 53.732686 
L 64.425469 58.261992 
L 65.366049 61.250891 
L 66.118513 62.952072 
L 66.933682 64.254392 
L 67.748851 65.15636 
L 68.626726 65.808147 
L 69.567305 66.239709 
L 70.633296 66.485063 
L 71.824697 66.533543 
L 73.204214 66.36871 
L 74.834552 65.939932 
L 76.402185 65.30072 
L 77.091944 64.830234 
L 77.342765 64.318203 
L 77.530881 63.347647 
L 77.718997 61.215954 
L 77.969819 55.046095 
L 78.596872 35.575466 
L 79.098514 28.147969 
L 79.662862 23.069736 
L 80.164505 20.316251 
L 80.603442 18.965162 
L 80.979674 18.459523 
L 81.230495 18.401187 
L 81.544022 18.594533 
L 81.920254 19.161472 
L 82.421896 20.393117 
L 83.111655 22.804992 
L 83.989529 26.792034 
L 85.243636 33.63771 
L 88.629723 52.651641 
L 89.758419 57.30723 
L 90.824409 61.039274 
L 91.576873 62.888686 
L 92.392042 64.297174 
L 93.207212 65.270055 
L 94.085086 65.974325 
L 95.025666 66.445357 
L 96.091656 66.722795 
L 97.283057 66.797762 
L 98.662575 66.656999 
L 100.292913 66.255422 
L 101.985957 65.611796 
L 103.051947 65.012143 
L 103.302768 64.710036 
L 103.490884 64.194016 
L 103.679 63.044823 
L 103.867116 60.60354 
L 104.117938 53.956318 
L 104.682285 36.576316 
L 105.183928 28.96396 
L 105.748276 23.726983 
L 106.249918 20.839711 
L 106.688856 19.370754 
L 107.065088 18.772383 
L 107.378614 18.661013 
L 107.692141 18.84659 
L 108.068373 19.402931 
L 108.570015 20.62011 
L 109.197069 22.765987 
L 110.074943 26.667743 
L 111.329049 33.433774 
L 114.840547 53.008843 
L 116.031949 57.843617 
L 116.972528 61.063719 
L 117.724992 62.897712 
L 118.352045 64.016605 
L 118.352045 64.016605 
" clip-path="url(#pda99ee353a)" style="fill: none; stroke: #008000; stroke-width: 1.5; stroke-linecap: square"/>
   </g>
   <g id="line2d_7">
    <path d="M 43.042955 69.550909 
L 45.676578 68.6427 
L 47.808559 67.422271 
L 50.003245 65.925636 
L 50.379477 65.478391 
L 50.567593 64.931612 
L 50.755709 63.773698 
L 51.00653 60.438237 
L 51.320057 51.907878 
L 52.135226 26.395799 
L 52.574163 18.418372 
L 53.013101 13.953334 
L 53.452038 11.608517 
L 53.82827 10.623525 
L 54.204502 10.219273 
L 54.518028 10.180295 
L 54.89426 10.39219 
L 55.333198 10.917722 
L 55.897545 11.956533 
L 56.587304 13.713808 
L 57.402473 16.421379 
L 58.405758 20.589269 
L 59.659865 26.817928 
L 64.55088 52.310554 
L 65.366049 55.010535 
L 66.432039 57.58911 
L 68.125083 61.275148 
L 69.002958 62.594495 
L 69.880832 63.506475 
L 70.758707 64.109488 
L 71.699286 64.498375 
L 72.765277 64.696224 
L 73.956678 64.681914 
L 75.210784 64.437037 
L 76.025954 64.098269 
L 76.276775 63.836833 
L 76.464891 63.376975 
L 76.653007 62.416509 
L 76.903828 59.7122 
L 77.217355 52.907354 
L 78.22064 27.213404 
L 78.722282 20.241349 
L 79.16122 16.904427 
L 79.537452 15.421235 
L 79.850978 14.852714 
L 80.164505 14.714475 
L 80.478031 14.894574 
L 80.854263 15.427719 
L 81.355906 16.547837 
L 82.045664 18.668528 
L 82.986244 22.380439 
L 84.240351 28.373582 
L 86.623153 41.175627 
L 88.316197 49.676643 
L 89.319482 53.697619 
L 90.197356 56.310403 
L 92.141221 61.198003 
L 92.95639 62.619111 
L 93.771559 63.618332 
L 94.649434 64.339762 
L 95.590014 64.81317 
L 96.593299 65.066817 
L 97.721995 65.120642 
L 98.976101 64.956423 
L 100.230208 64.569888 
L 100.857261 64.187787 
L 101.108082 63.726622 
L 101.296198 62.922634 
L 101.547019 60.630329 
L 101.860546 54.618263 
L 103.114652 24.492793 
L 103.616295 18.829714 
L 104.055232 16.198374 
L 104.431464 15.103063 
L 104.744991 14.751528 
L 104.995812 14.739134 
L 105.309339 14.981511 
L 105.748276 15.692409 
L 106.312624 17.090213 
L 107.065088 19.596435 
L 108.068373 23.800284 
L 109.44789 30.666712 
L 113.46103 51.305224 
L 114.338905 54.512063 
L 115.404895 57.458397 
L 116.972528 61.292286 
L 117.787698 62.67749 
L 118.352045 63.38843 
L 118.352045 63.38843 
" clip-path="url(#pda99ee353a)" style="fill: none; stroke-dasharray: 7.4,3.2; stroke-dashoffset: 0; stroke: #000000; stroke-width: 2"/>
   </g>
   <g id="patch_3">
    <path d="M 39.2775 72.52 
L 39.2775 7.2 
" style="fill: none; stroke: #000000; stroke-width: 1.5; stroke-linejoin: miter; stroke-linecap: square"/>
   </g>
   <g id="patch_4">
    <path d="M 39.2775 72.52 
L 122.1175 72.52 
" style="fill: none; stroke: #000000; stroke-width: 1.5; stroke-linejoin: miter; stroke-linecap: square"/>
   </g>
   <g id="legend_1">
    <g id="line2d_8">
     <path d="M 47.45625 17.32625 
L 55.45625 17.32625 
L 63.45625 17.32625 
" style="fill: none; stroke: #4682b4; stroke-width: 1.5; stroke-linecap: square"/>
    </g>
    <g id="text_7">
     <text style="font: 8px 'Arial', sans-serif, serif; text-anchor: start" x="69.85625" y="20.12625" transform="rotate(-0 69.85625 20.12625)">Inferred</text>
    </g>
    <g id="line2d_9">
     <path d="M 47.45625 28.6425 
L 55.45625 28.6425 
L 63.45625 28.6425 
" style="fill: none; stroke: #008000; stroke-width: 1.5; stroke-linecap: square"/>
    </g>
    <g id="text_8">
     <text style="font: 8px 'Arial', sans-serif, serif; text-anchor: start" x="69.85625" y="31.4425" transform="rotate(-0 69.85625 31.4425)">Initial guess</text>
    </g>
    <g id="line2d_10">
     <path d="M 47.45625 40.0525 
L 55.45625 40.0525 
L 63.45625 40.0525 
" style="fill: none; stroke-dasharray: 7.4,3.2; stroke-dashoffset: 0; stroke: #000000; stroke-width: 2"/>
    </g>
    <g id="text_9">
     <text style="font: 8px 'Arial', sans-serif, serif; text-anchor: start" x="69.85625" y="42.8525" transform="rotate(-0 69.85625 42.8525)">True Voltage</text>
    </g>
   </g>
  </g>
 </g>
 <defs>
  <clipPath id="pda99ee353a">
   <rect x="39.2775" y="7.2" width="82.84" height="65.32"/>
  </clipPath>
 </defs>
</svg>
