<?xml version="1.0" encoding="utf-8" standalone="no"?>
<!DOCTYPE svg PUBLIC "-//W3C//DTD SVG 1.1//EN"
  "http://www.w3.org/Graphics/SVG/1.1/DTD/svg11.dtd">
<svg xmlns:xlink="http://www.w3.org/1999/xlink" width="344.98875pt" height="131.91875pt" viewBox="0 0 344.98875 131.91875" xmlns="http://www.w3.org/2000/svg" version="1.1">
 <metadata>
  <rdf:RDF xmlns:dc="http://purl.org/dc/elements/1.1/" xmlns:cc="http://creativecommons.org/ns#" xmlns:rdf="http://www.w3.org/1999/02/22-rdf-syntax-ns#">
   <cc:Work>
    <dc:type rdf:resource="http://purl.org/dc/dcmitype/StillImage"/>
    <dc:date>2025-10-29T05:08:12.494205</dc:date>
    <dc:format>image/svg+xml</dc:format>
    <dc:creator>
     <cc:Agent>
      <dc:title>Matplotlib v3.9.2, https://matplotlib.org/</dc:title>
     </cc:Agent>
    </dc:creator>
   </cc:Work>
  </rdf:RDF>
 </metadata>
 <defs>
  <style type="text/css">*{stroke-linejoin: round; stroke-linecap: butt}</style>
 </defs>
 <g id="figure_1">
  <g id="patch_1">
   <path d="M 0 131.91875 
L 344.98875 131.91875 
L 344.98875 0 
L 0 0 
z
" style="fill: #ffffff"/>
  </g>
  <g id="axes_1">
   <g id="patch_2">
    <path d="M 30.88875 99.08625 
L 121.153456 99.08625 
L 121.153456 15.92625 
L 30.88875 15.92625 
z
" style="fill: #ffffff"/>
   </g>
   <g id="matplotlib.axis_1">
    <g id="xtick_1">
     <g id="line2d_1">
      <defs>
       <path id="m3ac51ab09c" d="M 0 0 
L 0 3.5 
" style="stroke: #000000; stroke-width: 1.5"/>
      </defs>
      <g>
       <use xlink:href="#m3ac51ab09c" x="34.991691" y="99.08625" style="stroke: #000000; stroke-width: 1.5"/>
      </g>
     </g>
     <g id="text_1">
      <text style="font: 8px 'Arial', sans-serif, serif; text-anchor: middle" x="34.991691" y="111.8125" transform="rotate(-0 34.991691 111.8125)">0</text>
     </g>
    </g>
    <g id="xtick_2">
     <g id="line2d_2">
      <g>
       <use xlink:href="#m3ac51ab09c" x="67.828355" y="99.08625" style="stroke: #000000; stroke-width: 1.5"/>
      </g>
     </g>
     <g id="text_2">
      <text style="font: 8px 'Arial', sans-serif, serif; text-anchor: middle" x="67.828355" y="111.8125" transform="rotate(-0 67.828355 111.8125)">1000</text>
     </g>
    </g>
    <g id="xtick_3">
     <g id="line2d_3">
      <g>
       <use xlink:href="#m3ac51ab09c" x="100.665019" y="99.08625" style="stroke: #000000; stroke-width: 1.5"/>
      </g>
     </g>
     <g id="text_3">
      <text style="font: 8px 'Arial', sans-serif, serif; text-anchor: middle" x="100.665019" y="111.8125" transform="rotate(-0 100.665019 111.8125)">2000</text>
     </g>
    </g>
    <g id="text_4">
     <text style="font: 8px 'Arial', sans-serif, serif; text-anchor: middle" x="76.021103" y="123.12875" transform="rotate(-0 76.021103 123.12875)">iteration</text>
    </g>
   </g>
   <g id="matplotlib.axis_2">
    <g id="ytick_1">
     <g id="line2d_4">
      <defs>
       <path id="m5e7973ac8f" d="M 0 0 
L -3.5 0 
" style="stroke: #000000; stroke-width: 1.5"/>
      </defs>
      <g>
       <use xlink:href="#m5e7973ac8f" x="30.88875" y="93.148451" style="stroke: #000000; stroke-width: 1.5"/>
      </g>
     </g>
     <g id="text_5">
      <text style="font: 8px 'Arial', sans-serif, serif; text-anchor: end" x="23.88875" y="96.011576" transform="rotate(-0 23.88875 96.011576)">2</text>
     </g>
    </g>
    <g id="ytick_2">
     <g id="line2d_5">
      <g>
       <use xlink:href="#m5e7973ac8f" x="30.88875" y="71.232724" style="stroke: #000000; stroke-width: 1.5"/>
      </g>
     </g>
     <g id="text_6">
      <text style="font: 8px 'Arial', sans-serif, serif; text-anchor: end" x="23.88875" y="74.095849" transform="rotate(-0 23.88875 74.095849)">4</text>
     </g>
    </g>
    <g id="ytick_3">
     <g id="line2d_6">
      <g>
       <use xlink:href="#m5e7973ac8f" x="30.88875" y="49.316997" style="stroke: #000000; stroke-width: 1.5"/>
      </g>
     </g>
     <g id="text_7">
      <text style="font: 8px 'Arial', sans-serif, serif; text-anchor: end" x="23.88875" y="52.180122" transform="rotate(-0 23.88875 52.180122)">6</text>
     </g>
    </g>
    <g id="ytick_4">
     <g id="line2d_7">
      <g>
       <use xlink:href="#m5e7973ac8f" x="30.88875" y="27.40127" style="stroke: #000000; stroke-width: 1.5"/>
      </g>
     </g>
     <g id="text_8">
      <text style="font: 8px 'Arial', sans-serif, serif; text-anchor: end" x="23.88875" y="30.264395" transform="rotate(-0 23.88875 30.264395)">8</text>
     </g>
    </g>
    <g id="text_9">
     <!-- $g_L$ (S/cm²) -->
     <g transform="translate(13.04 75.78625) rotate(-90)">
      <text>
       <tspan style="font: 8px 'Arial'" x="0 8.101309 10.323966 12.988028 18.323966 20.546622 24.546622 31.210684 33.874747" y="-0.171875">g (S/cm²)</tspan>
       <tspan style="font: 5.6px 'Arial'" x="4.588606" y="2.217625">L</tspan>
      </text>
     </g>
    </g>
    <g id="text_10">
     <text style="font: 8px 'Arial', sans-serif, serif; text-anchor: start" x="30.88875" y="12.92625" transform="rotate(-0 30.88875 12.92625)">1e−6</text>
    </g>
   </g>
   <g id="line2d_8">
    <path d="M 34.991691 19.70625 
L 35.123038 46.494888 
L 35.188711 44.055462 
L 35.221548 42.794095 
L 35.287221 44.35894 
L 35.320058 46.175091 
L 35.385731 43.927427 
L 35.418568 43.714501 
L 35.911118 57.452606 
L 36.173811 60.311462 
L 36.337994 61.174662 
L 36.633524 62.79614 
L 36.994728 63.990953 
L 37.126074 64.214613 
L 37.914154 68.190038 
L 39.129111 76.194538 
L 39.982864 80.556207 
L 40.770944 83.497107 
L 41.591861 85.740689 
L 42.445614 87.460054 
L 43.365041 88.831509 
L 44.382977 89.953338 
L 45.53226 90.884183 
L 46.845727 91.661937 
L 49.144293 92.672803 
L 51.672717 93.537932 
L 54.233976 94.192902 
L 56.368359 94.571784 
L 56.466869 94.510738 
L 56.598216 94.606151 
L 56.696726 94.602717 
L 56.828073 94.706093 
L 56.860909 94.669364 
L 57.057929 94.748023 
L 62.114776 95.202514 
L 62.607326 95.144869 
L 62.705836 95.243821 
L 62.738672 95.148915 
L 62.837182 95.197987 
L 63.001366 95.257274 
L 63.264059 95.29841 
L 63.428242 95.290963 
L 63.920792 95.283494 
L 64.314832 95.273795 
L 65.135749 95.199388 
L 65.562625 95.182237 
L 65.661135 95.089969 
L 65.759645 95.200942 
L 65.792482 95.157042 
L 66.646235 95.247827 
L 66.843255 95.218496 
L 67.171622 95.203955 
L 67.664172 95.137248 
L 68.353742 95.039597 
L 69.043312 94.860821 
L 69.108985 94.840116 
L 69.141822 94.999646 
L 69.273168 94.912986 
L 69.404515 95.036714 
L 69.503025 95.007411 
L 69.634372 95.067059 
L 69.765718 95.020626 
L 69.897065 95.031995 
L 70.389615 94.991377 
L 70.849328 94.935133 
L 71.538898 94.812287 
L 73.049385 94.385519 
L 73.082222 94.594188 
L 73.180731 94.536734 
L 73.213568 94.484084 
L 73.246405 94.628029 
L 73.279241 94.5271 
L 73.410588 94.680505 
L 73.443425 94.642428 
L 74.494198 94.612257 
L 74.953911 94.52757 
L 75.709155 94.360518 
L 76.792765 94.073635 
L 77.285315 93.873909 
L 77.350988 93.811292 
L 77.383825 94.048516 
L 77.416661 93.814534 
L 77.482334 93.971874 
L 77.515171 93.929735 
L 77.646518 94.12951 
L 77.679354 94.027784 
L 77.712191 94.165575 
L 77.745028 94.119245 
L 79.748064 93.889344 
L 80.667491 93.621139 
L 81.488408 93.415585 
L 81.554081 93.455746 
L 81.586918 93.210806 
L 81.718264 93.484967 
L 81.751101 93.35008 
L 81.783937 93.557099 
L 81.816774 93.487189 
L 81.849611 93.498441 
L 81.980957 93.616046 
L 82.079467 93.573563 
L 82.210814 93.652936 
L 82.342161 93.600352 
L 82.473507 93.61345 
L 82.670527 93.568724 
L 82.801874 93.581616 
L 83.228751 93.486531 
L 83.458607 93.436302 
L 83.786974 93.353745 
L 85.363134 92.749716 
L 85.395971 92.929809 
L 85.428807 92.684119 
L 85.461644 92.981152 
L 85.494481 92.718201 
L 85.625827 93.058997 
L 85.658664 92.912451 
L 85.724337 93.091689 
L 85.757174 92.982119 
L 85.790011 93.14805 
L 85.822847 93.056733 
L 86.052704 93.153314 
L 86.08554 93.070012 
L 86.151214 93.099485 
L 86.28256 93.174933 
L 86.413907 93.079954 
L 86.545254 93.135567 
L 86.6766 93.11789 
L 87.037804 93.046634 
L 87.56319 92.932236 
L 87.924394 92.816205 
L 89.205024 92.259747 
L 89.270697 92.198971 
L 89.303534 92.508718 
L 89.33637 92.245782 
L 89.402044 92.452636 
L 89.43488 92.384174 
L 89.566227 92.609528 
L 89.599064 92.521106 
L 89.6319 92.68397 
L 89.664737 92.558524 
L 89.796084 92.692015 
L 89.82892 92.58611 
L 89.92743 92.62066 
L 90.02594 92.687107 
L 90.157287 92.599911 
L 90.288633 92.64507 
L 90.387143 92.602138 
L 90.41998 92.625969 
L 91.142387 92.46764 
L 91.470753 92.349843 
L 91.766283 92.250655 
L 92.39018 92.032335 
L 92.48869 91.926176 
L 92.554363 91.857225 
L 92.5872 92.069885 
L 92.620037 91.798592 
L 92.652873 92.112585 
L 92.68571 91.850187 
L 92.817057 92.19622 
L 92.849893 92.027743 
L 92.915567 92.18093 
L 92.98124 92.267316 
L 93.014077 92.137328 
L 93.145423 92.25455 
L 93.243933 92.18032 
L 93.37528 92.265684 
L 93.47379 92.196963 
L 93.506627 92.213619 
L 93.76932 92.199362 
L 93.96634 92.145441 
L 94.45889 92.007786 
L 95.279806 91.709136 
L 95.64101 91.493118 
L 95.706683 91.40522 
L 95.73952 91.693228 
L 95.772356 91.362739 
L 95.805193 91.741145 
L 95.83803 91.493659 
L 95.969376 91.873622 
L 96.002213 91.748129 
L 96.03505 91.814894 
L 96.100723 91.781346 
L 96.13356 91.960706 
L 96.264906 91.852868 
L 96.396253 91.965266 
L 96.494763 91.900324 
L 96.62611 91.977138 
L 96.757456 91.911077 
L 96.855966 91.95306 
L 96.888803 91.905778 
L 97.085823 91.901759 
L 97.348516 91.822743 
L 97.70972 91.725281 
L 98.038086 91.591417 
L 98.39929 91.460796 
L 98.694819 91.302628 
L 98.793329 91.337727 
L 98.859003 91.36699 
L 98.891839 91.117662 
L 98.990349 91.426871 
L 99.023186 91.260556 
L 99.088859 91.447307 
L 99.121696 91.308294 
L 99.154533 91.5449 
L 99.253043 91.526071 
L 99.318716 91.590702 
L 99.351553 91.446791 
L 99.482899 91.564159 
L 99.548573 91.59643 
L 99.581409 91.482731 
L 99.712756 91.566601 
L 99.811266 91.484891 
L 99.942613 91.535679 
L 100.041123 91.480529 
L 100.073959 91.519292 
L 100.270979 91.431199 
L 100.402326 91.413409 
L 100.960549 91.242206 
L 101.190406 91.118552 
L 101.288916 91.137061 
L 101.387426 90.987318 
L 101.453099 90.921006 
L 101.485936 91.202803 
L 101.518773 90.934171 
L 101.584446 91.067503 
L 101.715793 91.29397 
L 101.748629 91.117181 
L 101.814303 91.21229 
L 101.945649 91.322653 
L 101.978486 91.179375 
L 102.044159 91.222095 
L 102.175506 91.313095 
L 102.274016 91.215975 
L 102.405363 91.266843 
L 102.503873 91.194885 
L 102.536709 91.251405 
L 102.668056 91.193063 
L 102.832239 91.177509 
L 102.996422 91.110718 
L 103.554646 90.87415 
L 103.620319 90.834323 
L 103.653156 90.93164 
L 103.718829 90.95738 
L 103.751666 90.72053 
L 103.850176 90.989294 
L 103.883012 90.846429 
L 103.981522 90.897187 
L 104.080032 91.079058 
L 104.112869 90.952255 
L 104.211379 90.996407 
L 104.277052 90.959034 
L 104.309889 91.083379 
L 104.342726 90.957519 
L 104.408399 90.986837 
L 104.539746 91.044057 
L 104.638256 90.954599 
L 104.736766 90.991842 
L 104.769602 90.96986 
L 105.656192 90.728236 
L 105.754702 90.568038 
L 105.820376 90.502773 
L 105.853212 90.797162 
L 105.886049 90.523001 
L 105.951722 90.658558 
L 106.083069 90.889049 
L 106.115906 90.704691 
L 106.181579 90.784846 
L 106.312926 90.908428 
L 106.345762 90.770672 
L 106.411436 90.793529 
L 106.542782 90.886259 
L 106.641292 90.788342 
L 106.674129 90.87865 
L 106.772639 90.827297 
L 107.166679 90.734849 
L 107.396535 90.687774 
L 107.560719 90.585459 
L 107.659229 90.594678 
L 107.823412 90.455364 
L 107.889085 90.398833 
L 107.921922 90.597503 
L 107.954759 90.339201 
L 107.987595 90.630984 
L 108.020432 90.365033 
L 108.151779 90.626838 
L 108.217452 90.709198 
L 108.250289 90.531988 
L 108.283125 90.72473 
L 108.381635 90.660165 
L 108.480145 90.598527 
L 108.578655 90.718649 
L 108.710002 90.634084 
L 108.808512 90.6808 
L 108.907022 90.595121 
L 108.939859 90.638745 
L 109.136879 90.547797 
L 109.235389 90.572476 
L 109.399572 90.468549 
L 109.498082 90.482596 
L 109.662265 90.394553 
L 109.826449 90.350729 
L 109.990632 90.228176 
L 110.056305 90.169366 
L 110.089142 90.321723 
L 110.154815 90.380194 
L 110.187652 90.034051 
L 110.220489 90.4328 
L 110.318999 90.385162 
L 110.351835 90.33083 
L 110.450345 90.573293 
L 110.483182 90.496823 
L 110.778712 90.611381 
L 110.877222 90.513312 
L 111.008569 90.582845 
L 111.107079 90.491361 
L 111.238425 90.54249 
L 111.402608 90.464139 
L 111.533955 90.449167 
L 112.814585 89.895774 
L 113.110115 89.608737 
L 113.175788 89.455946 
L 113.208625 90.066234 
L 113.241462 89.625069 
L 113.307135 90.102157 
L 113.339972 89.867532 
L 113.372808 90.30213 
L 113.405645 90.185955 
L 113.438482 90.203007 
L 113.569828 90.49408 
L 113.602665 90.355324 
L 113.635502 90.56299 
L 113.668338 90.439234 
L 113.898195 90.603869 
L 113.996705 90.546068 
L 114.029542 90.577942 
L 114.456418 90.591598 
L 114.587765 90.544105 
L 114.916132 90.45283 
L 115.178825 90.327127 
L 115.408682 90.237813 
L 115.704211 90.07691 
L 115.934068 89.975767 
L 116.098251 89.824072 
L 116.163925 89.746205 
L 116.196761 89.961575 
L 116.229598 89.648033 
L 116.262435 90.026365 
L 116.295271 89.657583 
L 116.426618 90.107633 
L 116.459455 89.916503 
L 116.492291 90.21237 
L 116.525128 90.036154 
L 116.656475 90.281009 
L 116.689311 90.096967 
L 116.754985 90.194401 
L 116.853495 90.142619 
L 116.886331 90.286468 
L 116.984841 90.230685 
L 117.017678 90.181305 
L 117.050515 90.267109 
" clip-path="url(#p2ab3818dfd)" style="fill: none; stroke: #000000; stroke-width: 1.5; stroke-linecap: square"/>
   </g>
   <g id="line2d_9">
    <path d="M 30.88875 60.27486 
L 121.153456 60.27486 
" clip-path="url(#p2ab3818dfd)" style="fill: none; stroke-dasharray: 5.55,2.4; stroke-dashoffset: 0; stroke: #000000; stroke-width: 1.5"/>
   </g>
   <g id="patch_3">
    <path d="M 30.88875 99.08625 
L 30.88875 15.92625 
" style="fill: none; stroke: #000000; stroke-width: 1.5; stroke-linejoin: miter; stroke-linecap: square"/>
   </g>
   <g id="patch_4">
    <path d="M 30.88875 99.08625 
L 121.153456 99.08625 
" style="fill: none; stroke: #000000; stroke-width: 1.5; stroke-linejoin: miter; stroke-linecap: square"/>
   </g>
   <g id="legend_1">
    <g id="line2d_10">
     <path d="M 56.423456 26.0525 
L 64.423456 26.0525 
L 72.423456 26.0525 
" style="fill: none; stroke-dasharray: 5.55,2.4; stroke-dashoffset: 0; stroke: #000000; stroke-width: 1.5"/>
    </g>
    <g id="text_11">
     <text style="font: 8px 'Arial', sans-serif, serif; text-anchor: start" x="78.823456" y="28.8525" transform="rotate(-0 78.823456 28.8525)">true value</text>
    </g>
   </g>
  </g>
  <g id="axes_2">
   <g id="patch_5">
    <path d="M 139.206397 99.08625 
L 229.471103 99.08625 
L 229.471103 15.92625 
L 139.206397 15.92625 
z
" style="fill: #ffffff"/>
   </g>
   <g id="matplotlib.axis_3">
    <g id="xtick_4">
     <g id="line2d_11">
      <g>
       <use xlink:href="#m3ac51ab09c" x="143.309338" y="99.08625" style="stroke: #000000; stroke-width: 1.5"/>
      </g>
     </g>
     <g id="text_12">
      <text style="font: 8px 'Arial', sans-serif, serif; text-anchor: middle" x="143.309338" y="111.8125" transform="rotate(-0 143.309338 111.8125)">0</text>
     </g>
    </g>
    <g id="xtick_5">
     <g id="line2d_12">
      <g>
       <use xlink:href="#m3ac51ab09c" x="176.146002" y="99.08625" style="stroke: #000000; stroke-width: 1.5"/>
      </g>
     </g>
     <g id="text_13">
      <text style="font: 8px 'Arial', sans-serif, serif; text-anchor: middle" x="176.146002" y="111.8125" transform="rotate(-0 176.146002 111.8125)">1000</text>
     </g>
    </g>
    <g id="xtick_6">
     <g id="line2d_13">
      <g>
       <use xlink:href="#m3ac51ab09c" x="208.982666" y="99.08625" style="stroke: #000000; stroke-width: 1.5"/>
      </g>
     </g>
     <g id="text_14">
      <text style="font: 8px 'Arial', sans-serif, serif; text-anchor: middle" x="208.982666" y="111.8125" transform="rotate(-0 208.982666 111.8125)">2000</text>
     </g>
    </g>
    <g id="text_15">
     <text style="font: 8px 'Arial', sans-serif, serif; text-anchor: middle" x="184.33875" y="123.12875" transform="rotate(-0 184.33875 123.12875)">iteration</text>
    </g>
   </g>
   <g id="matplotlib.axis_4">
    <g id="ytick_5">
     <g id="line2d_14">
      <g>
       <use xlink:href="#m5e7973ac8f" x="139.206397" y="75.754246" style="stroke: #000000; stroke-width: 1.5"/>
      </g>
     </g>
     <g id="text_16">
      <text style="font: 8px 'Arial', sans-serif, serif; text-anchor: end" x="132.206397" y="78.617371" transform="rotate(-0 132.206397 78.617371)">0.004</text>
     </g>
    </g>
    <g id="ytick_6">
     <g id="line2d_15">
      <g>
       <use xlink:href="#m5e7973ac8f" x="139.206397" y="43.453675" style="stroke: #000000; stroke-width: 1.5"/>
      </g>
     </g>
     <g id="text_17">
      <text style="font: 8px 'Arial', sans-serif, serif; text-anchor: end" x="132.206397" y="46.3168" transform="rotate(-0 132.206397 46.3168)">0.006</text>
     </g>
    </g>
    <g id="text_18">
     <!-- $g_{Na}$ (S/cm²) -->
     <g transform="translate(105.708897 77.82625) rotate(-90)">
      <text>
       <tspan style="font: 8px 'Arial'" x="0 12.14545 14.368106 17.032169 22.368106 24.590763 28.590763 35.254825 37.918887" y="-0.171875">g (S/cm²)</tspan>
       <tspan style="font: 5.6px 'Arial'" x="4.588606 8.632747" y="2.217625">Na</tspan>
      </text>
     </g>
    </g>
   </g>
   <g id="line2d_16">
    <path d="M 143.309338 90.98821 
L 143.342175 85.804982 
L 143.407848 91.881796 
L 143.440685 91.992427 
L 143.637705 81.426743 
L 143.703378 82.233508 
L 143.801888 88.287828 
L 143.900398 95.30625 
L 143.966072 94.091799 
L 144.360111 69.939156 
L 144.885498 20.745426 
L 144.951171 19.70625 
L 145.016845 20.23845 
L 145.509395 32.030248 
L 145.772088 37.918247 
L 146.166128 40.374628 
L 146.297475 39.779827 
L 146.593005 38.323568 
L 146.855698 37.973538 
L 146.888535 38.017571 
L 147.085555 38.725911 
L 147.348248 39.31256 
L 147.610941 39.456646 
L 147.939308 39.423879 
L 149.449794 40.049973 
L 150.631914 40.222713 
L 151.617014 40.091773 
L 152.733461 39.713533 
L 154.046927 39.048768 
L 154.802171 38.4276 
L 155.852944 37.612108 
L 156.641024 36.86509 
L 158.020164 35.428685 
L 161.041137 33.980293 
L 162.748643 33.576687 
L 164.620333 33.325703 
L 164.75168 33.620885 
L 164.981537 36.642474 
L 165.014373 36.262543 
L 165.080047 35.666704 
L 165.34274 32.570375 
L 165.44125 32.572323 
L 165.63827 32.848328 
L 165.671106 32.808559 
L 165.73678 32.863497 
L 165.9338 33.214248 
L 166.097983 33.412859 
L 166.13082 33.373346 
L 166.295003 32.921668 
L 166.52486 32.622455 
L 166.9189 32.873454 
L 167.345776 32.709363 
L 167.739816 32.739641 
L 167.838326 33.241277 
L 168.035346 36.090916 
L 168.10102 35.727289 
L 168.462223 32.038844 
L 168.59357 32.131212 
L 168.69208 32.091857 
L 169.151793 32.745116 
L 169.217466 32.628863 
L 169.512996 31.994721 
L 169.644343 32.117938 
L 169.874199 32.263927 
L 170.629443 32.072612 
L 170.892136 32.238899 
L 170.990646 33.238728 
L 171.121993 35.818995 
L 171.187666 35.656002 
L 171.516033 31.257932 
L 171.614543 31.2738 
L 171.811563 31.556874 
L 171.844399 31.529063 
L 171.910073 31.618031 
L 172.205603 32.241268 
L 172.238439 32.181908 
L 172.566806 31.319819 
L 172.665316 31.475569 
L 172.895173 31.741933 
L 173.584743 31.527093 
L 173.748926 31.551873 
L 173.945946 32.017629 
L 174.142966 35.778843 
L 174.208639 35.019898 
L 174.307149 33.381385 
L 174.537006 30.728966 
L 174.668352 30.873646 
L 174.734026 30.961644 
L 174.799699 30.922086 
L 174.832536 30.901999 
L 174.865372 30.991433 
L 175.062392 31.632245 
L 175.160902 31.798803 
L 175.193739 31.780333 
L 175.522106 30.71318 
L 175.587779 30.804585 
L 175.850472 31.233716 
L 175.883309 31.215516 
L 176.244512 31.000368 
L 176.966919 31.013514 
L 177.196776 30.992885 
L 177.328122 31.294941 
L 177.459469 34.74645 
L 177.557979 36.814906 
L 177.590816 36.131354 
L 177.623652 35.990667 
L 177.886346 29.99923 
L 177.919182 29.807599 
L 177.984856 29.874449 
L 178.116202 30.203248 
L 178.149039 30.119635 
L 178.214712 30.205549 
L 178.280385 30.31171 
L 178.346059 30.620647 
L 178.543079 31.57736 
L 178.575915 31.539351 
L 178.674425 31.037828 
L 178.871445 29.955694 
L 178.904282 29.973638 
L 179.035629 30.390488 
L 179.232649 30.766674 
L 179.593852 30.486713 
L 180.381932 30.489375 
L 180.611789 30.496738 
L 180.972992 30.526753 
L 181.137175 30.526279 
L 181.301359 31.029728 
L 181.367032 32.28236 
L 181.498379 38.156205 
L 181.564052 38.069313 
L 181.859582 28.674378 
L 182.056602 29.437362 
L 182.089439 29.388485 
L 182.187949 29.225477 
L 182.483478 31.618084 
L 182.581988 31.147861 
L 182.811845 29.20906 
L 182.844682 29.215866 
L 183.140212 30.387306 
L 183.205885 30.298376 
L 183.402905 30.017896 
L 183.665598 30.009353 
L 183.862618 30.023988 
L 184.125312 30.165721 
L 184.453678 30.054807 
L 184.814882 30.112813 
L 185.373105 30.140782 
L 185.570125 30.293465 
L 185.668635 31.786522 
L 185.865655 38.415289 
L 186.128348 28.545656 
L 186.161185 28.295988 
L 186.194022 28.639295 
L 186.292532 29.203404 
L 186.358205 29.146083 
L 186.489551 28.645288 
L 186.522388 28.885984 
L 186.785081 31.432101 
L 186.850755 30.987944 
L 187.080611 28.807409 
L 187.146285 28.990189 
L 187.376141 30.065607 
L 187.408978 30.026079 
L 187.638835 29.669093 
L 187.737345 29.754842 
L 187.901528 29.723354 
L 188.065711 29.664934 
L 188.426915 29.810803 
L 188.623935 29.736499 
L 188.985138 29.820474 
L 189.477688 29.858069 
L 189.740381 29.967922 
L 189.838891 30.722874 
L 189.937401 34.984393 
L 190.035911 38.13323 
L 190.068748 36.583107 
L 190.101585 36.54758 
L 190.331441 28.638813 
L 190.397115 28.605144 
L 190.462788 28.936928 
L 190.659808 28.346985 
L 190.823991 30.031478 
L 190.955338 31.110905 
L 191.250868 28.699 
L 191.349378 29.112571 
L 191.513561 29.832703 
L 191.579234 29.798567 
L 191.776254 29.497692 
L 191.973274 29.573845 
L 192.203131 29.480627 
L 192.531498 29.633581 
L 192.761354 29.568415 
L 193.089721 29.64441 
L 193.450924 29.684766 
L 193.647944 29.927356 
L 193.746454 31.676669 
L 193.877801 37.703099 
L 193.910638 36.806588 
L 193.943474 36.83297 
L 194.173331 28.540189 
L 194.206168 28.53897 
L 194.239004 28.415039 
L 194.370351 29.274692 
L 194.468861 28.597021 
L 194.501698 28.625442 
L 194.534534 28.722449 
L 194.567371 28.704686 
L 194.764391 31.101707 
L 194.797228 30.896591 
L 194.830064 30.855281 
L 195.059921 28.476467 
L 195.158431 28.918819 
L 195.322614 29.754271 
L 195.388287 29.658722 
L 195.618144 29.297592 
L 195.683817 29.371925 
L 195.815164 29.433722 
L 195.979347 29.303135 
L 196.340551 29.456065 
L 196.504734 29.373715 
L 196.865937 29.476566 
L 197.194304 29.520351 
L 197.424161 29.630159 
L 197.522671 30.147649 
L 197.654017 34.449884 
L 197.719691 36.830466 
L 197.752527 35.7787 
L 197.785364 35.618414 
L 197.982384 28.523132 
L 198.179404 29.241376 
L 198.212241 29.05097 
L 198.310751 28.282835 
L 198.343587 28.510753 
L 198.409261 28.933273 
L 198.606281 30.680503 
L 198.868974 28.461847 
L 198.901811 28.615078 
L 199.131667 29.6553 
L 199.230177 29.444845 
L 199.328687 29.172713 
L 199.361524 29.207044 
L 199.755564 29.257477 
L 199.854074 29.323816 
L 200.018257 29.444845 
L 200.346624 29.362961 
L 200.543644 29.45032 
L 200.7735 29.518396 
L 200.839174 29.764514 
L 200.904847 30.707705 
L 201.003357 33.968448 
L 201.036194 35.993638 
L 201.101867 34.964411 
L 201.134704 34.649826 
L 201.331724 28.278894 
L 201.46307 29.03262 
L 201.528744 29.008389 
L 201.66009 28.520485 
L 201.922784 30.469845 
L 201.988457 30.182311 
L 202.185477 28.448167 
L 202.218314 28.601391 
L 202.44817 29.620901 
L 202.54668 29.416018 
L 202.64519 29.138051 
L 202.710864 29.179053 
L 202.875047 29.29311 
L 203.006394 29.244707 
L 203.498943 29.250987 
L 203.63029 29.304977 
L 203.860147 29.433413 
L 203.92582 29.496849 
L 203.991493 29.823302 
L 204.057167 31.404455 
L 204.188513 37.003619 
L 204.254187 34.776104 
L 204.287023 34.469911 
L 204.484043 28.248316 
L 204.61539 28.985571 
L 204.746737 27.944846 
L 204.81241 28.044523 
L 205.00943 30.463001 
L 205.075103 30.340634 
L 205.10794 30.212198 
L 205.30496 28.257964 
L 205.567653 29.464985 
L 205.60049 29.302352 
L 205.633327 29.291891 
L 205.764673 28.91199 
L 205.79751 28.996108 
L 205.830347 28.979435 
L 205.961693 29.244113 
L 205.99453 29.212858 
L 206.09304 29.15686 
L 206.19155 29.096605 
L 206.224387 29.13414 
L 206.454243 29.234352 
L 206.618427 29.104426 
L 206.97963 29.304924 
L 207.07814 29.295531 
L 207.209487 30.229104 
L 207.37367 34.899975 
L 207.406507 34.511523 
L 207.603526 28.598089 
L 207.6692 28.313767 
L 207.76771 29.230967 
L 207.800546 29.155694 
L 207.899056 28.350497 
L 207.931893 28.637166 
L 207.997566 28.894091 
L 208.16175 30.157704 
L 208.227423 30.0191 
L 208.424443 28.539873 
L 208.522953 28.664406 
L 208.687136 29.478304 
L 208.719973 29.381108 
L 208.94983 29.023091 
L 209.14685 29.232817 
L 209.311033 29.110932 
L 209.475216 29.297178 
L 209.573726 29.268878 
L 209.770746 30.134871 
L 209.869256 33.57892 
L 209.93493 33.417168 
L 210.23046 28.668429 
L 210.296133 28.937725 
L 210.32897 29.439475 
L 210.394643 29.191732 
L 210.460316 28.707709 
L 210.52599 28.872319 
L 210.6245 29.658045 
L 210.657336 29.637687 
L 210.690173 29.616629 
L 210.755846 29.597422 
L 210.788683 29.74217 
L 210.952866 28.551349 
L 210.985703 28.593472 
L 211.21556 29.351725 
L 211.31407 29.29702 
L 211.41258 28.962122 
L 211.478253 28.992039 
L 211.642436 29.210429 
L 211.675273 29.160507 
L 211.70811 29.255785 
L 211.740946 29.206939 
L 211.839456 29.284296 
L 211.872293 29.207789 
L 211.905129 29.363547 
L 211.937966 29.309572 
L 212.134986 31.393475 
L 212.167823 32.993016 
L 212.266333 32.378466 
L 212.430516 29.142383 
L 212.463353 29.231291 
L 212.496189 29.092213 
L 212.561863 29.133501 
L 212.594699 28.908222 
L 212.627536 29.21455 
L 212.693209 29.058431 
L 212.726046 28.796158 
L 212.791719 28.888315 
L 212.890229 29.278121 
L 212.988739 29.597271 
L 213.251433 28.578446 
L 213.481289 29.381958 
L 213.514126 29.317115 
L 213.579799 29.24476 
L 213.743983 28.944283 
L 213.776819 29.026205 
L 213.809656 29.023415 
L 213.973839 29.318868 
L 214.006676 29.232449 
L 214.203696 31.661478 
L 214.236533 33.373398 
L 214.302206 33.001341 
L 214.597736 28.809259 
L 214.696246 29.344024 
L 214.729083 29.026852 
L 214.761919 29.123829 
L 214.794756 28.879208 
L 214.827593 28.783704 
L 214.860429 28.925595 
L 214.893266 28.910456 
L 214.991776 29.60122 
L 215.024613 29.425878 
L 215.057449 29.537039 
L 215.123123 29.400406 
L 215.155959 29.388275 
L 215.320143 28.492034 
L 215.517163 29.263396 
L 215.747019 28.886623 
L 215.976876 29.253363 
L 216.075386 29.159026 
L 216.239569 30.095682 
L 216.272406 30.059365 
L 216.370916 33.022158 
L 216.436589 32.521236 
L 216.633609 28.911411 
L 216.699282 29.09856 
L 216.732119 29.066259 
L 216.764956 29.26229 
L 216.797792 28.961175 
L 216.830629 29.214918 
L 216.929139 28.642265 
L 216.961976 28.793195 
L 217.126159 29.542627 
L 217.191832 29.445108 
L 217.421689 28.63494 
L 217.454526 28.56627 
L 217.618709 29.320439 
L 217.651546 29.20008 
L 217.684382 29.338226 
L 217.750056 29.273955 
L 217.914239 28.96234 
L 218.078422 29.078736 
L 218.176932 29.030973 
L 218.406789 29.657361 
L 218.439626 29.609733 
L 218.603809 34.845421 
L 218.636646 34.31944 
L 218.899339 27.865714 
L 218.997849 29.113045 
L 219.030686 29.016007 
L 219.129196 28.06983 
L 219.194869 28.352205 
L 219.391889 29.793889 
L 219.588909 28.264199 
L 219.654582 28.323882 
L 219.851602 29.214023 
L 219.917276 29.207157 
L 220.015786 28.664293 
L 220.081459 28.679898 
L 220.245642 29.085181 
L 220.508335 28.958949 
L 220.639682 29.03811 
L 220.672519 29.0032 
L 220.869539 28.918601 
L 221.394925 29.226538 
L 221.427762 29.313002 
L 221.559109 35.26397 
L 221.624782 39.156726 
L 221.657619 35.902481 
L 221.690455 36.008867 
L 221.821802 27.56062 
L 221.887475 27.832624 
L 221.920312 27.996866 
L 221.953149 28.945712 
L 222.018822 28.637068 
L 222.150169 26.882739 
L 222.248679 27.584897 
L 222.380025 29.630369 
L 222.412862 29.399353 
L 222.445699 29.574326 
L 222.642719 27.359776 
L 222.839739 29.375776 
L 223.036759 28.062407 
L 223.102432 28.154842 
L 223.299452 28.987955 
L 223.463635 28.816095 
L 223.562145 28.871417 
L 223.594982 28.954714 
L 223.660655 28.908914 
L 223.824839 28.597713 
L 224.120369 29.023889 
L 224.186042 28.942539 
L 224.350225 28.779147 
L 224.514408 29.801921 
L 224.547245 29.732243 
L 224.645755 34.388358 
L 224.711428 33.939629 
L 224.744265 33.542476 
L 224.908448 28.580243 
L 224.941285 27.902851 
L 225.006958 28.220294 
L 225.072632 29.169908 
L 225.138305 28.862723 
L 225.171142 28.152872 
L 225.236815 28.18139 
L 225.368162 29.084286 
L 225.368162 29.084286 
" clip-path="url(#pdbcff67ce4)" style="fill: none; stroke: #000000; stroke-width: 1.5; stroke-linecap: square"/>
   </g>
   <g id="line2d_17">
    <path d="M 139.206397 27.30339 
L 229.471103 27.30339 
" clip-path="url(#pdbcff67ce4)" style="fill: none; stroke-dasharray: 5.55,2.4; stroke-dashoffset: 0; stroke: #000000; stroke-width: 1.5"/>
   </g>
   <g id="patch_6">
    <path d="M 139.206397 99.08625 
L 139.206397 15.92625 
" style="fill: none; stroke: #000000; stroke-width: 1.5; stroke-linejoin: miter; stroke-linecap: square"/>
   </g>
   <g id="patch_7">
    <path d="M 139.206397 99.08625 
L 229.471103 99.08625 
" style="fill: none; stroke: #000000; stroke-width: 1.5; stroke-linejoin: miter; stroke-linecap: square"/>
   </g>
   <g id="legend_2">
    <g id="line2d_18">
     <path d="M 164.741103 87.49625 
L 172.741103 87.49625 
L 180.741103 87.49625 
" style="fill: none; stroke-dasharray: 5.55,2.4; stroke-dashoffset: 0; stroke: #000000; stroke-width: 1.5"/>
    </g>
    <g id="text_19">
     <text style="font: 8px 'Arial', sans-serif, serif; text-anchor: start" x="187.141103" y="90.29625" transform="rotate(-0 187.141103 90.29625)">true value</text>
    </g>
   </g>
  </g>
  <g id="axes_3">
   <g id="patch_8">
    <path d="M 247.524044 99.08625 
L 337.78875 99.08625 
L 337.78875 15.92625 
L 247.524044 15.92625 
z
" style="fill: #ffffff"/>
   </g>
   <g id="matplotlib.axis_5">
    <g id="xtick_7">
     <g id="line2d_19">
      <g>
       <use xlink:href="#m3ac51ab09c" x="251.626985" y="99.08625" style="stroke: #000000; stroke-width: 1.5"/>
      </g>
     </g>
     <g id="text_20">
      <text style="font: 8px 'Arial', sans-serif, serif; text-anchor: middle" x="251.626985" y="111.8125" transform="rotate(-0 251.626985 111.8125)">0</text>
     </g>
    </g>
    <g id="xtick_8">
     <g id="line2d_20">
      <g>
       <use xlink:href="#m3ac51ab09c" x="284.463649" y="99.08625" style="stroke: #000000; stroke-width: 1.5"/>
      </g>
     </g>
     <g id="text_21">
      <text style="font: 8px 'Arial', sans-serif, serif; text-anchor: middle" x="284.463649" y="111.8125" transform="rotate(-0 284.463649 111.8125)">1000</text>
     </g>
    </g>
    <g id="xtick_9">
     <g id="line2d_21">
      <g>
       <use xlink:href="#m3ac51ab09c" x="317.300313" y="99.08625" style="stroke: #000000; stroke-width: 1.5"/>
      </g>
     </g>
     <g id="text_22">
      <text style="font: 8px 'Arial', sans-serif, serif; text-anchor: middle" x="317.300313" y="111.8125" transform="rotate(-0 317.300313 111.8125)">2000</text>
     </g>
    </g>
    <g id="text_23">
     <text style="font: 8px 'Arial', sans-serif, serif; text-anchor: middle" x="292.656397" y="123.12875" transform="rotate(-0 292.656397 123.12875)">iteration</text>
    </g>
   </g>
   <g id="matplotlib.axis_6">
    <g id="ytick_7">
     <g id="line2d_22">
      <g>
       <use xlink:href="#m5e7973ac8f" x="247.524044" y="88.701974" style="stroke: #000000; stroke-width: 1.5"/>
      </g>
     </g>
     <g id="text_24">
      <text style="font: 8px 'Arial', sans-serif, serif; text-anchor: end" x="240.524044" y="91.565099" transform="rotate(-0 240.524044 91.565099)">0.0008</text>
     </g>
    </g>
    <g id="ytick_8">
     <g id="line2d_23">
      <g>
       <use xlink:href="#m5e7973ac8f" x="247.524044" y="67.634314" style="stroke: #000000; stroke-width: 1.5"/>
      </g>
     </g>
     <g id="text_25">
      <text style="font: 8px 'Arial', sans-serif, serif; text-anchor: end" x="240.524044" y="70.497439" transform="rotate(-0 240.524044 70.497439)">0.0009</text>
     </g>
    </g>
    <g id="ytick_9">
     <g id="line2d_24">
      <g>
       <use xlink:href="#m5e7973ac8f" x="247.524044" y="46.566653" style="stroke: #000000; stroke-width: 1.5"/>
      </g>
     </g>
     <g id="text_26">
      <text style="font: 8px 'Arial', sans-serif, serif; text-anchor: end" x="240.524044" y="49.429778" transform="rotate(-0 240.524044 49.429778)">0.0010</text>
     </g>
    </g>
    <g id="ytick_10">
     <g id="line2d_25">
      <g>
       <use xlink:href="#m5e7973ac8f" x="247.524044" y="25.498992" style="stroke: #000000; stroke-width: 1.5"/>
      </g>
     </g>
     <g id="text_27">
      <text style="font: 8px 'Arial', sans-serif, serif; text-anchor: end" x="240.524044" y="28.362117" transform="rotate(-0 240.524044 28.362117)">0.0011</text>
     </g>
    </g>
    <g id="text_28">
     <!-- $g_K$ (S/cm²) -->
     <g transform="translate(209.657794 76.10625) rotate(-90)">
      <text>
       <tspan style="font: 8px 'Arial'" x="0 8.722012 10.944669 13.608731 18.944669 21.167325 25.167325 31.831387 34.49545" y="-0.171875">g (S/cm²)</tspan>
       <tspan style="font: 5.6px 'Arial'" x="4.588606" y="2.217625">K</tspan>
      </text>
     </g>
    </g>
   </g>
   <g id="line2d_26">
    <path d="M 251.626985 37.805667 
L 251.758332 95.30625 
L 251.791169 90.126521 
L 251.889679 73.205419 
L 251.955352 75.837192 
L 252.119535 55.29587 
L 252.152372 55.604603 
L 252.185209 56.004095 
L 252.218045 55.772999 
L 252.710595 20.650623 
L 252.743432 21.257028 
L 252.841942 24.700967 
L 252.874779 23.989493 
L 252.973289 19.70625 
L 253.038962 21.180311 
L 253.137472 23.233921 
L 253.170309 22.834319 
L 253.235982 22.270172 
L 253.268818 22.603308 
L 254.385265 52.172057 
L 254.844978 62.853663 
L 255.633058 74.806303 
L 256.224118 80.510042 
L 256.880852 84.929833 
L 257.537585 87.890917 
L 258.062971 89.374567 
L 258.489848 90.024223 
L 258.851051 90.204171 
L 259.179418 90.10565 
L 259.540621 89.741341 
L 260.000335 88.938814 
L 260.657068 87.279153 
L 261.740678 83.797812 
L 262.988471 79.973131 
L 263.809388 78.18347 
L 264.728814 76.699072 
L 265.385548 75.983085 
L 265.943771 75.703893 
L 267.454257 75.436585 
L 268.800561 75.32547 
L 269.949844 75.447339 
L 271.36182 75.804241 
L 272.806634 76.318846 
L 272.83947 76.154399 
L 272.905144 76.047527 
L 272.93798 76.61084 
L 273.003654 77.004997 
L 273.03649 75.153886 
L 273.069327 77.677168 
L 273.102164 74.187427 
L 273.135 77.62906 
L 273.266347 74.000012 
L 273.299184 75.773535 
L 273.33202 73.448079 
L 273.364857 74.695311 
L 273.594714 72.521107 
L 273.62755 73.6106 
L 273.660387 72.247434 
L 273.693224 72.89351 
L 273.791734 72.934701 
L 273.82457 71.920024 
L 273.955917 72.902633 
L 273.988754 72.219033 
L 274.02159 72.979939 
L 274.054427 72.6767 
L 274.185774 73.360889 
L 274.284284 73.250081 
L 274.349957 73.430555 
L 274.382793 72.998383 
L 274.41563 73.384373 
L 274.51414 73.320998 
L 274.546977 73.097505 
L 274.579813 73.422658 
L 274.61265 73.117346 
L 274.743997 73.425368 
L 274.776833 73.327828 
L 274.80967 73.562517 
L 274.842507 73.363428 
L 274.941017 73.672197 
L 274.973853 73.616634 
L 275.236547 74.122065 
L 275.269383 74.022723 
L 275.30222 74.201051 
L 275.335057 74.13927 
L 275.49924 74.405169 
L 275.926117 75.074704 
L 275.99179 75.273425 
L 276.024627 74.530264 
L 276.0903 74.147119 
L 276.123137 76.126341 
L 276.18881 76.514391 
L 276.221647 72.918808 
L 276.254483 75.754601 
L 276.320157 74.008314 
L 276.352993 74.583215 
L 276.418667 74.755167 
L 276.451503 72.55754 
L 276.48434 73.510081 
L 276.517177 73.465235 
L 276.58285 73.696343 
L 276.615687 71.836967 
L 276.648523 72.861246 
L 276.714197 71.742579 
L 276.747033 72.651536 
L 276.77987 71.233934 
L 276.87838 71.65209 
L 276.944053 71.19262 
L 276.97689 72.293114 
L 277.009727 71.426831 
L 277.108237 71.737441 
L 277.206747 72.51229 
L 277.305257 72.566272 
L 277.338093 72.145835 
L 277.37093 72.677313 
L 277.436603 72.565573 
L 277.535113 72.610529 
L 277.56795 72.253884 
L 277.600787 72.675204 
L 277.699297 72.511493 
L 277.732133 72.484919 
L 277.797807 72.450215 
L 277.830643 72.790758 
L 277.86348 72.536693 
L 277.896317 72.802727 
L 277.929153 72.696051 
L 278.126173 73.131375 
L 278.15901 72.983643 
L 278.191847 73.211648 
L 278.224683 73.131375 
L 278.421703 73.552376 
L 278.45454 73.461568 
L 278.487377 73.652074 
L 278.520213 73.545374 
L 278.684396 73.910639 
L 278.717233 73.806882 
L 278.75007 73.994248 
L 278.782906 73.887646 
L 278.94709 74.29089 
L 279.012763 74.415273 
L 279.0456 74.023164 
L 279.111273 73.93492 
L 279.14411 74.809516 
L 279.209783 75.214183 
L 279.24262 73.104776 
L 279.275456 75.802157 
L 279.308293 72.324678 
L 279.34113 75.688847 
L 279.373966 72.426878 
L 279.472476 72.740284 
L 279.505313 73.992678 
L 279.53815 71.934605 
L 279.570986 73.657506 
L 279.702333 71.598476 
L 279.73517 72.842189 
L 279.768006 71.256633 
L 279.800843 72.275038 
L 279.93219 70.8302 
L 279.965026 71.974067 
L 280.0307 71.687395 
L 280.096373 71.310173 
L 280.162046 71.286935 
L 280.194883 72.184733 
L 280.22772 71.65626 
L 280.293393 72.117691 
L 280.359066 72.356305 
L 280.391903 71.864546 
L 280.42474 72.341503 
L 280.490413 72.17496 
L 280.52325 72.152273 
L 280.588923 72.268686 
L 280.62176 71.885823 
L 280.654596 72.280936 
L 280.753106 72.125724 
L 280.785943 72.070663 
L 280.851616 72.037626 
L 280.884453 72.375251 
L 280.91729 72.118758 
L 280.950126 72.384068 
L 280.982963 72.267374 
L 281.179983 72.692433 
L 281.21282 72.553935 
L 281.245656 72.790329 
L 281.278493 72.682059 
L 281.40984 72.972312 
L 281.442676 72.9658 
L 281.60686 73.285239 
L 281.639696 73.181923 
L 281.672533 73.377456 
L 281.70537 73.257794 
L 281.869553 73.657923 
L 281.90239 73.468656 
L 281.935226 73.762821 
L 281.968063 73.505004 
L 282.066573 74.032496 
L 282.132246 74.238024 
L 282.165083 73.252877 
L 282.230756 72.758151 
L 282.263593 75.190748 
L 282.329266 75.396472 
L 282.362103 71.645554 
L 282.39494 74.25713 
L 282.49345 73.552278 
L 282.526286 71.286052 
L 282.624796 72.122278 
L 282.657633 72.306235 
L 282.723306 72.324311 
L 282.756143 70.552504 
L 282.78898 71.597863 
L 282.887489 71.25716 
L 282.920326 69.975641 
L 282.985999 70.173517 
L 283.117346 71.404954 
L 283.150183 70.434473 
L 283.215856 71.0488 
L 283.248693 71.024679 
L 283.314366 70.915109 
L 283.347203 71.575581 
L 283.478549 71.108619 
L 283.511386 71.438886 
L 283.544223 71.023882 
L 283.577059 71.382721 
L 283.708406 71.062731 
L 283.774079 71.03444 
L 283.806916 71.400981 
L 283.839753 71.187911 
L 283.938263 71.221684 
L 284.036773 71.571841 
L 284.069609 71.480494 
L 284.332303 72.026602 
L 284.365139 71.985558 
L 284.397976 72.076745 
L 284.857689 72.755588 
L 284.956199 72.823292 
L 285.120383 73.110761 
L 285.153219 73.031493 
L 285.186056 73.19025 
L 285.218893 73.086345 
L 285.317403 73.36604 
L 285.383076 73.468043 
L 285.415913 73.176736 
L 285.481586 73.139714 
L 285.514423 73.77349 
L 285.580096 74.067434 
L 285.612933 72.621639 
L 285.678606 71.738422 
L 285.711443 75.229622 
L 285.744279 70.963155 
L 285.809953 71.449162 
L 285.875626 72.859419 
L 285.908463 70.684785 
L 285.941299 73.053971 
L 286.006973 71.463326 
L 286.039809 71.857029 
L 286.138319 69.83572 
L 286.171156 70.398052 
L 286.203993 70.358774 
L 286.269666 70.3645 
L 286.302503 68.836593 
L 286.433849 70.093157 
L 286.466686 68.892794 
L 286.532359 69.703206 
L 286.565196 69.593686 
L 286.598033 70.482115 
L 286.630869 69.543309 
L 286.663706 70.476241 
L 286.762216 70.510859 
L 286.795053 69.851981 
L 286.827889 70.361631 
L 286.926399 70.195173 
L 286.959236 69.845641 
L 287.024909 69.86162 
L 287.156256 70.09691 
L 287.189092 69.794185 
L 287.221929 70.117867 
L 287.254766 69.925927 
L 288.239866 71.686427 
L 288.338376 71.784396 
L 288.535396 72.076843 
L 289.389149 73.178587 
L 289.454822 73.330992 
L 289.487659 72.787508 
L 289.553332 72.532463 
L 289.586169 74.025347 
L 289.651842 74.846465 
L 289.684679 70.615144 
L 289.717516 75.177823 
L 289.750352 70.238854 
L 289.783189 73.106542 
L 289.914536 69.911726 
L 289.947372 70.826558 
L 289.980209 71.44243 
L 290.111556 68.919552 
L 290.144392 69.711337 
L 290.177229 67.723935 
L 290.275739 67.746253 
L 290.341412 67.212065 
L 290.374249 68.555206 
L 290.407086 67.965602 
L 290.439922 67.993291 
L 290.538432 69.17976 
L 290.505596 67.930959 
L 290.571269 68.801116 
L 290.604106 68.655468 
L 290.636942 69.507538 
L 290.669779 68.591554 
L 290.702616 69.257091 
L 290.932472 68.544954 
L 290.965309 68.852388 
L 291.030982 68.672992 
L 291.162329 68.446985 
L 291.293675 68.734724 
L 291.326512 68.537413 
L 291.359349 68.876717 
L 291.392185 68.737434 
L 291.687715 69.597168 
L 291.720552 69.527576 
L 291.753389 69.660028 
L 292.081755 70.351293 
L 292.114592 70.32841 
L 292.311612 70.764078 
L 292.344449 70.757505 
L 292.541469 71.090788 
L 293.690752 72.643541 
L 293.756425 72.791016 
L 293.789262 72.308712 
L 293.854935 72.092442 
L 293.887772 73.434676 
L 293.953445 74.270914 
L 293.986282 70.235457 
L 294.019119 74.826047 
L 294.051955 69.662714 
L 294.084792 72.98558 
L 294.216139 69.325531 
L 294.281812 71.063626 
L 294.413159 68.300271 
L 294.445995 69.287822 
L 294.478832 67.038924 
L 294.511669 68.279191 
L 294.643015 66.586187 
L 294.774362 68.368686 
L 294.807199 67.377027 
L 294.840035 68.454564 
L 294.872872 68.277756 
L 294.905709 67.90631 
L 294.938545 68.84682 
L 295.004219 68.468323 
L 295.037055 68.463724 
L 295.069892 67.85044 
L 295.102729 68.541533 
L 295.168402 68.073185 
L 295.201239 68.216662 
L 295.234075 67.71627 
L 295.332585 67.87797 
L 295.365422 67.948642 
L 295.463932 67.672798 
L 295.595278 67.955669 
L 295.628115 67.756456 
L 295.660952 68.062025 
L 295.693788 68.000956 
L 297.138602 70.892287 
L 297.663988 71.655818 
L 297.696825 71.619287 
L 297.861008 71.959769 
L 297.926682 72.094833 
L 297.959518 71.745313 
L 298.025192 71.637056 
L 298.058028 72.573127 
L 298.123702 73.180341 
L 298.156538 70.381509 
L 298.189375 73.965246 
L 298.222212 69.339327 
L 298.255048 73.793344 
L 298.386395 68.820516 
L 298.419232 71.605295 
L 298.517742 70.775985 
L 298.649088 67.340655 
L 298.681925 68.527602 
L 298.714762 66.746035 
L 298.747598 67.584149 
L 298.813272 66.67085 
L 298.911782 67.788512 
L 298.944618 67.586307 
L 298.977455 67.30562 
L 299.010292 68.401195 
L 299.108802 68.10123 
L 299.174475 68.530472 
L 299.207312 67.619221 
L 299.305822 67.605744 
L 299.338658 68.168738 
L 299.470005 67.552768 
L 299.502842 67.822824 
L 299.535678 67.486585 
L 299.568515 67.67064 
L 299.699862 67.393141 
L 299.831208 67.727552 
L 299.864045 67.646972 
L 299.995391 68.114217 
L 300.028228 68.102408 
L 300.126738 68.461566 
L 300.159575 68.420804 
L 300.750635 69.704825 
L 300.849145 69.834641 
L 301.046165 70.191788 
L 301.571551 71.046605 
L 301.604388 70.986761 
L 301.637225 71.157143 
L 301.670061 71.052185 
L 301.768571 71.414348 
L 301.834245 71.591401 
L 301.867081 71.058488 
L 301.932755 70.826472 
L 301.965591 72.341675 
L 302.031265 73.152099 
L 302.064101 69.08677 
L 302.096938 73.499485 
L 302.129775 68.897552 
L 302.162611 71.62662 
L 302.293958 68.691166 
L 302.326795 69.856187 
L 302.359631 70.136409 
L 302.458141 67.786255 
L 302.490978 67.918585 
L 302.523815 68.429633 
L 302.556651 66.385993 
L 302.655161 66.977793 
L 302.720835 66.242381 
L 302.753671 67.947833 
L 302.786508 66.835015 
L 302.852181 67.955313 
L 302.885018 66.850969 
L 302.917855 68.346453 
L 303.016365 67.962622 
L 303.049201 66.906594 
L 303.082038 68.009258 
L 303.114875 67.059305 
L 303.180548 67.577453 
L 303.213385 66.780911 
L 303.279058 66.875569 
L 303.344731 67.185442 
L 303.410405 67.216063 
L 303.443241 66.653768 
L 303.574588 67.053689 
L 303.607425 66.650592 
L 303.640261 67.131988 
L 303.673098 66.90343 
L 303.902955 67.583965 
L 303.935791 67.45773 
L 304.034301 67.874549 
L 304.067138 67.803693 
L 304.592524 68.965134 
L 305.052238 69.772124 
L 305.282094 70.22691 
L 305.314931 70.179746 
L 305.479114 70.563369 
L 305.511951 70.438495 
L 305.544788 70.694117 
L 305.577624 70.493152 
L 305.676134 71.03222 
L 305.741808 71.304667 
L 305.774644 70.222188 
L 305.840318 69.554505 
L 305.873154 72.564248 
L 305.938828 72.776864 
L 305.971664 68.616533 
L 306.103011 71.219035 
L 306.234358 67.811897 
L 306.267194 69.660482 
L 306.300031 67.338031 
L 306.332868 68.201174 
L 306.365704 67.986338 
L 306.431378 68.123941 
L 306.464214 66.459816 
L 306.595561 68.029541 
L 306.628398 66.83629 
L 306.661234 68.124395 
L 306.694071 67.482243 
L 306.726908 67.570586 
L 306.792581 67.139873 
L 306.825418 68.165856 
L 306.956764 67.100546 
L 306.989601 67.832744 
L 307.055274 67.496444 
L 307.088111 67.446975 
L 307.153784 67.522576 
L 307.186621 67.021057 
L 307.219458 67.385979 
L 307.285131 67.163442 
L 307.317968 67.203751 
L 307.383641 67.331495 
L 307.416478 66.986144 
L 307.547824 67.550512 
L 307.580661 67.332868 
L 307.613498 67.745714 
L 307.646334 67.51181 
L 307.777681 67.983371 
L 307.810518 67.849814 
L 307.843354 68.122592 
L 307.876191 68.000416 
L 308.073211 68.609703 
L 308.106048 68.537499 
L 308.270231 68.968003 
L 308.335904 69.056199 
L 308.762781 69.898065 
L 308.795617 69.785871 
L 308.828454 70.024472 
L 308.861291 69.866537 
L 308.959801 70.314063 
L 309.025474 70.505439 
L 309.058311 69.914326 
L 309.123984 69.696866 
L 309.156821 71.278608 
L 309.222494 71.999072 
L 309.255331 68.294593 
L 309.288167 72.169564 
L 309.353841 70.753593 
L 309.452351 70.841653 
L 309.485187 68.12648 
L 309.518024 69.782671 
L 309.583697 68.103217 
L 309.616534 69.342368 
L 309.649371 67.19876 
L 309.747881 67.453474 
L 309.780717 67.888627 
L 309.813554 66.683027 
L 309.846391 68.121599 
L 309.879227 66.861871 
L 310.010574 68.324748 
L 310.043411 67.25246 
L 310.076247 68.349347 
L 310.109084 67.612709 
L 310.174757 68.068598 
L 310.240431 68.143955 
L 310.273267 67.374587 
L 310.306104 67.879699 
L 310.404614 67.778947 
L 310.503124 67.282259 
L 310.535961 67.634219 
L 310.634471 67.50314 
L 310.667307 67.2387 
L 310.700144 67.632416 
L 310.732981 67.252656 
L 310.864327 67.760074 
L 310.897164 67.653116 
L 310.995674 68.085644 
L 311.028511 67.918855 
L 311.159857 68.279191 
L 311.192694 68.276849 
L 311.356877 68.793562 
L 311.389714 68.662839 
L 311.422551 68.906271 
L 311.455387 68.821681 
L 311.619571 69.205476 
L 311.750917 69.409434 
L 312.046447 70.020806 
L 312.079284 69.849663 
L 312.112121 70.188134 
L 312.144957 69.863238 
L 312.210631 69.782388 
L 312.243467 70.741955 
L 312.309141 71.404697 
L 312.341977 68.614731 
L 312.374814 72.149269 
L 312.407651 67.857491 
L 312.440487 71.984319 
L 312.571834 67.940328 
L 312.60467 70.583738 
L 312.670344 68.58102 
L 312.70318 69.495459 
L 312.736017 66.981165 
L 312.834527 67.069545 
L 312.867364 67.66159 
L 312.9002 66.033334 
L 312.965874 66.352037 
L 313.09722 67.76764 
L 313.130057 66.639052 
L 313.228567 66.935633 
L 313.261404 67.799254 
L 313.29424 66.692838 
L 313.327077 67.575111 
L 313.458424 66.602619 
L 313.49126 67.376487 
L 313.556934 66.95377 
L 313.58977 67.014717 
L 313.68828 66.442366 
L 313.721117 66.772376 
L 313.78679 66.544725 
L 313.852464 66.427356 
L 313.8853 66.773737 
L 313.918137 66.481019 
L 313.950974 66.85623 
L 313.98381 66.705726 
L 314.18083 67.285521 
L 314.213667 67.159089 
L 314.246504 67.296386 
L 314.57487 68.005027 
L 315.16593 69.262744 
L 315.198767 69.076371 
L 315.231604 69.414094 
L 315.26444 69.132585 
L 315.36295 69.824107 
L 315.428624 70.181169 
L 315.46146 68.706066 
L 315.527134 67.977239 
L 315.55997 71.352873 
L 315.592807 67.652564 
L 315.65848 68.610954 
L 315.724154 69.904847 
L 315.789827 70.200262 
L 315.822664 67.898915 
L 315.8555 68.951497 
L 315.921174 67.517156 
L 315.95401 68.828242 
L 315.986847 66.864949 
L 316.085357 67.439544 
L 316.118194 67.767922 
L 316.15103 66.828295 
L 316.183867 68.190456 
L 316.216704 66.893792 
L 316.24954 68.095283 
L 316.34805 68.071394 
L 316.380887 67.183627 
L 316.413724 68.223345 
L 316.44656 67.207994 
L 316.479397 67.891251 
L 316.577907 67.799978 
L 316.64358 67.812449 
L 316.676417 67.181089 
L 316.709253 67.655716 
L 316.774927 67.411682 
L 316.807763 67.398193 
L 316.873437 67.484782 
L 316.906273 67.010167 
L 316.93911 67.50612 
L 317.004783 67.452567 
L 317.03762 67.288599 
L 317.070457 67.38073 
L 317.168967 67.735315 
L 317.201803 67.464057 
L 317.23464 67.83944 
L 317.267477 67.603402 
L 317.365987 67.971635 
L 317.398823 67.926519 
L 317.661517 68.632537 
L 317.694353 68.413066 
L 317.72719 68.774432 
L 317.760027 68.496479 
L 317.858537 69.117268 
L 317.92421 69.353919 
L 317.957047 68.482168 
L 318.02272 68.180179 
L 318.055557 70.298035 
L 318.12123 70.666182 
L 318.154067 67.551591 
L 318.186903 70.132043 
L 318.285413 69.472723 
L 318.351087 69.832323 
L 318.383923 67.547801 
L 318.41676 69.123817 
L 318.482433 68.051541 
L 318.51527 68.443306 
L 318.580943 68.579487 
L 318.61378 66.887734 
L 318.646617 68.339525 
L 318.745127 67.964694 
L 318.8108 68.411631 
L 318.843637 67.200943 
L 318.876473 68.410638 
L 318.942147 68.060296 
L 319.073493 67.359099 
L 319.10633 68.091395 
L 319.139167 67.325988 
L 319.172003 67.982733 
L 319.20484 67.455204 
L 319.30335 67.525287 
L 319.369023 67.32036 
L 319.40186 67.837723 
L 319.434697 67.264686 
L 319.50037 67.360644 
L 319.533207 67.770902 
L 319.631717 67.751661 
L 319.664553 67.716442 
L 319.763063 68.073553 
L 319.7959 67.796544 
L 319.828737 68.197483 
L 319.861573 67.86426 
L 319.960083 68.426923 
L 319.99292 68.076692 
L 320.025757 68.551895 
L 320.058593 68.184251 
L 320.157103 68.873406 
L 320.222777 69.090719 
L 320.255613 68.197581 
L 320.321287 67.924815 
L 320.354123 69.91619 
L 320.419797 70.274588 
L 320.452633 67.359748 
L 320.48547 69.882001 
L 320.58398 69.056113 
L 320.649653 69.486777 
L 320.68249 67.459361 
L 320.715327 69.184236 
L 320.781 68.408835 
L 320.912346 67.090944 
L 320.945183 68.423514 
L 320.97802 67.076878 
L 321.010856 68.332057 
L 321.043693 67.4457 
L 321.142203 67.660878 
L 321.207876 67.469036 
L 321.240713 68.346269 
L 321.27355 67.490472 
L 321.339223 67.646776 
L 321.37206 68.0226 
L 321.47057 68.000698 
L 321.536243 68.10627 
L 321.56908 67.531614 
L 321.601916 68.133494 
L 321.634753 67.490472 
L 321.66759 68.091665 
L 321.700426 67.527114 
L 321.7661 67.633593 
L 321.798936 67.975081 
L 321.897446 67.924643 
L 322.16014 68.518883 
L 322.192976 68.118631 
L 322.225813 68.69861 
L 322.25865 68.135935 
L 322.324323 68.060493 
L 322.35716 69.304659 
L 322.422833 69.876446 
L 322.45567 67.252104 
L 322.488506 70.207743 
L 322.55418 69.71466 
L 322.685526 67.699372 
L 322.718363 69.462705 
L 322.7512 67.271945 
L 322.784036 68.977531 
L 322.915383 67.199312 
L 322.981056 66.823843 
L 323.013893 68.323411 
L 323.04673 67.023497 
L 323.112403 67.58524 
L 323.14524 67.584971 
L 323.210913 67.234972 
L 323.24375 68.284587 
L 323.276586 67.188716 
L 323.34226 67.395311 
L 323.473606 67.860728 
L 323.53928 67.936551 
L 323.572116 67.257267 
L 323.604953 67.920756 
L 323.670626 67.812351 
L 323.703463 67.329692 
L 323.801973 67.471844 
L 323.867646 67.390161 
L 323.900483 67.744892 
L 323.93332 67.401271 
L 323.966156 67.841427 
L 323.998993 67.468227 
L 324.097503 68.033257 
L 324.13034 67.63558 
L 324.163176 68.129987 
L 324.196013 67.722758 
L 324.294523 68.349703 
L 324.32736 67.881772 
L 324.360196 68.513917 
L 324.393033 67.89856 
L 324.458706 67.811444 
L 324.491543 69.082748 
L 324.557216 69.602625 
L 324.590053 67.051592 
L 324.62289 69.883153 
L 324.688563 69.430477 
L 324.81991 67.64452 
L 324.852746 69.185745 
L 324.885583 67.172493 
L 324.91842 68.894511 
L 324.951256 67.304516 
L 325.049766 67.400547 
L 325.115439 66.941985 
L 325.148276 68.25594 
L 325.181113 66.941065 
L 325.246786 67.285238 
L 325.378133 68.051455 
L 325.443806 68.122592 
L 325.476643 67.261963 
L 325.509479 68.032251 
L 325.575153 67.869043 
L 325.706499 67.506389 
L 325.772173 67.359466 
L 325.805009 67.891521 
L 325.870683 67.895212 
L 325.903519 67.267592 
L 326.002029 67.902692 
L 326.034866 67.438281 
L 326.067703 67.93465 
L 326.100539 67.552143 
L 326.199049 68.017732 
L 326.231886 67.771454 
L 326.264723 68.063718 
L 326.297559 67.87591 
L 326.461743 68.371396 
L 326.494579 68.147744 
L 326.527416 68.542968 
L 326.560253 68.191265 
L 326.625926 68.156119 
L 326.658763 69.047958 
L 326.724436 69.56954 
L 326.757273 67.374219 
L 326.822946 66.829742 
L 326.855783 70.357449 
L 326.888619 67.291934 
L 326.987129 67.821928 
L 327.019966 69.540378 
L 327.052803 67.190887 
L 327.085639 68.887766 
L 327.216986 66.606163 
L 327.249823 68.04948 
L 327.282659 66.498568 
L 327.315496 67.502772 
L 327.414006 67.651939 
L 327.446843 66.688754 
L 327.479679 67.920756 
L 327.545353 67.727184 
L 327.676699 66.862325 
L 327.709536 67.778579 
L 327.742373 66.833188 
L 327.775209 67.557661 
L 327.906556 66.94071 
L 327.939393 67.383355 
L 327.972229 66.767397 
L 328.005066 67.283534 
L 328.037903 66.699374 
L 328.103576 66.728989 
L 328.234923 67.033651 
L 328.267759 66.793443 
L 328.300596 67.210164 
L 328.333433 66.835285 
L 328.431943 67.396108 
L 328.464779 67.084775 
L 328.497616 67.45085 
L 328.530453 67.2329 
L 328.694636 67.717534 
L 328.727473 67.684632 
L 328.924493 68.061302 
L 329.581226 69.369334 
L 329.646899 69.632314 
L 329.679736 68.933287 
L 329.745409 68.289811 
L 329.778246 71.19278 
L 329.811082 66.912591 
L 329.843919 71.969039 
L 329.876756 67.449599 
L 329.975266 67.34182 
L 330.008102 70.362612 
L 330.139449 66.555456 
L 330.172286 67.667206 
L 330.205122 67.485236 
L 330.303632 65.654763 
L 330.336469 65.867489 
L 330.369306 66.690741 
L 330.402142 65.332516 
L 330.434979 66.549385 
L 330.566326 65.715208 
L 330.599162 66.431918 
L 330.664836 66.081724 
L 330.697672 66.093852 
L 330.763346 66.294082 
L 330.796182 65.530343 
L 330.927529 66.138477 
L 331.058876 65.210634 
L 331.091712 65.454227 
L 331.124549 64.829513 
L 331.223059 65.06679 
L 331.288732 64.991299 
L 331.321569 65.253273 
L 331.354406 65.068445 
L 331.387242 65.320989 
L 331.420079 65.176862 
L 331.551426 65.55482 
L 331.584262 65.431736 
L 331.682772 65.914653 
L 331.715609 65.831375 
L 331.912629 66.364876 
L 331.945466 66.27933 
L 331.978302 66.498837 
L 332.011139 66.392162 
L 332.175322 66.913216 
L 332.208159 66.881283 
L 332.372342 67.350245 
L 332.405179 67.285337 
L 332.569362 67.810916 
L 332.602199 67.595811 
L 332.635036 68.01404 
L 332.667872 67.625365 
L 332.733546 67.559378 
L 332.766382 68.651225 
L 332.832056 69.341657 
L 332.864892 66.607353 
L 332.897729 69.919575 
L 332.930566 66.470191 
L 332.963402 69.550569 
L 333.094749 66.923284 
L 333.127586 69.164419 
L 333.193259 67.889534 
L 333.226096 67.984805 
L 333.291769 68.157481 
L 333.324606 66.249469 
L 333.455952 67.492912 
L 333.488789 66.336034 
L 333.521626 67.675153 
L 333.554462 66.606911 
L 333.685809 67.520774 
L 333.685809 67.520774 
" clip-path="url(#p0286cc5bdb)" style="fill: none; stroke: #000000; stroke-width: 1.5; stroke-linecap: square"/>
   </g>
   <g id="line2d_27">
    <path d="M 247.524044 74.375965 
L 337.78875 74.375965 
" clip-path="url(#p0286cc5bdb)" style="fill: none; stroke-dasharray: 5.55,2.4; stroke-dashoffset: 0; stroke: #000000; stroke-width: 1.5"/>
   </g>
   <g id="patch_9">
    <path d="M 247.524044 99.08625 
L 247.524044 15.92625 
" style="fill: none; stroke: #000000; stroke-width: 1.5; stroke-linejoin: miter; stroke-linecap: square"/>
   </g>
   <g id="patch_10">
    <path d="M 247.524044 99.08625 
L 337.78875 99.08625 
" style="fill: none; stroke: #000000; stroke-width: 1.5; stroke-linejoin: miter; stroke-linecap: square"/>
   </g>
   <g id="legend_3">
    <g id="line2d_28">
     <path d="M 273.05875 26.0525 
L 281.05875 26.0525 
L 289.05875 26.0525 
" style="fill: none; stroke-dasharray: 5.55,2.4; stroke-dashoffset: 0; stroke: #000000; stroke-width: 1.5"/>
    </g>
    <g id="text_29">
     <text style="font: 8px 'Arial', sans-serif, serif; text-anchor: start" x="295.45875" y="28.8525" transform="rotate(-0 295.45875 28.8525)">true value</text>
    </g>
   </g>
  </g>
 </g>
 <defs>
  <clipPath id="p2ab3818dfd">
   <rect x="30.88875" y="15.92625" width="90.264706" height="83.16"/>
  </clipPath>
  <clipPath id="pdbcff67ce4">
   <rect x="139.206397" y="15.92625" width="90.264706" height="83.16"/>
  </clipPath>
  <clipPath id="p0286cc5bdb">
   <rect x="247.524044" y="15.92625" width="90.264706" height="83.16"/>
  </clipPath>
 </defs>
</svg>
