<?xml version="1.0" encoding="utf-8" standalone="no"?>
<!DOCTYPE svg PUBLIC "-//W3C//DTD SVG 1.1//EN"
  "http://www.w3.org/Graphics/SVG/1.1/DTD/svg11.dtd">
<svg xmlns:xlink="http://www.w3.org/1999/xlink" width="129.3175pt" height="106.133405pt" viewBox="0 0 129.3175 106.133405" xmlns="http://www.w3.org/2000/svg" version="1.1">
 <metadata>
  <rdf:RDF xmlns:dc="http://purl.org/dc/elements/1.1/" xmlns:cc="http://creativecommons.org/ns#" xmlns:rdf="http://www.w3.org/1999/02/22-rdf-syntax-ns#">
   <cc:Work>
    <dc:type rdf:resource="http://purl.org/dc/dcmitype/StillImage"/>
    <dc:date>2025-10-29T04:04:57.665728</dc:date>
    <dc:format>image/svg+xml</dc:format>
    <dc:creator>
     <cc:Agent>
      <dc:title>Matplotlib v3.9.2, https://matplotlib.org/</dc:title>
     </cc:Agent>
    </dc:creator>
   </cc:Work>
  </rdf:RDF>
 </metadata>
 <defs>
  <style type="text/css">*{stroke-linejoin: round; stroke-linecap: butt}</style>
 </defs>
 <g id="figure_1">
  <g id="patch_1">
   <path d="M 0 106.133405 
L 129.3175 106.133405 
L 129.3175 0 
L 0 0 
z
" style="fill: #ffffff"/>
  </g>
  <g id="axes_1">
   <g id="patch_2">
    <path d="M 39.2775 73.109655 
L 122.1175 73.109655 
L 122.1175 7.852238 
L 39.2775 7.852238 
z
" style="fill: #ffffff"/>
   </g>
   <g id="matplotlib.axis_1">
    <g id="xtick_1">
     <g id="line2d_1">
      <defs>
       <path id="m28696ea950" d="M 0 0 
L 0 3.5 
" style="stroke: #000000; stroke-width: 1.5"/>
      </defs>
      <g>
       <use xlink:href="#m28696ea950" x="43.042955" y="73.109655" style="stroke: #000000; stroke-width: 1.5"/>
      </g>
     </g>
     <g id="text_1">
      <text style="font: 8px 'Arial', sans-serif, serif; text-anchor: middle" x="43.042955" y="85.835905" transform="rotate(-0 43.042955 85.835905)">0</text>
     </g>
    </g>
    <g id="xtick_2">
     <g id="line2d_2">
      <g>
       <use xlink:href="#m28696ea950" x="93.207212" y="73.109655" style="stroke: #000000; stroke-width: 1.5"/>
      </g>
     </g>
     <g id="text_2">
      <text style="font: 8px 'Arial', sans-serif, serif; text-anchor: middle" x="93.207212" y="85.835905" transform="rotate(-0 93.207212 85.835905)">20</text>
     </g>
    </g>
    <g id="text_3">
     <text style="font: 8px 'Arial', sans-serif, serif; text-anchor: middle" x="80.6975" y="97.249655" transform="rotate(-0 80.6975 97.249655)">Time (ms)</text>
    </g>
   </g>
   <g id="matplotlib.axis_2">
    <g id="ytick_1">
     <g id="line2d_3">
      <defs>
       <path id="m2adec076a7" d="M 0 0 
L -3.5 0 
" style="stroke: #000000; stroke-width: 1.5"/>
      </defs>
      <g>
       <use xlink:href="#m2adec076a7" x="39.2775" y="60.130028" style="stroke: #000000; stroke-width: 1.5"/>
      </g>
     </g>
     <g id="text_4">
      <text style="font: 8px 'Arial', sans-serif, serif; text-anchor: end" x="32.2775" y="62.993153" transform="rotate(-0 32.2775 62.993153)">−50</text>
     </g>
    </g>
    <g id="ytick_2">
     <g id="line2d_4">
      <g>
       <use xlink:href="#m2adec076a7" x="39.2775" y="35.096577" style="stroke: #000000; stroke-width: 1.5"/>
      </g>
     </g>
     <g id="text_5">
      <text style="font: 8px 'Arial', sans-serif, serif; text-anchor: end" x="32.2775" y="37.959702" transform="rotate(-0 32.2775 37.959702)">0</text>
     </g>
    </g>
    <g id="ytick_3">
     <g id="line2d_5">
      <g>
       <use xlink:href="#m2adec076a7" x="39.2775" y="10.063125" style="stroke: #000000; stroke-width: 1.5"/>
      </g>
     </g>
     <g id="text_6">
      <text style="font: 8px 'Arial', sans-serif, serif; text-anchor: end" x="32.2775" y="12.92625" transform="rotate(-0 32.2775 12.92625)">50</text>
     </g>
    </g>
    <g id="text_7">
     <text style="font: 8px 'Arial', sans-serif, serif; text-anchor: middle" x="13.02375" y="40.480947" transform="rotate(-90 13.02375 40.480947)">V (mV)</text>
    </g>
   </g>
   <g id="line2d_6">
    <path d="M 43.042955 70.143409 
L 44.108945 69.933695 
L 44.798704 69.479404 
L 45.801989 68.521813 
L 47.808559 66.226292 
L 50.065951 63.399824 
L 50.316772 62.780838 
L 50.504888 61.741056 
L 50.693004 59.28026 
L 50.88112 52.340943 
L 51.382762 24.568357 
L 51.696289 18.134579 
L 52.072521 14.690044 
L 52.448753 13.156482 
L 52.824985 12.484519 
L 53.201217 12.269125 
L 53.577449 12.338483 
L 54.016386 12.67934 
L 54.580734 13.454677 
L 55.207787 14.722483 
L 55.960251 16.793919 
L 56.838125 19.947974 
L 57.904116 24.732634 
L 59.346338 32.38105 
L 62.607015 50.007062 
L 63.673005 54.478487 
L 64.362764 56.526712 
L 65.366049 58.70418 
L 66.808271 61.386608 
L 67.686146 62.538783 
L 68.56402 63.327002 
L 69.441895 63.826477 
L 70.382475 64.104162 
L 71.38576 64.162897 
L 72.514456 63.992861 
L 73.705857 63.587704 
L 74.897258 62.951962 
L 75.712427 62.297422 
L 76.088659 61.756547 
L 76.276775 61.149485 
L 76.464891 59.783476 
L 76.653007 56.301291 
L 76.903828 43.703154 
L 77.28006 28.487965 
L 77.656292 21.797448 
L 78.032524 18.738051 
L 78.408756 17.361913 
L 78.722282 16.919857 
L 78.973104 16.86366 
L 79.28663 17.061169 
L 79.662862 17.595657 
L 80.22721 18.858861 
L 80.916969 20.988441 
L 81.857548 24.708718 
L 83.04895 30.417693 
L 87.877259 54.731765 
L 88.629723 57.01891 
L 90.071946 60.484677 
L 90.94982 62.143065 
L 91.764989 63.221801 
L 92.580158 63.942373 
L 93.458033 64.412629 
L 94.398613 64.646837 
L 95.401898 64.660445 
L 96.530594 64.451245 
L 97.847405 63.971404 
L 99.226922 63.22338 
L 100.230208 62.444827 
L 100.73185 61.794787 
L 100.982671 60.984269 
L 101.170787 59.46154 
L 101.358903 55.499782 
L 102.236778 23.260104 
L 102.61301 19.413309 
L 102.989242 17.611362 
L 103.302768 16.94221 
L 103.616295 16.738252 
L 103.867116 16.811431 
L 104.243348 17.213836 
L 104.744991 18.167795 
L 105.372044 19.878966 
L 106.187213 22.789345 
L 107.253204 27.508673 
L 108.820837 35.6289 
L 111.767987 50.999376 
L 112.771272 55.079955 
L 113.586441 57.42265 
L 115.154074 61.037296 
L 115.969243 62.427926 
L 116.784412 63.398886 
L 117.599582 64.039434 
L 118.352045 64.402646 
L 118.352045 64.402646 
" clip-path="url(#p6c2d557ac4)" style="fill: none; stroke: #4682b4; stroke-width: 1.5; stroke-linecap: square"/>
   </g>
   <g id="line2d_7">
    <path d="M 43.042955 70.143409 
L 44.108945 69.926117 
L 44.798704 69.483258 
L 45.864694 68.492525 
L 48.05938 66.059725 
L 50.128656 63.552279 
L 50.442182 62.883875 
L 50.630298 61.713798 
L 50.755709 59.679002 
L 50.88112 54.549086 
L 51.382762 17.57292 
L 51.633584 13.21057 
L 51.94711 11.421753 
L 52.260637 10.904239 
L 52.574163 10.821638 
L 52.950395 10.971831 
L 53.452038 11.422124 
L 54.079091 12.325627 
L 54.706144 13.632262 
L 55.395903 15.590437 
L 56.148367 18.397739 
L 57.026241 22.555839 
L 58.154937 29.094419 
L 60.349623 43.567127 
L 61.854551 52.689011 
L 62.607015 56.112697 
L 64.111943 61.245537 
L 64.927112 63.540642 
L 65.679576 64.980619 
L 66.432039 65.925579 
L 67.184503 66.51337 
L 67.999672 66.858759 
L 68.877547 66.983622 
L 69.880832 66.897693 
L 71.072233 66.566644 
L 72.514456 65.929351 
L 74.270205 64.901639 
L 75.900543 63.700156 
L 76.715712 62.877848 
L 77.029239 62.341822 
L 77.217355 61.547815 
L 77.405471 59.08435 
L 77.530881 54.205664 
L 78.095229 18.582154 
L 78.408756 14.174199 
L 78.722282 12.759747 
L 78.973104 12.426297 
L 79.223925 12.422497 
L 79.537452 12.67742 
L 80.039094 13.45436 
L 80.666147 14.898533 
L 81.418611 17.264156 
L 82.23378 20.59568 
L 83.237066 25.715963 
L 84.553877 33.713058 
L 87.689143 53.204349 
L 88.504313 56.837539 
L 90.385472 63.612665 
L 91.075231 65.111618 
L 91.764989 66.109233 
L 92.454748 66.75133 
L 93.207212 67.161965 
L 94.022381 67.360093 
L 94.962961 67.358145 
L 96.091656 67.121774 
L 97.471173 66.58881 
L 99.164217 65.681611 
L 101.108082 64.38152 
L 102.424894 63.271016 
L 102.989242 62.574172 
L 103.240063 61.915582 
L 103.428179 60.432988 
L 103.55359 57.799817 
L 103.679 50.93953 
L 104.117938 21.233003 
L 104.431464 15.168185 
L 104.744991 13.154638 
L 104.995812 12.604306 
L 105.246633 12.479387 
L 105.497455 12.590951 
L 105.873687 13.028044 
L 106.438034 14.096453 
L 107.127793 15.953862 
L 107.880257 18.641734 
L 108.758131 22.623103 
L 109.886827 28.897714 
L 111.767987 40.926688 
L 113.649146 52.41791 
L 114.464316 56.253516 
L 116.28277 62.993541 
L 116.972528 64.679117 
L 117.662287 65.812097 
L 118.352045 66.551692 
L 118.352045 66.551692 
" clip-path="url(#p6c2d557ac4)" style="fill: none; stroke: #008000; stroke-width: 1.5; stroke-linecap: square"/>
   </g>
   <g id="line2d_8">
    <path d="M 43.042955 70.143409 
L 44.108945 69.944541 
L 44.798704 69.500212 
L 45.801989 68.558406 
L 47.808559 66.294364 
L 50.128656 63.416579 
L 50.379477 62.741214 
L 50.567593 61.570535 
L 50.755709 58.778299 
L 50.943825 50.776332 
L 51.382762 25.745542 
L 51.696289 18.660087 
L 52.072521 14.91967 
L 52.448753 13.269196 
L 52.824985 12.544102 
L 53.201217 12.301182 
L 53.577449 12.354136 
L 54.016386 12.681985 
L 54.580734 13.444247 
L 55.207787 14.698537 
L 55.960251 16.752994 
L 56.838125 19.885608 
L 57.84141 24.338144 
L 59.220927 31.560831 
L 62.732425 50.42167 
L 63.735711 54.550514 
L 64.488174 56.724427 
L 65.61687 59.110323 
L 66.870977 61.363846 
L 67.748851 62.475841 
L 68.626726 63.236084 
L 69.567305 63.751422 
L 70.507885 64.018608 
L 71.51117 64.078875 
L 72.639866 63.91808 
L 73.831267 63.525009 
L 75.022668 62.897383 
L 75.837838 62.22994 
L 76.151364 61.734804 
L 76.33948 61.067884 
L 76.527596 59.549258 
L 76.715712 55.616801 
L 77.593587 23.180933 
L 77.969819 19.416225 
L 78.34605 17.699973 
L 78.659577 17.096941 
L 78.910398 16.953719 
L 79.16122 17.026822 
L 79.474746 17.350524 
L 79.913683 18.137831 
L 80.540737 19.782936 
L 81.355906 22.636175 
L 82.359191 27.006132 
L 83.801413 34.371618 
L 87.124795 51.621223 
L 88.065375 55.326854 
L 88.880544 57.616439 
L 90.385472 61.069748 
L 91.200641 62.437245 
L 92.01581 63.388639 
L 92.83098 64.018859 
L 93.708854 64.422873 
L 94.649434 64.61028 
L 95.715424 64.584318 
L 96.906826 64.322583 
L 98.223637 63.804229 
L 99.540449 63.050929 
L 100.418324 62.323333 
L 100.794555 61.788209 
L 100.982671 61.217582 
L 101.170787 59.961652 
L 101.358903 56.835204 
L 101.547019 48.525087 
L 101.985957 29.191858 
L 102.362189 22.16471 
L 102.73842 18.914033 
L 103.114652 17.414414 
L 103.428179 16.896835 
L 103.679 16.790976 
L 103.992527 16.935151 
L 104.368759 17.414094 
L 104.870401 18.448512 
L 105.56016 20.446516 
L 106.438034 23.754662 
L 107.56673 28.963626 
L 109.44789 38.921598 
L 111.705281 50.581391 
L 112.708567 54.753308 
L 113.46103 57.016526 
L 114.840547 60.281694 
L 115.718422 61.939036 
L 116.533591 63.028454 
L 117.34876 63.76683 
L 118.226635 64.262896 
L 118.352045 64.312731 
L 118.352045 64.312731 
" clip-path="url(#p6c2d557ac4)" style="fill: none; stroke-dasharray: 7.4,3.2; stroke-dashoffset: 0; stroke: #000000; stroke-width: 2"/>
   </g>
   <g id="patch_3">
    <path d="M 39.2775 73.109655 
L 39.2775 7.852238 
" style="fill: none; stroke: #000000; stroke-width: 1.5; stroke-linejoin: miter; stroke-linecap: square"/>
   </g>
   <g id="patch_4">
    <path d="M 39.2775 73.109655 
L 122.1175 73.109655 
" style="fill: none; stroke: #000000; stroke-width: 1.5; stroke-linejoin: miter; stroke-linecap: square"/>
   </g>
   <g id="legend_1">
    <g id="line2d_9">
     <path d="M 47.45625 17.978488 
L 55.45625 17.978488 
L 63.45625 17.978488 
" style="fill: none; stroke: #4682b4; stroke-width: 1.5; stroke-linecap: square"/>
    </g>
    <g id="text_8">
     <text style="font: 8px 'Arial', sans-serif, serif; text-anchor: start" x="69.85625" y="20.778488" transform="rotate(-0 69.85625 20.778488)">Inferred</text>
    </g>
    <g id="line2d_10">
     <path d="M 47.45625 29.294738 
L 55.45625 29.294738 
L 63.45625 29.294738 
" style="fill: none; stroke: #008000; stroke-width: 1.5; stroke-linecap: square"/>
    </g>
    <g id="text_9">
     <text style="font: 8px 'Arial', sans-serif, serif; text-anchor: start" x="69.85625" y="32.094738" transform="rotate(-0 69.85625 32.094738)">Initial guess</text>
    </g>
    <g id="line2d_11">
     <path d="M 47.45625 40.704738 
L 55.45625 40.704738 
L 63.45625 40.704738 
" style="fill: none; stroke-dasharray: 7.4,3.2; stroke-dashoffset: 0; stroke: #000000; stroke-width: 2"/>
    </g>
    <g id="text_10">
     <text style="font: 8px 'Arial', sans-serif, serif; text-anchor: start" x="69.85625" y="43.504738" transform="rotate(-0 69.85625 43.504738)">True Voltage</text>
    </g>
   </g>
  </g>
 </g>
 <defs>
  <clipPath id="p6c2d557ac4">
   <rect x="39.2775" y="7.852238" width="82.84" height="65.257417"/>
  </clipPath>
 </defs>
</svg>
