<?xml version="1.0" encoding="utf-8" standalone="no"?>
<!DOCTYPE svg PUBLIC "-//W3C//DTD SVG 1.1//EN"
  "http://www.w3.org/Graphics/SVG/1.1/DTD/svg11.dtd">
<svg xmlns:xlink="http://www.w3.org/1999/xlink" width="382.80925pt" height="105.31875pt" viewBox="0 0 382.80925 105.31875" xmlns="http://www.w3.org/2000/svg" version="1.1">
 <metadata>
  <rdf:RDF xmlns:dc="http://purl.org/dc/elements/1.1/" xmlns:cc="http://creativecommons.org/ns#" xmlns:rdf="http://www.w3.org/1999/02/22-rdf-syntax-ns#">
   <cc:Work>
    <dc:type rdf:resource="http://purl.org/dc/dcmitype/StillImage"/>
    <dc:date>2025-10-29T05:03:04.631804</dc:date>
    <dc:format>image/svg+xml</dc:format>
    <dc:creator>
     <cc:Agent>
      <dc:title>Matplotlib v3.9.2, https://matplotlib.org/</dc:title>
     </cc:Agent>
    </dc:creator>
   </cc:Work>
  </rdf:RDF>
 </metadata>
 <defs>
  <style type="text/css">*{stroke-linejoin: round; stroke-linecap: butt}</style>
 </defs>
 <g id="figure_1">
  <g id="patch_1">
   <path d="M 0 105.31875 
L 382.80925 105.31875 
L 382.80925 0 
L 0 0 
z
" style="fill: #ffffff"/>
  </g>
  <g id="axes_1">
   <g id="patch_2">
    <path d="M 30.88875 72.48625 
L 108.36925 72.48625 
L 108.36925 15.92625 
L 30.88875 15.92625 
z
" style="fill: #ffffff"/>
   </g>
   <g id="matplotlib.axis_1">
    <g id="xtick_1">
     <g id="line2d_1">
      <defs>
       <path id="m19e991d7c9" d="M 0 0 
L 0 3.5 
" style="stroke: #000000; stroke-width: 1.5"/>
      </defs>
      <g>
       <use xlink:href="#m19e991d7c9" x="34.410591" y="72.48625" style="stroke: #000000; stroke-width: 1.5"/>
      </g>
     </g>
     <g id="text_1">
      <text style="font: 8px 'Arial', sans-serif, serif; text-anchor: middle" x="34.410591" y="85.2125" transform="rotate(-0 34.410591 85.2125)">0</text>
     </g>
    </g>
    <g id="xtick_2">
     <g id="line2d_2">
      <g>
       <use xlink:href="#m19e991d7c9" x="62.596593" y="72.48625" style="stroke: #000000; stroke-width: 1.5"/>
      </g>
     </g>
     <g id="text_2">
      <text style="font: 8px 'Arial', sans-serif, serif; text-anchor: middle" x="62.596593" y="85.2125" transform="rotate(-0 62.596593 85.2125)">1000</text>
     </g>
    </g>
    <g id="xtick_3">
     <g id="line2d_3">
      <g>
       <use xlink:href="#m19e991d7c9" x="90.782594" y="72.48625" style="stroke: #000000; stroke-width: 1.5"/>
      </g>
     </g>
     <g id="text_3">
      <text style="font: 8px 'Arial', sans-serif, serif; text-anchor: middle" x="90.782594" y="85.2125" transform="rotate(-0 90.782594 85.2125)">2000</text>
     </g>
    </g>
    <g id="text_4">
     <text style="font: 8px 'Arial', sans-serif, serif; text-anchor: middle" x="69.629" y="96.52875" transform="rotate(-0 69.629 96.52875)">iteration</text>
    </g>
   </g>
   <g id="matplotlib.axis_2">
    <g id="ytick_1">
     <g id="line2d_4">
      <defs>
       <path id="m5a41cc89f8" d="M 0 0 
L -3.5 0 
" style="stroke: #000000; stroke-width: 1.5"/>
      </defs>
      <g>
       <use xlink:href="#m5a41cc89f8" x="30.88875" y="69.11652" style="stroke: #000000; stroke-width: 1.5"/>
      </g>
     </g>
     <g id="text_5">
      <text style="font: 8px 'Arial', sans-serif, serif; text-anchor: end" x="23.88875" y="71.979645" transform="rotate(-0 23.88875 71.979645)">3</text>
     </g>
    </g>
    <g id="ytick_2">
     <g id="line2d_5">
      <g>
       <use xlink:href="#m5a41cc89f8" x="30.88875" y="43.80684" style="stroke: #000000; stroke-width: 1.5"/>
      </g>
     </g>
     <g id="text_6">
      <text style="font: 8px 'Arial', sans-serif, serif; text-anchor: end" x="23.88875" y="46.669965" transform="rotate(-0 23.88875 46.669965)">4</text>
     </g>
    </g>
    <g id="ytick_3">
     <g id="line2d_6">
      <g>
       <use xlink:href="#m5a41cc89f8" x="30.88875" y="18.497159" style="stroke: #000000; stroke-width: 1.5"/>
      </g>
     </g>
     <g id="text_7">
      <text style="font: 8px 'Arial', sans-serif, serif; text-anchor: end" x="23.88875" y="21.360284" transform="rotate(-0 23.88875 21.360284)">5</text>
     </g>
    </g>
    <g id="text_8">
     <!-- $g_L$ (S/cm²) -->
     <g transform="translate(13.04 62.48625) rotate(-90)">
      <text>
       <tspan style="font: 8px 'Arial'" x="0 8.101309 10.323966 12.988028 18.323966 20.546622 24.546622 31.210684 33.874747" y="-0.171875">g (S/cm²)</tspan>
       <tspan style="font: 5.6px 'Arial'" x="4.588606" y="2.217625">L</tspan>
      </text>
     </g>
    </g>
    <g id="text_9">
     <text style="font: 8px 'Arial', sans-serif, serif; text-anchor: start" x="30.88875" y="12.92625" transform="rotate(-0 30.88875 12.92625)">1e−6</text>
    </g>
   </g>
   <g id="line2d_7">
    <path d="M 34.410591 36.428473 
L 34.523335 66.821187 
L 34.579707 63.521192 
L 34.607893 61.887026 
L 34.664265 63.706875 
L 34.692451 65.906204 
L 34.748823 62.212883 
L 34.777009 61.348461 
L 34.805195 62.273061 
L 34.946125 69.45972 
L 35.002497 68.054138 
L 35.058869 66.974569 
L 35.087055 67.324757 
L 35.199799 69.915341 
L 35.227985 69.564744 
L 35.340729 67.459833 
L 35.368915 67.765923 
L 35.453473 68.924476 
L 35.481659 68.742482 
L 35.594403 67.384331 
L 35.650775 67.62702 
L 35.678961 67.587589 
L 36.270867 63.442318 
L 36.327239 63.269059 
L 36.580913 62.120099 
L 36.693657 61.792993 
L 36.919145 61.301675 
L 37.511051 60.959158 
L 37.933841 61.343351 
L 39.089467 63.241908 
L 39.991419 64.47052 
L 40.808813 65.238866 
L 41.485277 65.586534 
L 42.077183 65.6541 
L 42.697275 65.491154 
L 43.542855 65.001045 
L 44.219319 64.401019 
L 44.92397 63.36586 
L 45.741364 62.300292 
L 46.699688 61.205306 
L 47.798942 59.662934 
L 48.898196 58.55969 
L 50.025636 57.741939 
L 51.322192 57.090438 
L 52.562376 56.663797 
L 52.646934 56.722611 
L 52.703306 56.781637 
L 52.731492 56.438125 
L 52.787864 56.200781 
L 52.81605 57.255777 
L 52.844236 55.927102 
L 52.872422 57.486969 
L 52.900608 56.274126 
L 53.013352 57.662397 
L 53.041538 56.840117 
L 53.126096 57.152992 
L 53.154282 57.820336 
L 53.23884 57.651975 
L 53.267026 57.341385 
L 53.295212 57.856183 
L 53.323398 57.370401 
L 53.436142 57.806116 
L 53.464328 57.401666 
L 53.548886 57.477197 
L 53.577072 57.717792 
L 53.605258 57.397822 
L 53.66163 57.49632 
L 53.718002 57.604792 
L 53.80256 57.38595 
L 53.830746 57.480201 
L 55.127302 56.390366 
L 55.21186 56.40271 
L 55.296418 56.208573 
L 55.35279 56.095061 
L 55.380976 56.509921 
L 55.437348 56.726818 
L 55.465534 55.642869 
L 55.550092 57.030864 
L 55.578278 56.303924 
L 55.691022 57.414453 
L 55.719208 56.627462 
L 55.803766 56.843651 
L 55.831952 57.596033 
L 55.91651 57.357608 
L 55.972882 57.624053 
L 56.001068 57.097735 
L 56.029254 57.608043 
L 56.113812 57.568088 
L 56.141998 57.196567 
L 56.170184 57.635384 
L 56.226556 57.487383 
L 56.254742 57.465003 
L 56.311114 57.564503 
L 56.3393 57.236683 
L 56.367486 57.493478 
L 56.452044 57.416957 
L 56.536602 57.188102 
L 56.564788 57.310425 
L 56.733904 57.036987 
L 56.76209 57.12122 
L 56.818462 57.003075 
L 56.846648 57.05386 
L 56.987578 56.853491 
L 57.100322 56.808063 
L 57.241252 56.617425 
L 57.353996 56.552132 
L 57.551298 56.320756 
L 57.579484 56.360602 
L 57.60767 56.272934 
L 57.635856 56.311198 
L 57.776786 56.130084 
L 57.804972 56.18705 
L 57.833158 56.076478 
L 57.861344 56.158662 
L 58.002274 55.847773 
L 58.058646 55.698023 
L 58.086832 56.32719 
L 58.143204 56.622657 
L 58.17139 55.242022 
L 58.199576 56.836077 
L 58.284134 56.467019 
L 58.31232 56.352062 
L 58.396878 57.170843 
L 58.368692 56.285129 
L 58.425064 56.678633 
L 58.537808 57.375505 
L 58.565994 56.804023 
L 58.650552 57.103938 
L 58.706924 56.931175 
L 58.73511 57.426153 
L 58.763296 56.988296 
L 58.847854 57.103691 
L 58.87604 57.361958 
L 58.904226 57.013738 
L 58.932412 57.347819 
L 59.045156 57.074583 
L 59.073342 57.243382 
L 59.101528 57.009537 
L 59.129714 57.188936 
L 59.242458 56.952013 
L 59.270644 57.050333 
L 59.29883 56.862411 
L 59.327016 57.001227 
L 59.43976 56.782138 
L 59.467946 56.838017 
L 59.496132 56.69245 
L 59.524318 56.794597 
L 59.665248 56.60351 
L 59.918922 56.32795 
L 60.14441 56.139246 
L 60.28534 55.935855 
L 60.313526 55.98896 
L 60.341712 55.880604 
L 60.369898 55.944522 
L 60.510828 55.683958 
L 60.5672 55.589908 
L 60.595386 55.897954 
L 60.651758 56.001356 
L 60.679944 55.218209 
L 60.736316 54.934378 
L 60.764502 56.576854 
L 60.792688 55.143391 
L 60.877246 56.181284 
L 60.961804 57.070808 
L 60.933618 55.994646 
L 60.98999 56.450963 
L 61.102734 57.328753 
L 61.13092 56.696409 
L 61.215479 57.010798 
L 61.271851 56.860057 
L 61.300037 57.429657 
L 61.328223 56.99728 
L 61.412781 57.013991 
L 61.440967 57.441944 
L 61.469153 57.000387 
L 61.525525 57.189943 
L 61.553711 57.146874 
L 61.581897 57.328333 
L 61.610083 57.036821 
L 61.638269 57.293696 
L 61.751013 57.019527 
L 61.779199 57.142852 
L 61.807385 56.943444 
L 61.835571 57.075924 
L 61.948315 56.823883 
L 61.976501 56.933862 
L 62.004687 56.741814 
L 62.032873 56.858964 
L 62.201989 56.552132 
L 62.230175 56.618018 
L 62.258361 56.526132 
L 62.286547 56.516171 
L 62.568407 56.190014 
L 62.822081 55.876271 
L 63.160313 55.554413 
L 63.357615 55.285516 
L 63.385801 55.376038 
L 63.413987 55.210676 
L 63.442173 55.353543 
L 63.526731 54.992196 
L 63.583103 54.778522 
L 63.611289 55.656255 
L 63.667661 56.049328 
L 63.695847 54.347497 
L 63.808591 56.357725 
L 63.836777 55.604491 
L 63.864963 56.909157 
L 63.893149 56.112112 
L 64.005893 57.271097 
L 64.034079 56.669362 
L 64.118637 56.799563 
L 64.146823 57.43593 
L 64.231381 57.234255 
L 64.287753 57.500573 
L 64.315939 56.969898 
L 64.428683 57.484874 
L 64.456869 57.046983 
L 64.541427 57.166481 
L 64.569613 57.351421 
L 64.597799 57.052767 
L 64.625985 57.261296 
L 64.795101 56.934363 
L 64.823287 56.975112 
L 64.851473 56.924281 
L 65.020589 56.691863 
L 65.048775 56.716965 
L 65.217891 56.403049 
L 65.246077 56.456712 
L 65.274263 56.330994 
L 65.302449 56.354261 
L 65.612495 55.864611 
L 65.697053 55.789403 
L 65.922541 55.461681 
L 66.035285 55.328734 
L 66.317145 55.019324 
L 66.627191 54.642319 
L 66.711749 54.597132 
L 66.852679 54.33418 
L 66.909051 54.216104 
L 66.937237 54.526372 
L 66.993609 54.676715 
L 67.021795 53.684261 
L 67.078167 53.307354 
L 67.106353 55.642616 
L 67.134539 53.74262 
L 67.219097 54.95921 
L 67.331841 56.747707 
L 67.360027 55.891147 
L 67.388213 56.989223 
L 67.444585 56.650228 
L 67.529143 57.216329 
L 67.500957 56.516343 
L 67.557329 56.953941 
L 67.585515 56.917726 
L 67.670073 57.344389 
L 67.641887 56.766646 
L 67.698259 57.071815 
L 67.726445 57.031365 
L 67.754631 57.39506 
L 67.782817 56.884855 
L 67.839189 57.144273 
L 67.895561 57.354679 
L 67.923747 56.929828 
L 67.951933 57.198742 
L 68.036491 57.159282 
L 68.149235 56.800243 
L 68.177421 56.915372 
L 68.205607 56.751074 
L 68.233793 56.786351 
L 69.023001 55.483123 
L 69.135745 55.337551 
L 69.361233 54.970633 
L 69.502163 54.789888 
L 70.432301 53.535322 
L 70.488673 53.450371 
L 70.516859 53.524676 
L 70.657789 53.05144 
L 70.714161 52.711201 
L 70.742347 54.037402 
L 70.770533 52.267216 
L 70.798719 54.653184 
L 70.826905 52.580079 
L 70.939649 55.602275 
L 70.967835 54.436206 
L 71.024207 55.913757 
L 71.052393 54.991678 
L 71.165137 56.480445 
L 71.193323 55.703639 
L 71.277881 56.11118 
L 71.306067 56.618018 
L 71.334253 56.051106 
L 71.390625 56.427052 
L 71.446997 56.705594 
L 71.475183 56.211957 
L 71.587927 56.668689 
L 71.700671 56.165361 
L 71.728857 56.4655 
L 71.813415 56.277089 
L 71.897973 56.02148 
L 71.926159 56.031925 
L 71.954345 56.032345 
L 72.123461 55.679867 
L 72.151647 55.719315 
L 72.320763 55.326168 
L 72.348949 55.390834 
L 72.377135 55.269512 
L 74.124667 52.453359 
L 74.152853 52.555909 
L 74.237411 52.18631 
L 74.293783 51.940409 
L 74.321969 52.813814 
L 74.378341 53.30088 
L 74.406527 51.27852 
L 74.519271 54.026376 
L 74.547457 52.929583 
L 74.575643 54.656895 
L 74.603829 54.067775 
L 74.632015 54.16533 
L 74.660201 55.191305 
L 74.744759 55.100766 
L 74.772945 54.7421 
L 74.801131 55.486202 
L 74.829317 54.848569 
L 74.942061 55.627774 
L 74.970247 55.117495 
L 75.054805 55.282524 
L 75.082991 55.722302 
L 75.111177 55.215038 
L 75.167549 55.474243 
L 75.252107 55.188997 
L 75.223921 55.6184 
L 75.280293 55.414941 
L 77.478801 51.584386 
L 77.535173 51.438543 
L 77.563359 51.768083 
L 77.619731 51.917229 
L 77.647917 50.838247 
L 77.732475 52.898743 
L 77.704289 50.465926 
L 77.788847 52.793322 
L 77.817033 52.717716 
L 77.845219 52.224291 
L 77.957963 54.033149 
L 77.986149 53.206599 
L 78.014335 54.441909 
L 78.042521 53.767164 
L 78.155266 54.701104 
L 78.183452 54.164985 
L 78.26801 54.110366 
L 78.296196 54.893543 
L 78.40894 54.302167 
L 78.437126 54.974759 
L 78.521684 54.807532 
L 78.54987 54.321549 
L 78.578056 54.848742 
L 78.634428 54.55632 
L 78.662614 54.665856 
L 78.6908 54.28927 
L 78.775358 54.438451 
L 78.803544 54.4426 
L 78.888102 54.137851 
L 78.944474 54.163771 
L 79.11359 53.888175 
L 79.141776 53.919815 
L 79.310892 53.483121 
L 79.339078 53.563337 
L 79.367264 53.359912 
L 79.39545 53.420578 
L 79.620938 52.903053 
L 79.790054 52.642403 
L 80.015542 52.18303 
L 80.1001 52.082103 
L 80.38196 51.560584 
L 80.466518 51.460497 
L 80.66382 51.066176 
L 80.692006 51.12244 
L 80.720192 50.95542 
L 80.748378 51.060519 
L 80.889308 50.450946 
L 80.94568 50.064048 
L 80.973866 51.593306 
L 81.002052 49.757119 
L 81.030238 52.076607 
L 81.058424 50.291051 
L 81.171168 52.923793 
L 81.199354 51.793347 
L 81.255726 52.980345 
L 81.283912 52.36625 
L 81.312098 53.48906 
L 81.396656 53.3607 
L 81.424842 52.903928 
L 81.453028 53.692456 
L 81.481214 52.988247 
L 81.593958 53.78936 
L 81.622144 53.205195 
L 81.706702 53.492202 
L 81.734888 53.751235 
L 81.763074 53.259831 
L 81.79126 53.740094 
L 81.904004 53.216054 
L 81.93219 53.554083 
L 82.016748 53.314173 
L 82.157678 53.0116 
L 82.21405 52.999658 
L 82.383166 52.659144 
L 82.411352 52.689005 
L 82.580468 52.286857 
L 82.608654 52.29862 
L 82.77777 51.925044 
L 83.48242 50.605001 
L 83.510606 50.649393 
L 83.538792 50.497123 
L 83.566978 50.570133 
L 83.707908 50.096292 
L 83.76428 49.867742 
L 83.792466 50.614364 
L 83.848838 50.986283 
L 83.877024 49.214428 
L 83.90521 51.399698 
L 83.989768 51.161037 
L 84.017954 50.837793 
L 84.04614 52.124562 
L 84.130698 51.984353 
L 84.158884 51.743798 
L 84.243442 52.557941 
L 84.215256 51.706858 
L 84.271628 52.154952 
L 84.356186 52.053726 
L 84.384372 52.771937 
L 84.412558 52.174087 
L 84.497116 52.36351 
L 84.525302 52.783021 
L 84.553488 52.245883 
L 84.60986 52.389136 
L 84.666232 52.588193 
L 84.75079 52.221368 
L 84.722604 52.607144 
L 84.778976 52.459011 
L 84.948092 52.022685 
L 84.976278 52.166462 
L 85.03265 51.988876 
L 85.060836 51.988698 
L 85.201766 51.657626 
L 85.258138 51.638826 
L 85.45544 51.217163 
L 85.59637 50.91009 
L 85.624556 50.955241 
L 85.765486 50.602924 
L 85.793672 50.612022 
L 86.01916 50.177388 
L 86.244648 49.756848 
L 86.272834 49.796003 
L 86.413764 49.313985 
L 86.470136 49.027352 
L 86.498322 49.980138 
L 86.554694 50.451223 
L 86.58288 48.423385 
L 86.695624 51.094311 
L 86.72381 50.135045 
L 86.751996 51.804902 
L 86.780182 51.003052 
L 86.977484 52.349549 
L 87.00567 51.674545 
L 87.033856 52.474548 
L 87.090228 52.281281 
L 87.118414 52.418296 
L 87.1466 52.002722 
L 87.174786 52.619931 
L 87.202972 52.059671 
L 87.315716 52.560058 
L 87.343902 52.018778 
L 87.42846 52.134926 
L 87.456646 52.366077 
L 87.484832 51.939517 
L 87.513018 52.303391 
L 87.625762 51.8538 
L 87.653948 52.045923 
L 87.682134 51.7559 
L 87.71032 51.896627 
L 87.879436 51.435418 
L 87.907622 51.544177 
L 87.963994 51.376743 
L 87.99218 51.366747 
L 88.161296 50.99023 
L 88.499528 50.321407 
L 88.753202 49.795463 
L 88.781388 49.829243 
L 88.809574 49.692844 
L 88.83776 49.731401 
L 88.97869 49.370031 
L 89.006876 49.464328 
L 89.035062 49.243484 
L 89.063248 49.402326 
L 89.147806 48.908873 
L 89.204178 48.616975 
L 89.232364 49.677841 
L 89.26055 48.221278 
L 89.288736 50.055353 
L 89.316922 48.294663 
L 89.429666 50.424607 
L 89.457852 49.595404 
L 89.486038 50.968247 
L 89.514224 50.020652 
L 89.626968 51.220915 
L 89.655154 50.397168 
L 89.739712 50.986375 
L 89.796084 50.719941 
L 89.82427 51.387464 
L 89.852456 50.7454 
L 89.937014 51.069577 
L 89.993386 50.830426 
L 90.021572 51.334664 
L 90.049758 50.829799 
L 90.134316 50.935048 
L 90.162502 51.092786 
L 90.190688 50.772016 
L 90.218874 51.060697 
L 90.24706 50.725068 
L 90.331618 50.776596 
L 90.38799 50.588784 
L 90.416176 50.718686 
L 90.557106 50.35338 
L 90.641664 50.173682 
L 90.66985 50.276048 
L 90.81078 49.883349 
L 90.838966 49.908578 
L 90.867152 49.801724 
L 91.008082 49.495858 
L 91.036268 49.551518 
L 91.177198 49.137262 
L 91.205384 49.280383 
L 91.23357 49.006284 
L 91.261756 49.21982 
L 91.346314 48.678568 
L 91.402686 48.41122 
L 91.430872 49.475538 
L 91.459058 48.09663 
L 91.487244 49.758212 
L 91.51543 48.257648 
L 91.628174 49.910661 
L 91.65636 49.210497 
L 91.684546 50.358709 
L 91.712732 49.348589 
L 91.825476 50.35185 
L 91.853662 49.78374 
L 91.881848 50.581309 
L 91.910034 49.79628 
L 91.93822 50.575991 
L 92.022778 50.433901 
L 92.07915 50.637326 
L 92.107336 50.031166 
L 92.135522 50.635616 
L 92.22008 50.330356 
L 92.276452 50.438591 
L 92.304638 50.075374 
L 92.332824 50.435161 
L 92.36101 50.030619 
L 92.389196 50.342452 
L 92.50194 50.007145 
L 92.530126 50.104349 
L 92.558312 49.842231 
L 92.586498 50.064411 
L 92.727428 49.65683 
L 92.755614 49.683026 
L 92.7838 49.629352 
L 92.981102 49.165156 
L 93.009288 49.315907 
L 93.037474 49.056368 
L 93.06566 49.21452 
L 93.20659 48.731857 
L 93.234776 48.972757 
L 93.262962 48.592598 
L 93.291148 48.943252 
L 93.34752 48.985953 
L 93.375706 48.173341 
L 93.432078 47.887445 
L 93.460264 49.427768 
L 93.48845 47.999501 
L 93.516636 49.472983 
L 93.573008 49.252806 
L 93.62938 48.980543 
L 93.657566 49.875362 
L 93.685752 48.954434 
L 93.713938 49.962632 
L 93.77031 49.810264 
L 93.826682 49.558441 
L 93.883054 49.391646 
L 93.91124 50.087597 
L 93.939426 49.419102 
L 94.023984 49.88671 
L 94.080356 49.675119 
L 94.136728 49.542328 
L 94.164914 49.968261 
L 94.1931 49.513905 
L 94.277658 49.727579 
L 94.446774 49.283215 
L 94.47496 49.552796 
L 94.503146 49.19039 
L 94.531332 49.459132 
L 94.672262 49.048501 
L 94.700448 49.082828 
L 94.728634 48.999689 
L 94.982309 48.433053 
L 95.010495 48.654485 
L 95.095053 48.096722 
L 95.151425 47.827572 
L 95.179611 48.894573 
L 95.207797 47.529787 
L 95.235983 49.146136 
L 95.264169 47.702061 
L 95.376913 49.229321 
L 95.405099 48.628093 
L 95.433285 49.66056 
L 95.461471 48.666984 
L 95.489657 49.681754 
L 95.574215 49.550247 
L 95.630587 49.811541 
L 95.658773 49.096007 
L 95.686959 49.888793 
L 95.771517 49.544055 
L 95.799703 49.53567 
L 95.856075 49.340733 
L 95.884261 49.863288 
L 95.912447 49.301025 
L 95.997005 49.605055 
L 96.109749 49.272442 
L 96.137935 49.552255 
L 96.166121 49.174116 
L 96.194307 49.482916 
L 96.335237 49.096185 
L 96.814399 48.168162 
L 96.842585 48.423753 
L 96.927143 47.850476 
L 96.983515 47.59607 
L 97.011701 48.660458 
L 97.039887 47.331789 
L 97.068073 48.886136 
L 97.096259 47.520487 
L 97.209003 48.90915 
L 97.265375 49.309974 
L 97.293561 48.3821 
L 97.321747 49.383808 
L 97.406305 49.083104 
L 97.434491 48.980641 
L 97.490863 48.808885 
L 97.519049 49.491214 
L 97.547235 48.824399 
L 97.631793 49.290978 
L 97.716351 49.33991 
L 97.744537 48.925654 
L 97.772723 49.338909 
L 97.800909 48.876048 
L 97.829095 49.252076 
L 97.857281 48.899338 
L 97.941839 48.977436 
L 97.970025 48.966064 
L 98.110955 48.548068 
L 98.139141 48.827237 
L 98.167327 48.458109 
L 98.195513 48.731115 
L 98.336443 48.270757 
L 98.364629 48.428265 
L 98.392815 48.201885 
L 98.421001 48.320306 
L 98.561931 47.947191 
L 98.590117 48.004404 
L 98.618303 47.840463 
L 98.646489 47.918854 
L 98.787419 47.412539 
L 98.843791 47.163439 
L 98.871977 47.968587 
L 98.928349 48.31828 
L 98.956535 46.586916 
L 98.984721 48.64759 
L 99.069279 48.441812 
L 99.097465 48.151807 
L 99.182023 49.286052 
L 99.210209 48.876319 
L 99.266581 49.407615 
L 99.294767 48.735345 
L 99.322953 49.569186 
L 99.351139 48.865132 
L 99.463883 49.519643 
L 99.492069 49.005191 
L 99.520255 49.607967 
L 99.576627 49.483831 
L 99.689371 48.981919 
L 99.717557 49.438616 
L 99.745743 48.946366 
L 99.802115 49.045019 
L 99.858487 49.127571 
L 99.999417 48.71339 
L 100.027603 48.906951 
L 100.055789 48.668089 
L 100.083975 48.752425 
L 100.253091 48.304066 
L 100.281277 48.483902 
L 100.309463 48.209182 
L 100.337649 48.367806 
L 100.478579 47.951829 
L 100.506765 47.990708 
L 100.534951 47.859925 
L 100.563137 47.870399 
L 100.591323 47.766181 
L 100.704067 47.565765 
L 101.352345 46.266583 
L 101.380531 46.471637 
L 101.436903 46.598656 
L 101.465089 45.555722 
L 101.549647 47.931261 
L 101.521461 44.889528 
L 101.606019 47.570507 
L 101.662391 47.029111 
L 101.775135 49.786646 
L 101.803321 48.584777 
L 101.887879 49.063884 
L 102.000623 50.118563 
L 102.028809 49.488751 
L 102.113367 49.888246 
L 102.141553 50.114765 
L 102.169739 49.722579 
L 102.197925 50.097017 
L 102.310669 49.673842 
L 102.338855 50.016123 
L 102.367041 49.617704 
L 102.423413 49.771022 
L 102.479785 49.878176 
L 102.592529 49.426128 
L 102.620715 49.536217 
L 102.648901 49.202452 
L 102.677087 49.414181 
L 102.846203 48.905208 
L 102.874389 48.95608 
L 102.902575 48.793744 
L 102.930761 48.811549 
L 103.184435 48.219989 
L 103.776341 47.078545 
L 103.973643 46.516651 
L 104.030015 46.309721 
L 104.058201 46.813515 
L 104.114573 47.066966 
L 104.142759 45.59063 
L 104.227317 47.595794 
L 104.255503 46.763472 
L 104.368247 48.311271 
L 104.452805 48.226734 
L 104.480991 47.634535 
L 104.509177 48.570701 
L 104.537363 47.70678 
L 104.650107 48.546963 
L 104.678293 47.946454 
L 104.706479 48.630395 
L 104.762851 48.446692 
L 104.819223 48.136016 
L 104.847409 48.534814 
L 104.847409 48.534814 
" clip-path="url(#pf305fb3ebd)" style="fill: none; stroke: #000000; stroke-width: 1.5; stroke-linecap: square"/>
   </g>
   <g id="line2d_8">
    <path d="M 30.88875 18.497159 
L 108.36925 18.497159 
" clip-path="url(#pf305fb3ebd)" style="fill: none; stroke-dasharray: 5.55,2.4; stroke-dashoffset: 0; stroke: #000000; stroke-width: 1.5"/>
   </g>
   <g id="patch_3">
    <path d="M 30.88875 72.48625 
L 30.88875 15.92625 
" style="fill: none; stroke: #000000; stroke-width: 1.5; stroke-linejoin: miter; stroke-linecap: square"/>
   </g>
   <g id="patch_4">
    <path d="M 30.88875 72.48625 
L 108.36925 72.48625 
" style="fill: none; stroke: #000000; stroke-width: 1.5; stroke-linejoin: miter; stroke-linecap: square"/>
   </g>
   <g id="legend_1">
    <g id="line2d_9">
     <path d="M 43.63925 26.0525 
L 51.63925 26.0525 
L 59.63925 26.0525 
" style="fill: none; stroke-dasharray: 5.55,2.4; stroke-dashoffset: 0; stroke: #000000; stroke-width: 1.5"/>
    </g>
    <g id="text_10">
     <text style="font: 8px 'Arial', sans-serif, serif; text-anchor: start" x="66.03925" y="28.8525" transform="rotate(-0 66.03925 28.8525)">true value</text>
    </g>
   </g>
  </g>
  <g id="axes_2">
   <g id="patch_5">
    <path d="M 164.50875 72.48625 
L 241.98925 72.48625 
L 241.98925 15.92625 
L 164.50875 15.92625 
z
" style="fill: #ffffff"/>
   </g>
   <g id="matplotlib.axis_3">
    <g id="xtick_4">
     <g id="line2d_10">
      <g>
       <use xlink:href="#m19e991d7c9" x="168.030591" y="72.48625" style="stroke: #000000; stroke-width: 1.5"/>
      </g>
     </g>
     <g id="text_11">
      <text style="font: 8px 'Arial', sans-serif, serif; text-anchor: middle" x="168.030591" y="85.2125" transform="rotate(-0 168.030591 85.2125)">0</text>
     </g>
    </g>
    <g id="xtick_5">
     <g id="line2d_11">
      <g>
       <use xlink:href="#m19e991d7c9" x="196.216593" y="72.48625" style="stroke: #000000; stroke-width: 1.5"/>
      </g>
     </g>
     <g id="text_12">
      <text style="font: 8px 'Arial', sans-serif, serif; text-anchor: middle" x="196.216593" y="85.2125" transform="rotate(-0 196.216593 85.2125)">1000</text>
     </g>
    </g>
    <g id="xtick_6">
     <g id="line2d_12">
      <g>
       <use xlink:href="#m19e991d7c9" x="224.402594" y="72.48625" style="stroke: #000000; stroke-width: 1.5"/>
      </g>
     </g>
     <g id="text_13">
      <text style="font: 8px 'Arial', sans-serif, serif; text-anchor: middle" x="224.402594" y="85.2125" transform="rotate(-0 224.402594 85.2125)">2000</text>
     </g>
    </g>
    <g id="text_14">
     <text style="font: 8px 'Arial', sans-serif, serif; text-anchor: middle" x="203.249" y="96.52875" transform="rotate(-0 203.249 96.52875)">iteration</text>
    </g>
   </g>
   <g id="matplotlib.axis_4">
    <g id="ytick_4">
     <g id="line2d_13">
      <g>
       <use xlink:href="#m5a41cc89f8" x="164.50875" y="52.896231" style="stroke: #000000; stroke-width: 1.5"/>
      </g>
     </g>
     <g id="text_15">
      <text style="font: 8px 'Arial', sans-serif, serif; text-anchor: end" x="157.50875" y="55.759356" transform="rotate(-0 157.50875 55.759356)">0.0075</text>
     </g>
    </g>
    <g id="ytick_5">
     <g id="line2d_14">
      <g>
       <use xlink:href="#m5a41cc89f8" x="164.50875" y="30.940235" style="stroke: #000000; stroke-width: 1.5"/>
      </g>
     </g>
     <g id="text_16">
      <text style="font: 8px 'Arial', sans-serif, serif; text-anchor: end" x="157.50875" y="33.80336" transform="rotate(-0 157.50875 33.80336)">0.0100</text>
     </g>
    </g>
    <g id="text_17">
     <!-- $g_{Na}$ (S/cm²) -->
     <g transform="translate(126.5625 64.52625) rotate(-90)">
      <text>
       <tspan style="font: 8px 'Arial'" x="0 12.14545 14.368106 17.032169 22.368106 24.590763 28.590763 35.254825 37.918887" y="-0.171875">g (S/cm²)</tspan>
       <tspan style="font: 5.6px 'Arial'" x="4.588606 8.632747" y="2.217625">Na</tspan>
      </text>
     </g>
    </g>
   </g>
   <g id="line2d_15">
    <path d="M 168.030591 18.497159 
L 168.115149 38.30402 
L 168.171521 30.864637 
L 168.227893 26.242749 
L 168.312451 26.975373 
L 168.566125 50.670529 
L 168.847985 59.533154 
L 169.242589 64.382981 
L 169.609007 66.733267 
L 170.229099 69.221782 
L 170.595517 69.866073 
L 170.877377 69.89724 
L 171.102865 69.663318 
L 171.497469 68.87625 
L 172.202119 66.804438 
L 173.526861 62.989143 
L 174.513371 60.836754 
L 175.471695 59.255637 
L 176.401833 58.132475 
L 177.191041 57.502166 
L 177.867505 57.238504 
L 178.854016 57.154049 
L 181.278012 56.955416 
L 185.16768 56.094616 
L 186.43605 55.962333 
L 186.57698 56.129779 
L 186.802468 56.430497 
L 186.915212 56.455308 
L 187.027956 56.533657 
L 187.056142 56.501803 
L 187.168886 56.534991 
L 187.197072 56.510678 
L 187.309816 56.513516 
L 188.239954 55.993807 
L 189.25465 55.875204 
L 189.423766 56.132637 
L 189.451952 56.091639 
L 189.480138 56.180944 
L 189.508324 56.155903 
L 189.705626 56.24686 
L 191.424972 55.469648 
L 191.735018 55.480739 
L 191.763204 55.374094 
L 191.79139 55.522547 
L 191.819576 55.398664 
L 191.988692 55.738197 
L 192.016878 55.703448 
L 192.045064 55.791064 
L 192.07325 55.800936 
L 192.580598 55.942993 
L 193.313434 55.481618 
L 193.76441 55.306987 
L 194.440874 55.308979 
L 194.638176 55.684361 
L 195.089153 55.92825 
L 195.399199 55.713463 
L 195.652873 55.526755 
L 197.118545 55.146449 
L 197.259475 55.257945 
L 197.287661 55.132696 
L 197.315847 55.334204 
L 197.344033 55.219461 
L 197.541335 55.808862 
L 197.992311 56.194619 
L 198.133241 56.128973 
L 199.486169 55.206689 
L 200.021703 55.208468 
L 200.613609 55.292089 
L 201.120957 56.702567 
L 201.233701 56.73591 
L 201.346445 56.811842 
L 201.374631 56.787521 
L 201.402817 56.832208 
L 201.487375 56.764754 
L 201.825607 56.242791 
L 202.361141 55.622023 
L 202.981233 55.399985 
L 203.432209 55.425059 
L 204.305975 55.642929 
L 204.897881 57.348421 
L 204.926067 57.332573 
L 205.095183 57.450416 
L 205.968949 56.097601 
L 206.504483 55.804257 
L 207.209133 55.853807 
L 207.970155 56.199527 
L 207.998341 56.079104 
L 208.223829 57.085826 
L 208.449317 57.664945 
L 208.562061 57.719558 
L 208.674805 57.80342 
L 209.717687 56.335258 
L 210.055919 56.223063 
L 210.845127 56.338051 
L 211.324289 56.673449 
L 211.352475 56.544327 
L 211.549777 57.568005 
L 211.88801 58.274266 
L 212.000754 58.283263 
L 212.02894 58.309985 
L 212.085312 58.230127 
L 212.620846 57.219737 
L 213.381868 56.571965 
L 213.663728 56.544597 
L 214.537494 56.782429 
L 214.98847 58.228716 
L 215.298516 58.525124 
L 215.524004 58.156154 
L 215.83405 57.572193 
L 216.341398 56.990767 
L 216.96149 56.923427 
L 217.497024 57.259263 
L 217.52521 57.149506 
L 217.722512 58.033281 
L 217.976186 58.548099 
L 218.004372 58.521541 
L 218.060744 58.582289 
L 218.173488 58.621598 
L 218.483534 58.081167 
L 219.441858 57.199407 
L 219.78009 57.211721 
L 220.146508 57.42778 
L 220.174694 57.302355 
L 220.400182 58.483712 
L 220.682042 59.098902 
L 220.879344 59.083419 
L 221.161204 58.448497 
L 221.640366 57.517567 
L 221.865854 57.292716 
L 222.626876 57.283862 
L 222.824178 57.420259 
L 222.852364 57.338 
L 222.88055 57.50866 
L 222.908736 57.393083 
L 223.106038 58.207597 
L 223.275154 58.708989 
L 223.331526 58.782087 
L 223.613386 58.862129 
L 223.838874 58.441021 
L 223.979804 58.20527 
L 224.543524 57.534997 
L 224.9945 57.455516 
L 225.389104 58.354926 
L 225.727336 58.713152 
L 225.952824 58.435107 
L 226.037382 58.347462 
L 226.375614 57.896422 
L 226.798404 57.614667 
L 226.939334 57.639999 
L 227.023892 57.57153 
L 227.221194 58.034978 
L 227.418496 58.420748 
L 227.643984 58.607992 
L 227.756728 58.602814 
L 227.982216 58.315126 
L 228.23589 58.018988 
L 228.517751 57.761051 
L 228.771425 57.760622 
L 228.799611 57.661633 
L 228.827797 57.821287 
L 228.855983 57.705081 
L 229.025099 58.28108 
L 229.053285 58.261159 
L 229.222401 58.603387 
L 229.306959 58.64991 
L 229.419703 58.753636 
L 229.447889 58.735555 
L 229.476075 58.770575 
L 229.532447 58.723859 
L 229.757935 58.396051 
L 229.898865 58.220917 
L 230.208911 57.855971 
L 230.406213 57.709375 
L 230.547143 57.728261 
L 230.603515 57.753862 
L 230.631701 57.654079 
L 230.800817 58.072488 
L 231.167235 58.694459 
L 231.279979 58.691461 
L 231.364537 58.653366 
L 231.561839 58.393123 
L 232.125559 57.788211 
L 232.322861 57.720781 
L 232.463791 57.766969 
L 232.520163 57.821782 
L 232.548349 57.690632 
L 232.773837 58.72089 
L 232.830209 58.839922 
L 233.112069 59.251367 
L 233.760347 58.01772 
L 234.070393 57.639414 
L 234.803229 57.67429 
L 235.056903 57.744705 
L 235.338763 59.551472 
L 235.564251 60.467502 
L 235.733367 60.678151 
L 235.902483 59.984428 
L 236.607133 57.304195 
L 236.832621 57.141956 
L 237.311783 57.247742 
L 237.565457 57.401455 
L 237.875503 58.1389 
L 238.241921 59.405898 
L 238.439223 59.41986 
L 238.467409 59.311914 
L 238.467409 59.311914 
" clip-path="url(#p6691db4ece)" style="fill: none; stroke: #000000; stroke-width: 1.5; stroke-linecap: square"/>
   </g>
   <g id="line2d_16">
    <path d="M 164.50875 57.28743 
L 241.98925 57.28743 
" clip-path="url(#p6691db4ece)" style="fill: none; stroke-dasharray: 5.55,2.4; stroke-dashoffset: 0; stroke: #000000; stroke-width: 1.5"/>
   </g>
   <g id="patch_6">
    <path d="M 164.50875 72.48625 
L 164.50875 15.92625 
" style="fill: none; stroke: #000000; stroke-width: 1.5; stroke-linejoin: miter; stroke-linecap: square"/>
   </g>
   <g id="patch_7">
    <path d="M 164.50875 72.48625 
L 241.98925 72.48625 
" style="fill: none; stroke: #000000; stroke-width: 1.5; stroke-linejoin: miter; stroke-linecap: square"/>
   </g>
   <g id="legend_2">
    <g id="line2d_17">
     <path d="M 177.25925 26.0525 
L 185.25925 26.0525 
L 193.25925 26.0525 
" style="fill: none; stroke-dasharray: 5.55,2.4; stroke-dashoffset: 0; stroke: #000000; stroke-width: 1.5"/>
    </g>
    <g id="text_18">
     <text style="font: 8px 'Arial', sans-serif, serif; text-anchor: start" x="199.65925" y="28.8525" transform="rotate(-0 199.65925 28.8525)">true value</text>
    </g>
   </g>
  </g>
  <g id="axes_3">
   <g id="patch_8">
    <path d="M 298.12875 72.48625 
L 375.60925 72.48625 
L 375.60925 15.92625 
L 298.12875 15.92625 
z
" style="fill: #ffffff"/>
   </g>
   <g id="matplotlib.axis_5">
    <g id="xtick_7">
     <g id="line2d_18">
      <g>
       <use xlink:href="#m19e991d7c9" x="301.650591" y="72.48625" style="stroke: #000000; stroke-width: 1.5"/>
      </g>
     </g>
     <g id="text_19">
      <text style="font: 8px 'Arial', sans-serif, serif; text-anchor: middle" x="301.650591" y="85.2125" transform="rotate(-0 301.650591 85.2125)">0</text>
     </g>
    </g>
    <g id="xtick_8">
     <g id="line2d_19">
      <g>
       <use xlink:href="#m19e991d7c9" x="329.836593" y="72.48625" style="stroke: #000000; stroke-width: 1.5"/>
      </g>
     </g>
     <g id="text_20">
      <text style="font: 8px 'Arial', sans-serif, serif; text-anchor: middle" x="329.836593" y="85.2125" transform="rotate(-0 329.836593 85.2125)">1000</text>
     </g>
    </g>
    <g id="xtick_9">
     <g id="line2d_20">
      <g>
       <use xlink:href="#m19e991d7c9" x="358.022594" y="72.48625" style="stroke: #000000; stroke-width: 1.5"/>
      </g>
     </g>
     <g id="text_21">
      <text style="font: 8px 'Arial', sans-serif, serif; text-anchor: middle" x="358.022594" y="85.2125" transform="rotate(-0 358.022594 85.2125)">2000</text>
     </g>
    </g>
    <g id="text_22">
     <text style="font: 8px 'Arial', sans-serif, serif; text-anchor: middle" x="336.869" y="96.52875" transform="rotate(-0 336.869 96.52875)">iteration</text>
    </g>
   </g>
   <g id="matplotlib.axis_6">
    <g id="ytick_6">
     <g id="line2d_21">
      <g>
       <use xlink:href="#m5a41cc89f8" x="298.12875" y="66.683291" style="stroke: #000000; stroke-width: 1.5"/>
      </g>
     </g>
     <g id="text_23">
      <text style="font: 8px 'Arial', sans-serif, serif; text-anchor: end" x="291.12875" y="69.546416" transform="rotate(-0 291.12875 69.546416)">0.0004</text>
     </g>
    </g>
    <g id="ytick_7">
     <g id="line2d_22">
      <g>
       <use xlink:href="#m5a41cc89f8" x="298.12875" y="46.090927" style="stroke: #000000; stroke-width: 1.5"/>
      </g>
     </g>
     <g id="text_24">
      <text style="font: 8px 'Arial', sans-serif, serif; text-anchor: end" x="291.12875" y="48.954052" transform="rotate(-0 291.12875 48.954052)">0.0006</text>
     </g>
    </g>
    <g id="ytick_8">
     <g id="line2d_23">
      <g>
       <use xlink:href="#m5a41cc89f8" x="298.12875" y="25.498563" style="stroke: #000000; stroke-width: 1.5"/>
      </g>
     </g>
     <g id="text_25">
      <text style="font: 8px 'Arial', sans-serif, serif; text-anchor: end" x="291.12875" y="28.361688" transform="rotate(-0 291.12875 28.361688)">0.0008</text>
     </g>
    </g>
    <g id="text_26">
     <!-- $g_K$ (S/cm²) -->
     <g transform="translate(260.2625 62.80625) rotate(-90)">
      <text>
       <tspan style="font: 8px 'Arial'" x="0 8.722012 10.944669 13.608731 18.944669 21.167325 25.167325 31.831387 34.49545" y="-0.171875">g (S/cm²)</tspan>
       <tspan style="font: 5.6px 'Arial'" x="4.588606" y="2.217625">K</tspan>
      </text>
     </g>
    </g>
   </g>
   <g id="line2d_24">
    <path d="M 301.650591 53.214102 
L 301.763335 68.54841 
L 301.819707 66.393229 
L 301.847893 65.59677 
L 301.876079 66.202739 
L 301.932451 69.915341 
L 301.988823 66.649778 
L 302.298869 56.396006 
L 302.608915 52.092379 
L 302.862589 51.288258 
L 302.890775 51.30209 
L 303.088077 51.51142 
L 303.567239 53.331814 
L 304.722865 57.233725 
L 305.314771 58.486114 
L 305.906677 59.220604 
L 306.611327 59.737185 
L 307.513279 60.109885 
L 310.895599 61.25434 
L 312.924992 62.62563 
L 313.99606 63.161917 
L 314.926198 63.365613 
L 315.771778 63.324479 
L 316.645544 63.055442 
L 317.632054 62.512168 
L 318.844052 61.576026 
L 319.971492 60.476073 
L 319.999678 60.547572 
L 320.140608 60.118398 
L 320.168794 60.219521 
L 320.19698 60.109381 
L 320.366096 59.671518 
L 320.394282 59.750265 
L 320.422468 59.56412 
L 320.450654 59.596121 
L 321.04256 58.677344 
L 321.155304 58.557253 
L 321.380792 58.208936 
L 321.493536 58.079274 
L 321.944512 57.510268 
L 322.282744 57.126268 
L 322.705534 56.465299 
L 322.73372 56.732001 
L 322.761906 56.312066 
L 322.790092 56.546818 
L 322.959208 55.871287 
L 322.987394 55.917398 
L 323.01558 55.862908 
L 323.184696 55.42639 
L 323.212882 55.481359 
L 323.241068 55.293222 
L 323.269254 55.367004 
L 323.43837 54.997195 
L 323.494742 54.967547 
L 323.72023 54.604775 
L 323.748416 54.620339 
L 323.776602 54.527175 
L 323.889346 54.40546 
L 324.114834 54.063418 
L 324.199392 53.983643 
L 324.56581 53.54073 
L 325.157716 52.941791 
L 325.298646 52.693746 
L 325.355018 52.554458 
L 325.383204 52.830737 
L 325.524134 52.233195 
L 325.749622 51.591824 
L 325.777808 51.702002 
L 325.805994 51.475862 
L 325.83418 51.561223 
L 326.003296 51.174538 
L 326.031482 51.226918 
L 326.059668 51.158374 
L 326.285156 50.854353 
L 326.341528 50.774284 
L 326.369714 50.796902 
L 326.595202 50.456239 
L 326.707946 50.355524 
L 326.933434 50.092543 
L 327.158922 49.88304 
L 327.8072 49.294014 
L 327.835386 49.371194 
L 327.919944 49.087136 
L 327.94813 49.376048 
L 327.976316 48.893113 
L 328.004502 49.310627 
L 328.117246 48.609918 
L 328.145432 48.691952 
L 328.286362 48.225205 
L 328.427292 47.860652 
L 328.652781 47.507427 
L 328.680967 47.618277 
L 328.709153 47.442335 
L 328.737339 47.527342 
L 328.934641 47.273681 
L 329.836593 46.450957 
L 330.033895 46.34383 
L 330.541243 46.042062 
L 330.625801 46.032664 
L 330.766731 45.866072 
L 330.823103 45.766328 
L 330.851289 46.044393 
L 330.907661 46.059628 
L 330.992219 45.221861 
L 331.020405 45.31204 
L 331.048591 45.251359 
L 331.133149 44.678125 
L 331.189521 44.714264 
L 331.274079 44.290085 
L 331.330451 44.31772 
L 331.415009 44.033746 
L 331.471381 44.08087 
L 331.555939 43.901884 
L 331.527753 44.120652 
L 331.612311 43.950411 
L 331.668683 43.996798 
L 331.781427 43.795931 
L 331.809613 43.844379 
L 331.837799 43.713537 
L 331.865985 43.769477 
L 332.063287 43.538764 
L 332.457891 43.240256 
L 332.570635 43.209565 
L 333.754447 42.869321 
L 334.064493 42.832721 
L 334.205423 42.664882 
L 334.261795 42.507825 
L 334.289981 42.993667 
L 334.374539 41.931055 
L 334.430911 41.954087 
L 334.600027 40.782129 
L 334.628213 41.030402 
L 334.684585 40.650735 
L 334.712771 40.763616 
L 334.740957 40.434933 
L 334.769143 40.632659 
L 334.881887 40.331808 
L 334.994631 40.540455 
L 335.022817 40.332989 
L 335.107375 40.367821 
L 335.135561 40.489686 
L 335.163747 40.307105 
L 335.191933 40.401785 
L 335.530165 40.036591 
L 335.642909 39.968245 
L 336.347559 39.940622 
L 336.629419 39.947622 
L 336.967651 39.938938 
L 337.644115 39.985457 
L 337.785045 39.94655 
L 337.841417 39.922553 
L 337.869603 40.049135 
L 337.925975 40.112183 
L 337.954161 39.722717 
L 337.982347 40.234929 
L 338.010533 39.415291 
L 338.038719 40.219874 
L 338.151463 38.602282 
L 338.179649 38.942155 
L 338.292393 37.68151 
L 338.320579 37.97964 
L 338.433323 37.290222 
L 338.461509 37.522446 
L 338.574253 37.265998 
L 338.686997 37.570415 
L 338.715183 37.36944 
L 338.799741 37.421437 
L 338.827927 37.587969 
L 338.856113 37.396319 
L 338.912485 37.477569 
L 338.997043 37.325672 
L 339.025229 37.348032 
L 339.053415 37.361739 
L 339.194345 37.235972 
L 339.335275 37.154747 
L 339.504391 37.152997 
L 339.673507 37.236739 
L 339.786251 37.261084 
L 340.321785 37.425914 
L 340.547273 37.460117 
L 340.913691 37.559723 
L 341.336481 37.683884 
L 341.421039 37.632444 
L 341.477411 37.603713 
L 341.505597 37.795434 
L 341.561969 37.905007 
L 341.590155 37.292044 
L 341.618341 38.002786 
L 341.646527 36.919287 
L 341.674713 37.737528 
L 341.787457 35.912303 
L 341.815643 36.332364 
L 341.928387 35.157146 
L 341.956573 35.368603 
L 342.069317 34.900603 
L 342.125689 35.075274 
L 342.153875 34.975446 
L 342.182061 35.224288 
L 342.210247 35.014251 
L 342.322991 35.367704 
L 342.351177 35.14869 
L 342.435735 35.19232 
L 342.463921 35.359548 
L 342.492107 35.15729 
L 342.548479 35.236748 
L 342.633037 35.110825 
L 342.661223 35.15916 
L 343.055827 35.052086 
L 343.224943 35.200741 
L 343.253129 35.167718 
L 343.309501 35.217953 
L 343.873221 35.528843 
L 344.098709 35.603529 
L 344.746987 35.91364 
L 344.803359 35.970143 
L 344.831545 35.731034 
L 344.887917 35.550742 
L 344.916103 36.207521 
L 345.057033 34.802836 
L 345.226149 33.252164 
L 345.254335 33.615944 
L 345.282521 33.153553 
L 345.338894 33.288123 
L 345.36708 32.885544 
L 345.451638 33.098721 
L 345.536196 33.376121 
L 345.50801 32.991941 
L 345.592568 33.277629 
L 345.64894 33.146859 
L 345.677126 33.47668 
L 345.78987 33.150239 
L 345.818056 33.40357 
L 345.902614 33.29136 
L 345.9308 33.101646 
L 346.015358 33.173564 
L 346.043544 33.179755 
L 346.128102 33.054012 
L 346.156288 33.138091 
L 346.269032 33.06525 
L 346.381776 33.224536 
L 346.409962 33.163166 
L 346.438148 33.284851 
L 346.466334 33.22236 
L 346.63545 33.414076 
L 346.748194 33.467823 
L 346.91731 33.638029 
L 347.05824 33.701298 
L 347.283728 33.844128 
L 347.424658 33.907158 
L 348.101122 34.369129 
L 348.157494 34.481057 
L 348.18568 33.901266 
L 348.213866 34.609113 
L 348.242052 33.540454 
L 348.270238 34.439447 
L 348.382982 32.583531 
L 348.411168 32.978876 
L 348.523912 31.667409 
L 348.552098 32.034503 
L 348.664842 31.393887 
L 348.693028 31.7582 
L 348.777586 31.663676 
L 348.805772 31.606117 
L 348.89033 31.931235 
L 348.918516 31.787285 
L 349.115818 31.923803 
L 349.144004 31.753657 
L 349.17219 31.942448 
L 349.228562 31.865651 
L 349.538608 31.810964 
L 349.707724 32.05268 
L 349.73591 32.002535 
L 349.792282 32.09127 
L 349.989584 32.288116 
L 350.271444 32.5682 
L 350.553304 32.714685 
L 350.750606 32.879611 
L 350.806978 32.922343 
L 350.835164 32.864952 
L 350.976094 33.099722 
L 351.032466 33.218974 
L 351.060652 32.616931 
L 351.088838 33.344016 
L 351.117024 32.26542 
L 351.14521 33.153727 
L 351.257954 31.389045 
L 351.28614 31.740023 
L 351.398884 30.57214 
L 351.42707 30.831015 
L 351.455256 30.30907 
L 351.539814 30.429611 
L 351.596186 30.334499 
L 351.680744 30.73235 
L 351.737116 30.656428 
L 351.821674 30.947217 
L 351.84986 30.772348 
L 351.962604 30.966682 
L 351.99079 30.773079 
L 352.075348 30.843786 
L 352.13172 30.806185 
L 352.159906 30.930645 
L 352.188092 30.806881 
L 352.27265 30.867172 
L 352.808184 31.396332 
L 352.892742 31.448952 
L 353.061858 31.636718 
L 353.287346 31.812666 
L 353.54102 31.9456 
L 353.68195 32.207633 
L 353.738322 32.373698 
L 353.766508 31.55964 
L 353.794694 32.464117 
L 353.82288 31.100947 
L 353.851066 32.026622 
L 353.96381 29.788396 
L 353.991996 30.253226 
L 354.10474 28.818995 
L 354.132926 29.203469 
L 354.24567 28.680091 
L 354.358414 29.217199 
L 354.3866 29.059699 
L 354.414786 29.434931 
L 354.442972 29.17632 
L 354.555716 29.584664 
L 354.583902 29.310303 
L 354.66846 29.42491 
L 354.753018 29.585 
L 354.724832 29.358596 
L 354.781204 29.424647 
L 354.893948 29.546595 
L 354.922134 29.409352 
L 355.006692 29.494083 
L 355.65497 30.39376 
L 356.049574 30.706765 
L 356.190504 30.868748 
L 356.246876 30.921919 
L 356.275062 30.843529 
L 356.35962 31.056879 
L 356.415992 31.159908 
L 356.444178 30.715988 
L 356.50055 30.422521 
L 356.528736 31.31639 
L 356.669666 29.799381 
L 356.754224 28.761245 
L 356.810596 28.788538 
L 356.895154 28.278531 
L 356.951526 28.400211 
L 357.120642 28.87922 
L 357.2052 28.941585 
L 357.233386 28.721792 
L 357.261572 29.03569 
L 357.34613 28.898267 
L 357.374316 28.888258 
L 357.430688 28.854253 
L 357.458874 29.050265 
L 357.48706 28.881893 
L 357.571618 28.992875 
L 357.881664 29.182139 
L 358.022594 29.443531 
L 358.05078 29.419414 
L 358.107152 29.512279 
L 358.445384 30.027523 
L 358.501756 30.095611 
L 358.529942 29.928318 
L 358.586314 29.899185 
L 358.6145 30.265326 
L 358.670872 30.395384 
L 358.699058 29.512135 
L 358.727244 30.341152 
L 358.75543 29.231367 
L 358.783616 29.828544 
L 358.952732 28.201483 
L 358.980918 28.561109 
L 359.03729 28.175695 
L 359.065476 28.282175 
L 359.121848 28.353799 
L 359.150034 27.894261 
L 359.17822 28.324727 
L 359.262778 28.285693 
L 359.31915 28.457733 
L 359.347336 28.126946 
L 359.375522 28.490468 
L 359.46008 28.374224 
L 359.488266 28.342694 
L 359.544638 28.302732 
L 359.572824 28.539821 
L 359.60101 28.327603 
L 359.685568 28.517814 
L 359.798312 28.442253 
L 359.939242 28.667338 
L 359.967428 28.61428 
L 360.0238 28.711118 
L 360.108358 28.773459 
L 360.249288 29.054473 
L 360.277474 28.966373 
L 360.30566 29.131491 
L 360.333846 29.041288 
L 360.474776 29.369108 
L 360.531148 29.456836 
L 360.559334 29.180934 
L 360.615706 29.082341 
L 360.643892 29.682371 
L 360.784822 28.479302 
L 360.813008 28.550597 
L 360.841194 28.447131 
L 360.982124 27.582437 
L 361.01031 27.792797 
L 361.066682 27.557871 
L 361.094868 27.780427 
L 361.123054 27.462148 
L 361.15124 27.881981 
L 361.179426 27.513719 
L 361.207612 27.908249 
L 361.29217 27.867646 
L 361.348542 28.013861 
L 361.376728 27.795087 
L 361.461286 28.099917 
L 361.489472 27.944328 
L 361.602216 28.132418 
L 361.658588 28.208387 
L 361.686774 28.049862 
L 361.827704 28.27819 
L 361.85589 28.170942 
L 361.884076 28.293964 
L 361.912262 28.247337 
L 362.137751 28.604344 
L 362.165937 28.53559 
L 362.194123 28.700252 
L 362.222309 28.594671 
L 362.363239 29.04643 
L 362.419611 29.201677 
L 362.447797 28.300227 
L 362.475983 29.14796 
L 362.504169 28.040848 
L 362.532355 28.637624 
L 362.701471 27.024977 
L 362.729657 27.449089 
L 362.757843 26.976102 
L 362.814215 27.079059 
L 362.870587 27.195386 
L 362.898773 26.777057 
L 362.926959 27.248546 
L 363.011517 27.098812 
L 363.039703 27.124601 
L 363.096075 27.070968 
L 363.124261 27.416306 
L 363.152447 27.108168 
L 363.180633 27.429719 
L 363.237005 27.388912 
L 363.293377 27.341871 
L 363.434307 27.589023 
L 363.462493 27.399352 
L 363.547051 27.570391 
L 363.659795 27.582365 
L 363.800725 27.880573 
L 363.828911 27.781842 
L 363.857097 27.962919 
L 363.885283 27.857242 
L 364.026213 28.196437 
L 364.054399 28.061621 
L 364.082585 28.287485 
L 364.110771 28.101361 
L 364.195329 28.520463 
L 364.251701 28.659031 
L 364.279887 27.755382 
L 364.308073 28.584734 
L 364.336259 27.514522 
L 364.364445 28.090214 
L 364.533561 26.569304 
L 364.561747 27.024785 
L 364.589933 26.492232 
L 364.618119 26.724779 
L 364.730863 26.410503 
L 364.815421 26.881003 
L 364.843607 26.626988 
L 364.956351 26.973441 
L 364.984537 26.762985 
L 365.012723 27.065544 
L 365.040909 26.823618 
L 365.125467 27.094425 
L 365.153653 27.017689 
L 365.322769 27.273483 
L 365.350955 27.092921 
L 365.379141 27.316922 
L 365.407327 27.131104 
L 365.548257 27.441454 
L 365.576443 27.332618 
L 365.604629 27.491772 
L 365.632815 27.408671 
L 365.773745 27.685016 
L 365.801931 27.66051 
L 365.830117 27.774015 
L 365.858303 27.747057 
L 365.999233 28.103267 
L 366.055605 28.235009 
L 366.083791 27.866459 
L 366.140163 27.635309 
L 366.168349 28.53079 
L 366.309279 26.713877 
L 366.478395 25.38228 
L 366.534767 25.093181 
L 366.562953 25.556651 
L 366.591139 25.140635 
L 366.675697 25.473196 
L 366.816627 25.979834 
L 366.844813 25.892789 
L 366.872999 25.925758 
L 366.929371 25.89611 
L 367.013929 26.223654 
L 367.042115 26.096569 
L 367.126673 26.143915 
L 367.267603 26.349139 
L 367.295789 26.247381 
L 367.352161 26.351351 
L 367.464905 26.613701 
L 367.493091 26.523996 
L 367.634021 26.907133 
L 367.662207 26.866026 
L 367.690393 27.000039 
L 367.718579 26.983042 
L 367.944067 27.437462 
L 368.366857 27.946959 
L 368.620531 28.291962 
L 368.676903 28.473249 
L 368.705089 27.809476 
L 368.733275 28.767052 
L 368.761461 27.108012 
L 368.789647 28.542506 
L 368.902391 24.819947 
L 368.930577 25.268295 
L 369.043321 23.024346 
L 369.099693 23.186641 
L 369.127879 22.749805 
L 369.156065 23.28249 
L 369.184251 22.976982 
L 369.494297 24.433657 
L 369.635227 24.746482 
L 369.663413 24.70329 
L 369.691599 24.638408 
L 369.719785 24.86067 
L 369.747971 24.595994 
L 369.804343 24.683027 
L 369.832529 24.677675 
L 369.888901 24.630796 
L 370.001645 24.937035 
L 370.029831 24.94672 
L 370.255319 25.629324 
L 370.283505 25.640022 
L 370.480807 26.224433 
L 370.678109 26.649055 
L 370.706295 26.618544 
L 370.734481 26.719834 
L 370.762667 26.697396 
L 370.959969 26.948875 
L 371.044527 26.975293 
L 371.185457 27.212113 
L 371.241829 27.311042 
L 371.270015 27.050442 
L 371.326387 26.913 
L 371.354573 27.638449 
L 371.495503 25.797666 
L 371.777363 23.855742 
L 371.861921 24.130912 
L 371.946479 24.621315 
L 372.002851 24.586902 
L 372.059223 24.493445 
L 372.087409 24.809177 
L 372.087409 24.809177 
" clip-path="url(#pf23a7767f3)" style="fill: none; stroke: #000000; stroke-width: 1.5; stroke-linecap: square"/>
   </g>
   <g id="line2d_25">
    <path d="M 298.12875 18.497159 
L 375.60925 18.497159 
" clip-path="url(#pf23a7767f3)" style="fill: none; stroke-dasharray: 5.55,2.4; stroke-dashoffset: 0; stroke: #000000; stroke-width: 1.5"/>
   </g>
   <g id="patch_9">
    <path d="M 298.12875 72.48625 
L 298.12875 15.92625 
" style="fill: none; stroke: #000000; stroke-width: 1.5; stroke-linejoin: miter; stroke-linecap: square"/>
   </g>
   <g id="patch_10">
    <path d="M 298.12875 72.48625 
L 375.60925 72.48625 
" style="fill: none; stroke: #000000; stroke-width: 1.5; stroke-linejoin: miter; stroke-linecap: square"/>
   </g>
   <g id="legend_3">
    <g id="line2d_26">
     <path d="M 310.87925 43.474375 
L 318.87925 43.474375 
L 326.87925 43.474375 
" style="fill: none; stroke-dasharray: 5.55,2.4; stroke-dashoffset: 0; stroke: #000000; stroke-width: 1.5"/>
    </g>
    <g id="text_27">
     <text style="font: 8px 'Arial', sans-serif, serif; text-anchor: start" x="333.27925" y="46.274375" transform="rotate(-0 333.27925 46.274375)">true value</text>
    </g>
   </g>
  </g>
 </g>
 <defs>
  <clipPath id="pf305fb3ebd">
   <rect x="30.88875" y="15.92625" width="77.4805" height="56.56"/>
  </clipPath>
  <clipPath id="p6691db4ece">
   <rect x="164.50875" y="15.92625" width="77.4805" height="56.56"/>
  </clipPath>
  <clipPath id="pf23a7767f3">
   <rect x="298.12875" y="15.92625" width="77.4805" height="56.56"/>
  </clipPath>
 </defs>
</svg>
