<?xml version="1.0" encoding="utf-8" standalone="no"?>
<!DOCTYPE svg PUBLIC "-//W3C//DTD SVG 1.1//EN"
  "http://www.w3.org/Graphics/SVG/1.1/DTD/svg11.dtd">
<svg xmlns:xlink="http://www.w3.org/1999/xlink" width="129.3175pt" height="105.54375pt" viewBox="0 0 129.3175 105.54375" xmlns="http://www.w3.org/2000/svg" version="1.1">
 <metadata>
  <rdf:RDF xmlns:dc="http://purl.org/dc/elements/1.1/" xmlns:cc="http://creativecommons.org/ns#" xmlns:rdf="http://www.w3.org/1999/02/22-rdf-syntax-ns#">
   <cc:Work>
    <dc:type rdf:resource="http://purl.org/dc/dcmitype/StillImage"/>
    <dc:date>2025-10-29T04:04:23.071022</dc:date>
    <dc:format>image/svg+xml</dc:format>
    <dc:creator>
     <cc:Agent>
      <dc:title>Matplotlib v3.9.2, https://matplotlib.org/</dc:title>
     </cc:Agent>
    </dc:creator>
   </cc:Work>
  </rdf:RDF>
 </metadata>
 <defs>
  <style type="text/css">*{stroke-linejoin: round; stroke-linecap: butt}</style>
 </defs>
 <g id="figure_1">
  <g id="patch_1">
   <path d="M 0 105.54375 
L 129.3175 105.54375 
L 129.3175 0 
L 0 0 
z
" style="fill: #ffffff"/>
  </g>
  <g id="axes_1">
   <g id="patch_2">
    <path d="M 39.2775 72.52 
L 122.1175 72.52 
L 122.1175 7.2 
L 39.2775 7.2 
z
" style="fill: #ffffff"/>
   </g>
   <g id="matplotlib.axis_1">
    <g id="xtick_1">
     <g id="line2d_1">
      <defs>
       <path id="m06078f5d11" d="M 0 0 
L 0 3.5 
" style="stroke: #000000; stroke-width: 1.5"/>
      </defs>
      <g>
       <use xlink:href="#m06078f5d11" x="43.042955" y="72.52" style="stroke: #000000; stroke-width: 1.5"/>
      </g>
     </g>
     <g id="text_1">
      <text style="font: 8px 'Arial', sans-serif, serif; text-anchor: middle" x="43.042955" y="85.24625" transform="rotate(-0 43.042955 85.24625)">0</text>
     </g>
    </g>
    <g id="xtick_2">
     <g id="line2d_2">
      <g>
       <use xlink:href="#m06078f5d11" x="93.207212" y="72.52" style="stroke: #000000; stroke-width: 1.5"/>
      </g>
     </g>
     <g id="text_2">
      <text style="font: 8px 'Arial', sans-serif, serif; text-anchor: middle" x="93.207212" y="85.24625" transform="rotate(-0 93.207212 85.24625)">20</text>
     </g>
    </g>
    <g id="text_3">
     <text style="font: 8px 'Arial', sans-serif, serif; text-anchor: middle" x="80.6975" y="96.66" transform="rotate(-0 80.6975 96.66)">Time (ms)</text>
    </g>
   </g>
   <g id="matplotlib.axis_2">
    <g id="ytick_1">
     <g id="line2d_3">
      <defs>
       <path id="ma47a93d8eb" d="M 0 0 
L -3.5 0 
" style="stroke: #000000; stroke-width: 1.5"/>
      </defs>
      <g>
       <use xlink:href="#ma47a93d8eb" x="39.2775" y="55.886009" style="stroke: #000000; stroke-width: 1.5"/>
      </g>
     </g>
     <g id="text_4">
      <text style="font: 8px 'Arial', sans-serif, serif; text-anchor: end" x="32.2775" y="58.749134" transform="rotate(-0 32.2775 58.749134)">−50</text>
     </g>
    </g>
    <g id="ytick_2">
     <g id="line2d_4">
      <g>
       <use xlink:href="#ma47a93d8eb" x="39.2775" y="32.9894" style="stroke: #000000; stroke-width: 1.5"/>
      </g>
     </g>
     <g id="text_5">
      <text style="font: 8px 'Arial', sans-serif, serif; text-anchor: end" x="32.2775" y="35.852525" transform="rotate(-0 32.2775 35.852525)">0</text>
     </g>
    </g>
    <g id="ytick_3">
     <g id="line2d_5">
      <g>
       <use xlink:href="#ma47a93d8eb" x="39.2775" y="10.092791" style="stroke: #000000; stroke-width: 1.5"/>
      </g>
     </g>
     <g id="text_6">
      <text style="font: 8px 'Arial', sans-serif, serif; text-anchor: end" x="32.2775" y="12.955916" transform="rotate(-0 32.2775 12.955916)">50</text>
     </g>
    </g>
    <g id="text_7">
     <text style="font: 8px 'Arial', sans-serif, serif; text-anchor: middle" x="13.02375" y="39.86" transform="rotate(-90 13.02375 39.86)">V (mV)</text>
    </g>
   </g>
   <g id="line2d_6">
    <path d="M 43.042955 65.044652 
L 44.924114 65.218245 
L 46.05281 65.064986 
L 47.306916 64.664384 
L 48.874549 63.916357 
L 50.003245 63.176766 
L 50.191361 62.724297 
L 50.316772 61.774474 
L 50.442182 59.239407 
L 50.567593 51.546384 
L 50.88112 10.894997 
L 51.069236 10.181624 
L 51.382762 10.238129 
L 51.94711 10.545768 
L 52.511458 11.126376 
L 53.075806 12.081026 
L 53.640154 13.521861 
L 54.267207 15.824493 
L 54.956966 19.334123 
L 55.772135 24.820728 
L 56.900831 34.219187 
L 59.032811 53.504314 
L 59.785275 67.101491 
L 60.098802 68.455713 
L 60.475034 69.10363 
L 60.913971 69.375221 
L 61.60373 69.482467 
L 63.359479 69.440903 
L 65.930397 69.173684 
L 68.375904 68.68555 
L 71.009528 67.941655 
L 73.204214 67.095757 
L 75.210784 66.087312 
L 76.025954 65.519475 
L 76.21407 65.098538 
L 76.402185 63.70811 
L 76.590301 58.859247 
L 76.715712 49.806523 
L 76.966533 12.513131 
L 77.154649 10.498591 
L 77.342765 10.498951 
L 77.844408 10.912026 
L 78.408756 11.676803 
L 78.973104 12.838509 
L 79.600157 14.71473 
L 80.22721 17.321806 
L 80.979674 21.505366 
L 81.857548 27.749374 
L 83.550592 41.913629 
L 84.741993 52.282997 
L 84.992815 58.26299 
L 85.369046 65.845102 
L 85.682573 68.055672 
L 85.9961 68.918157 
L 86.372332 69.321519 
L 86.873974 69.498629 
L 87.877259 69.549788 
L 90.322767 69.406034 
L 93.144506 69.022706 
L 95.464603 68.493383 
L 97.533879 67.788236 
L 99.477744 66.888701 
L 100.669145 66.157872 
L 100.857261 65.884024 
L 101.045377 65.103212 
L 101.170787 63.755007 
L 101.358903 58.085738 
L 101.484314 47.752853 
L 101.735135 12.320277 
L 101.923251 10.574652 
L 102.111367 10.595707 
L 102.61301 11.063293 
L 103.177358 11.906613 
L 103.741706 13.163321 
L 104.368759 15.1602 
L 105.058517 18.211021 
L 105.810981 22.627764 
L 106.751561 29.565123 
L 109.322479 50.984615 
L 109.510595 53.930556 
L 110.137648 66.756845 
L 110.451175 68.411636 
L 110.764702 69.067265 
L 111.140934 69.377597 
L 111.705281 69.521832 
L 112.959388 69.539747 
L 115.655717 69.336624 
L 118.352045 68.920992 
L 118.352045 68.920992 
" clip-path="url(#p48fafde856)" style="fill: none; stroke: #4682b4; stroke-width: 1.5; stroke-linecap: square"/>
   </g>
   <g id="line2d_7">
    <path d="M 43.042955 65.044652 
L 44.924114 65.082765 
L 46.115515 64.847896 
L 47.495032 64.328653 
L 49.188076 63.437775 
L 50.254066 62.708193 
L 50.442182 62.334458 
L 50.567593 61.607343 
L 50.693004 59.616545 
L 50.818414 53.706421 
L 50.943825 32.990239 
L 51.131941 11.852899 
L 51.320057 10.232908 
L 51.508173 10.201701 
L 52.009815 10.44075 
L 52.511458 10.902097 
L 53.013101 11.655673 
L 53.577449 12.956568 
L 54.141796 14.851547 
L 54.76885 17.771044 
L 55.521313 22.475005 
L 56.461893 29.958453 
L 58.970106 52.504142 
L 59.220927 58.160703 
L 59.597159 65.378014 
L 59.910686 67.68691 
L 60.224213 68.662379 
L 60.600445 69.152691 
L 61.102087 69.385801 
L 61.917256 69.467663 
L 63.861121 69.381435 
L 67.121798 69.000839 
L 69.567305 68.514298 
L 71.636581 67.880082 
L 73.705857 67.010902 
L 75.775132 65.900142 
L 77.091944 64.988338 
L 77.28006 64.632321 
L 77.468176 63.551096 
L 77.656292 59.900735 
L 77.781703 52.726802 
L 78.22064 10.650548 
L 78.408756 10.484745 
L 78.784988 10.771239 
L 79.349336 11.504848 
L 79.913683 12.653913 
L 80.478031 14.324702 
L 81.105085 16.907896 
L 81.794843 20.719233 
L 82.672718 26.969687 
L 84.11494 39.250711 
L 85.619868 52.773475 
L 86.435037 67.432325 
L 86.748564 68.61451 
L 87.124795 69.17495 
L 87.563733 69.409638 
L 88.316197 69.507078 
L 90.134651 69.451445 
L 93.458033 69.136924 
L 95.77813 68.700841 
L 97.847405 68.084966 
L 99.853976 67.254398 
L 101.860546 66.185578 
L 103.177358 65.28914 
L 103.365474 64.988543 
L 103.55359 64.139271 
L 103.741706 61.356599 
L 103.867116 56.27606 
L 103.992527 42.839157 
L 104.243348 12.086112 
L 104.431464 10.558486 
L 104.61958 10.576868 
L 105.058517 10.999075 
L 105.622865 11.87453 
L 106.187213 13.203118 
L 106.814266 15.335409 
L 107.504025 18.604372 
L 108.256489 23.320899 
L 109.259774 31.169082 
L 111.705281 52.817787 
L 112.520451 67.45827 
L 112.833977 68.625596 
L 113.210209 69.178919 
L 113.649146 69.410565 
L 114.40161 69.506477 
L 116.28277 69.445836 
L 118.352045 69.276678 
L 118.352045 69.276678 
" clip-path="url(#p48fafde856)" style="fill: none; stroke: #008000; stroke-width: 1.5; stroke-linecap: square"/>
   </g>
   <g id="line2d_8">
    <path d="M 43.042955 65.044652 
L 44.924114 65.032684 
L 46.05281 64.780517 
L 47.369622 64.254012 
L 48.99996 63.354957 
L 50.003245 62.632391 
L 50.191361 62.189969 
L 50.316772 61.247645 
L 50.442182 58.643357 
L 50.567593 50.527017 
L 50.818414 12.081475 
L 51.00653 10.211522 
L 51.194646 10.178657 
L 51.758994 10.419633 
L 52.323342 10.914143 
L 52.88769 11.756983 
L 53.452038 13.059837 
L 54.016386 14.935339 
L 54.643439 17.802863 
L 55.395903 22.403028 
L 56.336483 29.719715 
L 58.907401 52.339984 
L 59.158222 57.775434 
L 59.534454 65.292402 
L 59.847981 67.687168 
L 60.161507 68.675843 
L 60.537739 69.159864 
L 60.976676 69.363847 
L 61.72914 69.437197 
L 63.735711 69.335989 
L 66.181218 69.007613 
L 68.501315 68.458739 
L 71.134938 67.606015 
L 73.329625 66.667694 
L 75.336195 65.570761 
L 76.025954 65.056312 
L 76.21407 64.642178 
L 76.402185 63.26019 
L 76.590301 58.265519 
L 76.715712 48.604243 
L 76.966533 12.314237 
L 77.154649 10.490319 
L 77.342765 10.499563 
L 77.844408 10.923565 
L 78.408756 11.70754 
L 78.973104 12.897846 
L 79.600157 14.817998 
L 80.22721 17.480928 
L 80.979674 21.74123 
L 81.920254 28.568098 
L 84.491172 49.9589 
L 84.741993 53.099492 
L 85.494457 67.277258 
L 85.807984 68.580955 
L 86.12151 69.111961 
L 86.560448 69.391212 
L 87.250206 69.497496 
L 88.880544 69.45035 
L 91.514168 69.159574 
L 94.085086 68.656387 
L 96.217067 68.019002 
L 98.223637 67.183019 
L 100.104797 66.156698 
L 100.794555 65.605657 
L 100.982671 65.093766 
L 101.170787 63.451447 
L 101.358903 57.883658 
L 101.484314 47.441897 
L 101.735135 12.342454 
L 101.923251 10.57469 
L 102.111367 10.592935 
L 102.61301 11.068338 
L 103.177358 11.927354 
L 103.741706 13.20799 
L 104.368759 15.242031 
L 105.058517 18.345482 
L 105.810981 22.827651 
L 106.814266 30.349475 
L 109.322479 51.479558 
L 109.510595 54.90776 
L 110.012238 65.908424 
L 110.325764 68.060498 
L 110.639291 68.899504 
L 111.015523 69.290427 
L 111.517165 69.459504 
L 112.520451 69.499944 
L 114.903253 69.330957 
L 117.536876 68.92577 
L 118.352045 68.753534 
L 118.352045 68.753534 
" clip-path="url(#p48fafde856)" style="fill: none; stroke-dasharray: 7.4,3.2; stroke-dashoffset: 0; stroke: #000000; stroke-width: 2"/>
   </g>
   <g id="patch_3">
    <path d="M 39.2775 72.52 
L 39.2775 7.2 
" style="fill: none; stroke: #000000; stroke-width: 1.5; stroke-linejoin: miter; stroke-linecap: square"/>
   </g>
   <g id="patch_4">
    <path d="M 39.2775 72.52 
L 122.1175 72.52 
" style="fill: none; stroke: #000000; stroke-width: 1.5; stroke-linejoin: miter; stroke-linecap: square"/>
   </g>
   <g id="legend_1">
    <g id="line2d_9">
     <path d="M 47.45625 17.32625 
L 55.45625 17.32625 
L 63.45625 17.32625 
" style="fill: none; stroke: #4682b4; stroke-width: 1.5; stroke-linecap: square"/>
    </g>
    <g id="text_8">
     <text style="font: 8px 'Arial', sans-serif, serif; text-anchor: start" x="69.85625" y="20.12625" transform="rotate(-0 69.85625 20.12625)">Inferred</text>
    </g>
    <g id="line2d_10">
     <path d="M 47.45625 28.6425 
L 55.45625 28.6425 
L 63.45625 28.6425 
" style="fill: none; stroke: #008000; stroke-width: 1.5; stroke-linecap: square"/>
    </g>
    <g id="text_9">
     <text style="font: 8px 'Arial', sans-serif, serif; text-anchor: start" x="69.85625" y="31.4425" transform="rotate(-0 69.85625 31.4425)">Initial guess</text>
    </g>
    <g id="line2d_11">
     <path d="M 47.45625 40.0525 
L 55.45625 40.0525 
L 63.45625 40.0525 
" style="fill: none; stroke-dasharray: 7.4,3.2; stroke-dashoffset: 0; stroke: #000000; stroke-width: 2"/>
    </g>
    <g id="text_10">
     <text style="font: 8px 'Arial', sans-serif, serif; text-anchor: start" x="69.85625" y="42.8525" transform="rotate(-0 69.85625 42.8525)">True Voltage</text>
    </g>
   </g>
  </g>
 </g>
 <defs>
  <clipPath id="p48fafde856">
   <rect x="39.2775" y="7.2" width="82.84" height="65.32"/>
  </clipPath>
 </defs>
</svg>
