<?xml version="1.0" encoding="utf-8" standalone="no"?>
<!DOCTYPE svg PUBLIC "-//W3C//DTD SVG 1.1//EN"
  "http://www.w3.org/Graphics/SVG/1.1/DTD/svg11.dtd">
<svg xmlns:xlink="http://www.w3.org/1999/xlink" width="368.84625pt" height="218.07875pt" viewBox="0 0 368.84625 218.07875" xmlns="http://www.w3.org/2000/svg" version="1.1">
 <metadata>
  <rdf:RDF xmlns:dc="http://purl.org/dc/elements/1.1/" xmlns:cc="http://creativecommons.org/ns#" xmlns:rdf="http://www.w3.org/1999/02/22-rdf-syntax-ns#">
   <cc:Work>
    <dc:type rdf:resource="http://purl.org/dc/dcmitype/StillImage"/>
    <dc:date>2025-10-24T02:22:45.084034</dc:date>
    <dc:format>image/svg+xml</dc:format>
    <dc:creator>
     <cc:Agent>
      <dc:title>Matplotlib v3.9.2, https://matplotlib.org/</dc:title>
     </cc:Agent>
    </dc:creator>
   </cc:Work>
  </rdf:RDF>
 </metadata>
 <defs>
  <style type="text/css">*{stroke-linejoin: round; stroke-linecap: butt}</style>
 </defs>
 <g id="figure_1">
  <g id="patch_1">
   <path d="M 0 218.07875 
L 368.84625 218.07875 
L 368.84625 0 
L 0 0 
z
" style="fill: #ffffff"/>
  </g>
  <g id="axes_1">
   <g id="patch_2">
    <path d="M 54.74625 67.843897 
L 194.24625 67.843897 
L 194.24625 18.92625 
L 54.74625 18.92625 
z
" style="fill: #ffffff"/>
   </g>
   <g id="matplotlib.axis_1">
    <g id="xtick_1">
     <g id="line2d_1">
      <defs>
       <path id="mb51260d162" d="M 0 0 
L 0 3.5 
" style="stroke: #000000; stroke-width: 1.5"/>
      </defs>
      <g>
       <use xlink:href="#mb51260d162" x="61.087159" y="67.843897" style="stroke: #000000; stroke-width: 1.5"/>
      </g>
     </g>
    </g>
    <g id="xtick_2">
     <g id="line2d_2">
      <g>
       <use xlink:href="#mb51260d162" x="97.331281" y="67.843897" style="stroke: #000000; stroke-width: 1.5"/>
      </g>
     </g>
    </g>
    <g id="xtick_3">
     <g id="line2d_3">
      <g>
       <use xlink:href="#mb51260d162" x="133.575402" y="67.843897" style="stroke: #000000; stroke-width: 1.5"/>
      </g>
     </g>
    </g>
    <g id="xtick_4">
     <g id="line2d_4">
      <g>
       <use xlink:href="#mb51260d162" x="169.819524" y="67.843897" style="stroke: #000000; stroke-width: 1.5"/>
      </g>
     </g>
    </g>
   </g>
   <g id="matplotlib.axis_2">
    <g id="ytick_1">
     <g id="line2d_5">
      <defs>
       <path id="mf805cabe68" d="M 0 0 
L -3.5 0 
" style="stroke: #000000; stroke-width: 1.5"/>
      </defs>
      <g>
       <use xlink:href="#mf805cabe68" x="54.74625" y="62.073045" style="stroke: #000000; stroke-width: 1.5"/>
      </g>
     </g>
     <g id="text_1">
      <text style="font: 8px 'Arial', sans-serif, serif; text-anchor: end" x="47.74625" y="64.93617" transform="rotate(-0 47.74625 64.93617)">0.0001</text>
     </g>
    </g>
    <g id="ytick_2">
     <g id="line2d_6">
      <g>
       <use xlink:href="#mf805cabe68" x="54.74625" y="39.755068" style="stroke: #000000; stroke-width: 1.5"/>
      </g>
     </g>
     <g id="text_2">
      <text style="font: 8px 'Arial', sans-serif, serif; text-anchor: end" x="47.74625" y="42.618193" transform="rotate(-0 47.74625 42.618193)">0.0002</text>
     </g>
    </g>
    <g id="text_3">
     <!-- $g_L ~(S/cm^2)$ -->
     <g transform="translate(16.88 62.345074) rotate(-90)">
      <text>
       <tspan style="font: 8px 'Arial'" x="0 10.69894 13.363002 18.69894 20.921596 24.921596 35.237749" y="-0.39949999999999974">g(S/cm)</tspan>
       <tspan style="font: 5.6px 'Arial'" x="4.588606 31.725046" y="1.9900000000000002 -5.975">L2</tspan>
      </text>
     </g>
    </g>
   </g>
   <g id="line2d_7">
    <path d="M 61.087159 33.368257 
L 61.304624 28.616115 
L 61.413356 26.773491 
L 61.630821 21.867727 
L 61.667065 22.320618 
L 61.703309 23.258786 
L 61.739553 22.534979 
L 61.848286 21.149779 
L 61.88453 21.618811 
L 62.319459 27.122404 
L 62.536924 27.682605 
L 62.6819 27.67331 
L 62.863121 27.335751 
L 63.443027 25.476622 
L 63.805468 23.827275 
L 64.131665 22.20148 
L 64.240398 22.307718 
L 64.530351 22.764584 
L 65.001524 22.58209 
L 65.363965 22.898065 
L 65.726407 23.010656 
L 66.088848 23.335165 
L 66.125092 23.27353 
L 66.233824 23.242638 
L 66.378801 23.650711 
L 66.668754 24.348127 
L 67.031195 24.335013 
L 67.466125 24.787761 
L 67.719833 24.923898 
L 68.517204 25.612636 
L 70.836828 27.703475 
L 76.780864 33.0497 
L 80.44152 36.019544 
L 83.9572 38.587365 
L 87.436636 40.85263 
L 90.952315 42.877177 
L 92.003395 43.533867 
L 92.365836 44.116884 
L 92.547057 44.184 
L 92.83701 44.336726 
L 93.054474 44.43671 
L 93.344427 44.551987 
L 93.706869 44.71921 
L 95.591563 45.517061 
L 101.028181 47.705247 
L 108.675691 50.46587 
L 120.201322 54.461416 
L 125.492963 56.015606 
L 130.712117 57.31514 
L 136.257467 58.46164 
L 142.237748 59.466881 
L 148.870422 60.350947 
L 156.15549 61.097054 
L 164.600371 61.730716 
L 174.277551 62.225559 
L 185.694449 62.580857 
L 185.766938 62.62364 
L 186.093135 63.155818 
L 186.165623 63.130433 
L 186.3106 63.061874 
L 187.071726 63.12019 
L 187.72412 63.112135 
L 187.905341 63.087406 
L 187.905341 63.087406 
" clip-path="url(#p596632a5a3)" style="fill: none; stroke: #1f77b4; stroke-width: 0.8; stroke-linecap: square"/>
   </g>
   <g id="line2d_8">
    <path d="M 54.74625 62.073045 
L 194.24625 62.073045 
" clip-path="url(#p596632a5a3)" style="fill: none; stroke-dasharray: 4.44,1.92; stroke-dashoffset: 0; stroke: #000000; stroke-width: 1.2"/>
   </g>
   <g id="patch_3">
    <path d="M 54.74625 67.843897 
L 54.74625 18.92625 
" style="fill: none; stroke: #000000; stroke-width: 1.5; stroke-linejoin: miter; stroke-linecap: square"/>
   </g>
   <g id="patch_4">
    <path d="M 54.74625 67.843897 
L 194.24625 67.843897 
" style="fill: none; stroke: #000000; stroke-width: 1.5; stroke-linejoin: miter; stroke-linecap: square"/>
   </g>
   <g id="text_4">
    <text style="font: 8px 'Arial', sans-serif, serif; text-anchor: middle" x="124.49625" y="12.92625" transform="rotate(-0 124.49625 12.92625)">Branch 1</text>
   </g>
   <g id="legend_1">
    <g id="line2d_9">
     <path d="M 127.1525 29.0525 
L 135.1525 29.0525 
L 143.1525 29.0525 
" style="fill: none; stroke-dasharray: 4.44,1.92; stroke-dashoffset: 0; stroke: #000000; stroke-width: 1.2"/>
    </g>
    <g id="text_5">
     <text style="font: 8px 'Arial', sans-serif, serif; text-anchor: start" x="149.5525" y="31.8525" transform="rotate(-0 149.5525 31.8525)">True value</text>
    </g>
   </g>
  </g>
  <g id="axes_2">
   <g id="patch_5">
    <path d="M 222.14625 67.843897 
L 361.64625 67.843897 
L 361.64625 18.92625 
L 222.14625 18.92625 
z
" style="fill: #ffffff"/>
   </g>
   <g id="matplotlib.axis_3">
    <g id="xtick_5">
     <g id="line2d_10">
      <g>
       <use xlink:href="#mb51260d162" x="228.487159" y="67.843897" style="stroke: #000000; stroke-width: 1.5"/>
      </g>
     </g>
    </g>
    <g id="xtick_6">
     <g id="line2d_11">
      <g>
       <use xlink:href="#mb51260d162" x="264.731281" y="67.843897" style="stroke: #000000; stroke-width: 1.5"/>
      </g>
     </g>
    </g>
    <g id="xtick_7">
     <g id="line2d_12">
      <g>
       <use xlink:href="#mb51260d162" x="300.975402" y="67.843897" style="stroke: #000000; stroke-width: 1.5"/>
      </g>
     </g>
    </g>
    <g id="xtick_8">
     <g id="line2d_13">
      <g>
       <use xlink:href="#mb51260d162" x="337.219524" y="67.843897" style="stroke: #000000; stroke-width: 1.5"/>
      </g>
     </g>
    </g>
   </g>
   <g id="matplotlib.axis_4">
    <g id="ytick_3">
     <g id="line2d_14">
      <g>
       <use xlink:href="#mf805cabe68" x="222.14625" y="62.073045" style="stroke: #000000; stroke-width: 1.5"/>
      </g>
     </g>
    </g>
    <g id="ytick_4">
     <g id="line2d_15">
      <g>
       <use xlink:href="#mf805cabe68" x="222.14625" y="39.755068" style="stroke: #000000; stroke-width: 1.5"/>
      </g>
     </g>
    </g>
   </g>
   <g id="line2d_16">
    <path d="M 228.487159 57.28207 
L 228.559647 56.262203 
L 228.595891 56.594345 
L 228.922089 59.914691 
L 229.067065 60.144772 
L 229.646971 65.093519 
L 229.755703 65.103876 
L 229.90068 64.796535 
L 230.118145 63.45951 
L 231.676642 53.533462 
L 231.712886 53.548438 
L 231.930351 53.546024 
L 232.474012 52.978471 
L 232.691477 52.91907 
L 233.090163 52.628515 
L 233.488848 52.915469 
L 233.633824 52.393392 
L 233.670068 52.401602 
L 233.815045 52.845845 
L 234.03251 53.319118 
L 234.177486 53.096151 
L 234.394951 52.845877 
L 234.902369 53.071822 
L 235.083589 53.066087 
L 235.699739 53.368294 
L 238.708001 54.486008 
L 242.114949 55.198594 
L 252.444524 57.070454 
L 259.222174 58.123791 
L 259.403395 56.289682 
L 259.439639 56.330626 
L 259.657104 57.66586 
L 259.729592 57.482321 
L 259.910813 56.8413 
L 259.947057 56.854667 
L 260.41823 57.722123 
L 260.599451 58.166516 
L 260.635695 58.153231 
L 260.925648 57.953133 
L 261.251845 58.123716 
L 261.795507 58.273729 
L 262.230436 58.471232 
L 271.110246 59.576969 
L 279.808835 60.322594 
L 287.383857 60.749281 
L 295.864981 61.039315 
L 310.326386 61.31008 
L 332.181591 61.490869 
L 353.130694 61.555394 
L 353.348158 65.620368 
L 353.384402 65.551541 
L 353.493135 65.384385 
L 353.601867 63.688578 
L 353.819332 60.397623 
L 354.036797 63.744788 
L 354.145529 64.033069 
L 354.181773 63.970051 
L 354.32675 63.284727 
L 354.50797 61.763971 
L 354.580458 62.03774 
L 354.797923 62.711579 
L 354.906656 62.455393 
L 355.232853 61.496369 
L 355.305341 61.509269 
L 355.305341 61.509269 
" clip-path="url(#pe7847911d7)" style="fill: none; stroke: #1f77b4; stroke-width: 0.8; stroke-linecap: square"/>
   </g>
   <g id="line2d_17">
    <path d="M 222.14625 62.073045 
L 361.64625 62.073045 
" clip-path="url(#pe7847911d7)" style="fill: none; stroke-dasharray: 4.44,1.92; stroke-dashoffset: 0; stroke: #000000; stroke-width: 1.2"/>
   </g>
   <g id="patch_6">
    <path d="M 222.14625 67.843897 
L 222.14625 18.92625 
" style="fill: none; stroke: #000000; stroke-width: 1.5; stroke-linejoin: miter; stroke-linecap: square"/>
   </g>
   <g id="patch_7">
    <path d="M 222.14625 67.843897 
L 361.64625 67.843897 
" style="fill: none; stroke: #000000; stroke-width: 1.5; stroke-linejoin: miter; stroke-linecap: square"/>
   </g>
   <g id="text_6">
    <text style="font: 8px 'Arial', sans-serif, serif; text-anchor: middle" x="291.89625" y="12.92625" transform="rotate(-0 291.89625 12.92625)">Branch 2</text>
   </g>
   <g id="legend_2">
    <g id="line2d_18">
     <path d="M 294.5525 29.0525 
L 302.5525 29.0525 
L 310.5525 29.0525 
" style="fill: none; stroke-dasharray: 4.44,1.92; stroke-dashoffset: 0; stroke: #000000; stroke-width: 1.2"/>
    </g>
    <g id="text_7">
     <text style="font: 8px 'Arial', sans-serif, serif; text-anchor: start" x="316.9525" y="31.8525" transform="rotate(-0 316.9525 31.8525)">True value</text>
    </g>
   </g>
  </g>
  <g id="axes_3">
   <g id="patch_8">
    <path d="M 54.74625 126.545074 
L 194.24625 126.545074 
L 194.24625 77.627426 
L 54.74625 77.627426 
z
" style="fill: #ffffff"/>
   </g>
   <g id="matplotlib.axis_5">
    <g id="xtick_9">
     <g id="line2d_19">
      <g>
       <use xlink:href="#mb51260d162" x="61.087159" y="126.545074" style="stroke: #000000; stroke-width: 1.5"/>
      </g>
     </g>
    </g>
    <g id="xtick_10">
     <g id="line2d_20">
      <g>
       <use xlink:href="#mb51260d162" x="97.331281" y="126.545074" style="stroke: #000000; stroke-width: 1.5"/>
      </g>
     </g>
    </g>
    <g id="xtick_11">
     <g id="line2d_21">
      <g>
       <use xlink:href="#mb51260d162" x="133.575402" y="126.545074" style="stroke: #000000; stroke-width: 1.5"/>
      </g>
     </g>
    </g>
    <g id="xtick_12">
     <g id="line2d_22">
      <g>
       <use xlink:href="#mb51260d162" x="169.819524" y="126.545074" style="stroke: #000000; stroke-width: 1.5"/>
      </g>
     </g>
    </g>
   </g>
   <g id="matplotlib.axis_6">
    <g id="ytick_5">
     <g id="line2d_23">
      <g>
       <use xlink:href="#mf805cabe68" x="54.74625" y="118.462742" style="stroke: #000000; stroke-width: 1.5"/>
      </g>
     </g>
     <g id="text_8">
      <text style="font: 8px 'Arial', sans-serif, serif; text-anchor: end" x="47.74625" y="121.325867" transform="rotate(-0 47.74625 121.325867)">0.03</text>
     </g>
    </g>
    <g id="ytick_6">
     <g id="line2d_24">
      <g>
       <use xlink:href="#mf805cabe68" x="54.74625" y="96.51464" style="stroke: #000000; stroke-width: 1.5"/>
      </g>
     </g>
     <g id="text_9">
      <text style="font: 8px 'Arial', sans-serif, serif; text-anchor: end" x="47.74625" y="99.377765" transform="rotate(-0 47.74625 99.377765)">0.04</text>
     </g>
    </g>
    <g id="text_10">
     <!-- $g_K ~(S/cm^2)$ -->
     <g transform="translate(25.7775 121.36625) rotate(-90)">
      <text>
       <tspan style="font: 8px 'Arial'" x="0 11.319643 13.983705 19.319643 21.542299 25.542299 35.858452" y="-0.39949999999999974">g(S/cm)</tspan>
       <tspan style="font: 5.6px 'Arial'" x="4.588606 32.345749" y="1.9900000000000002 -5.975">K2</tspan>
      </text>
     </g>
    </g>
   </g>
   <g id="line2d_25">
    <path d="M 61.087159 120.749909 
L 61.594577 99.263655 
L 61.667065 100.299257 
L 61.703309 101.426663 
L 61.775797 100.690608 
L 61.848286 101.27819 
L 61.993262 105.404019 
L 62.536924 123.590448 
L 62.6819 124.321544 
L 62.754389 124.18471 
L 62.935609 122.935624 
L 63.370539 119.787848 
L 63.515515 119.690088 
L 63.805468 119.739473 
L 64.059177 119.279127 
L 64.131665 119.367075 
L 64.421618 120.012705 
L 64.457862 119.9633 
L 64.602839 119.372157 
L 64.929036 118.019825 
L 65.074012 118.078273 
L 65.327721 118.215553 
L 65.653918 117.828941 
L 66.125092 117.344768 
L 66.233824 117.12584 
L 66.270068 117.170785 
L 66.451289 117.94912 
L 66.596266 118.320357 
L 66.63251 118.299536 
L 66.81373 117.775042 
L 66.994951 117.469016 
L 67.393636 117.588447 
L 67.756077 117.09867 
L 68.082275 116.955041 
L 68.517204 116.646651 
L 68.952133 116.383497 
L 69.894481 115.985151 
L 71.779175 115.417352 
L 75.331099 114.673128 
L 85.950627 112.708607 
L 91.858418 111.769559 
L 91.967151 112.149127 
L 92.184616 113.11286 
L 92.22086 112.952645 
L 92.438324 111.129264 
L 92.510813 111.403031 
L 92.728277 112.898559 
L 92.764521 112.842707 
L 93.01823 111.910657 
L 93.090719 111.984424 
L 93.235695 112.082956 
L 93.271939 112.052851 
L 93.489404 111.966338 
L 93.63438 111.989869 
L 94.06931 111.608199 
L 94.25053 111.594021 
L 94.612972 111.453348 
L 96.062737 111.165738 
L 98.672313 110.834851 
L 105.631185 110.15827 
L 116.576909 109.357925 
L 127.667611 108.790538 
L 140.643006 108.368616 
L 156.807884 108.067279 
L 179.786658 107.872306 
L 185.730694 107.846257 
L 185.766938 107.244284 
L 185.803182 107.956465 
L 185.911914 112.875625 
L 185.948158 112.044348 
L 186.020647 109.954157 
L 186.056891 110.27578 
L 186.093135 110.978305 
L 186.129379 110.966024 
L 186.238111 108.320016 
L 186.3106 108.575321 
L 186.346844 108.444819 
L 186.419332 106.898083 
L 186.528064 107.034423 
L 186.564308 106.967582 
L 186.673041 108.220682 
L 186.709285 108.554717 
L 186.745529 108.452799 
L 186.890506 106.534826 
L 186.962994 106.622746 
L 186.999238 106.598683 
L 187.10797 106.185845 
L 187.144214 106.425607 
L 187.216703 106.848674 
L 187.289191 106.700969 
L 187.325435 106.65362 
L 187.361679 106.768137 
L 187.506656 107.484267 
L 187.5429 107.370363 
L 187.651632 107.112736 
L 187.687876 107.174671 
L 187.796609 107.255993 
L 187.832853 107.233099 
L 187.905341 107.35482 
L 187.905341 107.35482 
" clip-path="url(#p3947fc71eb)" style="fill: none; stroke: #1f77b4; stroke-width: 0.8; stroke-linecap: square"/>
   </g>
   <g id="line2d_26">
    <path d="M 54.74625 107.488691 
L 194.24625 107.488691 
" clip-path="url(#p3947fc71eb)" style="fill: none; stroke-dasharray: 4.44,1.92; stroke-dashoffset: 0; stroke: #000000; stroke-width: 1.2"/>
   </g>
   <g id="patch_9">
    <path d="M 54.74625 126.545074 
L 54.74625 77.627426 
" style="fill: none; stroke: #000000; stroke-width: 1.5; stroke-linejoin: miter; stroke-linecap: square"/>
   </g>
   <g id="patch_10">
    <path d="M 54.74625 126.545074 
L 194.24625 126.545074 
" style="fill: none; stroke: #000000; stroke-width: 1.5; stroke-linejoin: miter; stroke-linecap: square"/>
   </g>
   <g id="legend_3">
    <g id="line2d_27">
     <path d="M 127.1525 87.753676 
L 135.1525 87.753676 
L 143.1525 87.753676 
" style="fill: none; stroke-dasharray: 4.44,1.92; stroke-dashoffset: 0; stroke: #000000; stroke-width: 1.2"/>
    </g>
    <g id="text_11">
     <text style="font: 8px 'Arial', sans-serif, serif; text-anchor: start" x="149.5525" y="90.553676" transform="rotate(-0 149.5525 90.553676)">True value</text>
    </g>
   </g>
  </g>
  <g id="axes_4">
   <g id="patch_11">
    <path d="M 222.14625 126.545074 
L 361.64625 126.545074 
L 361.64625 77.627426 
L 222.14625 77.627426 
z
" style="fill: #ffffff"/>
   </g>
   <g id="matplotlib.axis_7">
    <g id="xtick_13">
     <g id="line2d_28">
      <g>
       <use xlink:href="#mb51260d162" x="228.487159" y="126.545074" style="stroke: #000000; stroke-width: 1.5"/>
      </g>
     </g>
    </g>
    <g id="xtick_14">
     <g id="line2d_29">
      <g>
       <use xlink:href="#mb51260d162" x="264.731281" y="126.545074" style="stroke: #000000; stroke-width: 1.5"/>
      </g>
     </g>
    </g>
    <g id="xtick_15">
     <g id="line2d_30">
      <g>
       <use xlink:href="#mb51260d162" x="300.975402" y="126.545074" style="stroke: #000000; stroke-width: 1.5"/>
      </g>
     </g>
    </g>
    <g id="xtick_16">
     <g id="line2d_31">
      <g>
       <use xlink:href="#mb51260d162" x="337.219524" y="126.545074" style="stroke: #000000; stroke-width: 1.5"/>
      </g>
     </g>
    </g>
   </g>
   <g id="matplotlib.axis_8">
    <g id="ytick_7">
     <g id="line2d_32">
      <g>
       <use xlink:href="#mf805cabe68" x="222.14625" y="118.462742" style="stroke: #000000; stroke-width: 1.5"/>
      </g>
     </g>
    </g>
    <g id="ytick_8">
     <g id="line2d_33">
      <g>
       <use xlink:href="#mf805cabe68" x="222.14625" y="96.51464" style="stroke: #000000; stroke-width: 1.5"/>
      </g>
     </g>
    </g>
   </g>
   <g id="line2d_34">
    <path d="M 228.487159 79.850956 
L 228.922089 107.102368 
L 229.46575 118.391552 
L 229.646971 119.320728 
L 229.755703 119.316681 
L 230.118145 119.079923 
L 230.335609 119.459615 
L 230.661806 119.919732 
L 230.806783 119.785146 
L 231.060492 119.108986 
L 231.676642 117.365618 
L 231.966595 117.255168 
L 232.329036 117.1409 
L 232.836454 116.6302 
L 233.343871 116.290487 
L 233.525092 116.270124 
L 233.887533 116.59884 
L 234.177486 116.573526 
L 234.82988 116.137696 
L 236.207157 115.286122 
L 237.511945 114.748554 
L 239.287907 114.28127 
L 243.057296 113.585058 
L 255.0541 111.621494 
L 259.403395 111.079846 
L 259.548371 111.454223 
L 259.80208 111.997277 
L 259.947057 111.728775 
L 260.200766 111.377202 
L 260.599451 111.460404 
L 261.106869 111.068588 
L 261.46931 110.92336 
L 261.904239 110.77989 
L 266.144802 110.137274 
L 273.538602 109.437717 
L 282.889586 108.778691 
L 293.436625 108.299461 
L 306.412021 107.947618 
L 325.258964 107.6761 
L 353.130694 107.526833 
L 353.311914 109.386296 
L 353.420647 109.942187 
L 353.456891 109.848388 
L 353.674355 107.834409 
L 353.819332 106.809141 
L 353.964308 107.347069 
L 354.000553 107.264856 
L 354.145529 106.73329 
L 354.181773 106.755219 
L 354.254261 106.813875 
L 354.290506 106.745587 
L 354.50797 105.916518 
L 354.544214 105.954251 
L 354.979144 106.910593 
L 355.305341 107.198105 
L 355.305341 107.198105 
" clip-path="url(#p5466f82478)" style="fill: none; stroke: #1f77b4; stroke-width: 0.8; stroke-linecap: square"/>
   </g>
   <g id="line2d_35">
    <path d="M 222.14625 107.488691 
L 361.64625 107.488691 
" clip-path="url(#p5466f82478)" style="fill: none; stroke-dasharray: 4.44,1.92; stroke-dashoffset: 0; stroke: #000000; stroke-width: 1.2"/>
   </g>
   <g id="patch_12">
    <path d="M 222.14625 126.545074 
L 222.14625 77.627426 
" style="fill: none; stroke: #000000; stroke-width: 1.5; stroke-linejoin: miter; stroke-linecap: square"/>
   </g>
   <g id="patch_13">
    <path d="M 222.14625 126.545074 
L 361.64625 126.545074 
" style="fill: none; stroke: #000000; stroke-width: 1.5; stroke-linejoin: miter; stroke-linecap: square"/>
   </g>
   <g id="legend_4">
    <g id="line2d_36">
     <path d="M 294.5525 87.753676 
L 302.5525 87.753676 
L 310.5525 87.753676 
" style="fill: none; stroke-dasharray: 4.44,1.92; stroke-dashoffset: 0; stroke: #000000; stroke-width: 1.2"/>
    </g>
    <g id="text_12">
     <text style="font: 8px 'Arial', sans-serif, serif; text-anchor: start" x="316.9525" y="90.553676" transform="rotate(-0 316.9525 90.553676)">True value</text>
    </g>
   </g>
  </g>
  <g id="axes_5">
   <g id="patch_14">
    <path d="M 54.74625 185.24625 
L 194.24625 185.24625 
L 194.24625 136.328603 
L 54.74625 136.328603 
z
" style="fill: #ffffff"/>
   </g>
   <g id="matplotlib.axis_9">
    <g id="xtick_17">
     <g id="line2d_37">
      <g>
       <use xlink:href="#mb51260d162" x="61.087159" y="185.24625" style="stroke: #000000; stroke-width: 1.5"/>
      </g>
     </g>
     <g id="text_13">
      <text style="font: 8px 'Arial', sans-serif, serif; text-anchor: middle" x="61.087159" y="197.9725" transform="rotate(-0 61.087159 197.9725)">0</text>
     </g>
    </g>
    <g id="xtick_18">
     <g id="line2d_38">
      <g>
       <use xlink:href="#mb51260d162" x="97.331281" y="185.24625" style="stroke: #000000; stroke-width: 1.5"/>
      </g>
     </g>
     <g id="text_14">
      <text style="font: 8px 'Arial', sans-serif, serif; text-anchor: middle" x="97.331281" y="197.9725" transform="rotate(-0 97.331281 197.9725)">1000</text>
     </g>
    </g>
    <g id="xtick_19">
     <g id="line2d_39">
      <g>
       <use xlink:href="#mb51260d162" x="133.575402" y="185.24625" style="stroke: #000000; stroke-width: 1.5"/>
      </g>
     </g>
     <g id="text_15">
      <text style="font: 8px 'Arial', sans-serif, serif; text-anchor: middle" x="133.575402" y="197.9725" transform="rotate(-0 133.575402 197.9725)">2000</text>
     </g>
    </g>
    <g id="xtick_20">
     <g id="line2d_40">
      <g>
       <use xlink:href="#mb51260d162" x="169.819524" y="185.24625" style="stroke: #000000; stroke-width: 1.5"/>
      </g>
     </g>
     <g id="text_16">
      <text style="font: 8px 'Arial', sans-serif, serif; text-anchor: middle" x="169.819524" y="197.9725" transform="rotate(-0 169.819524 197.9725)">3000</text>
     </g>
    </g>
    <g id="text_17">
     <text style="font: 8px 'Arial', sans-serif, serif; text-anchor: middle" x="124.49625" y="209.28875" transform="rotate(-0 124.49625 209.28875)">Iteration</text>
    </g>
   </g>
   <g id="matplotlib.axis_10">
    <g id="ytick_9">
     <g id="line2d_41">
      <g>
       <use xlink:href="#mf805cabe68" x="54.74625" y="181.482837" style="stroke: #000000; stroke-width: 1.5"/>
      </g>
     </g>
     <g id="text_18">
      <text style="font: 8px 'Arial', sans-serif, serif; text-anchor: end" x="47.74625" y="184.345962" transform="rotate(-0 47.74625 184.345962)">0.06</text>
     </g>
    </g>
    <g id="ytick_10">
     <g id="line2d_42">
      <g>
       <use xlink:href="#mf805cabe68" x="54.74625" y="157.139477" style="stroke: #000000; stroke-width: 1.5"/>
      </g>
     </g>
     <g id="text_19">
      <text style="font: 8px 'Arial', sans-serif, serif; text-anchor: end" x="47.74625" y="160.002602" transform="rotate(-0 47.74625 160.002602)">0.08</text>
     </g>
    </g>
    <g id="text_20">
     <!-- $g_{Na} ~(S/cm^2)$ -->
     <g transform="translate(25.6975 181.787426) rotate(-90)">
      <text>
       <tspan style="font: 8px 'Arial'" x="0 14.74308 17.407143 22.74308 24.965737 28.965737 39.28189" y="-0.39949999999999974">g(S/cm)</tspan>
       <tspan style="font: 5.6px 'Arial'" x="4.588606 8.632747 35.769187" y="1.9900000000000002 1.9900000000000002 -5.975">Na2</tspan>
      </text>
     </g>
    </g>
   </g>
   <g id="line2d_43">
    <path d="M 61.087159 138.552132 
L 61.232136 146.746092 
L 61.26838 146.635282 
L 61.304624 146.348751 
L 61.340868 146.451552 
L 61.485844 149.903555 
L 61.630821 152.404641 
L 61.667065 151.814628 
L 61.703309 150.594419 
L 61.739553 151.948381 
L 61.920774 155.175173 
L 62.029506 154.893747 
L 62.283215 154.285452 
L 62.609412 154.234006 
L 62.790633 153.972168 
L 62.935609 154.142376 
L 63.769224 155.957767 
L 64.131665 157.372424 
L 64.167909 157.342788 
L 64.566595 156.619603 
L 64.639083 156.692442 
L 64.929036 156.916409 
L 65.40021 156.802571 
L 65.762651 156.956846 
L 66.088848 156.959594 
L 66.306313 157.596782 
L 66.63251 157.193192 
L 66.704998 157.293464 
L 67.031195 157.703138 
L 67.393636 157.620913 
L 67.792322 157.812651 
L 68.118519 157.879323 
L 68.698425 158.093614 
L 71.56171 159.483687 
L 76.454667 162.253857 
L 83.304806 166.039121 
L 88.813912 168.824952 
L 91.822174 170.239546 
L 92.003395 170.944359 
L 92.112127 170.624645 
L 92.257104 170.320212 
L 92.293348 170.357212 
L 92.619545 170.736524 
L 92.764521 170.853691 
L 93.01823 171.075309 
L 93.235695 171.078946 
L 93.561892 171.269777 
L 93.815601 171.318684 
L 95.809028 172.12852 
L 102.260481 174.659396 
L 106.863485 176.217174 
L 110.850338 177.335343 
L 114.90968 178.239274 
L 119.585172 179.046145 
L 125.275499 179.782647 
L 132.089393 180.426382 
L 140.49803 180.988945 
L 151.008825 181.459569 
L 164.455394 181.824621 
L 182.215014 182.066998 
L 185.730694 182.094308 
L 185.803182 183.022721 
L 185.839426 182.92517 
L 185.911914 182.317709 
L 185.948158 182.581039 
L 186.020647 182.971351 
L 186.056891 182.645476 
L 186.129379 182.039076 
L 186.165623 182.201295 
L 186.238111 182.406976 
L 186.274355 182.189814 
L 186.455576 181.234532 
L 186.564308 181.626658 
L 186.636797 181.810896 
L 186.673041 181.769557 
L 187.035482 181.21468 
L 187.397923 181.463101 
L 187.905341 181.574876 
L 187.905341 181.574876 
" clip-path="url(#pc50a2eabd4)" style="fill: none; stroke: #1f77b4; stroke-width: 0.8; stroke-linecap: square"/>
   </g>
   <g id="line2d_44">
    <path d="M 54.74625 181.482837 
L 194.24625 181.482837 
" clip-path="url(#pc50a2eabd4)" style="fill: none; stroke-dasharray: 4.44,1.92; stroke-dashoffset: 0; stroke: #000000; stroke-width: 1.2"/>
   </g>
   <g id="patch_15">
    <path d="M 54.74625 185.24625 
L 54.74625 136.328603 
" style="fill: none; stroke: #000000; stroke-width: 1.5; stroke-linejoin: miter; stroke-linecap: square"/>
   </g>
   <g id="patch_16">
    <path d="M 54.74625 185.24625 
L 194.24625 185.24625 
" style="fill: none; stroke: #000000; stroke-width: 1.5; stroke-linejoin: miter; stroke-linecap: square"/>
   </g>
   <g id="legend_5">
    <g id="line2d_45">
     <path d="M 127.1525 146.454853 
L 135.1525 146.454853 
L 143.1525 146.454853 
" style="fill: none; stroke-dasharray: 4.44,1.92; stroke-dashoffset: 0; stroke: #000000; stroke-width: 1.2"/>
    </g>
    <g id="text_21">
     <text style="font: 8px 'Arial', sans-serif, serif; text-anchor: start" x="149.5525" y="149.254853" transform="rotate(-0 149.5525 149.254853)">True value</text>
    </g>
   </g>
  </g>
  <g id="axes_6">
   <g id="patch_17">
    <path d="M 222.14625 185.24625 
L 361.64625 185.24625 
L 361.64625 136.328603 
L 222.14625 136.328603 
z
" style="fill: #ffffff"/>
   </g>
   <g id="matplotlib.axis_11">
    <g id="xtick_21">
     <g id="line2d_46">
      <g>
       <use xlink:href="#mb51260d162" x="228.487159" y="185.24625" style="stroke: #000000; stroke-width: 1.5"/>
      </g>
     </g>
     <g id="text_22">
      <text style="font: 8px 'Arial', sans-serif, serif; text-anchor: middle" x="228.487159" y="197.9725" transform="rotate(-0 228.487159 197.9725)">0</text>
     </g>
    </g>
    <g id="xtick_22">
     <g id="line2d_47">
      <g>
       <use xlink:href="#mb51260d162" x="264.731281" y="185.24625" style="stroke: #000000; stroke-width: 1.5"/>
      </g>
     </g>
     <g id="text_23">
      <text style="font: 8px 'Arial', sans-serif, serif; text-anchor: middle" x="264.731281" y="197.9725" transform="rotate(-0 264.731281 197.9725)">1000</text>
     </g>
    </g>
    <g id="xtick_23">
     <g id="line2d_48">
      <g>
       <use xlink:href="#mb51260d162" x="300.975402" y="185.24625" style="stroke: #000000; stroke-width: 1.5"/>
      </g>
     </g>
     <g id="text_24">
      <text style="font: 8px 'Arial', sans-serif, serif; text-anchor: middle" x="300.975402" y="197.9725" transform="rotate(-0 300.975402 197.9725)">2000</text>
     </g>
    </g>
    <g id="xtick_24">
     <g id="line2d_49">
      <g>
       <use xlink:href="#mb51260d162" x="337.219524" y="185.24625" style="stroke: #000000; stroke-width: 1.5"/>
      </g>
     </g>
     <g id="text_25">
      <text style="font: 8px 'Arial', sans-serif, serif; text-anchor: middle" x="337.219524" y="197.9725" transform="rotate(-0 337.219524 197.9725)">3000</text>
     </g>
    </g>
    <g id="text_26">
     <text style="font: 8px 'Arial', sans-serif, serif; text-anchor: middle" x="291.89625" y="209.28875" transform="rotate(-0 291.89625 209.28875)">Iteration</text>
    </g>
   </g>
   <g id="matplotlib.axis_12">
    <g id="ytick_11">
     <g id="line2d_50">
      <g>
       <use xlink:href="#mf805cabe68" x="222.14625" y="181.482837" style="stroke: #000000; stroke-width: 1.5"/>
      </g>
     </g>
    </g>
    <g id="ytick_12">
     <g id="line2d_51">
      <g>
       <use xlink:href="#mf805cabe68" x="222.14625" y="157.139477" style="stroke: #000000; stroke-width: 1.5"/>
      </g>
     </g>
    </g>
   </g>
   <g id="line2d_52">
    <path d="M 228.487159 150.762415 
L 228.559647 144.907994 
L 228.632136 146.065484 
L 228.885844 152.725914 
L 228.994577 153.988827 
L 229.103309 158.044082 
L 229.175797 155.923796 
L 229.248286 154.551225 
L 229.320774 155.030402 
L 229.791947 159.07667 
L 230.045656 160.079513 
L 230.263121 160.676291 
L 230.408098 160.584534 
L 231.096736 159.435578 
L 231.386689 157.858701 
L 231.531665 157.542198 
L 231.640398 157.849506 
L 231.930351 158.774041 
L 232.075327 158.705165 
L 232.292792 158.627402 
L 232.908942 159.110332 
L 233.126407 159.178129 
L 233.488848 159.448582 
L 233.670068 158.905028 
L 233.778801 159.183507 
L 234.03251 159.818146 
L 234.177486 159.653207 
L 234.358707 159.491504 
L 234.539927 159.740229 
L 234.793636 159.968141 
L 235.119833 160.002928 
L 235.591007 160.285443 
L 235.953448 160.463133 
L 236.859551 160.875555 
L 238.816734 161.809549 
L 245.050723 164.974267 
L 252.734477 168.779573 
L 258.606024 171.434789 
L 259.222174 171.698794 
L 259.367151 171.089402 
L 259.475883 171.52465 
L 259.693348 172.38955 
L 259.983301 172.281453 
L 260.164521 172.312658 
L 260.381986 172.222788 
L 260.671939 172.438648 
L 260.889404 172.427838 
L 261.324333 172.705945 
L 262.157948 173.025867 
L 263.027807 173.369577 
L 271.907617 176.489967 
L 276.111935 177.654612 
L 280.135033 178.533782 
L 284.593059 179.272665 
L 289.993434 179.933526 
L 296.662352 180.517486 
L 305.360941 181.042798 
L 316.451642 181.476899 
L 331.275488 181.813045 
L 350.883558 182.020957 
L 353.130694 182.034564 
L 353.203182 180.443994 
L 353.27567 180.884529 
L 353.311914 181.088291 
L 353.348158 180.682308 
L 353.420647 180.062115 
L 353.456891 180.461904 
L 353.529379 181.199431 
L 353.565623 180.973342 
L 353.638111 180.689223 
L 353.674355 180.989729 
L 353.819332 182.283103 
L 353.855576 182.160346 
L 354.073041 180.819343 
L 354.145529 180.88909 
L 354.218017 180.894817 
L 354.580458 181.522328 
L 355.015388 181.392121 
L 355.196609 181.689023 
L 355.232853 181.66568 
L 355.305341 181.602313 
L 355.305341 181.602313 
" clip-path="url(#p7a7b38344a)" style="fill: none; stroke: #1f77b4; stroke-width: 0.8; stroke-linecap: square"/>
   </g>
   <g id="line2d_53">
    <path d="M 222.14625 181.482837 
L 361.64625 181.482837 
" clip-path="url(#p7a7b38344a)" style="fill: none; stroke-dasharray: 4.44,1.92; stroke-dashoffset: 0; stroke: #000000; stroke-width: 1.2"/>
   </g>
   <g id="patch_18">
    <path d="M 222.14625 185.24625 
L 222.14625 136.328603 
" style="fill: none; stroke: #000000; stroke-width: 1.5; stroke-linejoin: miter; stroke-linecap: square"/>
   </g>
   <g id="patch_19">
    <path d="M 222.14625 185.24625 
L 361.64625 185.24625 
" style="fill: none; stroke: #000000; stroke-width: 1.5; stroke-linejoin: miter; stroke-linecap: square"/>
   </g>
   <g id="legend_6">
    <g id="line2d_54">
     <path d="M 294.5525 146.454853 
L 302.5525 146.454853 
L 310.5525 146.454853 
" style="fill: none; stroke-dasharray: 4.44,1.92; stroke-dashoffset: 0; stroke: #000000; stroke-width: 1.2"/>
    </g>
    <g id="text_27">
     <text style="font: 8px 'Arial', sans-serif, serif; text-anchor: start" x="316.9525" y="149.254853" transform="rotate(-0 316.9525 149.254853)">True value</text>
    </g>
   </g>
  </g>
 </g>
 <defs>
  <clipPath id="p596632a5a3">
   <rect x="54.74625" y="18.92625" width="139.5" height="48.917647"/>
  </clipPath>
  <clipPath id="pe7847911d7">
   <rect x="222.14625" y="18.92625" width="139.5" height="48.917647"/>
  </clipPath>
  <clipPath id="p3947fc71eb">
   <rect x="54.74625" y="77.627426" width="139.5" height="48.917647"/>
  </clipPath>
  <clipPath id="p5466f82478">
   <rect x="222.14625" y="77.627426" width="139.5" height="48.917647"/>
  </clipPath>
  <clipPath id="pc50a2eabd4">
   <rect x="54.74625" y="136.328603" width="139.5" height="48.917647"/>
  </clipPath>
  <clipPath id="p7a7b38344a">
   <rect x="222.14625" y="136.328603" width="139.5" height="48.917647"/>
  </clipPath>
 </defs>
</svg>
