<?xml version="1.0" encoding="utf-8" standalone="no"?>
<!DOCTYPE svg PUBLIC "-//W3C//DTD SVG 1.1//EN"
  "http://www.w3.org/Graphics/SVG/1.1/DTD/svg11.dtd">
<svg xmlns:xlink="http://www.w3.org/1999/xlink" width="126.064875pt" height="105.3525pt" viewBox="0 0 126.064875 105.3525" xmlns="http://www.w3.org/2000/svg" version="1.1">
 <metadata>
  <rdf:RDF xmlns:dc="http://purl.org/dc/elements/1.1/" xmlns:cc="http://creativecommons.org/ns#" xmlns:rdf="http://www.w3.org/1999/02/22-rdf-syntax-ns#">
   <cc:Work>
    <dc:type rdf:resource="http://purl.org/dc/dcmitype/StillImage"/>
    <dc:date>2025-10-13T09:38:09.256282</dc:date>
    <dc:format>image/svg+xml</dc:format>
    <dc:creator>
     <cc:Agent>
      <dc:title>Matplotlib v3.9.2, https://matplotlib.org/</dc:title>
     </cc:Agent>
    </dc:creator>
   </cc:Work>
  </rdf:RDF>
 </metadata>
 <defs>
  <style type="text/css">*{stroke-linejoin: round; stroke-linecap: butt}</style>
 </defs>
 <g id="figure_1">
  <g id="patch_1">
   <path d="M 0 105.3525 
L 126.064875 105.3525 
L 126.064875 0 
L 0 0 
z
" style="fill: #ffffff"/>
  </g>
  <g id="axes_1">
   <g id="patch_2">
    <path d="M 45.84875 72.52 
L 112.19175 72.52 
L 112.19175 7.2 
L 45.84875 7.2 
z
" style="fill: #ffffff"/>
   </g>
   <g id="PolyCollection_1">
    <path d="M 45.84875 69.550902 
L 45.84875 69.550909 
L 46.180465 67.366935 
L 46.51218 64.979132 
L 46.843895 62.401496 
L 47.17561 59.667947 
L 47.507325 56.868091 
L 47.83904 54.325956 
L 48.170755 52.70412 
L 48.50247 52.19405 
L 48.834185 52.470598 
L 49.1659 53.189952 
L 49.497615 54.228277 
L 49.82933 55.427284 
L 50.161045 56.492962 
L 50.49276 57.337143 
L 50.824475 57.919179 
L 51.15619 58.225982 
L 51.487905 58.262179 
L 51.81962 58.044507 
L 52.151335 57.598624 
L 52.48305 56.958583 
L 52.814765 56.173507 
L 53.14648 55.339455 
L 53.478195 54.507201 
L 53.80991 53.638998 
L 54.141625 52.756108 
L 54.47334 51.903086 
L 54.805055 51.133314 
L 55.13677 50.519116 
L 55.468485 50.189836 
L 55.8002 50.133369 
L 56.131915 50.250337 
L 56.46363 50.478186 
L 56.795345 50.763636 
L 57.12706 51.061794 
L 57.458775 51.338112 
L 57.79049 51.568944 
L 58.122205 51.741095 
L 58.45392 51.85098 
L 58.785635 51.903417 
L 59.11735 51.909459 
L 59.449065 51.882666 
L 59.78078 51.837942 
L 60.112495 51.794812 
L 60.44421 51.776161 
L 60.775925 51.799998 
L 61.10764 51.87235 
L 61.439355 51.986551 
L 61.77107 52.127413 
L 62.102785 52.277651 
L 62.4345 52.42626 
L 62.766215 52.573421 
L 63.09793 52.71233 
L 63.429645 52.817917 
L 63.76136 52.870949 
L 64.093075 52.866522 
L 64.42479 52.811308 
L 64.756505 52.720596 
L 65.08822 52.615531 
L 65.419935 52.519965 
L 65.75165 52.45677 
L 66.083365 52.443802 
L 66.41508 52.490127 
L 66.746795 52.593636 
L 67.07851 52.741507 
L 67.410225 52.913888 
L 67.74194 53.088799 
L 68.073655 53.246206 
L 68.40537 53.37049 
L 68.737085 53.451951 
L 69.0688 53.48742 
L 69.400515 53.480136 
L 69.73223 53.43869 
L 70.063945 53.375548 
L 70.39566 53.304856 
L 70.727375 53.240258 
L 71.05909 53.192632 
L 71.390805 53.168265 
L 71.72252 53.168091 
L 72.054235 53.188076 
L 72.38595 53.220722 
L 72.717665 53.257219 
L 73.04938 53.289556 
L 73.381095 53.312273 
L 73.71281 53.323351 
L 74.044525 53.323974 
L 74.37624 53.316735 
L 74.707955 53.303725 
L 75.03967 53.286378 
L 75.371385 53.266839 
L 75.7031 53.248298 
L 76.034815 53.234143 
L 76.36653 53.226493 
L 76.698245 53.225191 
L 77.02996 53.227722 
L 77.361675 53.23036 
L 77.69339 53.229618 
L 78.025105 53.223298 
L 78.35682 53.210894 
L 78.688535 53.193394 
L 79.02025 53.172845 
L 79.351965 53.151896 
L 79.68368 53.133363 
L 80.015395 53.119726 
L 80.34711 53.112598 
L 80.678825 53.112295 
L 81.01054 53.117756 
L 81.342255 53.126906 
L 81.67397 53.137222 
L 82.005685 53.146289 
L 82.3374 53.152182 
L 82.669115 53.153689 
L 83.00083 53.150431 
L 83.332545 53.142937 
L 83.66426 53.132653 
L 83.995975 53.121665 
L 84.32769 53.112121 
L 84.659405 53.105648 
L 84.99112 53.102912 
L 85.322835 53.103653 
L 85.65455 53.106998 
L 85.986265 53.11185 
L 86.31798 53.117161 
L 86.649695 53.122121 
L 86.98141 53.126179 
L 87.313125 53.129036 
L 87.64484 53.13062 
L 87.976555 53.131114 
L 88.30827 53.130902 
L 88.639985 53.130443 
L 88.9717 53.13014 
L 89.303415 53.130213 
L 89.63513 53.130697 
L 89.966845 53.131494 
L 90.29856 53.132444 
L 90.630275 53.133377 
L 90.96199 53.134187 
L 91.293705 53.134797 
L 91.62542 53.135214 
L 91.957135 53.13551 
L 92.28885 53.135789 
L 92.620565 53.136175 
L 92.95228 53.136756 
L 93.283995 53.137567 
L 93.61571 53.138583 
L 93.947425 53.139711 
L 94.27914 53.140846 
L 94.610855 53.141862 
L 94.94257 53.142607 
L 95.274285 53.142944 
L 95.606 53.14284 
L 95.937715 53.142297 
L 96.26943 53.141389 
L 96.601145 53.140299 
L 96.93286 53.139199 
L 97.264575 53.138277 
L 97.59629 53.137658 
L 97.928005 53.137445 
L 98.25972 53.137623 
L 98.591435 53.138134 
L 98.92315 53.138858 
L 99.254865 53.139621 
L 99.58658 53.140261 
L 99.918295 53.140647 
L 100.25001 53.140713 
L 100.581725 53.140452 
L 100.91344 53.13993 
L 101.245155 53.139259 
L 101.57687 53.138555 
L 101.908585 53.137946 
L 102.2403 53.137511 
L 102.572015 53.137282 
L 102.90373 53.137236 
L 103.235445 53.137327 
L 103.56716 53.137473 
L 103.898875 53.137605 
L 104.23059 53.137685 
L 104.562305 53.137685 
L 104.89402 53.137623 
L 105.225735 53.137553 
L 105.55745 53.13749 
L 105.889165 53.137484 
L 106.22088 53.13755 
L 106.552595 53.137661 
L 106.88431 53.137783 
L 107.216025 53.137866 
L 107.54774 53.137884 
L 107.879455 53.137793 
L 108.21117 53.13763 
L 108.542885 53.137407 
L 108.8746 53.137188 
L 109.206315 53.137028 
L 109.53803 53.136954 
L 109.869745 53.137003 
L 110.20146 53.13716 
L 110.533175 53.137386 
L 110.86489 53.137626 
L 111.196605 53.137835 
L 111.52832 53.137967 
L 111.860035 53.138002 
L 111.860035 52.89636 
L 111.860035 52.89636 
L 111.52832 52.896297 
L 111.196605 52.896137 
L 110.86489 52.895908 
L 110.533175 52.89564 
L 110.20146 52.895386 
L 109.869745 52.895208 
L 109.53803 52.895145 
L 109.206315 52.895218 
L 108.8746 52.895406 
L 108.542885 52.895674 
L 108.21117 52.895967 
L 107.879455 52.8962 
L 107.54774 52.896353 
L 107.216025 52.896371 
L 106.88431 52.896287 
L 106.552595 52.89613 
L 106.22088 52.89597 
L 105.889165 52.895869 
L 105.55745 52.895869 
L 105.225735 52.895981 
L 104.89402 52.896183 
L 104.562305 52.896433 
L 104.23059 52.896656 
L 103.898875 52.896813 
L 103.56716 52.896868 
L 103.235445 52.896847 
L 102.90373 52.896819 
L 102.572015 52.896865 
L 102.2403 52.897074 
L 101.908585 52.897516 
L 101.57687 52.898187 
L 101.245155 52.89903 
L 100.91344 52.899903 
L 100.581725 52.900627 
L 100.25001 52.901034 
L 99.918295 52.900996 
L 99.58658 52.900464 
L 99.254865 52.899517 
L 98.92315 52.898323 
L 98.591435 52.89714 
L 98.25972 52.896252 
L 97.928005 52.895894 
L 97.59629 52.896203 
L 97.264575 52.897185 
L 96.93286 52.898657 
L 96.601145 52.900321 
L 96.26943 52.901793 
L 95.937715 52.902743 
L 95.606 52.902882 
L 95.274285 52.902103 
L 94.94257 52.900464 
L 94.610855 52.898194 
L 94.27914 52.895647 
L 93.947425 52.893245 
L 93.61571 52.891345 
L 93.283995 52.890154 
L 92.95228 52.889685 
L 92.620565 52.889737 
L 92.28885 52.889956 
L 91.957135 52.88997 
L 91.62542 52.889472 
L 91.293705 52.888317 
L 90.96199 52.886573 
L 90.630275 52.884544 
L 90.29856 52.882685 
L 89.966845 52.881505 
L 89.63513 52.881391 
L 89.303415 52.882452 
L 88.9717 52.884439 
L 88.639985 52.886782 
L 88.30827 52.888696 
L 87.976555 52.889368 
L 87.64484 52.888101 
L 87.313125 52.884485 
L 86.98141 52.878599 
L 86.649695 52.871109 
L 86.31798 52.863282 
L 85.986265 52.856801 
L 85.65455 52.853355 
L 85.322835 52.854215 
L 84.99112 52.859815 
L 84.659405 52.869644 
L 84.32769 52.882396 
L 83.995975 52.896339 
L 83.66426 52.909631 
L 83.332545 52.920591 
L 83.00083 52.927709 
L 82.669115 52.929901 
L 82.3374 52.926828 
L 82.005685 52.919202 
L 81.67397 52.908799 
L 81.342255 52.898177 
L 81.01054 52.890043 
L 80.678825 52.886663 
L 80.34711 52.889444 
L 80.015395 52.898723 
L 79.68368 52.913738 
L 79.351965 52.932717 
L 79.02025 52.953102 
L 78.688535 52.972008 
L 78.35682 52.986981 
L 78.025105 52.996636 
L 77.69339 53.001028 
L 77.361675 53.001449 
L 77.02996 52.999953 
L 76.698245 52.998745 
L 76.36653 52.999935 
L 76.034815 53.005414 
L 75.7031 53.016589 
L 75.371385 53.033585 
L 75.03967 53.05414 
L 74.707955 53.073088 
L 74.37624 53.083028 
L 74.044525 53.076854 
L 73.71281 53.051095 
L 73.381095 53.007585 
L 73.04938 52.952375 
L 72.717665 52.89399 
L 72.38595 52.84188 
L 72.054235 52.805036 
L 71.72252 52.790522 
L 71.390805 52.802266 
L 71.05909 52.840095 
L 70.727375 52.899562 
L 70.39566 52.972318 
L 70.063945 53.046984 
L 69.73223 53.110635 
L 69.400515 53.1505 
L 69.0688 53.155662 
L 68.737085 53.118654 
L 68.40537 53.036532 
L 68.073655 52.911719 
L 67.74194 52.752216 
L 67.410225 52.571103 
L 67.07851 52.38487 
L 66.746795 52.210993 
L 66.41508 52.065586 
L 66.083365 51.961854 
L 65.75165 51.908575 
L 65.419935 51.908328 
L 65.08822 51.956344 
L 64.756505 52.040875 
L 64.42479 52.145035 
L 64.093075 52.249386 
L 63.76136 52.334421 
L 63.429645 52.382413 
L 63.09793 52.377718 
L 62.766215 52.30594 
L 62.4345 52.162587 
L 62.102785 51.975115 
L 61.77107 51.786891 
L 61.439355 51.631474 
L 61.10764 51.528508 
L 60.775925 51.483422 
L 60.44421 51.488528 
L 60.112495 51.526872 
L 59.78078 51.576427 
L 59.449065 51.611155 
L 59.11735 51.601612 
L 58.785635 51.521415 
L 58.45392 51.35628 
L 58.122205 51.106981 
L 57.79049 50.788428 
L 57.458775 50.429014 
L 57.12706 50.06938 
L 56.795345 49.758901 
L 56.46363 49.549227 
L 56.131915 49.485566 
L 55.8002 49.597188 
L 55.468485 49.884014 
L 55.13677 50.279409 
L 54.805055 50.765345 
L 54.47334 51.424898 
L 54.141625 52.24933 
L 53.80991 53.188765 
L 53.478195 54.177399 
L 53.14648 55.13149 
L 52.814765 55.920728 
L 52.48305 56.517427 
L 52.151335 56.952168 
L 51.81962 57.219782 
L 51.487905 57.309888 
L 51.15619 57.213868 
L 50.824475 56.926744 
L 50.49276 56.449234 
L 50.161045 55.791564 
L 49.82933 54.980392 
L 49.497615 54.068231 
L 49.1659 53.015302 
L 48.834185 52.067538 
L 48.50247 51.672933 
L 48.170755 52.230247 
L 47.83904 54.045179 
L 47.507325 56.728385 
L 47.17561 59.580358 
L 46.843895 62.349418 
L 46.51218 64.960163 
L 46.180465 67.366925 
L 45.84875 69.550902 
z
" clip-path="url(#pfc7040fb73)" style="fill: #1f77b4; fill-opacity: 0.25"/>
   </g>
   <g id="PolyCollection_2">
    <path d="M 45.84875 10.169091 
L 45.84875 10.169119 
L 46.180465 17.661637 
L 46.51218 23.728408 
L 46.843895 28.525372 
L 47.17561 32.327381 
L 47.507325 35.360537 
L 47.83904 37.787138 
L 48.170755 39.722926 
L 48.50247 41.25436 
L 48.834185 42.449049 
L 49.1659 43.361304 
L 49.497615 44.035322 
L 49.82933 44.5075 
L 50.161045 44.808348 
L 50.49276 44.963928 
L 50.824475 44.997014 
L 51.15619 44.927839 
L 51.487905 44.774723 
L 51.81962 44.554437 
L 52.151335 44.281694 
L 52.48305 43.971883 
L 52.814765 43.638291 
L 53.14648 43.293153 
L 53.478195 42.947518 
L 53.80991 42.611166 
L 54.141625 42.292504 
L 54.47334 41.99836 
L 54.805055 41.733844 
L 55.13677 41.502187 
L 55.468485 41.304737 
L 55.8002 41.140974 
L 56.131915 41.008695 
L 56.46363 40.904246 
L 56.795345 40.822848 
L 57.12706 40.758905 
L 57.458775 40.706451 
L 57.79049 40.65952 
L 58.122205 40.612614 
L 58.45392 40.560894 
L 58.785635 40.500404 
L 59.11735 40.42816 
L 59.449065 40.342227 
L 59.78078 40.241864 
L 60.112495 40.127492 
L 60.44421 40.000657 
L 60.775925 39.864028 
L 61.10764 39.721238 
L 61.439355 39.576753 
L 61.77107 39.435714 
L 62.102785 39.303745 
L 62.4345 39.186708 
L 62.766215 39.090518 
L 63.09793 39.020884 
L 63.429645 38.982999 
L 63.76136 38.981294 
L 64.093075 39.019151 
L 64.42479 39.098662 
L 64.756505 39.220433 
L 65.08822 39.383528 
L 65.419935 39.585472 
L 65.75165 39.822384 
L 66.083365 40.089315 
L 66.41508 40.380446 
L 66.746795 40.689564 
L 67.07851 41.010376 
L 67.410225 41.336875 
L 67.74194 41.663584 
L 68.073655 41.985809 
L 68.40537 42.299754 
L 68.737085 42.602684 
L 69.0688 42.892781 
L 69.400515 43.169269 
L 69.73223 43.43225 
L 70.063945 43.682611 
L 70.39566 43.921931 
L 70.727375 44.152272 
L 71.05909 44.376108 
L 71.390805 44.596004 
L 71.72252 44.81456 
L 72.054235 45.034244 
L 72.38595 45.257273 
L 72.717665 45.485219 
L 73.04938 45.719208 
L 73.381095 45.959732 
L 73.71281 46.206672 
L 74.044525 46.459315 
L 74.37624 46.716407 
L 74.707955 46.976263 
L 75.03967 47.236918 
L 75.371385 47.496269 
L 75.7031 47.752205 
L 76.034815 48.002785 
L 76.36653 48.246335 
L 76.698245 48.481517 
L 77.02996 48.707427 
L 77.361675 48.923568 
L 77.69339 49.12989 
L 78.025105 49.326697 
L 78.35682 49.514611 
L 78.688535 49.694485 
L 79.02025 49.867308 
L 79.351965 50.034113 
L 79.68368 50.195871 
L 80.015395 50.353428 
L 80.34711 50.507439 
L 80.678825 50.658324 
L 81.01054 50.806248 
L 81.342255 50.95114 
L 81.67397 51.092708 
L 82.005685 51.230503 
L 82.3374 51.363955 
L 82.669115 51.492485 
L 83.00083 51.615537 
L 83.332545 51.732662 
L 83.66426 51.843529 
L 83.995975 51.94797 
L 84.32769 52.046026 
L 84.659405 52.137868 
L 84.99112 52.223839 
L 85.322835 52.304398 
L 85.65455 52.380043 
L 85.986265 52.451312 
L 86.31798 52.518708 
L 86.649695 52.582679 
L 86.98141 52.643574 
L 87.313125 52.701624 
L 87.64484 52.75695 
L 87.976555 52.809578 
L 88.30827 52.859432 
L 88.639985 52.906387 
L 88.9717 52.95029 
L 89.303415 52.991011 
L 89.63513 53.028437 
L 89.966845 53.062521 
L 90.29856 53.093289 
L 90.630275 53.120857 
L 90.96199 53.14537 
L 91.293705 53.167088 
L 91.62542 53.186255 
L 91.957135 53.203174 
L 92.28885 53.218122 
L 92.620565 53.231348 
L 92.95228 53.243074 
L 93.283995 53.253467 
L 93.61571 53.262645 
L 93.947425 53.27066 
L 94.27914 53.277534 
L 94.610855 53.283266 
L 94.94257 53.287843 
L 95.274285 53.291237 
L 95.606 53.293447 
L 95.937715 53.294484 
L 96.26943 53.294414 
L 96.601145 53.293304 
L 96.93286 53.291261 
L 97.264575 53.288421 
L 97.59629 53.28493 
L 97.928005 53.280924 
L 98.25972 53.276532 
L 98.591435 53.271889 
L 98.92315 53.267065 
L 99.254865 53.262154 
L 99.58658 53.257191 
L 99.918295 53.252189 
L 100.25001 53.247157 
L 100.581725 53.242079 
L 100.91344 53.236948 
L 101.245155 53.231752 
L 101.57687 53.22649 
L 101.908585 53.221175 
L 102.2403 53.215825 
L 102.572015 53.210469 
L 102.90373 53.205165 
L 103.235445 53.199947 
L 103.56716 53.194873 
L 103.898875 53.189986 
L 104.23059 53.185323 
L 104.562305 53.180888 
L 104.89402 53.176729 
L 105.225735 53.172817 
L 105.55745 53.169159 
L 105.889165 53.165728 
L 106.22088 53.162508 
L 106.552595 53.159473 
L 106.88431 53.156602 
L 107.216025 53.15388 
L 107.54774 53.151297 
L 107.879455 53.148851 
L 108.21117 53.14654 
L 108.542885 53.144382 
L 108.8746 53.142377 
L 109.206315 53.140536 
L 109.53803 53.138865 
L 109.869745 53.137379 
L 110.20146 53.136053 
L 110.533175 53.134901 
L 110.86489 53.133899 
L 111.196605 53.133053 
L 111.52832 53.132308 
L 111.860035 53.131689 
L 111.860035 52.891968 
L 111.860035 52.891968 
L 111.52832 52.892733 
L 111.196605 52.893631 
L 110.86489 52.894651 
L 110.533175 52.895828 
L 110.20146 52.897161 
L 109.869745 52.898668 
L 109.53803 52.900328 
L 109.206315 52.902165 
L 108.8746 52.90416 
L 108.542885 52.906297 
L 108.21117 52.90858 
L 107.879455 52.910995 
L 107.54774 52.913533 
L 107.216025 52.916199 
L 106.88431 52.919004 
L 106.552595 52.921952 
L 106.22088 52.92507 
L 105.889165 52.928373 
L 105.55745 52.931889 
L 105.225735 52.93563 
L 104.89402 52.939619 
L 104.562305 52.943841 
L 104.23059 52.94831 
L 103.898875 52.95298 
L 103.56716 52.957832 
L 103.235445 52.962816 
L 102.90373 52.967894 
L 102.572015 52.97301 
L 102.2403 52.978123 
L 101.908585 52.983187 
L 101.57687 52.988182 
L 101.245155 52.993103 
L 100.91344 52.997931 
L 100.581725 53.002685 
L 100.25001 53.007373 
L 99.918295 53.012002 
L 99.58658 53.016579 
L 99.254865 53.021076 
L 98.92315 53.025479 
L 98.591435 53.029718 
L 98.25972 53.033692 
L 97.928005 53.037312 
L 97.59629 53.040434 
L 97.264575 53.042909 
L 96.93286 53.044607 
L 96.601145 53.04539 
L 96.26943 53.045136 
L 95.937715 53.043758 
L 95.606 53.041196 
L 95.274285 53.03742 
L 94.94257 53.032419 
L 94.610855 53.026213 
L 94.27914 53.018824 
L 93.947425 53.010258 
L 93.61571 53.000496 
L 93.283995 52.989487 
L 92.95228 52.977138 
L 92.620565 52.963296 
L 92.28885 52.947753 
L 91.957135 52.93027 
L 91.62542 52.910574 
L 91.293705 52.888393 
L 90.96199 52.863438 
L 90.630275 52.835487 
L 90.29856 52.804347 
L 89.966845 52.769918 
L 89.63513 52.732131 
L 89.303415 52.69103 
L 88.9717 52.646689 
L 88.639985 52.599257 
L 88.30827 52.548856 
L 87.976555 52.495626 
L 87.64484 52.439649 
L 87.313125 52.380927 
L 86.98141 52.319375 
L 86.649695 52.254791 
L 86.31798 52.18688 
L 85.986265 52.115238 
L 85.65455 52.039402 
L 85.322835 51.958878 
L 84.99112 51.873168 
L 84.659405 51.781844 
L 84.32769 51.684565 
L 83.995975 51.581108 
L 83.66426 51.471425 
L 83.332545 51.355608 
L 83.00083 51.233924 
L 82.669115 51.106779 
L 82.3374 50.974657 
L 82.005685 50.838115 
L 81.67397 50.697674 
L 81.342255 50.553809 
L 81.01054 50.40685 
L 80.678825 50.256943 
L 80.34711 50.104004 
L 80.015395 49.947738 
L 79.68368 49.787612 
L 79.351965 49.622916 
L 79.02025 49.452791 
L 78.688535 49.27632 
L 78.35682 49.09259 
L 78.025105 48.900792 
L 77.69339 48.700282 
L 77.361675 48.490667 
L 77.02996 48.271881 
L 76.698245 48.044182 
L 76.36653 47.808241 
L 76.034815 47.565081 
L 75.7031 47.316096 
L 75.371385 47.062944 
L 75.03967 46.807505 
L 74.707955 46.551764 
L 74.37624 46.297672 
L 74.044525 46.046977 
L 73.71281 45.801176 
L 73.381095 45.561281 
L 73.04938 45.327794 
L 72.717665 45.100599 
L 72.38595 44.878994 
L 72.054235 44.661667 
L 71.72252 44.446925 
L 71.390805 44.232435 
L 71.05909 44.015706 
L 70.727375 43.794167 
L 70.39566 43.565267 
L 70.063945 43.326768 
L 69.73223 43.076832 
L 69.400515 42.81415 
L 69.0688 42.53817 
L 68.737085 42.249138 
L 68.40537 41.948192 
L 68.073655 41.637463 
L 67.74194 41.31995 
L 67.410225 40.999653 
L 67.07851 40.681291 
L 66.746795 40.370245 
L 66.41508 40.072285 
L 66.083365 39.793336 
L 65.75165 39.539122 
L 65.419935 39.314893 
L 65.08822 39.125068 
L 64.756505 38.973014 
L 64.42479 38.860842 
L 64.093075 38.789294 
L 63.76136 38.757722 
L 63.429645 38.764112 
L 63.09793 38.805234 
L 62.766215 38.876824 
L 62.4345 38.973814 
L 62.102785 39.090601 
L 61.77107 39.221317 
L 61.439355 39.360164 
L 61.10764 39.501579 
L 60.775925 39.640547 
L 60.44421 39.772777 
L 60.112495 39.894858 
L 59.78078 40.004378 
L 59.449065 40.10007 
L 59.11735 40.181791 
L 58.785635 40.250534 
L 58.45392 40.308449 
L 58.122205 40.358651 
L 57.79049 40.405133 
L 57.458775 40.452655 
L 57.12706 40.506599 
L 56.795345 40.572784 
L 56.46363 40.65707 
L 56.131915 40.764937 
L 55.8002 40.901079 
L 55.468485 41.069102 
L 55.13677 41.271223 
L 54.805055 41.508045 
L 54.47334 41.778338 
L 54.141625 42.079005 
L 53.80991 42.405038 
L 53.478195 42.74964 
L 53.14648 43.104359 
L 52.814765 43.459297 
L 52.48305 43.803199 
L 52.151335 44.123541 
L 51.81962 44.406656 
L 51.487905 44.63705 
L 51.15619 44.799862 
L 50.824475 44.878149 
L 50.49276 44.853416 
L 50.161045 44.705256 
L 49.82933 44.410735 
L 49.497615 43.943702 
L 49.1659 43.27368 
L 48.834185 42.364529 
L 48.50247 41.172618 
L 48.170755 39.644469 
L 47.83904 37.713442 
L 47.507325 35.293956 
L 47.17561 32.271116 
L 46.843895 28.483801 
L 46.51218 23.706732 
L 46.180465 17.661623 
L 45.84875 10.169091 
z
" clip-path="url(#pfc7040fb73)" style="fill: #ff7f0e; fill-opacity: 0.25"/>
   </g>
   <g id="PolyCollection_3">
    <path d="M 45.84875 57.501268 
L 45.84875 57.501268 
L 46.180465 60.61143 
L 46.51218 62.98917 
L 46.843895 64.594818 
L 47.17561 65.58178 
L 47.507325 66.099275 
L 47.83904 66.263487 
L 48.170755 66.162968 
L 48.50247 65.866251 
L 48.834185 65.426661 
L 49.1659 64.88066 
L 49.497615 64.245154 
L 49.82933 63.521749 
L 50.161045 62.703225 
L 50.49276 61.779352 
L 50.824475 60.741958 
L 51.15619 59.589588 
L 51.487905 58.332133 
L 51.81962 56.99714 
L 52.151335 55.63731 
L 52.48305 54.337163 
L 52.814765 53.212234 
L 53.14648 52.388424 
L 53.478195 51.956873 
L 53.80991 51.927986 
L 54.141625 52.226996 
L 54.47334 52.736982 
L 54.805055 53.340527 
L 55.13677 53.940313 
L 55.468485 54.465864 
L 55.8002 54.872661 
L 56.131915 55.137723 
L 56.46363 55.254281 
L 56.795345 55.226701 
L 57.12706 55.066777 
L 57.458775 54.791524 
L 57.79049 54.42201 
L 58.122205 53.982489 
L 58.45392 53.500121 
L 58.785635 53.004787 
L 59.11735 52.52868 
L 59.449065 52.104967 
L 59.78078 51.76511 
L 60.112495 51.534738 
L 60.44421 51.428629 
L 60.775925 51.446435 
L 61.10764 51.571989 
L 61.439355 51.777462 
L 61.77107 52.030061 
L 62.102785 52.298127 
L 62.4345 52.554742 
L 62.766215 52.779288 
L 63.09793 52.957317 
L 63.429645 53.079662 
L 63.76136 53.141615 
L 64.093075 53.142645 
L 64.42479 53.086634 
L 64.756505 52.982227 
L 65.08822 52.842764 
L 65.419935 52.685618 
L 65.75165 52.530698 
L 66.083365 52.398322 
L 66.41508 52.306368 
L 66.746795 52.267446 
L 67.07851 52.28662 
L 67.410225 52.360611 
L 67.74194 52.478624 
L 68.073655 52.624682 
L 68.40537 52.780669 
L 68.737085 52.92925 
L 69.0688 53.056176 
L 69.400515 53.151646 
L 69.73223 53.210831 
L 70.063945 53.233705 
L 70.39566 53.224356 
L 70.727375 53.189986 
L 71.05909 53.139739 
L 71.390805 53.083536 
L 71.72252 53.030912 
L 72.054235 52.989964 
L 72.38595 52.966558 
L 72.717665 52.963693 
L 73.04938 52.98135 
L 73.381095 53.016722 
L 73.71281 53.064898 
L 74.044525 53.119796 
L 74.37624 53.175146 
L 74.707955 53.225303 
L 75.03967 53.265732 
L 75.371385 53.293276 
L 75.7031 53.306345 
L 76.034815 53.304849 
L 76.36653 53.290276 
L 76.698245 53.265547 
L 77.02996 53.234696 
L 77.361675 53.202426 
L 77.69339 53.173409 
L 78.025105 53.151635 
L 78.35682 53.139749 
L 78.688535 53.13867 
L 79.02025 53.14749 
L 79.351965 53.163751 
L 79.68368 53.18393 
L 80.015395 53.204155 
L 80.34711 53.220869 
L 80.678825 53.231369 
L 81.01054 53.234195 
L 81.342255 53.229194 
L 81.67397 53.217451 
L 82.005685 53.200939 
L 82.3374 53.182141 
L 82.669115 53.163608 
L 83.00083 53.147577 
L 83.332545 53.135639 
L 83.66426 53.128622 
L 83.995975 53.126527 
L 84.32769 53.128678 
L 84.659405 53.133864 
L 84.99112 53.140623 
L 85.322835 53.147486 
L 85.65455 53.153146 
L 85.986265 53.15665 
L 86.31798 53.157402 
L 86.649695 53.155283 
L 86.98141 53.150574 
L 87.313125 53.14395 
L 87.64484 53.136352 
L 87.976555 53.128403 
L 88.30827 53.12179 
L 88.639985 53.11847 
L 88.9717 53.120238 
L 89.303415 53.126558 
L 89.63513 53.134094 
L 89.966845 53.138799 
L 90.29856 53.139001 
L 90.630275 53.137041 
L 90.96199 53.137383 
L 91.293705 53.141218 
L 91.62542 53.144361 
L 91.957135 53.142669 
L 92.28885 53.137327 
L 92.620565 53.133857 
L 92.95228 53.136025 
L 93.283995 53.141618 
L 93.61571 53.145562 
L 93.947425 53.144824 
L 94.27914 53.140303 
L 94.610855 53.135764 
L 94.94257 53.134717 
L 95.274285 53.137403 
L 95.606 53.14111 
L 95.937715 53.143348 
L 96.26943 53.14371 
L 96.601145 53.143157 
L 96.93286 53.142464 
L 97.264575 53.141653 
L 97.59629 53.14056 
L 97.928005 53.139387 
L 98.25972 53.138528 
L 98.591435 53.13826 
L 98.92315 53.138566 
L 99.254865 53.139283 
L 99.58658 53.140317 
L 99.918295 53.141559 
L 100.25001 53.142923 
L 100.581725 53.144312 
L 100.91344 53.145631 
L 101.245155 53.146686 
L 101.57687 53.14711 
L 101.908585 53.146592 
L 102.2403 53.145189 
L 102.572015 53.143362 
L 102.90373 53.141733 
L 103.235445 53.140679 
L 103.56716 53.140278 
L 103.898875 53.140414 
L 104.23059 53.141016 
L 104.562305 53.142008 
L 104.89402 53.143143 
L 105.225735 53.144044 
L 105.55745 53.14434 
L 105.889165 53.143971 
L 106.22088 53.143143 
L 106.552595 53.142168 
L 106.88431 53.141288 
L 107.216025 53.140609 
L 107.54774 53.140157 
L 107.879455 53.139941 
L 108.21117 53.13992 
L 108.542885 53.140031 
L 108.8746 53.140209 
L 109.206315 53.140397 
L 109.53803 53.140553 
L 109.869745 53.140675 
L 110.20146 53.140752 
L 110.533175 53.140752 
L 110.86489 53.140686 
L 111.196605 53.140539 
L 111.52832 53.140317 
L 111.860035 53.140056 
L 111.860035 52.898706 
L 111.860035 52.898706 
L 111.52832 52.899044 
L 111.196605 52.899294 
L 110.86489 52.89944 
L 110.533175 52.899499 
L 110.20146 52.899492 
L 109.869745 52.899444 
L 109.53803 52.899371 
L 109.206315 52.899256 
L 108.8746 52.899096 
L 108.542885 52.898911 
L 108.21117 52.898744 
L 107.879455 52.898695 
L 107.54774 52.898876 
L 107.216025 52.899399 
L 106.88431 52.900237 
L 106.552595 52.901229 
L 106.22088 52.902127 
L 105.889165 52.902719 
L 105.55745 52.902914 
L 105.225735 52.902695 
L 104.89402 52.902044 
L 104.562305 52.901006 
L 104.23059 52.899785 
L 103.898875 52.898828 
L 103.56716 52.898608 
L 103.235445 52.899287 
L 102.90373 52.900613 
L 102.572015 52.902089 
L 102.2403 52.903373 
L 101.908585 52.904344 
L 101.57687 52.904919 
L 101.245155 52.904932 
L 100.91344 52.90424 
L 100.581725 52.9029 
L 100.25001 52.901247 
L 99.918295 52.899632 
L 99.58658 52.898264 
L 99.254865 52.897126 
L 98.92315 52.896165 
L 98.591435 52.895281 
L 98.25972 52.894484 
L 97.928005 52.893952 
L 97.59629 52.894164 
L 97.264575 52.895584 
L 96.93286 52.898045 
L 96.601145 52.900526 
L 96.26943 52.901831 
L 95.937715 52.901393 
L 95.606 52.89919 
L 95.274285 52.894606 
L 94.94257 52.885946 
L 94.610855 52.872293 
L 94.27914 52.856456 
L 93.947425 52.844675 
L 93.61571 52.842789 
L 93.283995 52.852363 
L 92.95228 52.86924 
L 92.620565 52.885665 
L 92.28885 52.895908 
L 91.957135 52.900283 
L 91.62542 52.901717 
L 91.293705 52.900293 
L 90.96199 52.892636 
L 90.630275 52.877016 
L 90.29856 52.858218 
L 89.966845 52.844344 
L 89.63513 52.840405 
L 89.303415 52.845935 
L 88.9717 52.856752 
L 88.639985 52.868412 
L 88.30827 52.878805 
L 87.976555 52.888097 
L 87.64484 52.897021 
L 87.313125 52.904905 
L 86.98141 52.91182 
L 86.649695 52.916801 
L 86.31798 52.919129 
L 85.986265 52.91851 
L 85.65455 52.915061 
L 85.322835 52.909415 
L 84.99112 52.902566 
L 84.659405 52.895835 
L 84.32769 52.890669 
L 83.995975 52.888498 
L 83.66426 52.890495 
L 83.332545 52.897366 
L 83.00083 52.909158 
L 82.669115 52.925112 
L 82.3374 52.94366 
L 82.005685 52.962562 
L 81.67397 52.979185 
L 81.342255 52.990956 
L 81.01054 52.995804 
L 80.678825 52.992609 
L 80.34711 52.981538 
L 80.015395 52.964121 
L 79.68368 52.943138 
L 79.351965 52.922213 
L 79.02025 52.905214 
L 78.688535 52.895636 
L 78.35682 52.895887 
L 78.025105 52.906882 
L 77.69339 52.927764 
L 77.361675 52.956001 
L 77.02996 52.987729 
L 76.698245 53.018309 
L 76.36653 53.042961 
L 76.034815 53.057429 
L 75.7031 53.058501 
L 75.371385 53.044458 
L 75.03967 53.015361 
L 74.707955 52.973045 
L 74.37624 52.921071 
L 74.044525 52.864336 
L 73.71281 52.808583 
L 73.381095 52.759877 
L 73.04938 52.723878 
L 72.717665 52.705192 
L 72.38595 52.706643 
L 72.054235 52.72865 
L 71.72252 52.768763 
L 71.390805 52.821506 
L 71.05909 52.878801 
L 70.727375 52.930733 
L 70.39566 52.96676 
L 70.063945 52.97711 
L 69.73223 52.954181 
L 69.400515 52.893868 
L 69.0688 52.796554 
L 68.737085 52.6677 
L 68.40537 52.517769 
L 68.073655 52.36144 
L 67.74194 52.216029 
L 67.410225 52.099131 
L 67.07851 52.025954 
L 66.746795 52.006689 
L 66.41508 52.044581 
L 66.083365 52.135206 
L 65.75165 52.266976 
L 65.419935 52.422974 
L 65.08822 52.583421 
L 64.756505 52.728354 
L 64.42479 52.839764 
L 64.093075 52.903091 
L 63.76136 52.908075 
L 63.429645 52.849186 
L 63.09793 52.72597 
L 62.766215 52.543555 
L 62.4345 52.313072 
L 62.102785 52.051772 
L 61.77107 51.782739 
L 61.439355 51.533725 
L 61.10764 51.334809 
L 60.775925 51.214837 
L 60.44421 51.197296 
L 60.112495 51.296931 
L 59.78078 51.51705 
L 59.449065 51.848046 
L 59.11735 52.268508 
L 58.785635 52.748708 
L 58.45392 53.254998 
L 58.122205 53.75337 
L 57.79049 54.211525 
L 57.458775 54.599785 
L 57.12706 54.891348 
L 56.795345 55.062562 
L 56.46363 55.094047 
L 56.131915 54.972909 
L 55.8002 54.695965 
L 55.468485 54.273394 
L 55.13677 53.732954 
L 54.805055 53.124272 
L 54.47334 52.522063 
L 54.141625 52.024544 
L 53.80991 51.742421 
L 53.478195 51.775917 
L 53.14648 52.187629 
L 52.814765 52.979112 
L 52.48305 54.078731 
L 52.151335 55.368854 
L 51.81962 56.732735 
L 51.487905 58.081435 
L 51.15619 59.357789 
L 50.824475 60.530909 
L 50.49276 61.588998 
L 50.161045 62.53271 
L 49.82933 63.370053 
L 49.497615 64.111536 
L 49.1659 64.764823 
L 48.834185 65.328546 
L 48.50247 65.785671 
L 48.170755 66.0993 
L 47.83904 66.215481 
L 47.507325 66.064892 
L 47.17561 65.558207 
L 46.843895 64.579497 
L 46.51218 62.981478 
L 46.180465 60.611409 
L 45.84875 57.501268 
z
" clip-path="url(#pfc7040fb73)" style="fill: #2ca02c; fill-opacity: 0.25"/>
   </g>
   <g id="matplotlib.axis_1">
    <g id="xtick_1">
     <g id="line2d_1">
      <defs>
       <path id="mfe127c639b" d="M 0 0 
L 0 3.5 
" style="stroke: #000000; stroke-width: 1.5"/>
      </defs>
      <g>
       <use xlink:href="#mfe127c639b" x="45.84875" y="72.52" style="stroke: #000000; stroke-width: 1.5"/>
      </g>
     </g>
     <g id="text_1">
      <text style="font: 8px 'Arial', sans-serif, serif; text-anchor: middle" x="45.84875" y="85.24625" transform="rotate(-0 45.84875 85.24625)">0</text>
     </g>
    </g>
    <g id="xtick_2">
     <g id="line2d_2">
      <g>
       <use xlink:href="#mfe127c639b" x="112.19175" y="72.52" style="stroke: #000000; stroke-width: 1.5"/>
      </g>
     </g>
     <g id="text_2">
      <text style="font: 8px 'Arial', sans-serif, serif; text-anchor: middle" x="112.19175" y="85.24625" transform="rotate(-0 112.19175 85.24625)">200</text>
     </g>
    </g>
    <g id="text_3">
     <text style="font: 8px 'Arial', sans-serif, serif; text-anchor: middle" x="79.02025" y="96.5625" transform="rotate(-0 79.02025 96.5625)">Iteration</text>
    </g>
   </g>
   <g id="matplotlib.axis_2">
    <g id="ytick_1">
     <g id="line2d_3">
      <defs>
       <path id="m03c061560b" d="M 0 0 
L -3.5 0 
" style="stroke: #000000; stroke-width: 1.5"/>
      </defs>
      <g>
       <use xlink:href="#m03c061560b" x="45.84875" y="71.759815" style="stroke: #000000; stroke-width: 1.5"/>
      </g>
     </g>
     <g id="text_4">
      <text style="font: 8px 'Arial', sans-serif, serif; text-anchor: end" x="38.84875" y="74.62294" transform="rotate(-0 38.84875 74.62294)">0.01</text>
     </g>
    </g>
    <g id="ytick_2">
     <g id="line2d_4">
      <g>
       <use xlink:href="#m03c061560b" x="45.84875" y="53.074187" style="stroke: #000000; stroke-width: 1.5"/>
      </g>
     </g>
     <g id="text_5">
      <text style="font: 8px 'Arial', sans-serif, serif; text-anchor: end" x="38.84875" y="55.937312" transform="rotate(-0 38.84875 55.937312)">0.02</text>
     </g>
    </g>
    <g id="ytick_3">
     <g id="line2d_5">
      <g>
       <use xlink:href="#m03c061560b" x="45.84875" y="34.388559" style="stroke: #000000; stroke-width: 1.5"/>
      </g>
     </g>
     <g id="text_6">
      <text style="font: 8px 'Arial', sans-serif, serif; text-anchor: end" x="38.84875" y="37.251684" transform="rotate(-0 38.84875 37.251684)">0.03</text>
     </g>
    </g>
    <g id="ytick_4">
     <g id="line2d_6">
      <g>
       <use xlink:href="#m03c061560b" x="45.84875" y="15.702931" style="stroke: #000000; stroke-width: 1.5"/>
      </g>
     </g>
     <g id="text_7">
      <text style="font: 8px 'Arial', sans-serif, serif; text-anchor: end" x="38.84875" y="18.566056" transform="rotate(-0 38.84875 18.566056)">0.04</text>
     </g>
    </g>
    <g id="text_8">
     <!-- $g_K$ (S/cm$^2$) -->
     <g transform="translate(16.88 58.94) rotate(-90)">
      <text>
       <tspan style="font: 8px 'Arial'" x="0 8.722012 10.944669 13.608731 18.944669 21.167325 25.167325 35.483478" y="-0.39949999999999974">g (S/cm)</tspan>
       <tspan style="font: 5.6px 'Arial'" x="4.588606 31.970775" y="1.9900000000000002 -5.975">K2</tspan>
      </text>
     </g>
    </g>
   </g>
   <g id="line2d_7">
    <path d="M 45.84875 69.550906 
L 46.843895 62.375457 
L 47.83904 54.185568 
L 48.170755 52.467183 
L 48.50247 51.933492 
L 48.834185 52.269068 
L 49.497615 54.148254 
L 50.161045 56.142263 
L 50.824475 57.422961 
L 51.15619 57.719925 
L 51.487905 57.786033 
L 51.81962 57.632144 
L 52.151335 57.275396 
L 52.814765 56.047118 
L 53.80991 53.413881 
L 54.805055 50.94933 
L 55.468485 50.036925 
L 55.8002 49.865278 
L 56.131915 49.867951 
L 56.795345 50.261269 
L 58.122205 51.424038 
L 58.785635 51.712416 
L 59.449065 51.746911 
L 60.775925 51.64171 
L 61.439355 51.809013 
L 63.429645 52.600165 
L 64.093075 52.557954 
L 65.75165 52.182672 
L 66.41508 52.277856 
L 67.410225 52.742495 
L 68.40537 53.203511 
L 69.0688 53.321541 
L 70.063945 53.211266 
L 71.390805 52.985265 
L 72.38595 53.031301 
L 74.37624 53.199881 
L 82.005685 53.032746 
L 84.659405 52.987646 
L 89.303415 53.006332 
L 111.860035 53.017181 
L 111.860035 53.017181 
" clip-path="url(#pfc7040fb73)" style="fill: none; stroke: #1f77b4; stroke-width: 1.5; stroke-linecap: square"/>
   </g>
   <g id="line2d_8">
    <path d="M 45.84875 10.169105 
L 46.51218 23.71757 
L 47.17561 32.299248 
L 47.83904 37.75029 
L 48.50247 41.213489 
L 49.1659 43.317492 
L 49.82933 44.459118 
L 50.49276 44.908672 
L 51.15619 44.863851 
L 51.81962 44.480547 
L 52.814765 43.548794 
L 54.47334 41.888349 
L 55.468485 41.186919 
L 56.46363 40.780658 
L 57.79049 40.532327 
L 59.449065 40.221148 
L 60.775925 39.752287 
L 62.766215 38.983671 
L 63.76136 38.869508 
L 64.42479 38.979752 
L 65.08822 39.254298 
L 66.083365 39.941326 
L 67.74194 41.491767 
L 69.400515 42.99171 
L 71.05909 44.195907 
L 74.37624 46.50704 
L 77.361675 48.707117 
L 79.351965 49.828514 
L 82.005685 51.034309 
L 84.32769 51.865295 
L 86.649695 52.418735 
L 89.63513 52.880284 
L 92.620565 53.097322 
L 97.264575 53.165665 
L 111.860035 53.011828 
L 111.860035 53.011828 
" clip-path="url(#pfc7040fb73)" style="fill: none; stroke: #ff7f0e; stroke-width: 1.5; stroke-linecap: square"/>
   </g>
   <g id="line2d_9">
    <path d="M 45.84875 57.501268 
L 46.51218 62.985324 
L 46.843895 64.587158 
L 47.17561 65.569993 
L 47.507325 66.082084 
L 47.83904 66.239484 
L 48.170755 66.131134 
L 48.834185 65.377604 
L 49.497615 64.178345 
L 50.161045 62.617967 
L 50.824475 60.636433 
L 51.81962 56.864937 
L 52.814765 53.095673 
L 53.14648 52.288026 
L 53.478195 51.866395 
L 53.80991 51.835203 
L 54.141625 52.12577 
L 55.13677 53.836633 
L 55.8002 54.784313 
L 56.131915 55.055316 
L 56.46363 55.174164 
L 56.795345 55.144632 
L 57.458775 54.695655 
L 58.122205 53.86793 
L 59.449065 51.976507 
L 60.112495 51.415835 
L 60.44421 51.312962 
L 61.10764 51.453399 
L 62.102785 52.174949 
L 63.09793 52.841644 
L 63.76136 53.024845 
L 64.42479 52.963199 
L 65.419935 52.554296 
L 66.41508 52.175475 
L 67.07851 52.156287 
L 67.74194 52.347326 
L 69.400515 53.022757 
L 70.39566 53.095558 
L 73.381095 52.888299 
L 76.034815 53.181139 
L 80.34711 53.101203 
L 82.3374 53.062901 
L 84.99112 53.021594 
L 88.639985 52.993441 
L 94.94257 53.010332 
L 102.2403 53.024281 
L 111.860035 53.019381 
L 111.860035 53.019381 
" clip-path="url(#pfc7040fb73)" style="fill: none; stroke: #2ca02c; stroke-width: 1.5; stroke-linecap: square"/>
   </g>
   <g id="line2d_10">
    <path d="M 45.84875 53.074187 
L 112.19175 53.074187 
" clip-path="url(#pfc7040fb73)" style="fill: none; stroke-dasharray: 5.55,2.4; stroke-dashoffset: 0; stroke: #000000; stroke-width: 1.5"/>
   </g>
   <g id="patch_3">
    <path d="M 45.84875 72.52 
L 45.84875 7.2 
" style="fill: none; stroke: #000000; stroke-width: 1.5; stroke-linejoin: miter; stroke-linecap: square"/>
   </g>
   <g id="patch_4">
    <path d="M 45.84875 72.52 
L 112.19175 72.52 
" style="fill: none; stroke: #000000; stroke-width: 1.5; stroke-linejoin: miter; stroke-linecap: square"/>
   </g>
   <g id="legend_1">
    <g id="line2d_11">
     <path d="M 53.04875 17.32625 
L 61.04875 17.32625 
L 69.04875 17.32625 
" style="fill: none; stroke-dasharray: 5.55,2.4; stroke-dashoffset: 0; stroke: #000000; stroke-width: 1.5"/>
    </g>
    <g id="text_9">
     <text style="font: 8px 'Arial', sans-serif, serif; text-anchor: start" x="75.44875" y="20.12625" transform="rotate(-0 75.44875 20.12625)">True value</text>
    </g>
   </g>
  </g>
 </g>
 <defs>
  <clipPath id="pfc7040fb73">
   <rect x="45.84875" y="7.2" width="66.343" height="65.32"/>
  </clipPath>
 </defs>
</svg>
