<?xml version="1.0" encoding="utf-8" standalone="no"?>
<!DOCTYPE svg PUBLIC "-//W3C//DTD SVG 1.1//EN"
  "http://www.w3.org/Graphics/SVG/1.1/DTD/svg11.dtd">
<svg xmlns:xlink="http://www.w3.org/1999/xlink" width="130.110328pt" height="141.713113pt" viewBox="0 0 130.110328 141.713113" xmlns="http://www.w3.org/2000/svg" version="1.1">
 <metadata>
  <rdf:RDF xmlns:dc="http://purl.org/dc/elements/1.1/" xmlns:cc="http://creativecommons.org/ns#" xmlns:rdf="http://www.w3.org/1999/02/22-rdf-syntax-ns#">
   <cc:Work>
    <dc:type rdf:resource="http://purl.org/dc/dcmitype/StillImage"/>
    <dc:date>2025-10-25T01:11:51.786427</dc:date>
    <dc:format>image/svg+xml</dc:format>
    <dc:creator>
     <cc:Agent>
      <dc:title>Matplotlib v3.9.2, https://matplotlib.org/</dc:title>
     </cc:Agent>
    </dc:creator>
   </cc:Work>
  </rdf:RDF>
 </metadata>
 <defs>
  <style type="text/css">*{stroke-linejoin: round; stroke-linecap: butt}</style>
 </defs>
 <g id="figure_1">
  <g id="patch_1">
   <path d="M 0 141.713113 
L 130.110328 141.713113 
L 130.110328 0 
L 0 0 
z
" style="fill: #ffffff"/>
  </g>
  <g id="axes_1">
   <g id="patch_2">
    <path d="M 45.94875 108.689363 
L 122.005 108.689363 
L 122.005 8.276519 
L 45.94875 8.276519 
z
" style="fill: #ffffff"/>
   </g>
   <g id="matplotlib.axis_1">
    <g id="xtick_1">
     <g id="line2d_1">
      <defs>
       <path id="m195389631c" d="M 0 0 
L 0 3.5 
" style="stroke: #000000; stroke-width: 1.5"/>
      </defs>
      <g>
       <use xlink:href="#m195389631c" x="49.405852" y="108.689363" style="stroke: #000000; stroke-width: 1.5"/>
      </g>
     </g>
     <g id="text_1">
      <text style="font: 8px 'Arial', sans-serif, serif; text-anchor: middle" x="49.405852" y="121.415613" transform="rotate(-0 49.405852 121.415613)">0</text>
     </g>
    </g>
    <g id="xtick_2">
     <g id="line2d_2">
      <g>
       <use xlink:href="#m195389631c" x="83.933715" y="108.689363" style="stroke: #000000; stroke-width: 1.5"/>
      </g>
     </g>
     <g id="text_2">
      <text style="font: 8px 'Arial', sans-serif, serif; text-anchor: middle" x="83.933715" y="121.415613" transform="rotate(-0 83.933715 121.415613)">10</text>
     </g>
    </g>
    <g id="xtick_3">
     <g id="line2d_3">
      <g>
       <use xlink:href="#m195389631c" x="118.461578" y="108.689363" style="stroke: #000000; stroke-width: 1.5"/>
      </g>
     </g>
     <g id="text_3">
      <text style="font: 8px 'Arial', sans-serif, serif; text-anchor: middle" x="118.461578" y="121.415613" transform="rotate(-0 118.461578 121.415613)">20</text>
     </g>
    </g>
    <g id="text_4">
     <text style="font: 8px 'Arial', sans-serif, serif; text-anchor: middle" x="83.976875" y="132.829363" transform="rotate(-0 83.976875 132.829363)">Time (ms)</text>
    </g>
   </g>
   <g id="matplotlib.axis_2">
    <g id="ytick_1">
     <g id="line2d_4">
      <defs>
       <path id="m60e8f5c33e" d="M 0 0 
L -3.5 0 
" style="stroke: #000000; stroke-width: 1.5"/>
      </defs>
      <g>
       <use xlink:href="#m60e8f5c33e" x="45.94875" y="93.432547" style="stroke: #000000; stroke-width: 1.5"/>
      </g>
     </g>
     <g id="text_5">
      <text style="font: 8px 'Arial', sans-serif, serif; text-anchor: end" x="38.94875" y="96.295672" transform="rotate(-0 38.94875 96.295672)">−0.05</text>
     </g>
    </g>
    <g id="ytick_2">
     <g id="line2d_5">
      <g>
       <use xlink:href="#m60e8f5c33e" x="45.94875" y="72.590191" style="stroke: #000000; stroke-width: 1.5"/>
      </g>
     </g>
     <g id="text_6">
      <text style="font: 8px 'Arial', sans-serif, serif; text-anchor: end" x="38.94875" y="75.453316" transform="rotate(-0 38.94875 75.453316)">0.00</text>
     </g>
    </g>
    <g id="ytick_3">
     <g id="line2d_6">
      <g>
       <use xlink:href="#m60e8f5c33e" x="45.94875" y="51.747836" style="stroke: #000000; stroke-width: 1.5"/>
      </g>
     </g>
     <g id="text_7">
      <text style="font: 8px 'Arial', sans-serif, serif; text-anchor: end" x="38.94875" y="54.610961" transform="rotate(-0 38.94875 54.610961)">0.05</text>
     </g>
    </g>
    <g id="ytick_4">
     <g id="line2d_7">
      <g>
       <use xlink:href="#m60e8f5c33e" x="45.94875" y="30.90548" style="stroke: #000000; stroke-width: 1.5"/>
      </g>
     </g>
     <g id="text_8">
      <text style="font: 8px 'Arial', sans-serif, serif; text-anchor: end" x="38.94875" y="33.768605" transform="rotate(-0 38.94875 33.768605)">0.10</text>
     </g>
    </g>
    <g id="ytick_5">
     <g id="line2d_8">
      <g>
       <use xlink:href="#m60e8f5c33e" x="45.94875" y="10.063125" style="stroke: #000000; stroke-width: 1.5"/>
      </g>
     </g>
     <g id="text_9">
      <text style="font: 8px 'Arial', sans-serif, serif; text-anchor: end" x="38.94875" y="12.92625" transform="rotate(-0 38.94875 12.92625)">0.15</text>
     </g>
    </g>
    <g id="text_10">
     <text style="font: 8px 'Arial', sans-serif, serif; text-anchor: middle" x="13.02375" y="58.482941" transform="rotate(-90 13.02375 58.482941)">Voltage (mV)</text>
    </g>
   </g>
   <g id="line2d_9">
    <path d="M 49.405852 82.164999 
L 49.578492 73.119829 
L 49.664811 73.305823 
L 49.751131 74.37909 
L 49.837451 92.808396 
L 49.92377 61.894559 
L 50.01009 64.175474 
L 50.09641 68.059124 
L 50.182729 55.421662 
L 50.441688 84.609982 
L 50.528008 62.867129 
L 50.614327 75.925316 
L 50.700647 51.555338 
L 50.873286 67.610515 
L 50.959606 67.407366 
L 51.132245 42.915545 
L 51.304885 63.623955 
L 51.391204 100.262837 
L 51.477524 62.362104 
L 51.650163 83.339103 
L 51.736483 77.343787 
L 51.822803 56.84706 
L 51.909122 97.979965 
L 51.995442 65.055606 
L 52.168081 82.464484 
L 52.254401 69.64569 
L 52.340721 87.405235 
L 52.42704 70.659009 
L 52.51336 90.130553 
L 52.59968 73.880143 
L 52.685999 77.492322 
L 52.772319 90.452497 
L 52.858639 82.33583 
L 52.944958 93.964742 
L 53.031278 66.704938 
L 53.117598 70.635333 
L 53.290237 38.853692 
L 53.462876 70.358915 
L 53.549196 50.861933 
L 53.635515 52.629426 
L 53.808155 60.089534 
L 53.894474 61.515933 
L 54.067114 45.194358 
L 54.239753 63.226215 
L 54.326073 62.919372 
L 54.498712 54.749293 
L 54.585032 76.433261 
L 54.671351 42.012674 
L 54.757671 43.020299 
L 54.843991 30.362877 
L 54.93031 83.77456 
L 55.01663 45.228244 
L 55.10295 46.597109 
L 55.189269 50.146528 
L 55.275589 66.298415 
L 55.361909 41.435007 
L 55.448228 57.151664 
L 55.534548 42.333133 
L 55.620868 62.866829 
L 55.793507 30.589344 
L 55.879827 67.714186 
L 56.052466 46.444018 
L 56.138786 55.478391 
L 56.225105 36.568352 
L 56.397745 55.033933 
L 56.570384 21.839717 
L 56.656703 27.716117 
L 56.743023 61.716713 
L 56.829343 61.492794 
L 56.915662 53.528068 
L 57.001982 57.75572 
L 57.088302 31.16144 
L 57.174621 47.653549 
L 57.260941 13.373987 
L 57.347261 70.015613 
L 57.43358 50.642851 
L 57.5199 67.998572 
L 57.60622 44.575116 
L 57.692539 64.748555 
L 57.778859 61.241607 
L 57.951498 77.205331 
L 58.037818 38.136511 
L 58.124138 67.14561 
L 58.210457 57.645422 
L 58.296777 68.926856 
L 58.555736 48.633625 
L 58.642056 49.652567 
L 58.901015 70.960765 
L 59.073654 49.389143 
L 59.159974 68.385583 
L 59.246293 32.514551 
L 59.332613 75.114751 
L 59.591572 26.265465 
L 59.677891 57.840196 
L 59.764211 38.321785 
L 59.850531 88.098963 
L 59.93685 64.169446 
L 60.02317 67.097064 
L 60.10949 62.69651 
L 60.195809 52.524394 
L 60.282129 53.631713 
L 60.368449 55.300743 
L 60.454768 36.759128 
L 60.541088 68.607502 
L 60.627408 51.220468 
L 60.800047 63.856702 
L 60.886367 22.837426 
L 60.972686 69.06708 
L 61.059006 61.066394 
L 61.145326 61.792793 
L 61.231645 44.830864 
L 61.317965 47.56964 
L 61.490604 59.767911 
L 61.576924 89.135354 
L 61.749563 57.627203 
L 61.835883 55.403014 
L 61.922203 43.499111 
L 62.094842 73.856554 
L 62.181162 54.868399 
L 62.267481 63.472042 
L 62.353801 54.990471 
L 62.440121 58.496882 
L 62.52644 49.749641 
L 62.699079 70.49838 
L 62.785399 70.420006 
L 62.871719 53.606727 
L 63.044358 75.884529 
L 63.130678 61.621903 
L 63.216997 78.709759 
L 63.303317 58.351557 
L 63.389637 87.402112 
L 63.562276 60.745642 
L 63.734915 83.988299 
L 63.821235 65.777676 
L 63.907555 72.187854 
L 64.080194 55.872679 
L 64.166514 88.5412 
L 64.339153 48.063895 
L 64.425473 79.969817 
L 64.511792 63.940223 
L 64.598112 64.75524 
L 64.770751 59.803086 
L 64.857071 86.992117 
L 64.943391 82.016061 
L 65.02971 48.329952 
L 65.20235 62.826618 
L 65.288669 54.729943 
L 65.374989 35.296712 
L 65.547628 71.64818 
L 65.633948 62.93875 
L 65.720267 74.488095 
L 65.806587 59.060213 
L 65.892907 68.752447 
L 65.979226 54.543892 
L 66.065546 56.699774 
L 66.151866 45.138106 
L 66.238185 74.128549 
L 66.410825 51.082009 
L 66.669784 78.370777 
L 66.756103 64.887586 
L 66.842423 92.502823 
L 66.928743 86.320435 
L 67.187702 38.279582 
L 67.446661 69.754304 
L 67.53298 63.621696 
L 67.6193 65.65392 
L 67.791939 88.685495 
L 67.878259 58.997973 
L 68.050898 73.379688 
L 68.137218 76.634844 
L 68.223538 66.1422 
L 68.309857 74.611077 
L 68.396177 36.981548 
L 68.482497 67.822685 
L 68.568816 64.367322 
L 68.655136 59.666826 
L 68.741455 74.158296 
L 68.827775 54.504814 
L 68.914095 74.222976 
L 69.000414 73.211689 
L 69.086734 68.811941 
L 69.173054 44.498888 
L 69.432013 66.340915 
L 69.518332 61.141875 
L 69.604652 92.928663 
L 69.777291 59.797336 
L 70.03625 69.429039 
L 70.20889 40.488358 
L 70.381529 72.608109 
L 70.467849 63.447511 
L 70.554168 66.51069 
L 70.640488 78.263568 
L 70.726808 44.954936 
L 70.813127 70.04229 
L 70.899447 67.669461 
L 70.985767 59.473664 
L 71.072086 74.591033 
L 71.158406 44.597118 
L 71.417365 91.964219 
L 71.848963 51.025327 
L 72.107922 76.85996 
L 72.280561 58.860457 
L 72.366881 72.093454 
L 72.453201 62.041793 
L 72.53952 84.476943 
L 72.62584 82.809233 
L 72.71216 57.423102 
L 72.798479 70.344626 
L 72.884799 52.247816 
L 72.971119 56.506132 
L 73.057438 72.656948 
L 73.143758 69.197687 
L 73.230078 57.840893 
L 73.316397 75.12682 
L 73.402717 51.441128 
L 73.661676 83.808175 
L 73.747996 59.595565 
L 73.834315 98.534079 
L 73.920635 91.768032 
L 74.093274 64.069283 
L 74.179594 52.861534 
L 74.265914 82.475317 
L 74.524873 52.296788 
L 74.783832 78.50213 
L 74.870151 58.928147 
L 74.956471 62.536413 
L 75.04279 70.556984 
L 75.12911 70.427389 
L 75.21543 38.989699 
L 75.388069 76.475909 
L 75.474389 71.952599 
L 75.560708 89.464507 
L 75.819667 36.512181 
L 76.078626 68.657496 
L 76.164946 48.962809 
L 76.251266 101.967607 
L 76.337585 34.252834 
L 76.423905 96.012808 
L 76.510225 71.410023 
L 76.596544 73.747086 
L 76.682864 73.805802 
L 76.941823 37.974103 
L 77.114462 77.441432 
L 77.200782 54.529599 
L 77.373421 77.205474 
L 77.546061 45.918223 
L 77.63238 78.236519 
L 77.7187 60.714124 
L 77.80502 78.436658 
L 77.891339 75.94016 
L 78.063978 72.228902 
L 78.150298 73.965193 
L 78.236618 63.417293 
L 78.322937 76.146298 
L 78.409257 63.825918 
L 78.668216 78.606949 
L 78.840855 55.790493 
L 78.927175 82.214345 
L 79.013495 59.230522 
L 79.099814 59.59898 
L 79.272454 89.5863 
L 79.445093 52.597452 
L 79.531413 59.842241 
L 79.617732 55.216614 
L 79.704052 86.965092 
L 79.790372 80.415062 
L 79.876691 62.338219 
L 80.049331 90.269364 
L 80.30829 34.302663 
L 80.394609 98.019299 
L 80.480929 54.028082 
L 80.567249 66.340329 
L 80.653568 92.98681 
L 80.912527 64.73126 
L 80.998847 75.463316 
L 81.085166 70.045005 
L 81.257806 81.40842 
L 81.344125 59.156695 
L 81.430445 92.707284 
L 81.603084 52.61311 
L 81.689404 62.905949 
L 81.775724 53.896135 
L 81.862043 69.304048 
L 81.948363 55.943874 
L 82.034683 70.097459 
L 82.121002 60.135586 
L 82.207322 30.961331 
L 82.293642 41.06086 
L 82.379961 36.585211 
L 82.552601 58.971329 
L 82.63892 19.930308 
L 82.81156 56.36082 
L 82.897879 57.622553 
L 82.984199 54.647794 
L 83.070519 27.815853 
L 83.156838 32.790449 
L 83.329478 64.544968 
L 83.502117 12.840739 
L 83.588437 60.645913 
L 83.674756 55.132905 
L 83.761076 54.436945 
L 83.847396 46.723184 
L 83.933715 61.000625 
L 84.020035 32.248334 
L 84.106354 34.027251 
L 84.192674 56.931487 
L 84.278994 38.986785 
L 84.365313 53.712897 
L 84.537953 26.924533 
L 84.624272 43.517653 
L 84.710592 26.538101 
L 84.796912 61.251465 
L 84.969551 27.126325 
L 85.22851 54.664413 
L 85.31483 34.037108 
L 85.401149 50.670948 
L 85.487469 19.530696 
L 85.660108 42.263212 
L 85.832748 31.23198 
L 85.919067 59.4408 
L 86.005387 56.562372 
L 86.091707 28.946008 
L 86.178026 31.787016 
L 86.264346 35.413262 
L 86.350666 22.251714 
L 86.523305 43.149661 
L 86.609625 38.493685 
L 86.695944 86.827298 
L 86.782264 29.963523 
L 86.954903 71.391485 
L 87.041223 59.274382 
L 87.127542 74.483162 
L 87.300182 32.540094 
L 87.472821 48.665291 
L 87.559141 49.568965 
L 87.64546 65.24885 
L 87.8181 41.213594 
L 87.904419 36.128553 
L 88.077059 64.268324 
L 88.163378 42.058073 
L 88.249698 62.716521 
L 88.336018 56.449328 
L 88.422337 63.792599 
L 88.508657 48.065298 
L 88.594977 49.081554 
L 88.681296 58.720158 
L 88.853936 37.99578 
L 88.940255 66.725347 
L 89.026575 53.260202 
L 89.112895 56.026984 
L 89.199214 82.764 
L 89.371854 42.450979 
L 89.458173 74.569749 
L 89.630813 59.623176 
L 89.717132 55.794733 
L 89.803452 73.113349 
L 89.889772 44.013345 
L 89.976091 54.075531 
L 90.062411 87.223562 
L 90.14873 56.178292 
L 90.23505 62.346057 
L 90.32137 73.179289 
L 90.494009 44.246172 
L 90.666648 86.477606 
L 90.752968 73.410773 
L 90.839288 45.804772 
L 90.925607 62.571345 
L 91.011927 58.707568 
L 91.098247 69.277045 
L 91.184566 65.883043 
L 91.270886 77.723353 
L 91.357206 65.508081 
L 91.443525 84.427997 
L 91.616165 58.138504 
L 91.702484 58.619289 
L 91.788804 65.815672 
L 91.875124 82.688915 
L 91.961443 52.664334 
L 92.134083 81.6219 
L 92.220402 57.509101 
L 92.306722 78.97526 
L 92.393042 52.602294 
L 92.479361 62.457484 
L 92.565681 41.817447 
L 92.652001 68.072266 
L 92.73832 62.501506 
L 92.82464 57.630279 
L 92.997279 77.465702 
L 93.083599 69.212753 
L 93.169918 71.677177 
L 93.256238 63.771643 
L 93.342558 83.915414 
L 93.515197 54.399827 
L 93.601517 71.013424 
L 93.687836 60.26382 
L 93.774156 62.508894 
L 93.946795 77.31856 
L 94.033115 70.496591 
L 94.119435 42.711243 
L 94.205754 74.128967 
L 94.292074 37.389373 
L 94.378394 100.058814 
L 94.464713 83.691586 
L 94.637353 46.506501 
L 94.723672 85.199726 
L 94.809992 52.147157 
L 95.068951 83.322284 
L 95.155271 58.81681 
L 95.24159 74.878655 
L 95.41423 65.963298 
L 95.500549 77.416101 
L 95.673189 47.309215 
L 95.845828 54.457084 
L 95.932148 54.236661 
L 96.104787 89.880949 
L 96.363746 48.263294 
L 96.450065 45.982173 
L 96.622705 81.726681 
L 96.709024 49.256142 
L 96.881664 80.717332 
L 96.967983 52.096201 
L 97.054303 78.659904 
L 97.140623 66.781478 
L 97.226942 73.527115 
L 97.313262 70.732466 
L 97.399582 84.461251 
L 97.485901 67.244417 
L 97.572221 82.042658 
L 97.658541 60.601531 
L 97.74486 62.143293 
L 97.83118 51.541159 
L 98.003819 59.087199 
L 98.090139 91.813603 
L 98.176459 90.329384 
L 98.262778 60.680979 
L 98.349098 78.250131 
L 98.435418 72.782618 
L 98.521737 74.68698 
L 98.608057 65.247512 
L 98.694377 68.347112 
L 98.953336 58.836165 
L 99.039655 76.513915 
L 99.125975 57.977782 
L 99.212295 73.678586 
L 99.384934 61.56932 
L 99.471253 78.807877 
L 99.557573 72.770008 
L 99.643893 83.053641 
L 99.816532 46.280116 
L 99.902852 50.985808 
L 99.989171 73.404354 
L 100.075491 48.292279 
L 100.161811 83.841491 
L 100.24813 70.196304 
L 100.33445 71.700049 
L 100.42077 77.928166 
L 100.679729 44.419251 
L 100.766048 83.313078 
L 100.938688 51.448882 
L 101.025007 68.68837 
L 101.111327 50.946066 
L 101.197647 81.652263 
L 101.370286 60.028109 
L 101.456606 73.963541 
L 101.542925 50.328598 
L 101.629245 50.747606 
L 101.715565 77.25439 
L 101.888204 54.92876 
L 101.974524 88.661973 
L 102.060843 67.045451 
L 102.147163 79.125532 
L 102.233483 47.383665 
L 102.319802 71.360365 
L 102.406122 60.626713 
L 102.492441 67.69827 
L 102.578761 103.267941 
L 102.665081 54.611575 
L 102.7514 63.611532 
L 102.83772 63.30161 
L 102.92404 73.715185 
L 103.010359 51.396385 
L 103.182999 96.753246 
L 103.269318 60.052705 
L 103.355638 69.279171 
L 103.441958 76.374637 
L 103.528277 62.531295 
L 103.614597 77.221478 
L 103.700917 50.327149 
L 103.787236 50.35809 
L 103.959876 75.866522 
L 104.046195 51.036901 
L 104.218835 69.048428 
L 104.305154 65.883432 
L 104.391474 87.690026 
L 104.564113 68.260169 
L 104.736753 94.972225 
L 104.823072 67.198875 
L 104.909392 70.204132 
L 105.082031 57.099531 
L 105.168351 65.001643 
L 105.254671 50.9913 
L 105.34099 88.379552 
L 105.42731 75.115481 
L 105.513629 101.365457 
L 105.686269 54.813216 
L 105.858908 85.570948 
L 105.945228 75.358794 
L 106.031547 77.745065 
L 106.117867 80.673128 
L 106.290506 57.1748 
L 106.463146 84.930834 
L 106.549465 77.773321 
L 106.635785 50.673172 
L 106.808424 104.125143 
L 106.894744 68.558237 
L 106.981064 76.761362 
L 107.067383 73.55664 
L 107.153703 90.377646 
L 107.326342 44.72132 
L 107.498982 47.655511 
L 107.585301 70.631419 
L 107.671621 45.073782 
L 107.757941 74.42017 
L 107.84426 45.985294 
L 107.93058 65.301382 
L 108.0169 49.785514 
L 108.103219 54.976626 
L 108.189539 53.003213 
L 108.275859 53.877975 
L 108.362178 50.61572 
L 108.448498 29.66883 
L 108.534817 34.793129 
L 108.621137 64.732118 
L 108.793776 27.984449 
L 108.880096 46.14267 
L 108.966416 18.861561 
L 109.139055 56.669488 
L 109.225375 42.808212 
L 109.311694 49.774967 
L 109.398014 48.436598 
L 109.484334 45.205396 
L 109.570653 32.120771 
L 109.743293 81.065552 
L 109.829612 29.091965 
L 109.915932 40.777406 
L 110.002252 49.674935 
L 110.088571 38.153987 
L 110.261211 52.150297 
L 110.34753 24.27388 
L 110.52017 56.241226 
L 110.606489 58.341536 
L 110.692809 39.839888 
L 110.865448 58.940356 
L 111.038088 35.007813 
L 111.124407 32.558778 
L 111.210727 53.720355 
L 111.297047 31.771876 
L 111.383366 43.783411 
L 111.469686 39.630048 
L 111.556005 57.540065 
L 111.642325 31.769296 
L 111.728645 68.083772 
L 111.901284 29.381749 
L 111.987604 56.738906 
L 112.073923 46.103876 
L 112.160243 51.946829 
L 112.332882 20.042721 
L 112.419202 53.396113 
L 112.505522 40.148172 
L 112.591841 49.535151 
L 112.678161 42.729974 
L 112.764481 47.32947 
L 112.8508 25.755272 
L 112.93712 37.842899 
L 113.02344 31.718707 
L 113.109759 55.765823 
L 113.196079 36.552738 
L 113.455038 51.154786 
L 113.541358 40.587672 
L 113.627677 49.590624 
L 113.713997 25.460712 
L 113.972956 56.196211 
L 114.059276 44.787889 
L 114.231915 68.303355 
L 114.318235 38.44141 
L 114.577193 72.581344 
L 114.663513 38.458939 
L 114.922472 72.962177 
L 115.008792 31.146669 
L 115.095111 61.301141 
L 115.181431 59.599277 
L 115.267751 56.382636 
L 115.35407 76.829951 
L 115.44039 47.228274 
L 115.52671 52.126206 
L 115.699349 61.608978 
L 115.785669 54.322859 
L 115.871988 74.654648 
L 116.044628 59.111611 
L 116.130947 60.662608 
L 116.217267 47.251205 
L 116.303587 83.147869 
L 116.476226 40.031643 
L 116.562546 47.152336 
L 116.648865 60.789243 
L 116.735185 44.561352 
L 116.907824 77.634242 
L 116.994144 72.982611 
L 117.080464 73.241742 
L 117.166783 46.443917 
L 117.253103 75.677509 
L 117.339423 56.270011 
L 117.425742 61.075292 
L 117.512062 101.089837 
L 117.598381 49.551907 
L 117.684701 59.622165 
L 117.771021 60.327303 
L 118.02998 86.362863 
L 118.202619 54.162131 
L 118.375258 70.04106 
L 118.461578 64.772854 
L 118.547898 73.016664 
L 118.547898 73.016664 
" clip-path="url(#pa0af864f19)" style="fill: none; stroke: #000000; stroke-width: 0.8; stroke-linecap: square"/>
   </g>
   <g id="patch_3">
    <path d="M 45.94875 108.689363 
L 45.94875 8.276519 
" style="fill: none; stroke: #000000; stroke-width: 1.5; stroke-linejoin: miter; stroke-linecap: square"/>
   </g>
   <g id="patch_4">
    <path d="M 45.94875 108.689363 
L 122.005 108.689363 
" style="fill: none; stroke: #000000; stroke-width: 1.5; stroke-linejoin: miter; stroke-linecap: square"/>
   </g>
  </g>
 </g>
 <defs>
  <clipPath id="pa0af864f19">
   <rect x="45.94875" y="8.276519" width="76.05625" height="100.412844"/>
  </clipPath>
 </defs>
</svg>
