<?xml version="1.0" encoding="utf-8" standalone="no"?>
<!DOCTYPE svg PUBLIC "-//W3C//DTD SVG 1.1//EN"
  "http://www.w3.org/Graphics/SVG/1.1/DTD/svg11.dtd">
<svg xmlns:xlink="http://www.w3.org/1999/xlink" width="130.268731pt" height="141.54375pt" viewBox="0 0 130.268731 141.54375" xmlns="http://www.w3.org/2000/svg" version="1.1">
 <metadata>
  <rdf:RDF xmlns:dc="http://purl.org/dc/elements/1.1/" xmlns:cc="http://creativecommons.org/ns#" xmlns:rdf="http://www.w3.org/1999/02/22-rdf-syntax-ns#">
   <cc:Work>
    <dc:type rdf:resource="http://purl.org/dc/dcmitype/StillImage"/>
    <dc:date>2025-10-23T02:38:07.836254</dc:date>
    <dc:format>image/svg+xml</dc:format>
    <dc:creator>
     <cc:Agent>
      <dc:title>Matplotlib v3.9.2, https://matplotlib.org/</dc:title>
     </cc:Agent>
    </dc:creator>
   </cc:Work>
  </rdf:RDF>
 </metadata>
 <defs>
  <style type="text/css">*{stroke-linejoin: round; stroke-linecap: butt}</style>
 </defs>
 <g id="figure_1">
  <g id="patch_1">
   <path d="M 0 141.54375 
L 130.268731 141.54375 
L 130.268731 0 
L 0 0 
z
" style="fill: #ffffff"/>
  </g>
  <g id="axes_1">
   <g id="patch_2">
    <path d="M 50.3975 108.52 
L 121.95375 108.52 
L 121.95375 7.2 
L 50.3975 7.2 
z
" style="fill: #ffffff"/>
   </g>
   <g id="matplotlib.axis_1">
    <g id="xtick_1">
     <g id="line2d_1">
      <defs>
       <path id="maaf059d4aa" d="M 0 0 
L 0 3.5 
" style="stroke: #000000; stroke-width: 1.5"/>
      </defs>
      <g>
       <use xlink:href="#maaf059d4aa" x="53.650057" y="108.52" style="stroke: #000000; stroke-width: 1.5"/>
      </g>
     </g>
     <g id="text_1">
      <text style="font: 8px 'Arial', sans-serif, serif; text-anchor: middle" x="53.650057" y="121.24625" transform="rotate(-0 53.650057 121.24625)">0</text>
     </g>
    </g>
    <g id="xtick_2">
     <g id="line2d_2">
      <g>
       <use xlink:href="#maaf059d4aa" x="118.619981" y="108.52" style="stroke: #000000; stroke-width: 1.5"/>
      </g>
     </g>
     <g id="text_2">
      <text style="font: 8px 'Arial', sans-serif, serif; text-anchor: middle" x="118.619981" y="121.24625" transform="rotate(-0 118.619981 121.24625)">20</text>
     </g>
    </g>
    <g id="text_3">
     <text style="font: 8px 'Arial', sans-serif, serif; text-anchor: middle" x="86.175625" y="132.66" transform="rotate(-0 86.175625 132.66)">Time (ms)</text>
    </g>
   </g>
   <g id="matplotlib.axis_2">
    <g id="ytick_1">
     <g id="line2d_3">
      <defs>
       <path id="m642beb7a29" d="M 0 0 
L -3.5 0 
" style="stroke: #000000; stroke-width: 1.5"/>
      </defs>
      <g>
       <use xlink:href="#m642beb7a29" x="50.3975" y="94.432521" style="stroke: #000000; stroke-width: 1.5"/>
      </g>
     </g>
     <g id="text_4">
      <text style="font: 8px 'Arial', sans-serif, serif; text-anchor: end" x="43.3975" y="97.295646" transform="rotate(-0 43.3975 97.295646)">−0.025</text>
     </g>
    </g>
    <g id="ytick_2">
     <g id="line2d_4">
      <g>
       <use xlink:href="#m642beb7a29" x="50.3975" y="74.184359" style="stroke: #000000; stroke-width: 1.5"/>
      </g>
     </g>
     <g id="text_5">
      <text style="font: 8px 'Arial', sans-serif, serif; text-anchor: end" x="43.3975" y="77.047484" transform="rotate(-0 43.3975 77.047484)">0.000</text>
     </g>
    </g>
    <g id="ytick_3">
     <g id="line2d_5">
      <g>
       <use xlink:href="#m642beb7a29" x="50.3975" y="53.936197" style="stroke: #000000; stroke-width: 1.5"/>
      </g>
     </g>
     <g id="text_6">
      <text style="font: 8px 'Arial', sans-serif, serif; text-anchor: end" x="43.3975" y="56.799322" transform="rotate(-0 43.3975 56.799322)">0.025</text>
     </g>
    </g>
    <g id="ytick_4">
     <g id="line2d_6">
      <g>
       <use xlink:href="#m642beb7a29" x="50.3975" y="33.688035" style="stroke: #000000; stroke-width: 1.5"/>
      </g>
     </g>
     <g id="text_7">
      <text style="font: 8px 'Arial', sans-serif, serif; text-anchor: end" x="43.3975" y="36.55116" transform="rotate(-0 43.3975 36.55116)">0.050</text>
     </g>
    </g>
    <g id="ytick_5">
     <g id="line2d_7">
      <g>
       <use xlink:href="#m642beb7a29" x="50.3975" y="13.439873" style="stroke: #000000; stroke-width: 1.5"/>
      </g>
     </g>
     <g id="text_8">
      <text style="font: 8px 'Arial', sans-serif, serif; text-anchor: end" x="43.3975" y="16.302998" transform="rotate(-0 43.3975 16.302998)">0.075</text>
     </g>
    </g>
    <g id="text_9">
     <text style="font: 8px 'Arial', sans-serif, serif; text-anchor: middle" x="13.02375" y="57.86" transform="rotate(-90 13.02375 57.86)">Voltage (mV)</text>
    </g>
   </g>
   <g id="line2d_8">
    <path d="M 53.650057 74.804482 
L 53.731269 46.624203 
L 53.812482 55.872905 
L 54.056119 64.996034 
L 54.137331 63.954801 
L 54.299756 65.527131 
L 54.380968 65.074161 
L 54.624606 67.60328 
L 54.705818 66.320614 
L 54.78703 67.271481 
L 54.868243 65.789419 
L 55.030668 67.040495 
L 55.11188 67.166459 
L 55.274305 65.996759 
L 55.43673 68.061875 
L 55.517942 70.970902 
L 55.599155 69.208524 
L 55.842792 73.596106 
L 55.924004 74.02301 
L 56.248854 87.333588 
L 56.654916 103.914545 
L 56.736128 102.200716 
L 56.898553 88.680822 
L 57.385827 43.486577 
L 57.791889 39.192613 
L 57.873102 39.059441 
L 58.035527 37.626794 
L 58.197951 38.450193 
L 58.279164 38.25976 
L 58.441589 37.386542 
L 58.522801 38.616855 
L 58.685226 36.101757 
L 58.766438 35.106047 
L 58.847651 38.390002 
L 59.010076 35.636474 
L 59.091288 35.697541 
L 59.1725 36.578539 
L 59.253713 34.807603 
L 59.334925 35.670051 
L 59.416138 34.560691 
L 59.49735 35.747405 
L 59.659775 33.392109 
L 59.740987 35.675853 
L 59.8222 34.841255 
L 59.903412 34.082292 
L 59.984624 34.572741 
L 60.065837 33.26254 
L 60.228262 34.315817 
L 60.390686 32.061671 
L 60.471899 32.404615 
L 60.553111 34.578701 
L 60.634324 34.545797 
L 60.715536 34.021071 
L 60.796748 34.295418 
L 60.877961 32.582847 
L 60.959173 33.669973 
L 61.040386 31.477825 
L 61.121598 35.183127 
L 61.20281 33.973944 
L 61.284023 35.152009 
L 61.365235 33.697269 
L 61.446448 35.074245 
L 61.52766 34.925463 
L 61.690085 36.139108 
L 61.771297 33.7098 
L 61.85251 35.696838 
L 61.933722 35.19682 
L 62.014935 36.04963 
L 62.258572 35.141657 
L 62.420997 35.858534 
L 62.583421 37.218208 
L 62.664634 36.080879 
L 62.745846 36.172913 
L 62.827059 37.588135 
L 62.908271 35.455789 
L 62.989483 38.411717 
L 63.233121 35.875075 
L 63.314333 38.141541 
L 63.395545 37.105345 
L 63.476758 40.563766 
L 63.55797 39.255325 
L 63.639183 39.693403 
L 63.720395 39.664262 
L 63.801607 39.269085 
L 63.964032 40.001271 
L 64.045245 39.090263 
L 64.126457 41.452844 
L 64.207669 40.637502 
L 64.370094 42.114047 
L 64.451307 39.807257 
L 64.532519 43.167086 
L 64.613731 43.032264 
L 64.694944 43.482353 
L 64.776156 42.80889 
L 65.019794 45.212604 
L 65.101006 47.658466 
L 65.182218 46.234438 
L 65.507068 48.986196 
L 65.58828 50.912984 
L 65.669493 50.591769 
L 65.91313 53.888726 
L 65.994342 54.407935 
L 66.23798 58.674439 
L 66.319192 58.241211 
L 66.481617 60.177297 
L 66.562829 59.10086 
L 66.644042 59.884424 
L 66.725254 58.182472 
L 66.806466 59.717085 
L 66.968891 57.592913 
L 67.131316 59.067817 
L 67.212528 57.952825 
L 67.293741 58.458373 
L 67.456166 57.614352 
L 67.537378 59.840189 
L 67.699803 57.433241 
L 67.781015 59.602515 
L 67.862228 58.663882 
L 67.94344 58.812923 
L 68.024652 58.803007 
L 68.105865 58.675384 
L 68.187077 60.523595 
L 68.26829 60.285966 
L 68.349502 58.186436 
L 68.511927 59.282923 
L 68.593139 58.83421 
L 68.674352 57.649347 
L 68.836777 60.145804 
L 68.917989 59.650258 
L 68.999201 60.465203 
L 69.080414 59.531408 
L 69.161626 60.223068 
L 69.242839 59.365338 
L 69.324051 59.566082 
L 69.405263 58.877045 
L 69.486476 60.813095 
L 69.648901 59.433542 
L 69.892538 61.361371 
L 69.97375 60.539239 
L 70.054963 62.377742 
L 70.136175 62.026176 
L 70.379812 59.054659 
L 70.623449 61.223411 
L 70.704662 60.867563 
L 70.785874 61.039498 
L 70.948299 62.608776 
L 71.029511 60.723351 
L 71.191936 61.726515 
L 71.273149 61.971756 
L 71.354361 61.325658 
L 71.435574 61.906686 
L 71.516786 59.501174 
L 71.597998 61.529318 
L 71.679211 61.335303 
L 71.760423 61.059745 
L 71.841636 62.026283 
L 71.922848 60.780504 
L 72.00406 62.083798 
L 72.085273 62.043661 
L 72.166485 61.783209 
L 72.247698 60.232203 
L 72.32891 60.790725 
L 72.410122 60.878881 
L 72.491335 61.712783 
L 72.572547 61.396406 
L 72.65376 63.47465 
L 72.816184 61.365555 
L 73.059822 62.038561 
L 73.222246 60.193194 
L 73.384671 62.29952 
L 73.465884 61.718169 
L 73.547096 61.927793 
L 73.628308 62.699514 
L 73.709521 60.552089 
L 73.790733 62.186062 
L 73.871946 62.040877 
L 73.953158 61.517903 
L 74.03437 62.504185 
L 74.115583 60.568151 
L 74.35922 63.65191 
L 74.765282 61.015664 
L 75.008919 62.691864 
L 75.171344 61.525873 
L 75.252557 62.382204 
L 75.333769 61.730111 
L 75.414981 63.18172 
L 75.496194 63.071967 
L 75.577406 61.425781 
L 75.658619 62.260379 
L 75.739831 61.085819 
L 75.821043 61.358928 
L 75.902256 62.402117 
L 75.983468 62.175126 
L 76.064681 61.436572 
L 76.145893 62.553064 
L 76.227105 61.016 
L 76.470743 63.103747 
L 76.551955 61.533103 
L 76.633167 64.052779 
L 76.71438 63.612678 
L 76.876805 61.81619 
L 76.958017 61.089779 
L 77.039229 63.007808 
L 77.120442 62.319932 
L 77.201654 62.285617 
L 77.282867 61.057708 
L 77.526504 62.767437 
L 77.607716 61.506071 
L 77.688929 61.747379 
L 77.851353 62.277822 
L 77.932566 60.253694 
L 78.094991 62.71057 
L 78.176203 62.434918 
L 78.257416 63.588419 
L 78.501053 60.230277 
L 78.74469 62.406644 
L 78.825902 61.16842 
L 78.907115 64.641858 
L 78.988327 60.300144 
L 79.06954 64.347574 
L 79.150752 62.805398 
L 79.231964 63.011992 
L 79.313177 63.075232 
L 79.556814 60.960526 
L 79.719239 63.679748 
L 79.800451 62.286017 
L 79.962876 63.954017 
L 80.125301 62.15502 
L 80.206513 64.373421 
L 80.287726 63.372225 
L 80.368938 64.662638 
L 80.45015 64.653067 
L 80.693788 65.045333 
L 80.775 64.559378 
L 80.856212 65.594305 
L 80.937425 65.02118 
L 81.181062 66.749728 
L 81.343487 65.87946 
L 81.424699 67.926877 
L 81.505912 66.798053 
L 81.587124 67.207096 
L 81.749549 70.003167 
L 81.911974 68.585074 
L 82.480461 75.538596 
L 82.561673 75.13262 
L 82.642885 75.53379 
L 82.724098 74.198968 
L 82.80531 79.044887 
L 82.886523 76.844007 
L 83.048947 80.258683 
L 83.13016 79.593548 
L 83.211372 79.533302 
L 83.617434 70.345805 
L 84.267133 33.128278 
L 84.916833 17.994835 
L 84.998045 19.343579 
L 85.079258 18.972738 
L 85.241682 17.703345 
L 85.404107 15.320259 
L 85.566532 16.585224 
L 85.728957 12.6095 
L 85.810169 15.450597 
L 85.891382 14.875759 
L 85.972594 14.648915 
L 86.053806 14.002325 
L 86.135019 14.813559 
L 86.216231 12.870261 
L 86.297444 12.935497 
L 86.378656 14.398925 
L 86.459868 13.245582 
L 86.541081 14.235947 
L 86.703506 12.653171 
L 86.784718 13.841381 
L 86.86593 12.878868 
L 86.947143 15.287014 
L 87.109568 13.461239 
L 87.353205 15.970499 
L 87.434417 14.913241 
L 87.51563 16.286505 
L 87.596842 14.582278 
L 87.759267 16.727479 
L 87.921692 16.746169 
L 88.084117 19.176619 
L 88.165329 17.803333 
L 88.327754 19.092062 
L 88.408966 18.693709 
L 88.652603 21.182339 
L 88.733816 24.816148 
L 88.815028 21.648981 
L 88.977453 25.400599 
L 89.058665 25.169033 
L 89.139878 26.720324 
L 89.22109 24.642774 
L 89.302303 25.17755 
L 89.627152 29.830566 
L 89.708365 29.334133 
L 89.870789 30.051578 
L 90.033214 33.40898 
L 90.114427 32.786196 
L 90.358064 36.881857 
L 90.439276 36.855063 
L 91.007763 46.040873 
L 91.170188 49.280939 
L 91.2514 49.51968 
L 91.413825 53.37483 
L 91.657462 56.859977 
L 91.738675 55.558255 
L 91.9011 59.175862 
L 91.982312 57.457421 
L 92.144737 59.004194 
L 92.307162 57.461023 
L 92.469586 60.459322 
L 92.550799 59.727903 
L 92.632011 58.046689 
L 92.713224 59.232722 
L 92.794436 59.0772 
L 93.038073 60.568379 
L 93.119286 59.857359 
L 93.200498 61.160232 
L 93.362923 59.605668 
L 93.444135 59.707761 
L 93.60656 61.403025 
L 93.687772 59.524062 
L 93.850197 61.525992 
L 93.93141 60.025272 
L 94.012622 61.475084 
L 94.093834 59.825149 
L 94.175047 60.520214 
L 94.256259 59.238901 
L 94.337472 60.993492 
L 94.418684 60.685603 
L 94.499897 60.421783 
L 94.662321 61.806166 
L 94.743534 61.319747 
L 94.824746 61.526296 
L 94.905959 61.060089 
L 94.987171 62.409406 
L 95.149596 60.583871 
L 95.230808 61.701286 
L 95.312021 61.045434 
L 95.393233 61.230148 
L 95.555658 62.264839 
L 95.63687 61.859247 
L 95.718083 60.09494 
L 95.799295 62.163995 
L 95.880507 59.817791 
L 95.96172 63.908952 
L 96.042932 62.880261 
L 96.205357 60.5318 
L 96.286569 63.066348 
L 96.367782 60.953286 
L 96.448994 61.618911 
L 96.530207 61.860221 
L 96.611419 63.049833 
L 96.692631 61.486756 
L 96.773844 62.550193 
L 96.855056 62.159566 
L 96.936269 62.016551 
L 97.017481 62.778918 
L 97.179906 60.867741 
L 97.342331 61.366135 
L 97.423543 61.36838 
L 97.585968 63.707595 
L 97.829605 61.052406 
L 97.910818 60.916568 
L 98.073242 63.253196 
L 98.154455 61.159922 
L 98.31688 63.214854 
L 98.398092 61.368795 
L 98.479304 63.096164 
L 98.560517 62.33312 
L 98.641729 62.77563 
L 98.722942 62.59961 
L 98.804154 63.493118 
L 98.885366 62.381783 
L 98.966579 63.343335 
L 99.047791 61.957216 
L 99.129004 62.059034 
L 99.210216 61.373781 
L 99.372641 61.863709 
L 99.453853 63.9831 
L 99.535066 63.886315 
L 99.616278 61.964978 
L 99.69749 63.10129 
L 99.778703 62.745182 
L 99.859915 62.86612 
L 99.941128 62.251985 
L 100.02234 62.449605 
L 100.265977 61.822404 
L 100.34719 62.963077 
L 100.428402 61.758119 
L 100.509614 62.770388 
L 100.672039 61.976556 
L 100.753252 63.088157 
L 100.834464 62.69223 
L 100.915676 63.353423 
L 101.078101 60.962381 
L 101.159314 61.262723 
L 101.240526 62.710499 
L 101.321739 61.0802 
L 101.402951 63.37905 
L 101.484163 62.492188 
L 101.565376 62.586943 
L 101.646588 62.988223 
L 101.890225 60.815682 
L 101.971438 63.335487 
L 102.133863 61.276207 
L 102.215075 62.396542 
L 102.296287 61.252417 
L 102.3775 63.247374 
L 102.539925 61.863512 
L 102.621137 62.776667 
L 102.702349 61.258201 
L 102.783562 61.299388 
L 102.864774 63.032064 
L 103.027199 61.624123 
L 103.108411 63.831207 
L 103.189624 62.455888 
L 103.270836 63.265484 
L 103.352049 61.239567 
L 103.433261 62.825131 
L 103.514473 62.165607 
L 103.595686 62.662382 
L 103.676898 65.008163 
L 103.758111 61.902427 
L 103.839323 62.534525 
L 103.920535 62.567514 
L 104.001748 63.299086 
L 104.08296 61.914992 
L 104.245385 64.989179 
L 104.326598 62.687931 
L 104.40781 63.366493 
L 104.489022 63.912634 
L 104.570235 63.108563 
L 104.651447 64.158748 
L 104.73266 62.522283 
L 104.813872 62.636667 
L 104.976297 64.536236 
L 105.057509 63.064168 
L 105.219934 64.530043 
L 105.301146 64.489533 
L 105.382359 66.077073 
L 105.544784 65.204253 
L 105.707208 67.372229 
L 105.788421 65.814376 
L 105.869633 66.265942 
L 105.950846 66.198636 
L 106.032058 65.983666 
L 106.11327 66.807459 
L 106.194483 66.233015 
L 106.275695 69.009796 
L 106.356908 68.529792 
L 106.43812 70.634155 
L 106.600545 68.508707 
L 106.76297 71.505854 
L 106.844182 71.391874 
L 107.006607 72.91814 
L 107.087819 72.555701 
L 107.169032 72.677116 
L 107.412669 75.991444 
L 107.493881 74.852955 
L 107.656306 79.321433 
L 107.737519 77.323988 
L 107.818731 77.956539 
L 107.899943 77.576943 
L 107.981156 78.143457 
L 108.387218 66.405454 
L 108.955705 34.507001 
L 109.280554 23.34702 
L 109.361767 23.882419 
L 109.524191 19.355519 
L 109.605404 19.665887 
L 109.686616 17.123226 
L 109.849041 18.221598 
L 110.011466 16.641461 
L 110.255103 14.151952 
L 110.336315 14.805987 
L 110.417528 16.643224 
L 110.49874 12.999513 
L 110.579953 13.518208 
L 110.661165 13.894508 
L 110.742377 12.985255 
L 110.904802 13.671045 
L 110.986015 11.805455 
L 111.14844 13.849783 
L 111.229652 14.017488 
L 111.310864 12.879142 
L 111.473289 14.316401 
L 111.635714 13.066644 
L 111.716926 13.093191 
L 111.798139 14.671013 
L 111.879351 13.477992 
L 112.122988 15.951583 
L 112.204201 14.587974 
L 112.285413 17.262861 
L 112.366626 16.827914 
L 112.447838 15.452171 
L 112.52905 17.595826 
L 112.610263 17.294138 
L 112.691475 18.074477 
L 112.8539 16.854839 
L 112.935112 19.459061 
L 113.016325 19.058513 
L 113.259962 20.974261 
L 113.341174 20.086088 
L 113.584812 23.633028 
L 113.666024 22.94869 
L 113.909661 25.65487 
L 113.990874 25.58574 
L 114.072086 26.7995 
L 114.153299 25.883776 
L 114.640573 32.972512 
L 114.721785 31.850515 
L 114.965423 36.723454 
L 115.046635 35.490634 
L 115.290272 40.993001 
L 115.371485 39.499907 
L 115.615122 45.167422 
L 115.696334 47.942088 
L 115.777547 47.499807 
L 116.264821 55.946377 
L 116.427246 56.917238 
L 116.508458 56.471062 
L 116.589671 59.131326 
L 116.670883 58.44711 
L 116.752095 56.83639 
L 116.91452 58.538112 
L 116.995733 57.633359 
L 117.158157 60.025839 
L 117.23937 59.83459 
L 117.320582 59.953945 
L 117.401795 58.314886 
L 117.483007 60.299779 
L 117.56422 59.130196 
L 117.645432 59.525201 
L 117.726644 62.197458 
L 117.807857 58.937464 
L 117.889069 59.665114 
L 117.970282 59.783965 
L 118.213919 61.677802 
L 118.376344 59.721898 
L 118.538768 60.873639 
L 118.619981 60.591888 
L 118.701193 91.039766 
L 118.701193 91.039766 
" clip-path="url(#peab38e93ad)" style="fill: none; stroke: #000000; stroke-width: 0.8; stroke-linecap: square"/>
   </g>
   <g id="patch_3">
    <path d="M 50.3975 108.52 
L 50.3975 7.2 
" style="fill: none; stroke: #000000; stroke-width: 1.5; stroke-linejoin: miter; stroke-linecap: square"/>
   </g>
   <g id="patch_4">
    <path d="M 50.3975 108.52 
L 121.95375 108.52 
" style="fill: none; stroke: #000000; stroke-width: 1.5; stroke-linejoin: miter; stroke-linecap: square"/>
   </g>
  </g>
 </g>
 <defs>
  <clipPath id="peab38e93ad">
   <rect x="50.3975" y="7.2" width="71.55625" height="101.32"/>
  </clipPath>
 </defs>
</svg>
