<?xml version="1.0" encoding="utf-8" standalone="no"?>
<!DOCTYPE svg PUBLIC "-//W3C//DTD SVG 1.1//EN"
  "http://www.w3.org/Graphics/SVG/1.1/DTD/svg11.dtd">
<svg xmlns:xlink="http://www.w3.org/1999/xlink" width="129.23625pt" height="105.54375pt" viewBox="0 0 129.23625 105.54375" xmlns="http://www.w3.org/2000/svg" version="1.1">
 <metadata>
  <rdf:RDF xmlns:dc="http://purl.org/dc/elements/1.1/" xmlns:cc="http://creativecommons.org/ns#" xmlns:rdf="http://www.w3.org/1999/02/22-rdf-syntax-ns#">
   <cc:Work>
    <dc:type rdf:resource="http://purl.org/dc/dcmitype/StillImage"/>
    <dc:date>2025-10-25T03:36:28.609328</dc:date>
    <dc:format>image/svg+xml</dc:format>
    <dc:creator>
     <cc:Agent>
      <dc:title>Matplotlib v3.9.2, https://matplotlib.org/</dc:title>
     </cc:Agent>
    </dc:creator>
   </cc:Work>
  </rdf:RDF>
 </metadata>
 <defs>
  <style type="text/css">*{stroke-linejoin: round; stroke-linecap: butt}</style>
 </defs>
 <g id="figure_1">
  <g id="patch_1">
   <path d="M 0 105.54375 
L 129.23625 105.54375 
L 129.23625 0 
L 0 0 
z
" style="fill: #ffffff"/>
  </g>
  <g id="axes_1">
   <g id="patch_2">
    <path d="M 18.51625 72.52 
L 122.03625 72.52 
L 122.03625 7.2 
L 18.51625 7.2 
z
" style="fill: #ffffff"/>
   </g>
   <g id="matplotlib.axis_1">
    <g id="xtick_1">
     <g id="line2d_1">
      <defs>
       <path id="m502e7103b0" d="M 0 0 
L 0 3.5 
" style="stroke: #000000; stroke-width: 1.5"/>
      </defs>
      <g>
       <use xlink:href="#m502e7103b0" x="23.221705" y="72.52" style="stroke: #000000; stroke-width: 1.5"/>
      </g>
     </g>
     <g id="text_1">
      <text style="font: 8px 'Arial', sans-serif, serif; text-anchor: middle" x="23.221705" y="85.24625" transform="rotate(-0 23.221705 85.24625)">0</text>
     </g>
    </g>
    <g id="xtick_2">
     <g id="line2d_2">
      <g>
       <use xlink:href="#m502e7103b0" x="70.158907" y="72.52" style="stroke: #000000; stroke-width: 1.5"/>
      </g>
     </g>
     <g id="text_2">
      <text style="font: 8px 'Arial', sans-serif, serif; text-anchor: middle" x="70.158907" y="85.24625" transform="rotate(-0 70.158907 85.24625)">5</text>
     </g>
    </g>
    <g id="xtick_3">
     <g id="line2d_3">
      <g>
       <use xlink:href="#m502e7103b0" x="117.096109" y="72.52" style="stroke: #000000; stroke-width: 1.5"/>
      </g>
     </g>
     <g id="text_3">
      <text style="font: 8px 'Arial', sans-serif, serif; text-anchor: middle" x="117.096109" y="85.24625" transform="rotate(-0 117.096109 85.24625)">10</text>
     </g>
    </g>
    <g id="text_4">
     <text style="font: 8px 'Arial', sans-serif, serif; text-anchor: middle" x="70.27625" y="96.66" transform="rotate(-0 70.27625 96.66)">Time (ms)</text>
    </g>
   </g>
   <g id="matplotlib.axis_2">
    <g id="text_5">
     <text style="font: 8px 'Arial', sans-serif, serif; text-anchor: middle" x="12.92625" y="39.86" transform="rotate(-90 12.92625 39.86)">V</text>
    </g>
   </g>
   <g id="line2d_4">
    <path d="M 23.221705 69.332321 
L 23.456391 66.936426 
L 24.395135 66.760984 
L 24.629821 66.645018 
L 25.099193 66.950392 
L 25.333879 66.799772 
L 25.568565 66.796689 
L 25.803251 66.937273 
L 26.272623 66.681896 
L 26.741995 67.040327 
L 26.976681 66.863993 
L 27.211367 66.873058 
L 27.446053 66.732149 
L 27.915425 66.799034 
L 28.384797 67.072262 
L 28.619483 66.762207 
L 28.854169 66.700261 
L 29.088855 67.092833 
L 29.558227 66.990599 
L 29.792913 66.763589 
L 30.027599 67.036258 
L 30.262285 66.859928 
L 31.201029 66.844726 
L 31.435715 67.029763 
L 32.609145 66.899968 
L 32.843831 67.045509 
L 33.547889 66.725925 
L 33.782575 66.780975 
L 34.017261 66.964229 
L 34.251947 66.733817 
L 34.956005 66.926086 
L 35.190691 66.813594 
L 35.425377 67.048516 
L 35.660063 66.606344 
L 36.129435 67.069713 
L 36.364121 66.917124 
L 36.833493 66.986069 
L 37.068179 66.91023 
L 37.302865 66.984782 
L 37.772237 66.91619 
L 38.006923 66.940763 
L 38.241609 66.615975 
L 38.476295 66.963578 
L 38.945667 66.780668 
L 39.180353 66.984818 
L 40.353783 66.851867 
L 40.823155 67.122076 
L 41.057841 66.792209 
L 41.527214 66.917746 
L 41.996586 66.842392 
L 42.231272 67.045905 
L 42.465958 66.863127 
L 43.170016 66.919856 
L 43.404702 66.735125 
L 43.639388 67.192699 
L 44.10876 66.817353 
L 45.516876 66.999044 
L 45.986248 66.75614 
L 46.220934 66.756527 
L 46.45562 67.085203 
L 46.690306 66.717098 
L 46.924992 66.892082 
L 47.394364 66.835918 
L 47.62905 66.630067 
L 47.863736 67.016273 
L 48.098422 66.720834 
L 48.333108 67.053174 
L 48.80248 66.826269 
L 49.037166 66.797754 
L 49.271852 66.968786 
L 49.97591 66.732827 
L 50.445282 66.949811 
L 50.914654 66.768668 
L 51.384026 66.993013 
L 51.618712 66.815944 
L 51.853398 66.929152 
L 52.088084 66.673396 
L 52.32277 66.951485 
L 52.557456 66.822223 
L 52.792142 66.973032 
L 53.026828 66.849446 
L 53.261514 66.91812 
L 53.4962 66.647153 
L 53.730886 67.051008 
L 53.965572 66.528836 
L 54.200258 66.875885 
L 54.66963 66.877819 
L 55.139002 66.901693 
L 55.373688 66.814956 
L 55.84306 66.968393 
L 56.312432 66.951884 
L 56.547118 66.993425 
L 57.251176 66.739149 
L 57.485862 67.023578 
L 57.720548 66.898232 
L 58.659292 66.990806 
L 58.893978 66.888816 
L 59.36335 67.125868 
L 59.598036 66.887566 
L 59.832722 67.1553 
L 60.067408 67.091794 
L 60.302094 67.240476 
L 60.53678 66.846072 
L 60.771467 67.23461 
L 61.240839 67.167432 
L 61.944897 67.835765 
L 62.179583 67.584858 
L 62.648955 66.381391 
L 62.883641 66.179184 
L 63.353013 66.974673 
L 64.057071 66.402723 
L 64.291757 66.55903 
L 64.526443 66.503299 
L 64.995815 67.000508 
L 65.230501 66.585882 
L 65.465187 66.979154 
L 65.699873 67.133575 
L 66.873303 66.797769 
L 67.107989 66.88091 
L 67.812047 66.855717 
L 68.046733 67.212301 
L 68.281419 66.883474 
L 68.985477 67.157811 
L 69.220163 66.881817 
L 69.689535 67.128049 
L 69.924221 66.863428 
L 70.158907 67.00415 
L 70.393593 66.712495 
L 70.628279 66.904605 
L 71.097651 66.984057 
L 71.332337 66.685804 
L 71.567023 66.997866 
L 71.801709 66.795922 
L 72.036395 66.828676 
L 72.271081 66.719837 
L 72.505767 67.008993 
L 72.740453 66.912863 
L 72.975139 67.05236 
L 73.913883 66.870733 
L 74.148569 66.98382 
L 74.617941 66.776435 
L 74.852627 66.944646 
L 75.087313 66.728349 
L 75.556685 66.923088 
L 75.791371 66.821048 
L 76.026057 66.57224 
L 76.260743 67.031307 
L 76.495429 66.74757 
L 76.964801 66.696163 
L 77.434173 67.095493 
L 77.668859 66.772921 
L 78.138231 67.219102 
L 78.372917 66.858425 
L 78.607603 67.056808 
L 78.842289 66.721355 
L 79.076975 66.735373 
L 79.546347 67.240322 
L 79.781033 66.84119 
L 80.01572 67.003827 
L 80.954464 66.740947 
L 81.18915 66.94298 
L 81.423836 66.943208 
L 81.658522 67.089985 
L 81.893208 66.99148 
L 82.127894 67.102527 
L 82.36258 66.615586 
L 82.597266 67.030615 
L 82.831952 66.764028 
L 83.301324 67.06779 
L 83.770696 66.895803 
L 84.005382 67.081892 
L 84.240068 66.981463 
L 84.474754 67.100421 
L 84.70944 66.836001 
L 85.178812 66.9282 
L 85.413498 67.287474 
L 85.88287 66.946132 
L 86.117556 67.014367 
L 86.352242 67.305259 
L 86.586928 67.309332 
L 86.821614 67.197171 
L 87.0563 67.391163 
L 87.525672 68.027621 
L 87.760358 67.680005 
L 88.22973 66.283318 
L 88.464416 66.28581 
L 88.933788 67.126443 
L 89.168474 67.105324 
L 89.637846 66.470064 
L 89.872532 66.457533 
L 90.341904 66.751836 
L 90.57659 66.745603 
L 90.811276 66.888151 
L 91.045962 66.819061 
L 91.75002 67.00513 
L 91.984706 66.888056 
L 92.219392 67.002055 
L 92.454078 66.810308 
L 92.688764 66.971112 
L 92.92345 66.829786 
L 93.158136 66.922647 
L 93.392822 66.885304 
L 93.627508 66.711524 
L 93.862194 67.073144 
L 94.09688 66.88201 
L 94.331566 66.865566 
L 94.566252 67.0409 
L 94.800938 66.916958 
L 95.27031 67.083078 
L 95.974368 66.951414 
L 96.209054 67.060663 
L 96.44374 66.696292 
L 96.678426 66.942936 
L 96.913112 66.886402 
L 97.147798 67.0096 
L 97.61717 66.819207 
L 98.086542 67.009717 
L 98.321228 66.903551 
L 99.025286 67.103202 
L 99.259973 66.735303 
L 99.494659 66.906714 
L 99.729345 66.782025 
L 99.964031 67.077789 
L 100.198717 66.698675 
L 100.668089 66.937581 
L 101.137461 66.686514 
L 101.372147 66.920306 
L 101.606833 66.995376 
L 101.841519 66.829577 
L 102.076205 66.993881 
L 102.310891 66.801487 
L 102.545577 67.094061 
L 102.780263 66.707217 
L 103.014949 67.040869 
L 103.249635 66.938854 
L 103.484321 66.698152 
L 103.719007 66.874357 
L 104.188379 66.839684 
L 104.423065 67.099638 
L 104.657751 66.893046 
L 105.127123 66.921644 
L 105.361809 66.56219 
L 106.065867 66.808367 
L 106.535239 66.655419 
L 106.769925 66.898295 
L 107.239297 66.781928 
L 107.708669 66.969787 
L 107.943355 66.896576 
L 108.178041 67.104065 
L 108.412727 66.781785 
L 108.647413 67.027414 
L 109.351471 66.972103 
L 109.586157 66.784414 
L 109.820843 67.219001 
L 110.055529 66.754826 
L 111.463645 67.081958 
L 111.698331 66.888731 
L 113.106447 68.009938 
L 113.575819 66.754909 
L 114.045191 66.414208 
L 114.514563 67.013618 
L 114.749249 66.935874 
L 114.983935 66.638274 
L 115.687993 66.735317 
L 115.922679 66.553384 
L 116.157365 66.795374 
L 116.392051 66.731421 
L 116.626737 66.816807 
L 116.861423 67.042777 
L 117.096109 66.868359 
L 117.330795 69.550909 
L 117.330795 69.550909 
" clip-path="url(#p073269a998)" style="fill: none; stroke: #000000; stroke-linecap: square"/>
   </g>
   <g id="line2d_5">
    <path d="M 23.221705 63.007429 
L 23.456391 61.088049 
L 24.160449 60.901894 
L 24.395135 61.161724 
L 24.864507 60.863155 
L 25.099193 61.046425 
L 25.568565 61.075527 
L 25.803251 60.76875 
L 26.037937 61.056128 
L 26.272623 61.14101 
L 26.507309 60.933362 
L 26.741995 60.889649 
L 26.976681 61.112052 
L 27.211367 60.924567 
L 27.446053 61.136009 
L 27.680739 60.9671 
L 28.150111 61.056388 
L 28.384797 60.904202 
L 28.619483 60.925188 
L 28.854169 61.168863 
L 29.088855 61.02049 
L 29.323541 61.014536 
L 29.792913 60.758269 
L 30.027599 61.061292 
L 30.262285 60.939103 
L 30.731657 61.346894 
L 31.201029 60.789293 
L 31.435715 61.143613 
L 31.905087 60.889309 
L 32.609145 61.206823 
L 32.843831 61.177349 
L 33.078517 60.949108 
L 33.313203 61.216968 
L 33.782575 60.88481 
L 34.017261 61.180476 
L 34.251947 61.027706 
L 34.486633 61.234107 
L 34.721319 61.029137 
L 34.956005 61.123245 
L 35.190691 60.91178 
L 35.425377 61.066589 
L 35.660063 60.810921 
L 35.894749 60.881355 
L 36.129435 61.117174 
L 36.364121 60.814511 
L 36.833493 61.115397 
L 37.068179 61.220556 
L 37.537551 60.850867 
L 38.710981 61.220373 
L 38.945667 60.929413 
L 39.415039 60.966862 
L 39.884411 61.06016 
L 40.119097 61.306421 
L 40.353783 61.160821 
L 40.588469 61.180896 
L 40.823155 61.018266 
L 41.057841 61.129517 
L 41.527214 60.983161 
L 42.700644 60.800712 
L 43.170016 61.078044 
L 43.404702 60.860664 
L 43.639388 61.038794 
L 44.10876 60.913218 
L 44.578132 61.231894 
L 45.047504 60.891005 
L 45.28219 61.062839 
L 45.751562 61.048528 
L 45.986248 60.770126 
L 46.220934 61.026629 
L 46.45562 60.839869 
L 46.924992 61.23626 
L 47.394364 60.706333 
L 47.62905 61.132314 
L 48.567794 60.941148 
L 48.80248 60.897353 
L 49.037166 61.384549 
L 49.271852 60.865592 
L 49.506538 61.006901 
L 49.97591 60.49594 
L 50.445282 61.191586 
L 50.679968 60.989698 
L 51.14934 61.155379 
L 51.384026 60.954099 
L 51.618712 61.084021 
L 51.853398 60.948643 
L 52.088084 61.084572 
L 52.557456 60.747435 
L 52.792142 61.142371 
L 53.026828 60.978302 
L 53.4962 61.09597 
L 53.730886 60.725849 
L 53.965572 61.005998 
L 54.434944 60.880458 
L 54.66963 60.911306 
L 54.904316 60.764148 
L 55.139002 61.216175 
L 55.608374 60.695343 
L 55.84306 61.082274 
L 56.077746 60.717467 
L 56.312432 61.068358 
L 56.547118 60.81616 
L 56.781804 60.959709 
L 57.01649 60.737726 
L 57.251176 60.903947 
L 57.955234 60.807029 
L 58.18992 61.011602 
L 58.659292 60.549951 
L 59.128664 61.03757 
L 59.36335 60.963392 
L 59.598036 60.538007 
L 59.832722 60.69535 
L 60.067408 60.680988 
L 60.302094 60.833298 
L 61.006153 60.512834 
L 61.240839 60.050296 
L 61.475525 60.157027 
L 61.944897 59.434197 
L 62.179583 58.733379 
L 62.414269 58.519342 
L 62.883641 58.366203 
L 63.118327 58.079815 
L 63.353013 58.444185 
L 63.587699 59.311176 
L 64.057071 62.467351 
L 64.526443 63.357157 
L 64.761129 63.566592 
L 64.995815 63.555103 
L 65.230501 62.955244 
L 65.465187 62.667635 
L 65.699873 62.603111 
L 66.169245 61.831509 
L 66.403931 61.882765 
L 67.342675 61.262749 
L 67.812047 61.308624 
L 68.046733 60.880226 
L 68.281419 61.128502 
L 68.750791 60.956513 
L 68.985477 61.016388 
L 69.454849 61.002896 
L 70.158907 61.223545 
L 70.393593 60.891619 
L 70.628279 60.845366 
L 71.097651 61.069605 
L 71.332337 60.91179 
L 72.271081 61.068528 
L 72.740453 60.913065 
L 73.209825 60.769419 
L 73.444511 61.148559 
L 73.913883 61.11473 
L 74.148569 60.731892 
L 74.383255 61.063184 
L 74.617941 60.878701 
L 74.852627 60.968575 
L 75.321999 60.845614 
L 75.556685 60.932606 
L 75.791371 61.169326 
L 76.260743 60.791453 
L 76.730115 61.032127 
L 76.964801 60.823716 
L 77.199487 61.074035 
L 77.434173 61.054221 
L 77.668859 60.870026 
L 78.138231 61.044973 
L 78.372917 61.137472 
L 78.607603 61.039956 
L 78.842289 61.243625 
L 79.781033 60.998941 
L 80.01572 60.915959 
L 80.250406 60.677929 
L 80.485092 61.009178 
L 80.719778 60.773116 
L 80.954464 60.868922 
L 81.18915 60.605583 
L 81.423836 61.019964 
L 82.127894 60.778478 
L 82.36258 61.019117 
L 82.597266 60.918572 
L 83.770696 61.000635 
L 84.005382 61.214347 
L 84.474754 60.919138 
L 84.944126 60.64878 
L 85.178812 60.991113 
L 85.413498 60.722924 
L 85.88287 60.882877 
L 86.117556 60.594018 
L 87.290986 60.037033 
L 87.760358 58.594115 
L 87.995044 58.640135 
L 88.22973 58.327822 
L 88.699102 58.262176 
L 88.933788 58.090091 
L 89.872532 63.100984 
L 90.107218 63.600582 
L 90.341904 63.5768 
L 91.984706 61.778651 
L 92.219392 61.787005 
L 92.454078 61.388068 
L 92.688764 61.295534 
L 92.92345 61.36561 
L 93.627508 60.960212 
L 93.862194 61.357915 
L 94.331566 60.789387 
L 94.566252 61.135593 
L 94.800938 60.919565 
L 95.035624 61.231367 
L 95.27031 61.212395 
L 95.504996 61.009172 
L 95.974368 60.956394 
L 96.209054 61.286795 
L 96.44374 61.018962 
L 96.678426 61.096466 
L 96.913112 60.96808 
L 97.147798 61.017758 
L 97.382484 60.876828 
L 97.851856 61.100105 
L 98.321228 60.931403 
L 98.555914 60.99336 
L 99.025286 60.851399 
L 99.259973 61.059697 
L 99.729345 60.856423 
L 99.964031 60.977408 
L 100.433403 60.823614 
L 100.668089 60.832697 
L 100.902775 61.093678 
L 101.137461 60.851277 
L 101.372147 61.01625 
L 101.841519 60.950883 
L 102.076205 61.149871 
L 102.310891 60.836814 
L 102.545577 61.057426 
L 102.780263 60.68545 
L 103.014949 60.948916 
L 103.249635 60.972046 
L 103.484321 61.26255 
L 103.719007 60.84866 
L 103.953693 60.999701 
L 104.188379 60.903106 
L 104.423065 61.159275 
L 104.892437 60.945702 
L 105.361809 61.022199 
L 105.596495 60.487106 
L 105.831181 60.80686 
L 106.300553 61.050719 
L 106.535239 60.910606 
L 107.004611 60.962283 
L 107.708669 60.82892 
L 107.943355 60.911264 
L 108.178041 60.795673 
L 108.412727 61.00158 
L 108.647413 60.926778 
L 108.882099 60.675183 
L 109.116785 61.009766 
L 109.351471 60.91936 
L 109.820843 60.962484 
L 110.290215 60.770456 
L 110.524901 60.750576 
L 110.759587 60.880061 
L 110.994273 60.60705 
L 111.228959 60.521467 
L 111.463645 60.717729 
L 111.698331 60.713399 
L 111.933017 60.414171 
L 112.402389 60.297956 
L 112.637075 59.995672 
L 113.106447 59.166803 
L 113.575819 58.509836 
L 113.810505 58.390707 
L 114.045191 58.465655 
L 114.279877 58.099148 
L 114.514563 58.662128 
L 114.749249 59.739748 
L 115.218621 62.517841 
L 115.453307 63.25513 
L 115.687993 63.589645 
L 116.157365 63.08386 
L 116.392051 63.046292 
L 116.626737 62.838033 
L 117.096109 61.929412 
L 117.330795 63.872601 
L 117.330795 63.872601 
" clip-path="url(#p073269a998)" style="fill: none; stroke: #000000; stroke-linecap: square"/>
   </g>
   <g id="line2d_6">
    <path d="M 23.221705 56.802957 
L 23.456391 52.131699 
L 23.691077 51.90317 
L 23.925763 51.933244 
L 24.160449 52.212277 
L 24.629821 52.042961 
L 24.864507 52.262815 
L 25.099193 52.189556 
L 25.568565 52.460895 
L 25.803251 52.221856 
L 26.037937 52.439409 
L 26.272623 52.381333 
L 26.741995 52.569175 
L 27.211367 52.162939 
L 27.446053 52.595458 
L 27.915425 52.400306 
L 28.619483 52.640086 
L 28.854169 52.632743 
L 29.088855 52.390918 
L 29.323541 52.534845 
L 30.262285 52.568255 
L 30.496971 52.823018 
L 30.731657 52.562503 
L 30.966343 52.532002 
L 31.201029 52.314849 
L 31.435715 52.435885 
L 31.670401 52.302669 
L 32.139773 52.674334 
L 32.374459 52.608086 
L 32.609145 52.697084 
L 32.843831 52.395165 
L 33.078517 52.548963 
L 33.782575 52.428801 
L 34.017261 52.76046 
L 34.251947 52.561678 
L 34.721319 52.748182 
L 34.956005 52.507387 
L 35.190691 52.568846 
L 35.660063 52.254588 
L 35.894749 52.481999 
L 36.129435 52.527934 
L 36.364121 52.723717 
L 36.833493 52.539402 
L 37.068179 52.529091 
L 37.302865 52.325167 
L 38.006923 52.493307 
L 38.241609 52.555849 
L 38.476295 52.353238 
L 38.710981 52.455731 
L 38.945667 52.42738 
L 39.649725 52.805321 
L 39.884411 52.385981 
L 40.588469 52.69822 
L 41.057841 52.498729 
L 41.292527 52.430051 
L 41.527214 52.554216 
L 41.7619 52.394001 
L 42.231272 52.679596 
L 42.465958 52.637786 
L 42.700644 52.296825 
L 43.170016 52.767191 
L 43.639388 52.533564 
L 44.10876 52.459041 
L 44.343446 52.352402 
L 44.578132 52.663026 
L 44.812818 52.297275 
L 45.047504 52.699188 
L 45.28219 52.545888 
L 45.516876 52.750187 
L 46.690306 52.430607 
L 46.924992 52.563839 
L 47.159678 52.547263 
L 47.394364 52.879608 
L 47.62905 52.535935 
L 47.863736 52.558296 
L 48.333108 52.307673 
L 48.567794 52.521253 
L 48.80248 52.494901 
L 49.037166 52.19962 
L 49.271852 52.735128 
L 49.506538 52.532234 
L 49.741224 52.867483 
L 49.97591 52.498525 
L 50.445282 52.635029 
L 50.679968 52.415537 
L 50.914654 52.620618 
L 51.14934 52.543148 
L 51.384026 52.734095 
L 51.618712 52.695492 
L 51.853398 52.532443 
L 52.557456 52.65338 
L 53.026828 52.387897 
L 53.261514 52.876433 
L 53.4962 52.626343 
L 53.730886 52.557243 
L 53.965572 52.819013 
L 54.200258 52.616011 
L 54.434944 52.804629 
L 54.66963 52.463278 
L 54.904316 52.669645 
L 55.139002 52.532534 
L 55.608374 52.652966 
L 55.84306 52.796075 
L 56.077746 52.703392 
L 56.312432 52.820389 
L 56.547118 52.678508 
L 57.01649 52.888047 
L 57.955234 52.818846 
L 58.893978 53.080773 
L 59.128664 52.960012 
L 59.598036 53.082821 
L 59.832722 53.435507 
L 60.067408 53.398934 
L 60.302094 53.476177 
L 60.53678 53.87066 
L 60.771467 53.886358 
L 61.006153 54.312649 
L 61.240839 55.00153 
L 61.710211 57.415924 
L 61.944897 57.894492 
L 62.179583 56.894004 
L 62.648955 52.920687 
L 62.883641 52.055027 
L 63.353013 51.553369 
L 63.822385 50.194464 
L 64.057071 49.824127 
L 64.291757 49.692874 
L 64.526443 49.933447 
L 64.761129 49.916532 
L 65.230501 50.961678 
L 65.699873 51.608583 
L 66.169245 51.949494 
L 66.873303 52.329278 
L 67.107989 52.350887 
L 67.342675 52.258259 
L 67.812047 52.542774 
L 68.281419 52.370559 
L 68.516105 52.664573 
L 68.750791 52.495531 
L 68.985477 52.638077 
L 69.220163 52.392124 
L 69.689535 52.375154 
L 69.924221 52.542197 
L 70.158907 52.312633 
L 70.628279 52.619053 
L 71.097651 52.531589 
L 71.332337 52.342873 
L 71.567023 52.593985 
L 72.271081 52.427874 
L 72.505767 52.528437 
L 72.740453 52.375994 
L 72.975139 52.627296 
L 73.444511 52.414971 
L 73.679197 52.446762 
L 73.913883 52.740346 
L 74.148569 52.441989 
L 75.087313 52.439877 
L 75.791371 52.430372 
L 76.026057 52.194536 
L 76.260743 52.708739 
L 76.495429 52.551629 
L 76.730115 52.76378 
L 76.964801 52.521318 
L 77.199487 52.656758 
L 77.434173 52.274755 
L 77.668859 52.584147 
L 77.903545 52.389555 
L 78.372917 52.47441 
L 78.607603 52.70197 
L 79.311661 52.741066 
L 79.546347 52.95513 
L 79.781033 52.735414 
L 80.485092 52.758738 
L 80.719778 52.544905 
L 80.954464 52.754997 
L 81.893208 52.618255 
L 82.127894 52.852988 
L 82.36258 52.78242 
L 83.066638 53.049336 
L 83.301324 52.982828 
L 83.53601 52.695468 
L 84.240068 52.903075 
L 84.944126 52.99328 
L 85.178812 53.28198 
L 85.413498 53.338413 
L 85.648184 53.018231 
L 86.352242 53.944144 
L 86.586928 54.316647 
L 87.0563 55.90869 
L 87.525672 57.865635 
L 87.760358 56.66234 
L 88.22973 53.093308 
L 88.464416 52.070407 
L 88.933788 51.537228 
L 89.637846 49.729083 
L 90.107218 49.854006 
L 90.57659 50.623077 
L 91.045962 51.044735 
L 91.280648 51.504968 
L 91.75002 51.761283 
L 92.219392 52.146463 
L 92.454078 52.04841 
L 92.688764 52.379855 
L 92.92345 52.292267 
L 93.392822 52.571957 
L 93.627508 52.481859 
L 93.862194 52.21966 
L 94.09688 52.599164 
L 94.331566 52.308657 
L 94.800938 52.540436 
L 95.035624 52.426571 
L 95.27031 52.674711 
L 95.504996 52.542809 
L 95.739682 52.707033 
L 96.209054 52.312381 
L 96.678426 52.58493 
L 96.913112 52.527696 
L 97.147798 52.674974 
L 98.086542 52.382838 
L 98.7906 52.656182 
L 99.025286 52.396284 
L 99.729345 52.430874 
L 99.964031 52.667998 
L 100.433403 52.397688 
L 101.372147 52.684022 
L 101.841519 52.579414 
L 102.076205 52.761153 
L 102.310891 52.510277 
L 102.545577 52.62084 
L 103.484321 52.505709 
L 104.188379 52.540203 
L 104.657751 52.564255 
L 104.892437 52.782522 
L 105.361809 52.838099 
L 105.596495 52.615114 
L 105.831181 52.884741 
L 106.535239 52.748099 
L 106.769925 52.798075 
L 107.004611 52.527727 
L 107.473983 52.655621 
L 107.708669 52.63674 
L 108.178041 52.822182 
L 108.647413 52.784399 
L 109.116785 52.9251 
L 109.586157 52.89175 
L 109.820843 53.16463 
L 110.055529 52.96154 
L 110.290215 53.00032 
L 110.759587 53.356189 
L 110.994273 53.171126 
L 111.228959 53.374401 
L 111.463645 53.31436 
L 111.698331 54.007507 
L 111.933017 54.121582 
L 112.402389 55.174917 
L 112.871761 57.591739 
L 113.106447 57.581414 
L 113.341133 56.157459 
L 113.810505 52.665687 
L 114.045191 51.906754 
L 114.279877 51.733488 
L 114.514563 51.419035 
L 114.749249 50.8213 
L 114.983935 49.805075 
L 115.218621 49.757789 
L 115.453307 50.079629 
L 115.687993 49.817834 
L 116.157365 50.854406 
L 116.861423 51.676249 
L 117.096109 51.748818 
L 117.330795 56.678827 
L 117.330795 56.678827 
" clip-path="url(#p073269a998)" style="fill: none; stroke: #000000; stroke-linecap: square"/>
   </g>
   <g id="line2d_7">
    <path d="M 23.221705 50.526007 
L 23.456391 46.209108 
L 23.691077 46.10666 
L 24.160449 46.464859 
L 24.629821 46.356555 
L 24.864507 46.420004 
L 25.099193 46.812032 
L 25.333879 46.505594 
L 25.568565 46.503176 
L 25.803251 46.723487 
L 26.037937 46.4631 
L 26.976681 46.812767 
L 27.211367 46.388016 
L 27.446053 46.404449 
L 27.680739 46.649751 
L 28.384797 46.7784 
L 28.619483 46.855394 
L 28.854169 46.810196 
L 29.088855 46.564115 
L 29.323541 46.535549 
L 29.558227 46.658944 
L 30.027599 46.54313 
L 30.496971 46.868921 
L 30.731657 46.629706 
L 30.966343 46.946178 
L 31.201029 46.58108 
L 31.670401 46.88551 
L 31.905087 46.784744 
L 32.139773 46.846568 
L 32.374459 46.584168 
L 32.843831 46.726219 
L 33.313203 46.656232 
L 33.547889 46.813236 
L 33.782575 46.563877 
L 34.251947 46.809113 
L 34.956005 46.601218 
L 35.190691 46.837596 
L 35.425377 46.748447 
L 35.660063 46.367951 
L 35.894749 46.690261 
L 36.129435 46.8119 
L 36.598807 46.621766 
L 36.833493 46.776323 
L 37.068179 46.757724 
L 37.537551 46.335612 
L 37.772237 46.485362 
L 38.006923 46.500648 
L 38.476295 46.81251 
L 38.710981 46.629385 
L 39.180353 46.6935 
L 39.415039 46.575983 
L 39.884411 46.657534 
L 40.119097 46.591672 
L 40.353783 46.659787 
L 40.588469 46.897493 
L 40.823155 46.541284 
L 41.057841 46.699151 
L 41.292527 46.600167 
L 41.996586 46.88472 
L 42.465958 46.652144 
L 42.93533 46.571251 
L 43.170016 46.793021 
L 43.404702 46.836089 
L 43.874074 46.627341 
L 44.10876 46.547453 
L 44.343446 46.648449 
L 44.578132 47.052499 
L 45.047504 46.608039 
L 45.28219 46.793245 
L 45.751562 46.71013 
L 45.986248 46.842051 
L 46.220934 46.75956 
L 46.45562 46.508314 
L 46.690306 46.66553 
L 47.159678 46.611253 
L 47.394364 46.92019 
L 47.62905 46.845466 
L 47.863736 46.888029 
L 48.098422 46.44183 
L 48.567794 46.772231 
L 48.80248 46.755005 
L 49.037166 46.898394 
L 49.506538 46.532118 
L 49.741224 46.902148 
L 50.210596 46.665183 
L 50.679968 46.816292 
L 50.914654 46.873654 
L 51.384026 46.757064 
L 52.088084 46.786792 
L 52.32277 46.61181 
L 52.557456 46.883534 
L 52.792142 46.674857 
L 53.026828 46.83428 
L 53.261514 46.77909 
L 53.4962 46.867336 
L 53.730886 46.681216 
L 53.965572 46.754624 
L 54.200258 46.621818 
L 54.434944 46.879712 
L 54.66963 46.487196 
L 54.904316 46.746099 
L 55.139002 46.838257 
L 55.608374 46.814889 
L 55.84306 47.062315 
L 56.312432 46.742273 
L 56.547118 47.087937 
L 56.781804 46.863234 
L 57.251176 47.117455 
L 57.485862 46.774994 
L 57.955234 46.929381 
L 58.18992 46.915481 
L 58.424606 46.672001 
L 58.659292 46.965795 
L 59.128664 47.014499 
L 59.36335 47.138763 
L 59.598036 47.081401 
L 59.832722 47.2195 
L 60.067408 47.537324 
L 60.302094 47.482616 
L 60.771467 47.55159 
L 61.710211 50.143845 
L 61.944897 50.926918 
L 62.179583 51.175886 
L 62.414269 50.812494 
L 63.822385 43.936359 
L 64.057071 43.331834 
L 64.291757 43.385899 
L 64.526443 43.957437 
L 64.761129 43.988441 
L 66.169245 45.82911 
L 66.403931 45.788661 
L 66.638617 45.982175 
L 66.873303 46.508896 
L 67.107989 46.073945 
L 67.342675 46.375516 
L 68.046733 46.621226 
L 68.281419 46.451379 
L 68.516105 46.738375 
L 68.750791 46.797229 
L 68.985477 46.582221 
L 69.220163 46.802973 
L 69.689535 46.872875 
L 69.924221 46.532533 
L 70.158907 46.536078 
L 70.393593 46.659017 
L 70.862965 46.69993 
L 71.097651 46.778906 
L 71.567023 46.666131 
L 72.505767 46.750746 
L 72.740453 46.590118 
L 72.975139 46.858287 
L 73.444511 46.660994 
L 73.679197 46.923973 
L 73.913883 46.758 
L 74.617941 46.971351 
L 75.087313 46.791044 
L 75.321999 46.847347 
L 75.556685 46.646305 
L 76.026057 46.664584 
L 76.260743 46.615869 
L 76.730115 46.9079 
L 77.199487 46.620479 
L 77.434173 46.767709 
L 77.903545 46.772977 
L 78.138231 46.779638 
L 78.372917 46.660818 
L 79.076975 46.805728 
L 79.546347 46.508176 
L 79.781033 46.796483 
L 80.01572 46.702908 
L 80.250406 47.008907 
L 80.485092 46.863669 
L 80.719778 46.986708 
L 81.18915 46.962221 
L 81.423836 46.993179 
L 81.893208 46.841791 
L 82.127894 46.90321 
L 82.36258 46.722278 
L 82.597266 46.949306 
L 83.066638 46.686073 
L 83.53601 46.951834 
L 83.770696 46.949357 
L 84.005382 47.082121 
L 84.240068 46.97903 
L 84.474754 47.063033 
L 84.70944 47.023387 
L 84.944126 47.277033 
L 85.413498 47.215783 
L 86.117556 47.713101 
L 86.352242 47.65774 
L 87.0563 49.16003 
L 87.760358 51.065395 
L 87.995044 50.732721 
L 88.464416 48.357749 
L 89.40316 43.660508 
L 89.872532 43.335154 
L 90.57659 44.267386 
L 90.811276 44.658983 
L 91.045962 44.823483 
L 91.515334 45.629375 
L 91.984706 45.75047 
L 92.219392 46.111363 
L 92.454078 46.063076 
L 92.688764 46.28919 
L 93.158136 46.263296 
L 93.392822 46.572044 
L 93.627508 46.469527 
L 93.862194 46.721129 
L 94.331566 46.596523 
L 94.566252 46.72869 
L 95.035624 46.415939 
L 95.504996 46.789698 
L 95.974368 46.773204 
L 96.209054 47.014697 
L 96.44374 46.427493 
L 96.678426 46.682243 
L 97.147798 46.650728 
L 97.382484 46.983274 
L 97.61717 46.575783 
L 97.851856 46.86024 
L 98.086542 46.546243 
L 98.321228 46.915239 
L 98.555914 46.789715 
L 98.7906 46.858934 
L 99.025286 46.653664 
L 99.494659 46.865736 
L 99.729345 46.654703 
L 99.964031 46.781991 
L 100.433403 46.707069 
L 100.668089 46.779758 
L 101.137461 46.548074 
L 101.606833 46.919969 
L 101.841519 46.701123 
L 103.719007 46.857828 
L 104.188379 46.694426 
L 104.423065 46.999639 
L 104.657751 46.661396 
L 104.892437 46.604405 
L 105.127123 46.885814 
L 105.361809 46.884734 
L 105.596495 46.596166 
L 105.831181 46.714884 
L 106.065867 46.961598 
L 107.473983 46.80714 
L 107.943355 46.948196 
L 108.412727 46.692027 
L 108.882099 47.001377 
L 109.116785 47.078626 
L 109.351471 46.946301 
L 109.820843 47.148694 
L 110.055529 47.258155 
L 110.524901 46.98607 
L 111.228959 47.448878 
L 111.463645 47.724537 
L 111.698331 47.707848 
L 111.933017 47.866061 
L 112.167703 48.223324 
L 112.637075 49.454913 
L 112.871761 50.58339 
L 113.106447 50.994483 
L 113.341133 50.930302 
L 113.575819 50.303181 
L 113.810505 49.312493 
L 114.279877 46.417408 
L 114.749249 44.305068 
L 115.218621 43.298907 
L 115.453307 43.320608 
L 115.922679 44.087123 
L 116.157365 44.591022 
L 116.626737 44.985069 
L 116.861423 45.394089 
L 117.096109 45.493767 
L 117.330795 49.958447 
L 117.330795 49.958447 
" clip-path="url(#p073269a998)" style="fill: none; stroke: #000000; stroke-linecap: square"/>
   </g>
   <g id="line2d_8">
    <path d="M 23.221705 44.039656 
L 23.456391 41.127998 
L 23.691077 40.791416 
L 23.925763 40.731322 
L 24.160449 40.927391 
L 24.395135 40.810277 
L 24.629821 41.029745 
L 24.864507 41.007426 
L 25.099193 40.865326 
L 25.333879 40.853308 
L 25.803251 40.581609 
L 26.037937 41.043911 
L 26.272623 40.857439 
L 26.507309 40.900973 
L 26.741995 40.677137 
L 26.976681 40.900189 
L 27.211367 40.740899 
L 27.680739 40.831454 
L 27.915425 40.639858 
L 28.150111 40.955894 
L 28.854169 40.704628 
L 29.088855 40.870217 
L 29.323541 40.822744 
L 29.792913 40.949873 
L 30.027599 40.806014 
L 30.262285 41.038411 
L 30.496971 40.735771 
L 31.201029 40.8422 
L 31.435715 41.05061 
L 31.905087 40.880375 
L 33.078517 40.772746 
L 33.547889 40.872579 
L 33.782575 40.990815 
L 34.017261 40.864509 
L 34.251947 41.117994 
L 34.486633 40.890025 
L 35.190691 40.874012 
L 35.425377 41.014208 
L 35.894749 40.744653 
L 36.129435 40.924282 
L 36.598807 40.787222 
L 36.833493 40.970707 
L 37.068179 40.77486 
L 37.302865 40.841985 
L 37.537551 40.473553 
L 37.772237 40.90865 
L 38.241609 41.053716 
L 38.710981 40.77565 
L 38.945667 41.01637 
L 39.180353 40.694402 
L 39.415039 40.686774 
L 39.649725 40.834111 
L 40.119097 40.768024 
L 40.353783 40.945264 
L 40.588469 40.688462 
L 40.823155 40.875118 
L 41.057841 40.736404 
L 41.292527 40.738934 
L 41.527214 40.985494 
L 41.7619 40.985663 
L 41.996586 41.158256 
L 42.231272 40.852449 
L 42.700644 40.967371 
L 42.93533 41.057264 
L 43.170016 40.797688 
L 43.639388 41.057658 
L 43.874074 40.831169 
L 44.10876 40.895527 
L 44.343446 40.78364 
L 44.812818 40.986849 
L 45.047504 40.761999 
L 45.28219 41.032591 
L 45.516876 40.971806 
L 45.751562 41.050208 
L 46.220934 40.864326 
L 46.690306 40.998313 
L 46.924992 40.913035 
L 47.159678 40.978707 
L 47.394364 40.76662 
L 47.62905 41.087467 
L 47.863736 40.891053 
L 48.098422 40.919929 
L 48.333108 40.693358 
L 48.80248 41.094925 
L 49.271852 40.856542 
L 49.506538 41.065414 
L 49.741224 40.806175 
L 49.97591 40.901834 
L 50.210596 40.686054 
L 50.445282 40.905637 
L 50.679968 40.666731 
L 51.384026 40.998208 
L 51.853398 40.953739 
L 52.088084 41.054932 
L 52.32277 40.960609 
L 52.792142 41.087206 
L 53.026828 40.803403 
L 53.730886 41.113706 
L 53.965572 41.060804 
L 54.200258 40.728254 
L 54.434944 40.914416 
L 54.66963 41.262928 
L 54.904316 40.992525 
L 55.139002 41.212973 
L 55.373688 40.766232 
L 55.608374 40.83041 
L 55.84306 41.147115 
L 56.547118 40.874179 
L 56.781804 41.071896 
L 57.485862 40.845598 
L 57.720548 41.034804 
L 57.955234 40.967504 
L 58.424606 41.099785 
L 58.659292 41.170294 
L 58.893978 40.979765 
L 59.128664 41.10609 
L 59.36335 40.874517 
L 59.598036 41.074691 
L 59.832722 40.987406 
L 60.067408 41.446269 
L 60.302094 41.005316 
L 60.53678 41.253965 
L 60.771467 41.254635 
L 61.475525 42.146048 
L 61.944897 43.685284 
L 62.179583 43.751665 
L 62.414269 43.430011 
L 63.118327 41.337375 
L 63.587699 40.370618 
L 64.057071 39.559312 
L 64.761129 39.403393 
L 65.465187 39.99672 
L 65.934559 40.037316 
L 66.169245 40.338318 
L 66.403931 39.941229 
L 66.638617 40.289525 
L 66.873303 40.404112 
L 67.107989 40.277309 
L 67.812047 40.613338 
L 68.046733 40.802075 
L 68.281419 40.609404 
L 68.516105 40.837896 
L 68.750791 40.621762 
L 68.985477 40.667671 
L 69.220163 41.031851 
L 69.454849 40.657966 
L 69.689535 40.798919 
L 69.924221 40.654555 
L 70.393593 40.94016 
L 70.862965 40.766922 
L 71.097651 41.155764 
L 71.332337 40.779654 
L 71.801709 40.87755 
L 72.036395 40.796774 
L 72.271081 40.905317 
L 72.505767 40.858602 
L 72.740453 41.027553 
L 72.975139 40.94945 
L 73.209825 41.048363 
L 73.444511 40.725336 
L 73.679197 40.960423 
L 73.913883 40.641497 
L 74.148569 40.898384 
L 74.383255 40.968592 
L 74.617941 40.816246 
L 74.852627 40.799945 
L 75.087313 40.939285 
L 75.791371 40.83541 
L 76.026057 40.827425 
L 76.260743 40.634161 
L 76.495429 40.90532 
L 76.730115 40.858002 
L 76.964801 40.660859 
L 77.199487 40.772726 
L 77.434173 41.011047 
L 78.138231 40.785177 
L 78.372917 40.93108 
L 78.607603 40.725808 
L 78.842289 40.94125 
L 79.076975 40.731392 
L 79.311661 40.899879 
L 79.546347 40.822981 
L 79.781033 40.963826 
L 80.01572 40.831968 
L 80.250406 41.183892 
L 80.485092 40.673571 
L 80.719778 41.03291 
L 80.954464 40.631957 
L 81.18915 40.768742 
L 81.423836 40.750755 
L 81.658522 41.070394 
L 82.36258 40.923166 
L 82.597266 40.831565 
L 83.066638 41.164979 
L 83.301324 40.842085 
L 83.770696 41.115355 
L 84.240068 40.918546 
L 84.944126 41.254921 
L 85.178812 41.12772 
L 85.413498 41.219265 
L 85.648184 41.179615 
L 85.88287 41.29209 
L 86.117556 41.210279 
L 86.821614 41.576944 
L 87.525672 43.940553 
L 87.995044 43.201964 
L 89.40316 40.001103 
L 89.872532 39.636239 
L 90.107218 39.249732 
L 90.341904 39.554791 
L 91.045962 39.709602 
L 91.280648 39.967272 
L 91.515334 39.887556 
L 91.984706 40.335977 
L 92.454078 40.344502 
L 92.688764 40.541057 
L 92.92345 40.478468 
L 93.392822 40.777594 
L 94.800938 40.934816 
L 95.035624 41.06564 
L 95.27031 40.65365 
L 95.504996 40.788464 
L 95.739682 41.081541 
L 95.974368 40.810207 
L 97.147798 40.9246 
L 97.382484 40.820313 
L 97.61717 40.973531 
L 97.851856 40.971633 
L 98.086542 40.678841 
L 98.555914 40.819443 
L 99.025286 40.826288 
L 99.259973 41.036127 
L 99.964031 40.924889 
L 100.668089 40.942146 
L 101.137461 40.794624 
L 101.372147 41.000421 
L 101.841519 40.691181 
L 102.310891 41.008098 
L 102.545577 40.94245 
L 103.014949 41.08744 
L 103.249635 40.974516 
L 103.719007 41.074932 
L 104.188379 40.90033 
L 104.423065 40.719798 
L 104.892437 41.037194 
L 105.361809 40.829548 
L 105.596495 40.976592 
L 105.831181 40.873461 
L 106.065867 40.968116 
L 106.769925 40.848011 
L 107.004611 40.979792 
L 107.473983 40.749841 
L 107.708669 41.116814 
L 107.943355 40.853835 
L 108.412727 41.145553 
L 109.116785 40.992899 
L 109.351471 41.167391 
L 109.820843 41.008782 
L 110.055529 40.961857 
L 110.290215 41.329716 
L 110.524901 41.421965 
L 110.994273 40.944325 
L 111.228959 41.227141 
L 111.463645 41.143534 
L 112.167703 41.510067 
L 112.637075 42.280981 
L 112.871761 43.302041 
L 113.106447 43.630545 
L 113.341133 43.709626 
L 113.575819 43.284453 
L 114.045191 41.699801 
L 114.514563 40.653077 
L 114.749249 39.69792 
L 114.983935 39.758345 
L 115.218621 39.526388 
L 115.922679 39.505082 
L 116.157365 39.549623 
L 116.392051 39.766551 
L 116.626737 39.717358 
L 116.861423 40.033042 
L 117.096109 39.84746 
L 117.330795 42.816316 
L 117.330795 42.816316 
" clip-path="url(#p073269a998)" style="fill: none; stroke: #000000; stroke-linecap: square"/>
   </g>
   <g id="line2d_9">
    <path d="M 23.221705 37.77586 
L 23.456391 35.514444 
L 23.925763 35.874077 
L 24.395135 35.66203 
L 25.099193 35.977606 
L 25.333879 35.845888 
L 25.568565 35.417244 
L 25.803251 35.521275 
L 26.037937 35.76083 
L 26.272623 35.756721 
L 26.507309 35.905031 
L 26.741995 35.461835 
L 26.976681 35.901254 
L 27.211367 35.717143 
L 27.446053 35.727157 
L 27.680739 35.569454 
L 27.915425 35.804809 
L 28.150111 35.847185 
L 28.619483 35.50196 
L 28.854169 35.770686 
L 29.088855 35.69752 
L 29.323541 35.819791 
L 29.558227 35.554414 
L 29.792913 35.781107 
L 30.027599 35.635256 
L 30.262285 36.075072 
L 30.496971 36.050634 
L 30.731657 35.735778 
L 30.966343 35.902161 
L 31.201029 35.627371 
L 31.435715 35.864253 
L 31.905087 35.637058 
L 32.139773 35.583194 
L 32.374459 35.695925 
L 32.609145 35.615397 
L 32.843831 35.897227 
L 33.078517 35.640375 
L 33.313203 35.697704 
L 33.782575 35.432047 
L 34.017261 35.934194 
L 34.251947 35.694366 
L 34.721319 35.548131 
L 35.190691 35.644417 
L 35.425377 35.911816 
L 35.894749 35.757867 
L 36.129435 36.028086 
L 36.364121 35.64995 
L 36.598807 35.647043 
L 37.068179 35.865089 
L 37.772237 35.937197 
L 38.006923 35.4884 
L 38.241609 35.873352 
L 38.476295 35.762449 
L 38.710981 35.521489 
L 38.945667 35.477969 
L 39.415039 35.806128 
L 39.884411 35.630935 
L 40.119097 35.777466 
L 40.353783 35.434062 
L 40.588469 36.190939 
L 41.057841 35.582084 
L 41.292527 35.62244 
L 41.7619 35.935282 
L 41.996586 35.733601 
L 42.231272 35.852798 
L 42.465958 35.626944 
L 42.93533 35.796994 
L 43.404702 35.590552 
L 43.639388 35.648011 
L 43.874074 35.541872 
L 44.10876 35.82831 
L 44.578132 35.443746 
L 45.047504 35.964668 
L 45.28219 35.754695 
L 45.516876 35.847637 
L 45.751562 35.713835 
L 46.924992 35.700176 
L 47.159678 35.961788 
L 47.863736 35.745463 
L 48.098422 35.594783 
L 48.333108 36.046066 
L 48.567794 35.952401 
L 48.80248 35.628686 
L 49.271852 35.639817 
L 49.506538 35.983938 
L 49.741224 35.51084 
L 50.210596 35.949582 
L 50.445282 35.650349 
L 50.679968 35.79845 
L 50.914654 35.752936 
L 51.384026 36.022962 
L 51.853398 35.536477 
L 52.088084 35.888976 
L 52.32277 35.747428 
L 52.792142 36.135814 
L 53.026828 35.7715 
L 53.4962 35.651187 
L 53.965572 35.889856 
L 54.434944 35.895107 
L 54.66963 35.661418 
L 55.139002 35.84519 
L 55.373688 35.559619 
L 56.077746 35.793804 
L 56.312432 35.585336 
L 56.781804 35.748435 
L 57.251176 35.558153 
L 57.485862 35.63556 
L 57.720548 35.901527 
L 57.955234 35.875615 
L 58.18992 35.493147 
L 58.424606 35.587984 
L 58.659292 35.811642 
L 58.893978 35.455672 
L 59.128664 35.459174 
L 59.598036 35.64431 
L 59.832722 35.53129 
L 60.067408 35.639685 
L 60.302094 35.548945 
L 60.53678 35.603287 
L 60.771467 35.186095 
L 61.006153 35.252819 
L 61.710211 34.61719 
L 61.944897 34.215071 
L 62.883641 36.711111 
L 63.118327 36.958917 
L 63.587699 37.08831 
L 63.822385 36.657755 
L 64.057071 36.577106 
L 64.761129 35.64574 
L 64.995815 36.06336 
L 65.230501 35.936925 
L 65.465187 36.047151 
L 66.169245 35.744777 
L 66.403931 35.785649 
L 66.638617 36.070645 
L 66.873303 36.136483 
L 67.342675 35.754856 
L 68.750791 35.749816 
L 68.985477 36.271724 
L 69.220163 35.848868 
L 69.689535 35.921479 
L 69.924221 35.928525 
L 70.158907 35.710716 
L 70.628279 35.720948 
L 71.097651 35.933885 
L 71.332337 35.601563 
L 71.567023 35.849567 
L 71.801709 35.90928 
L 72.505767 35.484207 
L 72.740453 35.838899 
L 72.975139 35.861473 
L 73.209825 35.743198 
L 73.444511 35.797875 
L 73.913883 35.70045 
L 74.148569 35.832219 
L 74.383255 35.677092 
L 74.617941 35.951964 
L 74.852627 35.432749 
L 75.321999 35.752574 
L 75.556685 35.713444 
L 75.791371 35.84684 
L 76.730115 35.686387 
L 76.964801 35.774022 
L 77.199487 35.535855 
L 77.434173 35.856116 
L 77.668859 35.384032 
L 78.372917 35.781163 
L 78.607603 35.697391 
L 78.842289 35.766184 
L 79.311661 35.39706 
L 79.546347 35.876483 
L 79.781033 35.912564 
L 80.250406 35.718071 
L 80.485092 35.9155 
L 81.658522 35.9082 
L 82.127894 35.569419 
L 82.36258 35.652348 
L 82.597266 35.605376 
L 82.831952 35.746364 
L 83.770696 35.740778 
L 84.005382 35.558198 
L 84.240068 35.755645 
L 84.70944 35.602303 
L 84.944126 35.7257 
L 85.648184 35.493156 
L 86.117556 35.684159 
L 86.586928 35.230661 
L 86.821614 35.16415 
L 87.0563 34.979039 
L 87.290986 34.545223 
L 87.525672 34.417139 
L 87.760358 34.800352 
L 88.464416 36.838417 
L 88.933788 37.079181 
L 89.40316 36.764134 
L 89.872532 36.1191 
L 90.341904 35.628267 
L 90.811276 36.009498 
L 91.045962 35.709424 
L 91.280648 35.910962 
L 91.515334 35.688708 
L 91.75002 35.983317 
L 91.984706 35.984714 
L 92.219392 35.749103 
L 92.688764 35.896326 
L 92.92345 35.674422 
L 93.627508 35.896314 
L 93.862194 35.726784 
L 94.09688 35.97513 
L 94.566252 35.758996 
L 95.035624 35.883959 
L 95.504996 35.816577 
L 95.739682 35.579474 
L 95.974368 35.843766 
L 96.209054 35.678242 
L 96.678426 35.970086 
L 97.147798 35.602756 
L 97.382484 35.515779 
L 97.851856 35.841545 
L 98.086542 35.684404 
L 98.321228 35.780849 
L 98.555914 35.712137 
L 98.7906 35.940658 
L 99.259973 35.739616 
L 99.964031 35.795686 
L 100.198717 35.925475 
L 100.433403 35.717138 
L 100.902775 35.755201 
L 101.137461 35.720046 
L 101.372147 35.875254 
L 101.606833 35.651347 
L 101.841519 35.869465 
L 102.310891 35.739373 
L 103.014949 35.881433 
L 103.249635 35.58434 
L 103.484321 35.734844 
L 104.188379 35.618151 
L 104.423065 35.866377 
L 105.127123 35.626694 
L 105.361809 35.702636 
L 105.831181 35.564711 
L 106.065867 35.672681 
L 106.300553 35.611859 
L 106.535239 35.817302 
L 106.769925 35.730184 
L 107.004611 35.901736 
L 107.239297 35.66072 
L 107.473983 35.753455 
L 108.178041 35.6088 
L 108.647413 35.908688 
L 108.882099 35.555491 
L 109.116785 35.578268 
L 109.351471 35.446845 
L 109.586157 35.851506 
L 110.055529 35.61173 
L 110.524901 35.860015 
L 110.994273 35.664001 
L 111.463645 35.42783 
L 111.698331 35.461227 
L 111.933017 35.70625 
L 112.402389 34.979408 
L 112.637075 34.995028 
L 112.871761 34.530266 
L 113.106447 34.637719 
L 113.575819 36.007404 
L 114.045191 36.897334 
L 114.514563 37.140897 
L 114.983935 36.736808 
L 115.218621 36.133096 
L 115.453307 36.185469 
L 116.157365 35.955517 
L 116.392051 35.995526 
L 116.626737 35.724806 
L 117.096109 35.83661 
L 117.330795 37.889653 
L 117.330795 37.889653 
" clip-path="url(#p073269a998)" style="fill: none; stroke: #000000; stroke-linecap: square"/>
   </g>
   <g id="line2d_10">
    <path d="M 23.221705 31.503204 
L 23.456391 28.714698 
L 23.691077 28.681858 
L 23.925763 28.811518 
L 24.160449 28.538078 
L 24.395135 28.724396 
L 24.629821 28.537802 
L 24.864507 28.556304 
L 25.333879 28.280564 
L 25.568565 28.197206 
L 25.803251 28.623175 
L 26.037937 28.558421 
L 26.507309 28.067933 
L 26.741995 28.204773 
L 26.976681 28.575054 
L 27.211367 28.379554 
L 27.446053 28.483626 
L 27.680739 28.358875 
L 28.150111 28.593526 
L 28.619483 28.380612 
L 29.088855 28.155351 
L 29.323541 28.380823 
L 29.558227 28.207898 
L 29.792913 28.489395 
L 30.262285 28.204812 
L 30.496971 28.458114 
L 30.731657 28.199193 
L 30.966343 28.352157 
L 31.201029 28.163827 
L 31.670401 28.549334 
L 31.905087 28.306304 
L 32.609145 28.439746 
L 32.843831 28.182214 
L 33.078517 28.50877 
L 33.313203 28.228586 
L 33.547889 28.178347 
L 33.782575 28.366548 
L 34.017261 28.279802 
L 34.251947 28.42901 
L 34.486633 28.405803 
L 34.721319 28.14703 
L 34.956005 28.453778 
L 35.425377 28.348097 
L 35.660063 28.149722 
L 35.894749 28.748072 
L 36.129435 28.253572 
L 36.364121 28.390459 
L 36.598807 28.333666 
L 36.833493 28.504001 
L 37.068179 28.217444 
L 37.302865 28.259415 
L 37.537551 28.466617 
L 37.772237 28.272298 
L 38.241609 28.453743 
L 38.710981 28.158712 
L 38.945667 28.427871 
L 39.180353 28.228513 
L 39.649725 28.522062 
L 39.884411 28.313264 
L 40.119097 28.324559 
L 40.353783 28.530116 
L 40.823155 28.258975 
L 41.057841 28.416075 
L 42.465958 28.399893 
L 42.700644 28.673552 
L 42.93533 28.343836 
L 43.404702 28.388919 
L 43.639388 28.635768 
L 44.10876 28.25871 
L 44.812818 28.358757 
L 45.047504 28.003781 
L 45.28219 28.452232 
L 45.516876 28.517352 
L 45.751562 28.111198 
L 46.220934 28.648859 
L 46.45562 28.412608 
L 46.690306 28.722415 
L 46.924992 28.288489 
L 47.394364 28.578304 
L 47.62905 28.30302 
L 47.863736 28.491681 
L 48.098422 28.309395 
L 48.333108 28.454688 
L 48.567794 28.398061 
L 48.80248 28.463664 
L 49.037166 28.183207 
L 49.271852 28.154712 
L 49.506538 28.445231 
L 49.741224 28.490115 
L 50.210596 28.446853 
L 51.384026 28.401933 
L 51.618712 28.314885 
L 51.853398 28.443627 
L 52.088084 28.17219 
L 52.557456 28.365338 
L 53.026828 28.171646 
L 53.4962 28.54782 
L 53.730886 28.256636 
L 53.965572 28.375273 
L 54.434944 28.152505 
L 54.66963 28.636205 
L 55.139002 28.253932 
L 55.608374 28.68329 
L 55.84306 28.424733 
L 56.077746 28.625138 
L 56.312432 28.272505 
L 56.781804 28.420222 
L 57.251176 28.149547 
L 57.485862 28.34047 
L 57.720548 28.203387 
L 58.18992 28.495194 
L 58.424606 28.393187 
L 58.659292 28.161558 
L 58.893978 28.417905 
L 59.598036 28.469187 
L 59.832722 28.226593 
L 60.067408 28.442978 
L 60.53678 28.280592 
L 60.771467 28.493451 
L 61.240839 28.433188 
L 61.475525 28.674446 
L 62.179583 31.057961 
L 62.414269 30.897585 
L 62.883641 29.402538 
L 63.118327 28.990909 
L 63.353013 28.280927 
L 63.587699 28.097305 
L 63.822385 27.565427 
L 64.526443 27.575963 
L 64.761129 27.376825 
L 65.230501 27.727233 
L 65.699873 27.89427 
L 65.934559 27.862681 
L 66.638617 28.088189 
L 66.873303 27.790495 
L 67.107989 28.145561 
L 67.342675 27.957542 
L 67.577361 28.166617 
L 67.812047 28.531399 
L 68.046733 28.266591 
L 68.281419 28.285748 
L 68.516105 28.480982 
L 68.750791 28.301311 
L 69.454849 28.523841 
L 69.689535 28.401413 
L 70.158907 28.61772 
L 70.393593 28.694142 
L 70.628279 28.596178 
L 70.862965 28.3435 
L 71.567023 28.507699 
L 71.801709 28.347513 
L 72.271081 28.634852 
L 72.505767 28.147497 
L 72.975139 28.546807 
L 73.209825 28.382263 
L 73.444511 28.482111 
L 73.679197 28.416024 
L 73.913883 28.598865 
L 74.617941 28.384598 
L 74.852627 28.582003 
L 75.087313 28.352639 
L 75.556685 28.690847 
L 75.791371 28.436197 
L 76.730115 28.447112 
L 76.964801 28.245928 
L 77.199487 28.499845 
L 77.668859 28.222581 
L 77.903545 28.481109 
L 78.138231 28.562932 
L 79.076975 28.345891 
L 79.311661 28.414815 
L 79.546347 28.351829 
L 80.01572 28.584448 
L 80.250406 28.428966 
L 80.485092 28.430728 
L 80.719778 28.551827 
L 81.18915 28.267022 
L 81.658522 28.421118 
L 81.893208 28.335246 
L 82.36258 28.316791 
L 82.597266 28.305877 
L 82.831952 28.140775 
L 83.066638 28.413819 
L 83.53601 28.263216 
L 83.770696 28.315675 
L 84.005382 28.579775 
L 84.240068 28.267364 
L 84.474754 28.47739 
L 84.70944 28.206497 
L 85.178812 28.437739 
L 85.413498 28.394317 
L 85.88287 28.498506 
L 86.117556 28.285636 
L 87.0563 28.653994 
L 87.760358 31.034681 
L 87.995044 30.957265 
L 88.464416 29.319048 
L 88.699102 29.059174 
L 89.168474 28.10436 
L 89.637846 27.512936 
L 89.872532 27.399217 
L 90.107218 27.579176 
L 90.341904 27.451929 
L 90.57659 27.674272 
L 91.515334 27.787246 
L 91.984706 27.967415 
L 92.219392 27.87234 
L 92.454078 28.134018 
L 92.688764 28.155618 
L 92.92345 28.318129 
L 93.158136 28.108697 
L 93.392822 28.313826 
L 94.800938 28.380736 
L 95.035624 28.567465 
L 95.974368 28.454147 
L 96.209054 28.456202 
L 96.44374 28.343717 
L 96.678426 28.639926 
L 96.913112 28.373733 
L 97.147798 28.574033 
L 97.382484 28.607316 
L 97.61717 28.236718 
L 97.851856 28.432256 
L 98.086542 28.409297 
L 98.321228 28.598763 
L 98.555914 28.578348 
L 98.7906 28.39785 
L 99.025286 28.491582 
L 101.372147 28.296037 
L 101.606833 28.489739 
L 101.841519 28.358325 
L 102.076205 28.539174 
L 102.310891 28.251087 
L 102.545577 28.507257 
L 102.780263 28.473379 
L 103.014949 28.58887 
L 103.249635 28.282278 
L 103.484321 28.363485 
L 103.953693 28.293544 
L 104.188379 28.360052 
L 104.423065 28.273856 
L 104.657751 28.422152 
L 105.127123 28.464307 
L 105.361809 28.277683 
L 105.831181 28.507805 
L 106.065867 28.34703 
L 106.300553 28.50649 
L 106.535239 28.390452 
L 106.769925 28.408651 
L 107.004611 28.572658 
L 107.239297 28.274264 
L 107.473983 28.501709 
L 107.708669 28.31302 
L 108.178041 28.893685 
L 108.412727 28.381127 
L 108.647413 28.498832 
L 109.820843 28.24864 
L 110.055529 28.6336 
L 110.524901 28.265444 
L 111.228959 28.487746 
L 111.463645 28.228435 
L 112.167703 28.449154 
L 112.402389 28.632914 
L 112.637075 28.984342 
L 113.106447 30.465503 
L 113.341133 31.075828 
L 114.045191 29.326522 
L 114.514563 28.163038 
L 114.749249 28.134493 
L 114.983935 27.861361 
L 115.218621 27.361765 
L 115.453307 27.579448 
L 116.157365 27.63538 
L 116.392051 27.861702 
L 116.626737 27.657524 
L 116.861423 27.968979 
L 117.096109 27.818985 
L 117.330795 30.375148 
L 117.330795 30.375148 
" clip-path="url(#p073269a998)" style="fill: none; stroke: #000000; stroke-linecap: square"/>
   </g>
   <g id="line2d_11">
    <path d="M 23.221705 24.775159 
L 23.456391 23.601049 
L 24.160449 23.262625 
L 24.395135 23.455448 
L 24.629821 23.362861 
L 24.864507 23.462254 
L 25.568565 23.281562 
L 25.803251 23.271958 
L 26.037937 23.461263 
L 26.272623 23.278632 
L 26.507309 23.267493 
L 26.741995 23.142811 
L 27.446053 23.383269 
L 27.915425 23.220836 
L 28.150111 23.147045 
L 28.619483 23.292359 
L 28.854169 23.495766 
L 29.323541 23.257208 
L 29.558227 23.444019 
L 29.792913 23.191266 
L 30.027599 23.550441 
L 30.262285 22.949363 
L 30.731657 23.425278 
L 30.966343 23.1062 
L 31.201029 23.431822 
L 31.435715 23.362668 
L 31.905087 23.484198 
L 32.609145 23.26954 
L 32.843831 23.474318 
L 33.313203 23.360132 
L 33.547889 23.515629 
L 33.782575 23.018472 
L 34.251947 23.416455 
L 34.486633 23.188308 
L 35.190691 23.557243 
L 35.425377 23.381393 
L 36.364121 23.384656 
L 36.833493 23.51101 
L 37.068179 23.272972 
L 37.302865 23.468547 
L 37.537551 23.4498 
L 37.772237 23.133148 
L 38.006923 23.150707 
L 38.241609 23.462416 
L 38.476295 23.154575 
L 38.710981 23.641018 
L 38.945667 23.238091 
L 39.415039 23.391901 
L 39.649725 23.380974 
L 39.884411 23.218911 
L 40.823155 23.578428 
L 41.057841 23.254062 
L 41.292527 23.174289 
L 41.7619 23.461366 
L 41.996586 23.46414 
L 42.700644 23.076389 
L 42.93533 23.467793 
L 43.170016 23.298526 
L 43.874074 23.283664 
L 44.10876 23.133508 
L 44.343446 23.440531 
L 44.812818 23.13904 
L 45.28219 23.348854 
L 45.516876 23.248778 
L 46.220934 23.429021 
L 46.45562 23.289241 
L 46.690306 23.460113 
L 46.924992 23.468379 
L 47.159678 23.190169 
L 47.394364 23.1751 
L 47.863736 23.663337 
L 48.098422 23.420371 
L 48.567794 23.372733 
L 48.80248 23.462232 
L 49.506538 23.284357 
L 49.741224 23.349838 
L 49.97591 23.247674 
L 50.210596 23.407795 
L 50.679968 23.085446 
L 50.914654 23.2636 
L 51.384026 23.214032 
L 52.32277 23.322189 
L 52.557456 23.508537 
L 52.792142 23.531092 
L 53.026828 23.226726 
L 53.4962 23.281876 
L 53.730886 23.63241 
L 53.965572 23.260377 
L 54.200258 23.224163 
L 54.66963 23.379077 
L 54.904316 23.12223 
L 55.139002 23.459661 
L 55.373688 23.305977 
L 55.608374 23.45889 
L 55.84306 23.403806 
L 56.312432 23.595199 
L 56.547118 23.277752 
L 56.781804 23.324685 
L 57.01649 23.211571 
L 57.251176 23.322998 
L 57.485862 23.264819 
L 57.955234 23.494389 
L 58.18992 23.374685 
L 58.424606 23.419772 
L 58.659292 23.09345 
L 58.893978 23.362361 
L 59.128664 23.165067 
L 59.832722 23.243376 
L 60.302094 23.220494 
L 60.53678 23.257784 
L 60.771467 23.10439 
L 61.006153 23.168709 
L 61.240839 23.048241 
L 61.710211 23.257503 
L 62.179583 23.912426 
L 62.648955 24.180072 
L 63.118327 23.994347 
L 63.353013 23.696412 
L 63.587699 23.720271 
L 64.291757 23.139259 
L 64.995815 23.339791 
L 65.230501 23.100324 
L 65.465187 23.124744 
L 65.934559 22.880473 
L 66.169245 23.234133 
L 66.403931 22.999062 
L 66.873303 23.303466 
L 67.107989 23.200689 
L 67.577361 23.349139 
L 67.812047 23.208755 
L 68.046733 23.256857 
L 68.281419 23.049931 
L 68.516105 23.40315 
L 68.985477 23.306817 
L 69.220163 23.255686 
L 69.454849 23.360255 
L 69.689535 23.039755 
L 69.924221 23.428733 
L 70.628279 23.415364 
L 70.862965 23.145436 
L 71.097651 23.593243 
L 71.567023 23.246568 
L 71.801709 23.498408 
L 72.036395 23.413976 
L 72.271081 23.603288 
L 72.740453 23.250118 
L 72.975139 23.408916 
L 73.209825 23.190774 
L 73.679197 23.540754 
L 74.148569 23.310029 
L 74.383255 23.440627 
L 74.617941 23.40589 
L 74.852627 23.081674 
L 75.087313 23.496076 
L 75.556685 23.222398 
L 75.791371 23.448522 
L 76.260743 23.317325 
L 76.495429 23.516667 
L 76.964801 23.263482 
L 77.199487 23.384949 
L 77.434173 23.200862 
L 77.668859 23.425701 
L 77.903545 23.453211 
L 78.138231 23.651264 
L 78.372917 23.244029 
L 78.842289 23.385023 
L 79.076975 23.544734 
L 79.546347 23.24282 
L 79.781033 23.401954 
L 80.250406 23.446179 
L 80.485092 23.174487 
L 80.719778 23.214057 
L 81.18915 23.134551 
L 81.423836 23.545895 
L 81.658522 23.337247 
L 81.893208 23.292432 
L 82.127894 23.411027 
L 82.36258 23.355327 
L 82.597266 23.16942 
L 82.831952 23.434817 
L 83.066638 23.355503 
L 83.301324 23.446536 
L 83.53601 23.210788 
L 83.770696 23.438849 
L 84.240068 23.171238 
L 84.474754 23.423465 
L 84.944126 23.187626 
L 85.413498 23.24948 
L 85.648184 23.011751 
L 85.88287 23.058122 
L 86.117556 23.223635 
L 86.352242 23.241365 
L 86.586928 23.084291 
L 86.821614 23.124181 
L 87.0563 22.919555 
L 87.525672 23.150267 
L 87.760358 23.964456 
L 88.464416 24.346458 
L 88.699102 23.700643 
L 88.933788 23.949643 
L 89.168474 23.600975 
L 89.40316 23.514117 
L 89.637846 23.014825 
L 90.341904 23.191512 
L 90.57659 23.057182 
L 91.280648 23.146978 
L 91.515334 22.878013 
L 91.75002 23.600501 
L 91.984706 23.075852 
L 92.219392 22.862752 
L 92.454078 23.397403 
L 92.688764 23.455107 
L 92.92345 23.202102 
L 93.158136 23.259981 
L 93.627508 23.104477 
L 94.331566 23.384571 
L 94.566252 23.571816 
L 94.800938 23.225675 
L 95.504996 23.437217 
L 95.739682 23.18662 
L 95.974368 23.352703 
L 96.913112 23.109221 
L 97.147798 23.311413 
L 98.086542 23.262116 
L 98.555914 23.081284 
L 98.7906 23.406464 
L 99.025286 23.141538 
L 99.494659 23.33086 
L 99.729345 23.222658 
L 99.964031 23.431632 
L 100.198717 23.312402 
L 100.902775 23.386534 
L 101.137461 23.240782 
L 101.372147 23.560398 
L 101.606833 23.297863 
L 101.841519 23.483851 
L 102.076205 23.304681 
L 102.310891 23.424896 
L 102.780263 23.335149 
L 103.014949 23.459122 
L 103.484321 23.275102 
L 103.719007 23.528995 
L 103.953693 23.011281 
L 104.188379 23.323807 
L 104.423065 23.30238 
L 104.657751 23.117926 
L 104.892437 23.713435 
L 105.361809 23.337242 
L 105.596495 23.480986 
L 105.831181 23.194778 
L 106.300553 23.477452 
L 106.535239 23.204611 
L 107.239297 23.455744 
L 107.708669 23.247402 
L 107.943355 23.651403 
L 108.178041 23.208153 
L 108.412727 23.487825 
L 108.647413 23.178261 
L 108.882099 23.453513 
L 109.116785 23.228315 
L 109.351471 23.257451 
L 109.586157 23.418151 
L 110.055529 23.299299 
L 110.759587 23.157274 
L 110.994273 23.377451 
L 111.228959 23.150092 
L 112.637075 22.996404 
L 112.871761 23.213801 
L 113.106447 23.784726 
L 113.341133 23.789329 
L 113.575819 24.224867 
L 113.810505 24.318789 
L 114.045191 23.989171 
L 114.279877 24.021029 
L 114.514563 23.646287 
L 114.749249 23.553143 
L 115.218621 23.168366 
L 115.453307 23.274314 
L 115.687993 23.063338 
L 116.157365 23.122657 
L 116.392051 22.971754 
L 116.626737 23.209272 
L 116.861423 23.076259 
L 117.096109 23.268488 
L 117.330795 24.533549 
L 117.330795 24.533549 
" clip-path="url(#p073269a998)" style="fill: none; stroke: #000000; stroke-linecap: square"/>
   </g>
   <g id="line2d_12">
    <path d="M 23.221705 18.516626 
L 23.456391 17.039975 
L 24.160449 16.914564 
L 24.629821 16.882208 
L 24.864507 16.845941 
L 25.099193 17.367963 
L 25.333879 16.876614 
L 25.803251 17.232031 
L 26.272623 16.711936 
L 26.507309 16.987633 
L 26.741995 16.606442 
L 26.976681 17.00814 
L 27.211367 16.845701 
L 27.446053 16.862282 
L 27.680739 17.066389 
L 28.384797 16.960841 
L 28.619483 16.881984 
L 29.088855 17.051879 
L 29.323541 17.036819 
L 29.558227 17.191833 
L 29.792913 16.844797 
L 30.027599 16.760699 
L 30.262285 17.039826 
L 30.966343 16.793092 
L 31.201029 17.00411 
L 31.435715 16.813704 
L 31.670401 16.923655 
L 31.905087 16.729995 
L 32.139773 17.066483 
L 32.374459 16.899351 
L 32.609145 16.968423 
L 33.078517 16.841316 
L 33.313203 17.053529 
L 33.547889 17.030043 
L 33.782575 16.828469 
L 34.017261 17.063334 
L 34.251947 17.077248 
L 34.486633 16.576709 
L 34.956005 17.046703 
L 35.190691 16.843256 
L 35.425377 17.155206 
L 35.660063 16.966282 
L 35.894749 17.253291 
L 36.129435 17.019469 
L 37.068179 16.843879 
L 37.772237 17.031929 
L 38.476295 16.917371 
L 38.945667 17.163261 
L 39.180353 16.859291 
L 39.649725 17.087999 
L 40.119097 16.786755 
L 40.353783 16.975184 
L 40.823155 16.644776 
L 41.057841 16.885208 
L 41.527214 16.791809 
L 41.7619 17.248036 
L 41.996586 16.822498 
L 42.231272 16.899667 
L 42.465958 17.266607 
L 42.700644 17.208681 
L 42.93533 16.733966 
L 43.170016 16.891677 
L 43.404702 16.856525 
L 43.639388 17.001172 
L 43.874074 16.893003 
L 44.10876 17.008303 
L 44.812818 16.849325 
L 45.516876 17.12697 
L 46.220934 16.875628 
L 46.45562 17.214125 
L 46.690306 16.836008 
L 46.924992 16.930145 
L 47.159678 17.219534 
L 47.394364 16.942557 
L 47.62905 17.001393 
L 47.863736 16.927715 
L 48.098422 17.106174 
L 48.333108 16.912933 
L 49.271852 17.001218 
L 49.506538 16.887442 
L 49.741224 16.944608 
L 49.97591 16.745413 
L 50.210596 17.090332 
L 50.445282 17.078796 
L 50.679968 16.919197 
L 50.914654 17.081305 
L 51.14934 16.971729 
L 51.384026 17.120933 
L 51.618712 16.848677 
L 51.853398 16.931906 
L 52.32277 16.892947 
L 52.557456 16.861899 
L 52.792142 17.074799 
L 53.4962 16.751025 
L 53.730886 16.934407 
L 54.904316 16.814147 
L 55.139002 16.73287 
L 55.373688 17.086261 
L 55.608374 16.908888 
L 55.84306 17.003916 
L 56.077746 16.85872 
L 56.781804 17.120738 
L 57.485862 16.842984 
L 57.720548 16.960496 
L 57.955234 16.830193 
L 58.18992 16.930209 
L 58.424606 16.848462 
L 58.659292 16.942628 
L 58.893978 16.845575 
L 59.36335 16.928303 
L 59.598036 16.863101 
L 60.067408 16.956643 
L 60.302094 16.58942 
L 60.771467 16.802185 
L 61.006153 16.528212 
L 61.240839 16.754453 
L 61.475525 16.714369 
L 61.710211 16.310907 
L 62.414269 17.270932 
L 62.648955 16.980605 
L 62.883641 17.380416 
L 63.353013 17.098748 
L 64.761129 17.383808 
L 65.465187 16.948617 
L 65.699873 17.244863 
L 65.934559 17.202259 
L 66.169245 16.871058 
L 66.403931 16.978109 
L 66.638617 17.218744 
L 67.107989 16.879613 
L 67.342675 17.012771 
L 67.812047 16.650034 
L 68.046733 17.070535 
L 68.281419 16.974969 
L 68.516105 17.20836 
L 68.985477 16.907431 
L 69.220163 17.110807 
L 70.158907 16.746853 
L 70.393593 16.850059 
L 70.628279 16.750976 
L 70.862965 16.994085 
L 71.567023 16.974164 
L 71.801709 17.228367 
L 72.036395 17.098647 
L 72.271081 17.108076 
L 72.740453 16.77243 
L 72.975139 16.998899 
L 73.444511 17.057154 
L 73.679197 16.814902 
L 73.913883 16.949661 
L 74.148569 16.921428 
L 74.383255 17.083009 
L 74.852627 16.783525 
L 75.087313 17.025641 
L 75.321999 16.90379 
L 75.556685 17.104931 
L 75.791371 16.961058 
L 76.026057 16.982747 
L 76.260743 16.801719 
L 76.495429 16.909558 
L 76.730115 17.184914 
L 76.964801 16.838984 
L 77.199487 17.102579 
L 77.434173 17.113921 
L 77.668859 16.701523 
L 77.903545 16.841465 
L 78.372917 16.693532 
L 78.842289 16.996922 
L 79.311661 17.02864 
L 79.546347 17.149403 
L 79.781033 16.865242 
L 80.01572 16.943435 
L 80.250406 16.820124 
L 80.485092 17.054531 
L 81.658522 16.837425 
L 81.893208 16.682063 
L 82.127894 17.074314 
L 82.36258 16.826524 
L 82.831952 16.985429 
L 83.066638 16.632536 
L 83.301324 17.030602 
L 83.53601 17.028156 
L 83.770696 17.151441 
L 84.240068 16.872823 
L 84.70944 17.031929 
L 84.944126 16.902208 
L 85.648184 16.94182 
L 85.88287 16.697157 
L 86.117556 16.952 
L 86.586928 16.714292 
L 86.821614 16.538766 
L 87.0563 16.5109 
L 87.760358 16.751563 
L 87.995044 17.192245 
L 88.464416 17.150129 
L 88.933788 17.027785 
L 89.168474 17.169137 
L 89.40316 17.03669 
L 89.637846 17.057579 
L 89.872532 17.312263 
L 90.811276 16.976389 
L 91.045962 17.208339 
L 91.515334 17.021761 
L 91.75002 17.29304 
L 91.984706 17.224968 
L 92.219392 16.970466 
L 92.454078 17.24976 
L 92.688764 16.671527 
L 92.92345 16.939145 
L 93.862194 17.033547 
L 94.331566 16.886725 
L 94.566252 17.109718 
L 94.800938 16.888864 
L 95.035624 16.991704 
L 95.27031 16.867478 
L 95.504996 17.084563 
L 95.739682 16.95785 
L 95.974368 17.034437 
L 96.44374 16.881392 
L 96.678426 17.246297 
L 97.147798 16.767001 
L 97.61717 17.097347 
L 98.321228 16.859447 
L 98.7906 17.018377 
L 99.494659 16.892474 
L 99.964031 16.985024 
L 100.198717 16.878795 
L 101.137461 17.183883 
L 101.372147 16.488493 
L 101.606833 17.067067 
L 101.841519 16.79702 
L 102.076205 16.996647 
L 103.249635 16.981886 
L 103.484321 16.856812 
L 103.953693 17.040247 
L 104.188379 16.961144 
L 104.423065 16.73361 
L 104.657751 17.02771 
L 104.892437 16.956859 
L 105.127123 16.732268 
L 105.831181 16.901931 
L 106.769925 16.949086 
L 107.943355 16.848025 
L 108.178041 17.030055 
L 108.412727 17.006345 
L 108.882099 17.125387 
L 109.116785 16.819393 
L 109.351471 16.961139 
L 109.586157 16.850378 
L 109.820843 16.868909 
L 110.055529 16.999805 
L 110.290215 16.767558 
L 110.524901 16.957313 
L 110.759587 16.713349 
L 110.994273 16.997842 
L 111.228959 16.68033 
L 111.463645 16.964313 
L 111.933017 16.76779 
L 112.167703 16.934912 
L 112.871761 16.4279 
L 113.575819 17.282995 
L 113.810505 16.971282 
L 114.045191 17.213329 
L 114.514563 17.188289 
L 114.983935 17.293689 
L 115.218621 17.002857 
L 115.453307 17.459656 
L 115.687993 17.264692 
L 115.922679 17.325901 
L 117.096109 16.929783 
L 117.330795 18.63181 
L 117.330795 18.63181 
" clip-path="url(#p073269a998)" style="fill: none; stroke: #000000; stroke-linecap: square"/>
   </g>
   <g id="line2d_13">
    <path d="M 23.221705 12.295636 
L 23.456391 11.031318 
L 23.925763 10.655031 
L 24.160449 10.992676 
L 24.629821 10.65081 
L 25.099193 10.805221 
L 25.333879 10.948396 
L 25.568565 10.860755 
L 25.803251 10.598974 
L 26.037937 10.790878 
L 27.211367 10.46041 
L 27.446053 10.7103 
L 27.680739 10.771024 
L 27.915425 10.515033 
L 28.384797 10.548286 
L 28.619483 10.693976 
L 28.854169 10.583949 
L 29.088855 10.740736 
L 29.323541 10.57994 
L 29.558227 10.849788 
L 29.792913 10.634073 
L 30.027599 10.777226 
L 30.262285 10.392334 
L 30.496971 10.68803 
L 30.731657 10.607738 
L 30.966343 10.739736 
L 31.201029 10.437826 
L 31.670401 10.872116 
L 32.139773 10.670616 
L 32.374459 10.612189 
L 32.609145 10.800386 
L 32.843831 10.474097 
L 33.078517 10.722075 
L 33.313203 10.529085 
L 33.547889 10.737628 
L 33.782575 10.596577 
L 34.017261 10.735722 
L 34.486633 10.502342 
L 34.721319 10.87326 
L 34.956005 10.653286 
L 35.425377 10.927907 
L 35.660063 10.79106 
L 36.129435 10.826832 
L 36.364121 10.682798 
L 36.833493 10.607546 
L 37.068179 10.460943 
L 37.302865 10.688583 
L 37.537551 10.653817 
L 38.006923 10.771843 
L 38.476295 10.4785 
L 38.945667 10.602778 
L 39.180353 10.955016 
L 39.415039 10.489898 
L 39.649725 10.564153 
L 39.884411 10.773842 
L 40.588469 10.639017 
L 40.823155 10.949071 
L 41.057841 10.65136 
L 41.7619 10.663986 
L 41.996586 10.591552 
L 42.231272 10.979129 
L 42.465958 10.720942 
L 42.700644 10.771106 
L 42.93533 10.370295 
L 43.170016 10.600033 
L 43.404702 10.388846 
L 43.639388 10.661262 
L 44.10876 10.765025 
L 44.578132 10.364051 
L 45.516876 10.816539 
L 45.986248 10.628667 
L 46.220934 10.815309 
L 46.690306 10.72397 
L 47.863736 10.583628 
L 48.098422 10.692498 
L 48.333108 10.576879 
L 48.567794 10.77639 
L 49.037166 10.658486 
L 49.271852 10.888373 
L 49.506538 10.870001 
L 49.741224 10.698681 
L 49.97591 10.707542 
L 50.210596 10.484092 
L 50.445282 10.747464 
L 50.914654 10.817201 
L 51.618712 10.573434 
L 51.853398 10.678284 
L 52.088084 10.613717 
L 52.32277 10.428492 
L 52.792142 10.859472 
L 53.026828 10.641786 
L 53.261514 10.773498 
L 53.4962 10.701213 
L 53.730886 10.854605 
L 53.965572 10.634466 
L 54.66963 10.627869 
L 54.904316 10.496101 
L 55.373688 10.795517 
L 55.608374 10.589114 
L 56.077746 10.940965 
L 56.312432 10.526801 
L 56.547118 10.429609 
L 56.781804 10.676916 
L 57.01649 10.651391 
L 57.251176 10.382334 
L 57.485862 10.643444 
L 57.720548 10.503657 
L 57.955234 10.501468 
L 58.18992 10.758108 
L 58.659292 10.44458 
L 58.893978 10.555571 
L 59.128664 10.530022 
L 59.36335 10.352559 
L 59.598036 10.804457 
L 59.832722 10.594795 
L 60.53678 10.55118 
L 60.771467 10.351616 
L 61.006153 10.42329 
L 61.475525 10.206712 
L 61.710211 10.471995 
L 61.944897 10.434896 
L 62.179583 11.216915 
L 62.648955 11.703298 
L 62.883641 11.279811 
L 63.118327 11.250054 
L 63.353013 10.982029 
L 63.822385 10.902627 
L 64.057071 10.787716 
L 64.526443 10.840395 
L 64.995815 10.4999 
L 65.230501 10.363151 
L 65.465187 10.507032 
L 65.699873 10.468151 
L 65.934559 10.556433 
L 66.169245 10.469207 
L 66.403931 10.639758 
L 66.638617 10.636911 
L 66.873303 10.426255 
L 67.107989 10.716464 
L 67.577361 10.680917 
L 67.812047 10.546228 
L 69.454849 10.682854 
L 69.689535 11.019535 
L 69.924221 10.588607 
L 70.628279 10.877973 
L 70.862965 10.62957 
L 71.332337 10.506535 
L 71.567023 10.57404 
L 71.801709 10.894039 
L 72.036395 10.482134 
L 72.271081 10.472257 
L 72.740453 10.7272 
L 72.975139 10.842688 
L 73.209825 10.6052 
L 74.148569 10.810282 
L 74.383255 10.444208 
L 74.852627 10.590313 
L 75.321999 10.800414 
L 75.791371 10.448878 
L 76.026057 10.75856 
L 76.260743 10.774203 
L 76.730115 10.41271 
L 76.964801 10.903135 
L 77.199487 10.596933 
L 77.903545 10.639339 
L 78.138231 10.90275 
L 78.372917 10.750711 
L 78.607603 10.850165 
L 79.311661 10.581869 
L 79.781033 10.731262 
L 80.250406 10.417016 
L 80.485092 10.989804 
L 81.18915 10.492704 
L 81.423836 10.818056 
L 81.658522 10.684577 
L 81.893208 10.750436 
L 82.127894 10.498939 
L 82.597266 10.639364 
L 82.831952 10.544179 
L 83.53601 10.620954 
L 84.474754 10.581599 
L 84.70944 10.800667 
L 85.178812 10.644632 
L 85.413498 10.675007 
L 85.648184 10.493545 
L 85.88287 10.572594 
L 86.117556 10.447114 
L 86.352242 10.641085 
L 86.586928 10.368866 
L 86.821614 10.470521 
L 87.0563 10.29034 
L 87.290986 10.260057 
L 87.525672 10.43139 
L 87.995044 11.400978 
L 88.22973 11.635204 
L 89.168474 11.016658 
L 89.40316 11.055139 
L 89.637846 10.613885 
L 89.872532 10.808155 
L 90.107218 10.654971 
L 90.341904 10.814248 
L 90.57659 10.633062 
L 90.811276 10.656535 
L 91.045962 10.504775 
L 91.280648 10.507453 
L 91.515334 10.679105 
L 91.75002 10.51764 
L 91.984706 10.761009 
L 92.219392 10.381631 
L 92.454078 10.482581 
L 92.688764 10.857828 
L 92.92345 10.455141 
L 93.158136 10.522465 
L 93.392822 10.438303 
L 93.627508 10.608724 
L 94.331566 10.578706 
L 94.800938 10.704535 
L 95.27031 10.528849 
L 95.504996 10.935088 
L 95.739682 10.956624 
L 95.974368 10.787176 
L 96.209054 10.798101 
L 96.44374 10.66532 
L 96.678426 10.731017 
L 96.913112 10.586304 
L 97.147798 10.713564 
L 97.382484 10.580464 
L 97.61717 10.906127 
L 97.851856 10.586684 
L 99.025286 10.758092 
L 99.494659 10.464198 
L 99.964031 10.83926 
L 100.198717 10.673319 
L 100.433403 10.696966 
L 100.668089 10.524374 
L 100.902775 10.805099 
L 101.372147 10.528242 
L 101.606833 10.515656 
L 101.841519 10.748936 
L 102.780263 10.534095 
L 103.014949 10.728187 
L 103.249635 10.508533 
L 103.484321 10.613537 
L 103.719007 10.840628 
L 104.188379 10.44389 
L 104.423065 10.800482 
L 104.657751 10.666255 
L 105.361809 10.771199 
L 105.596495 10.485754 
L 105.831181 10.734907 
L 106.300553 10.689848 
L 106.535239 10.946077 
L 107.004611 10.499553 
L 107.239297 10.672033 
L 107.473983 10.343944 
L 107.708669 10.826463 
L 107.943355 10.713574 
L 108.178041 10.373988 
L 108.647413 10.669778 
L 108.882099 10.710147 
L 109.116785 10.536556 
L 109.351471 10.826506 
L 109.820843 10.430531 
L 110.055529 10.758733 
L 110.290215 10.78435 
L 110.524901 10.489082 
L 110.759587 10.863631 
L 110.994273 10.450791 
L 111.228959 10.521506 
L 111.463645 10.401902 
L 111.933017 10.650157 
L 112.167703 10.492385 
L 112.402389 10.169091 
L 112.871761 10.288582 
L 113.341133 11.134711 
L 113.810505 11.389475 
L 114.279877 11.254156 
L 114.514563 10.994682 
L 114.749249 10.962706 
L 114.983935 11.042921 
L 115.218621 10.733013 
L 115.453307 10.966284 
L 115.687993 10.618568 
L 115.922679 10.757756 
L 116.157365 10.28159 
L 116.626737 10.661829 
L 116.861423 10.484412 
L 117.096109 10.512403 
L 117.330795 11.942775 
L 117.330795 11.942775 
" clip-path="url(#p073269a998)" style="fill: none; stroke: #000000; stroke-linecap: square"/>
   </g>
   <g id="patch_3">
    <path d="M 18.51625 72.52 
L 18.51625 7.2 
" style="fill: none; stroke: #000000; stroke-width: 1.5; stroke-linejoin: miter; stroke-linecap: square"/>
   </g>
   <g id="patch_4">
    <path d="M 18.51625 72.52 
L 122.03625 72.52 
" style="fill: none; stroke: #000000; stroke-width: 1.5; stroke-linejoin: miter; stroke-linecap: square"/>
   </g>
  </g>
 </g>
 <defs>
  <clipPath id="p073269a998">
   <rect x="18.51625" y="7.2" width="103.52" height="65.32"/>
  </clipPath>
 </defs>
</svg>
