<?xml version="1.0" encoding="utf-8" standalone="no"?>
<!DOCTYPE svg PUBLIC "-//W3C//DTD SVG 1.1//EN"
  "http://www.w3.org/Graphics/SVG/1.1/DTD/svg11.dtd">
<svg xmlns:xlink="http://www.w3.org/1999/xlink" width="130.268731pt" height="141.766601pt" viewBox="0 0 130.268731 141.766601" xmlns="http://www.w3.org/2000/svg" version="1.1">
 <metadata>
  <rdf:RDF xmlns:dc="http://purl.org/dc/elements/1.1/" xmlns:cc="http://creativecommons.org/ns#" xmlns:rdf="http://www.w3.org/1999/02/22-rdf-syntax-ns#">
   <cc:Work>
    <dc:type rdf:resource="http://purl.org/dc/dcmitype/StillImage"/>
    <dc:date>2025-10-23T02:38:13.226026</dc:date>
    <dc:format>image/svg+xml</dc:format>
    <dc:creator>
     <cc:Agent>
      <dc:title>Matplotlib v3.9.2, https://matplotlib.org/</dc:title>
     </cc:Agent>
    </dc:creator>
   </cc:Work>
  </rdf:RDF>
 </metadata>
 <defs>
  <style type="text/css">*{stroke-linejoin: round; stroke-linecap: butt}</style>
 </defs>
 <g id="figure_1">
  <g id="patch_1">
   <path d="M 0 141.766601 
L 130.268731 141.766601 
L 130.268731 0 
L 0 0 
z
" style="fill: #ffffff"/>
  </g>
  <g id="axes_1">
   <g id="patch_2">
    <path d="M 50.3975 108.742851 
L 121.95375 108.742851 
L 121.95375 7.562444 
L 50.3975 7.562444 
z
" style="fill: #ffffff"/>
   </g>
   <g id="matplotlib.axis_1">
    <g id="xtick_1">
     <g id="line2d_1">
      <defs>
       <path id="m04828bdf32" d="M 0 0 
L 0 3.5 
" style="stroke: #000000; stroke-width: 1.5"/>
      </defs>
      <g>
       <use xlink:href="#m04828bdf32" x="53.650057" y="108.742851" style="stroke: #000000; stroke-width: 1.5"/>
      </g>
     </g>
     <g id="text_1">
      <text style="font: 8px 'Arial', sans-serif, serif; text-anchor: middle" x="53.650057" y="121.469101" transform="rotate(-0 53.650057 121.469101)">0</text>
     </g>
    </g>
    <g id="xtick_2">
     <g id="line2d_2">
      <g>
       <use xlink:href="#m04828bdf32" x="118.619981" y="108.742851" style="stroke: #000000; stroke-width: 1.5"/>
      </g>
     </g>
     <g id="text_2">
      <text style="font: 8px 'Arial', sans-serif, serif; text-anchor: middle" x="118.619981" y="121.469101" transform="rotate(-0 118.619981 121.469101)">20</text>
     </g>
    </g>
    <g id="text_3">
     <text style="font: 8px 'Arial', sans-serif, serif; text-anchor: middle" x="86.175625" y="132.882851" transform="rotate(-0 86.175625 132.882851)">Time (ms)</text>
    </g>
   </g>
   <g id="matplotlib.axis_2">
    <g id="ytick_1">
     <g id="line2d_3">
      <defs>
       <path id="m70cde72472" d="M 0 0 
L -3.5 0 
" style="stroke: #000000; stroke-width: 1.5"/>
      </defs>
      <g>
       <use xlink:href="#m70cde72472" x="50.3975" y="95.088053" style="stroke: #000000; stroke-width: 1.5"/>
      </g>
     </g>
     <g id="text_4">
      <text style="font: 8px 'Arial', sans-serif, serif; text-anchor: end" x="43.3975" y="97.951178" transform="rotate(-0 43.3975 97.951178)">−0.025</text>
     </g>
    </g>
    <g id="ytick_2">
     <g id="line2d_4">
      <g>
       <use xlink:href="#m70cde72472" x="50.3975" y="78.083067" style="stroke: #000000; stroke-width: 1.5"/>
      </g>
     </g>
     <g id="text_5">
      <text style="font: 8px 'Arial', sans-serif, serif; text-anchor: end" x="43.3975" y="80.946192" transform="rotate(-0 43.3975 80.946192)">0.000</text>
     </g>
    </g>
    <g id="ytick_3">
     <g id="line2d_5">
      <g>
       <use xlink:href="#m70cde72472" x="50.3975" y="61.078082" style="stroke: #000000; stroke-width: 1.5"/>
      </g>
     </g>
     <g id="text_6">
      <text style="font: 8px 'Arial', sans-serif, serif; text-anchor: end" x="43.3975" y="63.941207" transform="rotate(-0 43.3975 63.941207)">0.025</text>
     </g>
    </g>
    <g id="ytick_4">
     <g id="line2d_6">
      <g>
       <use xlink:href="#m70cde72472" x="50.3975" y="44.073096" style="stroke: #000000; stroke-width: 1.5"/>
      </g>
     </g>
     <g id="text_7">
      <text style="font: 8px 'Arial', sans-serif, serif; text-anchor: end" x="43.3975" y="46.936221" transform="rotate(-0 43.3975 46.936221)">0.050</text>
     </g>
    </g>
    <g id="ytick_5">
     <g id="line2d_7">
      <g>
       <use xlink:href="#m70cde72472" x="50.3975" y="27.068111" style="stroke: #000000; stroke-width: 1.5"/>
      </g>
     </g>
     <g id="text_8">
      <text style="font: 8px 'Arial', sans-serif, serif; text-anchor: end" x="43.3975" y="29.931236" transform="rotate(-0 43.3975 29.931236)">0.075</text>
     </g>
    </g>
    <g id="ytick_6">
     <g id="line2d_8">
      <g>
       <use xlink:href="#m70cde72472" x="50.3975" y="10.063125" style="stroke: #000000; stroke-width: 1.5"/>
      </g>
     </g>
     <g id="text_9">
      <text style="font: 8px 'Arial', sans-serif, serif; text-anchor: end" x="43.3975" y="12.92625" transform="rotate(-0 43.3975 12.92625)">0.100</text>
     </g>
    </g>
    <g id="text_10">
     <text style="font: 8px 'Arial', sans-serif, serif; text-anchor: middle" x="13.02375" y="58.152648" transform="rotate(-90 13.02375 58.152648)">Voltage (mV)</text>
    </g>
   </g>
   <g id="line2d_9">
    <path d="M 53.650057 83.291035 
L 53.731269 62.472332 
L 53.812482 67.745432 
L 53.974906 72.150325 
L 54.056119 83.000003 
L 54.137331 66.741791 
L 54.218544 68.375777 
L 54.299756 70.774282 
L 54.380968 64.112163 
L 54.624606 80.358324 
L 54.705818 68.604572 
L 54.78703 75.768129 
L 54.868243 62.568483 
L 55.030668 71.42363 
L 55.11188 71.39371 
L 55.274305 58.313276 
L 55.43673 69.996363 
L 55.517942 90.235617 
L 55.599155 70.021477 
L 55.761579 82.594255 
L 55.842792 80.149634 
L 55.924004 70.017105 
L 56.005217 93.642698 
L 56.086429 77.259848 
L 56.248854 90.699458 
L 56.330066 86.144233 
L 56.411279 98.369487 
L 56.492491 91.700652 
L 56.573703 104.143742 
L 56.654916 95.955805 
L 56.736128 96.792419 
L 56.817341 100.692203 
L 57.304615 44.281574 
L 57.46704 58.496427 
L 57.548252 47.249302 
L 57.629465 47.832093 
L 57.791889 51.48564 
L 57.873102 52.130853 
L 58.035527 43.035635 
L 58.197951 52.644089 
L 58.279164 52.378403 
L 58.441589 47.735216 
L 58.522801 59.428825 
L 58.604014 40.605167 
L 58.685226 41.051376 
L 58.766438 34.064797 
L 58.847651 63.015156 
L 58.928863 41.948152 
L 59.010076 42.593227 
L 59.091288 44.426064 
L 59.1725 53.115841 
L 59.253713 39.499001 
L 59.334925 47.957627 
L 59.416138 39.810813 
L 59.49735 50.896658 
L 59.659775 33.186784 
L 59.740987 53.309975 
L 59.8222 47.179119 
L 59.903412 41.61553 
L 59.984624 46.474709 
L 60.065837 36.13958 
L 60.228262 46.100821 
L 60.390686 27.985288 
L 60.471899 31.159799 
L 60.553111 49.637322 
L 60.634324 49.504868 
L 60.715536 45.167519 
L 60.796748 47.467352 
L 60.877961 33.007782 
L 60.959173 41.989239 
L 61.040386 23.359981 
L 61.121598 54.190063 
L 61.20281 43.679114 
L 61.284023 53.150585 
L 61.365235 40.446093 
L 61.446448 51.459698 
L 61.52766 49.597564 
L 61.690085 58.38472 
L 61.771297 37.192764 
L 61.85251 53.034196 
L 61.933722 47.933581 
L 62.014935 54.140575 
L 62.258572 43.337949 
L 62.339784 43.978082 
L 62.583421 55.847402 
L 62.745846 44.317847 
L 62.827059 54.757558 
L 62.908271 35.356998 
L 62.989483 58.642301 
L 63.233121 32.435235 
L 63.314333 49.737776 
L 63.395545 39.253261 
L 63.476758 66.464113 
L 63.55797 53.588079 
L 63.639183 55.324391 
L 63.720395 53.07902 
L 63.801607 47.698855 
L 63.88282 48.458594 
L 63.964032 49.528908 
L 64.045245 39.611563 
L 64.126457 57.10835 
L 64.207669 47.831108 
L 64.370094 55.085451 
L 64.451307 32.976724 
L 64.532519 58.333961 
L 64.613731 54.204229 
L 64.694944 54.832775 
L 64.776156 45.852986 
L 64.857369 47.603214 
L 65.101006 71.098146 
L 65.182218 54.580044 
L 65.263431 54.660755 
L 65.344643 53.841916 
L 65.425856 47.788742 
L 65.58828 65.24577 
L 65.669493 55.443897 
L 65.750705 60.685337 
L 65.831918 56.665709 
L 65.91313 59.190976 
L 65.994342 55.06199 
L 66.156767 67.544065 
L 66.23798 68.000836 
L 66.319192 59.235467 
L 66.481617 71.638578 
L 66.562829 63.79235 
L 66.644042 72.89968 
L 66.725254 61.604285 
L 66.806466 77.20467 
L 66.968891 62.47521 
L 67.131316 75.099824 
L 67.212528 65.231951 
L 67.293741 68.770951 
L 67.456166 60.019901 
L 67.537378 77.852819 
L 67.699803 55.960541 
L 67.781015 73.374509 
L 67.862228 64.713282 
L 67.94344 65.212339 
L 68.105865 62.624847 
L 68.187077 77.464169 
L 68.26829 74.806601 
L 68.349502 56.531519 
L 68.511927 64.507882 
L 68.593139 60.147737 
L 68.674352 49.620254 
L 68.836777 69.475001 
L 68.917989 64.777425 
L 68.999201 71.098161 
L 69.080414 62.74445 
L 69.161626 68.053318 
L 69.405263 55.315127 
L 69.486476 71.117579 
L 69.648901 58.647509 
L 69.892538 73.583451 
L 69.97375 66.279229 
L 70.054963 81.328763 
L 70.136175 77.994303 
L 70.379812 51.944761 
L 70.623449 69.140061 
L 70.704662 65.82833 
L 70.785874 66.957056 
L 70.948299 79.529435 
L 71.029511 63.403295 
L 71.191936 71.267392 
L 71.273149 73.057883 
L 71.354361 67.370069 
L 71.435574 71.995337 
L 71.516786 51.546037 
L 71.597998 68.339045 
L 71.679211 66.476835 
L 71.760423 63.936847 
L 71.841636 71.835312 
L 71.922848 61.161008 
L 72.00406 71.901379 
L 72.085273 71.366004 
L 72.166485 68.987068 
L 72.247698 55.776315 
L 72.32891 60.288551 
L 72.410122 60.857025 
L 72.491335 67.69492 
L 72.572547 64.878821 
L 72.65376 82.179734 
L 72.816184 64.180061 
L 73.059822 69.447471 
L 73.222246 53.722742 
L 73.384671 71.208536 
L 73.465884 66.232785 
L 73.547096 67.905428 
L 73.628308 74.304201 
L 73.709521 56.192538 
L 73.790733 69.84346 
L 73.871946 68.557741 
L 73.953158 64.104389 
L 74.03437 72.331252 
L 74.115583 56.020639 
L 74.35922 81.793995 
L 74.765282 59.535156 
L 75.008919 73.588967 
L 75.171344 63.798469 
L 75.252557 70.995798 
L 75.333769 65.52783 
L 75.414981 77.730019 
L 75.496194 76.821902 
L 75.577406 63.012604 
L 75.658619 70.03961 
L 75.739831 60.194874 
L 75.821043 62.509517 
L 75.902256 71.292692 
L 75.983468 69.409409 
L 76.064681 63.230428 
L 76.145893 72.630892 
L 76.227105 59.745918 
L 76.470743 77.346185 
L 76.551955 64.174924 
L 76.633167 85.353232 
L 76.71438 81.671921 
L 76.876805 66.604431 
L 76.958017 60.507961 
L 77.039229 76.615642 
L 77.120442 70.833035 
L 77.201654 70.533466 
L 77.282867 60.203391 
L 77.526504 74.464353 
L 77.607716 63.82128 
L 77.688929 65.788312 
L 77.770141 70.156085 
L 77.851353 70.091626 
L 77.932566 52.998843 
L 78.094991 73.405313 
L 78.176203 70.954999 
L 78.257416 80.491337 
L 78.501053 51.730636 
L 78.74469 69.269943 
L 78.825902 58.579147 
L 78.907115 87.433202 
L 78.988327 50.626943 
L 79.06954 84.247172 
L 79.150752 70.894811 
L 79.231964 72.197985 
L 79.313177 72.264348 
L 79.556814 52.893925 
L 79.719239 74.455606 
L 79.800451 62.04554 
L 79.962876 74.494968 
L 80.125301 57.608764 
L 80.206513 75.260018 
L 80.287726 65.806581 
L 80.368938 75.528882 
L 80.45015 74.259083 
L 80.612575 72.434714 
L 80.693788 73.486133 
L 80.775 67.863088 
L 80.856212 74.90863 
L 80.937425 68.337493 
L 81.018637 70.465318 
L 81.181062 76.823945 
L 81.343487 64.765366 
L 81.424699 79.33257 
L 81.505912 67.03948 
L 81.587124 67.462986 
L 81.749549 84.268387 
L 81.911974 64.715443 
L 81.993186 68.968474 
L 82.074399 66.785504 
L 82.155611 84.408333 
L 82.236823 81.220727 
L 82.318036 71.783775 
L 82.480461 87.820376 
L 82.724098 58.702266 
L 82.80531 93.775852 
L 82.886523 70.223439 
L 82.967735 77.228699 
L 83.048947 91.93036 
L 83.292585 76.139705 
L 83.373797 81.312618 
L 83.455009 77.351399 
L 83.536222 80.344626 
L 83.617434 80.325464 
L 83.698647 66.029049 
L 83.779859 81.748713 
L 84.104709 49.336103 
L 84.185921 55.254462 
L 84.267133 45.873813 
L 84.348346 51.830665 
L 84.429558 45.017978 
L 84.510771 28.046741 
L 84.591983 32.662269 
L 84.673196 29.513119 
L 84.83562 40.568813 
L 84.916833 18.87094 
L 85.079258 37.886182 
L 85.16047 38.222393 
L 85.241682 36.283463 
L 85.322895 21.395568 
L 85.404107 23.834376 
L 85.566532 40.647903 
L 85.728957 12.161554 
L 85.810169 38.016208 
L 85.891382 34.891413 
L 85.972594 34.407584 
L 86.053806 30.126743 
L 86.135019 37.826871 
L 86.216231 22.140823 
L 86.297444 23.079473 
L 86.378656 35.526058 
L 86.459868 25.770639 
L 86.541081 33.80173 
L 86.703506 19.31905 
L 86.784718 28.410207 
L 86.86593 19.254079 
L 86.947143 38.22812 
L 87.109568 19.889267 
L 87.353205 35.288228 
L 87.434417 24.229958 
L 87.51563 33.448918 
L 87.596842 16.692046 
L 87.759267 29.446548 
L 87.921692 23.871025 
L 88.002904 39.439234 
L 88.084117 38.106337 
L 88.165329 23.325683 
L 88.246541 25.11915 
L 88.327754 27.3472 
L 88.408966 20.45131 
L 88.571391 32.365831 
L 88.652603 30.117835 
L 88.733816 56.699228 
L 88.815028 26.068333 
L 88.977453 49.220857 
L 89.058665 42.95049 
L 89.139878 51.550893 
L 89.302303 29.416859 
L 89.464727 38.90208 
L 89.54594 39.765152 
L 89.627152 48.675956 
L 89.789577 36.402635 
L 89.870789 34.057097 
L 90.033214 50.251994 
L 90.114427 38.643746 
L 90.195639 50.374368 
L 90.276851 47.483543 
L 90.358064 52.022545 
L 90.439276 44.042532 
L 90.520489 45.202249 
L 90.601701 51.087095 
L 90.764126 41.212786 
L 90.845338 57.596692 
L 90.926551 51.066083 
L 91.007763 53.394774 
L 91.088975 68.781558 
L 91.2514 48.53462 
L 91.332613 66.794808 
L 91.413825 60.500329 
L 91.495038 60.018747 
L 91.57625 58.465967 
L 91.657462 68.313855 
L 91.738675 52.823317 
L 91.819887 58.561151 
L 91.9011 76.800778 
L 91.982312 60.083773 
L 92.063524 63.578462 
L 92.144737 69.589161 
L 92.307162 54.043291 
L 92.469586 77.166387 
L 92.550799 70.125554 
L 92.632011 55.171798 
L 92.713224 64.349533 
L 92.794436 62.302793 
L 93.038073 72.796293 
L 93.119286 66.198516 
L 93.200498 76.534402 
L 93.362923 62.320696 
L 93.444135 62.623303 
L 93.60656 75.794333 
L 93.687772 59.501245 
L 93.850197 75.325206 
L 93.93141 62.244991 
L 94.012622 73.95543 
L 94.093834 59.644215 
L 94.175047 65.037578 
L 94.256259 53.843089 
L 94.337472 68.155089 
L 94.418684 65.155663 
L 94.499897 62.536012 
L 94.662321 73.382732 
L 94.905959 66.015775 
L 94.987171 76.998336 
L 95.149596 60.993953 
L 95.230808 70.054476 
L 95.312021 64.230883 
L 95.393233 65.4748 
L 95.555658 73.573878 
L 95.63687 69.884235 
L 95.718083 54.79153 
L 95.799295 71.900222 
L 95.880507 51.935948 
L 95.96172 86.042072 
L 96.042932 77.157701 
L 96.205357 56.966518 
L 96.286569 78.029223 
L 96.367782 60.067135 
L 96.448994 65.448362 
L 96.530207 67.273102 
L 96.611419 77.068898 
L 96.692631 63.75371 
L 96.773844 72.503555 
L 96.936269 67.67963 
L 97.017481 73.921024 
L 97.179906 57.567598 
L 97.342331 61.476029 
L 97.423543 61.365705 
L 97.585968 80.771254 
L 97.829605 58.157711 
L 97.910818 56.923847 
L 98.073242 76.378651 
L 98.154455 58.722774 
L 98.31688 75.845297 
L 98.398092 60.281991 
L 98.479304 74.734647 
L 98.560517 68.277321 
L 98.641729 71.94969 
L 98.722942 70.432497 
L 98.804154 77.902432 
L 98.885366 68.539943 
L 98.966579 76.590874 
L 99.047791 64.930001 
L 99.129004 65.76974 
L 99.210216 60.003798 
L 99.372641 64.108967 
L 99.453853 81.909544 
L 99.535066 81.101861 
L 99.616278 64.97473 
L 99.69749 74.530102 
L 99.778703 71.555033 
L 99.859915 72.589471 
L 99.941128 67.453509 
L 100.02234 69.137644 
L 100.265977 63.957916 
L 100.34719 73.570809 
L 100.428402 63.485987 
L 100.509614 72.023361 
L 100.672039 65.431302 
L 100.753252 74.804945 
L 100.834464 71.517978 
L 100.915676 77.10869 
L 101.078101 57.101264 
L 101.159314 59.658239 
L 101.240526 71.8498 
L 101.321739 58.188487 
L 101.402951 77.522511 
L 101.484163 70.09876 
L 101.565376 70.915156 
L 101.646588 74.301567 
L 101.890225 56.073933 
L 101.971438 77.229685 
L 102.133863 59.900554 
L 102.215075 69.279727 
L 102.296287 59.632144 
L 102.3775 76.337594 
L 102.539925 64.58534 
L 102.621137 72.171303 
L 102.702349 59.3228 
L 102.783562 59.558846 
L 102.864774 73.985751 
L 103.027199 61.864317 
L 103.108411 80.225546 
L 103.189624 68.482106 
L 103.270836 75.068515 
L 103.352049 57.820657 
L 103.433261 70.881093 
L 103.514473 65.063451 
L 103.595686 68.932301 
L 103.676898 88.303867 
L 103.758111 61.864883 
L 103.839323 66.788674 
L 103.920535 66.650833 
L 104.001748 72.348113 
L 104.08296 60.243948 
L 104.245385 84.993752 
L 104.326598 65.075293 
L 104.40781 70.140704 
L 104.489022 74.050254 
L 104.570235 66.574108 
L 104.651447 74.621652 
L 104.73266 60.054213 
L 104.813872 60.136131 
L 104.976297 74.154124 
L 105.057509 60.727495 
L 105.219934 70.697772 
L 105.301146 69.071517 
L 105.382359 81.034128 
L 105.544784 70.689086 
L 105.707208 85.472065 
L 105.788421 70.505012 
L 105.869633 72.288453 
L 106.032058 65.488634 
L 106.11327 69.967493 
L 106.194483 62.539774 
L 106.275695 83.081922 
L 106.356908 76.086824 
L 106.43812 90.598957 
L 106.600545 65.793301 
L 106.76297 83.105309 
L 106.844182 77.867736 
L 106.925394 79.499874 
L 107.006607 81.442979 
L 107.169032 69.403545 
L 107.331456 85.270266 
L 107.412669 81.754516 
L 107.493881 67.371271 
L 107.656306 97.028097 
L 107.737519 77.859686 
L 107.818731 82.380215 
L 107.899943 80.537446 
L 107.981156 89.383926 
L 108.306005 62.00236 
L 108.387218 72.585641 
L 108.46843 56.433355 
L 108.549643 69.867052 
L 108.630855 51.685514 
L 108.712067 59.406482 
L 108.79328 48.240173 
L 108.874492 48.519549 
L 109.118129 40.379282 
L 109.199342 27.719321 
L 109.280554 29.497595 
L 109.361767 44.969156 
L 109.524191 23.737752 
L 109.605404 33.113054 
L 109.686616 17.824885 
L 109.849041 37.607442 
L 109.930253 29.725219 
L 110.011466 33.20077 
L 110.092678 32.186551 
L 110.173891 30.169404 
L 110.255103 22.81857 
L 110.417528 49.04772 
L 110.49874 20.617262 
L 110.579953 26.835334 
L 110.661165 31.559099 
L 110.742377 25.19812 
L 110.904802 32.683223 
L 110.986015 17.485736 
L 111.14844 34.858443 
L 111.229652 36.019198 
L 111.310864 25.990421 
L 111.473289 36.495576 
L 111.635714 23.652 
L 111.716926 22.427155 
L 111.798139 34.057494 
L 111.879351 22.251532 
L 112.122988 36.733537 
L 112.204201 22.893119 
L 112.285413 42.832478 
L 112.366626 36.522732 
L 112.447838 22.184573 
L 112.52905 37.280152 
L 112.610263 31.719711 
L 112.691475 35.130618 
L 112.8539 18.267591 
L 112.935112 36.666493 
L 113.016325 29.725583 
L 113.097537 35.103975 
L 113.17875 31.682574 
L 113.259962 34.471865 
L 113.341174 23.032009 
L 113.422387 29.908951 
L 113.503599 26.887376 
L 113.584812 40.284072 
L 113.666024 30.157972 
L 113.909661 39.120022 
L 113.990874 33.728669 
L 114.072086 38.990872 
L 114.153299 26.240816 
L 114.396936 44.147687 
L 114.478148 38.363759 
L 114.640573 52.042584 
L 114.721785 36.270284 
L 114.965423 56.381525 
L 115.046635 38.387491 
L 115.127847 44.703375 
L 115.20906 48.167356 
L 115.290272 59.047271 
L 115.371485 37.006608 
L 115.452697 54.150712 
L 115.533909 54.004912 
L 115.615122 53.068985 
L 115.696334 65.030815 
L 115.777547 49.784005 
L 115.858759 53.29902 
L 116.021184 60.054805 
L 116.102396 56.787674 
L 116.183609 68.446714 
L 116.346033 60.886143 
L 116.427246 62.041815 
L 116.508458 54.991699 
L 116.589671 74.711003 
L 116.752095 51.547221 
L 116.833308 55.531249 
L 116.91452 63.044742 
L 116.995733 54.302718 
L 117.158157 72.436932 
L 117.23937 69.97052 
L 117.320582 70.170877 
L 117.401795 55.650806 
L 117.483007 71.604682 
L 117.56422 61.099079 
L 117.645432 63.761315 
L 117.726644 85.572909 
L 117.807857 57.585322 
L 117.889069 63.106471 
L 117.970282 63.532399 
L 118.213919 77.814014 
L 118.376344 60.374333 
L 118.538768 69.082692 
L 118.619981 66.251622 
L 118.701193 88.061557 
L 118.701193 88.061557 
" clip-path="url(#p06c365f5d8)" style="fill: none; stroke: #000000; stroke-width: 0.8; stroke-linecap: square"/>
   </g>
   <g id="patch_3">
    <path d="M 50.3975 108.742851 
L 50.3975 7.562444 
" style="fill: none; stroke: #000000; stroke-width: 1.5; stroke-linejoin: miter; stroke-linecap: square"/>
   </g>
   <g id="patch_4">
    <path d="M 50.3975 108.742851 
L 121.95375 108.742851 
" style="fill: none; stroke: #000000; stroke-width: 1.5; stroke-linejoin: miter; stroke-linecap: square"/>
   </g>
  </g>
 </g>
 <defs>
  <clipPath id="p06c365f5d8">
   <rect x="50.3975" y="7.562444" width="71.55625" height="101.180407"/>
  </clipPath>
 </defs>
</svg>
