<?xml version="1.0" encoding="utf-8" standalone="no"?>
<!DOCTYPE svg PUBLIC "-//W3C//DTD SVG 1.1//EN"
  "http://www.w3.org/Graphics/SVG/1.1/DTD/svg11.dtd">
<svg xmlns:xlink="http://www.w3.org/1999/xlink" width="150.945025pt" height="105.31875pt" viewBox="0 0 150.945025 105.31875" xmlns="http://www.w3.org/2000/svg" version="1.1">
 <metadata>
  <rdf:RDF xmlns:dc="http://purl.org/dc/elements/1.1/" xmlns:cc="http://creativecommons.org/ns#" xmlns:rdf="http://www.w3.org/1999/02/22-rdf-syntax-ns#">
   <cc:Work>
    <dc:type rdf:resource="http://purl.org/dc/dcmitype/StillImage"/>
    <dc:date>2025-10-30T01:01:52.570643</dc:date>
    <dc:format>image/svg+xml</dc:format>
    <dc:creator>
     <cc:Agent>
      <dc:title>Matplotlib v3.9.2, https://matplotlib.org/</dc:title>
     </cc:Agent>
    </dc:creator>
   </cc:Work>
  </rdf:RDF>
 </metadata>
 <defs>
  <style type="text/css">*{stroke-linejoin: round; stroke-linecap: butt}</style>
 </defs>
 <g id="figure_1">
  <g id="patch_1">
   <path d="M 0 105.31875 
L 150.945025 105.31875 
L 150.945025 0 
L 0 0 
z
" style="fill: #ffffff"/>
  </g>
  <g id="axes_1">
   <g id="patch_2">
    <path d="M 41.4025 72.48625 
L 139.27398 72.48625 
L 139.27398 15.92625 
L 41.4025 15.92625 
z
" style="fill: #ffffff"/>
   </g>
   <g id="matplotlib.axis_1">
    <g id="xtick_1">
     <g id="line2d_1">
      <defs>
       <path id="m4fb38a53e3" d="M 0 0 
L 0 3.5 
" style="stroke: #000000; stroke-width: 1.5"/>
      </defs>
      <g>
       <use xlink:href="#m4fb38a53e3" x="45.851204" y="72.48625" style="stroke: #000000; stroke-width: 1.5"/>
      </g>
     </g>
     <g id="text_1">
      <text style="font: 8px 'Arial', sans-serif, serif; text-anchor: middle" x="45.851204" y="85.2125" transform="rotate(-0 45.851204 85.2125)">0</text>
     </g>
    </g>
    <g id="xtick_2">
     <g id="line2d_2">
      <g>
       <use xlink:href="#m4fb38a53e3" x="90.349364" y="72.48625" style="stroke: #000000; stroke-width: 1.5"/>
      </g>
     </g>
     <g id="text_2">
      <text style="font: 8px 'Arial', sans-serif, serif; text-anchor: middle" x="90.349364" y="85.2125" transform="rotate(-0 90.349364 85.2125)">2000</text>
     </g>
    </g>
    <g id="xtick_3">
     <g id="line2d_3">
      <g>
       <use xlink:href="#m4fb38a53e3" x="134.847525" y="72.48625" style="stroke: #000000; stroke-width: 1.5"/>
      </g>
     </g>
     <g id="text_3">
      <text style="font: 8px 'Arial', sans-serif, serif; text-anchor: middle" x="134.847525" y="85.2125" transform="rotate(-0 134.847525 85.2125)">4000</text>
     </g>
    </g>
    <g id="text_4">
     <text style="font: 8px 'Arial', sans-serif, serif; text-anchor: middle" x="90.33824" y="96.52875" transform="rotate(-0 90.33824 96.52875)">Iteration</text>
    </g>
   </g>
   <g id="matplotlib.axis_2">
    <g id="ytick_1">
     <g id="line2d_4">
      <defs>
       <path id="m5b0129c54d" d="M 0 0 
L -3.5 0 
" style="stroke: #000000; stroke-width: 1.5"/>
      </defs>
      <g>
       <use xlink:href="#m5b0129c54d" x="41.4025" y="63.399947" style="stroke: #000000; stroke-width: 1.5"/>
      </g>
     </g>
     <g id="text_5">
      <text style="font: 8px 'Arial', sans-serif, serif; text-anchor: end" x="34.4025" y="66.263072" transform="rotate(-0 34.4025 66.263072)">−2.5</text>
     </g>
    </g>
    <g id="ytick_2">
     <g id="line2d_5">
      <g>
       <use xlink:href="#m5b0129c54d" x="41.4025" y="44.908458" style="stroke: #000000; stroke-width: 1.5"/>
      </g>
     </g>
     <g id="text_6">
      <text style="font: 8px 'Arial', sans-serif, serif; text-anchor: end" x="34.4025" y="47.771583" transform="rotate(-0 34.4025 47.771583)">0.0</text>
     </g>
    </g>
    <g id="ytick_3">
     <g id="line2d_6">
      <g>
       <use xlink:href="#m5b0129c54d" x="41.4025" y="26.416969" style="stroke: #000000; stroke-width: 1.5"/>
      </g>
     </g>
     <g id="text_7">
      <text style="font: 8px 'Arial', sans-serif, serif; text-anchor: end" x="34.4025" y="29.280094" transform="rotate(-0 34.4025 29.280094)">2.5</text>
     </g>
    </g>
    <g id="text_8">
     <text style="font: 8px 'Arial', sans-serif, serif; text-anchor: middle" x="12.92625" y="44.20625" transform="rotate(-90 12.92625 44.20625)">Marginal log-likelihood</text>
    </g>
    <g id="text_9">
     <text style="font: 8px 'Arial', sans-serif, serif; text-anchor: start" x="41.4025" y="12.92625" transform="rotate(-0 41.4025 12.92625)">1e6</text>
    </g>
   </g>
   <g id="line2d_7">
    <path d="M 45.851204 69.915341 
L 46.029196 30.9597 
L 46.051445 32.728176 
L 46.073694 32.713713 
L 46.118193 27.045981 
L 46.207189 27.813863 
L 46.229438 29.180294 
L 46.273936 26.452895 
L 46.296185 27.090038 
L 46.318434 27.454657 
L 46.362932 23.255965 
L 46.451929 23.591601 
L 46.474178 23.554321 
L 46.518676 23.169992 
L 46.540925 23.458384 
L 46.563174 24.012715 
L 46.607672 22.942139 
L 46.67442 22.00655 
L 46.741167 22.269374 
L 46.807914 21.695109 
L 46.874661 21.769848 
L 47.408639 20.741071 
L 47.475387 20.639054 
L 47.987115 19.901747 
L 48.498844 19.627569 
L 49.722544 19.429172 
L 54.817583 18.967672 
L 59.222901 18.689105 
L 59.311897 18.834074 
L 59.378645 19.128634 
L 59.400894 18.904053 
L 59.534388 18.703832 
L 59.556637 18.803176 
L 59.645634 18.775495 
L 59.801377 18.678054 
L 59.823626 18.721016 
L 60.068366 18.666437 
L 60.335355 18.644542 
L 60.869333 18.625282 
L 63.205486 18.662432 
L 63.272234 18.717059 
L 63.316732 18.634116 
L 63.36123 18.567129 
L 63.427977 18.620809 
L 64.384688 18.548624 
L 64.696175 18.618224 
L 64.785171 18.916875 
L 64.80742 18.754801 
L 64.851918 18.550288 
L 64.940915 18.57295 
L 65.007662 18.657497 
L 65.074409 18.55847 
L 65.207904 18.57276 
L 65.408145 18.538069 
L 66.565098 18.525517 
L 67.099075 18.591441 
L 67.165823 19.0157 
L 67.210321 18.824817 
L 67.343815 18.531978 
L 67.388313 18.677153 
L 67.47731 18.60475 
L 67.744299 18.520919 
L 68.011288 18.527426 
L 69.257236 18.511234 
L 69.835712 18.569662 
L 69.90246 18.87313 
L 69.924709 19.05364 
L 69.969207 18.652915 
L 69.991456 18.520144 
L 70.035954 18.747702 
L 70.080452 18.535153 
L 70.236196 18.587714 
L 70.258445 18.540892 
L 70.391939 18.515442 
L 70.547683 18.53617 
L 70.792423 18.512706 
L 71.459895 18.506712 
L 72.639096 18.593677 
L 72.728093 19.027436 
L 72.750342 18.748021 
L 72.883836 18.517086 
L 73.017331 18.602533 
L 73.195323 18.509989 
L 73.351067 18.531602 
L 73.684803 18.508603 
L 75.331235 18.628048 
L 75.420232 18.940405 
L 75.442481 18.632104 
L 75.46473 18.511618 
L 75.509228 18.691693 
L 75.553726 18.540016 
L 75.68722 18.545022 
L 75.70947 18.607663 
L 75.776217 18.508748 
L 75.798466 18.5382 
L 75.93196 18.548272 
L 76.287946 18.511322 
L 77.86763 18.601218 
L 77.956627 18.965658 
L 77.978876 18.690302 
L 78.067872 18.715194 
L 78.11237 18.516702 
L 78.290363 18.565538 
L 78.446106 18.51228 
L 78.757594 18.50384 
L 79.447315 18.500741 
L 80.04804 18.592032 
L 80.114787 18.970052 
L 80.159286 18.694923 
L 80.29278 18.530504 
L 80.448524 18.532197 
L 80.626516 18.528566 
L 80.938003 18.506023 
L 81.716721 18.500151 
L 82.139454 18.591768 
L 82.22845 19.02994 
L 82.250699 18.740976 
L 82.384194 18.523338 
L 82.562186 18.574108 
L 82.584435 18.529899 
L 82.762428 18.511907 
L 82.96267 18.510156 
L 83.474399 18.501443 
L 84.319864 18.563112 
L 84.386611 18.968639 
L 84.431109 18.873549 
L 84.475607 18.509637 
L 84.564604 18.551375 
L 84.631351 18.592572 
L 84.698098 18.506601 
L 84.831593 18.509421 
L 85.031834 18.520449 
L 85.343321 18.505296 
L 86.366779 18.527217 
L 86.433526 18.697656 
L 86.500274 18.959924 
L 86.522523 18.670905 
L 86.611519 18.711383 
L 86.656017 18.517479 
L 86.856259 18.542897 
L 87.034252 18.502637 
L 87.367988 18.503227 
L 88.547189 18.668556 
L 88.613936 19.031127 
L 88.636185 18.743578 
L 88.76968 18.526812 
L 89.214661 18.526071 
L 89.459401 18.503756 
L 90.149123 18.499109 
L 90.505108 18.557245 
L 90.571855 18.823411 
L 90.638603 18.619924 
L 90.683101 18.512974 
L 90.727599 18.650207 
L 90.749848 18.618624 
L 90.905592 18.524902 
L 91.083584 18.503117 
L 91.306075 18.514519 
L 92.596522 18.499566 
L 92.707767 18.596423 
L 92.796763 19.288995 
L 92.819012 18.858767 
L 92.841262 18.545175 
L 92.930258 18.55854 
L 93.086001 18.626108 
L 93.219496 18.508718 
L 93.375239 18.533734 
L 93.686727 18.502933 
L 95.132917 18.594692 
L 95.221913 18.927114 
L 95.244162 18.689867 
L 95.28866 18.520699 
L 95.333159 18.706968 
L 95.377657 18.538301 
L 95.399906 18.510992 
L 95.422155 18.568184 
L 95.444404 18.640144 
L 95.511151 18.503743 
L 95.666895 18.549458 
L 96.000631 18.510059 
L 96.423363 18.498629 
L 97.135334 18.574804 
L 97.22433 18.869005 
L 97.246579 18.710238 
L 97.291078 18.506566 
L 97.357825 18.651938 
L 97.558067 18.504357 
L 97.758308 18.53077 
L 98.181041 18.502914 
L 98.826264 18.544631 
L 98.93751 18.781931 
L 98.959759 18.672266 
L 99.026506 18.511321 
L 99.071004 18.594784 
L 99.093253 18.609585 
L 99.137751 18.518736 
L 99.315744 18.500183 
L 99.627231 18.510259 
L 100.361451 18.497786 
L 100.583941 18.563102 
L 100.672938 19.056417 
L 100.717436 18.639624 
L 100.784183 18.69916 
L 100.85093 18.518924 
L 101.006674 18.612181 
L 101.206916 18.509715 
L 101.362659 18.512651 
L 101.607399 18.501166 
L 102.608608 18.519909 
L 102.697604 18.679821 
L 102.719853 18.798119 
L 102.7866 18.608775 
L 102.831099 18.507419 
L 102.897846 18.619346 
L 103.098088 18.501152 
L 103.409575 18.505007 
L 103.921304 18.504744 
L 104.210542 18.597759 
L 104.277289 18.691171 
L 104.321787 18.590592 
L 104.388534 18.507188 
L 104.433032 18.562891 
L 105.45649 18.658315 
L 105.478739 18.719795 
L 105.523237 18.654674 
L 105.589985 18.501118 
L 105.656732 18.576941 
L 105.856974 18.528154 
L 106.146212 18.499817 
L 106.746937 18.555981 
L 106.858182 18.674517 
L 106.880431 18.61233 
L 106.947179 18.500245 
L 107.013926 18.567208 
L 107.837142 18.498256 
L 108.081882 18.58273 
L 108.148629 18.817135 
L 108.193127 18.663711 
L 108.237625 18.504943 
L 108.304372 18.605328 
L 108.571361 18.505078 
L 108.83835 18.508482 
L 109.728314 18.511712 
L 109.973053 18.506724 
L 110.418035 18.512843 
L 110.996511 18.512556 
L 111.241251 18.527128 
L 111.975471 18.525746 
L 112.042218 18.676417 
L 112.108965 18.884962 
L 112.131214 18.665359 
L 112.175712 18.517155 
L 112.220211 18.68821 
L 112.24246 18.648426 
L 112.398203 18.526376 
L 112.553947 18.505221 
L 112.776438 18.516649 
L 113.755397 18.639922 
L 113.822144 18.713838 
L 113.844393 18.615635 
L 113.888892 18.503351 
L 113.955639 18.590999 
L 113.977888 18.608053 
L 114.022386 18.529032 
L 114.17813 18.512625 
L 114.42287 18.4982 
L 115.112591 18.598863 
L 115.179338 18.736159 
L 115.223836 18.60526 
L 115.268335 18.50154 
L 115.335082 18.586351 
L 115.913558 18.499389 
L 117.092759 18.514697 
L 117.537741 18.551793 
L 117.648986 18.771004 
L 117.671235 18.639319 
L 117.715733 18.504362 
L 117.782481 18.632227 
L 117.826979 18.559244 
L 117.871477 18.502845 
L 117.938224 18.560757 
L 118.227462 18.508243 
L 118.650195 18.503309 
L 119.117425 18.564359 
L 119.184173 18.785825 
L 119.228671 18.724044 
L 119.295418 18.50527 
L 119.339916 18.606002 
L 119.384414 18.612806 
L 119.406664 18.546615 
L 119.540158 18.539558 
L 119.673653 18.533419 
L 120.496868 18.58653 
L 120.630363 18.549374 
L 120.719359 18.514294 
L 120.763857 18.542864 
L 120.897352 18.498924 
L 121.587073 18.62439 
L 121.631572 18.681573 
L 121.67607 18.622715 
L 121.742817 18.500064 
L 121.809564 18.559078 
L 121.876311 18.542298 
L 121.898561 18.513825 
L 122.121051 18.499499 
L 122.833022 18.560722 
L 122.944267 18.697431 
L 122.966516 18.604779 
L 123.011015 18.503515 
L 123.077762 18.583557 
L 123.100011 18.611882 
L 123.144509 18.549056 
L 123.278004 18.537923 
L 123.589491 18.498034 
L 124.345959 18.6343 
L 124.412707 18.699682 
L 124.434956 18.61157 
L 124.501703 18.508546 
L 124.546201 18.577456 
L 124.56845 18.609946 
L 124.635197 18.516031 
L 124.835439 18.499172 
L 125.413915 18.510624 
L 125.814399 18.61374 
L 125.881146 18.582818 
L 125.970142 18.501425 
L 126.01464 18.529458 
L 126.148135 18.507814 
L 126.481871 18.50201 
L 126.815607 18.556088 
L 126.971351 18.543962 
L 127.127094 18.530984 
L 128.083805 18.503686 
L 128.528787 18.543526 
L 128.640032 18.833856 
L 128.662281 18.67243 
L 128.706779 18.506197 
L 128.773526 18.66843 
L 129.240757 18.520454 
L 129.88598 18.515084 
L 130.041724 18.643604 
L 130.063973 18.673348 
L 130.108471 18.60278 
L 130.175218 18.499387 
L 130.241966 18.557767 
L 130.308713 18.543923 
L 130.330962 18.515004 
L 130.553453 18.503864 
L 131.042933 18.507933 
L 132.956354 18.708218 
L 132.978603 18.728214 
L 133.000852 18.640764 
L 133.067599 18.507079 
L 133.112097 18.580229 
L 133.134346 18.618494 
L 133.201093 18.519374 
L 133.379086 18.499729 
L 134.402544 18.695755 
L 134.424793 18.783004 
L 134.469291 18.675774 
L 134.536038 18.506608 
L 134.580536 18.595434 
L 134.625035 18.612824 
L 134.647284 18.554671 
L 134.691782 18.50228 
L 134.758529 18.551335 
L 134.825276 18.50335 
L 134.825276 18.50335 
" clip-path="url(#pd123b6214f)" style="fill: none; stroke: #000000; stroke-width: 1.5; stroke-linecap: square"/>
   </g>
   <g id="line2d_8">
    <path d="M 41.4025 18.545669 
L 139.27398 18.545669 
" clip-path="url(#pd123b6214f)" style="fill: none; stroke-dasharray: 5.55,2.4; stroke-dashoffset: 0; stroke: #000000; stroke-width: 1.5"/>
   </g>
   <g id="patch_3">
    <path d="M 41.4025 72.48625 
L 41.4025 15.92625 
" style="fill: none; stroke: #000000; stroke-width: 1.5; stroke-linejoin: miter; stroke-linecap: square"/>
   </g>
   <g id="patch_4">
    <path d="M 41.4025 72.48625 
L 139.27398 72.48625 
" style="fill: none; stroke: #000000; stroke-width: 1.5; stroke-linejoin: miter; stroke-linecap: square"/>
   </g>
   <g id="legend_1">
    <g id="line2d_9">
     <path d="M 72.18023 26.0525 
L 80.18023 26.0525 
L 88.18023 26.0525 
" style="fill: none; stroke-dasharray: 5.55,2.4; stroke-dashoffset: 0; stroke: #000000; stroke-width: 1.5"/>
    </g>
    <g id="text_10">
     <text style="font: 8px 'Arial', sans-serif, serif; text-anchor: start" x="94.58023" y="28.8525" transform="rotate(-0 94.58023 28.8525)">True value</text>
    </g>
   </g>
  </g>
 </g>
 <defs>
  <clipPath id="pd123b6214f">
   <rect x="41.4025" y="15.92625" width="97.87148" height="56.56"/>
  </clipPath>
 </defs>
</svg>
