<?xml version="1.0" encoding="utf-8" standalone="no"?>
<!DOCTYPE svg PUBLIC "-//W3C//DTD SVG 1.1//EN"
  "http://www.w3.org/Graphics/SVG/1.1/DTD/svg11.dtd">
<svg xmlns:xlink="http://www.w3.org/1999/xlink" width="143.46625pt" height="105.3525pt" viewBox="0 0 143.46625 105.3525" xmlns="http://www.w3.org/2000/svg" version="1.1">
 <metadata>
  <rdf:RDF xmlns:dc="http://purl.org/dc/elements/1.1/" xmlns:cc="http://creativecommons.org/ns#" xmlns:rdf="http://www.w3.org/1999/02/22-rdf-syntax-ns#">
   <cc:Work>
    <dc:type rdf:resource="http://purl.org/dc/dcmitype/StillImage"/>
    <dc:date>2025-10-23T23:12:52.136397</dc:date>
    <dc:format>image/svg+xml</dc:format>
    <dc:creator>
     <cc:Agent>
      <dc:title>Matplotlib v3.9.2, https://matplotlib.org/</dc:title>
     </cc:Agent>
    </dc:creator>
   </cc:Work>
  </rdf:RDF>
 </metadata>
 <defs>
  <style type="text/css">*{stroke-linejoin: round; stroke-linecap: butt}</style>
 </defs>
 <g id="figure_1">
  <g id="patch_1">
   <path d="M 0 105.3525 
L 143.46625 105.3525 
L 143.46625 0 
L 0 0 
z
" style="fill: #ffffff"/>
  </g>
  <g id="axes_1">
   <g id="patch_2">
    <path d="M 52.52625 72.52 
L 136.26625 72.52 
L 136.26625 7.2 
L 52.52625 7.2 
z
" style="fill: #ffffff"/>
   </g>
   <g id="matplotlib.axis_1">
    <g id="xtick_1">
     <g id="line2d_1">
      <defs>
       <path id="m1ad3ec5622" d="M 0 0 
L 0 3.5 
" style="stroke: #000000; stroke-width: 1.5"/>
      </defs>
      <g>
       <use xlink:href="#m1ad3ec5622" x="56.332614" y="72.52" style="stroke: #000000; stroke-width: 1.5"/>
      </g>
     </g>
     <g id="text_1">
      <text style="font: 8px 'Arial', sans-serif, serif; text-anchor: middle" x="56.332614" y="85.24625" transform="rotate(-0 56.332614 85.24625)">0</text>
     </g>
    </g>
    <g id="xtick_2">
     <g id="line2d_2">
      <g>
       <use xlink:href="#m1ad3ec5622" x="99.846345" y="72.52" style="stroke: #000000; stroke-width: 1.5"/>
      </g>
     </g>
     <g id="text_2">
      <text style="font: 8px 'Arial', sans-serif, serif; text-anchor: middle" x="99.846345" y="85.24625" transform="rotate(-0 99.846345 85.24625)">2000</text>
     </g>
    </g>
    <g id="text_3">
     <text style="font: 8px 'Arial', sans-serif, serif; text-anchor: middle" x="94.39625" y="96.5625" transform="rotate(-0 94.39625 96.5625)">Iteration</text>
    </g>
   </g>
   <g id="matplotlib.axis_2">
    <g id="ytick_1">
     <g id="line2d_3">
      <defs>
       <path id="m5f0326ce6d" d="M 0 0 
L -3.5 0 
" style="stroke: #000000; stroke-width: 1.5"/>
      </defs>
      <g>
       <use xlink:href="#m5f0326ce6d" x="52.52625" y="52.008976" style="stroke: #000000; stroke-width: 1.5"/>
      </g>
     </g>
     <g id="text_4">
      <text style="font: 8px 'Arial', sans-serif, serif; text-anchor: end" x="45.52625" y="54.872101" transform="rotate(-0 45.52625 54.872101)">−50000</text>
     </g>
    </g>
    <g id="ytick_2">
     <g id="line2d_4">
      <g>
       <use xlink:href="#m5f0326ce6d" x="52.52625" y="25.649255" style="stroke: #000000; stroke-width: 1.5"/>
      </g>
     </g>
     <g id="text_5">
      <text style="font: 8px 'Arial', sans-serif, serif; text-anchor: end" x="45.52625" y="28.51238" transform="rotate(-0 45.52625 28.51238)">0</text>
     </g>
    </g>
    <g id="text_6">
     <text style="font: 8px 'Arial', sans-serif, serif; text-anchor: middle" x="12.92625" y="39.86" transform="rotate(-90 12.92625 39.86)">Marginal log-likelihood</text>
    </g>
   </g>
   <g id="line2d_5">
    <path d="M 56.332614 49.402964 
L 56.354371 54.487188 
L 56.397884 44.589755 
L 56.550182 20.990523 
L 56.571939 21.712587 
L 56.70248 27.4962 
L 56.724237 19.931495 
L 56.767751 30.372446 
L 56.789508 38.703679 
L 56.854778 29.018758 
L 57.072347 15.872469 
L 57.115861 15.498233 
L 57.159375 15.818069 
L 57.224645 16.506759 
L 57.289916 16.323007 
L 57.333429 16.360996 
L 57.355186 16.253361 
L 58.051406 11.143961 
L 58.138433 11.651135 
L 58.16019 11.669639 
L 58.181947 11.591471 
L 58.290732 11.126725 
L 58.334245 11.211974 
L 58.377759 11.250573 
L 58.421273 11.176667 
L 58.530057 11.01684 
L 58.573571 11.050363 
L 58.704112 11.00626 
L 59.008708 10.955909 
L 59.356818 10.969975 
L 59.443845 11.363034 
L 59.487359 11.154358 
L 59.55263 10.934692 
L 59.596143 11.016172 
L 59.661414 11.083526 
L 59.704928 11.006102 
L 59.791955 10.932836 
L 59.835469 10.967245 
L 60.053038 10.918248 
L 73.868647 10.354841 
L 74.782436 10.33653 
L 74.869463 10.842086 
L 74.912977 10.69186 
L 74.956491 10.403981 
L 75.043518 10.493537 
L 75.195816 10.415804 
L 75.261087 10.341588 
L 75.326357 10.38905 
L 75.609197 10.336821 
L 76.196632 10.308612 
L 83.659237 10.220413 
L 105.285561 10.171497 
L 131.154474 10.169091 
L 131.263259 11.375842 
L 131.350286 10.658847 
L 131.372043 10.719774 
L 131.3938 10.848814 
L 131.415557 10.438586 
L 131.437314 10.494238 
L 131.459071 10.535797 
L 131.502584 10.212411 
L 131.589612 10.256941 
L 131.720153 10.284628 
L 131.763667 10.31412 
L 131.828937 10.251237 
L 132.068263 10.181147 
L 132.459886 10.172744 
L 132.459886 10.172744 
" clip-path="url(#p247bf0b987)" style="fill: none; stroke: #ffa500; stroke-width: 1.5; stroke-linecap: square"/>
   </g>
   <g id="line2d_6">
    <path d="M 56.332614 36.326087 
L 56.811265 35.466185 
L 57.333429 34.909371 
L 57.507484 34.143224 
L 57.616269 32.475966 
L 57.659782 30.24064 
L 57.681539 69.550909 
L 57.703296 28.995918 
L 57.768567 30.460914 
L 57.877351 30.813788 
L 57.899108 30.796804 
L 58.029649 30.417497 
L 58.268975 28.880622 
L 58.573571 25.378753 
L 58.682355 23.383826 
L 58.704112 26.216657 
L 58.791139 25.243589 
L 58.965194 26.011872 
L 59.073979 25.957278 
L 59.335061 25.411428 
L 60.335877 23.157461 
L 60.988583 22.302467 
L 61.750073 21.677017 
L 62.81616 21.109133 
L 64.317383 20.326483 
L 64.382654 20.170396 
L 64.404411 27.574066 
L 64.491438 21.215473 
L 64.709007 21.872286 
L 64.970089 22.032879 
L 65.492254 22.024102 
L 67.18929 21.803915 
L 67.18929 21.803915 
" clip-path="url(#p247bf0b987)" style="fill: none; stroke: #0000ff; stroke-width: 1.5; stroke-linecap: square"/>
   </g>
   <g id="line2d_7">
    <path d="M 52.52625 10.230927 
L 136.26625 10.230927 
" clip-path="url(#p247bf0b987)" style="fill: none; stroke-dasharray: 5.55,2.4; stroke-dashoffset: 0; stroke: #ffa500; stroke-width: 1.5"/>
   </g>
   <g id="line2d_8">
    <path d="M 52.52625 20.950371 
L 136.26625 20.950371 
" clip-path="url(#p247bf0b987)" style="fill: none; stroke-dasharray: 5.55,2.4; stroke-dashoffset: 0; stroke: #ffa500; stroke-width: 1.5"/>
   </g>
   <g id="patch_3">
    <path d="M 52.52625 72.52 
L 52.52625 7.2 
" style="fill: none; stroke: #000000; stroke-width: 1.5; stroke-linejoin: miter; stroke-linecap: square"/>
   </g>
   <g id="patch_4">
    <path d="M 52.52625 72.52 
L 136.26625 72.52 
" style="fill: none; stroke: #000000; stroke-width: 1.5; stroke-linejoin: miter; stroke-linecap: square"/>
   </g>
   <g id="legend_1">
    <g id="line2d_9">
     <path d="M 69.1725 49.61375 
L 77.1725 49.61375 
L 85.1725 49.61375 
" style="fill: none; stroke-dasharray: 5.55,2.4; stroke-dashoffset: 0; stroke: #ffa500; stroke-width: 1.5"/>
    </g>
    <g id="text_7">
     <text style="font: 8px 'Arial', sans-serif, serif; text-anchor: start" x="91.5725" y="52.41375" transform="rotate(-0 91.5725 52.41375)">True value</text>
    </g>
    <g id="line2d_10">
     <path d="M 69.1725 60.93 
L 77.1725 60.93 
L 85.1725 60.93 
" style="fill: none; stroke-dasharray: 5.55,2.4; stroke-dashoffset: 0; stroke: #ffa500; stroke-width: 1.5"/>
    </g>
    <g id="text_8">
     <text style="font: 8px 'Arial', sans-serif, serif; text-anchor: start" x="91.5725" y="63.73" transform="rotate(-0 91.5725 63.73)">True value</text>
    </g>
   </g>
  </g>
 </g>
 <defs>
  <clipPath id="p247bf0b987">
   <rect x="52.52625" y="7.2" width="83.74" height="65.32"/>
  </clipPath>
 </defs>
</svg>
