<?xml version="1.0" encoding="utf-8" standalone="no"?>
<!DOCTYPE svg PUBLIC "-//W3C//DTD SVG 1.1//EN"
  "http://www.w3.org/Graphics/SVG/1.1/DTD/svg11.dtd">
<svg xmlns:xlink="http://www.w3.org/1999/xlink" width="143.46625pt" height="105.3525pt" viewBox="0 0 143.46625 105.3525" xmlns="http://www.w3.org/2000/svg" version="1.1">
 <metadata>
  <rdf:RDF xmlns:dc="http://purl.org/dc/elements/1.1/" xmlns:cc="http://creativecommons.org/ns#" xmlns:rdf="http://www.w3.org/1999/02/22-rdf-syntax-ns#">
   <cc:Work>
    <dc:type rdf:resource="http://purl.org/dc/dcmitype/StillImage"/>
    <dc:date>2025-10-23T23:08:17.582048</dc:date>
    <dc:format>image/svg+xml</dc:format>
    <dc:creator>
     <cc:Agent>
      <dc:title>Matplotlib v3.9.2, https://matplotlib.org/</dc:title>
     </cc:Agent>
    </dc:creator>
   </cc:Work>
  </rdf:RDF>
 </metadata>
 <defs>
  <style type="text/css">*{stroke-linejoin: round; stroke-linecap: butt}</style>
 </defs>
 <g id="figure_1">
  <g id="patch_1">
   <path d="M 0 105.3525 
L 143.46625 105.3525 
L 143.46625 0 
L 0 0 
z
" style="fill: #ffffff"/>
  </g>
  <g id="axes_1">
   <g id="patch_2">
    <path d="M 52.52625 72.52 
L 136.26625 72.52 
L 136.26625 7.2 
L 52.52625 7.2 
z
" style="fill: #ffffff"/>
   </g>
   <g id="matplotlib.axis_1">
    <g id="xtick_1">
     <g id="line2d_1">
      <defs>
       <path id="m3ea38ee592" d="M 0 0 
L 0 3.5 
" style="stroke: #000000; stroke-width: 1.5"/>
      </defs>
      <g>
       <use xlink:href="#m3ea38ee592" x="56.332614" y="72.52" style="stroke: #000000; stroke-width: 1.5"/>
      </g>
     </g>
     <g id="text_1">
      <text style="font: 8px 'Arial', sans-serif, serif; text-anchor: middle" x="56.332614" y="85.24625" transform="rotate(-0 56.332614 85.24625)">0</text>
     </g>
    </g>
    <g id="xtick_2">
     <g id="line2d_2">
      <g>
       <use xlink:href="#m3ea38ee592" x="86.844547" y="72.52" style="stroke: #000000; stroke-width: 1.5"/>
      </g>
     </g>
     <g id="text_2">
      <text style="font: 8px 'Arial', sans-serif, serif; text-anchor: middle" x="86.844547" y="85.24625" transform="rotate(-0 86.844547 85.24625)">200</text>
     </g>
    </g>
    <g id="xtick_3">
     <g id="line2d_3">
      <g>
       <use xlink:href="#m3ea38ee592" x="117.35648" y="72.52" style="stroke: #000000; stroke-width: 1.5"/>
      </g>
     </g>
     <g id="text_3">
      <text style="font: 8px 'Arial', sans-serif, serif; text-anchor: middle" x="117.35648" y="85.24625" transform="rotate(-0 117.35648 85.24625)">400</text>
     </g>
    </g>
    <g id="text_4">
     <text style="font: 8px 'Arial', sans-serif, serif; text-anchor: middle" x="94.39625" y="96.5625" transform="rotate(-0 94.39625 96.5625)">Iteration</text>
    </g>
   </g>
   <g id="matplotlib.axis_2">
    <g id="ytick_1">
     <g id="line2d_4">
      <defs>
       <path id="mf08ac66457" d="M 0 0 
L -3.5 0 
" style="stroke: #000000; stroke-width: 1.5"/>
      </defs>
      <g>
       <use xlink:href="#mf08ac66457" x="52.52625" y="59.738738" style="stroke: #000000; stroke-width: 1.5"/>
      </g>
     </g>
     <g id="text_5">
      <text style="font: 8px 'Arial', sans-serif, serif; text-anchor: end" x="45.52625" y="62.601863" transform="rotate(-0 45.52625 62.601863)">−20000</text>
     </g>
    </g>
    <g id="ytick_2">
     <g id="line2d_5">
      <g>
       <use xlink:href="#mf08ac66457" x="52.52625" y="31.157619" style="stroke: #000000; stroke-width: 1.5"/>
      </g>
     </g>
     <g id="text_6">
      <text style="font: 8px 'Arial', sans-serif, serif; text-anchor: end" x="45.52625" y="34.020744" transform="rotate(-0 45.52625 34.020744)">0</text>
     </g>
    </g>
    <g id="text_7">
     <text style="font: 8px 'Arial', sans-serif, serif; text-anchor: middle" x="12.92625" y="39.86" transform="rotate(-90 12.92625 39.86)">Marginal log-likelihood</text>
    </g>
   </g>
   <g id="line2d_6">
    <path d="M 56.332614 69.550909 
L 57.247972 50.358365 
L 57.553091 43.651122 
L 57.705651 38.589299 
L 58.01077 17.876222 
L 58.16333 24.579255 
L 58.315889 21.907925 
L 58.468449 14.351152 
L 58.773568 19.59639 
L 58.926128 17.55328 
L 59.078688 13.032781 
L 59.383807 17.377452 
L 59.688926 12.78298 
L 59.994046 15.716128 
L 60.299165 12.434891 
L 60.451725 13.856394 
L 60.604284 14.114077 
L 60.756844 12.397154 
L 60.909404 12.187531 
L 61.061963 13.250622 
L 61.214523 12.814971 
L 61.367083 11.749201 
L 61.672202 12.740099 
L 61.977321 11.706724 
L 62.129881 12.286051 
L 62.282441 12.093824 
L 62.435 11.523021 
L 62.74012 11.942834 
L 62.892679 11.474135 
L 63.045239 11.410805 
L 63.197799 11.665142 
L 63.502918 11.213147 
L 63.655478 11.417909 
L 63.808037 11.364957 
L 63.960597 11.137725 
L 64.265716 11.281107 
L 64.418276 11.091874 
L 64.723395 11.175461 
L 65.028515 11.011139 
L 65.181074 11.066604 
L 65.486194 10.932532 
L 65.638753 10.980456 
L 65.943873 10.880494 
L 66.248992 10.864641 
L 67.622029 10.751905 
L 132.459886 10.169091 
L 132.459886 10.169091 
" clip-path="url(#pb899fc4902)" style="fill: none; stroke: #000000; stroke-width: 1.5; stroke-linecap: square"/>
   </g>
   <g id="line2d_7">
    <path d="M 52.52625 18.420443 
L 136.26625 18.420443 
" clip-path="url(#pb899fc4902)" style="fill: none; stroke-dasharray: 5.55,2.4; stroke-dashoffset: 0; stroke: #000000; stroke-width: 1.5"/>
   </g>
   <g id="patch_3">
    <path d="M 52.52625 72.52 
L 52.52625 7.2 
" style="fill: none; stroke: #000000; stroke-width: 1.5; stroke-linejoin: miter; stroke-linecap: square"/>
   </g>
   <g id="patch_4">
    <path d="M 52.52625 72.52 
L 136.26625 72.52 
" style="fill: none; stroke: #000000; stroke-width: 1.5; stroke-linejoin: miter; stroke-linecap: square"/>
   </g>
   <g id="legend_1">
    <g id="line2d_8">
     <path d="M 69.1725 60.93 
L 77.1725 60.93 
L 85.1725 60.93 
" style="fill: none; stroke-dasharray: 5.55,2.4; stroke-dashoffset: 0; stroke: #000000; stroke-width: 1.5"/>
    </g>
    <g id="text_8">
     <text style="font: 8px 'Arial', sans-serif, serif; text-anchor: start" x="91.5725" y="63.73" transform="rotate(-0 91.5725 63.73)">True value</text>
    </g>
   </g>
  </g>
 </g>
 <defs>
  <clipPath id="pb899fc4902">
   <rect x="52.52625" y="7.2" width="83.74" height="65.32"/>
  </clipPath>
 </defs>
</svg>
