<?xml version="1.0" encoding="utf-8" standalone="no"?>
<!DOCTYPE svg PUBLIC "-//W3C//DTD SVG 1.1//EN"
  "http://www.w3.org/Graphics/SVG/1.1/DTD/svg11.dtd">
<svg xmlns:xlink="http://www.w3.org/1999/xlink" width="399.95pt" height="101.80675pt" viewBox="0 0 399.95 101.80675" xmlns="http://www.w3.org/2000/svg" version="1.1">
 <metadata>
  <rdf:RDF xmlns:dc="http://purl.org/dc/elements/1.1/" xmlns:cc="http://creativecommons.org/ns#" xmlns:rdf="http://www.w3.org/1999/02/22-rdf-syntax-ns#">
   <cc:Work>
    <dc:type rdf:resource="http://purl.org/dc/dcmitype/StillImage"/>
    <dc:date>2025-10-13T00:16:35.615899</dc:date>
    <dc:format>image/svg+xml</dc:format>
    <dc:creator>
     <cc:Agent>
      <dc:title>Matplotlib v3.9.2, https://matplotlib.org/</dc:title>
     </cc:Agent>
    </dc:creator>
   </cc:Work>
  </rdf:RDF>
 </metadata>
 <defs>
  <style type="text/css">*{stroke-linejoin: round; stroke-linecap: butt}</style>
 </defs>
 <g id="figure_1">
  <g id="patch_1">
   <path d="M 0 101.80675 
L 399.95 101.80675 
L 399.95 0 
L 0 0 
z
" style="fill: #ffffff"/>
  </g>
  <g id="axes_1">
   <g id="patch_2">
    <path d="M 36.73 67.9705 
L 135.871001 67.9705 
L 135.871001 7.2 
L 36.73 7.2 
z
" style="fill: #ffffff"/>
   </g>
   <g id="patch_3">
    <path d="M 62.480651 67.9705 
L 65.830518 67.9705 
L 65.830518 58.324389 
L 62.480651 58.324389 
z
" clip-path="url(#p590721e194)" style="fill: #1f77b4; opacity: 0.6"/>
   </g>
   <g id="patch_4">
    <path d="M 65.830518 67.9705 
L 69.180385 67.9705 
L 69.180385 48.678278 
L 65.830518 48.678278 
z
" clip-path="url(#p590721e194)" style="fill: #1f77b4; opacity: 0.6"/>
   </g>
   <g id="patch_5">
    <path d="M 69.180385 67.9705 
L 72.530251 67.9705 
L 72.530251 58.324389 
L 69.180385 58.324389 
z
" clip-path="url(#p590721e194)" style="fill: #1f77b4; opacity: 0.6"/>
   </g>
   <g id="patch_6">
    <path d="M 72.530251 67.9705 
L 75.880118 67.9705 
L 75.880118 29.386056 
L 72.530251 29.386056 
z
" clip-path="url(#p590721e194)" style="fill: #1f77b4; opacity: 0.6"/>
   </g>
   <g id="patch_7">
    <path d="M 75.880118 67.9705 
L 79.229985 67.9705 
L 79.229985 48.678278 
L 75.880118 48.678278 
z
" clip-path="url(#p590721e194)" style="fill: #1f77b4; opacity: 0.6"/>
   </g>
   <g id="patch_8">
    <path d="M 79.229985 67.9705 
L 82.579852 67.9705 
L 82.579852 58.324389 
L 79.229985 58.324389 
z
" clip-path="url(#p590721e194)" style="fill: #1f77b4; opacity: 0.6"/>
   </g>
   <g id="patch_9">
    <path d="M 82.579852 67.9705 
L 85.929719 67.9705 
L 85.929719 29.386056 
L 82.579852 29.386056 
z
" clip-path="url(#p590721e194)" style="fill: #1f77b4; opacity: 0.6"/>
   </g>
   <g id="patch_10">
    <path d="M 85.929719 67.9705 
L 89.279586 67.9705 
L 89.279586 48.678278 
L 85.929719 48.678278 
z
" clip-path="url(#p590721e194)" style="fill: #1f77b4; opacity: 0.6"/>
   </g>
   <g id="patch_11">
    <path d="M 89.279586 67.9705 
L 92.629453 67.9705 
L 92.629453 10.093833 
L 89.279586 10.093833 
z
" clip-path="url(#p590721e194)" style="fill: #1f77b4; opacity: 0.6"/>
   </g>
   <g id="patch_12">
    <path d="M 92.629453 67.9705 
L 95.97932 67.9705 
L 95.97932 29.386056 
L 92.629453 29.386056 
z
" clip-path="url(#p590721e194)" style="fill: #1f77b4; opacity: 0.6"/>
   </g>
   <g id="patch_13">
    <path d="M 95.97932 67.9705 
L 99.329186 67.9705 
L 99.329186 10.093833 
L 95.97932 10.093833 
z
" clip-path="url(#p590721e194)" style="fill: #1f77b4; opacity: 0.6"/>
   </g>
   <g id="patch_14">
    <path d="M 99.329186 67.9705 
L 102.679053 67.9705 
L 102.679053 58.324389 
L 99.329186 58.324389 
z
" clip-path="url(#p590721e194)" style="fill: #1f77b4; opacity: 0.6"/>
   </g>
   <g id="patch_15">
    <path d="M 102.679053 67.9705 
L 106.02892 67.9705 
L 106.02892 58.324389 
L 102.679053 58.324389 
z
" clip-path="url(#p590721e194)" style="fill: #1f77b4; opacity: 0.6"/>
   </g>
   <g id="patch_16">
    <path d="M 106.02892 67.9705 
L 109.378787 67.9705 
L 109.378787 58.324389 
L 106.02892 58.324389 
z
" clip-path="url(#p590721e194)" style="fill: #1f77b4; opacity: 0.6"/>
   </g>
   <g id="patch_17">
    <path d="M 109.378787 67.9705 
L 112.728654 67.9705 
L 112.728654 67.9705 
L 109.378787 67.9705 
z
" clip-path="url(#p590721e194)" style="fill: #1f77b4; opacity: 0.6"/>
   </g>
   <g id="patch_18">
    <path d="M 112.728654 67.9705 
L 116.078521 67.9705 
L 116.078521 67.9705 
L 112.728654 67.9705 
z
" clip-path="url(#p590721e194)" style="fill: #1f77b4; opacity: 0.6"/>
   </g>
   <g id="patch_19">
    <path d="M 116.078521 67.9705 
L 119.428388 67.9705 
L 119.428388 58.324389 
L 116.078521 58.324389 
z
" clip-path="url(#p590721e194)" style="fill: #1f77b4; opacity: 0.6"/>
   </g>
   <g id="patch_20">
    <path d="M 119.428388 67.9705 
L 122.778255 67.9705 
L 122.778255 67.9705 
L 119.428388 67.9705 
z
" clip-path="url(#p590721e194)" style="fill: #1f77b4; opacity: 0.6"/>
   </g>
   <g id="patch_21">
    <path d="M 122.778255 67.9705 
L 126.128121 67.9705 
L 126.128121 67.9705 
L 122.778255 67.9705 
z
" clip-path="url(#p590721e194)" style="fill: #1f77b4; opacity: 0.6"/>
   </g>
   <g id="patch_22">
    <path d="M 126.128121 67.9705 
L 129.477988 67.9705 
L 129.477988 39.032167 
L 126.128121 39.032167 
z
" clip-path="url(#p590721e194)" style="fill: #1f77b4; opacity: 0.6"/>
   </g>
   <g id="patch_23">
    <path d="M 41.236409 67.9705 
L 45.743025 67.9705 
L 45.743025 58.324389 
L 41.236409 58.324389 
z
" clip-path="url(#p590721e194)" style="fill: #ff0000; opacity: 0.6"/>
   </g>
   <g id="patch_24">
    <path d="M 45.743025 67.9705 
L 50.249124 67.9705 
L 50.249124 48.678278 
L 45.743025 48.678278 
z
" clip-path="url(#p590721e194)" style="fill: #ff0000; opacity: 0.6"/>
   </g>
   <g id="patch_25">
    <path d="M 50.249124 67.9705 
L 54.75574 67.9705 
L 54.75574 48.678278 
L 50.249124 48.678278 
z
" clip-path="url(#p590721e194)" style="fill: #ff0000; opacity: 0.6"/>
   </g>
   <g id="patch_26">
    <path d="M 54.75574 67.9705 
L 59.261839 67.9705 
L 59.261839 48.678278 
L 54.75574 48.678278 
z
" clip-path="url(#p590721e194)" style="fill: #ff0000; opacity: 0.6"/>
   </g>
   <g id="patch_27">
    <path d="M 59.261839 67.9705 
L 63.768455 67.9705 
L 63.768455 48.678278 
L 59.261839 48.678278 
z
" clip-path="url(#p590721e194)" style="fill: #ff0000; opacity: 0.6"/>
   </g>
   <g id="patch_28">
    <path d="M 63.768455 67.9705 
L 68.275071 67.9705 
L 68.275071 48.678278 
L 63.768455 48.678278 
z
" clip-path="url(#p590721e194)" style="fill: #ff0000; opacity: 0.6"/>
   </g>
   <g id="patch_29">
    <path d="M 68.275071 67.9705 
L 72.781169 67.9705 
L 72.781169 29.386056 
L 68.275071 29.386056 
z
" clip-path="url(#p590721e194)" style="fill: #ff0000; opacity: 0.6"/>
   </g>
   <g id="patch_30">
    <path d="M 72.781169 67.9705 
L 77.287786 67.9705 
L 77.287786 48.678278 
L 72.781169 48.678278 
z
" clip-path="url(#p590721e194)" style="fill: #ff0000; opacity: 0.6"/>
   </g>
   <g id="patch_31">
    <path d="M 77.287786 67.9705 
L 81.793884 67.9705 
L 81.793884 19.739944 
L 77.287786 19.739944 
z
" clip-path="url(#p590721e194)" style="fill: #ff0000; opacity: 0.6"/>
   </g>
   <g id="patch_32">
    <path d="M 81.793884 67.9705 
L 86.3005 67.9705 
L 86.3005 48.678278 
L 81.793884 48.678278 
z
" clip-path="url(#p590721e194)" style="fill: #ff0000; opacity: 0.6"/>
   </g>
   <g id="patch_33">
    <path d="M 86.3005 67.9705 
L 90.807117 67.9705 
L 90.807117 39.032167 
L 86.3005 39.032167 
z
" clip-path="url(#p590721e194)" style="fill: #ff0000; opacity: 0.6"/>
   </g>
   <g id="patch_34">
    <path d="M 90.807117 67.9705 
L 95.313215 67.9705 
L 95.313215 39.032167 
L 90.807117 39.032167 
z
" clip-path="url(#p590721e194)" style="fill: #ff0000; opacity: 0.6"/>
   </g>
   <g id="patch_35">
    <path d="M 95.313215 67.9705 
L 99.819831 67.9705 
L 99.819831 58.324389 
L 95.313215 58.324389 
z
" clip-path="url(#p590721e194)" style="fill: #ff0000; opacity: 0.6"/>
   </g>
   <g id="patch_36">
    <path d="M 99.819831 67.9705 
L 104.32593 67.9705 
L 104.32593 58.324389 
L 99.819831 58.324389 
z
" clip-path="url(#p590721e194)" style="fill: #ff0000; opacity: 0.6"/>
   </g>
   <g id="patch_37">
    <path d="M 104.32593 67.9705 
L 108.832546 67.9705 
L 108.832546 58.324389 
L 104.32593 58.324389 
z
" clip-path="url(#p590721e194)" style="fill: #ff0000; opacity: 0.6"/>
   </g>
   <g id="patch_38">
    <path d="M 108.832546 67.9705 
L 113.339162 67.9705 
L 113.339162 67.9705 
L 108.832546 67.9705 
z
" clip-path="url(#p590721e194)" style="fill: #ff0000; opacity: 0.6"/>
   </g>
   <g id="patch_39">
    <path d="M 113.339162 67.9705 
L 117.845261 67.9705 
L 117.845261 29.386056 
L 113.339162 29.386056 
z
" clip-path="url(#p590721e194)" style="fill: #ff0000; opacity: 0.6"/>
   </g>
   <g id="patch_40">
    <path d="M 117.845261 67.9705 
L 122.351877 67.9705 
L 122.351877 58.324389 
L 117.845261 58.324389 
z
" clip-path="url(#p590721e194)" style="fill: #ff0000; opacity: 0.6"/>
   </g>
   <g id="patch_41">
    <path d="M 122.351877 67.9705 
L 126.857975 67.9705 
L 126.857975 58.324389 
L 122.351877 58.324389 
z
" clip-path="url(#p590721e194)" style="fill: #ff0000; opacity: 0.6"/>
   </g>
   <g id="patch_42">
    <path d="M 126.857975 67.9705 
L 131.364592 67.9705 
L 131.364592 58.324389 
L 126.857975 58.324389 
z
" clip-path="url(#p590721e194)" style="fill: #ff0000; opacity: 0.6"/>
   </g>
   <g id="matplotlib.axis_1">
    <g id="xtick_1">
     <g id="line2d_1">
      <defs>
       <path id="m7e1bc3d419" d="M 0 0 
L 0 3.5 
" style="stroke: #000000; stroke-width: 1.5"/>
      </defs>
      <g>
       <use xlink:href="#m7e1bc3d419" x="56.284196" y="67.9705" style="stroke: #000000; stroke-width: 1.5"/>
      </g>
     </g>
     <g id="text_1">
      <text style="font: 8px 'Arial', sans-serif, serif; text-anchor: middle" x="56.284196" y="80.69675" transform="rotate(-0 56.284196 80.69675)">0.000298</text>
     </g>
    </g>
    <g id="xtick_2">
     <g id="line2d_2">
      <g>
       <use xlink:href="#m7e1bc3d419" x="91.864655" y="67.9705" style="stroke: #000000; stroke-width: 1.5"/>
      </g>
     </g>
     <g id="text_2">
      <text style="font: 8px 'Arial', sans-serif, serif; text-anchor: middle" x="91.864655" y="80.69675" transform="rotate(-0 91.864655 80.69675)">0.000300</text>
     </g>
    </g>
    <g id="xtick_3">
     <g id="line2d_3">
      <g>
       <use xlink:href="#m7e1bc3d419" x="127.445113" y="67.9705" style="stroke: #000000; stroke-width: 1.5"/>
      </g>
     </g>
     <g id="text_3">
      <text style="font: 8px 'Arial', sans-serif, serif; text-anchor: middle" x="127.445113" y="80.69675" transform="rotate(-0 127.445113 80.69675)">0.000302</text>
     </g>
    </g>
   </g>
   <g id="matplotlib.axis_2">
    <g id="ytick_1">
     <g id="line2d_4">
      <defs>
       <path id="m89708c7254" d="M 0 0 
L -3.5 0 
" style="stroke: #000000; stroke-width: 1.5"/>
      </defs>
      <g>
       <use xlink:href="#m89708c7254" x="36.73" y="67.9705" style="stroke: #000000; stroke-width: 1.5"/>
      </g>
     </g>
     <g id="text_4">
      <text style="font: 8px 'Arial', sans-serif, serif; text-anchor: end" x="29.73" y="70.833625" transform="rotate(-0 29.73 70.833625)">0.0</text>
     </g>
    </g>
    <g id="ytick_2">
     <g id="line2d_5">
      <g>
       <use xlink:href="#m89708c7254" x="36.73" y="43.855222" style="stroke: #000000; stroke-width: 1.5"/>
      </g>
     </g>
     <g id="text_5">
      <text style="font: 8px 'Arial', sans-serif, serif; text-anchor: end" x="29.73" y="46.718347" transform="rotate(-0 29.73 46.718347)">2.5</text>
     </g>
    </g>
    <g id="ytick_3">
     <g id="line2d_6">
      <g>
       <use xlink:href="#m89708c7254" x="36.73" y="19.739944" style="stroke: #000000; stroke-width: 1.5"/>
      </g>
     </g>
     <g id="text_6">
      <text style="font: 8px 'Arial', sans-serif, serif; text-anchor: end" x="29.73" y="22.603069" transform="rotate(-0 29.73 22.603069)">5.0</text>
     </g>
    </g>
    <g id="text_7">
     <text style="font: 8px 'Arial', sans-serif, serif; text-anchor: middle" x="12.92625" y="37.58525" transform="rotate(-90 12.92625 37.58525)">Frequency</text>
    </g>
   </g>
   <g id="line2d_7">
    <path d="M 91.864655 67.9705 
L 91.864655 7.2 
" clip-path="url(#p590721e194)" style="fill: none; stroke-dasharray: 5.55,2.4; stroke-dashoffset: 0; stroke: #000000; stroke-width: 1.5"/>
   </g>
   <g id="patch_43">
    <path d="M 36.73 67.9705 
L 36.73 7.2 
" style="fill: none; stroke: #000000; stroke-width: 1.5; stroke-linejoin: miter; stroke-linecap: square"/>
   </g>
   <g id="patch_44">
    <path d="M 36.73 67.9705 
L 135.871001 67.9705 
" style="fill: none; stroke: #000000; stroke-width: 1.5; stroke-linejoin: miter; stroke-linecap: square"/>
   </g>
   <g id="legend_1">
    <g id="patch_45">
     <path d="M 43.93 20.12625 
L 59.93 20.12625 
L 59.93 14.52625 
L 43.93 14.52625 
z
" style="fill: #1f77b4; opacity: 0.6"/>
    </g>
    <g id="text_8">
     <text style="font: 8px 'Arial', sans-serif, serif; text-anchor: start" x="66.33" y="20.12625" transform="rotate(-0 66.33 20.12625)">MSE</text>
    </g>
    <g id="patch_46">
     <path d="M 43.93 31.4425 
L 59.93 31.4425 
L 59.93 25.8425 
L 43.93 25.8425 
z
" style="fill: #ff0000; opacity: 0.6"/>
    </g>
    <g id="text_9">
     <text style="font: 8px 'Arial', sans-serif, serif; text-anchor: start" x="66.33" y="31.4425" transform="rotate(-0 66.33 31.4425)">EKF</text>
    </g>
    <g id="line2d_8">
     <path d="M 43.93 39.95875 
L 51.93 39.95875 
L 59.93 39.95875 
" style="fill: none; stroke-dasharray: 5.55,2.4; stroke-dashoffset: 0; stroke: #000000; stroke-width: 1.5"/>
    </g>
    <g id="text_10">
     <text style="font: 8px 'Arial', sans-serif, serif; text-anchor: start" x="66.33" y="42.75875" transform="rotate(-0 66.33 42.75875)">true value</text>
    </g>
   </g>
  </g>
  <g id="axes_2">
   <g id="patch_47">
    <path d="M 165.1695 67.9705 
L 264.3105 67.9705 
L 264.3105 7.2 
L 165.1695 7.2 
z
" style="fill: #ffffff"/>
   </g>
   <g id="patch_48">
    <path d="M 169.675909 67.9705 
L 173.530838 67.9705 
L 173.530838 51.43431 
L 169.675909 51.43431 
z
" clip-path="url(#pd3ac52bb2a)" style="fill: #1f77b4; opacity: 0.6"/>
   </g>
   <g id="patch_49">
    <path d="M 173.530838 67.9705 
L 177.385767 67.9705 
L 177.385767 67.9705 
L 173.530838 67.9705 
z
" clip-path="url(#pd3ac52bb2a)" style="fill: #1f77b4; opacity: 0.6"/>
   </g>
   <g id="patch_50">
    <path d="M 177.385767 67.9705 
L 181.240696 67.9705 
L 181.240696 59.702405 
L 177.385767 59.702405 
z
" clip-path="url(#pd3ac52bb2a)" style="fill: #1f77b4; opacity: 0.6"/>
   </g>
   <g id="patch_51">
    <path d="M 181.240696 67.9705 
L 185.095625 67.9705 
L 185.095625 67.9705 
L 181.240696 67.9705 
z
" clip-path="url(#pd3ac52bb2a)" style="fill: #1f77b4; opacity: 0.6"/>
   </g>
   <g id="patch_52">
    <path d="M 185.095625 67.9705 
L 188.950554 67.9705 
L 188.950554 59.702405 
L 185.095625 59.702405 
z
" clip-path="url(#pd3ac52bb2a)" style="fill: #1f77b4; opacity: 0.6"/>
   </g>
   <g id="patch_53">
    <path d="M 188.950554 67.9705 
L 192.805482 67.9705 
L 192.805482 67.9705 
L 188.950554 67.9705 
z
" clip-path="url(#pd3ac52bb2a)" style="fill: #1f77b4; opacity: 0.6"/>
   </g>
   <g id="patch_54">
    <path d="M 192.805482 67.9705 
L 196.660411 67.9705 
L 196.660411 59.702405 
L 192.805482 59.702405 
z
" clip-path="url(#pd3ac52bb2a)" style="fill: #1f77b4; opacity: 0.6"/>
   </g>
   <g id="patch_55">
    <path d="M 196.660411 67.9705 
L 200.51534 67.9705 
L 200.51534 67.9705 
L 196.660411 67.9705 
z
" clip-path="url(#pd3ac52bb2a)" style="fill: #1f77b4; opacity: 0.6"/>
   </g>
   <g id="patch_56">
    <path d="M 200.51534 67.9705 
L 204.370269 67.9705 
L 204.370269 34.898119 
L 200.51534 34.898119 
z
" clip-path="url(#pd3ac52bb2a)" style="fill: #1f77b4; opacity: 0.6"/>
   </g>
   <g id="patch_57">
    <path d="M 204.370269 67.9705 
L 208.225198 67.9705 
L 208.225198 51.43431 
L 204.370269 51.43431 
z
" clip-path="url(#pd3ac52bb2a)" style="fill: #1f77b4; opacity: 0.6"/>
   </g>
   <g id="patch_58">
    <path d="M 208.225198 67.9705 
L 212.080127 67.9705 
L 212.080127 51.43431 
L 208.225198 51.43431 
z
" clip-path="url(#pd3ac52bb2a)" style="fill: #1f77b4; opacity: 0.6"/>
   </g>
   <g id="patch_59">
    <path d="M 212.080127 67.9705 
L 215.935056 67.9705 
L 215.935056 43.166214 
L 212.080127 43.166214 
z
" clip-path="url(#pd3ac52bb2a)" style="fill: #1f77b4; opacity: 0.6"/>
   </g>
   <g id="patch_60">
    <path d="M 215.935056 67.9705 
L 219.789985 67.9705 
L 219.789985 43.166214 
L 215.935056 43.166214 
z
" clip-path="url(#pd3ac52bb2a)" style="fill: #1f77b4; opacity: 0.6"/>
   </g>
   <g id="patch_61">
    <path d="M 219.789985 67.9705 
L 223.644914 67.9705 
L 223.644914 51.43431 
L 219.789985 51.43431 
z
" clip-path="url(#pd3ac52bb2a)" style="fill: #1f77b4; opacity: 0.6"/>
   </g>
   <g id="patch_62">
    <path d="M 223.644914 67.9705 
L 227.499843 67.9705 
L 227.499843 10.093833 
L 223.644914 10.093833 
z
" clip-path="url(#pd3ac52bb2a)" style="fill: #1f77b4; opacity: 0.6"/>
   </g>
   <g id="patch_63">
    <path d="M 227.499843 67.9705 
L 231.354772 67.9705 
L 231.354772 34.898119 
L 227.499843 34.898119 
z
" clip-path="url(#pd3ac52bb2a)" style="fill: #1f77b4; opacity: 0.6"/>
   </g>
   <g id="patch_64">
    <path d="M 231.354772 67.9705 
L 235.209701 67.9705 
L 235.209701 43.166214 
L 231.354772 43.166214 
z
" clip-path="url(#pd3ac52bb2a)" style="fill: #1f77b4; opacity: 0.6"/>
   </g>
   <g id="patch_65">
    <path d="M 235.209701 67.9705 
L 239.06463 67.9705 
L 239.06463 67.9705 
L 235.209701 67.9705 
z
" clip-path="url(#pd3ac52bb2a)" style="fill: #1f77b4; opacity: 0.6"/>
   </g>
   <g id="patch_66">
    <path d="M 239.06463 67.9705 
L 242.919559 67.9705 
L 242.919559 43.166214 
L 239.06463 43.166214 
z
" clip-path="url(#pd3ac52bb2a)" style="fill: #1f77b4; opacity: 0.6"/>
   </g>
   <g id="patch_67">
    <path d="M 242.919559 67.9705 
L 246.774488 67.9705 
L 246.774488 51.43431 
L 242.919559 51.43431 
z
" clip-path="url(#pd3ac52bb2a)" style="fill: #1f77b4; opacity: 0.6"/>
   </g>
   <g id="patch_68">
    <path d="M 177.648897 67.9705 
L 181.756533 67.9705 
L 181.756533 51.43431 
L 177.648897 51.43431 
z
" clip-path="url(#pd3ac52bb2a)" style="fill: #ff0000; opacity: 0.6"/>
   </g>
   <g id="patch_69">
    <path d="M 181.756533 67.9705 
L 185.864169 67.9705 
L 185.864169 67.9705 
L 181.756533 67.9705 
z
" clip-path="url(#pd3ac52bb2a)" style="fill: #ff0000; opacity: 0.6"/>
   </g>
   <g id="patch_70">
    <path d="M 185.864169 67.9705 
L 189.972423 67.9705 
L 189.972423 59.702405 
L 185.864169 59.702405 
z
" clip-path="url(#pd3ac52bb2a)" style="fill: #ff0000; opacity: 0.6"/>
   </g>
   <g id="patch_71">
    <path d="M 189.972423 67.9705 
L 194.080059 67.9705 
L 194.080059 51.43431 
L 189.972423 51.43431 
z
" clip-path="url(#pd3ac52bb2a)" style="fill: #ff0000; opacity: 0.6"/>
   </g>
   <g id="patch_72">
    <path d="M 194.080059 67.9705 
L 198.187695 67.9705 
L 198.187695 67.9705 
L 194.080059 67.9705 
z
" clip-path="url(#pd3ac52bb2a)" style="fill: #ff0000; opacity: 0.6"/>
   </g>
   <g id="patch_73">
    <path d="M 198.187695 67.9705 
L 202.295332 67.9705 
L 202.295332 67.9705 
L 198.187695 67.9705 
z
" clip-path="url(#pd3ac52bb2a)" style="fill: #ff0000; opacity: 0.6"/>
   </g>
   <g id="patch_74">
    <path d="M 202.295332 67.9705 
L 206.402968 67.9705 
L 206.402968 67.9705 
L 202.295332 67.9705 
z
" clip-path="url(#pd3ac52bb2a)" style="fill: #ff0000; opacity: 0.6"/>
   </g>
   <g id="patch_75">
    <path d="M 206.402968 67.9705 
L 210.511221 67.9705 
L 210.511221 26.630024 
L 206.402968 26.630024 
z
" clip-path="url(#pd3ac52bb2a)" style="fill: #ff0000; opacity: 0.6"/>
   </g>
   <g id="patch_76">
    <path d="M 210.511221 67.9705 
L 214.618858 67.9705 
L 214.618858 51.43431 
L 210.511221 51.43431 
z
" clip-path="url(#pd3ac52bb2a)" style="fill: #ff0000; opacity: 0.6"/>
   </g>
   <g id="patch_77">
    <path d="M 214.618858 67.9705 
L 218.726494 67.9705 
L 218.726494 59.702405 
L 214.618858 59.702405 
z
" clip-path="url(#pd3ac52bb2a)" style="fill: #ff0000; opacity: 0.6"/>
   </g>
   <g id="patch_78">
    <path d="M 218.726494 67.9705 
L 222.83413 67.9705 
L 222.83413 51.43431 
L 218.726494 51.43431 
z
" clip-path="url(#pd3ac52bb2a)" style="fill: #ff0000; opacity: 0.6"/>
   </g>
   <g id="patch_79">
    <path d="M 222.83413 67.9705 
L 226.941766 67.9705 
L 226.941766 34.898119 
L 222.83413 34.898119 
z
" clip-path="url(#pd3ac52bb2a)" style="fill: #ff0000; opacity: 0.6"/>
   </g>
   <g id="patch_80">
    <path d="M 226.941766 67.9705 
L 231.05002 67.9705 
L 231.05002 59.702405 
L 226.941766 59.702405 
z
" clip-path="url(#pd3ac52bb2a)" style="fill: #ff0000; opacity: 0.6"/>
   </g>
   <g id="patch_81">
    <path d="M 231.05002 67.9705 
L 235.157656 67.9705 
L 235.157656 34.898119 
L 231.05002 34.898119 
z
" clip-path="url(#pd3ac52bb2a)" style="fill: #ff0000; opacity: 0.6"/>
   </g>
   <g id="patch_82">
    <path d="M 235.157656 67.9705 
L 239.265293 67.9705 
L 239.265293 34.898119 
L 235.157656 34.898119 
z
" clip-path="url(#pd3ac52bb2a)" style="fill: #ff0000; opacity: 0.6"/>
   </g>
   <g id="patch_83">
    <path d="M 239.265293 67.9705 
L 243.372929 67.9705 
L 243.372929 51.43431 
L 239.265293 51.43431 
z
" clip-path="url(#pd3ac52bb2a)" style="fill: #ff0000; opacity: 0.6"/>
   </g>
   <g id="patch_84">
    <path d="M 243.372929 67.9705 
L 247.480565 67.9705 
L 247.480565 51.43431 
L 243.372929 51.43431 
z
" clip-path="url(#pd3ac52bb2a)" style="fill: #ff0000; opacity: 0.6"/>
   </g>
   <g id="patch_85">
    <path d="M 247.480565 67.9705 
L 251.588819 67.9705 
L 251.588819 51.43431 
L 247.480565 51.43431 
z
" clip-path="url(#pd3ac52bb2a)" style="fill: #ff0000; opacity: 0.6"/>
   </g>
   <g id="patch_86">
    <path d="M 251.588819 67.9705 
L 255.696455 67.9705 
L 255.696455 43.166214 
L 251.588819 43.166214 
z
" clip-path="url(#pd3ac52bb2a)" style="fill: #ff0000; opacity: 0.6"/>
   </g>
   <g id="patch_87">
    <path d="M 255.696455 67.9705 
L 259.804091 67.9705 
L 259.804091 43.166214 
L 255.696455 43.166214 
z
" clip-path="url(#pd3ac52bb2a)" style="fill: #ff0000; opacity: 0.6"/>
   </g>
   <g id="matplotlib.axis_3">
    <g id="xtick_4">
     <g id="line2d_9">
      <g>
       <use xlink:href="#m7e1bc3d419" x="183.648372" y="67.9705" style="stroke: #000000; stroke-width: 1.5"/>
      </g>
     </g>
     <g id="text_11">
      <text style="font: 8px 'Arial', sans-serif, serif; text-anchor: middle" x="183.648372" y="80.69675" transform="rotate(-0 183.648372 80.69675)">0.0199</text>
     </g>
    </g>
    <g id="xtick_5">
     <g id="line2d_10">
      <g>
       <use xlink:href="#m7e1bc3d419" x="216.79538" y="67.9705" style="stroke: #000000; stroke-width: 1.5"/>
      </g>
     </g>
     <g id="text_12">
      <text style="font: 8px 'Arial', sans-serif, serif; text-anchor: middle" x="216.79538" y="80.69675" transform="rotate(-0 216.79538 80.69675)">0.0200</text>
     </g>
    </g>
    <g id="xtick_6">
     <g id="line2d_11">
      <g>
       <use xlink:href="#m7e1bc3d419" x="249.942388" y="67.9705" style="stroke: #000000; stroke-width: 1.5"/>
      </g>
     </g>
     <g id="text_13">
      <text style="font: 8px 'Arial', sans-serif, serif; text-anchor: middle" x="249.942388" y="80.69675" transform="rotate(-0 249.942388 80.69675)">0.0201</text>
     </g>
    </g>
    <g id="text_14">
     <!-- $g_K$ (S/cm²) -->
     <g transform="translate(196.14 92.12675)">
      <text>
       <tspan style="font: 8px 'Arial'" x="0 8.722012 10.944669 13.608731 18.944669 21.167325 25.167325 31.831387 34.49545" y="-0.171875">g (S/cm²)</tspan>
       <tspan style="font: 5.6px 'Arial'" x="4.588606" y="2.217625">K</tspan>
      </text>
     </g>
    </g>
   </g>
   <g id="matplotlib.axis_4">
    <g id="ytick_4">
     <g id="line2d_12">
      <g>
       <use xlink:href="#m89708c7254" x="165.1695" y="67.9705" style="stroke: #000000; stroke-width: 1.5"/>
      </g>
     </g>
     <g id="text_15">
      <text style="font: 8px 'Arial', sans-serif, serif; text-anchor: end" x="158.1695" y="70.833625" transform="rotate(-0 158.1695 70.833625)">0.0</text>
     </g>
    </g>
    <g id="ytick_5">
     <g id="line2d_13">
      <g>
       <use xlink:href="#m89708c7254" x="165.1695" y="47.300262" style="stroke: #000000; stroke-width: 1.5"/>
      </g>
     </g>
     <g id="text_16">
      <text style="font: 8px 'Arial', sans-serif, serif; text-anchor: end" x="158.1695" y="50.163387" transform="rotate(-0 158.1695 50.163387)">2.5</text>
     </g>
    </g>
    <g id="ytick_6">
     <g id="line2d_14">
      <g>
       <use xlink:href="#m89708c7254" x="165.1695" y="26.630024" style="stroke: #000000; stroke-width: 1.5"/>
      </g>
     </g>
     <g id="text_17">
      <text style="font: 8px 'Arial', sans-serif, serif; text-anchor: end" x="158.1695" y="29.493149" transform="rotate(-0 158.1695 29.493149)">5.0</text>
     </g>
    </g>
   </g>
   <g id="line2d_15">
    <path d="M 216.79538 67.9705 
L 216.79538 7.2 
" clip-path="url(#pd3ac52bb2a)" style="fill: none; stroke-dasharray: 5.55,2.4; stroke-dashoffset: 0; stroke: #000000; stroke-width: 1.5"/>
   </g>
   <g id="patch_88">
    <path d="M 165.1695 67.9705 
L 165.1695 7.2 
" style="fill: none; stroke: #000000; stroke-width: 1.5; stroke-linejoin: miter; stroke-linecap: square"/>
   </g>
   <g id="patch_89">
    <path d="M 165.1695 67.9705 
L 264.3105 67.9705 
" style="fill: none; stroke: #000000; stroke-width: 1.5; stroke-linejoin: miter; stroke-linecap: square"/>
   </g>
   <g id="legend_2">
    <g id="patch_90">
     <path d="M 172.3695 20.12625 
L 188.3695 20.12625 
L 188.3695 14.52625 
L 172.3695 14.52625 
z
" style="fill: #1f77b4; opacity: 0.6"/>
    </g>
    <g id="text_18">
     <text style="font: 8px 'Arial', sans-serif, serif; text-anchor: start" x="194.7695" y="20.12625" transform="rotate(-0 194.7695 20.12625)">MSE</text>
    </g>
    <g id="patch_91">
     <path d="M 172.3695 31.4425 
L 188.3695 31.4425 
L 188.3695 25.8425 
L 172.3695 25.8425 
z
" style="fill: #ff0000; opacity: 0.6"/>
    </g>
    <g id="text_19">
     <text style="font: 8px 'Arial', sans-serif, serif; text-anchor: start" x="194.7695" y="31.4425" transform="rotate(-0 194.7695 31.4425)">EKF</text>
    </g>
    <g id="line2d_16">
     <path d="M 172.3695 39.95875 
L 180.3695 39.95875 
L 188.3695 39.95875 
" style="fill: none; stroke-dasharray: 5.55,2.4; stroke-dashoffset: 0; stroke: #000000; stroke-width: 1.5"/>
    </g>
    <g id="text_20">
     <text style="font: 8px 'Arial', sans-serif, serif; text-anchor: start" x="194.7695" y="42.75875" transform="rotate(-0 194.7695 42.75875)">true value</text>
    </g>
   </g>
  </g>
  <g id="axes_3">
   <g id="patch_92">
    <path d="M 293.608999 67.9705 
L 392.75 67.9705 
L 392.75 7.2 
L 293.608999 7.2 
z
" style="fill: #ffffff"/>
   </g>
   <g id="patch_93">
    <path d="M 298.115408 67.9705 
L 301.479485 67.9705 
L 301.479485 56.395167 
L 298.115408 56.395167 
z
" clip-path="url(#pc9ed96d6f5)" style="fill: #1f77b4; opacity: 0.6"/>
   </g>
   <g id="patch_94">
    <path d="M 301.479485 67.9705 
L 304.843562 67.9705 
L 304.843562 67.9705 
L 301.479485 67.9705 
z
" clip-path="url(#pc9ed96d6f5)" style="fill: #1f77b4; opacity: 0.6"/>
   </g>
   <g id="patch_95">
    <path d="M 304.843562 67.9705 
L 308.207638 67.9705 
L 308.207638 56.395167 
L 304.843562 56.395167 
z
" clip-path="url(#pc9ed96d6f5)" style="fill: #1f77b4; opacity: 0.6"/>
   </g>
   <g id="patch_96">
    <path d="M 308.207638 67.9705 
L 311.571715 67.9705 
L 311.571715 56.395167 
L 308.207638 56.395167 
z
" clip-path="url(#pc9ed96d6f5)" style="fill: #1f77b4; opacity: 0.6"/>
   </g>
   <g id="patch_97">
    <path d="M 311.571715 67.9705 
L 314.935791 67.9705 
L 314.935791 33.2445 
L 311.571715 33.2445 
z
" clip-path="url(#pc9ed96d6f5)" style="fill: #1f77b4; opacity: 0.6"/>
   </g>
   <g id="patch_98">
    <path d="M 314.935791 67.9705 
L 318.299868 67.9705 
L 318.299868 44.819833 
L 314.935791 44.819833 
z
" clip-path="url(#pc9ed96d6f5)" style="fill: #1f77b4; opacity: 0.6"/>
   </g>
   <g id="patch_99">
    <path d="M 318.299868 67.9705 
L 321.663944 67.9705 
L 321.663944 67.9705 
L 318.299868 67.9705 
z
" clip-path="url(#pc9ed96d6f5)" style="fill: #1f77b4; opacity: 0.6"/>
   </g>
   <g id="patch_100">
    <path d="M 321.663944 67.9705 
L 325.028021 67.9705 
L 325.028021 56.395167 
L 321.663944 56.395167 
z
" clip-path="url(#pc9ed96d6f5)" style="fill: #1f77b4; opacity: 0.6"/>
   </g>
   <g id="patch_101">
    <path d="M 325.028021 67.9705 
L 328.392098 67.9705 
L 328.392098 56.395167 
L 325.028021 56.395167 
z
" clip-path="url(#pc9ed96d6f5)" style="fill: #1f77b4; opacity: 0.6"/>
   </g>
   <g id="patch_102">
    <path d="M 328.392098 67.9705 
L 331.756174 67.9705 
L 331.756174 33.2445 
L 328.392098 33.2445 
z
" clip-path="url(#pc9ed96d6f5)" style="fill: #1f77b4; opacity: 0.6"/>
   </g>
   <g id="patch_103">
    <path d="M 331.756174 67.9705 
L 335.120251 67.9705 
L 335.120251 67.9705 
L 331.756174 67.9705 
z
" clip-path="url(#pc9ed96d6f5)" style="fill: #1f77b4; opacity: 0.6"/>
   </g>
   <g id="patch_104">
    <path d="M 335.120251 67.9705 
L 338.484327 67.9705 
L 338.484327 44.819833 
L 335.120251 44.819833 
z
" clip-path="url(#pc9ed96d6f5)" style="fill: #1f77b4; opacity: 0.6"/>
   </g>
   <g id="patch_105">
    <path d="M 338.484327 67.9705 
L 341.848404 67.9705 
L 341.848404 21.669167 
L 338.484327 21.669167 
z
" clip-path="url(#pc9ed96d6f5)" style="fill: #1f77b4; opacity: 0.6"/>
   </g>
   <g id="patch_106">
    <path d="M 341.848404 67.9705 
L 345.21248 67.9705 
L 345.21248 10.093833 
L 341.848404 10.093833 
z
" clip-path="url(#pc9ed96d6f5)" style="fill: #1f77b4; opacity: 0.6"/>
   </g>
   <g id="patch_107">
    <path d="M 345.21248 67.9705 
L 348.576557 67.9705 
L 348.576557 33.2445 
L 345.21248 33.2445 
z
" clip-path="url(#pc9ed96d6f5)" style="fill: #1f77b4; opacity: 0.6"/>
   </g>
   <g id="patch_108">
    <path d="M 348.576557 67.9705 
L 351.940634 67.9705 
L 351.940634 33.2445 
L 348.576557 33.2445 
z
" clip-path="url(#pc9ed96d6f5)" style="fill: #1f77b4; opacity: 0.6"/>
   </g>
   <g id="patch_109">
    <path d="M 351.940634 67.9705 
L 355.30471 67.9705 
L 355.30471 33.2445 
L 351.940634 33.2445 
z
" clip-path="url(#pc9ed96d6f5)" style="fill: #1f77b4; opacity: 0.6"/>
   </g>
   <g id="patch_110">
    <path d="M 355.30471 67.9705 
L 358.668787 67.9705 
L 358.668787 33.2445 
L 355.30471 33.2445 
z
" clip-path="url(#pc9ed96d6f5)" style="fill: #1f77b4; opacity: 0.6"/>
   </g>
   <g id="patch_111">
    <path d="M 358.668787 67.9705 
L 362.032863 67.9705 
L 362.032863 56.395167 
L 358.668787 56.395167 
z
" clip-path="url(#pc9ed96d6f5)" style="fill: #1f77b4; opacity: 0.6"/>
   </g>
   <g id="patch_112">
    <path d="M 362.032863 67.9705 
L 365.39694 67.9705 
L 365.39694 44.819833 
L 362.032863 44.819833 
z
" clip-path="url(#pc9ed96d6f5)" style="fill: #1f77b4; opacity: 0.6"/>
   </g>
   <g id="patch_113">
    <path d="M 365.39694 67.9705 
L 368.761016 67.9705 
L 368.761016 67.9705 
L 365.39694 67.9705 
z
" clip-path="url(#pc9ed96d6f5)" style="fill: #1f77b4; opacity: 0.6"/>
   </g>
   <g id="patch_114">
    <path d="M 368.761016 67.9705 
L 372.125093 67.9705 
L 372.125093 67.9705 
L 368.761016 67.9705 
z
" clip-path="url(#pc9ed96d6f5)" style="fill: #1f77b4; opacity: 0.6"/>
   </g>
   <g id="patch_115">
    <path d="M 372.125093 67.9705 
L 375.48917 67.9705 
L 375.48917 67.9705 
L 372.125093 67.9705 
z
" clip-path="url(#pc9ed96d6f5)" style="fill: #1f77b4; opacity: 0.6"/>
   </g>
   <g id="patch_116">
    <path d="M 375.48917 67.9705 
L 378.853246 67.9705 
L 378.853246 67.9705 
L 375.48917 67.9705 
z
" clip-path="url(#pc9ed96d6f5)" style="fill: #1f77b4; opacity: 0.6"/>
   </g>
   <g id="patch_117">
    <path d="M 378.853246 67.9705 
L 382.217323 67.9705 
L 382.217323 56.395167 
L 378.853246 56.395167 
z
" clip-path="url(#pc9ed96d6f5)" style="fill: #1f77b4; opacity: 0.6"/>
   </g>
   <g id="patch_118">
    <path d="M 309.677792 67.9705 
L 312.820539 67.9705 
L 312.820539 44.819833 
L 309.677792 44.819833 
z
" clip-path="url(#pc9ed96d6f5)" style="fill: #ff0000; opacity: 0.6"/>
   </g>
   <g id="patch_119">
    <path d="M 312.820539 67.9705 
L 315.963286 67.9705 
L 315.963286 33.2445 
L 312.820539 33.2445 
z
" clip-path="url(#pc9ed96d6f5)" style="fill: #ff0000; opacity: 0.6"/>
   </g>
   <g id="patch_120">
    <path d="M 315.963286 67.9705 
L 319.105554 67.9705 
L 319.105554 67.9705 
L 315.963286 67.9705 
z
" clip-path="url(#pc9ed96d6f5)" style="fill: #ff0000; opacity: 0.6"/>
   </g>
   <g id="patch_121">
    <path d="M 319.105554 67.9705 
L 322.248301 67.9705 
L 322.248301 56.395167 
L 319.105554 56.395167 
z
" clip-path="url(#pc9ed96d6f5)" style="fill: #ff0000; opacity: 0.6"/>
   </g>
   <g id="patch_122">
    <path d="M 322.248301 67.9705 
L 325.391048 67.9705 
L 325.391048 56.395167 
L 322.248301 56.395167 
z
" clip-path="url(#pc9ed96d6f5)" style="fill: #ff0000; opacity: 0.6"/>
   </g>
   <g id="patch_123">
    <path d="M 325.391048 67.9705 
L 328.533794 67.9705 
L 328.533794 44.819833 
L 325.391048 44.819833 
z
" clip-path="url(#pc9ed96d6f5)" style="fill: #ff0000; opacity: 0.6"/>
   </g>
   <g id="patch_124">
    <path d="M 328.533794 67.9705 
L 331.676063 67.9705 
L 331.676063 56.395167 
L 328.533794 56.395167 
z
" clip-path="url(#pc9ed96d6f5)" style="fill: #ff0000; opacity: 0.6"/>
   </g>
   <g id="patch_125">
    <path d="M 331.676063 67.9705 
L 334.81881 67.9705 
L 334.81881 56.395167 
L 331.676063 56.395167 
z
" clip-path="url(#pc9ed96d6f5)" style="fill: #ff0000; opacity: 0.6"/>
   </g>
   <g id="patch_126">
    <path d="M 334.81881 67.9705 
L 337.961556 67.9705 
L 337.961556 67.9705 
L 334.81881 67.9705 
z
" clip-path="url(#pc9ed96d6f5)" style="fill: #ff0000; opacity: 0.6"/>
   </g>
   <g id="patch_127">
    <path d="M 337.961556 67.9705 
L 341.104303 67.9705 
L 341.104303 56.395167 
L 337.961556 56.395167 
z
" clip-path="url(#pc9ed96d6f5)" style="fill: #ff0000; opacity: 0.6"/>
   </g>
   <g id="patch_128">
    <path d="M 341.104303 67.9705 
L 344.246571 67.9705 
L 344.246571 56.395167 
L 341.104303 56.395167 
z
" clip-path="url(#pc9ed96d6f5)" style="fill: #ff0000; opacity: 0.6"/>
   </g>
   <g id="patch_129">
    <path d="M 344.246571 67.9705 
L 347.389318 67.9705 
L 347.389318 44.819833 
L 344.246571 44.819833 
z
" clip-path="url(#pc9ed96d6f5)" style="fill: #ff0000; opacity: 0.6"/>
   </g>
   <g id="patch_130">
    <path d="M 347.389318 67.9705 
L 350.532065 67.9705 
L 350.532065 56.395167 
L 347.389318 56.395167 
z
" clip-path="url(#pc9ed96d6f5)" style="fill: #ff0000; opacity: 0.6"/>
   </g>
   <g id="patch_131">
    <path d="M 350.532065 67.9705 
L 353.674812 67.9705 
L 353.674812 44.819833 
L 350.532065 44.819833 
z
" clip-path="url(#pc9ed96d6f5)" style="fill: #ff0000; opacity: 0.6"/>
   </g>
   <g id="patch_132">
    <path d="M 353.674812 67.9705 
L 356.81708 67.9705 
L 356.81708 10.093833 
L 353.674812 10.093833 
z
" clip-path="url(#pc9ed96d6f5)" style="fill: #ff0000; opacity: 0.6"/>
   </g>
   <g id="patch_133">
    <path d="M 356.81708 67.9705 
L 359.959827 67.9705 
L 359.959827 21.669167 
L 356.81708 21.669167 
z
" clip-path="url(#pc9ed96d6f5)" style="fill: #ff0000; opacity: 0.6"/>
   </g>
   <g id="patch_134">
    <path d="M 359.959827 67.9705 
L 363.102574 67.9705 
L 363.102574 10.093833 
L 359.959827 10.093833 
z
" clip-path="url(#pc9ed96d6f5)" style="fill: #ff0000; opacity: 0.6"/>
   </g>
   <g id="patch_135">
    <path d="M 363.102574 67.9705 
L 366.24532 67.9705 
L 366.24532 44.819833 
L 363.102574 44.819833 
z
" clip-path="url(#pc9ed96d6f5)" style="fill: #ff0000; opacity: 0.6"/>
   </g>
   <g id="patch_136">
    <path d="M 366.24532 67.9705 
L 369.387589 67.9705 
L 369.387589 67.9705 
L 366.24532 67.9705 
z
" clip-path="url(#pc9ed96d6f5)" style="fill: #ff0000; opacity: 0.6"/>
   </g>
   <g id="patch_137">
    <path d="M 369.387589 67.9705 
L 372.530335 67.9705 
L 372.530335 44.819833 
L 369.387589 44.819833 
z
" clip-path="url(#pc9ed96d6f5)" style="fill: #ff0000; opacity: 0.6"/>
   </g>
   <g id="patch_138">
    <path d="M 372.530335 67.9705 
L 375.673082 67.9705 
L 375.673082 44.819833 
L 372.530335 44.819833 
z
" clip-path="url(#pc9ed96d6f5)" style="fill: #ff0000; opacity: 0.6"/>
   </g>
   <g id="patch_139">
    <path d="M 375.673082 67.9705 
L 378.815829 67.9705 
L 378.815829 67.9705 
L 375.673082 67.9705 
z
" clip-path="url(#pc9ed96d6f5)" style="fill: #ff0000; opacity: 0.6"/>
   </g>
   <g id="patch_140">
    <path d="M 378.815829 67.9705 
L 381.958097 67.9705 
L 381.958097 56.395167 
L 378.815829 56.395167 
z
" clip-path="url(#pc9ed96d6f5)" style="fill: #ff0000; opacity: 0.6"/>
   </g>
   <g id="patch_141">
    <path d="M 381.958097 67.9705 
L 385.100844 67.9705 
L 385.100844 67.9705 
L 381.958097 67.9705 
z
" clip-path="url(#pc9ed96d6f5)" style="fill: #ff0000; opacity: 0.6"/>
   </g>
   <g id="patch_142">
    <path d="M 385.100844 67.9705 
L 388.243591 67.9705 
L 388.243591 56.395167 
L 385.100844 56.395167 
z
" clip-path="url(#pc9ed96d6f5)" style="fill: #ff0000; opacity: 0.6"/>
   </g>
   <g id="matplotlib.axis_5">
    <g id="xtick_7">
     <g id="line2d_17">
      <g>
       <use xlink:href="#m7e1bc3d419" x="312.389785" y="67.9705" style="stroke: #000000; stroke-width: 1.5"/>
      </g>
     </g>
     <g id="text_21">
      <text style="font: 8px 'Arial', sans-serif, serif; text-anchor: middle" x="312.389785" y="80.69675" transform="rotate(-0 312.389785 80.69675)">0.1195</text>
     </g>
    </g>
    <g id="xtick_8">
     <g id="line2d_18">
      <g>
       <use xlink:href="#m7e1bc3d419" x="344.49118" y="67.9705" style="stroke: #000000; stroke-width: 1.5"/>
      </g>
     </g>
     <g id="text_22">
      <text style="font: 8px 'Arial', sans-serif, serif; text-anchor: middle" x="344.49118" y="80.69675" transform="rotate(-0 344.49118 80.69675)">0.1200</text>
     </g>
    </g>
    <g id="xtick_9">
     <g id="line2d_19">
      <g>
       <use xlink:href="#m7e1bc3d419" x="376.592574" y="67.9705" style="stroke: #000000; stroke-width: 1.5"/>
      </g>
     </g>
     <g id="text_23">
      <text style="font: 8px 'Arial', sans-serif, serif; text-anchor: middle" x="376.592574" y="80.69675" transform="rotate(-0 376.592574 80.69675)">0.1205</text>
     </g>
    </g>
    <g id="text_24">
     <!-- $g_{Na}$ (S/cm²) -->
     <g transform="translate(322.8595 92.12675)">
      <text>
       <tspan style="font: 8px 'Arial'" x="0 12.14545 14.368106 17.032169 22.368106 24.590763 28.590763 35.254825 37.918887" y="-0.171875">g (S/cm²)</tspan>
       <tspan style="font: 5.6px 'Arial'" x="4.588606 8.632747" y="2.217625">Na</tspan>
      </text>
     </g>
    </g>
   </g>
   <g id="matplotlib.axis_6">
    <g id="ytick_7">
     <g id="line2d_20">
      <g>
       <use xlink:href="#m89708c7254" x="293.608999" y="67.9705" style="stroke: #000000; stroke-width: 1.5"/>
      </g>
     </g>
     <g id="text_25">
      <text style="font: 8px 'Arial', sans-serif, serif; text-anchor: end" x="286.608999" y="70.833625" transform="rotate(-0 286.608999 70.833625)">0</text>
     </g>
    </g>
    <g id="ytick_8">
     <g id="line2d_21">
      <g>
       <use xlink:href="#m89708c7254" x="293.608999" y="44.819833" style="stroke: #000000; stroke-width: 1.5"/>
      </g>
     </g>
     <g id="text_26">
      <text style="font: 8px 'Arial', sans-serif, serif; text-anchor: end" x="286.608999" y="47.682958" transform="rotate(-0 286.608999 47.682958)">2</text>
     </g>
    </g>
    <g id="ytick_9">
     <g id="line2d_22">
      <g>
       <use xlink:href="#m89708c7254" x="293.608999" y="21.669167" style="stroke: #000000; stroke-width: 1.5"/>
      </g>
     </g>
     <g id="text_27">
      <text style="font: 8px 'Arial', sans-serif, serif; text-anchor: end" x="286.608999" y="24.532292" transform="rotate(-0 286.608999 24.532292)">4</text>
     </g>
    </g>
   </g>
   <g id="line2d_23">
    <path d="M 344.49118 67.9705 
L 344.49118 7.2 
" clip-path="url(#pc9ed96d6f5)" style="fill: none; stroke-dasharray: 5.55,2.4; stroke-dashoffset: 0; stroke: #000000; stroke-width: 1.5"/>
   </g>
   <g id="patch_143">
    <path d="M 293.608999 67.9705 
L 293.608999 7.2 
" style="fill: none; stroke: #000000; stroke-width: 1.5; stroke-linejoin: miter; stroke-linecap: square"/>
   </g>
   <g id="patch_144">
    <path d="M 293.608999 67.9705 
L 392.75 67.9705 
" style="fill: none; stroke: #000000; stroke-width: 1.5; stroke-linejoin: miter; stroke-linecap: square"/>
   </g>
   <g id="legend_3">
    <g id="patch_145">
     <path d="M 328.02 20.12625 
L 344.02 20.12625 
L 344.02 14.52625 
L 328.02 14.52625 
z
" style="fill: #1f77b4; opacity: 0.6"/>
    </g>
    <g id="text_28">
     <text style="font: 8px 'Arial', sans-serif, serif; text-anchor: start" x="350.42" y="20.12625" transform="rotate(-0 350.42 20.12625)">MSE</text>
    </g>
    <g id="patch_146">
     <path d="M 328.02 31.4425 
L 344.02 31.4425 
L 344.02 25.8425 
L 328.02 25.8425 
z
" style="fill: #ff0000; opacity: 0.6"/>
    </g>
    <g id="text_29">
     <text style="font: 8px 'Arial', sans-serif, serif; text-anchor: start" x="350.42" y="31.4425" transform="rotate(-0 350.42 31.4425)">EKF</text>
    </g>
    <g id="line2d_24">
     <path d="M 328.02 39.95875 
L 336.02 39.95875 
L 344.02 39.95875 
" style="fill: none; stroke-dasharray: 5.55,2.4; stroke-dashoffset: 0; stroke: #000000; stroke-width: 1.5"/>
    </g>
    <g id="text_30">
     <text style="font: 8px 'Arial', sans-serif, serif; text-anchor: start" x="350.42" y="42.75875" transform="rotate(-0 350.42 42.75875)">true value</text>
    </g>
   </g>
  </g>
 </g>
 <defs>
  <clipPath id="p590721e194">
   <rect x="36.73" y="7.2" width="99.141001" height="60.7705"/>
  </clipPath>
  <clipPath id="pd3ac52bb2a">
   <rect x="165.1695" y="7.2" width="99.141001" height="60.7705"/>
  </clipPath>
  <clipPath id="pc9ed96d6f5">
   <rect x="293.608999" y="7.2" width="99.141001" height="60.7705"/>
  </clipPath>
 </defs>
</svg>
