<?xml version="1.0" encoding="utf-8" standalone="no"?>
<!DOCTYPE svg PUBLIC "-//W3C//DTD SVG 1.1//EN"
  "http://www.w3.org/Graphics/SVG/1.1/DTD/svg11.dtd">
<svg xmlns:xlink="http://www.w3.org/1999/xlink" width="116.10175pt" height="117.8325pt" viewBox="0 0 116.10175 117.8325" xmlns="http://www.w3.org/2000/svg" version="1.1">
 <metadata>
  <rdf:RDF xmlns:dc="http://purl.org/dc/elements/1.1/" xmlns:cc="http://creativecommons.org/ns#" xmlns:rdf="http://www.w3.org/1999/02/22-rdf-syntax-ns#">
   <cc:Work>
    <dc:type rdf:resource="http://purl.org/dc/dcmitype/StillImage"/>
    <dc:date>2025-10-25T22:04:18.331397</dc:date>
    <dc:format>image/svg+xml</dc:format>
    <dc:creator>
     <cc:Agent>
      <dc:title>Matplotlib v3.9.2, https://matplotlib.org/</dc:title>
     </cc:Agent>
    </dc:creator>
   </cc:Work>
  </rdf:RDF>
 </metadata>
 <defs>
  <style type="text/css">*{stroke-linejoin: round; stroke-linecap: butt}</style>
 </defs>
 <g id="figure_1">
  <g id="patch_1">
   <path d="M 0 117.8325 
L 116.10175 117.8325 
L 116.10175 0 
L 0 0 
z
" style="fill: #ffffff"/>
  </g>
  <g id="axes_1">
   <g id="patch_2">
    <path d="M 19.433125 22.173333 
L 96.668625 22.173333 
L 96.668625 7.2 
L 19.433125 7.2 
z
" style="fill: #ffffff"/>
   </g>
   <g id="patch_3">
    <path d="M 51.892258 22.173333 
L 52.195573 22.173333 
L 52.195573 20.136145 
L 51.892258 20.136145 
z
" clip-path="url(#p2493abca8b)" style="fill: #1f77b4; opacity: 0.65; stroke: #1f77b4; stroke-linejoin: miter"/>
   </g>
   <g id="patch_4">
    <path d="M 52.195573 22.173333 
L 52.498889 22.173333 
L 52.498889 22.173333 
L 52.195573 22.173333 
z
" clip-path="url(#p2493abca8b)" style="fill: #1f77b4; opacity: 0.65; stroke: #1f77b4; stroke-linejoin: miter"/>
   </g>
   <g id="patch_5">
    <path d="M 52.498889 22.173333 
L 52.802204 22.173333 
L 52.802204 22.173333 
L 52.498889 22.173333 
z
" clip-path="url(#p2493abca8b)" style="fill: #1f77b4; opacity: 0.65; stroke: #1f77b4; stroke-linejoin: miter"/>
   </g>
   <g id="patch_6">
    <path d="M 52.802204 22.173333 
L 53.10552 22.173333 
L 53.10552 18.098957 
L 52.802204 18.098957 
z
" clip-path="url(#p2493abca8b)" style="fill: #1f77b4; opacity: 0.65; stroke: #1f77b4; stroke-linejoin: miter"/>
   </g>
   <g id="patch_7">
    <path d="M 53.10552 22.173333 
L 53.408835 22.173333 
L 53.408835 22.173333 
L 53.10552 22.173333 
z
" clip-path="url(#p2493abca8b)" style="fill: #1f77b4; opacity: 0.65; stroke: #1f77b4; stroke-linejoin: miter"/>
   </g>
   <g id="patch_8">
    <path d="M 53.408835 22.173333 
L 53.712151 22.173333 
L 53.712151 20.136145 
L 53.408835 20.136145 
z
" clip-path="url(#p2493abca8b)" style="fill: #1f77b4; opacity: 0.65; stroke: #1f77b4; stroke-linejoin: miter"/>
   </g>
   <g id="patch_9">
    <path d="M 53.712151 22.173333 
L 54.015466 22.173333 
L 54.015466 22.173333 
L 53.712151 22.173333 
z
" clip-path="url(#p2493abca8b)" style="fill: #1f77b4; opacity: 0.65; stroke: #1f77b4; stroke-linejoin: miter"/>
   </g>
   <g id="patch_10">
    <path d="M 54.015466 22.173333 
L 54.318781 22.173333 
L 54.318781 20.136145 
L 54.015466 20.136145 
z
" clip-path="url(#p2493abca8b)" style="fill: #1f77b4; opacity: 0.65; stroke: #1f77b4; stroke-linejoin: miter"/>
   </g>
   <g id="patch_11">
    <path d="M 54.318781 22.173333 
L 54.622097 22.173333 
L 54.622097 20.136145 
L 54.318781 20.136145 
z
" clip-path="url(#p2493abca8b)" style="fill: #1f77b4; opacity: 0.65; stroke: #1f77b4; stroke-linejoin: miter"/>
   </g>
   <g id="patch_12">
    <path d="M 54.622097 22.173333 
L 54.925412 22.173333 
L 54.925412 20.136145 
L 54.622097 20.136145 
z
" clip-path="url(#p2493abca8b)" style="fill: #1f77b4; opacity: 0.65; stroke: #1f77b4; stroke-linejoin: miter"/>
   </g>
   <g id="patch_13">
    <path d="M 54.925412 22.173333 
L 55.228728 22.173333 
L 55.228728 18.098957 
L 54.925412 18.098957 
z
" clip-path="url(#p2493abca8b)" style="fill: #1f77b4; opacity: 0.65; stroke: #1f77b4; stroke-linejoin: miter"/>
   </g>
   <g id="patch_14">
    <path d="M 55.228728 22.173333 
L 55.532043 22.173333 
L 55.532043 11.987392 
L 55.228728 11.987392 
z
" clip-path="url(#p2493abca8b)" style="fill: #1f77b4; opacity: 0.65; stroke: #1f77b4; stroke-linejoin: miter"/>
   </g>
   <g id="patch_15">
    <path d="M 55.532043 22.173333 
L 55.835359 22.173333 
L 55.835359 20.136145 
L 55.532043 20.136145 
z
" clip-path="url(#p2493abca8b)" style="fill: #1f77b4; opacity: 0.65; stroke: #1f77b4; stroke-linejoin: miter"/>
   </g>
   <g id="patch_16">
    <path d="M 55.835359 22.173333 
L 56.138674 22.173333 
L 56.138674 11.987392 
L 55.835359 11.987392 
z
" clip-path="url(#p2493abca8b)" style="fill: #1f77b4; opacity: 0.65; stroke: #1f77b4; stroke-linejoin: miter"/>
   </g>
   <g id="patch_17">
    <path d="M 56.138674 22.173333 
L 56.44199 22.173333 
L 56.44199 9.950204 
L 56.138674 9.950204 
z
" clip-path="url(#p2493abca8b)" style="fill: #1f77b4; opacity: 0.65; stroke: #1f77b4; stroke-linejoin: miter"/>
   </g>
   <g id="patch_18">
    <path d="M 56.44199 22.173333 
L 56.745305 22.173333 
L 56.745305 18.098957 
L 56.44199 18.098957 
z
" clip-path="url(#p2493abca8b)" style="fill: #1f77b4; opacity: 0.65; stroke: #1f77b4; stroke-linejoin: miter"/>
   </g>
   <g id="patch_19">
    <path d="M 56.745305 22.173333 
L 57.04862 22.173333 
L 57.04862 16.061769 
L 56.745305 16.061769 
z
" clip-path="url(#p2493abca8b)" style="fill: #1f77b4; opacity: 0.65; stroke: #1f77b4; stroke-linejoin: miter"/>
   </g>
   <g id="patch_20">
    <path d="M 57.04862 22.173333 
L 57.351936 22.173333 
L 57.351936 11.987392 
L 57.04862 11.987392 
z
" clip-path="url(#p2493abca8b)" style="fill: #1f77b4; opacity: 0.65; stroke: #1f77b4; stroke-linejoin: miter"/>
   </g>
   <g id="patch_21">
    <path d="M 57.351936 22.173333 
L 57.655251 22.173333 
L 57.655251 20.136145 
L 57.351936 20.136145 
z
" clip-path="url(#p2493abca8b)" style="fill: #1f77b4; opacity: 0.65; stroke: #1f77b4; stroke-linejoin: miter"/>
   </g>
   <g id="patch_22">
    <path d="M 57.655251 22.173333 
L 57.958567 22.173333 
L 57.958567 16.061769 
L 57.655251 16.061769 
z
" clip-path="url(#p2493abca8b)" style="fill: #1f77b4; opacity: 0.65; stroke: #1f77b4; stroke-linejoin: miter"/>
   </g>
   <g id="patch_23">
    <path d="M 48.08364 22.173333 
L 48.328615 22.173333 
L 48.328615 20.136145 
L 48.08364 20.136145 
z
" clip-path="url(#p2493abca8b)" style="fill: #ff7f0e; opacity: 0.45; stroke: #ff7f0e; stroke-linejoin: miter"/>
   </g>
   <g id="patch_24">
    <path d="M 48.328615 22.173333 
L 48.573589 22.173333 
L 48.573589 22.173333 
L 48.328615 22.173333 
z
" clip-path="url(#p2493abca8b)" style="fill: #ff7f0e; opacity: 0.45; stroke: #ff7f0e; stroke-linejoin: miter"/>
   </g>
   <g id="patch_25">
    <path d="M 48.573589 22.173333 
L 48.818564 22.173333 
L 48.818564 20.136145 
L 48.573589 20.136145 
z
" clip-path="url(#p2493abca8b)" style="fill: #ff7f0e; opacity: 0.45; stroke: #ff7f0e; stroke-linejoin: miter"/>
   </g>
   <g id="patch_26">
    <path d="M 48.818564 22.173333 
L 49.063539 22.173333 
L 49.063539 14.02458 
L 48.818564 14.02458 
z
" clip-path="url(#p2493abca8b)" style="fill: #ff7f0e; opacity: 0.45; stroke: #ff7f0e; stroke-linejoin: miter"/>
   </g>
   <g id="patch_27">
    <path d="M 49.063539 22.173333 
L 49.308514 22.173333 
L 49.308514 7.913016 
L 49.063539 7.913016 
z
" clip-path="url(#p2493abca8b)" style="fill: #ff7f0e; opacity: 0.45; stroke: #ff7f0e; stroke-linejoin: miter"/>
   </g>
   <g id="patch_28">
    <path d="M 49.308514 22.173333 
L 49.553489 22.173333 
L 49.553489 22.173333 
L 49.308514 22.173333 
z
" clip-path="url(#p2493abca8b)" style="fill: #ff7f0e; opacity: 0.45; stroke: #ff7f0e; stroke-linejoin: miter"/>
   </g>
   <g id="patch_29">
    <path d="M 49.553489 22.173333 
L 49.798463 22.173333 
L 49.798463 16.061769 
L 49.553489 16.061769 
z
" clip-path="url(#p2493abca8b)" style="fill: #ff7f0e; opacity: 0.45; stroke: #ff7f0e; stroke-linejoin: miter"/>
   </g>
   <g id="patch_30">
    <path d="M 49.798463 22.173333 
L 50.043438 22.173333 
L 50.043438 18.098957 
L 49.798463 18.098957 
z
" clip-path="url(#p2493abca8b)" style="fill: #ff7f0e; opacity: 0.45; stroke: #ff7f0e; stroke-linejoin: miter"/>
   </g>
   <g id="patch_31">
    <path d="M 50.043438 22.173333 
L 50.288413 22.173333 
L 50.288413 14.02458 
L 50.043438 14.02458 
z
" clip-path="url(#p2493abca8b)" style="fill: #ff7f0e; opacity: 0.45; stroke: #ff7f0e; stroke-linejoin: miter"/>
   </g>
   <g id="patch_32">
    <path d="M 50.288413 22.173333 
L 50.533388 22.173333 
L 50.533388 22.173333 
L 50.288413 22.173333 
z
" clip-path="url(#p2493abca8b)" style="fill: #ff7f0e; opacity: 0.45; stroke: #ff7f0e; stroke-linejoin: miter"/>
   </g>
   <g id="patch_33">
    <path d="M 50.533388 22.173333 
L 50.778362 22.173333 
L 50.778362 16.061769 
L 50.533388 16.061769 
z
" clip-path="url(#p2493abca8b)" style="fill: #ff7f0e; opacity: 0.45; stroke: #ff7f0e; stroke-linejoin: miter"/>
   </g>
   <g id="patch_34">
    <path d="M 50.778362 22.173333 
L 51.023337 22.173333 
L 51.023337 14.02458 
L 50.778362 14.02458 
z
" clip-path="url(#p2493abca8b)" style="fill: #ff7f0e; opacity: 0.45; stroke: #ff7f0e; stroke-linejoin: miter"/>
   </g>
   <g id="patch_35">
    <path d="M 51.023337 22.173333 
L 51.268312 22.173333 
L 51.268312 18.098957 
L 51.023337 18.098957 
z
" clip-path="url(#p2493abca8b)" style="fill: #ff7f0e; opacity: 0.45; stroke: #ff7f0e; stroke-linejoin: miter"/>
   </g>
   <g id="patch_36">
    <path d="M 51.268312 22.173333 
L 51.513287 22.173333 
L 51.513287 16.061769 
L 51.268312 16.061769 
z
" clip-path="url(#p2493abca8b)" style="fill: #ff7f0e; opacity: 0.45; stroke: #ff7f0e; stroke-linejoin: miter"/>
   </g>
   <g id="patch_37">
    <path d="M 51.513287 22.173333 
L 51.758262 22.173333 
L 51.758262 20.136145 
L 51.513287 20.136145 
z
" clip-path="url(#p2493abca8b)" style="fill: #ff7f0e; opacity: 0.45; stroke: #ff7f0e; stroke-linejoin: miter"/>
   </g>
   <g id="patch_38">
    <path d="M 51.758262 22.173333 
L 52.003236 22.173333 
L 52.003236 18.098957 
L 51.758262 18.098957 
z
" clip-path="url(#p2493abca8b)" style="fill: #ff7f0e; opacity: 0.45; stroke: #ff7f0e; stroke-linejoin: miter"/>
   </g>
   <g id="patch_39">
    <path d="M 52.003236 22.173333 
L 52.248211 22.173333 
L 52.248211 22.173333 
L 52.003236 22.173333 
z
" clip-path="url(#p2493abca8b)" style="fill: #ff7f0e; opacity: 0.45; stroke: #ff7f0e; stroke-linejoin: miter"/>
   </g>
   <g id="patch_40">
    <path d="M 52.248211 22.173333 
L 52.493186 22.173333 
L 52.493186 20.136145 
L 52.248211 20.136145 
z
" clip-path="url(#p2493abca8b)" style="fill: #ff7f0e; opacity: 0.45; stroke: #ff7f0e; stroke-linejoin: miter"/>
   </g>
   <g id="patch_41">
    <path d="M 52.493186 22.173333 
L 52.738161 22.173333 
L 52.738161 22.173333 
L 52.493186 22.173333 
z
" clip-path="url(#p2493abca8b)" style="fill: #ff7f0e; opacity: 0.45; stroke: #ff7f0e; stroke-linejoin: miter"/>
   </g>
   <g id="patch_42">
    <path d="M 52.738161 22.173333 
L 52.983135 22.173333 
L 52.983135 18.098957 
L 52.738161 18.098957 
z
" clip-path="url(#p2493abca8b)" style="fill: #ff7f0e; opacity: 0.45; stroke: #ff7f0e; stroke-linejoin: miter"/>
   </g>
   <g id="matplotlib.axis_1">
    <g id="xtick_1">
     <g id="line2d_1">
      <defs>
       <path id="m70f1c5f75a" d="M 0 0 
L 0 3.5 
" style="stroke: #000000; stroke-width: 1.5"/>
      </defs>
      <g>
       <use xlink:href="#m70f1c5f75a" x="19.433125" y="22.173333" style="stroke: #000000; stroke-width: 1.5"/>
      </g>
     </g>
     <g id="text_1">
      <text style="font: 8px 'Arial', sans-serif, serif; text-anchor: middle" x="19.433125" y="34.899583" transform="rotate(-0 19.433125 34.899583)">0.0002</text>
     </g>
    </g>
    <g id="xtick_2">
     <g id="line2d_2">
      <g>
       <use xlink:href="#m70f1c5f75a" x="58.050875" y="22.173333" style="stroke: #000000; stroke-width: 1.5"/>
      </g>
     </g>
     <g id="text_2">
      <text style="font: 8px 'Arial', sans-serif, serif; text-anchor: middle" x="58.050875" y="34.899583" transform="rotate(-0 58.050875 34.899583)">0.0003</text>
     </g>
    </g>
    <g id="xtick_3">
     <g id="line2d_3">
      <g>
       <use xlink:href="#m70f1c5f75a" x="96.668625" y="22.173333" style="stroke: #000000; stroke-width: 1.5"/>
      </g>
     </g>
     <g id="text_3">
      <text style="font: 8px 'Arial', sans-serif, serif; text-anchor: middle" x="96.668625" y="34.899583" transform="rotate(-0 96.668625 34.899583)">0.0004</text>
     </g>
    </g>
   </g>
   <g id="matplotlib.axis_2">
    <g id="text_4">
     <!-- $g_L$ -->
     <g transform="translate(13.033125 18.766667) rotate(-90)">
      <text>
       <tspan style="font: 8px 'Arial'" x="0" y="-0.75">g</tspan>
       <tspan style="font: 5.6px 'Arial'" x="4.588606" y="1.6395">L</tspan>
      </text>
     </g>
    </g>
   </g>
   <g id="line2d_4">
    <path clip-path="url(#p2493abca8b)" style="fill: none; stroke-dasharray: 3.7,1.6; stroke-dashoffset: 0; stroke: #000000"/>
   </g>
   <g id="patch_43">
    <path d="M 19.433125 22.173333 
L 96.668625 22.173333 
" style="fill: none; stroke: #000000; stroke-width: 1.5; stroke-linejoin: miter; stroke-linecap: square"/>
   </g>
   <g id="legend_1">
    <g id="patch_44">
     <path d="M 43.921437 18.510469 
L 57.921437 18.510469 
L 57.921437 13.610469 
L 43.921437 13.610469 
z
" style="fill: #1f77b4; opacity: 0.65; stroke: #1f77b4; stroke-linejoin: miter"/>
    </g>
    <g id="text_5">
     <text style="font: 7px 'Arial', sans-serif, serif; text-anchor: start" x="63.521437" y="18.510469" transform="rotate(-0 63.521437 18.510469)">EKF</text>
    </g>
    <g id="patch_45">
     <path d="M 43.921437 28.412188 
L 57.921437 28.412188 
L 57.921437 23.512188 
L 43.921437 23.512188 
z
" style="fill: #ff7f0e; opacity: 0.45; stroke: #ff7f0e; stroke-linejoin: miter"/>
    </g>
    <g id="text_6">
     <text style="font: 7px 'Arial', sans-serif, serif; text-anchor: start" x="63.521437" y="28.412188" transform="rotate(-0 63.521437 28.412188)">diagEKF</text>
    </g>
    <g id="line2d_5">
     <path d="M 43.921437 35.945937 
L 50.921437 35.945937 
L 57.921437 35.945937 
" style="fill: none; stroke-dasharray: 3.7,1.6; stroke-dashoffset: 0; stroke: #000000"/>
    </g>
    <g id="text_7">
     <text style="font: 7px 'Arial', sans-serif, serif; text-anchor: start" x="63.521437" y="38.395938" transform="rotate(-0 63.521437 38.395938)">True</text>
    </g>
   </g>
  </g>
  <g id="axes_2">
   <g id="patch_46">
    <path d="M 19.433125 53.586667 
L 96.668625 53.586667 
L 96.668625 38.613333 
L 19.433125 38.613333 
z
" style="fill: #ffffff"/>
   </g>
   <g id="patch_47">
    <path d="M 48.841286 53.586667 
L 48.954114 53.586667 
L 48.954114 52.873651 
L 48.841286 52.873651 
z
" clip-path="url(#p7f3fdaf4d9)" style="fill: #1f77b4; opacity: 0.65; stroke: #1f77b4; stroke-linejoin: miter"/>
   </g>
   <g id="patch_48">
    <path d="M 48.954114 53.586667 
L 49.066943 53.586667 
L 49.066943 52.160635 
L 48.954114 52.160635 
z
" clip-path="url(#p7f3fdaf4d9)" style="fill: #1f77b4; opacity: 0.65; stroke: #1f77b4; stroke-linejoin: miter"/>
   </g>
   <g id="patch_49">
    <path d="M 49.066943 53.586667 
L 49.179771 53.586667 
L 49.179771 53.586667 
L 49.066943 53.586667 
z
" clip-path="url(#p7f3fdaf4d9)" style="fill: #1f77b4; opacity: 0.65; stroke: #1f77b4; stroke-linejoin: miter"/>
   </g>
   <g id="patch_50">
    <path d="M 49.179771 53.586667 
L 49.2926 53.586667 
L 49.2926 53.586667 
L 49.179771 53.586667 
z
" clip-path="url(#p7f3fdaf4d9)" style="fill: #1f77b4; opacity: 0.65; stroke: #1f77b4; stroke-linejoin: miter"/>
   </g>
   <g id="patch_51">
    <path d="M 49.2926 53.586667 
L 49.405428 53.586667 
L 49.405428 52.873651 
L 49.2926 52.873651 
z
" clip-path="url(#p7f3fdaf4d9)" style="fill: #1f77b4; opacity: 0.65; stroke: #1f77b4; stroke-linejoin: miter"/>
   </g>
   <g id="patch_52">
    <path d="M 49.405428 53.586667 
L 49.518256 53.586667 
L 49.518256 53.586667 
L 49.405428 53.586667 
z
" clip-path="url(#p7f3fdaf4d9)" style="fill: #1f77b4; opacity: 0.65; stroke: #1f77b4; stroke-linejoin: miter"/>
   </g>
   <g id="patch_53">
    <path d="M 49.518256 53.586667 
L 49.631085 53.586667 
L 49.631085 53.586667 
L 49.518256 53.586667 
z
" clip-path="url(#p7f3fdaf4d9)" style="fill: #1f77b4; opacity: 0.65; stroke: #1f77b4; stroke-linejoin: miter"/>
   </g>
   <g id="patch_54">
    <path d="M 49.631085 53.586667 
L 49.743913 53.586667 
L 49.743913 52.160635 
L 49.631085 52.160635 
z
" clip-path="url(#p7f3fdaf4d9)" style="fill: #1f77b4; opacity: 0.65; stroke: #1f77b4; stroke-linejoin: miter"/>
   </g>
   <g id="patch_55">
    <path d="M 49.743913 53.586667 
L 49.856741 53.586667 
L 49.856741 53.586667 
L 49.743913 53.586667 
z
" clip-path="url(#p7f3fdaf4d9)" style="fill: #1f77b4; opacity: 0.65; stroke: #1f77b4; stroke-linejoin: miter"/>
   </g>
   <g id="patch_56">
    <path d="M 49.856741 53.586667 
L 49.96957 53.586667 
L 49.96957 52.160635 
L 49.856741 52.160635 
z
" clip-path="url(#p7f3fdaf4d9)" style="fill: #1f77b4; opacity: 0.65; stroke: #1f77b4; stroke-linejoin: miter"/>
   </g>
   <g id="patch_57">
    <path d="M 49.96957 53.586667 
L 50.082398 53.586667 
L 50.082398 52.160635 
L 49.96957 52.160635 
z
" clip-path="url(#p7f3fdaf4d9)" style="fill: #1f77b4; opacity: 0.65; stroke: #1f77b4; stroke-linejoin: miter"/>
   </g>
   <g id="patch_58">
    <path d="M 50.082398 53.586667 
L 50.195226 53.586667 
L 50.195226 39.326349 
L 50.082398 39.326349 
z
" clip-path="url(#p7f3fdaf4d9)" style="fill: #1f77b4; opacity: 0.65; stroke: #1f77b4; stroke-linejoin: miter"/>
   </g>
   <g id="patch_59">
    <path d="M 50.195226 53.586667 
L 50.308055 53.586667 
L 50.308055 51.447619 
L 50.195226 51.447619 
z
" clip-path="url(#p7f3fdaf4d9)" style="fill: #1f77b4; opacity: 0.65; stroke: #1f77b4; stroke-linejoin: miter"/>
   </g>
   <g id="patch_60">
    <path d="M 50.308055 53.586667 
L 50.420883 53.586667 
L 50.420883 52.873651 
L 50.308055 52.873651 
z
" clip-path="url(#p7f3fdaf4d9)" style="fill: #1f77b4; opacity: 0.65; stroke: #1f77b4; stroke-linejoin: miter"/>
   </g>
   <g id="patch_61">
    <path d="M 50.420883 53.586667 
L 50.533712 53.586667 
L 50.533712 52.873651 
L 50.420883 52.873651 
z
" clip-path="url(#p7f3fdaf4d9)" style="fill: #1f77b4; opacity: 0.65; stroke: #1f77b4; stroke-linejoin: miter"/>
   </g>
   <g id="patch_62">
    <path d="M 50.533712 53.586667 
L 50.64654 53.586667 
L 50.64654 53.586667 
L 50.533712 53.586667 
z
" clip-path="url(#p7f3fdaf4d9)" style="fill: #1f77b4; opacity: 0.65; stroke: #1f77b4; stroke-linejoin: miter"/>
   </g>
   <g id="patch_63">
    <path d="M 50.64654 53.586667 
L 50.759368 53.586667 
L 50.759368 52.160635 
L 50.64654 52.160635 
z
" clip-path="url(#p7f3fdaf4d9)" style="fill: #1f77b4; opacity: 0.65; stroke: #1f77b4; stroke-linejoin: miter"/>
   </g>
   <g id="patch_64">
    <path d="M 50.759368 53.586667 
L 50.872197 53.586667 
L 50.872197 53.586667 
L 50.759368 53.586667 
z
" clip-path="url(#p7f3fdaf4d9)" style="fill: #1f77b4; opacity: 0.65; stroke: #1f77b4; stroke-linejoin: miter"/>
   </g>
   <g id="patch_65">
    <path d="M 50.872197 53.586667 
L 50.985025 53.586667 
L 50.985025 52.160635 
L 50.872197 52.160635 
z
" clip-path="url(#p7f3fdaf4d9)" style="fill: #1f77b4; opacity: 0.65; stroke: #1f77b4; stroke-linejoin: miter"/>
   </g>
   <g id="patch_66">
    <path d="M 50.985025 53.586667 
L 51.097853 53.586667 
L 51.097853 52.873651 
L 50.985025 52.873651 
z
" clip-path="url(#p7f3fdaf4d9)" style="fill: #1f77b4; opacity: 0.65; stroke: #1f77b4; stroke-linejoin: miter"/>
   </g>
   <g id="patch_67">
    <path d="M 49.495893 53.586667 
L 49.567335 53.586667 
L 49.567335 51.447619 
L 49.495893 51.447619 
z
" clip-path="url(#p7f3fdaf4d9)" style="fill: #ff7f0e; opacity: 0.45; stroke: #ff7f0e; stroke-linejoin: miter"/>
   </g>
   <g id="patch_68">
    <path d="M 49.567335 53.586667 
L 49.638776 53.586667 
L 49.638776 52.873651 
L 49.567335 52.873651 
z
" clip-path="url(#p7f3fdaf4d9)" style="fill: #ff7f0e; opacity: 0.45; stroke: #ff7f0e; stroke-linejoin: miter"/>
   </g>
   <g id="patch_69">
    <path d="M 49.638776 53.586667 
L 49.710218 53.586667 
L 49.710218 53.586667 
L 49.638776 53.586667 
z
" clip-path="url(#p7f3fdaf4d9)" style="fill: #ff7f0e; opacity: 0.45; stroke: #ff7f0e; stroke-linejoin: miter"/>
   </g>
   <g id="patch_70">
    <path d="M 49.710218 53.586667 
L 49.781659 53.586667 
L 49.781659 52.160635 
L 49.710218 52.160635 
z
" clip-path="url(#p7f3fdaf4d9)" style="fill: #ff7f0e; opacity: 0.45; stroke: #ff7f0e; stroke-linejoin: miter"/>
   </g>
   <g id="patch_71">
    <path d="M 49.781659 53.586667 
L 49.853101 53.586667 
L 49.853101 52.873651 
L 49.781659 52.873651 
z
" clip-path="url(#p7f3fdaf4d9)" style="fill: #ff7f0e; opacity: 0.45; stroke: #ff7f0e; stroke-linejoin: miter"/>
   </g>
   <g id="patch_72">
    <path d="M 49.853101 53.586667 
L 49.924543 53.586667 
L 49.924543 50.734603 
L 49.853101 50.734603 
z
" clip-path="url(#p7f3fdaf4d9)" style="fill: #ff7f0e; opacity: 0.45; stroke: #ff7f0e; stroke-linejoin: miter"/>
   </g>
   <g id="patch_73">
    <path d="M 49.924543 53.586667 
L 49.995984 53.586667 
L 49.995984 51.447619 
L 49.924543 51.447619 
z
" clip-path="url(#p7f3fdaf4d9)" style="fill: #ff7f0e; opacity: 0.45; stroke: #ff7f0e; stroke-linejoin: miter"/>
   </g>
   <g id="patch_74">
    <path d="M 49.995984 53.586667 
L 50.067426 53.586667 
L 50.067426 51.447619 
L 49.995984 51.447619 
z
" clip-path="url(#p7f3fdaf4d9)" style="fill: #ff7f0e; opacity: 0.45; stroke: #ff7f0e; stroke-linejoin: miter"/>
   </g>
   <g id="patch_75">
    <path d="M 50.067426 53.586667 
L 50.138868 53.586667 
L 50.138868 52.873651 
L 50.067426 52.873651 
z
" clip-path="url(#p7f3fdaf4d9)" style="fill: #ff7f0e; opacity: 0.45; stroke: #ff7f0e; stroke-linejoin: miter"/>
   </g>
   <g id="patch_76">
    <path d="M 50.138868 53.586667 
L 50.210309 53.586667 
L 50.210309 52.160635 
L 50.138868 52.160635 
z
" clip-path="url(#p7f3fdaf4d9)" style="fill: #ff7f0e; opacity: 0.45; stroke: #ff7f0e; stroke-linejoin: miter"/>
   </g>
   <g id="patch_77">
    <path d="M 50.210309 53.586667 
L 50.281751 53.586667 
L 50.281751 52.873651 
L 50.210309 52.873651 
z
" clip-path="url(#p7f3fdaf4d9)" style="fill: #ff7f0e; opacity: 0.45; stroke: #ff7f0e; stroke-linejoin: miter"/>
   </g>
   <g id="patch_78">
    <path d="M 50.281751 53.586667 
L 50.353192 53.586667 
L 50.353192 50.021587 
L 50.281751 50.021587 
z
" clip-path="url(#p7f3fdaf4d9)" style="fill: #ff7f0e; opacity: 0.45; stroke: #ff7f0e; stroke-linejoin: miter"/>
   </g>
   <g id="patch_79">
    <path d="M 50.353192 53.586667 
L 50.424634 53.586667 
L 50.424634 52.873651 
L 50.353192 52.873651 
z
" clip-path="url(#p7f3fdaf4d9)" style="fill: #ff7f0e; opacity: 0.45; stroke: #ff7f0e; stroke-linejoin: miter"/>
   </g>
   <g id="patch_80">
    <path d="M 50.424634 53.586667 
L 50.496076 53.586667 
L 50.496076 52.873651 
L 50.424634 52.873651 
z
" clip-path="url(#p7f3fdaf4d9)" style="fill: #ff7f0e; opacity: 0.45; stroke: #ff7f0e; stroke-linejoin: miter"/>
   </g>
   <g id="patch_81">
    <path d="M 50.496076 53.586667 
L 50.567517 53.586667 
L 50.567517 52.873651 
L 50.496076 52.873651 
z
" clip-path="url(#p7f3fdaf4d9)" style="fill: #ff7f0e; opacity: 0.45; stroke: #ff7f0e; stroke-linejoin: miter"/>
   </g>
   <g id="patch_82">
    <path d="M 50.567517 53.586667 
L 50.638959 53.586667 
L 50.638959 52.160635 
L 50.567517 52.160635 
z
" clip-path="url(#p7f3fdaf4d9)" style="fill: #ff7f0e; opacity: 0.45; stroke: #ff7f0e; stroke-linejoin: miter"/>
   </g>
   <g id="patch_83">
    <path d="M 50.638959 53.586667 
L 50.710401 53.586667 
L 50.710401 50.734603 
L 50.638959 50.734603 
z
" clip-path="url(#p7f3fdaf4d9)" style="fill: #ff7f0e; opacity: 0.45; stroke: #ff7f0e; stroke-linejoin: miter"/>
   </g>
   <g id="patch_84">
    <path d="M 50.710401 53.586667 
L 50.781842 53.586667 
L 50.781842 52.160635 
L 50.710401 52.160635 
z
" clip-path="url(#p7f3fdaf4d9)" style="fill: #ff7f0e; opacity: 0.45; stroke: #ff7f0e; stroke-linejoin: miter"/>
   </g>
   <g id="patch_85">
    <path d="M 50.781842 53.586667 
L 50.853284 53.586667 
L 50.853284 52.160635 
L 50.781842 52.160635 
z
" clip-path="url(#p7f3fdaf4d9)" style="fill: #ff7f0e; opacity: 0.45; stroke: #ff7f0e; stroke-linejoin: miter"/>
   </g>
   <g id="patch_86">
    <path d="M 50.853284 53.586667 
L 50.924725 53.586667 
L 50.924725 52.873651 
L 50.853284 52.873651 
z
" clip-path="url(#p7f3fdaf4d9)" style="fill: #ff7f0e; opacity: 0.45; stroke: #ff7f0e; stroke-linejoin: miter"/>
   </g>
   <g id="matplotlib.axis_3">
    <g id="xtick_4">
     <g id="line2d_6">
      <g>
       <use xlink:href="#m70f1c5f75a" x="19.433125" y="53.586667" style="stroke: #000000; stroke-width: 1.5"/>
      </g>
     </g>
     <g id="text_8">
      <text style="font: 8px 'Arial', sans-serif, serif; text-anchor: middle" x="19.433125" y="66.312917" transform="rotate(-0 19.433125 66.312917)">0.007</text>
     </g>
    </g>
    <g id="xtick_5">
     <g id="line2d_7">
      <g>
       <use xlink:href="#m70f1c5f75a" x="21.773595" y="53.586667" style="stroke: #000000; stroke-width: 1.5"/>
      </g>
     </g>
     <g id="text_9">
      <text style="font: 8px 'Arial', sans-serif, serif; text-anchor: middle" x="21.773595" y="66.312917" transform="rotate(-0 21.773595 66.312917)">0.008</text>
     </g>
    </g>
    <g id="xtick_6">
     <g id="line2d_8">
      <g>
       <use xlink:href="#m70f1c5f75a" x="96.668625" y="53.586667" style="stroke: #000000; stroke-width: 1.5"/>
      </g>
     </g>
     <g id="text_10">
      <text style="font: 8px 'Arial', sans-serif, serif; text-anchor: middle" x="96.668625" y="66.312917" transform="rotate(-0 96.668625 66.312917)">0.040</text>
     </g>
    </g>
   </g>
   <g id="matplotlib.axis_4">
    <g id="text_11">
     <!-- $g_K$ -->
     <g transform="translate(13.033125 50.5) rotate(-90)">
      <text>
       <tspan style="font: 8px 'Arial'" x="0" y="-0.75">g</tspan>
       <tspan style="font: 5.6px 'Arial'" x="4.588606" y="1.6395">K</tspan>
      </text>
     </g>
    </g>
   </g>
   <g id="line2d_9">
    <path d="M 21.773595 53.586667 
L 21.773595 38.613333 
" clip-path="url(#p7f3fdaf4d9)" style="fill: none; stroke-dasharray: 3.7,1.6; stroke-dashoffset: 0; stroke: #000000"/>
   </g>
   <g id="patch_87">
    <path d="M 19.433125 53.586667 
L 96.668625 53.586667 
" style="fill: none; stroke: #000000; stroke-width: 1.5; stroke-linejoin: miter; stroke-linecap: square"/>
   </g>
   <g id="legend_2">
    <g id="patch_88">
     <path d="M 43.921437 49.923802 
L 57.921437 49.923802 
L 57.921437 45.023802 
L 43.921437 45.023802 
z
" style="fill: #1f77b4; opacity: 0.65; stroke: #1f77b4; stroke-linejoin: miter"/>
    </g>
    <g id="text_12">
     <text style="font: 7px 'Arial', sans-serif, serif; text-anchor: start" x="63.521437" y="49.923802" transform="rotate(-0 63.521437 49.923802)">EKF</text>
    </g>
    <g id="patch_89">
     <path d="M 43.921437 59.825521 
L 57.921437 59.825521 
L 57.921437 54.925521 
L 43.921437 54.925521 
z
" style="fill: #ff7f0e; opacity: 0.45; stroke: #ff7f0e; stroke-linejoin: miter"/>
    </g>
    <g id="text_13">
     <text style="font: 7px 'Arial', sans-serif, serif; text-anchor: start" x="63.521437" y="59.825521" transform="rotate(-0 63.521437 59.825521)">diagEKF</text>
    </g>
    <g id="line2d_10">
     <path d="M 43.921437 67.359271 
L 50.921437 67.359271 
L 57.921437 67.359271 
" style="fill: none; stroke-dasharray: 3.7,1.6; stroke-dashoffset: 0; stroke: #000000"/>
    </g>
    <g id="text_14">
     <text style="font: 7px 'Arial', sans-serif, serif; text-anchor: start" x="63.521437" y="69.809271" transform="rotate(-0 63.521437 69.809271)">True</text>
    </g>
   </g>
  </g>
  <g id="axes_3">
   <g id="patch_90">
    <path d="M 19.433125 85 
L 96.668625 85 
L 96.668625 70.026667 
L 19.433125 70.026667 
z
" style="fill: #ffffff"/>
   </g>
   <g id="patch_91">
    <path d="M 88.379322 85 
L 88.98809 85 
L 88.98809 84.161158 
L 88.379322 84.161158 
z
" clip-path="url(#p136e9e87f3)" style="fill: #1f77b4; opacity: 0.65; stroke: #1f77b4; stroke-linejoin: miter"/>
   </g>
   <g id="patch_92">
    <path d="M 88.98809 85 
L 89.596857 85 
L 89.596857 85 
L 88.98809 85 
z
" clip-path="url(#p136e9e87f3)" style="fill: #1f77b4; opacity: 0.65; stroke: #1f77b4; stroke-linejoin: miter"/>
   </g>
   <g id="patch_93">
    <path d="M 89.596857 85 
L 90.205624 85 
L 90.205624 85 
L 89.596857 85 
z
" clip-path="url(#p136e9e87f3)" style="fill: #1f77b4; opacity: 0.65; stroke: #1f77b4; stroke-linejoin: miter"/>
   </g>
   <g id="patch_94">
    <path d="M 90.205624 85 
L 90.814392 85 
L 90.814392 84.161158 
L 90.205624 84.161158 
z
" clip-path="url(#p136e9e87f3)" style="fill: #1f77b4; opacity: 0.65; stroke: #1f77b4; stroke-linejoin: miter"/>
   </g>
   <g id="patch_95">
    <path d="M 90.814392 85 
L 91.423159 85 
L 91.423159 85 
L 90.814392 85 
z
" clip-path="url(#p136e9e87f3)" style="fill: #1f77b4; opacity: 0.65; stroke: #1f77b4; stroke-linejoin: miter"/>
   </g>
   <g id="patch_96">
    <path d="M 91.423159 85 
L 92.031927 85 
L 92.031927 85 
L 91.423159 85 
z
" clip-path="url(#p136e9e87f3)" style="fill: #1f77b4; opacity: 0.65; stroke: #1f77b4; stroke-linejoin: miter"/>
   </g>
   <g id="patch_97">
    <path d="M 92.031927 85 
L 92.640694 85 
L 92.640694 85 
L 92.031927 85 
z
" clip-path="url(#p136e9e87f3)" style="fill: #1f77b4; opacity: 0.65; stroke: #1f77b4; stroke-linejoin: miter"/>
   </g>
   <g id="patch_98">
    <path d="M 92.640694 85 
L 93.249461 85 
L 93.249461 85 
L 92.640694 85 
z
" clip-path="url(#p136e9e87f3)" style="fill: #1f77b4; opacity: 0.65; stroke: #1f77b4; stroke-linejoin: miter"/>
   </g>
   <g id="patch_99">
    <path d="M 93.249461 85 
L 93.858229 85 
L 93.858229 84.161158 
L 93.249461 84.161158 
z
" clip-path="url(#p136e9e87f3)" style="fill: #1f77b4; opacity: 0.65; stroke: #1f77b4; stroke-linejoin: miter"/>
   </g>
   <g id="patch_100">
    <path d="M 93.858229 85 
L 94.466996 85 
L 94.466996 83.322316 
L 93.858229 83.322316 
z
" clip-path="url(#p136e9e87f3)" style="fill: #1f77b4; opacity: 0.65; stroke: #1f77b4; stroke-linejoin: miter"/>
   </g>
   <g id="patch_101">
    <path d="M 94.466996 85 
L 95.075763 85 
L 95.075763 81.644631 
L 94.466996 81.644631 
z
" clip-path="url(#p136e9e87f3)" style="fill: #1f77b4; opacity: 0.65; stroke: #1f77b4; stroke-linejoin: miter"/>
   </g>
   <g id="patch_102">
    <path d="M 95.075763 85 
L 95.684531 85 
L 95.684531 84.161158 
L 95.075763 84.161158 
z
" clip-path="url(#p136e9e87f3)" style="fill: #1f77b4; opacity: 0.65; stroke: #1f77b4; stroke-linejoin: miter"/>
   </g>
   <g id="patch_103">
    <path d="M 95.684531 85 
L 96.293298 85 
L 96.293298 79.128105 
L 95.684531 79.128105 
z
" clip-path="url(#p136e9e87f3)" style="fill: #1f77b4; opacity: 0.65; stroke: #1f77b4; stroke-linejoin: miter"/>
   </g>
   <g id="patch_104">
    <path d="M 96.293298 85 
L 96.902065 85 
L 96.902065 70.739683 
L 96.293298 70.739683 
z
" clip-path="url(#p136e9e87f3)" style="fill: #1f77b4; opacity: 0.65; stroke: #1f77b4; stroke-linejoin: miter"/>
   </g>
   <g id="patch_105">
    <path d="M 96.902065 85 
L 97.510833 85 
L 97.510833 84.161158 
L 96.902065 84.161158 
z
" clip-path="url(#p136e9e87f3)" style="fill: #1f77b4; opacity: 0.65; stroke: #1f77b4; stroke-linejoin: miter"/>
   </g>
   <g id="patch_106">
    <path d="M 97.510833 85 
L 98.1196 85 
L 98.1196 84.161158 
L 97.510833 84.161158 
z
" clip-path="url(#p136e9e87f3)" style="fill: #1f77b4; opacity: 0.65; stroke: #1f77b4; stroke-linejoin: miter"/>
   </g>
   <g id="patch_107">
    <path d="M 98.1196 85 
L 98.728367 85 
L 98.728367 85 
L 98.1196 85 
z
" clip-path="url(#p136e9e87f3)" style="fill: #1f77b4; opacity: 0.65; stroke: #1f77b4; stroke-linejoin: miter"/>
   </g>
   <g id="patch_108">
    <path d="M 98.728367 85 
L 99.337135 85 
L 99.337135 84.161158 
L 98.728367 84.161158 
z
" clip-path="url(#p136e9e87f3)" style="fill: #1f77b4; opacity: 0.65; stroke: #1f77b4; stroke-linejoin: miter"/>
   </g>
   <g id="patch_109">
    <path d="M 99.337135 85 
L 99.945902 85 
L 99.945902 84.161158 
L 99.337135 84.161158 
z
" clip-path="url(#p136e9e87f3)" style="fill: #1f77b4; opacity: 0.65; stroke: #1f77b4; stroke-linejoin: miter"/>
   </g>
   <g id="patch_110">
    <path d="M 99.945902 85 
L 100.55467 85 
L 100.55467 83.322316 
L 99.945902 83.322316 
z
" clip-path="url(#p136e9e87f3)" style="fill: #1f77b4; opacity: 0.65; stroke: #1f77b4; stroke-linejoin: miter"/>
   </g>
   <g id="patch_111">
    <path d="M 91.397804 85 
L 91.831243 85 
L 91.831243 84.161158 
L 91.397804 84.161158 
z
" clip-path="url(#p136e9e87f3)" style="fill: #ff7f0e; opacity: 0.45; stroke: #ff7f0e; stroke-linejoin: miter"/>
   </g>
   <g id="patch_112">
    <path d="M 91.831243 85 
L 92.264683 85 
L 92.264683 85 
L 91.831243 85 
z
" clip-path="url(#p136e9e87f3)" style="fill: #ff7f0e; opacity: 0.45; stroke: #ff7f0e; stroke-linejoin: miter"/>
   </g>
   <g id="patch_113">
    <path d="M 92.264683 85 
L 92.698123 85 
L 92.698123 85 
L 92.264683 85 
z
" clip-path="url(#p136e9e87f3)" style="fill: #ff7f0e; opacity: 0.45; stroke: #ff7f0e; stroke-linejoin: miter"/>
   </g>
   <g id="patch_114">
    <path d="M 92.698123 85 
L 93.131562 85 
L 93.131562 80.805789 
L 92.698123 80.805789 
z
" clip-path="url(#p136e9e87f3)" style="fill: #ff7f0e; opacity: 0.45; stroke: #ff7f0e; stroke-linejoin: miter"/>
   </g>
   <g id="patch_115">
    <path d="M 93.131562 85 
L 93.565002 85 
L 93.565002 78.289262 
L 93.131562 78.289262 
z
" clip-path="url(#p136e9e87f3)" style="fill: #ff7f0e; opacity: 0.45; stroke: #ff7f0e; stroke-linejoin: miter"/>
   </g>
   <g id="patch_116">
    <path d="M 93.565002 85 
L 93.998442 85 
L 93.998442 81.644631 
L 93.565002 81.644631 
z
" clip-path="url(#p136e9e87f3)" style="fill: #ff7f0e; opacity: 0.45; stroke: #ff7f0e; stroke-linejoin: miter"/>
   </g>
   <g id="patch_117">
    <path d="M 93.998442 85 
L 94.431882 85 
L 94.431882 84.161158 
L 93.998442 84.161158 
z
" clip-path="url(#p136e9e87f3)" style="fill: #ff7f0e; opacity: 0.45; stroke: #ff7f0e; stroke-linejoin: miter"/>
   </g>
   <g id="patch_118">
    <path d="M 94.431882 85 
L 94.865321 85 
L 94.865321 80.805789 
L 94.431882 80.805789 
z
" clip-path="url(#p136e9e87f3)" style="fill: #ff7f0e; opacity: 0.45; stroke: #ff7f0e; stroke-linejoin: miter"/>
   </g>
   <g id="patch_119">
    <path d="M 94.865321 85 
L 95.298761 85 
L 95.298761 83.322316 
L 94.865321 83.322316 
z
" clip-path="url(#p136e9e87f3)" style="fill: #ff7f0e; opacity: 0.45; stroke: #ff7f0e; stroke-linejoin: miter"/>
   </g>
   <g id="patch_120">
    <path d="M 95.298761 85 
L 95.732201 85 
L 95.732201 83.322316 
L 95.298761 83.322316 
z
" clip-path="url(#p136e9e87f3)" style="fill: #ff7f0e; opacity: 0.45; stroke: #ff7f0e; stroke-linejoin: miter"/>
   </g>
   <g id="patch_121">
    <path d="M 95.732201 85 
L 96.16564 85 
L 96.16564 84.161158 
L 95.732201 84.161158 
z
" clip-path="url(#p136e9e87f3)" style="fill: #ff7f0e; opacity: 0.45; stroke: #ff7f0e; stroke-linejoin: miter"/>
   </g>
   <g id="patch_122">
    <path d="M 96.16564 85 
L 96.59908 85 
L 96.59908 82.483473 
L 96.16564 82.483473 
z
" clip-path="url(#p136e9e87f3)" style="fill: #ff7f0e; opacity: 0.45; stroke: #ff7f0e; stroke-linejoin: miter"/>
   </g>
   <g id="patch_123">
    <path d="M 96.59908 85 
L 97.03252 85 
L 97.03252 84.161158 
L 96.59908 84.161158 
z
" clip-path="url(#p136e9e87f3)" style="fill: #ff7f0e; opacity: 0.45; stroke: #ff7f0e; stroke-linejoin: miter"/>
   </g>
   <g id="patch_124">
    <path d="M 97.03252 85 
L 97.465959 85 
L 97.465959 83.322316 
L 97.03252 83.322316 
z
" clip-path="url(#p136e9e87f3)" style="fill: #ff7f0e; opacity: 0.45; stroke: #ff7f0e; stroke-linejoin: miter"/>
   </g>
   <g id="patch_125">
    <path d="M 97.465959 85 
L 97.899399 85 
L 97.899399 84.161158 
L 97.465959 84.161158 
z
" clip-path="url(#p136e9e87f3)" style="fill: #ff7f0e; opacity: 0.45; stroke: #ff7f0e; stroke-linejoin: miter"/>
   </g>
   <g id="patch_126">
    <path d="M 97.899399 85 
L 98.332839 85 
L 98.332839 85 
L 97.899399 85 
z
" clip-path="url(#p136e9e87f3)" style="fill: #ff7f0e; opacity: 0.45; stroke: #ff7f0e; stroke-linejoin: miter"/>
   </g>
   <g id="patch_127">
    <path d="M 98.332839 85 
L 98.766278 85 
L 98.766278 84.161158 
L 98.332839 84.161158 
z
" clip-path="url(#p136e9e87f3)" style="fill: #ff7f0e; opacity: 0.45; stroke: #ff7f0e; stroke-linejoin: miter"/>
   </g>
   <g id="patch_128">
    <path d="M 98.766278 85 
L 99.199718 85 
L 99.199718 84.161158 
L 98.766278 84.161158 
z
" clip-path="url(#p136e9e87f3)" style="fill: #ff7f0e; opacity: 0.45; stroke: #ff7f0e; stroke-linejoin: miter"/>
   </g>
   <g id="patch_129">
    <path d="M 99.199718 85 
L 99.633158 85 
L 99.633158 85 
L 99.199718 85 
z
" clip-path="url(#p136e9e87f3)" style="fill: #ff7f0e; opacity: 0.45; stroke: #ff7f0e; stroke-linejoin: miter"/>
   </g>
   <g id="patch_130">
    <path d="M 99.633158 85 
L 100.066598 85 
L 100.066598 83.322316 
L 99.633158 83.322316 
z
" clip-path="url(#p136e9e87f3)" style="fill: #ff7f0e; opacity: 0.45; stroke: #ff7f0e; stroke-linejoin: miter"/>
   </g>
   <g id="matplotlib.axis_5">
    <g id="xtick_7">
     <g id="line2d_11">
      <g>
       <use xlink:href="#m70f1c5f75a" x="19.433125" y="85" style="stroke: #000000; stroke-width: 1.5"/>
      </g>
     </g>
     <g id="text_15">
      <text style="font: 8px 'Arial', sans-serif, serif; text-anchor: middle" x="19.433125" y="97.72625" transform="rotate(-0 19.433125 97.72625)">0.08</text>
     </g>
    </g>
    <g id="xtick_8">
     <g id="line2d_12">
      <g>
       <use xlink:href="#m70f1c5f75a" x="58.050875" y="85" style="stroke: #000000; stroke-width: 1.5"/>
      </g>
     </g>
     <g id="text_16">
      <text style="font: 8px 'Arial', sans-serif, serif; text-anchor: middle" x="58.050875" y="97.72625" transform="rotate(-0 58.050875 97.72625)">0.10</text>
     </g>
    </g>
    <g id="xtick_9">
     <g id="line2d_13">
      <g>
       <use xlink:href="#m70f1c5f75a" x="96.668625" y="85" style="stroke: #000000; stroke-width: 1.5"/>
      </g>
     </g>
     <g id="text_17">
      <text style="font: 8px 'Arial', sans-serif, serif; text-anchor: middle" x="96.668625" y="97.72625" transform="rotate(-0 96.668625 97.72625)">0.12</text>
     </g>
    </g>
    <g id="text_18">
     <text style="font: 8px 'Arial', sans-serif, serif; text-anchor: middle" x="58.050875" y="109.0425" transform="rotate(-0 58.050875 109.0425)">Value</text>
    </g>
   </g>
   <g id="matplotlib.axis_6">
    <g id="text_19">
     <!-- $g_{Na}$ -->
     <g transform="translate(12.953125 83.593333) rotate(-90)">
      <text>
       <tspan style="font: 8px 'Arial'" x="0" y="-0.75">g</tspan>
       <tspan style="font: 5.6px 'Arial'" x="4.588606 8.632747" y="1.6395">Na</tspan>
      </text>
     </g>
    </g>
   </g>
   <g id="line2d_14">
    <path d="M 58.050875 85 
L 58.050875 70.026667 
" clip-path="url(#p136e9e87f3)" style="fill: none; stroke-dasharray: 3.7,1.6; stroke-dashoffset: 0; stroke: #000000"/>
   </g>
   <g id="patch_131">
    <path d="M 19.433125 85 
L 96.668625 85 
" style="fill: none; stroke: #000000; stroke-width: 1.5; stroke-linejoin: miter; stroke-linecap: square"/>
   </g>
   <g id="legend_3">
    <g id="patch_132">
     <path d="M 43.921437 81.337135 
L 57.921437 81.337135 
L 57.921437 76.437135 
L 43.921437 76.437135 
z
" style="fill: #1f77b4; opacity: 0.65; stroke: #1f77b4; stroke-linejoin: miter"/>
    </g>
    <g id="text_20">
     <text style="font: 7px 'Arial', sans-serif, serif; text-anchor: start" x="63.521437" y="81.337135" transform="rotate(-0 63.521437 81.337135)">EKF</text>
    </g>
    <g id="patch_133">
     <path d="M 43.921437 91.238854 
L 57.921437 91.238854 
L 57.921437 86.338854 
L 43.921437 86.338854 
z
" style="fill: #ff7f0e; opacity: 0.45; stroke: #ff7f0e; stroke-linejoin: miter"/>
    </g>
    <g id="text_21">
     <text style="font: 7px 'Arial', sans-serif, serif; text-anchor: start" x="63.521437" y="91.238854" transform="rotate(-0 63.521437 91.238854)">diagEKF</text>
    </g>
    <g id="line2d_15">
     <path d="M 43.921437 98.772604 
L 50.921437 98.772604 
L 57.921437 98.772604 
" style="fill: none; stroke-dasharray: 3.7,1.6; stroke-dashoffset: 0; stroke: #000000"/>
    </g>
    <g id="text_22">
     <text style="font: 7px 'Arial', sans-serif, serif; text-anchor: start" x="63.521437" y="101.222604" transform="rotate(-0 63.521437 101.222604)">True</text>
    </g>
   </g>
  </g>
 </g>
 <defs>
  <clipPath id="p2493abca8b">
   <rect x="19.433125" y="7.2" width="77.2355" height="14.973333"/>
  </clipPath>
  <clipPath id="p7f3fdaf4d9">
   <rect x="19.433125" y="38.613333" width="77.2355" height="14.973333"/>
  </clipPath>
  <clipPath id="p136e9e87f3">
   <rect x="19.433125" y="70.026667" width="77.2355" height="14.973333"/>
  </clipPath>
 </defs>
</svg>
