<?xml version="1.0" encoding="utf-8" standalone="no"?>
<!DOCTYPE svg PUBLIC "-//W3C//DTD SVG 1.1//EN"
  "http://www.w3.org/Graphics/SVG/1.1/DTD/svg11.dtd">
<svg xmlns:xlink="http://www.w3.org/1999/xlink" width="371.445128pt" height="218.07875pt" viewBox="0 0 371.445128 218.07875" xmlns="http://www.w3.org/2000/svg" version="1.1">
 <metadata>
  <rdf:RDF xmlns:dc="http://purl.org/dc/elements/1.1/" xmlns:cc="http://creativecommons.org/ns#" xmlns:rdf="http://www.w3.org/1999/02/22-rdf-syntax-ns#">
   <cc:Work>
    <dc:type rdf:resource="http://purl.org/dc/dcmitype/StillImage"/>
    <dc:date>2025-10-24T02:25:31.392239</dc:date>
    <dc:format>image/svg+xml</dc:format>
    <dc:creator>
     <cc:Agent>
      <dc:title>Matplotlib v3.9.2, https://matplotlib.org/</dc:title>
     </cc:Agent>
    </dc:creator>
   </cc:Work>
  </rdf:RDF>
 </metadata>
 <defs>
  <style type="text/css">*{stroke-linejoin: round; stroke-linecap: butt}</style>
 </defs>
 <g id="figure_1">
  <g id="patch_1">
   <path d="M 0 218.07875 
L 371.445128 218.07875 
L 371.445128 0 
L 0 0 
z
" style="fill: #ffffff"/>
  </g>
  <g id="axes_1">
   <g id="patch_2">
    <path d="M 54.74625 67.843897 
L 194.24625 67.843897 
L 194.24625 18.92625 
L 54.74625 18.92625 
z
" style="fill: #ffffff"/>
   </g>
   <g id="matplotlib.axis_1">
    <g id="xtick_1">
     <g id="line2d_1">
      <defs>
       <path id="m59108c32df" d="M 0 0 
L 0 3.5 
" style="stroke: #000000; stroke-width: 1.5"/>
      </defs>
      <g>
       <use xlink:href="#m59108c32df" x="61.087159" y="67.843897" style="stroke: #000000; stroke-width: 1.5"/>
      </g>
     </g>
    </g>
    <g id="xtick_2">
     <g id="line2d_2">
      <g>
       <use xlink:href="#m59108c32df" x="103.373982" y="67.843897" style="stroke: #000000; stroke-width: 1.5"/>
      </g>
     </g>
    </g>
    <g id="xtick_3">
     <g id="line2d_3">
      <g>
       <use xlink:href="#m59108c32df" x="145.660805" y="67.843897" style="stroke: #000000; stroke-width: 1.5"/>
      </g>
     </g>
    </g>
    <g id="xtick_4">
     <g id="line2d_4">
      <g>
       <use xlink:href="#m59108c32df" x="187.947628" y="67.843897" style="stroke: #000000; stroke-width: 1.5"/>
      </g>
     </g>
    </g>
   </g>
   <g id="matplotlib.axis_2">
    <g id="ytick_1">
     <g id="line2d_5">
      <defs>
       <path id="m74bc8cdda0" d="M 0 0 
L -3.5 0 
" style="stroke: #000000; stroke-width: 1.5"/>
      </defs>
      <g>
       <use xlink:href="#m74bc8cdda0" x="54.74625" y="62.534797" style="stroke: #000000; stroke-width: 1.5"/>
      </g>
     </g>
     <g id="text_1">
      <text style="font: 8px 'Arial', sans-serif, serif; text-anchor: end" x="47.74625" y="65.397922" transform="rotate(-0 47.74625 65.397922)">0.0001</text>
     </g>
    </g>
    <g id="ytick_2">
     <g id="line2d_6">
      <g>
       <use xlink:href="#m74bc8cdda0" x="54.74625" y="39.964998" style="stroke: #000000; stroke-width: 1.5"/>
      </g>
     </g>
     <g id="text_2">
      <text style="font: 8px 'Arial', sans-serif, serif; text-anchor: end" x="47.74625" y="42.828123" transform="rotate(-0 47.74625 42.828123)">0.0002</text>
     </g>
    </g>
    <g id="text_3">
     <!-- $g_L ~(S/cm^2)$ -->
     <g transform="translate(16.88 62.345074) rotate(-90)">
      <text>
       <tspan style="font: 8px 'Arial'" x="0 10.69894 13.363002 18.69894 20.921596 24.921596 35.237749" y="-0.39949999999999974">g(S/cm)</tspan>
       <tspan style="font: 5.6px 'Arial'" x="4.588606 31.725046" y="1.9900000000000002 -5.975">L2</tspan>
      </text>
     </g>
    </g>
   </g>
   <g id="line2d_7">
    <path d="M 61.087159 33.506122 
L 61.298593 28.781569 
L 61.34088 28.700361 
L 61.46774 26.836946 
L 61.721461 21.875828 
L 61.763748 22.333829 
L 61.806035 23.282583 
L 61.848322 22.550609 
L 61.975182 21.149779 
L 62.017469 21.624104 
L 62.482624 26.98499 
L 62.736345 27.724321 
L 62.947779 27.746917 
L 63.159213 27.40555 
L 63.751229 25.770981 
L 64.174097 24.28692 
L 64.681539 22.214903 
L 64.850686 22.496903 
L 65.104407 22.782805 
L 65.358128 22.55317 
L 65.569562 22.525372 
L 66.246151 22.923184 
L 66.542159 23.065737 
L 66.922741 23.359824 
L 66.965027 23.297493 
L 67.091888 23.266253 
L 67.261035 23.67893 
L 67.557043 24.373672 
L 67.72619 24.330286 
L 67.937624 24.293298 
L 68.191345 24.60891 
L 68.487353 24.82209 
L 68.825648 24.966482 
L 69.629097 25.556336 
L 73.18119 28.355197 
L 79.143632 32.99639 
L 83.287741 35.931879 
L 87.262702 38.478383 
L 91.195377 40.734812 
L 95.170338 42.761696 
L 97.157819 43.786435 
L 97.5384 44.384691 
L 97.792121 44.443904 
L 98.088129 44.60013 
L 98.34185 44.668746 
L 98.722431 44.816042 
L 99.1453 44.985153 
L 101.301928 45.776294 
L 107.095222 47.810432 
L 114.706851 50.209267 
L 130.310688 54.906507 
L 136.357704 56.438766 
L 142.404719 57.73986 
L 148.747743 58.875791 
L 155.682782 59.888191 
L 163.252123 60.767335 
L 171.751775 61.528219 
L 181.26631 62.156087 
L 187.905341 62.483201 
L 187.905341 62.483201 
" clip-path="url(#p4c74612fb8)" style="fill: none; stroke: #000000; stroke-width: 0.8; stroke-linecap: square"/>
   </g>
   <g id="line2d_8">
    <path d="M 54.74625 62.534797 
L 194.24625 62.534797 
" clip-path="url(#p4c74612fb8)" style="fill: none; stroke-dasharray: 4.44,1.92; stroke-dashoffset: 0; stroke: #000000; stroke-width: 1.2"/>
   </g>
   <g id="patch_3">
    <path d="M 54.74625 67.843897 
L 54.74625 18.92625 
" style="fill: none; stroke: #000000; stroke-width: 1.5; stroke-linejoin: miter; stroke-linecap: square"/>
   </g>
   <g id="patch_4">
    <path d="M 54.74625 67.843897 
L 194.24625 67.843897 
" style="fill: none; stroke: #000000; stroke-width: 1.5; stroke-linejoin: miter; stroke-linecap: square"/>
   </g>
   <g id="text_4">
    <text style="font: 8px 'Arial', sans-serif, serif; text-anchor: middle" x="124.49625" y="12.92625" transform="rotate(-0 124.49625 12.92625)">Soma</text>
   </g>
   <g id="legend_1">
    <g id="line2d_9">
     <path d="M 127.1525 29.0525 
L 135.1525 29.0525 
L 143.1525 29.0525 
" style="fill: none; stroke-dasharray: 4.44,1.92; stroke-dashoffset: 0; stroke: #000000; stroke-width: 1.2"/>
    </g>
    <g id="text_5">
     <text style="font: 8px 'Arial', sans-serif, serif; text-anchor: start" x="149.5525" y="31.8525" transform="rotate(-0 149.5525 31.8525)">True value</text>
    </g>
   </g>
  </g>
  <g id="axes_2">
   <g id="patch_5">
    <path d="M 222.14625 67.843897 
L 361.64625 67.843897 
L 361.64625 18.92625 
L 222.14625 18.92625 
z
" style="fill: #ffffff"/>
   </g>
   <g id="matplotlib.axis_3">
    <g id="xtick_5">
     <g id="line2d_10">
      <g>
       <use xlink:href="#m59108c32df" x="228.487159" y="67.843897" style="stroke: #000000; stroke-width: 1.5"/>
      </g>
     </g>
    </g>
    <g id="xtick_6">
     <g id="line2d_11">
      <g>
       <use xlink:href="#m59108c32df" x="270.773982" y="67.843897" style="stroke: #000000; stroke-width: 1.5"/>
      </g>
     </g>
    </g>
    <g id="xtick_7">
     <g id="line2d_12">
      <g>
       <use xlink:href="#m59108c32df" x="313.060805" y="67.843897" style="stroke: #000000; stroke-width: 1.5"/>
      </g>
     </g>
    </g>
    <g id="xtick_8">
     <g id="line2d_13">
      <g>
       <use xlink:href="#m59108c32df" x="355.347628" y="67.843897" style="stroke: #000000; stroke-width: 1.5"/>
      </g>
     </g>
    </g>
   </g>
   <g id="matplotlib.axis_4">
    <g id="ytick_3">
     <g id="line2d_14">
      <g>
       <use xlink:href="#m74bc8cdda0" x="222.14625" y="62.534797" style="stroke: #000000; stroke-width: 1.5"/>
      </g>
     </g>
    </g>
    <g id="ytick_4">
     <g id="line2d_15">
      <g>
       <use xlink:href="#m74bc8cdda0" x="222.14625" y="39.964998" style="stroke: #000000; stroke-width: 1.5"/>
      </g>
     </g>
    </g>
   </g>
   <g id="line2d_16">
    <path d="M 228.487159 57.689764 
L 228.571733 56.65839 
L 228.61402 56.994279 
L 228.994601 60.352089 
L 229.163748 60.584766 
L 229.840337 65.589352 
L 229.967198 65.599826 
L 230.136345 65.289017 
L 230.347779 64.191047 
L 230.897508 61.554328 
L 231.362663 58.763521 
L 232.123826 53.924293 
L 232.292973 53.935141 
L 232.504407 53.911563 
L 233.13871 53.337605 
L 233.392431 53.277535 
L 233.857586 52.983702 
L 234.322741 53.273893 
L 234.534175 52.754228 
L 234.703322 53.203483 
L 234.957043 53.682096 
L 235.12619 53.456613 
L 235.379911 53.203516 
L 235.971927 53.43201 
L 236.183361 53.42621 
L 236.902237 53.731828 
L 240.412043 54.862152 
L 244.344718 55.57574 
L 256.396462 57.469621 
L 264.346385 58.540982 
L 264.557819 56.686178 
L 264.600106 56.727584 
L 264.853827 58.077884 
L 264.9384 57.892274 
L 265.149835 57.24402 
L 265.192121 57.257538 
L 265.74185 58.134782 
L 265.953284 58.584189 
L 266.122431 58.419903 
L 266.291579 58.341973 
L 266.841307 58.563644 
L 268.575067 59.02076 
L 271.619718 59.391632 
L 280.203943 60.175917 
L 290.141347 60.869123 
L 299.402161 61.27474 
L 310.73503 61.566182 
L 329.045224 61.815075 
L 355.305341 61.96808 
L 355.305341 61.96808 
" clip-path="url(#pa653bdef1d)" style="fill: none; stroke: #000000; stroke-width: 0.8; stroke-linecap: square"/>
   </g>
   <g id="line2d_17">
    <path d="M 222.14625 62.534797 
L 361.64625 62.534797 
" clip-path="url(#pa653bdef1d)" style="fill: none; stroke-dasharray: 4.44,1.92; stroke-dashoffset: 0; stroke: #000000; stroke-width: 1.2"/>
   </g>
   <g id="patch_6">
    <path d="M 222.14625 67.843897 
L 222.14625 18.92625 
" style="fill: none; stroke: #000000; stroke-width: 1.5; stroke-linejoin: miter; stroke-linecap: square"/>
   </g>
   <g id="patch_7">
    <path d="M 222.14625 67.843897 
L 361.64625 67.843897 
" style="fill: none; stroke: #000000; stroke-width: 1.5; stroke-linejoin: miter; stroke-linecap: square"/>
   </g>
   <g id="text_6">
    <text style="font: 8px 'Arial', sans-serif, serif; text-anchor: middle" x="291.89625" y="12.92625" transform="rotate(-0 291.89625 12.92625)">Dendrites</text>
   </g>
   <g id="legend_2">
    <g id="line2d_18">
     <path d="M 294.5525 29.0525 
L 302.5525 29.0525 
L 310.5525 29.0525 
" style="fill: none; stroke-dasharray: 4.44,1.92; stroke-dashoffset: 0; stroke: #000000; stroke-width: 1.2"/>
    </g>
    <g id="text_7">
     <text style="font: 8px 'Arial', sans-serif, serif; text-anchor: start" x="316.9525" y="31.8525" transform="rotate(-0 316.9525 31.8525)">True value</text>
    </g>
   </g>
  </g>
  <g id="axes_3">
   <g id="patch_8">
    <path d="M 54.74625 126.545074 
L 194.24625 126.545074 
L 194.24625 77.627426 
L 54.74625 77.627426 
z
" style="fill: #ffffff"/>
   </g>
   <g id="matplotlib.axis_5">
    <g id="xtick_9">
     <g id="line2d_19">
      <g>
       <use xlink:href="#m59108c32df" x="61.087159" y="126.545074" style="stroke: #000000; stroke-width: 1.5"/>
      </g>
     </g>
    </g>
    <g id="xtick_10">
     <g id="line2d_20">
      <g>
       <use xlink:href="#m59108c32df" x="103.373982" y="126.545074" style="stroke: #000000; stroke-width: 1.5"/>
      </g>
     </g>
    </g>
    <g id="xtick_11">
     <g id="line2d_21">
      <g>
       <use xlink:href="#m59108c32df" x="145.660805" y="126.545074" style="stroke: #000000; stroke-width: 1.5"/>
      </g>
     </g>
    </g>
    <g id="xtick_12">
     <g id="line2d_22">
      <g>
       <use xlink:href="#m59108c32df" x="187.947628" y="126.545074" style="stroke: #000000; stroke-width: 1.5"/>
      </g>
     </g>
    </g>
   </g>
   <g id="matplotlib.axis_6">
    <g id="ytick_5">
     <g id="line2d_23">
      <g>
       <use xlink:href="#m74bc8cdda0" x="54.74625" y="118.462742" style="stroke: #000000; stroke-width: 1.5"/>
      </g>
     </g>
     <g id="text_8">
      <text style="font: 8px 'Arial', sans-serif, serif; text-anchor: end" x="47.74625" y="121.325867" transform="rotate(-0 47.74625 121.325867)">0.03</text>
     </g>
    </g>
    <g id="ytick_6">
     <g id="line2d_24">
      <g>
       <use xlink:href="#m74bc8cdda0" x="54.74625" y="96.51464" style="stroke: #000000; stroke-width: 1.5"/>
      </g>
     </g>
     <g id="text_9">
      <text style="font: 8px 'Arial', sans-serif, serif; text-anchor: end" x="47.74625" y="99.377765" transform="rotate(-0 47.74625 99.377765)">0.04</text>
     </g>
    </g>
    <g id="text_10">
     <!-- $g_K ~(S/cm^2)$ -->
     <g transform="translate(25.7775 121.36625) rotate(-90)">
      <text>
       <tspan style="font: 8px 'Arial'" x="0 11.319643 13.983705 19.319643 21.542299 25.542299 35.858452" y="-0.39949999999999974">g(S/cm)</tspan>
       <tspan style="font: 5.6px 'Arial'" x="4.588606 32.345749" y="1.9900000000000002 -5.975">K2</tspan>
      </text>
     </g>
    </g>
   </g>
   <g id="line2d_25">
    <path d="M 61.087159 120.749909 
L 61.636888 99.385882 
L 61.679175 99.263655 
L 61.763748 100.299257 
L 61.806035 101.426663 
L 61.848322 100.904328 
L 61.890609 100.690608 
L 61.932896 100.819744 
L 62.059756 102.901342 
L 62.905492 124.291136 
L 62.990066 124.284497 
L 63.116927 123.810263 
L 63.878089 119.684079 
L 64.300958 119.674512 
L 64.554679 119.279127 
L 64.596965 119.3057 
L 64.8084 119.804438 
L 64.977547 120.012705 
L 65.104407 119.734682 
L 65.611849 118.005389 
L 65.823283 118.161307 
L 66.034717 118.215553 
L 66.373012 117.865088 
L 67.134175 117.170785 
L 67.176462 117.27119 
L 67.514756 118.320357 
L 67.557043 118.299536 
L 67.72619 117.899171 
L 67.979911 117.469016 
L 68.445066 117.588447 
L 68.867935 117.09867 
L 69.248516 116.955041 
L 69.713671 116.65775 
L 70.178826 116.43022 
L 70.855415 116.162086 
L 71.997159 115.790481 
L 74.78809 115.178424 
L 82.272857 113.920303 
L 92.759989 112.329235 
L 97.030959 111.833088 
L 97.369253 113.11286 
L 97.41154 112.952645 
L 97.665261 111.129264 
L 97.707548 111.194993 
L 98.003555 112.898559 
L 98.088129 112.701903 
L 98.34185 111.910657 
L 98.680145 112.012722 
L 98.891579 111.966338 
L 99.060726 111.989869 
L 99.568168 111.608199 
L 99.779602 111.594021 
L 100.160183 111.460445 
L 103.965997 110.931847 
L 112.930804 110.167403 
L 125.447704 109.378308 
L 136.357704 108.879284 
L 150.481503 108.446512 
L 169.67972 108.104456 
L 187.905341 107.933678 
L 187.905341 107.933678 
" clip-path="url(#p8616e6ae29)" style="fill: none; stroke: #000000; stroke-width: 0.8; stroke-linecap: square"/>
   </g>
   <g id="line2d_26">
    <path d="M 54.74625 107.488691 
L 194.24625 107.488691 
" clip-path="url(#p8616e6ae29)" style="fill: none; stroke-dasharray: 4.44,1.92; stroke-dashoffset: 0; stroke: #000000; stroke-width: 1.2"/>
   </g>
   <g id="patch_9">
    <path d="M 54.74625 126.545074 
L 54.74625 77.627426 
" style="fill: none; stroke: #000000; stroke-width: 1.5; stroke-linejoin: miter; stroke-linecap: square"/>
   </g>
   <g id="patch_10">
    <path d="M 54.74625 126.545074 
L 194.24625 126.545074 
" style="fill: none; stroke: #000000; stroke-width: 1.5; stroke-linejoin: miter; stroke-linecap: square"/>
   </g>
   <g id="legend_3">
    <g id="line2d_27">
     <path d="M 127.1525 87.753676 
L 135.1525 87.753676 
L 143.1525 87.753676 
" style="fill: none; stroke-dasharray: 4.44,1.92; stroke-dashoffset: 0; stroke: #000000; stroke-width: 1.2"/>
    </g>
    <g id="text_11">
     <text style="font: 8px 'Arial', sans-serif, serif; text-anchor: start" x="149.5525" y="90.553676" transform="rotate(-0 149.5525 90.553676)">True value</text>
    </g>
   </g>
  </g>
  <g id="axes_4">
   <g id="patch_11">
    <path d="M 222.14625 126.545074 
L 361.64625 126.545074 
L 361.64625 77.627426 
L 222.14625 77.627426 
z
" style="fill: #ffffff"/>
   </g>
   <g id="matplotlib.axis_7">
    <g id="xtick_13">
     <g id="line2d_28">
      <g>
       <use xlink:href="#m59108c32df" x="228.487159" y="126.545074" style="stroke: #000000; stroke-width: 1.5"/>
      </g>
     </g>
    </g>
    <g id="xtick_14">
     <g id="line2d_29">
      <g>
       <use xlink:href="#m59108c32df" x="270.773982" y="126.545074" style="stroke: #000000; stroke-width: 1.5"/>
      </g>
     </g>
    </g>
    <g id="xtick_15">
     <g id="line2d_30">
      <g>
       <use xlink:href="#m59108c32df" x="313.060805" y="126.545074" style="stroke: #000000; stroke-width: 1.5"/>
      </g>
     </g>
    </g>
    <g id="xtick_16">
     <g id="line2d_31">
      <g>
       <use xlink:href="#m59108c32df" x="355.347628" y="126.545074" style="stroke: #000000; stroke-width: 1.5"/>
      </g>
     </g>
    </g>
   </g>
   <g id="matplotlib.axis_8">
    <g id="ytick_7">
     <g id="line2d_32">
      <g>
       <use xlink:href="#m74bc8cdda0" x="222.14625" y="118.462742" style="stroke: #000000; stroke-width: 1.5"/>
      </g>
     </g>
    </g>
    <g id="ytick_8">
     <g id="line2d_33">
      <g>
       <use xlink:href="#m74bc8cdda0" x="222.14625" y="96.51464" style="stroke: #000000; stroke-width: 1.5"/>
      </g>
     </g>
    </g>
   </g>
   <g id="line2d_34">
    <path d="M 228.487159 79.850956 
L 228.952314 105.786277 
L 229.163748 109.123003 
L 229.628903 118.391552 
L 229.840337 119.320728 
L 229.967198 119.316681 
L 230.347779 119.053485 
L 230.559213 119.305581 
L 231.024368 119.919732 
L 231.193516 119.785146 
L 231.489524 119.108986 
L 232.2084 117.365618 
L 232.504407 117.257965 
L 233.011849 117.113972 
L 234.365027 116.270124 
L 234.787896 116.59884 
L 235.12619 116.573526 
L 235.887353 116.137696 
L 237.451966 115.304551 
L 238.974291 114.760598 
L 241.004059 114.297002 
L 245.148167 113.635285 
L 259.187393 111.659604 
L 264.515532 111.043045 
L 264.684679 111.329878 
L 265.022974 111.997277 
L 265.192121 111.728775 
L 265.445842 111.374831 
L 265.657276 111.480542 
L 265.868711 111.514654 
L 266.207005 111.211975 
L 266.5453 111.068588 
L 266.968168 110.92336 
L 267.433323 110.785892 
L 273.438052 110.043868 
L 282.487432 109.338301 
L 293.439719 108.708056 
L 305.40689 108.265554 
L 321.053014 107.91959 
L 343.422744 107.662944 
L 355.305341 107.590584 
L 355.305341 107.590584 
" clip-path="url(#pecc49e4c78)" style="fill: none; stroke: #000000; stroke-width: 0.8; stroke-linecap: square"/>
   </g>
   <g id="line2d_35">
    <path d="M 222.14625 107.488691 
L 361.64625 107.488691 
" clip-path="url(#pecc49e4c78)" style="fill: none; stroke-dasharray: 4.44,1.92; stroke-dashoffset: 0; stroke: #000000; stroke-width: 1.2"/>
   </g>
   <g id="patch_12">
    <path d="M 222.14625 126.545074 
L 222.14625 77.627426 
" style="fill: none; stroke: #000000; stroke-width: 1.5; stroke-linejoin: miter; stroke-linecap: square"/>
   </g>
   <g id="patch_13">
    <path d="M 222.14625 126.545074 
L 361.64625 126.545074 
" style="fill: none; stroke: #000000; stroke-width: 1.5; stroke-linejoin: miter; stroke-linecap: square"/>
   </g>
   <g id="legend_4">
    <g id="line2d_36">
     <path d="M 294.5525 87.753676 
L 302.5525 87.753676 
L 310.5525 87.753676 
" style="fill: none; stroke-dasharray: 4.44,1.92; stroke-dashoffset: 0; stroke: #000000; stroke-width: 1.2"/>
    </g>
    <g id="text_12">
     <text style="font: 8px 'Arial', sans-serif, serif; text-anchor: start" x="316.9525" y="90.553676" transform="rotate(-0 316.9525 90.553676)">True value</text>
    </g>
   </g>
  </g>
  <g id="axes_5">
   <g id="patch_14">
    <path d="M 54.74625 185.24625 
L 194.24625 185.24625 
L 194.24625 136.328603 
L 54.74625 136.328603 
z
" style="fill: #ffffff"/>
   </g>
   <g id="matplotlib.axis_9">
    <g id="xtick_17">
     <g id="line2d_37">
      <g>
       <use xlink:href="#m59108c32df" x="61.087159" y="185.24625" style="stroke: #000000; stroke-width: 1.5"/>
      </g>
     </g>
     <g id="text_13">
      <text style="font: 8px 'Arial', sans-serif, serif; text-anchor: middle" x="61.087159" y="197.9725" transform="rotate(-0 61.087159 197.9725)">0</text>
     </g>
    </g>
    <g id="xtick_18">
     <g id="line2d_38">
      <g>
       <use xlink:href="#m59108c32df" x="103.373982" y="185.24625" style="stroke: #000000; stroke-width: 1.5"/>
      </g>
     </g>
     <g id="text_14">
      <text style="font: 8px 'Arial', sans-serif, serif; text-anchor: middle" x="103.373982" y="197.9725" transform="rotate(-0 103.373982 197.9725)">1000</text>
     </g>
    </g>
    <g id="xtick_19">
     <g id="line2d_39">
      <g>
       <use xlink:href="#m59108c32df" x="145.660805" y="185.24625" style="stroke: #000000; stroke-width: 1.5"/>
      </g>
     </g>
     <g id="text_15">
      <text style="font: 8px 'Arial', sans-serif, serif; text-anchor: middle" x="145.660805" y="197.9725" transform="rotate(-0 145.660805 197.9725)">2000</text>
     </g>
    </g>
    <g id="xtick_20">
     <g id="line2d_40">
      <g>
       <use xlink:href="#m59108c32df" x="187.947628" y="185.24625" style="stroke: #000000; stroke-width: 1.5"/>
      </g>
     </g>
     <g id="text_16">
      <text style="font: 8px 'Arial', sans-serif, serif; text-anchor: middle" x="187.947628" y="197.9725" transform="rotate(-0 187.947628 197.9725)">3000</text>
     </g>
    </g>
    <g id="text_17">
     <text style="font: 8px 'Arial', sans-serif, serif; text-anchor: middle" x="124.49625" y="209.28875" transform="rotate(-0 124.49625 209.28875)">Iteration</text>
    </g>
   </g>
   <g id="matplotlib.axis_10">
    <g id="ytick_9">
     <g id="line2d_41">
      <g>
       <use xlink:href="#m74bc8cdda0" x="54.74625" y="182.574902" style="stroke: #000000; stroke-width: 1.5"/>
      </g>
     </g>
     <g id="text_18">
      <text style="font: 8px 'Arial', sans-serif, serif; text-anchor: end" x="47.74625" y="185.438027" transform="rotate(-0 47.74625 185.438027)">0.06</text>
     </g>
    </g>
    <g id="ytick_10">
     <g id="line2d_42">
      <g>
       <use xlink:href="#m74bc8cdda0" x="54.74625" y="157.612299" style="stroke: #000000; stroke-width: 1.5"/>
      </g>
     </g>
     <g id="text_19">
      <text style="font: 8px 'Arial', sans-serif, serif; text-anchor: end" x="47.74625" y="160.475424" transform="rotate(-0 47.74625 160.475424)">0.08</text>
     </g>
    </g>
    <g id="text_20">
     <!-- $g_{Na} ~(S/cm^2)$ -->
     <g transform="translate(25.6975 181.787426) rotate(-90)">
      <text>
       <tspan style="font: 8px 'Arial'" x="0 14.74308 17.407143 22.74308 24.965737 28.965737 39.28189" y="-0.39949999999999974">g(S/cm)</tspan>
       <tspan style="font: 5.6px 'Arial'" x="4.588606 8.632747 35.769187" y="1.9900000000000002 1.9900000000000002 -5.975">Na2</tspan>
      </text>
     </g>
    </g>
   </g>
   <g id="line2d_43">
    <path d="M 61.087159 138.552132 
L 61.256306 146.954528 
L 61.298593 146.8409 
L 61.34088 146.54708 
L 61.383167 146.652497 
L 61.510027 149.104358 
L 61.721461 152.757018 
L 61.806035 150.900749 
L 61.848322 152.289152 
L 62.059756 155.598027 
L 62.186616 155.309442 
L 62.440337 154.700627 
L 62.609485 154.721894 
L 62.778632 154.763295 
L 63.116927 154.383977 
L 63.159213 154.422941 
L 63.455221 154.943143 
L 64.300958 156.750303 
L 64.639252 157.851172 
L 64.766113 157.659755 
L 65.104407 157.064414 
L 65.315841 157.254817 
L 65.569562 157.383557 
L 66.077004 157.240227 
L 66.542159 157.425022 
L 66.922741 157.42784 
L 67.134175 158.087699 
L 67.261035 157.968929 
L 67.514756 157.647043 
L 67.683903 157.842663 
L 67.979911 158.198324 
L 68.52964 158.170538 
L 68.867935 158.306493 
L 69.290803 158.370965 
L 69.925105 158.575643 
L 72.208594 159.505851 
L 76.014408 161.346935 
L 87.135842 166.797205 
L 93.394292 169.577089 
L 96.946385 171.045606 
L 97.157819 171.768347 
L 97.284679 171.440501 
L 97.453827 171.128323 
L 97.622974 171.399881 
L 97.834408 171.556174 
L 98.003555 171.622385 
L 98.34185 171.902629 
L 98.595571 171.906358 
L 98.933866 172.108497 
L 99.27216 172.152194 
L 101.471075 172.935046 
L 106.038052 174.55556 
L 111.78906 176.402539 
L 116.652044 177.736774 
L 121.176734 178.746956 
L 126.082006 179.609508 
L 131.790727 180.38247 
L 138.598905 181.073449 
L 147.013983 181.696562 
L 157.458828 182.238004 
L 170.61003 182.684026 
L 187.059604 183.010831 
L 187.905341 183.022721 
L 187.905341 183.022721 
" clip-path="url(#p184f5eb979)" style="fill: none; stroke: #000000; stroke-width: 0.8; stroke-linecap: square"/>
   </g>
   <g id="line2d_44">
    <path d="M 54.74625 182.574902 
L 194.24625 182.574902 
" clip-path="url(#p184f5eb979)" style="fill: none; stroke-dasharray: 4.44,1.92; stroke-dashoffset: 0; stroke: #000000; stroke-width: 1.2"/>
   </g>
   <g id="patch_15">
    <path d="M 54.74625 185.24625 
L 54.74625 136.328603 
" style="fill: none; stroke: #000000; stroke-width: 1.5; stroke-linejoin: miter; stroke-linecap: square"/>
   </g>
   <g id="patch_16">
    <path d="M 54.74625 185.24625 
L 194.24625 185.24625 
" style="fill: none; stroke: #000000; stroke-width: 1.5; stroke-linejoin: miter; stroke-linecap: square"/>
   </g>
   <g id="legend_5">
    <g id="line2d_45">
     <path d="M 127.1525 146.454853 
L 135.1525 146.454853 
L 143.1525 146.454853 
" style="fill: none; stroke-dasharray: 4.44,1.92; stroke-dashoffset: 0; stroke: #000000; stroke-width: 1.2"/>
    </g>
    <g id="text_21">
     <text style="font: 8px 'Arial', sans-serif, serif; text-anchor: start" x="149.5525" y="149.254853" transform="rotate(-0 149.5525 149.254853)">True value</text>
    </g>
   </g>
  </g>
  <g id="axes_6">
   <g id="patch_17">
    <path d="M 222.14625 185.24625 
L 361.64625 185.24625 
L 361.64625 136.328603 
L 222.14625 136.328603 
z
" style="fill: #ffffff"/>
   </g>
   <g id="matplotlib.axis_11">
    <g id="xtick_21">
     <g id="line2d_46">
      <g>
       <use xlink:href="#m59108c32df" x="228.487159" y="185.24625" style="stroke: #000000; stroke-width: 1.5"/>
      </g>
     </g>
     <g id="text_22">
      <text style="font: 8px 'Arial', sans-serif, serif; text-anchor: middle" x="228.487159" y="197.9725" transform="rotate(-0 228.487159 197.9725)">0</text>
     </g>
    </g>
    <g id="xtick_22">
     <g id="line2d_47">
      <g>
       <use xlink:href="#m59108c32df" x="270.773982" y="185.24625" style="stroke: #000000; stroke-width: 1.5"/>
      </g>
     </g>
     <g id="text_23">
      <text style="font: 8px 'Arial', sans-serif, serif; text-anchor: middle" x="270.773982" y="197.9725" transform="rotate(-0 270.773982 197.9725)">1000</text>
     </g>
    </g>
    <g id="xtick_23">
     <g id="line2d_48">
      <g>
       <use xlink:href="#m59108c32df" x="313.060805" y="185.24625" style="stroke: #000000; stroke-width: 1.5"/>
      </g>
     </g>
     <g id="text_24">
      <text style="font: 8px 'Arial', sans-serif, serif; text-anchor: middle" x="313.060805" y="197.9725" transform="rotate(-0 313.060805 197.9725)">2000</text>
     </g>
    </g>
    <g id="xtick_24">
     <g id="line2d_49">
      <g>
       <use xlink:href="#m59108c32df" x="355.347628" y="185.24625" style="stroke: #000000; stroke-width: 1.5"/>
      </g>
     </g>
     <g id="text_25">
      <text style="font: 8px 'Arial', sans-serif, serif; text-anchor: middle" x="355.347628" y="197.9725" transform="rotate(-0 355.347628 197.9725)">3000</text>
     </g>
    </g>
    <g id="text_26">
     <text style="font: 8px 'Arial', sans-serif, serif; text-anchor: middle" x="291.89625" y="209.28875" transform="rotate(-0 291.89625 209.28875)">Iteration</text>
    </g>
   </g>
   <g id="matplotlib.axis_12">
    <g id="ytick_11">
     <g id="line2d_50">
      <g>
       <use xlink:href="#m74bc8cdda0" x="222.14625" y="182.574902" style="stroke: #000000; stroke-width: 1.5"/>
      </g>
     </g>
    </g>
    <g id="ytick_12">
     <g id="line2d_51">
      <g>
       <use xlink:href="#m74bc8cdda0" x="222.14625" y="157.612299" style="stroke: #000000; stroke-width: 1.5"/>
      </g>
     </g>
    </g>
   </g>
   <g id="line2d_52">
    <path d="M 228.487159 151.073019 
L 228.571733 145.069673 
L 228.656306 146.256607 
L 228.952314 153.086465 
L 229.079175 154.381503 
L 229.206035 158.539915 
L 229.248322 157.396167 
L 229.375182 154.958208 
L 229.417469 155.107601 
L 230.094058 159.80819 
L 230.305492 160.627123 
L 230.516927 161.217935 
L 230.686074 161.188605 
L 231.40495 160.293222 
L 231.616384 159.655179 
L 232.039252 158.025264 
L 232.166113 158.340389 
L 232.504407 159.288443 
L 232.673555 159.217815 
L 232.927275 159.138073 
L 233.223283 159.529695 
L 233.477004 159.666775 
L 233.899872 159.70281 
L 234.322741 159.980143 
L 234.534175 159.422762 
L 234.661035 159.708325 
L 234.957043 160.359108 
L 235.12619 160.189972 
L 235.337624 160.024157 
L 235.506772 160.211947 
L 235.802779 160.512611 
L 236.310221 160.618874 
L 236.690803 160.825765 
L 237.155958 160.997133 
L 238.043981 161.361572 
L 244.894446 164.331255 
L 256.481036 169.425213 
L 263.204641 172.110663 
L 264.346385 172.541974 
L 264.515532 171.91708 
L 264.600106 172.140988 
L 264.896114 173.250301 
L 265.234408 173.139454 
L 265.403555 173.201964 
L 265.699563 173.079297 
L 266.037858 173.300648 
L 266.291579 173.289563 
L 266.756734 173.557996 
L 268.955649 174.3095 
L 276.482703 176.708653 
L 281.557122 178.073213 
L 286.166385 179.084483 
L 290.90251 179.891602 
L 297.626115 180.730045 
L 304.561153 181.343528 
L 313.821968 181.918476 
L 325.154836 182.389643 
L 339.490069 182.762931 
L 355.305341 182.999579 
L 355.305341 182.999579 
" clip-path="url(#pe68206a38c)" style="fill: none; stroke: #000000; stroke-width: 0.8; stroke-linecap: square"/>
   </g>
   <g id="line2d_53">
    <path d="M 222.14625 182.574902 
L 361.64625 182.574902 
" clip-path="url(#pe68206a38c)" style="fill: none; stroke-dasharray: 4.44,1.92; stroke-dashoffset: 0; stroke: #000000; stroke-width: 1.2"/>
   </g>
   <g id="patch_18">
    <path d="M 222.14625 185.24625 
L 222.14625 136.328603 
" style="fill: none; stroke: #000000; stroke-width: 1.5; stroke-linejoin: miter; stroke-linecap: square"/>
   </g>
   <g id="patch_19">
    <path d="M 222.14625 185.24625 
L 361.64625 185.24625 
" style="fill: none; stroke: #000000; stroke-width: 1.5; stroke-linejoin: miter; stroke-linecap: square"/>
   </g>
   <g id="legend_6">
    <g id="line2d_54">
     <path d="M 294.5525 146.454853 
L 302.5525 146.454853 
L 310.5525 146.454853 
" style="fill: none; stroke-dasharray: 4.44,1.92; stroke-dashoffset: 0; stroke: #000000; stroke-width: 1.2"/>
    </g>
    <g id="text_27">
     <text style="font: 8px 'Arial', sans-serif, serif; text-anchor: start" x="316.9525" y="149.254853" transform="rotate(-0 316.9525 149.254853)">True value</text>
    </g>
   </g>
  </g>
 </g>
 <defs>
  <clipPath id="p4c74612fb8">
   <rect x="54.74625" y="18.92625" width="139.5" height="48.917647"/>
  </clipPath>
  <clipPath id="pa653bdef1d">
   <rect x="222.14625" y="18.92625" width="139.5" height="48.917647"/>
  </clipPath>
  <clipPath id="p8616e6ae29">
   <rect x="54.74625" y="77.627426" width="139.5" height="48.917647"/>
  </clipPath>
  <clipPath id="pecc49e4c78">
   <rect x="222.14625" y="77.627426" width="139.5" height="48.917647"/>
  </clipPath>
  <clipPath id="p184f5eb979">
   <rect x="54.74625" y="136.328603" width="139.5" height="48.917647"/>
  </clipPath>
  <clipPath id="pe68206a38c">
   <rect x="222.14625" y="136.328603" width="139.5" height="48.917647"/>
  </clipPath>
 </defs>
</svg>
