<?xml version="1.0" encoding="utf-8" standalone="no"?>
<!DOCTYPE svg PUBLIC "-//W3C//DTD SVG 1.1//EN"
  "http://www.w3.org/Graphics/SVG/1.1/DTD/svg11.dtd">
<svg xmlns:xlink="http://www.w3.org/1999/xlink" width="195.3175pt" height="105.54375pt" viewBox="0 0 195.3175 105.54375" xmlns="http://www.w3.org/2000/svg" version="1.1">
 <metadata>
  <rdf:RDF xmlns:dc="http://purl.org/dc/elements/1.1/" xmlns:cc="http://creativecommons.org/ns#" xmlns:rdf="http://www.w3.org/1999/02/22-rdf-syntax-ns#">
   <cc:Work>
    <dc:type rdf:resource="http://purl.org/dc/dcmitype/StillImage"/>
    <dc:date>2025-10-29T07:26:10.707354</dc:date>
    <dc:format>image/svg+xml</dc:format>
    <dc:creator>
     <cc:Agent>
      <dc:title>Matplotlib v3.9.2, https://matplotlib.org/</dc:title>
     </cc:Agent>
    </dc:creator>
   </cc:Work>
  </rdf:RDF>
 </metadata>
 <defs>
  <style type="text/css">*{stroke-linejoin: round; stroke-linecap: butt}</style>
 </defs>
 <g id="figure_1">
  <g id="patch_1">
   <path d="M 0 105.54375 
L 195.3175 105.54375 
L 195.3175 0 
L 0 0 
z
" style="fill: #ffffff"/>
  </g>
  <g id="axes_1">
   <g id="patch_2">
    <path d="M 39.2775 72.52 
L 188.1175 72.52 
L 188.1175 7.2 
L 39.2775 7.2 
z
" style="fill: #ffffff"/>
   </g>
   <g id="PolyCollection_1">
    <defs>
     <path id="m84f96509fc" d="M 46.042955 -36.975994 
L 46.042955 -35.992841 
L 46.212515 -38.681085 
L 46.382075 -40.664236 
L 46.551635 -42.189301 
L 46.721196 -43.664821 
L 46.890756 -44.871975 
L 47.060316 -45.914337 
L 47.229876 -46.979835 
L 47.399437 -48.005621 
L 47.568997 -48.714632 
L 47.738557 -49.337354 
L 47.908117 -49.960695 
L 48.077678 -50.531873 
L 48.247238 -50.975281 
L 48.416798 -51.450229 
L 48.586359 -51.963053 
L 48.755919 -52.166419 
L 48.925479 -52.550283 
L 49.095039 -52.868978 
L 49.2646 -53.151329 
L 49.43416 -53.470881 
L 49.60372 -53.698944 
L 49.77328 -53.811788 
L 49.942841 -54.112199 
L 50.112401 -54.228326 
L 50.281961 -54.149477 
L 50.451521 -54.248733 
L 50.621082 -54.325632 
L 50.790642 -54.656071 
L 50.960202 -54.687881 
L 51.129762 -54.919424 
L 51.299323 -54.907829 
L 51.468883 -54.996412 
L 51.638443 -55.21853 
L 51.808004 -55.413434 
L 51.977564 -55.556817 
L 52.147124 -55.530753 
L 52.316684 -55.561464 
L 52.486245 -55.651201 
L 52.655805 -55.801414 
L 52.825365 -55.852934 
L 52.994925 -55.980454 
L 53.164486 -56.238752 
L 53.334046 -56.185709 
L 53.503606 -56.183636 
L 53.673166 -56.261625 
L 53.842727 -56.419746 
L 54.012287 -56.610083 
L 54.181847 -56.657775 
L 54.351407 -56.55145 
L 54.520968 -56.68978 
L 54.690528 -56.749087 
L 54.860088 -56.830457 
L 55.029649 -56.8895 
L 55.199209 -57.118092 
L 55.368769 -56.866243 
L 55.538329 -57.00865 
L 55.70789 -57.196138 
L 55.87745 -57.293094 
L 56.04701 -57.375617 
L 56.21657 -57.495623 
L 56.386131 -57.748177 
L 56.555691 -57.770902 
L 56.725251 -57.682297 
L 56.894811 -57.609272 
L 57.064372 -57.821161 
L 57.233932 -58.063408 
L 57.403492 -58.22117 
L 57.573053 -58.206498 
L 57.742613 -58.140456 
L 57.912173 -58.213335 
L 58.081733 -58.383535 
L 58.251294 -58.359569 
L 58.420854 -58.595508 
L 58.590414 -58.604507 
L 58.759974 -58.772752 
L 58.929535 -58.701508 
L 59.099095 -58.759628 
L 59.268655 -58.830468 
L 59.438215 -59.041841 
L 59.607776 -58.947033 
L 59.777336 -59.007185 
L 59.946896 -59.27814 
L 60.116456 -59.373413 
L 60.286017 -59.416108 
L 60.455577 -59.538017 
L 60.625137 -59.689134 
L 60.794698 -59.828312 
L 60.964258 -59.988493 
L 61.133818 -60.071163 
L 61.303378 -60.422861 
L 61.472939 -60.699588 
L 61.642499 -60.560824 
L 61.812059 -60.810385 
L 61.981619 -61.153273 
L 62.15118 -61.494205 
L 62.32074 -61.781519 
L 62.4903 -62.11153 
L 62.65986 -62.406554 
L 62.829421 -62.948863 
L 62.998981 -63.703565 
L 63.168541 -64.374411 
L 63.338102 -65.474622 
L 63.507662 -66.714277 
L 63.677222 -69.169725 
L 63.846782 -72.793437 
L 64.016343 -78.295574 
L 64.185903 -85.01357 
L 64.355463 -89.639995 
L 64.525023 -91.678406 
L 64.694584 -90.700628 
L 64.864144 -87.871137 
L 65.033704 -84.798711 
L 65.203264 -81.301905 
L 65.372825 -78.60856 
L 65.542385 -75.767221 
L 65.711945 -73.682429 
L 65.881505 -72.181461 
L 66.051066 -70.422317 
L 66.220626 -69.281137 
L 66.390186 -68.069766 
L 66.559747 -66.848444 
L 66.729307 -65.774256 
L 66.898867 -65.547466 
L 67.068427 -64.441309 
L 67.237988 -63.60451 
L 67.407548 -62.777829 
L 67.577108 -62.485407 
L 67.746668 -61.867822 
L 67.916229 -61.271519 
L 68.085789 -61.279098 
L 68.255349 -60.736121 
L 68.424909 -60.083641 
L 68.59447 -60.19069 
L 68.76403 -59.861462 
L 68.93359 -59.637539 
L 69.10315 -59.410565 
L 69.272711 -58.688247 
L 69.442271 -58.875966 
L 69.611831 -58.590653 
L 69.781392 -58.583799 
L 69.950952 -58.432826 
L 70.120512 -58.295868 
L 70.290072 -58.49152 
L 70.459633 -58.269647 
L 70.629193 -58.119593 
L 70.798753 -58.078533 
L 70.968313 -58.221339 
L 71.137874 -58.204394 
L 71.307434 -58.113857 
L 71.476994 -58.049486 
L 71.646554 -57.990712 
L 71.816115 -58.066568 
L 71.985675 -58.330209 
L 72.155235 -58.209275 
L 72.324796 -58.102851 
L 72.494356 -58.11983 
L 72.663916 -57.845537 
L 72.833476 -57.766022 
L 73.003037 -57.802512 
L 73.172597 -57.899255 
L 73.342157 -57.894943 
L 73.511717 -57.798296 
L 73.681278 -57.867687 
L 73.850838 -57.828134 
L 74.020398 -57.906324 
L 74.189958 -57.820404 
L 74.359519 -57.741425 
L 74.529079 -57.839342 
L 74.698639 -57.918457 
L 74.868199 -57.811282 
L 75.03776 -57.987289 
L 75.20732 -58.016191 
L 75.37688 -57.922264 
L 75.546441 -58.053391 
L 75.716001 -58.146071 
L 75.885561 -58.164036 
L 76.055121 -58.311553 
L 76.224682 -58.335263 
L 76.394242 -58.477264 
L 76.563802 -58.500931 
L 76.733362 -58.550892 
L 76.902923 -58.694703 
L 77.072483 -58.950669 
L 77.242043 -58.931145 
L 77.411603 -59.026926 
L 77.581164 -58.979687 
L 77.750724 -59.040682 
L 77.920284 -59.096395 
L 78.089844 -59.035858 
L 78.259405 -59.203291 
L 78.428965 -59.434951 
L 78.598525 -59.514167 
L 78.768086 -59.623301 
L 78.937646 -59.789864 
L 79.107206 -59.713021 
L 79.276766 -59.778293 
L 79.446327 -59.798783 
L 79.615887 -59.894988 
L 79.785447 -60.061586 
L 79.955007 -60.33589 
L 80.124568 -60.444217 
L 80.294128 -60.514441 
L 80.463688 -60.715483 
L 80.633248 -60.94909 
L 80.802809 -60.97012 
L 80.972369 -61.259627 
L 81.141929 -61.513386 
L 81.31149 -61.536355 
L 81.48105 -61.924178 
L 81.65061 -62.58756 
L 81.82017 -63.131308 
L 81.989731 -63.94896 
L 82.159291 -64.519313 
L 82.328851 -65.619845 
L 82.498411 -67.020486 
L 82.667972 -69.203584 
L 82.837532 -72.75646 
L 83.007092 -77.840784 
L 83.176652 -84.398317 
L 83.346213 -89.459771 
L 83.515773 -90.952108 
L 83.685333 -90.385511 
L 83.854893 -87.723557 
L 84.024454 -84.575026 
L 84.194014 -81.387281 
L 84.363574 -78.463938 
L 84.533135 -75.997859 
L 84.702695 -73.585503 
L 84.872255 -71.959362 
L 85.041815 -70.519037 
L 85.211376 -68.934784 
L 85.380936 -67.796241 
L 85.550496 -66.914827 
L 85.720056 -66.348296 
L 85.889617 -64.986548 
L 86.059177 -64.618189 
L 86.228737 -64.083199 
L 86.398297 -63.078545 
L 86.567858 -62.732995 
L 86.737418 -62.288655 
L 86.906978 -61.695867 
L 87.076539 -61.207766 
L 87.246099 -61.247382 
L 87.415659 -60.570704 
L 87.585219 -59.791733 
L 87.75478 -59.85747 
L 87.92434 -59.487289 
L 88.0939 -59.760026 
L 88.26346 -59.469858 
L 88.433021 -59.28916 
L 88.602581 -59.091076 
L 88.772141 -58.807828 
L 88.941701 -58.560861 
L 89.111262 -58.640912 
L 89.280822 -58.702971 
L 89.450382 -58.726368 
L 89.619942 -58.843643 
L 89.789503 -58.685623 
L 89.959063 -58.421945 
L 90.128623 -58.587504 
L 90.298184 -58.613246 
L 90.467744 -58.48794 
L 90.637304 -58.559315 
L 90.806864 -58.408615 
L 90.976425 -58.462229 
L 91.145985 -58.58349 
L 91.315545 -58.489209 
L 91.485105 -58.445261 
L 91.654666 -58.481724 
L 91.824226 -58.386749 
L 91.993786 -58.332789 
L 92.163346 -58.423049 
L 92.332907 -58.446882 
L 92.502467 -58.312435 
L 92.672027 -58.374183 
L 92.841587 -58.279324 
L 93.011148 -58.449607 
L 93.180708 -58.408433 
L 93.350268 -58.460755 
L 93.519829 -58.440735 
L 93.689389 -58.50635 
L 93.858949 -58.419041 
L 94.028509 -58.508955 
L 94.19807 -58.425564 
L 94.36763 -58.504816 
L 94.53719 -58.507208 
L 94.70675 -58.423976 
L 94.876311 -58.532508 
L 95.045871 -58.598546 
L 95.215431 -58.475744 
L 95.384991 -58.58384 
L 95.554552 -58.627564 
L 95.724112 -58.663168 
L 95.893672 -58.81248 
L 96.063233 -58.650562 
L 96.232793 -58.821903 
L 96.402353 -58.658815 
L 96.571913 -58.696043 
L 96.741474 -58.751041 
L 96.911034 -58.801667 
L 97.080594 -58.720289 
L 97.250154 -58.826177 
L 97.419715 -59.007037 
L 97.589275 -59.133633 
L 97.758835 -59.126334 
L 97.928395 -59.040273 
L 98.097956 -59.243779 
L 98.267516 -59.421419 
L 98.437076 -59.645709 
L 98.606636 -59.646135 
L 98.776197 -59.719143 
L 98.945757 -59.823776 
L 99.115317 -60.057826 
L 99.284878 -60.080821 
L 99.454438 -60.298449 
L 99.623998 -60.64516 
L 99.793558 -61.024002 
L 99.963119 -61.385535 
L 100.132679 -61.528033 
L 100.302239 -61.888985 
L 100.471799 -62.311068 
L 100.64136 -62.691184 
L 100.81092 -63.444669 
L 100.98048 -64.151361 
L 101.15004 -64.938636 
L 101.319601 -66.136629 
L 101.489161 -67.895698 
L 101.658721 -70.701851 
L 101.828281 -74.882891 
L 101.997842 -80.572584 
L 102.167402 -86.766091 
L 102.336962 -90.588107 
L 102.506523 -91.28931 
L 102.676083 -89.69977 
L 102.845643 -86.752388 
L 103.015203 -83.837184 
L 103.184764 -80.855008 
L 103.354324 -77.738145 
L 103.523884 -75.616313 
L 103.693444 -72.929612 
L 103.863005 -71.682149 
L 104.032565 -69.738625 
L 104.202125 -69.00001 
L 104.371685 -67.383189 
L 104.541246 -66.722965 
L 104.710806 -66.048647 
L 104.880366 -64.487877 
L 105.049927 -64.195388 
L 105.219487 -63.245013 
L 105.389047 -62.873301 
L 105.558607 -62.580336 
L 105.728168 -62.223901 
L 105.897728 -61.65591 
L 106.067288 -60.654404 
L 106.236848 -60.375543 
L 106.406409 -60.320823 
L 106.575969 -60.138253 
L 106.745529 -59.697699 
L 106.915089 -59.549841 
L 107.08465 -59.137307 
L 107.25421 -58.856288 
L 107.42377 -58.880906 
L 107.59333 -58.498666 
L 107.762891 -58.48853 
L 107.932451 -58.243619 
L 108.102011 -58.538648 
L 108.271572 -58.425434 
L 108.441132 -58.238978 
L 108.610692 -58.458756 
L 108.780252 -58.152183 
L 108.949813 -58.061744 
L 109.119373 -58.042041 
L 109.288933 -58.204842 
L 109.458493 -58.109352 
L 109.628054 -58.045228 
L 109.797614 -57.995102 
L 109.967174 -58.017295 
L 110.136734 -57.933148 
L 110.306295 -57.998488 
L 110.475855 -58.056733 
L 110.645415 -58.119641 
L 110.814976 -58.085636 
L 110.984536 -58.07713 
L 111.154096 -58.054324 
L 111.323656 -58.261109 
L 111.493217 -58.220001 
L 111.662777 -58.204576 
L 111.832337 -58.207869 
L 112.001897 -58.282045 
L 112.171458 -58.417318 
L 112.341018 -58.463944 
L 112.510578 -58.277235 
L 112.680138 -58.318746 
L 112.849699 -58.329305 
L 113.019259 -58.460923 
L 113.188819 -58.56149 
L 113.358379 -58.576281 
L 113.52794 -58.657368 
L 113.6975 -58.682015 
L 113.86706 -58.597936 
L 114.036621 -58.589605 
L 114.206181 -58.763844 
L 114.375741 -58.523954 
L 114.545301 -58.563549 
L 114.714862 -58.672544 
L 114.884422 -58.69199 
L 115.053982 -58.804307 
L 115.223542 -58.95587 
L 115.393103 -59.001613 
L 115.562663 -58.887206 
L 115.732223 -58.933421 
L 115.901783 -59.017093 
L 116.071344 -58.964198 
L 116.240904 -58.917996 
L 116.410464 -59.023831 
L 116.580024 -59.232957 
L 116.749585 -59.415127 
L 116.919145 -59.411313 
L 117.088705 -59.489054 
L 117.258266 -59.582177 
L 117.427826 -59.702705 
L 117.597386 -59.846974 
L 117.766946 -59.943944 
L 117.936507 -60.026888 
L 118.106067 -60.2411 
L 118.275627 -60.317408 
L 118.445187 -60.510092 
L 118.614748 -60.794548 
L 118.784308 -61.005177 
L 118.953868 -61.313363 
L 119.123428 -61.640817 
L 119.292989 -61.91774 
L 119.462549 -62.524599 
L 119.632109 -63.065834 
L 119.80167 -63.535999 
L 119.97123 -64.225456 
L 120.14079 -65.131648 
L 120.31035 -66.611663 
L 120.479911 -68.754976 
L 120.649471 -71.760054 
L 120.819031 -76.246438 
L 120.988591 -82.636029 
L 121.158152 -88.346373 
L 121.327712 -91.140528 
L 121.497272 -91.17953 
L 121.666832 -89.202791 
L 121.836393 -85.727825 
L 122.005953 -82.497182 
L 122.175513 -79.468378 
L 122.345073 -77.071234 
L 122.514634 -75.030517 
L 122.684194 -72.926946 
L 122.853754 -71.300324 
L 123.023315 -69.84094 
L 123.192875 -68.349849 
L 123.362435 -67.308737 
L 123.531995 -66.549979 
L 123.701556 -66.033489 
L 123.871116 -64.830754 
L 124.040676 -64.358053 
L 124.210236 -63.407019 
L 124.379797 -63.076443 
L 124.549357 -62.759218 
L 124.718917 -61.637938 
L 124.888477 -61.246715 
L 125.058038 -61.221486 
L 125.227598 -60.713825 
L 125.397158 -60.248111 
L 125.566719 -60.147599 
L 125.736279 -59.70459 
L 125.905839 -59.232317 
L 126.075399 -59.136802 
L 126.24496 -59.153484 
L 126.41452 -58.931353 
L 126.58408 -58.80856 
L 126.75364 -58.854001 
L 126.923201 -58.626764 
L 127.092761 -58.580017 
L 127.262321 -58.700293 
L 127.431881 -58.600826 
L 127.601442 -58.454503 
L 127.771002 -58.064113 
L 127.940562 -58.225861 
L 128.110122 -58.086429 
L 128.279683 -58.155915 
L 128.449243 -58.086657 
L 128.618803 -58.345343 
L 128.788364 -57.932021 
L 128.957924 -57.920692 
L 129.127484 -58.012638 
L 129.297044 -58.003325 
L 129.466605 -58.1078 
L 129.636165 -58.156853 
L 129.805725 -57.961528 
L 129.975285 -58.023136 
L 130.144846 -57.970542 
L 130.314406 -58.094738 
L 130.483966 -58.313269 
L 130.653526 -58.227076 
L 130.823087 -58.123395 
L 130.992647 -58.1603 
L 131.162207 -58.218152 
L 131.331767 -58.189707 
L 131.501328 -58.130157 
L 131.670888 -58.320397 
L 131.840448 -58.399834 
L 132.010009 -58.327499 
L 132.179569 -58.227957 
L 132.349129 -58.327594 
L 132.518689 -58.514402 
L 132.68825 -58.452278 
L 132.85781 -58.431389 
L 133.02737 -58.471894 
L 133.19693 -58.494102 
L 133.366491 -58.673697 
L 133.536051 -58.626693 
L 133.705611 -58.727439 
L 133.875171 -58.763281 
L 134.044732 -58.641039 
L 134.214292 -58.68382 
L 134.383852 -58.903758 
L 134.553413 -58.906203 
L 134.722973 -58.931006 
L 134.892533 -59.093496 
L 135.062093 -59.051962 
L 135.231654 -58.989117 
L 135.401214 -59.031303 
L 135.570774 -59.189214 
L 135.740334 -59.392377 
L 135.909895 -59.515827 
L 136.079455 -59.586505 
L 136.249015 -59.662023 
L 136.418575 -59.948359 
L 136.588136 -59.870151 
L 136.757696 -60.047601 
L 136.927256 -60.272887 
L 137.096816 -60.338971 
L 137.266377 -60.60094 
L 137.435937 -60.864881 
L 137.605497 -60.825294 
L 137.775058 -61.051105 
L 137.944618 -61.333603 
L 138.114178 -61.511544 
L 138.283738 -61.895784 
L 138.453299 -62.445161 
L 138.622859 -62.953864 
L 138.792419 -63.834968 
L 138.961979 -64.575291 
L 139.13154 -65.671335 
L 139.3011 -67.153351 
L 139.47066 -69.588009 
L 139.64022 -73.019924 
L 139.809781 -78.378939 
L 139.979341 -84.674508 
L 140.148901 -89.521227 
L 140.318461 -91.306875 
L 140.488022 -90.334201 
L 140.657582 -87.613781 
L 140.827142 -84.282546 
L 140.996703 -81.198035 
L 141.166263 -78.759687 
L 141.335823 -76.017382 
L 141.505383 -73.632436 
L 141.674944 -72.048859 
L 141.844504 -70.557548 
L 142.014064 -69.393727 
L 142.183624 -68.347005 
L 142.353185 -66.849168 
L 142.522745 -66.087426 
L 142.692305 -65.144154 
L 142.861865 -64.52133 
L 143.031426 -63.993479 
L 143.200986 -63.209737 
L 143.370546 -62.565415 
L 143.540107 -62.021635 
L 143.709667 -61.292483 
L 143.879227 -60.754217 
L 144.048787 -60.872326 
L 144.218348 -60.174661 
L 144.387908 -60.104292 
L 144.557468 -60.165924 
L 144.727028 -59.570297 
L 144.896589 -59.302679 
L 145.066149 -59.314557 
L 145.235709 -59.484026 
L 145.405269 -59.113156 
L 145.57483 -58.751206 
L 145.74439 -58.772208 
L 145.91395 -58.726784 
L 146.08351 -58.570336 
L 146.253071 -58.464335 
L 146.422631 -58.484198 
L 146.592191 -58.422216 
L 146.761752 -58.499741 
L 146.931312 -58.515677 
L 147.100872 -58.527885 
L 147.270432 -58.60177 
L 147.439993 -58.372226 
L 147.609553 -58.410164 
L 147.779113 -58.298023 
L 147.948673 -58.395129 
L 148.118234 -58.146359 
L 148.287794 -58.094708 
L 148.457354 -58.023328 
L 148.626914 -57.924403 
L 148.796475 -58.163323 
L 148.966035 -58.125118 
L 149.135595 -57.978745 
L 149.305156 -57.991247 
L 149.474716 -58.025153 
L 149.644276 -58.050311 
L 149.813836 -57.95456 
L 149.983397 -58.025659 
L 150.152957 -58.139862 
L 150.322517 -58.020124 
L 150.492077 -58.056147 
L 150.661638 -58.115684 
L 150.831198 -58.197196 
L 151.000758 -58.210997 
L 151.170318 -58.303526 
L 151.339879 -58.291796 
L 151.509439 -58.420908 
L 151.678999 -58.334885 
L 151.848559 -58.467329 
L 152.01812 -58.350964 
L 152.18768 -58.481942 
L 152.35724 -58.531583 
L 152.526801 -58.612296 
L 152.696361 -58.638528 
L 152.865921 -58.683215 
L 153.035481 -58.777112 
L 153.205042 -58.756444 
L 153.374602 -58.844225 
L 153.544162 -59.039352 
L 153.713722 -59.15917 
L 153.883283 -59.092337 
L 154.052843 -59.281716 
L 154.222403 -59.23324 
L 154.391963 -59.223775 
L 154.561524 -59.280891 
L 154.731084 -59.448555 
L 154.900644 -59.675071 
L 155.070204 -59.814885 
L 155.239765 -59.756806 
L 155.409325 -59.98601 
L 155.578885 -60.088145 
L 155.748446 -60.308115 
L 155.918006 -60.581762 
L 156.087566 -60.653047 
L 156.257126 -60.797841 
L 156.426687 -60.989713 
L 156.596247 -61.098223 
L 156.765807 -61.321472 
L 156.935367 -61.513136 
L 157.104928 -61.892431 
L 157.274488 -62.361076 
L 157.444048 -62.926113 
L 157.613608 -63.375325 
L 157.783169 -64.148825 
L 157.952729 -65.032783 
L 158.122289 -66.211393 
L 158.29185 -68.115273 
L 158.46141 -71.092946 
L 158.63097 -74.865288 
L 158.80053 -80.148448 
L 158.970091 -86.571968 
L 159.139651 -90.342462 
L 159.309211 -90.777046 
L 159.478771 -89.428836 
L 159.648332 -86.668287 
L 159.817892 -83.460466 
L 159.987452 -80.427945 
L 160.157012 -77.51036 
L 160.326573 -75.15329 
L 160.496133 -72.806518 
L 160.665693 -71.447616 
L 160.835253 -69.862892 
L 161.004814 -68.143883 
L 161.174374 -67.263886 
L 161.343934 -66.572611 
L 161.513495 -65.97109 
L 161.683055 -65.312719 
L 161.852615 -64.299514 
L 162.022175 -63.362643 
L 162.191736 -62.664048 
L 162.361296 -62.418732 
L 162.530856 -61.948032 
L 162.700416 -61.170353 
L 162.869977 -60.795248 
L 163.039537 -60.959923 
L 163.209097 -60.761871 
L 163.378657 -60.213952 
L 163.548218 -59.805817 
L 163.717778 -59.514905 
L 163.887338 -59.264023 
L 164.056898 -59.081913 
L 164.226459 -58.448345 
L 164.396019 -58.446001 
L 164.565579 -58.537978 
L 164.73514 -58.268567 
L 164.9047 -58.384195 
L 165.07426 -58.406963 
L 165.24382 -58.467124 
L 165.413381 -58.309222 
L 165.582941 -58.357095 
L 165.752501 -58.213158 
L 165.922061 -58.247075 
L 166.091622 -58.459581 
L 166.261182 -58.260479 
L 166.430742 -58.217536 
L 166.600302 -58.186516 
L 166.769863 -58.23151 
L 166.939423 -58.251896 
L 167.108983 -58.408515 
L 167.278544 -58.403671 
L 167.448104 -58.353355 
L 167.617664 -58.425726 
L 167.787224 -58.296912 
L 167.956785 -58.329913 
L 168.126345 -58.395477 
L 168.295905 -58.387228 
L 168.465465 -58.372101 
L 168.635026 -58.241512 
L 168.804586 -58.295464 
L 168.974146 -58.180396 
L 169.143706 -58.212209 
L 169.313267 -58.128148 
L 169.482827 -58.126625 
L 169.652387 -58.244262 
L 169.821947 -58.151606 
L 169.991508 -58.167571 
L 170.161068 -58.322041 
L 170.330628 -58.173634 
L 170.500189 -58.197431 
L 170.669749 -58.17099 
L 170.839309 -58.3222 
L 171.008869 -58.456795 
L 171.17843 -58.491226 
L 171.34799 -58.617318 
L 171.51755 -58.702608 
L 171.68711 -58.792995 
L 171.856671 -58.897988 
L 172.026231 -59.026948 
L 172.195791 -59.06755 
L 172.365351 -58.91134 
L 172.534912 -58.990132 
L 172.704472 -59.132819 
L 172.874032 -59.213278 
L 173.043593 -59.182591 
L 173.213153 -59.255107 
L 173.382713 -59.487899 
L 173.552273 -59.623002 
L 173.721834 -59.725215 
L 173.891394 -59.745402 
L 174.060954 -59.830792 
L 174.230514 -59.923525 
L 174.400075 -60.174143 
L 174.569635 -60.171688 
L 174.739195 -60.213233 
L 174.908755 -60.249256 
L 175.078316 -60.368833 
L 175.247876 -60.509724 
L 175.417436 -60.645316 
L 175.586996 -60.769262 
L 175.756557 -61.091622 
L 175.926117 -61.446811 
L 176.095677 -61.71216 
L 176.265238 -62.072544 
L 176.434798 -62.544415 
L 176.604358 -63.061904 
L 176.773918 -63.926618 
L 176.943479 -64.78631 
L 177.113039 -66.236907 
L 177.282599 -68.270852 
L 177.452159 -71.205164 
L 177.62172 -76.026054 
L 177.79128 -82.28282 
L 177.96084 -88.002658 
L 178.1304 -90.414352 
L 178.299961 -89.936743 
L 178.469521 -87.866127 
L 178.639081 -84.816416 
L 178.808641 -81.533702 
L 178.978202 -78.741899 
L 179.147762 -75.958584 
L 179.317322 -73.982948 
L 179.486883 -71.417599 
L 179.656443 -70.384312 
L 179.826003 -68.518475 
L 179.995563 -67.68435 
L 180.165124 -65.758854 
L 180.334684 -65.332878 
L 180.504244 -64.483627 
L 180.673804 -63.482891 
L 180.843365 -63.044878 
L 181.012925 -62.312693 
L 181.182485 -61.22129 
L 181.352045 -62.640769 
L 181.352045 -67.241527 
L 181.352045 -67.241527 
L 181.182485 -65.806011 
L 181.012925 -66.823216 
L 180.843365 -67.531292 
L 180.673804 -67.899766 
L 180.504244 -68.826886 
L 180.334684 -69.611609 
L 180.165124 -69.942589 
L 179.995563 -71.794517 
L 179.826003 -72.596186 
L 179.656443 -74.357036 
L 179.486883 -75.324524 
L 179.317322 -77.819506 
L 179.147762 -79.719828 
L 178.978202 -82.455635 
L 178.808641 -85.211567 
L 178.639081 -88.456397 
L 178.469521 -91.477776 
L 178.299961 -93.555611 
L 178.1304 -94.019347 
L 177.96084 -91.614365 
L 177.79128 -85.88785 
L 177.62172 -79.606224 
L 177.452159 -74.759131 
L 177.282599 -71.799028 
L 177.113039 -69.733391 
L 176.943479 -68.279724 
L 176.773918 -67.378067 
L 176.604358 -66.516479 
L 176.434798 -65.975247 
L 176.265238 -65.499634 
L 176.095677 -65.136831 
L 175.926117 -64.833058 
L 175.756557 -64.460705 
L 175.586996 -64.153425 
L 175.417436 -64.01664 
L 175.247876 -63.86684 
L 175.078316 -63.724175 
L 174.908755 -63.617011 
L 174.739195 -63.590478 
L 174.569635 -63.546347 
L 174.400075 -63.503666 
L 174.230514 -63.275064 
L 174.060954 -63.19124 
L 173.891394 -63.115229 
L 173.721834 -63.06871 
L 173.552273 -62.937238 
L 173.382713 -62.774927 
L 173.213153 -62.567034 
L 173.043593 -62.504762 
L 172.874032 -62.498087 
L 172.704472 -62.410873 
L 172.534912 -62.299402 
L 172.365351 -62.275379 
L 172.195791 -62.384502 
L 172.026231 -62.315284 
L 171.856671 -62.181987 
L 171.68711 -62.067938 
L 171.51755 -61.9609 
L 171.34799 -61.853775 
L 171.17843 -61.729549 
L 171.008869 -61.656838 
L 170.839309 -61.534113 
L 170.669749 -61.431001 
L 170.500189 -61.464184 
L 170.330628 -61.464174 
L 170.161068 -61.543792 
L 169.991508 -61.419359 
L 169.821947 -61.425998 
L 169.652387 -61.49963 
L 169.482827 -61.405536 
L 169.313267 -61.429774 
L 169.143706 -61.504767 
L 168.974146 -61.501711 
L 168.804586 -61.602538 
L 168.635026 -61.580341 
L 168.465465 -61.687225 
L 168.295905 -61.6953 
L 168.126345 -61.704631 
L 167.956785 -61.668024 
L 167.787224 -61.668094 
L 167.617664 -61.781728 
L 167.448104 -61.739732 
L 167.278544 -61.776545 
L 167.108983 -61.769195 
L 166.939423 -61.636891 
L 166.769863 -61.628794 
L 166.600302 -61.608401 
L 166.430742 -61.67119 
L 166.261182 -61.777095 
L 166.091622 -61.958705 
L 165.922061 -61.767598 
L 165.752501 -61.772841 
L 165.582941 -61.932538 
L 165.413381 -61.939249 
L 165.24382 -62.098432 
L 165.07426 -62.074098 
L 164.9047 -62.088196 
L 164.73514 -62.048737 
L 164.565579 -62.317728 
L 164.396019 -62.280968 
L 164.226459 -62.376924 
L 164.056898 -63.032225 
L 163.887338 -63.267899 
L 163.717778 -63.570688 
L 163.548218 -63.908733 
L 163.378657 -64.36045 
L 163.209097 -64.914683 
L 163.039537 -65.141229 
L 162.869977 -65.021794 
L 162.700416 -65.445022 
L 162.530856 -66.277032 
L 162.361296 -66.803855 
L 162.191736 -67.112455 
L 162.022175 -67.798607 
L 161.852615 -68.689132 
L 161.683055 -69.684843 
L 161.513495 -70.367999 
L 161.343934 -70.953557 
L 161.174374 -71.564512 
L 161.004814 -72.431434 
L 160.835253 -74.145523 
L 160.665693 -75.51834 
L 160.496133 -76.768928 
L 160.326573 -79.031427 
L 160.157012 -81.345219 
L 159.987452 -84.181286 
L 159.817892 -87.137143 
L 159.648332 -90.299238 
L 159.478771 -93.034915 
L 159.309211 -94.378418 
L 159.139651 -93.940898 
L 158.970091 -90.172873 
L 158.80053 -83.730544 
L 158.63097 -78.431207 
L 158.46141 -74.630502 
L 158.29185 -71.616364 
L 158.122289 -69.695528 
L 157.952729 -68.50187 
L 157.783169 -67.590276 
L 157.613608 -66.827808 
L 157.444048 -66.346391 
L 157.274488 -65.762583 
L 157.104928 -65.272642 
L 156.935367 -64.904057 
L 156.765807 -64.693322 
L 156.596247 -64.484899 
L 156.426687 -64.361129 
L 156.257126 -64.17696 
L 156.087566 -64.03953 
L 155.918006 -63.915377 
L 155.748446 -63.636183 
L 155.578885 -63.428129 
L 155.409325 -63.301967 
L 155.239765 -63.130808 
L 155.070204 -63.131347 
L 154.900644 -62.950563 
L 154.731084 -62.724115 
L 154.561524 -62.589792 
L 154.391963 -62.5583 
L 154.222403 -62.576256 
L 154.052843 -62.583881 
L 153.883283 -62.441822 
L 153.713722 -62.439081 
L 153.544162 -62.296948 
L 153.374602 -62.12971 
L 153.205042 -62.070958 
L 153.035481 -62.058335 
L 152.865921 -61.970103 
L 152.696361 -61.925674 
L 152.526801 -61.869865 
L 152.35724 -61.789203 
L 152.18768 -61.738652 
L 152.01812 -61.659905 
L 151.848559 -61.729929 
L 151.678999 -61.638126 
L 151.509439 -61.664189 
L 151.339879 -61.558184 
L 151.170318 -61.535801 
L 151.000758 -61.448827 
L 150.831198 -61.408632 
L 150.661638 -61.334647 
L 150.492077 -61.293235 
L 150.322517 -61.289086 
L 150.152957 -61.356542 
L 149.983397 -61.263052 
L 149.813836 -61.225317 
L 149.644276 -61.281246 
L 149.474716 -61.261826 
L 149.305156 -61.24212 
L 149.135595 -61.272206 
L 148.966035 -61.39124 
L 148.796475 -61.488053 
L 148.626914 -61.260103 
L 148.457354 -61.366977 
L 148.287794 -61.460918 
L 148.118234 -61.564006 
L 147.948673 -61.799799 
L 147.779113 -61.734983 
L 147.609553 -61.861865 
L 147.439993 -61.882243 
L 147.270432 -62.08997 
L 147.100872 -62.036763 
L 146.931312 -62.037948 
L 146.761752 -62.039298 
L 146.592191 -61.99591 
L 146.422631 -62.077565 
L 146.253071 -62.094067 
L 146.08351 -62.2355 
L 145.91395 -62.404696 
L 145.74439 -62.487058 
L 145.57483 -62.533754 
L 145.405269 -62.952755 
L 145.235709 -63.323077 
L 145.066149 -63.203998 
L 144.896589 -63.252539 
L 144.727028 -63.61089 
L 144.557468 -64.239897 
L 144.387908 -64.253873 
L 144.218348 -64.417351 
L 144.048787 -65.147531 
L 143.879227 -65.092352 
L 143.709667 -65.678305 
L 143.540107 -66.473931 
L 143.370546 -67.029947 
L 143.200986 -67.647292 
L 143.031426 -68.339865 
L 142.861865 -68.817736 
L 142.692305 -69.42954 
L 142.522745 -70.307797 
L 142.353185 -71.02467 
L 142.183624 -72.447562 
L 142.014064 -73.387863 
L 141.844504 -74.467551 
L 141.674944 -75.923023 
L 141.505383 -77.465132 
L 141.335823 -79.820231 
L 141.166263 -82.496485 
L 140.996703 -84.90231 
L 140.827142 -87.952532 
L 140.657582 -91.258057 
L 140.488022 -93.989558 
L 140.318461 -94.943386 
L 140.148901 -93.170562 
L 139.979341 -88.329667 
L 139.809781 -82.007985 
L 139.64022 -76.629382 
L 139.47066 -73.164638 
L 139.3011 -70.709204 
L 139.13154 -69.204829 
L 138.961979 -68.109238 
L 138.792419 -67.324512 
L 138.622859 -66.453867 
L 138.453299 -65.899516 
L 138.283738 -65.337459 
L 138.114178 -64.961273 
L 137.944618 -64.743855 
L 137.775058 -64.462646 
L 137.605497 -64.274015 
L 137.435937 -64.257757 
L 137.266377 -63.981804 
L 137.096816 -63.742003 
L 136.927256 -63.628475 
L 136.757696 -63.410431 
L 136.588136 -63.272886 
L 136.418575 -63.28167 
L 136.249015 -63.025477 
L 136.079455 -62.941296 
L 135.909895 -62.833007 
L 135.740334 -62.66828 
L 135.570774 -62.470359 
L 135.401214 -62.343884 
L 135.231654 -62.330823 
L 135.062093 -62.377766 
L 134.892533 -62.365002 
L 134.722973 -62.225238 
L 134.553413 -62.185448 
L 134.383852 -62.140595 
L 134.214292 -61.972452 
L 134.044732 -61.968531 
L 133.875171 -62.042269 
L 133.705611 -61.986552 
L 133.536051 -61.908653 
L 133.366491 -61.895699 
L 133.19693 -61.750226 
L 133.02737 -61.733588 
L 132.85781 -61.7109 
L 132.68825 -61.712438 
L 132.518689 -61.705668 
L 132.349129 -61.550794 
L 132.179569 -61.510272 
L 132.010009 -61.574446 
L 131.840448 -61.593 
L 131.670888 -61.518506 
L 131.501328 -61.387928 
L 131.331767 -61.430445 
L 131.162207 -61.449029 
L 130.992647 -61.417164 
L 130.823087 -61.415469 
L 130.653526 -61.48252 
L 130.483966 -61.515934 
L 130.314406 -61.322594 
L 130.144846 -61.239785 
L 129.975285 -61.297289 
L 129.805725 -61.289746 
L 129.636165 -61.425828 
L 129.466605 -61.38294 
L 129.297044 -61.315366 
L 129.127484 -61.360224 
L 128.957924 -61.306445 
L 128.788364 -61.434746 
L 128.618803 -61.813284 
L 128.449243 -61.555391 
L 128.279683 -61.622394 
L 128.110122 -61.591591 
L 127.940562 -61.77945 
L 127.771002 -61.682428 
L 127.601442 -62.075801 
L 127.431881 -62.251742 
L 127.262321 -62.374322 
L 127.092761 -62.308091 
L 126.923201 -62.416893 
L 126.75364 -62.669208 
L 126.58408 -62.684657 
L 126.41452 -62.871473 
L 126.24496 -63.123169 
L 126.075399 -63.159197 
L 125.905839 -63.321174 
L 125.736279 -63.856445 
L 125.566719 -64.346429 
L 125.397158 -64.527968 
L 125.227598 -65.069256 
L 125.058038 -65.62617 
L 124.888477 -65.717717 
L 124.718917 -66.115056 
L 124.549357 -67.244647 
L 124.379797 -67.638791 
L 124.210236 -68.068378 
L 124.040676 -68.893248 
L 123.871116 -69.324085 
L 123.701556 -70.521598 
L 123.531995 -71.024473 
L 123.362435 -71.649654 
L 123.192875 -72.620359 
L 123.023315 -74.065097 
L 122.853754 -75.459453 
L 122.684194 -76.985085 
L 122.514634 -79.070463 
L 122.345073 -80.948922 
L 122.175513 -83.238554 
L 122.005953 -86.207361 
L 121.836393 -89.408013 
L 121.666832 -92.849583 
L 121.497272 -94.82722 
L 121.327712 -94.779385 
L 121.158152 -91.995918 
L 120.988591 -86.283051 
L 120.819031 -79.87634 
L 120.649471 -75.37062 
L 120.479911 -72.341286 
L 120.31035 -70.165237 
L 120.14079 -68.671094 
L 119.97123 -67.747942 
L 119.80167 -67.062173 
L 119.632109 -66.570591 
L 119.462549 -65.983778 
L 119.292989 -65.40524 
L 119.123428 -65.103061 
L 118.953868 -64.766089 
L 118.784308 -64.455557 
L 118.614748 -64.212194 
L 118.445187 -63.92881 
L 118.275627 -63.749541 
L 118.106067 -63.634138 
L 117.936507 -63.440101 
L 117.766946 -63.34536 
L 117.597386 -63.22012 
L 117.427826 -63.076653 
L 117.258266 -62.955896 
L 117.088705 -62.858602 
L 116.919145 -62.780588 
L 116.749585 -62.709305 
L 116.580024 -62.495187 
L 116.410464 -62.31314 
L 116.240904 -62.255514 
L 116.071344 -62.298819 
L 115.901783 -62.321932 
L 115.732223 -62.256449 
L 115.562663 -62.241328 
L 115.393103 -62.298726 
L 115.223542 -62.205522 
L 115.053982 -62.046357 
L 114.884422 -61.944413 
L 114.714862 -61.904408 
L 114.545301 -61.835509 
L 114.375741 -61.866492 
L 114.206181 -62.040518 
L 114.036621 -61.901592 
L 113.86706 -61.92103 
L 113.6975 -61.973299 
L 113.52794 -61.926493 
L 113.358379 -61.843203 
L 113.188819 -61.789419 
L 113.019259 -61.692476 
L 112.849699 -61.603379 
L 112.680138 -61.610036 
L 112.510578 -61.623065 
L 112.341018 -61.732445 
L 112.171458 -61.651435 
L 112.001897 -61.534084 
L 111.832337 -61.485461 
L 111.662777 -61.491979 
L 111.493217 -61.507375 
L 111.323656 -61.551734 
L 111.154096 -61.363781 
L 110.984536 -61.382697 
L 110.814976 -61.382885 
L 110.645415 -61.390356 
L 110.475855 -61.332004 
L 110.306295 -61.289445 
L 110.136734 -61.258705 
L 109.967174 -61.345701 
L 109.797614 -61.357513 
L 109.628054 -61.425232 
L 109.458493 -61.499747 
L 109.288933 -61.593052 
L 109.119373 -61.472875 
L 108.949813 -61.548222 
L 108.780252 -61.714103 
L 108.610692 -62.015314 
L 108.441132 -61.866393 
L 108.271572 -62.071694 
L 108.102011 -62.213843 
L 107.932451 -61.988714 
L 107.762891 -62.264561 
L 107.59333 -62.348305 
L 107.42377 -62.750742 
L 107.25421 -62.791147 
L 107.08465 -63.135862 
L 106.915089 -63.590239 
L 106.745529 -63.811895 
L 106.575969 -64.321085 
L 106.406409 -64.577355 
L 106.236848 -64.704351 
L 106.067288 -65.069127 
L 105.897728 -66.106586 
L 105.728168 -66.724732 
L 105.558607 -67.167873 
L 105.389047 -67.551274 
L 105.219487 -67.989823 
L 105.049927 -68.951706 
L 104.880366 -69.179875 
L 104.710806 -70.696669 
L 104.541246 -71.343252 
L 104.371685 -71.843131 
L 104.202125 -73.371854 
L 104.032565 -74.05661 
L 103.863005 -75.929372 
L 103.693444 -77.059631 
L 103.523884 -79.65701 
L 103.354324 -81.663477 
L 103.184764 -84.720157 
L 103.015203 -87.658265 
L 102.845643 -90.5368 
L 102.676083 -93.499848 
L 102.506523 -95.097487 
L 102.336962 -94.431668 
L 102.167402 -90.652362 
L 101.997842 -84.489937 
L 101.828281 -78.823438 
L 101.658721 -74.645442 
L 101.489161 -71.826168 
L 101.319601 -70.06033 
L 101.15004 -68.881677 
L 100.98048 -68.090974 
L 100.81092 -67.331845 
L 100.64136 -66.572892 
L 100.471799 -66.106857 
L 100.302239 -65.624539 
L 100.132679 -65.255307 
L 99.963119 -65.026813 
L 99.793558 -64.583887 
L 99.623998 -64.133998 
L 99.454438 -63.765802 
L 99.284878 -63.552897 
L 99.115317 -63.458998 
L 98.945757 -63.236929 
L 98.776197 -63.135554 
L 98.606636 -63.06025 
L 98.437076 -62.988754 
L 98.267516 -62.75691 
L 98.097956 -62.571441 
L 97.928395 -62.429514 
L 97.758835 -62.481934 
L 97.589275 -62.430324 
L 97.419715 -62.275156 
L 97.250154 -62.111335 
L 97.080594 -62.046025 
L 96.911034 -62.077863 
L 96.741474 -62.027211 
L 96.571913 -61.992688 
L 96.402353 -61.992816 
L 96.232793 -62.093945 
L 96.063233 -61.987891 
L 95.893672 -62.077643 
L 95.724112 -61.942493 
L 95.554552 -61.893245 
L 95.384991 -61.848644 
L 95.215431 -61.780759 
L 95.045871 -61.85705 
L 94.876311 -61.793231 
L 94.70675 -61.725373 
L 94.53719 -61.782844 
L 94.36763 -61.774769 
L 94.19807 -61.721124 
L 94.028509 -61.782705 
L 93.858949 -61.725654 
L 93.689389 -61.775863 
L 93.519829 -61.719177 
L 93.350268 -61.727452 
L 93.180708 -61.692514 
L 93.011148 -61.72973 
L 92.841587 -61.604647 
L 92.672027 -61.691795 
L 92.502467 -61.66544 
L 92.332907 -61.773751 
L 92.163346 -61.763433 
L 91.993786 -61.705769 
L 91.824226 -61.778444 
L 91.654666 -61.860139 
L 91.485105 -61.851079 
L 91.315545 -61.913204 
L 91.145985 -61.993041 
L 90.976425 -61.904399 
L 90.806864 -61.899603 
L 90.637304 -62.050287 
L 90.467744 -62.022445 
L 90.298184 -62.1456 
L 90.128623 -62.17087 
L 89.959063 -62.081837 
L 89.789503 -62.365792 
L 89.619942 -62.530882 
L 89.450382 -62.45542 
L 89.280822 -62.4555 
L 89.111262 -62.441423 
L 88.941701 -62.433612 
L 88.772141 -62.724305 
L 88.602581 -63.040319 
L 88.433021 -63.268677 
L 88.26346 -63.51816 
L 88.0939 -63.827373 
L 87.92434 -63.627127 
L 87.75478 -64.020784 
L 87.585219 -64.011659 
L 87.415659 -64.827873 
L 87.246099 -65.524085 
L 87.076539 -65.541928 
L 86.906978 -66.097563 
L 86.737418 -66.702097 
L 86.567858 -67.149836 
L 86.398297 -67.474665 
L 86.228737 -68.478233 
L 86.059177 -69.044829 
L 85.889617 -69.472953 
L 85.720056 -70.817003 
L 85.550496 -71.444378 
L 85.380936 -72.286853 
L 85.211376 -73.383914 
L 85.041815 -74.911544 
L 84.872255 -76.116675 
L 84.702695 -77.603335 
L 84.533135 -79.863212 
L 84.363574 -82.271238 
L 84.194014 -85.135512 
L 84.024454 -88.287393 
L 83.854893 -91.404788 
L 83.685333 -94.063485 
L 83.515773 -94.613141 
L 83.346213 -93.127707 
L 83.176652 -88.061798 
L 83.007092 -81.48419 
L 82.837532 -76.368917 
L 82.667972 -72.780522 
L 82.498411 -70.57566 
L 82.328851 -69.137086 
L 82.159291 -68.052511 
L 81.989731 -67.442692 
L 81.82017 -66.627473 
L 81.65061 -66.018277 
L 81.48105 -65.360479 
L 81.31149 -65.018037 
L 81.141929 -64.95881 
L 80.972369 -64.693053 
L 80.802809 -64.444001 
L 80.633248 -64.388664 
L 80.463688 -64.160189 
L 80.294128 -63.988345 
L 80.124568 -63.909183 
L 79.955007 -63.755962 
L 79.785447 -63.498814 
L 79.615887 -63.355066 
L 79.446327 -63.29412 
L 79.276766 -63.295047 
L 79.107206 -63.273302 
L 78.937646 -63.319711 
L 78.768086 -63.182457 
L 78.598525 -63.082865 
L 78.428965 -62.973893 
L 78.259405 -62.786231 
L 78.089844 -62.707399 
L 77.920284 -62.77422 
L 77.750724 -62.763888 
L 77.581164 -62.752493 
L 77.411603 -62.796609 
L 77.242043 -62.72823 
L 77.072483 -62.67137 
L 76.902923 -62.44873 
L 76.733362 -62.333851 
L 76.563802 -62.27787 
L 76.394242 -62.191604 
L 76.224682 -62.045111 
L 76.055121 -61.931921 
L 75.885561 -61.758991 
L 75.716001 -61.637596 
L 75.546441 -61.496682 
L 75.37688 -61.387028 
L 75.20732 -61.364145 
L 75.03776 -61.277186 
L 74.868199 -61.148127 
L 74.698639 -61.175814 
L 74.529079 -61.098891 
L 74.359519 -61.038385 
L 74.189958 -61.091516 
L 74.020398 -61.125624 
L 73.850838 -61.06176 
L 73.681278 -61.08593 
L 73.511717 -61.047543 
L 73.342157 -61.12132 
L 73.172597 -61.144451 
L 73.003037 -61.084051 
L 72.833476 -61.106258 
L 72.663916 -61.233319 
L 72.494356 -61.459508 
L 72.324796 -61.486705 
L 72.155235 -61.599106 
L 71.985675 -61.729057 
L 71.816115 -61.472445 
L 71.646554 -61.431975 
L 71.476994 -61.515008 
L 71.307434 -61.609395 
L 71.137874 -61.701967 
L 70.968313 -61.728794 
L 70.798753 -61.626146 
L 70.629193 -61.723289 
L 70.459633 -61.922606 
L 70.290072 -62.162984 
L 70.120512 -62.013383 
L 69.950952 -62.187908 
L 69.781392 -62.366191 
L 69.611831 -62.449513 
L 69.442271 -62.780723 
L 69.272711 -62.690746 
L 69.10315 -63.432389 
L 68.93359 -63.710641 
L 68.76403 -64.001177 
L 68.59447 -64.359649 
L 68.424909 -64.319491 
L 68.255349 -65.040569 
L 68.085789 -65.622154 
L 67.916229 -65.660448 
L 67.746668 -66.301135 
L 67.577108 -66.886262 
L 67.407548 -67.191968 
L 67.237988 -68.076737 
L 67.068427 -68.958049 
L 66.898867 -69.995595 
L 66.729307 -70.13034 
L 66.559747 -71.139749 
L 66.390186 -72.341756 
L 66.220626 -73.502011 
L 66.051066 -74.619273 
L 65.881505 -76.337053 
L 65.711945 -77.833305 
L 65.542385 -79.739144 
L 65.372825 -82.46902 
L 65.203264 -85.107445 
L 65.033704 -88.569088 
L 64.864144 -91.599417 
L 64.694584 -94.425421 
L 64.525023 -95.374659 
L 64.355463 -93.34042 
L 64.185903 -88.715824 
L 64.016343 -81.980999 
L 63.846782 -76.461994 
L 63.677222 -72.801176 
L 63.507662 -70.341984 
L 63.338102 -69.078137 
L 63.168541 -67.983352 
L 62.998981 -67.279856 
L 62.829421 -66.513477 
L 62.65986 -65.983552 
L 62.4903 -65.685499 
L 62.32074 -65.358225 
L 62.15118 -65.055527 
L 61.981619 -64.69231 
L 61.812059 -64.363309 
L 61.642499 -64.169131 
L 61.472939 -64.262907 
L 61.303378 -63.967599 
L 61.133818 -63.650396 
L 60.964258 -63.552073 
L 60.794698 -63.392152 
L 60.625137 -63.249591 
L 60.455577 -63.10341 
L 60.286017 -62.995752 
L 60.116456 -62.933537 
L 59.946896 -62.798973 
L 59.777336 -62.576487 
L 59.607776 -62.540186 
L 59.438215 -62.578534 
L 59.268655 -62.401447 
L 59.099095 -62.34563 
L 58.929535 -62.31808 
L 58.759974 -62.361679 
L 58.590414 -62.223795 
L 58.420854 -62.177449 
L 58.251294 -62.003723 
L 58.081733 -61.999014 
L 57.912173 -61.879323 
L 57.742613 -61.864813 
L 57.573053 -61.936716 
L 57.403492 -61.915354 
L 57.233932 -61.731482 
L 57.064372 -61.528907 
L 56.894811 -61.415251 
L 56.725251 -61.496914 
L 56.555691 -61.533301 
L 56.386131 -61.424029 
L 56.21657 -61.180225 
L 56.04701 -61.03423 
L 55.87745 -60.896138 
L 55.70789 -60.745249 
L 55.538329 -60.58771 
L 55.368769 -60.511346 
L 55.199209 -60.617427 
L 55.029649 -60.430466 
L 54.860088 -60.354742 
L 54.690528 -60.273165 
L 54.520968 -60.204862 
L 54.351407 -60.123012 
L 54.181847 -60.152403 
L 54.012287 -60.043346 
L 53.842727 -59.86101 
L 53.673166 -59.740551 
L 53.503606 -59.658563 
L 53.334046 -59.624388 
L 53.164486 -59.537833 
L 52.994925 -59.290416 
L 52.825365 -59.151371 
L 52.655805 -59.029658 
L 52.486245 -58.87395 
L 52.316684 -58.755162 
L 52.147124 -58.6162 
L 51.977564 -58.414467 
L 51.808004 -58.159869 
L 51.638443 -57.946369 
L 51.468883 -57.7684 
L 51.299323 -57.689721 
L 51.129762 -57.573227 
L 50.960202 -57.362111 
L 50.790642 -57.246806 
L 50.621082 -56.988634 
L 50.451521 -56.856283 
L 50.281961 -56.693984 
L 50.112401 -56.514326 
L 49.942841 -56.234401 
L 49.77328 -55.909046 
L 49.60372 -55.677461 
L 49.43416 -55.374932 
L 49.2646 -55.028629 
L 49.095039 -54.722224 
L 48.925479 -54.386991 
L 48.755919 -53.996733 
L 48.586359 -53.741992 
L 48.416798 -53.209087 
L 48.247238 -52.715676 
L 48.077678 -52.250175 
L 47.908117 -51.6611 
L 47.738557 -51.020315 
L 47.568997 -50.374666 
L 47.399437 -49.637842 
L 47.229876 -48.590587 
L 47.060316 -47.499355 
L 46.890756 -46.417059 
L 46.721196 -45.15411 
L 46.551635 -43.59397 
L 46.382075 -41.916747 
L 46.212515 -39.81319 
L 46.042955 -36.975994 
z
" style="stroke: #3b4cc0; stroke-opacity: 0.2"/>
    </defs>
    <g clip-path="url(#p0773ed802b)">
     <use xlink:href="#m84f96509fc" x="0" y="105.54375" style="fill: #3b4cc0; fill-opacity: 0.2; stroke: #3b4cc0; stroke-opacity: 0.2"/>
    </g>
   </g>
   <g id="matplotlib.axis_1">
    <g id="xtick_1">
     <g id="line2d_1">
      <defs>
       <path id="mba5ba5aaa5" d="M 0 0 
L 0 3.5 
" style="stroke: #000000; stroke-width: 1.5"/>
      </defs>
      <g>
       <use xlink:href="#mba5ba5aaa5" x="46.042955" y="72.52" style="stroke: #000000; stroke-width: 1.5"/>
      </g>
     </g>
     <g id="text_1">
      <text style="font: 8px 'Arial', sans-serif, serif; text-anchor: middle" x="46.042955" y="85.24625" transform="rotate(-0 46.042955 85.24625)">0</text>
     </g>
    </g>
    <g id="xtick_2">
     <g id="line2d_2">
      <g>
       <use xlink:href="#mba5ba5aaa5" x="79.955007" y="72.52" style="stroke: #000000; stroke-width: 1.5"/>
      </g>
     </g>
     <g id="text_2">
      <text style="font: 8px 'Arial', sans-serif, serif; text-anchor: middle" x="79.955007" y="85.24625" transform="rotate(-0 79.955007 85.24625)">5</text>
     </g>
    </g>
    <g id="xtick_3">
     <g id="line2d_3">
      <g>
       <use xlink:href="#mba5ba5aaa5" x="113.86706" y="72.52" style="stroke: #000000; stroke-width: 1.5"/>
      </g>
     </g>
     <g id="text_3">
      <text style="font: 8px 'Arial', sans-serif, serif; text-anchor: middle" x="113.86706" y="85.24625" transform="rotate(-0 113.86706 85.24625)">10</text>
     </g>
    </g>
    <g id="xtick_4">
     <g id="line2d_4">
      <g>
       <use xlink:href="#mba5ba5aaa5" x="147.779113" y="72.52" style="stroke: #000000; stroke-width: 1.5"/>
      </g>
     </g>
     <g id="text_4">
      <text style="font: 8px 'Arial', sans-serif, serif; text-anchor: middle" x="147.779113" y="85.24625" transform="rotate(-0 147.779113 85.24625)">15</text>
     </g>
    </g>
    <g id="xtick_5">
     <g id="line2d_5">
      <g>
       <use xlink:href="#mba5ba5aaa5" x="181.691166" y="72.52" style="stroke: #000000; stroke-width: 1.5"/>
      </g>
     </g>
     <g id="text_5">
      <text style="font: 8px 'Arial', sans-serif, serif; text-anchor: middle" x="181.691166" y="85.24625" transform="rotate(-0 181.691166 85.24625)">20</text>
     </g>
    </g>
    <g id="text_6">
     <text style="font: 8px 'Arial', sans-serif, serif; text-anchor: middle" x="113.6975" y="96.66" transform="rotate(-0 113.6975 96.66)">Time (ms)</text>
    </g>
   </g>
   <g id="matplotlib.axis_2">
    <g id="ytick_1">
     <g id="line2d_6">
      <defs>
       <path id="mf033f1e168" d="M 0 0 
L -3.5 0 
" style="stroke: #000000; stroke-width: 1.5"/>
      </defs>
      <g>
       <use xlink:href="#mf033f1e168" x="39.2775" y="61.459598" style="stroke: #000000; stroke-width: 1.5"/>
      </g>
     </g>
     <g id="text_7">
      <text style="font: 8px 'Arial', sans-serif, serif; text-anchor: end" x="32.2775" y="64.322723" transform="rotate(-0 32.2775 64.322723)">−75</text>
     </g>
    </g>
    <g id="ytick_2">
     <g id="line2d_7">
      <g>
       <use xlink:href="#mf033f1e168" x="39.2775" y="44.424257" style="stroke: #000000; stroke-width: 1.5"/>
      </g>
     </g>
     <g id="text_8">
      <text style="font: 8px 'Arial', sans-serif, serif; text-anchor: end" x="32.2775" y="47.287382" transform="rotate(-0 32.2775 47.287382)">−50</text>
     </g>
    </g>
    <g id="ytick_3">
     <g id="line2d_8">
      <g>
       <use xlink:href="#mf033f1e168" x="39.2775" y="27.388916" style="stroke: #000000; stroke-width: 1.5"/>
      </g>
     </g>
     <g id="text_9">
      <text style="font: 8px 'Arial', sans-serif, serif; text-anchor: end" x="32.2775" y="30.252041" transform="rotate(-0 32.2775 30.252041)">−25</text>
     </g>
    </g>
    <g id="ytick_4">
     <g id="line2d_9">
      <g>
       <use xlink:href="#mf033f1e168" x="39.2775" y="10.353575" style="stroke: #000000; stroke-width: 1.5"/>
      </g>
     </g>
     <g id="text_10">
      <text style="font: 8px 'Arial', sans-serif, serif; text-anchor: end" x="32.2775" y="13.2167" transform="rotate(-0 32.2775 13.2167)">0</text>
     </g>
    </g>
    <g id="text_11">
     <text style="font: 8px 'Arial', sans-serif, serif; text-anchor: middle" x="13.02375" y="39.86" transform="rotate(-90 13.02375 39.86)">V (mV)</text>
    </g>
   </g>
   <g id="line2d_10">
    <path d="M 46.042955 69.059333 
L 46.382075 64.253259 
L 47.060316 58.836904 
L 47.568997 55.999101 
L 48.416798 53.214092 
L 48.755919 52.462174 
L 49.43416 51.120844 
L 50.112401 50.172424 
L 50.451521 49.991242 
L 50.621082 49.886617 
L 50.960202 49.518754 
L 51.299323 49.244975 
L 51.638443 48.961301 
L 52.147124 48.470274 
L 52.825365 48.041597 
L 53.503606 47.62265 
L 53.842727 47.403372 
L 54.181847 47.138661 
L 54.351407 47.206519 
L 55.199209 46.675991 
L 55.368769 46.854956 
L 56.21657 46.205826 
L 56.555691 45.891648 
L 56.894811 46.031488 
L 57.573053 45.472143 
L 57.912173 45.497421 
L 58.081733 45.352475 
L 58.251294 45.362104 
L 58.420854 45.157271 
L 58.590414 45.129599 
L 58.759974 44.976535 
L 59.099095 44.991121 
L 59.268655 44.927792 
L 59.438215 44.733562 
L 59.777336 44.751914 
L 60.116456 44.390275 
L 60.455577 44.223037 
L 61.303378 43.34852 
L 61.472939 43.062503 
L 61.642499 43.178772 
L 61.981619 42.620959 
L 62.829421 40.81258 
L 63.338102 38.267371 
L 63.507662 37.01562 
L 63.846782 30.916035 
L 64.525023 12.017217 
L 64.694584 12.980726 
L 65.881505 31.284493 
L 66.220626 34.152176 
L 66.729307 37.591452 
L 66.898867 37.772219 
L 67.407548 40.558852 
L 67.577108 40.857915 
L 67.916229 42.077766 
L 68.085789 42.093124 
L 68.424909 43.342184 
L 68.59447 43.268581 
L 69.272711 44.854253 
L 69.442271 44.715405 
L 69.611831 45.023667 
L 69.781392 45.068755 
L 70.120512 45.389125 
L 70.290072 45.216498 
L 70.629193 45.622309 
L 70.798753 45.691411 
L 70.968313 45.568684 
L 71.307434 45.682124 
L 71.646554 45.832406 
L 71.816115 45.774244 
L 71.985675 45.514117 
L 72.833476 46.10761 
L 75.03776 45.911512 
L 75.885561 45.582236 
L 76.394242 45.209316 
L 76.902923 44.972033 
L 77.072483 44.73273 
L 78.259405 44.548989 
L 78.598525 44.245234 
L 79.107206 44.050589 
L 79.785447 43.76355 
L 80.124568 43.36705 
L 80.463688 43.105914 
L 80.633248 42.874873 
L 80.802809 42.83669 
L 81.141929 42.307652 
L 81.31149 42.266554 
L 81.48105 41.901422 
L 82.328851 38.165285 
L 82.667972 34.551697 
L 83.007092 25.881263 
L 83.346213 14.250011 
L 83.515773 12.761125 
L 83.685333 13.319252 
L 84.872255 31.505732 
L 85.550496 36.364147 
L 85.720056 36.961101 
L 85.889617 38.314 
L 86.228737 39.263034 
L 86.398297 40.267145 
L 86.737418 41.048374 
L 87.076539 42.168903 
L 87.246099 42.158016 
L 87.585219 43.642054 
L 87.75478 43.604623 
L 87.92434 43.986542 
L 88.0939 43.750051 
L 88.941701 45.046513 
L 89.619942 44.856487 
L 89.959063 45.291859 
L 90.298184 45.164327 
L 90.467744 45.288558 
L 90.637304 45.238949 
L 90.806864 45.389641 
L 91.315545 45.342544 
L 91.993786 45.524471 
L 92.332907 45.433433 
L 92.502467 45.554812 
L 92.672027 45.510761 
L 92.841587 45.601765 
L 93.011148 45.454081 
L 93.519829 45.463794 
L 93.689389 45.402643 
L 93.858949 45.471402 
L 94.028509 45.39792 
L 94.19807 45.470406 
L 94.53719 45.398724 
L 94.70675 45.469076 
L 95.045871 45.315952 
L 95.215431 45.415499 
L 95.893672 45.098689 
L 96.063233 45.224524 
L 96.232793 45.085826 
L 96.402353 45.217934 
L 97.250154 45.074994 
L 97.589275 44.761771 
L 98.097956 44.63614 
L 98.606636 44.190557 
L 98.945757 44.013397 
L 99.793558 42.739806 
L 100.81092 40.155493 
L 101.15004 38.633594 
L 101.489161 35.682817 
L 101.828281 28.690586 
L 102.336962 13.033862 
L 102.506523 12.350351 
L 102.676083 13.943941 
L 103.693444 30.549129 
L 104.880366 38.709874 
L 105.049927 38.970203 
L 105.389047 40.331463 
L 105.728168 41.069433 
L 105.897728 41.662502 
L 106.067288 42.681984 
L 106.406409 43.094661 
L 106.575969 43.314081 
L 106.915089 43.97371 
L 107.25421 44.720033 
L 107.42377 44.727926 
L 107.59333 45.120265 
L 107.762891 45.167205 
L 107.932451 45.427583 
L 108.102011 45.167504 
L 108.441132 45.491065 
L 108.610692 45.306715 
L 108.949813 45.738767 
L 109.119373 45.786292 
L 109.288933 45.644803 
L 109.797614 45.867442 
L 111.154096 45.834698 
L 111.323656 45.637329 
L 111.832337 45.697085 
L 112.341018 45.445556 
L 112.510578 45.5936 
L 113.019259 45.467051 
L 113.52794 45.251819 
L 113.86706 45.284267 
L 114.036621 45.298152 
L 114.206181 45.141569 
L 114.375741 45.348527 
L 114.884422 45.225548 
L 115.393103 44.89358 
L 115.732223 44.948815 
L 116.071344 44.912242 
L 116.240904 44.956995 
L 116.580024 44.679678 
L 116.919145 44.447799 
L 117.427826 44.154071 
L 118.614748 43.040379 
L 118.953868 42.504024 
L 119.462549 41.289561 
L 119.97123 39.557051 
L 120.31035 37.1553 
L 120.649471 31.978413 
L 120.988591 21.08421 
L 121.327712 12.583793 
L 121.497272 12.540375 
L 121.666832 14.517563 
L 122.345073 26.533672 
L 123.192875 35.058646 
L 123.531995 36.756524 
L 123.701556 37.266207 
L 124.040676 38.918099 
L 124.379797 40.186133 
L 124.549357 40.541818 
L 124.888477 42.061534 
L 125.058038 42.119922 
L 125.397158 43.15571 
L 125.566719 43.296736 
L 126.075399 44.39575 
L 126.24496 44.405424 
L 126.58408 44.797141 
L 126.75364 44.782146 
L 127.092761 45.099696 
L 127.262321 45.006443 
L 127.601442 45.278598 
L 127.771002 45.670479 
L 127.940562 45.541094 
L 128.110122 45.70474 
L 128.279683 45.654596 
L 128.449243 45.722726 
L 128.618803 45.464436 
L 128.788364 45.860366 
L 128.957924 45.930181 
L 129.636165 45.75241 
L 129.805725 45.918113 
L 130.314406 45.835084 
L 130.483966 45.629149 
L 130.992647 45.755018 
L 131.331767 45.733674 
L 131.501328 45.784707 
L 131.840448 45.547333 
L 132.349129 45.604556 
L 132.518689 45.433715 
L 133.02737 45.441009 
L 133.19693 45.421586 
L 133.366491 45.259052 
L 133.705611 45.186755 
L 133.875171 45.140975 
L 134.214292 45.215614 
L 134.383852 45.021574 
L 134.722973 44.965628 
L 134.892533 44.814501 
L 135.401214 44.856157 
L 137.266377 43.252378 
L 137.435937 42.982431 
L 137.605497 42.994095 
L 138.114178 42.307341 
L 138.453299 41.371412 
L 138.792419 39.96401 
L 139.13154 38.105668 
L 139.47066 34.167426 
L 139.809781 25.350288 
L 140.148901 14.197855 
L 140.318461 12.418619 
L 140.488022 13.381871 
L 141.674944 31.557809 
L 142.353185 36.606831 
L 143.709667 42.058356 
L 143.879227 42.620465 
L 144.048787 42.533822 
L 144.218348 43.247744 
L 144.387908 43.364667 
L 144.557468 43.340839 
L 144.896589 44.266141 
L 145.066149 44.284472 
L 145.235709 44.140199 
L 145.57483 44.90127 
L 145.91395 44.97801 
L 146.253071 45.264549 
L 147.270432 45.19788 
L 147.439993 45.416516 
L 147.609553 45.407736 
L 147.779113 45.527247 
L 147.948673 45.446286 
L 148.287794 45.765937 
L 148.626914 45.951497 
L 148.796475 45.718062 
L 149.474716 45.90026 
L 151.339879 45.61876 
L 151.509439 45.501202 
L 151.678999 45.557245 
L 151.848559 45.445121 
L 152.01812 45.538316 
L 152.526801 45.30267 
L 153.374602 45.056782 
L 153.713722 44.744625 
L 153.883283 44.77667 
L 154.052843 44.610952 
L 154.561524 44.608408 
L 156.765807 42.536353 
L 156.935367 42.335154 
L 157.274488 41.48192 
L 157.783169 39.674199 
L 158.122289 37.590289 
L 158.46141 32.682026 
L 158.80053 23.604254 
L 159.139651 13.40207 
L 159.309211 12.966018 
L 159.478771 14.311874 
L 160.665693 32.060772 
L 161.174374 36.129551 
L 161.852615 39.049427 
L 162.191736 40.655498 
L 162.361296 40.932456 
L 162.869977 42.635229 
L 163.039537 42.493174 
L 163.209097 42.705473 
L 163.717778 44.000953 
L 164.056898 44.486681 
L 164.226459 45.131116 
L 165.07426 45.303219 
L 165.24382 45.260972 
L 165.413381 45.419514 
L 165.582941 45.398933 
L 165.752501 45.55075 
L 165.922061 45.536414 
L 166.091622 45.334607 
L 166.430742 45.599387 
L 166.769863 45.613598 
L 166.939423 45.599356 
L 167.278544 45.453642 
L 167.956785 45.544782 
L 168.295905 45.502486 
L 168.804586 45.594749 
L 169.143706 45.685262 
L 169.482827 45.777669 
L 169.652387 45.671804 
L 169.991508 45.750285 
L 170.161068 45.610834 
L 170.500189 45.712942 
L 170.669749 45.742755 
L 171.68711 45.113283 
L 172.195791 44.817724 
L 172.365351 44.950391 
L 173.213153 44.63268 
L 173.721834 44.146787 
L 174.230514 43.944456 
L 174.400075 43.704845 
L 174.908755 43.610617 
L 175.586996 43.082406 
L 176.434798 41.283919 
L 176.773918 39.891407 
L 177.113039 37.558601 
L 177.452159 32.561603 
L 178.1304 13.326901 
L 178.299961 13.797573 
L 178.639081 18.907343 
L 179.147762 27.704544 
L 179.826003 34.986419 
L 179.995563 35.804316 
L 180.165124 37.693028 
L 180.334684 38.071506 
L 181.182485 42.030099 
L 181.352045 40.602602 
L 181.352045 40.602602 
" clip-path="url(#p0773ed802b)" style="fill: none; stroke: #3b4cc0; stroke-width: 2; stroke-linecap: square"/>
   </g>
   <g id="line2d_11">
    <path d="M 46.042955 68.153035 
L 46.721196 60.352 
L 47.399437 54.977209 
L 48.077678 51.085871 
L 48.925479 47.551936 
L 49.77328 44.98405 
L 50.621082 43.047047 
L 51.638443 41.252558 
L 52.994925 39.364689 
L 55.199209 36.761471 
L 61.303378 29.9457 
L 62.829421 28.642322 
L 64.016343 27.896927 
L 65.203264 27.419734 
L 66.390186 27.211309 
L 67.577108 27.247643 
L 68.93359 27.536897 
L 70.629193 28.166592 
L 73.172597 29.405326 
L 77.920284 31.741846 
L 80.633248 32.80347 
L 83.346213 33.620185 
L 86.228737 34.252486 
L 89.619942 34.757818 
L 93.858949 35.144853 
L 99.454438 35.416834 
L 108.271572 35.597383 
L 125.905839 35.693224 
L 181.352045 35.719382 
L 181.352045 35.719382 
" clip-path="url(#p0773ed802b)" style="fill: none; stroke: #b40426; stroke-width: 2; stroke-linecap: square"/>
   </g>
   <g id="line2d_12">
    <path d="M 46.042955 68.22784 
L 46.551635 62.619321 
L 47.229876 57.795238 
L 47.908117 54.741294 
L 48.586359 52.712225 
L 49.2646 51.296442 
L 50.112401 50.040685 
L 51.129762 48.97253 
L 52.316684 48.066822 
L 53.842727 47.196804 
L 56.04701 46.22491 
L 59.777336 44.632545 
L 60.964258 43.865467 
L 61.642499 43.221095 
L 62.15118 42.526454 
L 62.65986 41.458533 
L 62.998981 40.318061 
L 63.338102 38.409577 
L 63.677222 34.594763 
L 64.016343 25.580414 
L 64.355463 13.624949 
L 64.525023 12.130626 
L 64.694584 13.299357 
L 66.051066 32.865885 
L 66.729307 37.175485 
L 67.407548 40.073979 
L 68.085789 42.144926 
L 68.76403 43.573955 
L 69.442271 44.509305 
L 70.120512 45.094699 
L 70.968313 45.50521 
L 71.985675 45.71284 
L 73.342157 45.723207 
L 75.20732 45.474945 
L 77.242043 44.973431 
L 78.768086 44.394818 
L 79.785447 43.816939 
L 80.633248 43.078035 
L 81.141929 42.400888 
L 81.65061 41.349181 
L 81.989731 40.221771 
L 82.328851 38.337552 
L 82.667972 34.600969 
L 83.007092 25.908914 
L 83.346213 14.213606 
L 83.515773 12.598833 
L 83.685333 13.640429 
L 85.041815 32.831753 
L 85.720056 37.11247 
L 86.398297 39.992536 
L 87.076539 42.056136 
L 87.75478 43.488566 
L 88.433021 44.433088 
L 89.111262 45.028955 
L 89.959063 45.451206 
L 90.976425 45.669668 
L 92.332907 45.689617 
L 94.028509 45.479105 
L 96.063233 44.998711 
L 97.589275 44.44065 
L 98.776197 43.772161 
L 99.623998 43.00962 
L 100.132679 42.302312 
L 100.64136 41.186896 
L 100.98048 39.967982 
L 101.319601 37.879544 
L 101.658721 33.59432 
L 101.997842 23.707986 
L 102.336962 13.29303 
L 102.506523 12.733593 
L 102.676083 14.381605 
L 103.863005 31.883575 
L 104.371685 35.574087 
L 105.049927 38.912808 
L 105.728168 41.283336 
L 106.406409 42.960253 
L 107.08465 44.08952 
L 107.762891 44.814611 
L 108.441132 45.260904 
L 109.288933 45.564147 
L 110.306295 45.699123 
L 111.662777 45.65798 
L 113.52794 45.368465 
L 115.393103 44.873643 
L 116.919145 44.248508 
L 117.936507 43.599623 
L 118.614748 42.940091 
L 119.123428 42.199021 
L 119.632109 41.011185 
L 119.97123 39.685645 
L 120.31035 37.351573 
L 120.649471 32.391215 
L 121.327712 12.762126 
L 121.497272 13.125622 
L 121.836393 18.19319 
L 122.514634 29.003973 
L 123.023315 33.73143 
L 123.701556 37.682289 
L 124.379797 40.39886 
L 125.058038 42.342873 
L 125.736279 43.680611 
L 126.41452 44.555616 
L 127.092761 45.103788 
L 127.940562 45.488107 
L 128.957924 45.680139 
L 130.314406 45.681021 
L 132.179569 45.424944 
L 134.214292 44.90934 
L 135.740334 44.304169 
L 136.757696 43.684958 
L 137.435937 43.066717 
L 137.944618 42.386277 
L 138.453299 41.327263 
L 138.792419 40.189275 
L 139.13154 38.281681 
L 139.47066 34.483328 
L 139.809781 25.649202 
L 140.148901 14.086703 
L 140.318461 12.609266 
L 140.488022 13.731884 
L 141.844504 32.88913 
L 142.522745 37.147251 
L 143.200986 40.016411 
L 143.879227 42.07232 
L 144.557468 43.498852 
L 145.235709 44.439168 
L 145.91395 45.032234 
L 146.761752 45.452335 
L 147.779113 45.669365 
L 149.135595 45.688328 
L 150.831198 45.477122 
L 152.865921 44.99588 
L 154.391963 44.43657 
L 155.578885 43.765832 
L 156.426687 42.999507 
L 156.935367 42.287409 
L 157.444048 41.161813 
L 157.783169 39.928087 
L 158.122289 37.806016 
L 158.46141 33.42915 
L 158.80053 23.364439 
L 159.139651 13.18936 
L 159.309211 12.775992 
L 159.648332 17.276672 
L 160.326573 28.388775 
L 160.835253 33.353659 
L 161.513495 37.440155 
L 162.191736 40.225521 
L 162.869977 42.220513 
L 163.548218 43.598625 
L 164.226459 44.503209 
L 164.9047 45.071667 
L 165.752501 45.472144 
L 166.769863 45.675473 
L 168.126345 45.684546 
L 169.821947 45.466419 
L 171.856671 44.97799 
L 173.382713 44.409465 
L 174.400075 43.842639 
L 175.247876 43.122022 
L 175.756557 42.46676 
L 176.265238 41.459639 
L 176.604358 40.394467 
L 176.943479 38.64528 
L 177.282599 35.26308 
L 177.62172 27.450014 
L 177.96084 15.211602 
L 178.1304 12.717155 
L 178.299961 13.202797 
L 178.639081 18.353681 
L 179.317322 29.107268 
L 179.826003 33.79528 
L 180.504244 37.723571 
L 181.182485 40.428456 
L 181.352045 40.976626 
L 181.352045 40.976626 
" clip-path="url(#p0773ed802b)" style="fill: none; stroke-dasharray: 5.55,2.4; stroke-dashoffset: 0; stroke: #000000; stroke-width: 1.5"/>
   </g>
   <g id="patch_3">
    <path d="M 39.2775 72.52 
L 39.2775 7.2 
" style="fill: none; stroke: #000000; stroke-width: 1.5; stroke-linejoin: miter; stroke-linecap: square"/>
   </g>
   <g id="patch_4">
    <path d="M 39.2775 72.52 
L 188.1175 72.52 
" style="fill: none; stroke: #000000; stroke-width: 1.5; stroke-linejoin: miter; stroke-linecap: square"/>
   </g>
  </g>
 </g>
 <defs>
  <clipPath id="p0773ed802b">
   <rect x="39.2775" y="7.2" width="148.84" height="65.32"/>
  </clipPath>
 </defs>
</svg>
