<?xml version="1.0" encoding="utf-8" standalone="no"?>
<!DOCTYPE svg PUBLIC "-//W3C//DTD SVG 1.1//EN"
  "http://www.w3.org/Graphics/SVG/1.1/DTD/svg11.dtd">
<svg xmlns:xlink="http://www.w3.org/1999/xlink" width="195.3175pt" height="106.079797pt" viewBox="0 0 195.3175 106.079797" xmlns="http://www.w3.org/2000/svg" version="1.1">
 <metadata>
  <rdf:RDF xmlns:dc="http://purl.org/dc/elements/1.1/" xmlns:cc="http://creativecommons.org/ns#" xmlns:rdf="http://www.w3.org/1999/02/22-rdf-syntax-ns#">
   <cc:Work>
    <dc:type rdf:resource="http://purl.org/dc/dcmitype/StillImage"/>
    <dc:date>2025-10-29T07:10:20.111312</dc:date>
    <dc:format>image/svg+xml</dc:format>
    <dc:creator>
     <cc:Agent>
      <dc:title>Matplotlib v3.9.2, https://matplotlib.org/</dc:title>
     </cc:Agent>
    </dc:creator>
   </cc:Work>
  </rdf:RDF>
 </metadata>
 <defs>
  <style type="text/css">*{stroke-linejoin: round; stroke-linecap: butt}</style>
 </defs>
 <g id="figure_1">
  <g id="patch_1">
   <path d="M 0 106.079797 
L 195.3175 106.079797 
L 195.3175 0 
L 0 0 
z
" style="fill: #ffffff"/>
  </g>
  <g id="axes_1">
   <g id="patch_2">
    <path d="M 39.2775 73.056047 
L 188.1175 73.056047 
L 188.1175 8.08858 
L 39.2775 8.08858 
z
" style="fill: #ffffff"/>
   </g>
   <g id="PolyCollection_1">
    <defs>
     <path id="mfc5a3c3360" d="M 46.042955 -38.26826 
L 46.042955 -37.683016 
L 46.212515 -37.660364 
L 46.382075 -37.627458 
L 46.551635 -37.56327 
L 46.721196 -37.57189 
L 46.890756 -37.523212 
L 47.060316 -37.476148 
L 47.229876 -37.471838 
L 47.399437 -37.47168 
L 47.568997 -37.446717 
L 47.738557 -37.41941 
L 47.908117 -37.419009 
L 48.077678 -37.421368 
L 48.247238 -37.382626 
L 48.416798 -37.397832 
L 48.586359 -37.409387 
L 48.755919 -37.380953 
L 48.925479 -37.371998 
L 49.095039 -37.373847 
L 49.2646 -37.352783 
L 49.43416 -37.366901 
L 49.60372 -37.360363 
L 49.77328 -37.338203 
L 49.942841 -37.355351 
L 50.112401 -37.33484 
L 50.281961 -37.316022 
L 50.451521 -37.308054 
L 50.621082 -37.267947 
L 50.790642 -37.300934 
L 50.960202 -37.263677 
L 51.129762 -37.268059 
L 51.299323 -37.240866 
L 51.468883 -37.225285 
L 51.638443 -37.234889 
L 51.808004 -37.239179 
L 51.977564 -37.239706 
L 52.147124 -37.214981 
L 52.316684 -37.180157 
L 52.486245 -37.097575 
L 52.655805 -35.976817 
L 52.825365 -37.098557 
L 52.994925 -37.158278 
L 53.164486 -37.188676 
L 53.334046 -37.18334 
L 53.503606 -37.204203 
L 53.673166 -37.190124 
L 53.842727 -37.216657 
L 54.012287 -37.231932 
L 54.181847 -37.249521 
L 54.351407 -37.244997 
L 54.520968 -37.267681 
L 54.690528 -37.298019 
L 54.860088 -37.319911 
L 55.029649 -37.34872 
L 55.199209 -37.43384 
L 55.368769 -37.441044 
L 55.538329 -37.488282 
L 55.70789 -37.559178 
L 55.87745 -37.621787 
L 56.04701 -37.676627 
L 56.21657 -37.740358 
L 56.386131 -37.824958 
L 56.555691 -37.904032 
L 56.725251 -37.946636 
L 56.894811 -38.033457 
L 57.064372 -38.11936 
L 57.233932 -38.233743 
L 57.403492 -38.345247 
L 57.573053 -38.426205 
L 57.742613 -38.506578 
L 57.912173 -38.623506 
L 58.081733 -38.739029 
L 58.251294 -38.829565 
L 58.420854 -38.981269 
L 58.590414 -39.086076 
L 58.759974 -39.221888 
L 58.929535 -39.340893 
L 59.099095 -39.477016 
L 59.268655 -39.597422 
L 59.438215 -39.753937 
L 59.607776 -39.867185 
L 59.777336 -40.005366 
L 59.946896 -40.165219 
L 60.116456 -40.323168 
L 60.286017 -40.471832 
L 60.455577 -40.631237 
L 60.625137 -40.776184 
L 60.794698 -40.931588 
L 60.964258 -41.111805 
L 61.133818 -41.296739 
L 61.303378 -41.522385 
L 61.472939 -41.816946 
L 61.642499 -42.092014 
L 61.812059 -42.424329 
L 61.981619 -42.848712 
L 62.15118 -43.32273 
L 62.32074 -43.887629 
L 62.4903 -44.513841 
L 62.65986 -45.23016 
L 62.829421 -46.065905 
L 62.998981 -47.052384 
L 63.168541 -48.147198 
L 63.338102 -49.517308 
L 63.507662 -51.176663 
L 63.677222 -53.2271 
L 63.846782 -55.657749 
L 64.016343 -58.554641 
L 64.185903 -62.210015 
L 64.355463 -67.098974 
L 64.525023 -73.341963 
L 64.694584 -79.971618 
L 64.864144 -85.522454 
L 65.033704 -89.403854 
L 65.203264 -91.795188 
L 65.372825 -93.210562 
L 65.542385 -93.964475 
L 65.711945 -94.313928 
L 65.881505 -94.431682 
L 66.051066 -94.321493 
L 66.220626 -94.097833 
L 66.390186 -93.724349 
L 66.559747 -93.230822 
L 66.729307 -92.631372 
L 66.898867 -91.961864 
L 67.068427 -91.121437 
L 67.237988 -90.195244 
L 67.407548 -89.200211 
L 67.577108 -88.13507 
L 67.746668 -86.950427 
L 67.916229 -85.695262 
L 68.085789 -84.385836 
L 68.255349 -82.989991 
L 68.424909 -81.543802 
L 68.59447 -80.08641 
L 68.76403 -78.561674 
L 68.93359 -77.040608 
L 69.10315 -75.497635 
L 69.272711 -73.922562 
L 69.442271 -72.410698 
L 69.611831 -70.872207 
L 69.781392 -69.380055 
L 69.950952 -67.917886 
L 70.120512 -66.478206 
L 70.290072 -65.110819 
L 70.459633 -63.781248 
L 70.629193 -62.51694 
L 70.798753 -61.329961 
L 70.968313 -60.2229 
L 71.137874 -59.156049 
L 71.307434 -58.13958 
L 71.476994 -57.184068 
L 71.646554 -56.25788 
L 71.816115 -55.393094 
L 71.985675 -54.570322 
L 72.155235 -53.736893 
L 72.324796 -52.897609 
L 72.494356 -52.135003 
L 72.663916 -51.343027 
L 72.833476 -50.588493 
L 73.003037 -49.855048 
L 73.172597 -49.178083 
L 73.342157 -48.524644 
L 73.511717 -47.899864 
L 73.681278 -47.329773 
L 73.850838 -46.789578 
L 74.020398 -46.329682 
L 74.189958 -45.87295 
L 74.359519 -45.438345 
L 74.529079 -45.080686 
L 74.698639 -44.754642 
L 74.868199 -44.410762 
L 75.03776 -44.159867 
L 75.20732 -43.904326 
L 75.37688 -43.641311 
L 75.546441 -43.450143 
L 75.716001 -43.259506 
L 75.885561 -43.094571 
L 76.055121 -42.95134 
L 76.224682 -42.819818 
L 76.394242 -42.725279 
L 76.563802 -42.598772 
L 76.733362 -42.514402 
L 76.902923 -42.456934 
L 77.072483 -42.432383 
L 77.242043 -42.373429 
L 77.411603 -42.338521 
L 77.581164 -42.321037 
L 77.750724 -42.296619 
L 77.920284 -42.314072 
L 78.089844 -42.310055 
L 78.259405 -42.339843 
L 78.428965 -42.382257 
L 78.598525 -42.413127 
L 78.768086 -42.464162 
L 78.937646 -42.540333 
L 79.107206 -42.571358 
L 79.276766 -42.630095 
L 79.446327 -42.684481 
L 79.615887 -42.761013 
L 79.785447 -42.836533 
L 79.955007 -42.931455 
L 80.124568 -43.019312 
L 80.294128 -43.102287 
L 80.463688 -43.20701 
L 80.633248 -43.31371 
L 80.802809 -43.395876 
L 80.972369 -43.52466 
L 81.141929 -43.641368 
L 81.31149 -43.731563 
L 81.48105 -43.86231 
L 81.65061 -44.028675 
L 81.82017 -44.138653 
L 81.989731 -44.297956 
L 82.159291 -44.384174 
L 82.328851 -44.535086 
L 82.498411 -44.669732 
L 82.667972 -44.827844 
L 82.837532 -44.996875 
L 83.007092 -45.175977 
L 83.176652 -45.382086 
L 83.346213 -45.618794 
L 83.515773 -45.870984 
L 83.685333 -46.158601 
L 83.854893 -46.465615 
L 84.024454 -46.794358 
L 84.194014 -47.176209 
L 84.363574 -47.585956 
L 84.533135 -48.072475 
L 84.702695 -48.574631 
L 84.872255 -49.16799 
L 85.041815 -49.815506 
L 85.211376 -50.548403 
L 85.380936 -51.409904 
L 85.550496 -52.418443 
L 85.720056 -53.663537 
L 85.889617 -55.081373 
L 86.059177 -56.856082 
L 86.228737 -59.002615 
L 86.398297 -61.638105 
L 86.567858 -64.90396 
L 86.737418 -68.765616 
L 86.906978 -72.936458 
L 87.076539 -77.006506 
L 87.246099 -80.555614 
L 87.415659 -83.318934 
L 87.585219 -85.317568 
L 87.75478 -86.716577 
L 87.92434 -87.56476 
L 88.0939 -88.008179 
L 88.26346 -88.101058 
L 88.433021 -87.924398 
L 88.602581 -87.486568 
L 88.772141 -86.868457 
L 88.941701 -86.059775 
L 89.111262 -85.134301 
L 89.280822 -84.086677 
L 89.450382 -82.908085 
L 89.619942 -81.634698 
L 89.789503 -80.287631 
L 89.959063 -78.856779 
L 90.128623 -77.40889 
L 90.298184 -75.928362 
L 90.467744 -74.409229 
L 90.637304 -72.885513 
L 90.806864 -71.362745 
L 90.976425 -69.84854 
L 91.145985 -68.391556 
L 91.315545 -66.932086 
L 91.485105 -65.556465 
L 91.654666 -64.226046 
L 91.824226 -62.923557 
L 91.993786 -61.742023 
L 92.163346 -60.589587 
L 92.332907 -59.550835 
L 92.502467 -58.546539 
L 92.672027 -57.611504 
L 92.841587 -56.71455 
L 93.011148 -55.910467 
L 93.180708 -55.101439 
L 93.350268 -54.314597 
L 93.519829 -53.591371 
L 93.689389 -52.888911 
L 93.858949 -52.176627 
L 94.028509 -51.530456 
L 94.19807 -50.897554 
L 94.36763 -50.278645 
L 94.53719 -49.696861 
L 94.70675 -49.117515 
L 94.876311 -48.617559 
L 95.045871 -48.117246 
L 95.215431 -47.63958 
L 95.384991 -47.224306 
L 95.554552 -46.829839 
L 95.724112 -46.457114 
L 95.893672 -46.135049 
L 96.063233 -45.794396 
L 96.232793 -45.558238 
L 96.402353 -45.280346 
L 96.571913 -45.049368 
L 96.741474 -44.85089 
L 96.911034 -44.679226 
L 97.080594 -44.483232 
L 97.250154 -44.351835 
L 97.419715 -44.224306 
L 97.589275 -44.136003 
L 97.758835 -44.036965 
L 97.928395 -43.921714 
L 98.097956 -43.891925 
L 98.267516 -43.81549 
L 98.437076 -43.816355 
L 98.606636 -43.759359 
L 98.776197 -43.720738 
L 98.945757 -43.705772 
L 99.115317 -43.703026 
L 99.284878 -43.679934 
L 99.454438 -43.693817 
L 99.623998 -43.710569 
L 99.793558 -43.737729 
L 99.963119 -43.773279 
L 100.132679 -43.795278 
L 100.302239 -43.814835 
L 100.471799 -43.865586 
L 100.64136 -43.901274 
L 100.81092 -43.976787 
L 100.98048 -44.031542 
L 101.15004 -44.091043 
L 101.319601 -44.151902 
L 101.489161 -44.223077 
L 101.658721 -44.330691 
L 101.828281 -44.427438 
L 101.997842 -44.510522 
L 102.167402 -44.601963 
L 102.336962 -44.716184 
L 102.506523 -44.836292 
L 102.676083 -44.940966 
L 102.845643 -45.08302 
L 103.015203 -45.212127 
L 103.184764 -45.354127 
L 103.354324 -45.499982 
L 103.523884 -45.688841 
L 103.693444 -45.863683 
L 103.863005 -46.096196 
L 104.032565 -46.317636 
L 104.202125 -46.603436 
L 104.371685 -46.866634 
L 104.541246 -47.185004 
L 104.710806 -47.526636 
L 104.880366 -47.868519 
L 105.049927 -48.28312 
L 105.219487 -48.717958 
L 105.389047 -49.223237 
L 105.558607 -49.80007 
L 105.728168 -50.444579 
L 105.897728 -51.143976 
L 106.067288 -51.928335 
L 106.236848 -52.898672 
L 106.406409 -54.048545 
L 106.575969 -55.41733 
L 106.745529 -57.073676 
L 106.915089 -59.085956 
L 107.08465 -61.546432 
L 107.25421 -64.570254 
L 107.42377 -68.128581 
L 107.59333 -71.942203 
L 107.762891 -75.690442 
L 107.932451 -78.988511 
L 108.102011 -81.666599 
L 108.271572 -83.669701 
L 108.441132 -85.046927 
L 108.610692 -85.9698 
L 108.780252 -86.421307 
L 108.949813 -86.541933 
L 109.119373 -86.39388 
L 109.288933 -86.023135 
L 109.458493 -85.429962 
L 109.628054 -84.662767 
L 109.797614 -83.749922 
L 109.967174 -82.710768 
L 110.136734 -81.548516 
L 110.306295 -80.31455 
L 110.475855 -79.012864 
L 110.645415 -77.650464 
L 110.814976 -76.24317 
L 110.984536 -74.787795 
L 111.154096 -73.309022 
L 111.323656 -71.859978 
L 111.493217 -70.41412 
L 111.662777 -68.956351 
L 111.832337 -67.531242 
L 112.001897 -66.149965 
L 112.171458 -64.828331 
L 112.341018 -63.549893 
L 112.510578 -62.3131 
L 112.680138 -61.183266 
L 112.849699 -60.077566 
L 113.019259 -59.092106 
L 113.188819 -58.164649 
L 113.358379 -57.277559 
L 113.52794 -56.464677 
L 113.6975 -55.681156 
L 113.86706 -54.919019 
L 114.036621 -54.177895 
L 114.206181 -53.49714 
L 114.375741 -52.799456 
L 114.545301 -52.163661 
L 114.714862 -51.520503 
L 114.884422 -50.901701 
L 115.053982 -50.316078 
L 115.223542 -49.748224 
L 115.393103 -49.223097 
L 115.562663 -48.687944 
L 115.732223 -48.211144 
L 115.901783 -47.749749 
L 116.071344 -47.317271 
L 116.240904 -46.905458 
L 116.410464 -46.553175 
L 116.580024 -46.237522 
L 116.749585 -45.938822 
L 116.919145 -45.653774 
L 117.088705 -45.40623 
L 117.258266 -45.17805 
L 117.427826 -44.962573 
L 117.597386 -44.81815 
L 117.766946 -44.634539 
L 117.936507 -44.483502 
L 118.106067 -44.372756 
L 118.275627 -44.24534 
L 118.445187 -44.155456 
L 118.614748 -44.06424 
L 118.784308 -43.994885 
L 118.953868 -43.929006 
L 119.123428 -43.900684 
L 119.292989 -43.824028 
L 119.462549 -43.816024 
L 119.632109 -43.801394 
L 119.80167 -43.778674 
L 119.97123 -43.752504 
L 120.14079 -43.769785 
L 120.31035 -43.77334 
L 120.479911 -43.796334 
L 120.649471 -43.827554 
L 120.819031 -43.851638 
L 120.988591 -43.894141 
L 121.158152 -43.939334 
L 121.327712 -43.995528 
L 121.497272 -44.059296 
L 121.666832 -44.132962 
L 121.836393 -44.182668 
L 122.005953 -44.265632 
L 122.175513 -44.35601 
L 122.345073 -44.462183 
L 122.514634 -44.55363 
L 122.684194 -44.662109 
L 122.853754 -44.762642 
L 123.023315 -44.875173 
L 123.192875 -44.99398 
L 123.362435 -45.141964 
L 123.531995 -45.2917 
L 123.701556 -45.464897 
L 123.871116 -45.635281 
L 124.040676 -45.856185 
L 124.210236 -46.043299 
L 124.379797 -46.306841 
L 124.549357 -46.586 
L 124.718917 -46.844506 
L 124.888477 -47.127297 
L 125.058038 -47.466946 
L 125.227598 -47.804942 
L 125.397158 -48.174763 
L 125.566719 -48.606021 
L 125.736279 -49.060122 
L 125.905839 -49.560126 
L 126.075399 -50.137427 
L 126.24496 -50.790533 
L 126.41452 -51.51458 
L 126.58408 -52.371106 
L 126.75364 -53.393502 
L 126.923201 -54.591047 
L 127.092761 -56.029946 
L 127.262321 -57.789875 
L 127.431881 -59.922139 
L 127.601442 -62.552696 
L 127.771002 -65.681218 
L 127.940562 -69.278823 
L 128.110122 -73.037783 
L 128.279683 -76.58963 
L 128.449243 -79.633962 
L 128.618803 -82.037196 
L 128.788364 -83.761944 
L 128.957924 -84.955984 
L 129.127484 -85.706151 
L 129.297044 -86.043923 
L 129.466605 -86.072785 
L 129.636165 -85.863074 
L 129.805725 -85.370489 
L 129.975285 -84.74794 
L 130.144846 -83.914399 
L 130.314406 -82.962609 
L 130.483966 -81.909298 
L 130.653526 -80.755447 
L 130.823087 -79.456988 
L 130.992647 -78.129642 
L 131.162207 -76.758817 
L 131.331767 -75.32604 
L 131.501328 -73.839059 
L 131.670888 -72.413928 
L 131.840448 -70.958017 
L 132.010009 -69.507149 
L 132.179569 -68.039318 
L 132.349129 -66.659512 
L 132.518689 -65.333708 
L 132.68825 -64.022757 
L 132.85781 -62.756222 
L 133.02737 -61.571516 
L 133.19693 -60.457011 
L 133.366491 -59.435576 
L 133.536051 -58.433472 
L 133.705611 -57.525629 
L 133.875171 -56.652266 
L 134.044732 -55.805077 
L 134.214292 -55.018932 
L 134.383852 -54.277046 
L 134.553413 -53.550999 
L 134.722973 -52.854358 
L 134.892533 -52.207268 
L 135.062093 -51.564913 
L 135.231654 -50.918514 
L 135.401214 -50.331593 
L 135.570774 -49.756562 
L 135.740334 -49.222993 
L 135.909895 -48.726258 
L 136.079455 -48.231523 
L 136.249015 -47.787211 
L 136.418575 -47.363432 
L 136.588136 -46.950291 
L 136.757696 -46.597871 
L 136.927256 -46.287342 
L 137.096816 -45.978089 
L 137.266377 -45.712314 
L 137.435937 -45.485617 
L 137.605497 -45.222332 
L 137.775058 -45.039675 
L 137.944618 -44.859773 
L 138.114178 -44.674936 
L 138.283738 -44.541645 
L 138.453299 -44.451679 
L 138.622859 -44.314711 
L 138.792419 -44.233448 
L 138.961979 -44.153624 
L 139.13154 -44.083068 
L 139.3011 -44.025069 
L 139.47066 -43.9925 
L 139.64022 -43.946074 
L 139.809781 -43.925594 
L 139.979341 -43.933234 
L 140.148901 -43.916801 
L 140.318461 -43.928068 
L 140.488022 -43.949022 
L 140.657582 -43.9688 
L 140.827142 -43.987506 
L 140.996703 -44.024699 
L 141.166263 -44.096126 
L 141.335823 -44.123837 
L 141.505383 -44.17152 
L 141.674944 -44.238037 
L 141.844504 -44.319805 
L 142.014064 -44.396879 
L 142.183624 -44.475145 
L 142.353185 -44.538074 
L 142.522745 -44.633346 
L 142.692305 -44.720605 
L 142.861865 -44.828815 
L 143.031426 -44.946217 
L 143.200986 -45.051432 
L 143.370546 -45.164462 
L 143.540107 -45.276437 
L 143.709667 -45.411625 
L 143.879227 -45.540497 
L 144.048787 -45.714966 
L 144.218348 -45.85841 
L 144.387908 -46.039673 
L 144.557468 -46.244987 
L 144.727028 -46.448452 
L 144.896589 -46.693264 
L 145.066149 -46.942243 
L 145.235709 -47.259612 
L 145.405269 -47.529844 
L 145.57483 -47.853741 
L 145.74439 -48.213267 
L 145.91395 -48.614836 
L 146.08351 -49.051239 
L 146.253071 -49.56092 
L 146.422631 -50.112541 
L 146.592191 -50.730335 
L 146.761752 -51.448483 
L 146.931312 -52.287533 
L 147.100872 -53.265179 
L 147.270432 -54.439143 
L 147.439993 -55.830588 
L 147.609553 -57.531274 
L 147.779113 -59.580838 
L 147.948673 -62.105508 
L 148.118234 -65.164371 
L 148.287794 -68.670631 
L 148.457354 -72.384236 
L 148.626914 -75.930225 
L 148.796475 -79.055875 
L 148.966035 -81.533196 
L 149.135595 -83.377943 
L 149.305156 -84.666765 
L 149.474716 -85.451317 
L 149.644276 -85.877703 
L 149.813836 -85.936139 
L 149.983397 -85.731597 
L 150.152957 -85.316965 
L 150.322517 -84.681516 
L 150.492077 -83.890151 
L 150.661638 -82.955893 
L 150.831198 -81.903333 
L 151.000758 -80.731629 
L 151.170318 -79.482614 
L 151.339879 -78.141951 
L 151.509439 -76.805764 
L 151.678999 -75.36223 
L 151.848559 -73.931127 
L 152.01812 -72.453163 
L 152.18768 -70.973549 
L 152.35724 -69.514417 
L 152.526801 -68.084573 
L 152.696361 -66.647609 
L 152.865921 -65.273018 
L 153.035481 -63.942619 
L 153.205042 -62.643335 
L 153.374602 -61.432449 
L 153.544162 -60.292806 
L 153.713722 -59.247229 
L 153.883283 -58.204904 
L 154.052843 -57.269462 
L 154.222403 -56.36607 
L 154.391963 -55.508854 
L 154.561524 -54.70039 
L 154.731084 -53.937605 
L 154.900644 -53.193565 
L 155.070204 -52.488141 
L 155.239765 -51.770629 
L 155.409325 -51.132963 
L 155.578885 -50.48604 
L 155.748446 -49.87881 
L 155.918006 -49.332638 
L 156.087566 -48.781023 
L 156.257126 -48.27076 
L 156.426687 -47.793374 
L 156.596247 -47.340893 
L 156.765807 -46.940816 
L 156.935367 -46.560327 
L 157.104928 -46.234646 
L 157.274488 -45.931781 
L 157.444048 -45.663361 
L 157.613608 -45.398429 
L 157.783169 -45.18368 
L 157.952729 -44.970467 
L 158.122289 -44.779149 
L 158.29185 -44.641544 
L 158.46141 -44.509989 
L 158.63097 -44.362977 
L 158.80053 -44.233704 
L 158.970091 -44.141907 
L 159.139651 -44.07126 
L 159.309211 -44.007593 
L 159.478771 -43.975477 
L 159.648332 -43.945957 
L 159.817892 -43.904198 
L 159.987452 -43.873254 
L 160.157012 -43.842248 
L 160.326573 -43.841351 
L 160.496133 -43.825709 
L 160.665693 -43.855756 
L 160.835253 -43.853042 
L 161.004814 -43.854329 
L 161.174374 -43.902125 
L 161.343934 -43.940631 
L 161.513495 -43.998901 
L 161.683055 -44.062984 
L 161.852615 -44.107098 
L 162.022175 -44.149702 
L 162.191736 -44.205385 
L 162.361296 -44.297246 
L 162.530856 -44.384648 
L 162.700416 -44.463924 
L 162.869977 -44.556826 
L 163.039537 -44.678357 
L 163.209097 -44.806871 
L 163.378657 -44.891808 
L 163.548218 -44.99982 
L 163.717778 -45.114277 
L 163.887338 -45.245791 
L 164.056898 -45.383395 
L 164.226459 -45.505473 
L 164.396019 -45.675573 
L 164.565579 -45.857028 
L 164.73514 -46.034065 
L 164.9047 -46.220933 
L 165.07426 -46.436797 
L 165.24382 -46.684739 
L 165.413381 -46.912279 
L 165.582941 -47.177084 
L 165.752501 -47.468053 
L 165.922061 -47.784309 
L 166.091622 -48.178277 
L 166.261182 -48.544305 
L 166.430742 -48.989175 
L 166.600302 -49.491281 
L 166.769863 -50.02362 
L 166.939423 -50.655242 
L 167.108983 -51.392192 
L 167.278544 -52.223979 
L 167.448104 -53.184073 
L 167.617664 -54.355909 
L 167.787224 -55.744676 
L 167.956785 -57.398799 
L 168.126345 -59.461488 
L 168.295905 -61.987647 
L 168.465465 -65.029692 
L 168.635026 -68.544197 
L 168.804586 -72.30308 
L 168.974146 -75.902682 
L 169.143706 -79.058666 
L 169.313267 -81.570323 
L 169.482827 -83.448339 
L 169.652387 -84.775947 
L 169.821947 -85.578075 
L 169.991508 -86.009663 
L 170.161068 -86.117753 
L 170.330628 -85.919826 
L 170.500189 -85.508024 
L 170.669749 -84.878356 
L 170.839309 -84.123841 
L 171.008869 -83.189111 
L 171.17843 -82.140327 
L 171.34799 -80.985424 
L 171.51755 -79.753385 
L 171.68711 -78.437327 
L 171.856671 -77.069066 
L 172.026231 -75.673864 
L 172.195791 -74.240648 
L 172.365351 -72.763679 
L 172.534912 -71.320032 
L 172.704472 -69.896569 
L 172.874032 -68.493786 
L 173.043593 -67.099787 
L 173.213153 -65.758872 
L 173.382713 -64.478939 
L 173.552273 -63.251547 
L 173.721834 -62.080176 
L 173.891394 -60.947174 
L 174.060954 -59.881274 
L 174.230514 -58.859316 
L 174.400075 -57.936787 
L 174.569635 -57.041258 
L 174.739195 -56.162774 
L 174.908755 -55.355948 
L 175.078316 -54.576427 
L 175.247876 -53.828172 
L 175.417436 -53.092353 
L 175.586996 -52.388527 
L 175.756557 -51.716919 
L 175.926117 -51.08197 
L 176.095677 -50.446022 
L 176.265238 -49.832106 
L 176.434798 -49.265947 
L 176.604358 -48.683096 
L 176.773918 -48.199733 
L 176.943479 -47.703565 
L 177.113039 -47.247992 
L 177.282599 -46.840865 
L 177.452159 -46.450253 
L 177.62172 -46.104269 
L 177.79128 -45.794602 
L 177.96084 -45.488174 
L 178.1304 -45.223191 
L 178.299961 -44.957888 
L 178.469521 -44.759794 
L 178.639081 -44.567374 
L 178.808641 -44.369687 
L 178.978202 -44.214044 
L 179.147762 -44.069694 
L 179.317322 -43.945371 
L 179.486883 -43.804902 
L 179.656443 -43.735034 
L 179.826003 -43.613769 
L 179.995563 -43.562775 
L 180.165124 -43.464312 
L 180.334684 -43.429624 
L 180.504244 -43.398292 
L 180.673804 -43.356999 
L 180.843365 -43.336691 
L 181.012925 -43.337233 
L 181.182485 -43.308031 
L 181.352045 -43.298434 
L 181.352045 -44.903042 
L 181.352045 -44.903042 
L 181.182485 -44.923126 
L 181.012925 -44.964841 
L 180.843365 -44.978895 
L 180.673804 -45.015755 
L 180.504244 -45.07611 
L 180.334684 -45.129362 
L 180.165124 -45.188814 
L 179.995563 -45.315439 
L 179.826003 -45.398157 
L 179.656443 -45.55512 
L 179.486883 -45.66507 
L 179.317322 -45.850764 
L 179.147762 -46.024999 
L 178.978202 -46.224665 
L 178.808641 -46.440356 
L 178.639081 -46.703715 
L 178.469521 -46.967275 
L 178.299961 -47.240994 
L 178.1304 -47.586293 
L 177.96084 -47.933846 
L 177.79128 -48.324044 
L 177.62172 -48.717771 
L 177.452159 -49.145481 
L 177.282599 -49.613274 
L 177.113039 -50.090241 
L 176.943479 -50.607387 
L 176.773918 -51.152559 
L 176.604358 -51.669138 
L 176.434798 -52.26955 
L 176.265238 -52.837014 
L 176.095677 -53.43579 
L 175.926117 -54.046466 
L 175.756557 -54.64238 
L 175.586996 -55.269328 
L 175.417436 -55.920672 
L 175.247876 -56.600003 
L 175.078316 -57.290002 
L 174.908755 -58.014309 
L 174.739195 -58.76369 
L 174.569635 -59.590176 
L 174.400075 -60.438947 
L 174.230514 -61.316856 
L 174.060954 -62.294884 
L 173.891394 -63.319025 
L 173.721834 -64.409528 
L 173.552273 -65.535218 
L 173.382713 -66.712806 
L 173.213153 -67.937927 
L 173.043593 -69.220509 
L 172.874032 -70.554974 
L 172.704472 -71.896315 
L 172.534912 -73.257569 
L 172.365351 -74.640239 
L 172.195791 -76.057552 
L 172.026231 -77.43243 
L 171.856671 -78.771305 
L 171.68711 -80.085838 
L 171.51755 -81.351146 
L 171.34799 -82.535259 
L 171.17843 -83.646499 
L 171.008869 -84.656067 
L 170.839309 -85.557545 
L 170.669749 -86.286336 
L 170.500189 -86.900293 
L 170.330628 -87.307702 
L 170.161068 -87.515893 
L 169.991508 -87.434981 
L 169.821947 -87.050176 
L 169.652387 -86.318711 
L 169.482827 -85.086341 
L 169.313267 -83.323636 
L 169.143706 -80.929694 
L 168.974146 -77.86105 
L 168.804586 -74.270772 
L 168.635026 -70.412893 
L 168.465465 -66.703945 
L 168.295905 -63.423903 
L 168.126345 -60.677604 
L 167.956785 -58.443992 
L 167.787224 -56.662839 
L 167.617664 -55.181222 
L 167.448104 -53.945397 
L 167.278544 -52.946829 
L 167.108983 -52.098646 
L 166.939423 -51.361 
L 166.769863 -50.739218 
L 166.600302 -50.224269 
L 166.430742 -49.744232 
L 166.261182 -49.324515 
L 166.091622 -48.985792 
L 165.922061 -48.619691 
L 165.752501 -48.330861 
L 165.582941 -48.066 
L 165.413381 -47.825456 
L 165.24382 -47.620228 
L 165.07426 -47.392333 
L 164.9047 -47.19395 
L 164.73514 -47.021681 
L 164.565579 -46.856237 
L 164.396019 -46.683784 
L 164.226459 -46.520778 
L 164.056898 -46.404515 
L 163.887338 -46.272262 
L 163.717778 -46.146251 
L 163.548218 -46.037672 
L 163.378657 -45.93593 
L 163.209097 -45.85758 
L 163.039537 -45.736289 
L 162.869977 -45.622492 
L 162.700416 -45.537573 
L 162.530856 -45.466385 
L 162.361296 -45.387106 
L 162.191736 -45.303488 
L 162.022175 -45.25606 
L 161.852615 -45.221835 
L 161.683055 -45.186262 
L 161.513495 -45.130952 
L 161.343934 -45.081736 
L 161.174374 -45.052713 
L 161.004814 -45.014947 
L 160.835253 -45.024373 
L 160.665693 -45.038667 
L 160.496133 -45.021197 
L 160.326573 -45.050651 
L 160.157012 -45.066781 
L 159.987452 -45.114754 
L 159.817892 -45.164592 
L 159.648332 -45.227405 
L 159.478771 -45.280652 
L 159.309211 -45.339301 
L 159.139651 -45.432699 
L 158.970091 -45.536464 
L 158.80053 -45.665236 
L 158.63097 -45.835691 
L 158.46141 -46.02824 
L 158.29185 -46.209731 
L 158.122289 -46.401896 
L 157.952729 -46.652338 
L 157.783169 -46.928932 
L 157.613608 -47.210879 
L 157.444048 -47.546007 
L 157.274488 -47.886556 
L 157.104928 -48.2622 
L 156.935367 -48.659615 
L 156.765807 -49.108389 
L 156.596247 -49.570544 
L 156.426687 -50.076599 
L 156.257126 -50.599597 
L 156.087566 -51.144403 
L 155.918006 -51.718811 
L 155.748446 -52.277426 
L 155.578885 -52.881745 
L 155.409325 -53.513421 
L 155.239765 -54.125763 
L 155.070204 -54.814562 
L 154.900644 -55.487949 
L 154.731084 -56.199409 
L 154.561524 -56.929934 
L 154.391963 -57.710491 
L 154.222403 -58.542419 
L 154.052843 -59.428242 
L 153.883283 -60.350405 
L 153.713722 -61.382962 
L 153.544162 -62.418852 
L 153.374602 -63.546301 
L 153.205042 -64.740118 
L 153.035481 -66.01637 
L 152.865921 -67.317113 
L 152.696361 -68.656478 
L 152.526801 -70.053165 
L 152.35724 -71.438007 
L 152.18768 -72.849346 
L 152.01812 -74.279636 
L 151.848559 -75.708844 
L 151.678999 -77.089877 
L 151.509439 -78.483767 
L 151.339879 -79.770947 
L 151.170318 -81.064883 
L 151.000758 -82.269825 
L 150.831198 -83.400489 
L 150.661638 -84.416227 
L 150.492077 -85.319123 
L 150.322517 -86.086839 
L 150.152957 -86.70795 
L 149.983397 -87.119627 
L 149.813836 -87.335688 
L 149.644276 -87.305352 
L 149.474716 -86.926747 
L 149.305156 -86.211126 
L 149.135595 -85.013644 
L 148.966035 -83.27848 
L 148.796475 -80.916313 
L 148.626914 -77.881294 
L 148.457354 -74.355187 
L 148.287794 -70.553489 
L 148.118234 -66.860998 
L 147.948673 -63.56717 
L 147.779113 -60.819137 
L 147.609553 -58.591536 
L 147.439993 -56.758623 
L 147.270432 -55.271489 
L 147.100872 -54.031334 
L 146.931312 -53.01317 
L 146.761752 -52.155544 
L 146.592191 -51.435538 
L 146.422631 -50.827011 
L 146.253071 -50.29238 
L 146.08351 -49.804389 
L 145.91395 -49.392989 
L 145.74439 -49.018446 
L 145.57483 -48.686572 
L 145.405269 -48.390059 
L 145.235709 -48.14587 
L 145.066149 -47.85283 
L 144.896589 -47.626135 
L 144.727028 -47.401425 
L 144.557468 -47.215497 
L 144.387908 -47.024748 
L 144.218348 -46.855028 
L 144.048787 -46.720256 
L 143.879227 -46.552527 
L 143.709667 -46.429252 
L 143.540107 -46.299343 
L 143.370546 -46.192787 
L 143.200986 -46.085591 
L 143.031426 -45.986583 
L 142.861865 -45.876136 
L 142.692305 -45.775562 
L 142.522745 -45.696068 
L 142.353185 -45.60887 
L 142.183624 -45.553953 
L 142.014064 -45.483757 
L 141.844504 -45.414834 
L 141.674944 -45.341261 
L 141.505383 -45.283049 
L 141.335823 -45.243819 
L 141.166263 -45.224741 
L 140.996703 -45.162287 
L 140.827142 -45.134497 
L 140.657582 -45.125767 
L 140.488022 -45.116694 
L 140.318461 -45.107332 
L 140.148901 -45.108694 
L 139.979341 -45.138943 
L 139.809781 -45.146592 
L 139.64022 -45.184131 
L 139.47066 -45.249609 
L 139.3011 -45.303421 
L 139.13154 -45.385231 
L 138.961979 -45.482501 
L 138.792419 -45.592365 
L 138.622859 -45.707089 
L 138.453299 -45.881516 
L 138.283738 -46.012868 
L 138.114178 -46.192033 
L 137.944618 -46.427326 
L 137.775058 -46.662207 
L 137.605497 -46.904549 
L 137.435937 -47.231599 
L 137.266377 -47.525722 
L 137.096816 -47.861636 
L 136.927256 -48.242559 
L 136.757696 -48.624724 
L 136.588136 -49.046718 
L 136.418575 -49.525169 
L 136.249015 -50.008462 
L 136.079455 -50.504777 
L 135.909895 -51.041429 
L 135.740334 -51.570147 
L 135.570774 -52.125008 
L 135.401214 -52.711383 
L 135.231654 -53.300525 
L 135.062093 -53.933301 
L 134.892533 -54.560246 
L 134.722973 -55.185314 
L 134.553413 -55.853317 
L 134.383852 -56.545376 
L 134.214292 -57.255262 
L 134.044732 -58.014059 
L 133.875171 -58.837894 
L 133.705611 -59.692456 
L 133.536051 -60.585706 
L 133.366491 -61.576571 
L 133.19693 -62.587411 
L 133.02737 -63.688954 
L 132.85781 -64.85597 
L 132.68825 -66.098736 
L 132.518689 -67.37934 
L 132.349129 -68.667338 
L 132.179569 -70.004567 
L 132.010009 -71.426589 
L 131.840448 -72.830258 
L 131.670888 -74.236604 
L 131.501328 -75.610664 
L 131.331767 -77.046711 
L 131.162207 -78.430413 
L 130.992647 -79.75277 
L 130.823087 -81.032645 
L 130.653526 -82.286651 
L 130.483966 -83.398363 
L 130.314406 -84.412836 
L 130.144846 -85.330793 
L 129.975285 -86.137537 
L 129.805725 -86.741815 
L 129.636165 -87.226968 
L 129.466605 -87.44272 
L 129.297044 -87.437272 
L 129.127484 -87.143302 
L 128.957924 -86.459881 
L 128.788364 -85.354388 
L 128.618803 -83.740538 
L 128.449243 -81.455915 
L 128.279683 -78.508924 
L 128.110122 -74.989396 
L 127.940562 -71.158757 
L 127.771002 -67.386195 
L 127.601442 -64.027386 
L 127.431881 -61.170537 
L 127.262321 -58.855349 
L 127.092761 -56.961033 
L 126.923201 -55.424853 
L 126.75364 -54.160143 
L 126.58408 -53.096249 
L 126.41452 -52.220486 
L 126.24496 -51.494496 
L 126.075399 -50.850628 
L 125.905839 -50.290142 
L 125.736279 -49.811937 
L 125.566719 -49.383163 
L 125.397158 -48.979205 
L 125.227598 -48.637471 
L 125.058038 -48.327181 
L 124.888477 -48.013856 
L 124.718917 -47.755638 
L 124.549357 -47.519788 
L 124.379797 -47.260899 
L 124.210236 -47.015107 
L 124.040676 -46.842933 
L 123.871116 -46.634007 
L 123.701556 -46.472612 
L 123.531995 -46.306113 
L 123.362435 -46.161601 
L 123.192875 -46.018218 
L 123.023315 -45.904005 
L 122.853754 -45.796481 
L 122.684194 -45.701558 
L 122.514634 -45.599396 
L 122.345073 -45.514728 
L 122.175513 -45.415749 
L 122.005953 -45.332803 
L 121.836393 -45.257559 
L 121.666832 -45.215569 
L 121.497272 -45.14977 
L 121.327712 -45.094034 
L 121.158152 -45.046004 
L 120.988591 -45.009114 
L 120.819031 -44.975118 
L 120.649471 -44.959823 
L 120.479911 -44.937774 
L 120.31035 -44.924436 
L 120.14079 -44.931215 
L 119.97123 -44.925053 
L 119.80167 -44.963321 
L 119.632109 -44.999319 
L 119.462549 -45.02866 
L 119.292989 -45.052989 
L 119.123428 -45.147929 
L 118.953868 -45.1967 
L 118.784308 -45.285526 
L 118.614748 -45.380595 
L 118.445187 -45.500533 
L 118.275627 -45.622531 
L 118.106067 -45.786199 
L 117.936507 -45.937357 
L 117.766946 -46.133406 
L 117.597386 -46.366716 
L 117.427826 -46.565518 
L 117.258266 -46.840052 
L 117.088705 -47.131952 
L 116.919145 -47.446979 
L 116.749585 -47.802648 
L 116.580024 -48.173929 
L 116.410464 -48.562704 
L 116.240904 -48.986635 
L 116.071344 -49.466567 
L 115.901783 -49.961868 
L 115.732223 -50.478257 
L 115.562663 -51.001966 
L 115.393103 -51.573241 
L 115.223542 -52.124809 
L 115.053982 -52.705119 
L 114.884422 -53.291058 
L 114.714862 -53.899233 
L 114.545301 -54.522091 
L 114.375741 -55.136727 
L 114.206181 -55.807383 
L 114.036621 -56.45854 
L 113.86706 -57.168082 
L 113.6975 -57.898098 
L 113.52794 -58.654122 
L 113.358379 -59.445663 
L 113.188819 -60.315631 
L 113.019259 -61.229698 
L 112.849699 -62.203324 
L 112.680138 -63.296615 
L 112.510578 -64.410071 
L 112.341018 -65.625137 
L 112.171458 -66.875092 
L 112.001897 -68.16178 
L 111.832337 -69.502396 
L 111.662777 -70.882558 
L 111.493217 -72.291994 
L 111.323656 -73.686943 
L 111.154096 -75.08354 
L 110.984536 -76.510324 
L 110.814976 -77.914094 
L 110.645415 -79.270192 
L 110.475855 -80.582583 
L 110.306295 -81.835219 
L 110.136734 -83.022728 
L 109.967174 -84.142852 
L 109.797614 -85.144596 
L 109.628054 -86.02495 
L 109.458493 -86.767033 
L 109.288933 -87.345098 
L 109.119373 -87.712711 
L 108.949813 -87.871383 
L 108.780252 -87.778649 
L 108.610692 -87.375755 
L 108.441132 -86.524367 
L 108.271572 -85.242572 
L 108.102011 -83.353172 
L 107.932451 -80.793203 
L 107.762891 -77.579842 
L 107.59333 -73.83355 
L 107.42377 -69.91196 
L 107.25421 -66.149795 
L 107.08465 -62.892552 
L 106.915089 -60.226155 
L 106.745529 -58.057601 
L 106.575969 -56.287929 
L 106.406409 -54.83854 
L 106.236848 -53.63593 
L 106.067288 -52.636864 
L 105.897728 -51.843797 
L 105.728168 -51.149478 
L 105.558607 -50.518727 
L 105.389047 -49.961724 
L 105.219487 -49.480632 
L 105.049927 -49.072835 
L 104.880366 -48.68651 
L 104.710806 -48.372979 
L 104.541246 -48.058355 
L 104.371685 -47.765189 
L 104.202125 -47.525035 
L 104.032565 -47.259864 
L 103.863005 -47.056552 
L 103.693444 -46.839218 
L 103.523884 -46.676155 
L 103.354324 -46.49579 
L 103.184764 -46.355721 
L 103.015203 -46.218135 
L 102.845643 -46.093248 
L 102.676083 -45.95582 
L 102.506523 -45.856519 
L 102.336962 -45.742672 
L 102.167402 -45.635491 
L 101.997842 -45.551634 
L 101.828281 -45.476489 
L 101.658721 -45.387797 
L 101.489161 -45.288254 
L 101.319601 -45.225 
L 101.15004 -45.171874 
L 100.98048 -45.119929 
L 100.81092 -45.072572 
L 100.64136 -45.004333 
L 100.471799 -44.975874 
L 100.302239 -44.932367 
L 100.132679 -44.920171 
L 99.963119 -44.905784 
L 99.793558 -44.878145 
L 99.623998 -44.859304 
L 99.454438 -44.851506 
L 99.284878 -44.847291 
L 99.115317 -44.881003 
L 98.945757 -44.895449 
L 98.776197 -44.923534 
L 98.606636 -44.976844 
L 98.437076 -45.050315 
L 98.267516 -45.067885 
L 98.097956 -45.165288 
L 97.928395 -45.218805 
L 97.758835 -45.360831 
L 97.589275 -45.490071 
L 97.419715 -45.612263 
L 97.250154 -45.777819 
L 97.080594 -45.951775 
L 96.911034 -46.195216 
L 96.741474 -46.41911 
L 96.571913 -46.674955 
L 96.402353 -46.968456 
L 96.232793 -47.313636 
L 96.063233 -47.621031 
L 95.893672 -48.035879 
L 95.724112 -48.433883 
L 95.554552 -48.883047 
L 95.384991 -49.351793 
L 95.215431 -49.837872 
L 95.045871 -50.377451 
L 94.876311 -50.931508 
L 94.70675 -51.476059 
L 94.53719 -52.086316 
L 94.36763 -52.686156 
L 94.19807 -53.313238 
L 94.028509 -53.941432 
L 93.858949 -54.572102 
L 93.689389 -55.257168 
L 93.519829 -55.926832 
L 93.350268 -56.613268 
L 93.180708 -57.359979 
L 93.011148 -58.13192 
L 92.841587 -58.906696 
L 92.672027 -59.777289 
L 92.502467 -60.689645 
L 92.332907 -61.673845 
L 92.163346 -62.693115 
L 91.993786 -63.823706 
L 91.824226 -64.977681 
L 91.654666 -66.24692 
L 91.485105 -67.53778 
L 91.315545 -68.867391 
L 91.145985 -70.275971 
L 90.976425 -71.67883 
L 90.806864 -73.135941 
L 90.637304 -74.599867 
L 90.467744 -76.064415 
L 90.298184 -77.524046 
L 90.128623 -78.945775 
L 89.959063 -80.335204 
L 89.789503 -81.70986 
L 89.619942 -83.002904 
L 89.450382 -84.224795 
L 89.280822 -85.355112 
L 89.111262 -86.358614 
L 88.941701 -87.245407 
L 88.772141 -88.02209 
L 88.602581 -88.617293 
L 88.433021 -89.04418 
L 88.26346 -89.225325 
L 88.0939 -89.155032 
L 87.92434 -88.755884 
L 87.75478 -87.976566 
L 87.585219 -86.672296 
L 87.415659 -84.791851 
L 87.246099 -82.154858 
L 87.076539 -78.705628 
L 86.906978 -74.658677 
L 86.737418 -70.396408 
L 86.567858 -66.347361 
L 86.398297 -62.862407 
L 86.228737 -60.036586 
L 86.059177 -57.750082 
L 85.889617 -55.878874 
L 85.720056 -54.39601 
L 85.550496 -53.110862 
L 85.380936 -52.084184 
L 85.211376 -51.221407 
L 85.041815 -50.498851 
L 84.872255 -49.86962 
L 84.702695 -49.299983 
L 84.533135 -48.825812 
L 84.363574 -48.369883 
L 84.194014 -47.991429 
L 84.024454 -47.640035 
L 83.854893 -47.339587 
L 83.685333 -47.058281 
L 83.515773 -46.793656 
L 83.346213 -46.561554 
L 83.176652 -46.341155 
L 83.007092 -46.146922 
L 82.837532 -45.975299 
L 82.667972 -45.810521 
L 82.498411 -45.655161 
L 82.328851 -45.523408 
L 82.159291 -45.376631 
L 81.989731 -45.295667 
L 81.82017 -45.143159 
L 81.65061 -45.04067 
L 81.48105 -44.882179 
L 81.31149 -44.759263 
L 81.141929 -44.676628 
L 80.972369 -44.567145 
L 80.802809 -44.445189 
L 80.633248 -44.369467 
L 80.463688 -44.268835 
L 80.294128 -44.169845 
L 80.124568 -44.092309 
L 79.955007 -44.009652 
L 79.785447 -43.91976 
L 79.615887 -43.84917 
L 79.446327 -43.777541 
L 79.276766 -43.728109 
L 79.107206 -43.674454 
L 78.937646 -43.648717 
L 78.768086 -43.578106 
L 78.598525 -43.533002 
L 78.428965 -43.508511 
L 78.259405 -43.473033 
L 78.089844 -43.45083 
L 77.920284 -43.463212 
L 77.750724 -43.455013 
L 77.581164 -43.489729 
L 77.411603 -43.518676 
L 77.242043 -43.566371 
L 77.072483 -43.63965 
L 76.902923 -43.680295 
L 76.733362 -43.755907 
L 76.563802 -43.860725 
L 76.394242 -44.010289 
L 76.224682 -44.130838 
L 76.055121 -44.291742 
L 75.885561 -44.468147 
L 75.716001 -44.670511 
L 75.546441 -44.903193 
L 75.37688 -45.141552 
L 75.20732 -45.457414 
L 75.03776 -45.771796 
L 74.868199 -46.087615 
L 74.698639 -46.502771 
L 74.529079 -46.905643 
L 74.359519 -47.344838 
L 74.189958 -47.864173 
L 74.020398 -48.407136 
L 73.850838 -48.951916 
L 73.681278 -49.571169 
L 73.511717 -50.212112 
L 73.342157 -50.896648 
L 73.172597 -51.594813 
L 73.003037 -52.299298 
L 72.833476 -53.043759 
L 72.663916 -53.79575 
L 72.494356 -54.566193 
L 72.324796 -55.29611 
L 72.155235 -56.094308 
L 71.985675 -56.881238 
L 71.816115 -57.660291 
L 71.646554 -58.486078 
L 71.476994 -59.377443 
L 71.307434 -60.301797 
L 71.137874 -61.293505 
L 70.968313 -62.340976 
L 70.798753 -63.431084 
L 70.629193 -64.600827 
L 70.459633 -65.845801 
L 70.290072 -67.152691 
L 70.120512 -68.495014 
L 69.950952 -69.906241 
L 69.781392 -71.337181 
L 69.611831 -72.795286 
L 69.442271 -74.298529 
L 69.272711 -75.772708 
L 69.10315 -77.309554 
L 68.93359 -78.812011 
L 68.76403 -80.290528 
L 68.59447 -81.770735 
L 68.424909 -83.180019 
L 68.255349 -84.57525 
L 68.085789 -85.915532 
L 67.916229 -87.164336 
L 67.746668 -88.354041 
L 67.577108 -89.466708 
L 67.407548 -90.454209 
L 67.237988 -91.368342 
L 67.068427 -92.212407 
L 66.898867 -92.969962 
L 66.729307 -93.554283 
L 66.559747 -94.071202 
L 66.390186 -94.488581 
L 66.220626 -94.794256 
L 66.051066 -94.963157 
L 65.881505 -95.038151 
L 65.711945 -94.91174 
L 65.542385 -94.587208 
L 65.372825 -93.897596 
L 65.203264 -92.587666 
L 65.033704 -90.333413 
L 64.864144 -86.590111 
L 64.694584 -81.127806 
L 64.525023 -74.477917 
L 64.355463 -68.110744 
L 64.185903 -63.063025 
L 64.016343 -59.287192 
L 63.846782 -56.3262 
L 63.677222 -53.867665 
L 63.507662 -51.807393 
L 63.338102 -50.141651 
L 63.168541 -48.760577 
L 62.998981 -47.65769 
L 62.829421 -46.672464 
L 62.65986 -45.852265 
L 62.4903 -45.165406 
L 62.32074 -44.578086 
L 62.15118 -44.055653 
L 61.981619 -43.624679 
L 61.812059 -43.243766 
L 61.642499 -42.955133 
L 61.472939 -42.72066 
L 61.303378 -42.457249 
L 61.133818 -42.247584 
L 60.964258 -42.064605 
L 60.794698 -41.879396 
L 60.625137 -41.721322 
L 60.455577 -41.580391 
L 60.286017 -41.430292 
L 60.116456 -41.293749 
L 59.946896 -41.149138 
L 59.777336 -41.003205 
L 59.607776 -40.878518 
L 59.438215 -40.778013 
L 59.268655 -40.633588 
L 59.099095 -40.524348 
L 58.929535 -40.398512 
L 58.759974 -40.288951 
L 58.590414 -40.161785 
L 58.420854 -40.064826 
L 58.251294 -39.920253 
L 58.081733 -39.836147 
L 57.912173 -39.726414 
L 57.742613 -39.61469 
L 57.573053 -39.538991 
L 57.403492 -39.462237 
L 57.233932 -39.354522 
L 57.064372 -39.243571 
L 56.894811 -39.160796 
L 56.725251 -39.076848 
L 56.555691 -39.0369 
L 56.386131 -38.960295 
L 56.21657 -38.878011 
L 56.04701 -38.816467 
L 55.87745 -38.7637 
L 55.70789 -38.703063 
L 55.538329 -38.63404 
L 55.368769 -38.588579 
L 55.199209 -38.583054 
L 55.029649 -38.49951 
L 54.860088 -38.472167 
L 54.690528 -38.451621 
L 54.520968 -38.4225 
L 54.351407 -38.400892 
L 54.181847 -38.406338 
L 54.012287 -38.389507 
L 53.842727 -38.374811 
L 53.673166 -38.348666 
L 53.503606 -38.36293 
L 53.334046 -38.342035 
L 53.164486 -38.347113 
L 52.994925 -38.316215 
L 52.825365 -38.255743 
L 52.655805 -37.132988 
L 52.486245 -38.252457 
L 52.316684 -38.333463 
L 52.147124 -38.366412 
L 51.977564 -38.388953 
L 51.808004 -38.38592 
L 51.638443 -38.378789 
L 51.468883 -38.365997 
L 51.299323 -38.378031 
L 51.129762 -38.401302 
L 50.960202 -38.392608 
L 50.790642 -38.425149 
L 50.621082 -38.387023 
L 50.451521 -38.421549 
L 50.281961 -38.423474 
L 50.112401 -38.435763 
L 49.942841 -38.449236 
L 49.77328 -38.424508 
L 49.60372 -38.438517 
L 49.43416 -38.436296 
L 49.2646 -38.41277 
L 49.095039 -38.423729 
L 48.925479 -38.411023 
L 48.755919 -38.408307 
L 48.586359 -38.424186 
L 48.416798 -38.399105 
L 48.247238 -38.369305 
L 48.077678 -38.392267 
L 47.908117 -38.372807 
L 47.738557 -38.354622 
L 47.568997 -38.361659 
L 47.399437 -38.364431 
L 47.229876 -38.340184 
L 47.060316 -38.317507 
L 46.890756 -38.334545 
L 46.721196 -38.349558 
L 46.551635 -38.302849 
L 46.382075 -38.323443 
L 46.212515 -38.305696 
L 46.042955 -38.26826 
z
" style="stroke: #4682b4; stroke-opacity: 0.2"/>
    </defs>
    <g clip-path="url(#pb7108e45fb)">
     <use xlink:href="#mfc5a3c3360" x="0" y="106.079797" style="fill: #4682b4; fill-opacity: 0.2; stroke: #4682b4; stroke-opacity: 0.2"/>
    </g>
   </g>
   <g id="matplotlib.axis_1">
    <g id="xtick_1">
     <g id="line2d_1">
      <defs>
       <path id="ma62d590955" d="M 0 0 
L 0 3.5 
" style="stroke: #000000; stroke-width: 1.5"/>
      </defs>
      <g>
       <use xlink:href="#ma62d590955" x="46.042955" y="73.056047" style="stroke: #000000; stroke-width: 1.5"/>
      </g>
     </g>
     <g id="text_1">
      <text style="font: 8px 'Arial', sans-serif, serif; text-anchor: middle" x="46.042955" y="85.782297" transform="rotate(-0 46.042955 85.782297)">0</text>
     </g>
    </g>
    <g id="xtick_2">
     <g id="line2d_2">
      <g>
       <use xlink:href="#ma62d590955" x="79.955007" y="73.056047" style="stroke: #000000; stroke-width: 1.5"/>
      </g>
     </g>
     <g id="text_2">
      <text style="font: 8px 'Arial', sans-serif, serif; text-anchor: middle" x="79.955007" y="85.782297" transform="rotate(-0 79.955007 85.782297)">5</text>
     </g>
    </g>
    <g id="xtick_3">
     <g id="line2d_3">
      <g>
       <use xlink:href="#ma62d590955" x="113.86706" y="73.056047" style="stroke: #000000; stroke-width: 1.5"/>
      </g>
     </g>
     <g id="text_3">
      <text style="font: 8px 'Arial', sans-serif, serif; text-anchor: middle" x="113.86706" y="85.782297" transform="rotate(-0 113.86706 85.782297)">10</text>
     </g>
    </g>
    <g id="xtick_4">
     <g id="line2d_4">
      <g>
       <use xlink:href="#ma62d590955" x="147.779113" y="73.056047" style="stroke: #000000; stroke-width: 1.5"/>
      </g>
     </g>
     <g id="text_4">
      <text style="font: 8px 'Arial', sans-serif, serif; text-anchor: middle" x="147.779113" y="85.782297" transform="rotate(-0 147.779113 85.782297)">15</text>
     </g>
    </g>
    <g id="xtick_5">
     <g id="line2d_5">
      <g>
       <use xlink:href="#ma62d590955" x="181.691166" y="73.056047" style="stroke: #000000; stroke-width: 1.5"/>
      </g>
     </g>
     <g id="text_5">
      <text style="font: 8px 'Arial', sans-serif, serif; text-anchor: middle" x="181.691166" y="85.782297" transform="rotate(-0 181.691166 85.782297)">20</text>
     </g>
    </g>
    <g id="text_6">
     <text style="font: 8px 'Arial', sans-serif, serif; text-anchor: middle" x="113.6975" y="97.196047" transform="rotate(-0 113.6975 97.196047)">Time (ms)</text>
    </g>
   </g>
   <g id="matplotlib.axis_2">
    <g id="ytick_1">
     <g id="line2d_6">
      <defs>
       <path id="m67c8611889" d="M 0 0 
L -3.5 0 
" style="stroke: #000000; stroke-width: 1.5"/>
      </defs>
      <g>
       <use xlink:href="#m67c8611889" x="39.2775" y="58.359467" style="stroke: #000000; stroke-width: 1.5"/>
      </g>
     </g>
     <g id="text_7">
      <text style="font: 8px 'Arial', sans-serif, serif; text-anchor: end" x="32.2775" y="61.222592" transform="rotate(-0 32.2775 61.222592)">−50</text>
     </g>
    </g>
    <g id="ytick_2">
     <g id="line2d_7">
      <g>
       <use xlink:href="#m67c8611889" x="39.2775" y="34.211296" style="stroke: #000000; stroke-width: 1.5"/>
      </g>
     </g>
     <g id="text_8">
      <text style="font: 8px 'Arial', sans-serif, serif; text-anchor: end" x="32.2775" y="37.074421" transform="rotate(-0 32.2775 37.074421)">0</text>
     </g>
    </g>
    <g id="ytick_3">
     <g id="line2d_8">
      <g>
       <use xlink:href="#m67c8611889" x="39.2775" y="10.063125" style="stroke: #000000; stroke-width: 1.5"/>
      </g>
     </g>
     <g id="text_9">
      <text style="font: 8px 'Arial', sans-serif, serif; text-anchor: end" x="32.2775" y="12.92625" transform="rotate(-0 32.2775 12.92625)">50</text>
     </g>
    </g>
    <g id="text_10">
     <text style="font: 8px 'Arial', sans-serif, serif; text-anchor: middle" x="13.02375" y="40.572314" transform="rotate(-90 13.02375 40.572314)">V (mV)</text>
    </g>
   </g>
   <g id="line2d_9">
    <path d="M 46.042955 68.104159 
L 46.890756 68.150919 
L 47.568997 68.17561 
L 48.416798 68.181329 
L 49.43416 68.178199 
L 52.316684 68.322987 
L 52.486245 68.404781 
L 52.655805 69.524895 
L 52.825365 68.402648 
L 53.334046 68.31711 
L 55.70789 67.948677 
L 57.233932 67.285665 
L 59.946896 65.422619 
L 61.303378 64.08998 
L 61.981619 62.843102 
L 62.4903 61.240174 
L 62.998981 58.72476 
L 63.338102 56.250318 
L 63.677222 52.532415 
L 64.016343 47.158881 
L 64.355463 38.474939 
L 65.033704 16.211164 
L 65.372825 12.525719 
L 65.711945 11.466964 
L 65.881505 11.344881 
L 66.220626 11.633753 
L 66.559747 12.428785 
L 67.068427 14.412876 
L 67.746668 18.427563 
L 68.59447 25.151225 
L 70.798753 43.699275 
L 71.646554 48.707818 
L 73.003037 55.002625 
L 74.020398 58.711388 
L 74.698639 60.451091 
L 75.20732 61.398928 
L 75.716001 62.114789 
L 76.394242 62.712013 
L 76.902923 63.011183 
L 78.259405 63.173359 
L 79.615887 62.774706 
L 80.802809 62.159265 
L 83.007092 60.418348 
L 83.685333 59.471356 
L 84.363574 58.101878 
L 85.041815 55.922619 
L 85.550496 53.315145 
L 86.059177 48.776715 
L 86.398297 43.829542 
L 87.076539 28.223731 
L 87.415659 22.024405 
L 87.75478 18.733226 
L 88.0939 17.498192 
L 88.26346 17.416606 
L 88.433021 17.595508 
L 88.772141 18.634524 
L 89.280822 21.358903 
L 89.959063 26.483806 
L 92.332907 45.467457 
L 93.180708 49.849088 
L 94.19807 53.974402 
L 95.215431 57.341072 
L 96.063233 59.372084 
L 97.080594 60.862294 
L 97.928395 61.509538 
L 99.454438 61.807136 
L 100.64136 61.626994 
L 102.506523 60.733392 
L 103.184764 60.224874 
L 103.693444 59.728347 
L 104.541246 58.458118 
L 105.219487 56.980502 
L 105.728168 55.282769 
L 106.236848 52.812497 
L 106.745529 48.514159 
L 107.08465 43.860306 
L 108.441132 20.294151 
L 108.780252 18.979819 
L 108.949813 18.87314 
L 109.119373 19.026502 
L 109.458493 19.9813 
L 109.967174 22.652987 
L 110.814976 29.001166 
L 112.680138 43.839857 
L 113.358379 47.718187 
L 114.375741 52.111706 
L 115.732223 56.735097 
L 116.580024 58.874072 
L 117.427826 60.315752 
L 118.445187 61.251803 
L 119.123428 61.555491 
L 119.462549 61.657455 
L 120.479911 61.712743 
L 121.497272 61.475265 
L 122.853754 60.800236 
L 123.531995 60.280891 
L 124.379797 59.295927 
L 125.397158 57.502814 
L 126.075399 55.58577 
L 126.58408 53.34612 
L 127.092761 49.584308 
L 127.431881 45.533459 
L 127.940562 35.861007 
L 128.449243 25.534859 
L 128.788364 21.521632 
L 129.127484 19.655071 
L 129.297044 19.3392 
L 129.466605 19.322045 
L 129.636165 19.534777 
L 129.975285 20.637059 
L 130.483966 23.425967 
L 131.162207 28.485182 
L 133.19693 44.557586 
L 134.044732 49.17023 
L 135.062093 53.33069 
L 135.909895 56.195954 
L 136.757696 58.4685 
L 137.605497 60.016357 
L 138.453299 60.9132 
L 138.961979 61.261735 
L 139.64022 61.514695 
L 140.318461 61.562098 
L 141.505383 61.352513 
L 142.692305 60.831714 
L 143.879227 60.033286 
L 145.066149 58.682261 
L 146.08351 56.651984 
L 146.592191 54.996861 
L 147.100872 52.431541 
L 147.609553 48.018392 
L 147.948673 43.243458 
L 149.135595 21.884004 
L 149.474716 19.890766 
L 149.644276 19.48827 
L 149.813836 19.443884 
L 149.983397 19.654185 
L 150.322517 20.69562 
L 150.831198 23.427887 
L 151.678999 29.853744 
L 153.544162 44.723969 
L 154.391963 49.470125 
L 155.409325 53.756606 
L 156.257126 56.644619 
L 157.104928 58.831375 
L 157.783169 60.023491 
L 158.46141 60.810683 
L 158.970091 61.240612 
L 159.648332 61.493117 
L 160.496133 61.656344 
L 162.191736 61.325361 
L 163.717778 60.449534 
L 164.73514 59.551925 
L 165.413381 58.71093 
L 165.922061 57.877798 
L 166.600302 56.222023 
L 167.108983 54.334378 
L 167.617664 51.311232 
L 167.956785 48.158402 
L 168.295905 43.374022 
L 169.482827 21.812457 
L 169.821947 19.765672 
L 169.991508 19.357475 
L 170.161068 19.262974 
L 170.330628 19.466033 
L 170.669749 20.497452 
L 171.17843 23.186384 
L 172.026231 29.52665 
L 173.721834 42.834946 
L 174.569635 47.76408 
L 175.417436 51.573285 
L 176.604358 55.90368 
L 177.62172 58.668777 
L 178.469521 60.216263 
L 179.317322 61.18173 
L 179.826003 61.573835 
L 181.012925 61.928761 
L 181.352045 61.97906 
L 181.352045 61.97906 
" clip-path="url(#pb7108e45fb)" style="fill: none; stroke: #4682b4; stroke-width: 2; stroke-linecap: square"/>
   </g>
   <g id="line2d_10">
    <path d="M 46.042955 68.018739 
L 181.352045 67.94039 
L 181.352045 67.94039 
" clip-path="url(#pb7108e45fb)" style="fill: none; stroke: #b40426; stroke-width: 2; stroke-linecap: square"/>
   </g>
   <g id="line2d_11">
    <path d="M 46.042955 68.018736 
L 54.351407 67.926423 
L 55.538329 67.644474 
L 56.894811 67.076807 
L 58.420854 66.193804 
L 60.116456 64.976093 
L 61.133818 64.019902 
L 61.642499 63.298464 
L 62.15118 62.202386 
L 62.65986 60.392442 
L 63.168541 57.539314 
L 63.507662 54.548413 
L 64.016343 47.210175 
L 64.355463 38.538527 
L 65.033704 16.29978 
L 65.372825 12.68802 
L 65.711945 11.708438 
L 65.881505 11.663536 
L 66.051066 11.802303 
L 66.390186 12.506532 
L 66.898867 14.466019 
L 67.407548 17.394917 
L 68.255349 23.957842 
L 70.798753 45.398467 
L 71.816115 51.328093 
L 73.003037 56.965465 
L 73.850838 59.90166 
L 74.529079 61.437547 
L 75.20732 62.398778 
L 75.885561 62.951198 
L 76.563802 63.218173 
L 77.411603 63.275468 
L 78.428965 63.072302 
L 79.615887 62.591201 
L 81.141929 61.708733 
L 82.498411 60.661078 
L 83.346213 59.743683 
L 84.024454 58.682199 
L 84.533135 57.521414 
L 85.041815 55.829561 
L 85.550496 53.214676 
L 85.889617 50.52159 
L 86.228737 46.546241 
L 86.567858 40.49605 
L 87.415659 22.363164 
L 87.75478 19.189299 
L 88.0939 18.111521 
L 88.26346 18.115178 
L 88.433021 18.393373 
L 88.772141 19.603036 
L 89.280822 22.614128 
L 90.128623 29.455189 
L 91.824226 43.523151 
L 92.672027 48.711305 
L 93.689389 53.514519 
L 94.70675 57.32692 
L 95.384991 59.186286 
L 96.063233 60.473301 
L 96.741474 61.293059 
L 97.419715 61.767062 
L 98.097956 61.991431 
L 98.945757 62.02292 
L 99.963119 61.807331 
L 101.15004 61.313193 
L 102.506523 60.483644 
L 103.523884 59.608214 
L 104.371685 58.547654 
L 105.049927 57.265189 
L 105.558607 55.83381 
L 106.067288 53.69723 
L 106.575969 50.178878 
L 106.915089 46.429864 
L 107.42377 37.255178 
L 108.102011 24.064594 
L 108.441132 20.90003 
L 108.780252 19.743177 
L 108.949813 19.707071 
L 109.119373 19.950033 
L 109.458493 21.102012 
L 109.967174 24.039872 
L 110.814976 30.723819 
L 112.341018 43.096896 
L 113.188819 48.283325 
L 114.206181 53.017569 
L 115.223542 56.771928 
L 116.071344 59.035312 
L 116.749585 60.243591 
L 117.427826 61.015137 
L 118.106067 61.460281 
L 118.784308 61.667333 
L 119.632109 61.686176 
L 120.649471 61.461057 
L 121.836393 60.953924 
L 123.023315 60.213897 
L 124.040676 59.317806 
L 124.718917 58.476744 
L 125.397158 57.271352 
L 125.905839 55.945788 
L 126.41452 53.996659 
L 126.923201 50.852661 
L 127.262321 47.541654 
L 127.601442 42.593658 
L 128.788364 22.023082 
L 129.127484 20.385514 
L 129.297044 20.166146 
L 129.466605 20.255055 
L 129.805725 21.164365 
L 130.314406 23.850869 
L 131.162207 30.313397 
L 132.85781 43.835876 
L 133.705611 48.807825 
L 134.722973 53.381383 
L 135.740334 56.996739 
L 136.588136 59.142983 
L 137.266377 60.277189 
L 137.944618 60.995397 
L 138.622859 61.403304 
L 139.3011 61.584241 
L 140.148901 61.580482 
L 141.166263 61.336494 
L 142.353185 60.810503 
L 143.540107 60.042935 
L 144.557468 59.097993 
L 145.235709 58.196613 
L 145.91395 56.881755 
L 146.422631 55.41685 
L 146.931312 53.217582 
L 147.439993 49.56832 
L 147.779113 45.665031 
L 148.287794 36.350463 
L 148.966035 24.037311 
L 149.305156 21.247612 
L 149.644276 20.320652 
L 149.813836 20.365292 
L 150.152957 21.204877 
L 150.661638 23.818914 
L 151.339879 28.820239 
L 153.374602 44.841983 
L 154.222403 49.561096 
L 155.239765 53.965517 
L 156.257126 57.418646 
L 156.935367 59.079476 
L 157.613608 60.226179 
L 158.29185 60.955041 
L 158.970091 61.37145 
L 159.648332 61.559084 
L 160.496133 61.561795 
L 161.513495 61.323626 
L 162.700416 60.802754 
L 163.887338 60.039624 
L 164.9047 59.099789 
L 165.582941 58.204484 
L 166.261182 56.901219 
L 166.769863 55.451776 
L 167.278544 53.280859 
L 167.787224 49.688351 
L 168.126345 45.851622 
L 168.635026 36.654521 
L 169.313267 24.226387 
L 169.652387 21.349121 
L 169.991508 20.35954 
L 170.161068 20.380458 
L 170.330628 20.669118 
L 170.669749 21.888008 
L 171.17843 24.87926 
L 172.026231 31.54532 
L 173.552273 43.649372 
L 174.400075 48.655953 
L 175.417436 53.247742 
L 176.434798 56.881487 
L 177.282599 59.054504 
L 177.96084 60.210208 
L 178.639081 60.946303 
L 179.317322 61.368327 
L 179.995563 61.560354 
L 180.843365 61.56737 
L 181.352045 61.478134 
L 181.352045 61.478134 
" clip-path="url(#pb7108e45fb)" style="fill: none; stroke-dasharray: 5.55,2.4; stroke-dashoffset: 0; stroke: #000000; stroke-width: 1.5"/>
   </g>
   <g id="patch_3">
    <path d="M 39.2775 73.056047 
L 39.2775 8.08858 
" style="fill: none; stroke: #000000; stroke-width: 1.5; stroke-linejoin: miter; stroke-linecap: square"/>
   </g>
   <g id="patch_4">
    <path d="M 39.2775 73.056047 
L 188.1175 73.056047 
" style="fill: none; stroke: #000000; stroke-width: 1.5; stroke-linejoin: miter; stroke-linecap: square"/>
   </g>
  </g>
 </g>
 <defs>
  <clipPath id="pb7108e45fb">
   <rect x="39.2775" y="8.08858" width="148.84" height="64.967468"/>
  </clipPath>
 </defs>
</svg>
