<?xml version="1.0" encoding="utf-8" standalone="no"?>
<!DOCTYPE svg PUBLIC "-//W3C//DTD SVG 1.1//EN"
  "http://www.w3.org/Graphics/SVG/1.1/DTD/svg11.dtd">
<svg xmlns:xlink="http://www.w3.org/1999/xlink" width="129.812992pt" height="105.54375pt" viewBox="0 0 129.812992 105.54375" xmlns="http://www.w3.org/2000/svg" version="1.1">
 <metadata>
  <rdf:RDF xmlns:dc="http://purl.org/dc/elements/1.1/" xmlns:cc="http://creativecommons.org/ns#" xmlns:rdf="http://www.w3.org/1999/02/22-rdf-syntax-ns#">
   <cc:Work>
    <dc:type rdf:resource="http://purl.org/dc/dcmitype/StillImage"/>
    <dc:date>2025-10-24T02:32:34.675844</dc:date>
    <dc:format>image/svg+xml</dc:format>
    <dc:creator>
     <cc:Agent>
      <dc:title>Matplotlib v3.9.2, https://matplotlib.org/</dc:title>
     </cc:Agent>
    </dc:creator>
   </cc:Work>
  </rdf:RDF>
 </metadata>
 <defs>
  <style type="text/css">*{stroke-linejoin: round; stroke-linecap: butt}</style>
 </defs>
 <g id="figure_1">
  <g id="patch_1">
   <path d="M 0 105.54375 
L 129.812992 105.54375 
L 129.812992 0 
L 0 0 
z
" style="fill: #ffffff"/>
  </g>
  <g id="axes_1">
   <g id="patch_2">
    <path d="M 39.2775 72.52 
L 122.1175 72.52 
L 122.1175 7.2 
L 39.2775 7.2 
z
" style="fill: #ffffff"/>
   </g>
   <g id="matplotlib.axis_1">
    <g id="xtick_1">
     <g id="line2d_1">
      <defs>
       <path id="mab242f149b" d="M 0 0 
L 0 3.5 
" style="stroke: #000000; stroke-width: 1.5"/>
      </defs>
      <g>
       <use xlink:href="#mab242f149b" x="43.042955" y="72.52" style="stroke: #000000; stroke-width: 1.5"/>
      </g>
     </g>
     <g id="text_1">
      <text style="font: 8px 'Arial', sans-serif, serif; text-anchor: middle" x="43.042955" y="85.24625" transform="rotate(-0 43.042955 85.24625)">0</text>
     </g>
    </g>
    <g id="xtick_2">
     <g id="line2d_2">
      <g>
       <use xlink:href="#mab242f149b" x="80.603598" y="72.52" style="stroke: #000000; stroke-width: 1.5"/>
      </g>
     </g>
     <g id="text_2">
      <text style="font: 8px 'Arial', sans-serif, serif; text-anchor: middle" x="80.603598" y="85.24625" transform="rotate(-0 80.603598 85.24625)">5</text>
     </g>
    </g>
    <g id="xtick_3">
     <g id="line2d_3">
      <g>
       <use xlink:href="#mab242f149b" x="118.164242" y="72.52" style="stroke: #000000; stroke-width: 1.5"/>
      </g>
     </g>
     <g id="text_3">
      <text style="font: 8px 'Arial', sans-serif, serif; text-anchor: middle" x="118.164242" y="85.24625" transform="rotate(-0 118.164242 85.24625)">10</text>
     </g>
    </g>
    <g id="text_4">
     <text style="font: 8px 'Arial', sans-serif, serif; text-anchor: middle" x="80.6975" y="96.66" transform="rotate(-0 80.6975 96.66)">Time (ms)</text>
    </g>
   </g>
   <g id="matplotlib.axis_2">
    <g id="ytick_1">
     <g id="line2d_4">
      <defs>
       <path id="mc54c954d2a" d="M 0 0 
L -3.5 0 
" style="stroke: #000000; stroke-width: 1.5"/>
      </defs>
      <g>
       <use xlink:href="#mc54c954d2a" x="39.2775" y="58.247565" style="stroke: #000000; stroke-width: 1.5"/>
      </g>
     </g>
     <g id="text_5">
      <text style="font: 8px 'Arial', sans-serif, serif; text-anchor: end" x="32.2775" y="61.11069" transform="rotate(-0 32.2775 61.11069)">−50</text>
     </g>
    </g>
    <g id="ytick_2">
     <g id="line2d_5">
      <g>
       <use xlink:href="#mc54c954d2a" x="39.2775" y="39.438513" style="stroke: #000000; stroke-width: 1.5"/>
      </g>
     </g>
     <g id="text_6">
      <text style="font: 8px 'Arial', sans-serif, serif; text-anchor: end" x="32.2775" y="42.301638" transform="rotate(-0 32.2775 42.301638)">−25</text>
     </g>
    </g>
    <g id="ytick_3">
     <g id="line2d_6">
      <g>
       <use xlink:href="#mc54c954d2a" x="39.2775" y="20.62946" style="stroke: #000000; stroke-width: 1.5"/>
      </g>
     </g>
     <g id="text_7">
      <text style="font: 8px 'Arial', sans-serif, serif; text-anchor: end" x="32.2775" y="23.492585" transform="rotate(-0 32.2775 23.492585)">0</text>
     </g>
    </g>
    <g id="text_8">
     <text style="font: 8px 'Arial', sans-serif, serif; text-anchor: middle" x="13.02375" y="39.86" transform="rotate(-90 13.02375 39.86)">V (mV)</text>
    </g>
   </g>
   <g id="line2d_7">
    <path d="M 43.042955 69.548568 
L 43.981971 69.363847 
L 50.555083 67.762166 
L 58.442819 65.790834 
L 62.386686 64.58992 
L 65.203734 63.512885 
L 67.26957 62.491056 
L 68.771996 61.512842 
L 69.898815 60.538207 
L 70.837831 59.43343 
L 71.589044 58.185929 
L 72.152454 56.83588 
L 72.715863 54.728951 
L 73.09147 52.387353 
L 73.467076 48.162394 
L 73.842682 39.057264 
L 74.406092 20.564844 
L 74.593895 19.043485 
L 74.781699 19.546261 
L 75.157305 24.572322 
L 76.471928 48.312165 
L 77.035337 54.291976 
L 77.598747 58.42875 
L 78.162157 61.052739 
L 78.725566 62.626433 
L 79.288976 63.539979 
L 79.852386 64.051333 
L 80.603598 64.374146 
L 81.542614 64.463585 
L 82.857237 64.299731 
L 84.547466 63.845707 
L 86.613301 63.048591 
L 88.30353 62.174427 
L 89.618153 61.278368 
L 90.744972 60.247433 
L 91.683988 59.043782 
L 92.435201 57.631668 
L 92.998611 56.024768 
L 93.374217 54.413224 
L 93.749824 51.880422 
L 94.12543 47.176429 
L 94.501037 36.98065 
L 94.876643 23.281516 
L 95.064446 19.954582 
L 95.252249 19.135291 
L 95.440053 20.146539 
L 95.815659 25.773705 
L 96.942478 46.632137 
L 97.505888 53.076656 
L 98.069298 57.600695 
L 98.632707 60.527059 
L 99.196117 62.298821 
L 99.759527 63.33854 
L 100.322936 63.93068 
L 100.886346 64.249161 
L 101.637559 64.421493 
L 102.576575 64.409728 
L 104.079001 64.127043 
L 105.957033 63.529062 
L 107.835065 62.711787 
L 109.337491 61.85047 
L 110.652113 60.845615 
L 111.59113 59.874271 
L 112.342342 58.820497 
L 112.905752 57.740696 
L 113.469162 56.191369 
L 113.844768 54.657049 
L 114.220375 52.286073 
L 114.595981 47.990164 
L 114.971588 38.734639 
L 115.534997 20.542549 
L 115.7228 19.151187 
L 115.910604 19.746066 
L 116.28621 24.869206 
L 117.413029 45.969675 
L 117.976439 52.60549 
L 118.352045 55.93327 
L 118.352045 55.93327 
" clip-path="url(#p8b6e0e40a3)" style="fill: none; stroke: #4682b4; stroke-width: 1.5; stroke-linecap: square"/>
   </g>
   <g id="line2d_8">
    <path d="M 43.042955 69.548568 
L 43.981971 69.358779 
L 52.057509 67.328809 
L 57.315999 65.875497 
L 60.508654 64.772901 
L 62.762293 63.769234 
L 64.452522 62.770626 
L 65.579341 61.881325 
L 66.518357 60.88282 
L 67.26957 59.766281 
L 67.832979 58.568424 
L 68.396389 56.709718 
L 68.771996 54.63229 
L 69.147602 50.721949 
L 69.335405 47.012829 
L 69.523208 40.52734 
L 70.086618 11.662965 
L 70.274421 10.169091 
L 70.462225 12.130143 
L 70.837831 22.66433 
L 71.589044 45.805417 
L 72.152454 55.97338 
L 72.715863 62.428876 
L 73.279273 65.980692 
L 73.842682 67.834052 
L 74.406092 68.781056 
L 74.969502 69.24885 
L 75.720715 69.503356 
L 76.659731 69.544161 
L 78.34996 69.335045 
L 82.106024 68.574364 
L 88.86694 66.978429 
L 93.374217 65.704721 
L 96.379069 64.637699 
L 98.444904 63.694139 
L 99.94733 62.80182 
L 101.074149 61.92365 
L 102.013165 60.941696 
L 102.764378 59.850219 
L 103.327788 58.688823 
L 103.891198 56.910549 
L 104.266804 54.962285 
L 104.64241 51.40872 
L 104.830214 48.147186 
L 105.018017 42.548985 
L 105.581427 12.745231 
L 105.76923 10.180058 
L 105.957033 11.364123 
L 106.332639 21.044694 
L 107.083852 44.713803 
L 107.647262 55.254368 
L 108.210672 62.00049 
L 108.774081 65.749747 
L 109.337491 67.711407 
L 109.900901 68.718882 
L 110.46431 69.220664 
L 111.02772 69.448994 
L 111.966736 69.539559 
L 113.469162 69.395217 
L 116.474013 68.821119 
L 118.352045 68.428491 
L 118.352045 68.428491 
" clip-path="url(#p8b6e0e40a3)" style="fill: none; stroke: #008000; stroke-width: 1.5; stroke-linecap: square"/>
   </g>
   <g id="line2d_9">
    <path d="M 43.042955 69.548568 
L 43.981971 69.363437 
L 50.555083 67.757895 
L 58.255015 65.828944 
L 62.198883 64.630166 
L 65.015931 63.558012 
L 67.081767 62.544275 
L 68.584192 61.57787 
L 69.711012 60.619948 
L 70.650028 59.54146 
L 71.401241 58.335006 
L 71.96465 57.045393 
L 72.52806 55.070675 
L 72.903666 52.932677 
L 73.279273 49.204613 
L 73.654879 41.346841 
L 74.218289 21.740908 
L 74.406092 19.272622 
L 74.593895 19.089462 
L 74.781699 20.570361 
L 75.157305 26.771312 
L 76.096321 44.766777 
L 76.659731 51.772056 
L 77.22314 56.720095 
L 77.78655 59.986643 
L 78.34996 61.986951 
L 78.913369 63.164629 
L 79.476779 63.835352 
L 80.040189 64.201011 
L 80.791402 64.411595 
L 81.730418 64.425885 
L 83.04504 64.208047 
L 84.923072 63.645506 
L 86.801105 62.862862 
L 88.491334 61.92377 
L 89.805956 60.940118 
L 90.744972 59.996385 
L 91.496185 58.982363 
L 92.247398 57.533926 
L 92.810808 55.868588 
L 93.186414 54.177107 
L 93.562021 51.472525 
L 93.937627 46.324108 
L 94.313233 35.188145 
L 94.68884 22.139619 
L 94.876643 19.48894 
L 95.064446 19.17027 
L 95.252249 20.548393 
L 95.627856 26.611407 
L 96.566872 44.58629 
L 97.130282 51.623648 
L 97.693691 56.599656 
L 98.257101 59.894052 
L 98.820511 61.913891 
L 99.38392 63.107054 
L 99.94733 63.792377 
L 100.51074 64.167619 
L 101.261953 64.383348 
L 102.200969 64.39916 
L 103.515591 64.180663 
L 105.393623 63.614804 
L 107.271656 62.825698 
L 108.961884 61.875669 
L 110.276507 60.875968 
L 111.215523 59.911277 
L 111.966736 58.867194 
L 112.530146 57.800538 
L 113.093555 56.276684 
L 113.469162 54.776088 
L 113.844768 52.474371 
L 114.220375 48.348653 
L 114.595981 39.496695 
L 115.159391 20.813756 
L 115.347194 19.13676 
L 115.534997 19.525542 
L 115.910604 24.399896 
L 117.225226 48.130808 
L 117.788636 54.137346 
L 118.352045 58.317384 
L 118.352045 58.317384 
" clip-path="url(#p8b6e0e40a3)" style="fill: none; stroke-dasharray: 1.5,2.475; stroke-dashoffset: 0; stroke: #000000; stroke-width: 1.5"/>
   </g>
   <g id="patch_3">
    <path d="M 39.2775 72.52 
L 39.2775 7.2 
" style="fill: none; stroke: #000000; stroke-width: 1.5; stroke-linejoin: miter; stroke-linecap: square"/>
   </g>
   <g id="patch_4">
    <path d="M 39.2775 72.52 
L 122.1175 72.52 
" style="fill: none; stroke: #000000; stroke-width: 1.5; stroke-linejoin: miter; stroke-linecap: square"/>
   </g>
   <g id="legend_1">
    <g id="line2d_10">
     <path d="M 36.9325 17.42375 
L 44.9325 17.42375 
L 52.9325 17.42375 
" style="fill: none; stroke: #4682b4; stroke-width: 1.5; stroke-linecap: square"/>
    </g>
    <g id="text_9">
     <text style="font: 8px 'Arial', sans-serif, serif; text-anchor: start" x="59.3325" y="20.22375" transform="rotate(-0 59.3325 20.22375)">Inferred voltage</text>
    </g>
    <g id="line2d_11">
     <path d="M 36.9325 28.83375 
L 44.9325 28.83375 
L 52.9325 28.83375 
" style="fill: none; stroke: #008000; stroke-width: 1.5; stroke-linecap: square"/>
    </g>
    <g id="text_10">
     <text style="font: 8px 'Arial', sans-serif, serif; text-anchor: start" x="59.3325" y="31.63375" transform="rotate(-0 59.3325 31.63375)">Initial guess</text>
    </g>
    <g id="line2d_12">
     <path d="M 36.9325 40.24375 
L 44.9325 40.24375 
L 52.9325 40.24375 
" style="fill: none; stroke-dasharray: 1.5,2.475; stroke-dashoffset: 0; stroke: #000000; stroke-width: 1.5"/>
    </g>
    <g id="text_11">
     <text style="font: 8px 'Arial', sans-serif, serif; text-anchor: start" x="59.3325" y="43.04375" transform="rotate(-0 59.3325 43.04375)">True voltage</text>
    </g>
   </g>
  </g>
 </g>
 <defs>
  <clipPath id="p8b6e0e40a3">
   <rect x="39.2775" y="7.2" width="82.84" height="65.32"/>
  </clipPath>
 </defs>
</svg>
