<?xml version="1.0" encoding="utf-8" standalone="no"?>
<!DOCTYPE svg PUBLIC "-//W3C//DTD SVG 1.1//EN"
  "http://www.w3.org/Graphics/SVG/1.1/DTD/svg11.dtd">
<svg xmlns:xlink="http://www.w3.org/1999/xlink" width="129.812992pt" height="105.54375pt" viewBox="0 0 129.812992 105.54375" xmlns="http://www.w3.org/2000/svg" version="1.1">
 <metadata>
  <rdf:RDF xmlns:dc="http://purl.org/dc/elements/1.1/" xmlns:cc="http://creativecommons.org/ns#" xmlns:rdf="http://www.w3.org/1999/02/22-rdf-syntax-ns#">
   <cc:Work>
    <dc:type rdf:resource="http://purl.org/dc/dcmitype/StillImage"/>
    <dc:date>2025-10-25T03:41:00.416371</dc:date>
    <dc:format>image/svg+xml</dc:format>
    <dc:creator>
     <cc:Agent>
      <dc:title>Matplotlib v3.9.2, https://matplotlib.org/</dc:title>
     </cc:Agent>
    </dc:creator>
   </cc:Work>
  </rdf:RDF>
 </metadata>
 <defs>
  <style type="text/css">*{stroke-linejoin: round; stroke-linecap: butt}</style>
 </defs>
 <g id="figure_1">
  <g id="patch_1">
   <path d="M 0 105.54375 
L 129.812992 105.54375 
L 129.812992 0 
L 0 0 
z
" style="fill: #ffffff"/>
  </g>
  <g id="axes_1">
   <g id="patch_2">
    <path d="M 39.2775 72.52 
L 122.1175 72.52 
L 122.1175 7.2 
L 39.2775 7.2 
z
" style="fill: #ffffff"/>
   </g>
   <g id="matplotlib.axis_1">
    <g id="xtick_1">
     <g id="line2d_1">
      <defs>
       <path id="mcae518b2bf" d="M 0 0 
L 0 3.5 
" style="stroke: #000000; stroke-width: 1.5"/>
      </defs>
      <g>
       <use xlink:href="#mcae518b2bf" x="43.042955" y="72.52" style="stroke: #000000; stroke-width: 1.5"/>
      </g>
     </g>
     <g id="text_1">
      <text style="font: 8px 'Arial', sans-serif, serif; text-anchor: middle" x="43.042955" y="85.24625" transform="rotate(-0 43.042955 85.24625)">0</text>
     </g>
    </g>
    <g id="xtick_2">
     <g id="line2d_2">
      <g>
       <use xlink:href="#mcae518b2bf" x="80.603598" y="72.52" style="stroke: #000000; stroke-width: 1.5"/>
      </g>
     </g>
     <g id="text_2">
      <text style="font: 8px 'Arial', sans-serif, serif; text-anchor: middle" x="80.603598" y="85.24625" transform="rotate(-0 80.603598 85.24625)">5</text>
     </g>
    </g>
    <g id="xtick_3">
     <g id="line2d_3">
      <g>
       <use xlink:href="#mcae518b2bf" x="118.164242" y="72.52" style="stroke: #000000; stroke-width: 1.5"/>
      </g>
     </g>
     <g id="text_3">
      <text style="font: 8px 'Arial', sans-serif, serif; text-anchor: middle" x="118.164242" y="85.24625" transform="rotate(-0 118.164242 85.24625)">10</text>
     </g>
    </g>
    <g id="text_4">
     <text style="font: 8px 'Arial', sans-serif, serif; text-anchor: middle" x="80.6975" y="96.66" transform="rotate(-0 80.6975 96.66)">Time (ms)</text>
    </g>
   </g>
   <g id="matplotlib.axis_2">
    <g id="ytick_1">
     <g id="line2d_4">
      <defs>
       <path id="mff7ce62b79" d="M 0 0 
L -3.5 0 
" style="stroke: #000000; stroke-width: 1.5"/>
      </defs>
      <g>
       <use xlink:href="#mff7ce62b79" x="39.2775" y="58.171739" style="stroke: #000000; stroke-width: 1.5"/>
      </g>
     </g>
     <g id="text_5">
      <text style="font: 8px 'Arial', sans-serif, serif; text-anchor: end" x="32.2775" y="61.034864" transform="rotate(-0 32.2775 61.034864)">−50</text>
     </g>
    </g>
    <g id="ytick_2">
     <g id="line2d_5">
      <g>
       <use xlink:href="#mff7ce62b79" x="39.2775" y="39.613542" style="stroke: #000000; stroke-width: 1.5"/>
      </g>
     </g>
     <g id="text_6">
      <text style="font: 8px 'Arial', sans-serif, serif; text-anchor: end" x="32.2775" y="42.476667" transform="rotate(-0 32.2775 42.476667)">−25</text>
     </g>
    </g>
    <g id="ytick_3">
     <g id="line2d_6">
      <g>
       <use xlink:href="#mff7ce62b79" x="39.2775" y="21.055344" style="stroke: #000000; stroke-width: 1.5"/>
      </g>
     </g>
     <g id="text_7">
      <text style="font: 8px 'Arial', sans-serif, serif; text-anchor: end" x="32.2775" y="23.918469" transform="rotate(-0 32.2775 23.918469)">0</text>
     </g>
    </g>
    <g id="text_8">
     <text style="font: 8px 'Arial', sans-serif, serif; text-anchor: middle" x="13.02375" y="39.86" transform="rotate(-90 13.02375 39.86)">V (mV)</text>
    </g>
   </g>
   <g id="line2d_7">
    <path d="M 43.042955 69.322022 
L 43.794167 69.006334 
L 46.423412 68.30504 
L 61.259867 64.624498 
L 64.264718 63.562029 
L 66.330554 62.614304 
L 67.832979 61.710827 
L 68.959799 60.815034 
L 69.898815 59.806058 
L 70.650028 58.676524 
L 71.213437 57.467347 
L 71.776847 55.608504 
L 72.152454 53.576914 
L 72.52806 49.946681 
L 72.715863 46.760028 
L 73.09147 33.759465 
L 73.467076 18.256651 
L 73.654879 16.043603 
L 73.842682 17.066259 
L 74.218289 25.671388 
L 74.969502 46.886466 
L 75.532911 56.890211 
L 76.096321 63.056066 
L 76.659731 66.346278 
L 77.22314 68.035326 
L 77.78655 68.890429 
L 78.34996 69.308233 
L 79.101173 69.522169 
L 80.227992 69.521127 
L 82.293827 69.211419 
L 88.30353 67.986008 
L 97.130282 66.001382 
L 101.637559 64.781351 
L 104.830214 63.693863 
L 107.083852 62.691863 
L 108.586278 61.813834 
L 109.900901 60.782279 
L 110.839917 59.761665 
L 111.59113 58.613949 
L 112.154539 57.377984 
L 112.717949 55.460198 
L 113.093555 53.336161 
L 113.469162 49.467521 
L 113.656965 46.012122 
L 114.032571 32.067284 
L 114.408178 17.579099 
L 114.595981 16.015668 
L 114.783784 17.538308 
L 115.159391 26.70507 
L 115.910604 47.615055 
L 116.474013 57.364003 
L 117.037423 63.316815 
L 117.600833 66.47823 
L 118.164242 68.10002 
L 118.352045 68.546774 
L 118.352045 68.546774 
" clip-path="url(#p934a146bfc)" style="fill: none; stroke: #4682b4; stroke-width: 1.5; stroke-linecap: square"/>
   </g>
   <g id="line2d_8">
    <path d="M 43.042955 69.322022 
L 43.794167 68.999865 
L 46.423412 68.272388 
L 57.691606 65.328681 
L 60.696457 64.27678 
L 62.950096 63.254532 
L 64.452522 62.354526 
L 65.579341 61.462896 
L 66.518357 60.457009 
L 67.26957 59.325261 
L 67.832979 58.10181 
L 68.396389 56.182387 
L 68.771996 54.005952 
L 69.147602 49.832357 
L 69.335405 45.818483 
L 69.523208 38.819509 
L 70.086618 11.396496 
L 70.274421 10.18972 
L 70.462225 12.116618 
L 70.837831 22.293324 
L 71.589044 45.102161 
L 72.152454 55.248407 
L 72.715863 61.805509 
L 73.279273 65.424377 
L 73.842682 67.30796 
L 74.406092 68.275174 
L 74.969502 68.758507 
L 75.720715 69.021217 
L 76.659731 69.065219 
L 78.34996 68.860267 
L 82.106024 68.10965 
L 88.86694 66.53345 
L 93.374217 65.27287 
L 96.379069 64.214051 
L 98.444904 63.274973 
L 99.94733 62.383926 
L 101.074149 61.503635 
L 102.013165 60.514653 
L 102.764378 59.408696 
L 103.327788 58.223154 
L 103.891198 56.388623 
L 104.266804 54.350914 
L 104.64241 50.567294 
L 104.830214 47.043769 
L 105.018017 40.981176 
L 105.581427 12.324687 
L 105.76923 10.169091 
L 105.957033 11.377866 
L 106.332639 20.717002 
L 107.083852 44.02069 
L 107.647262 54.5328 
L 108.210672 61.374924 
L 108.774081 65.193215 
L 109.337491 67.184547 
L 109.900901 68.208732 
L 110.46431 68.722838 
L 111.02772 68.963391 
L 111.966736 69.065178 
L 113.469162 68.92152 
L 116.661816 68.313892 
L 118.352045 68.059325 
L 118.352045 68.059325 
" clip-path="url(#p934a146bfc)" style="fill: none; stroke: #008000; stroke-width: 1.5; stroke-linecap: square"/>
   </g>
   <g id="line2d_9">
    <path d="M 43.042955 69.322022 
L 43.794167 69.001405 
L 46.423412 68.285614 
L 61.072064 64.571371 
L 64.264718 63.45156 
L 66.518357 62.435985 
L 68.208586 61.436965 
L 69.523208 60.392687 
L 70.462225 59.378269 
L 71.213437 58.265091 
L 71.776847 57.105298 
L 72.340257 55.398561 
L 72.715863 53.650444 
L 73.09147 50.827189 
L 73.467076 45.402027 
L 73.842682 33.966931 
L 74.218289 21.875288 
L 74.406092 19.589179 
L 74.593895 19.463468 
L 74.781699 20.97276 
L 75.157305 27.229173 
L 76.096321 45.069504 
L 76.659731 51.872729 
L 77.22314 56.634791 
L 77.78655 59.774406 
L 78.34996 61.696605 
L 78.913369 62.827711 
L 79.476779 63.473013 
L 80.040189 63.822611 
L 80.791402 64.01822 
L 81.730418 64.021469 
L 83.04504 63.796966 
L 84.923072 63.233102 
L 86.801105 62.452857 
L 88.491334 61.516723 
L 89.805956 60.534501 
L 90.744972 59.589856 
L 91.496185 58.571948 
L 92.247398 57.11228 
L 92.810808 55.425645 
L 93.186414 53.704142 
L 93.562021 50.93877 
L 93.937627 45.66758 
L 94.313233 34.536247 
L 94.68884 22.251288 
L 94.876643 19.796467 
L 95.064446 19.540749 
L 95.252249 20.948014 
L 95.627856 27.06857 
L 96.566872 44.893665 
L 97.130282 51.728894 
L 97.693691 56.518462 
L 98.257101 59.686304 
L 98.820511 61.630347 
L 99.38392 62.775962 
L 99.94733 63.430559 
L 100.51074 63.786167 
L 101.261953 63.986552 
L 102.200969 63.99259 
L 103.515591 63.76878 
L 105.393623 63.202322 
L 107.271656 62.415789 
L 108.961884 61.468729 
L 110.276507 60.470364 
L 111.215523 59.504544 
L 111.966736 58.456139 
L 112.530146 57.381479 
L 113.093555 55.839772 
L 113.469162 54.314634 
L 113.844768 51.964485 
L 114.220375 47.737823 
L 114.595981 38.774998 
L 115.159391 21.023339 
L 115.347194 19.47716 
L 115.534997 19.907661 
L 115.910604 24.841817 
L 117.037423 45.907002 
L 117.600833 52.434275 
L 118.164242 57.001658 
L 118.352045 58.262144 
L 118.352045 58.262144 
" clip-path="url(#p934a146bfc)" style="fill: none; stroke-dasharray: 1.5,2.475; stroke-dashoffset: 0; stroke: #000000; stroke-width: 1.5"/>
   </g>
   <g id="patch_3">
    <path d="M 39.2775 72.52 
L 39.2775 7.2 
" style="fill: none; stroke: #000000; stroke-width: 1.5; stroke-linejoin: miter; stroke-linecap: square"/>
   </g>
   <g id="patch_4">
    <path d="M 39.2775 72.52 
L 122.1175 72.52 
" style="fill: none; stroke: #000000; stroke-width: 1.5; stroke-linejoin: miter; stroke-linecap: square"/>
   </g>
   <g id="legend_1">
    <g id="line2d_10">
     <path d="M 36.9325 17.42375 
L 44.9325 17.42375 
L 52.9325 17.42375 
" style="fill: none; stroke: #4682b4; stroke-width: 1.5; stroke-linecap: square"/>
    </g>
    <g id="text_9">
     <text style="font: 8px 'Arial', sans-serif, serif; text-anchor: start" x="59.3325" y="20.22375" transform="rotate(-0 59.3325 20.22375)">Inferred voltage</text>
    </g>
    <g id="line2d_11">
     <path d="M 36.9325 28.83375 
L 44.9325 28.83375 
L 52.9325 28.83375 
" style="fill: none; stroke: #008000; stroke-width: 1.5; stroke-linecap: square"/>
    </g>
    <g id="text_10">
     <text style="font: 8px 'Arial', sans-serif, serif; text-anchor: start" x="59.3325" y="31.63375" transform="rotate(-0 59.3325 31.63375)">Initial guess</text>
    </g>
    <g id="line2d_12">
     <path d="M 36.9325 40.24375 
L 44.9325 40.24375 
L 52.9325 40.24375 
" style="fill: none; stroke-dasharray: 1.5,2.475; stroke-dashoffset: 0; stroke: #000000; stroke-width: 1.5"/>
    </g>
    <g id="text_11">
     <text style="font: 8px 'Arial', sans-serif, serif; text-anchor: start" x="59.3325" y="43.04375" transform="rotate(-0 59.3325 43.04375)">True voltage</text>
    </g>
   </g>
  </g>
 </g>
 <defs>
  <clipPath id="p934a146bfc">
   <rect x="39.2775" y="7.2" width="82.84" height="65.32"/>
  </clipPath>
 </defs>
</svg>
