<?xml version="1.0" encoding="utf-8" standalone="no"?>
<!DOCTYPE svg PUBLIC "-//W3C//DTD SVG 1.1//EN"
  "http://www.w3.org/Graphics/SVG/1.1/DTD/svg11.dtd">
<svg xmlns:xlink="http://www.w3.org/1999/xlink" width="141.812236pt" height="105.54375pt" viewBox="0 0 141.812236 105.54375" xmlns="http://www.w3.org/2000/svg" version="1.1">
 <metadata>
  <rdf:RDF xmlns:dc="http://purl.org/dc/elements/1.1/" xmlns:cc="http://creativecommons.org/ns#" xmlns:rdf="http://www.w3.org/1999/02/22-rdf-syntax-ns#">
   <cc:Work>
    <dc:type rdf:resource="http://purl.org/dc/dcmitype/StillImage"/>
    <dc:date>2025-10-25T21:43:47.918805</dc:date>
    <dc:format>image/svg+xml</dc:format>
    <dc:creator>
     <cc:Agent>
      <dc:title>Matplotlib v3.9.2, https://matplotlib.org/</dc:title>
     </cc:Agent>
    </dc:creator>
   </cc:Work>
  </rdf:RDF>
 </metadata>
 <defs>
  <style type="text/css">*{stroke-linejoin: round; stroke-linecap: butt}</style>
 </defs>
 <g id="figure_1">
  <g id="patch_1">
   <path d="M 0 105.54375 
L 141.812236 105.54375 
L 141.812236 0 
L 0 0 
z
" style="fill: #ffffff"/>
  </g>
  <g id="axes_1">
   <g id="patch_2">
    <path d="M 55.3875 72.52 
L 133.8175 72.52 
L 133.8175 7.2 
L 55.3875 7.2 
z
" style="fill: #ffffff"/>
   </g>
   <g id="matplotlib.axis_1">
    <g id="xtick_1">
     <g id="line2d_1">
      <defs>
       <path id="m930f540f58" d="M 0 0 
L 0 3.5 
" style="stroke: #000000; stroke-width: 1.5"/>
      </defs>
      <g>
       <use xlink:href="#m930f540f58" x="58.9525" y="72.52" style="stroke: #000000; stroke-width: 1.5"/>
      </g>
     </g>
     <g id="text_1">
      <text style="font: 8px 'Arial', sans-serif, serif; text-anchor: middle" x="58.9525" y="85.24625" transform="rotate(-0 58.9525 85.24625)">0</text>
     </g>
    </g>
    <g id="xtick_2">
     <g id="line2d_2">
      <g>
       <use xlink:href="#m930f540f58" x="94.557993" y="72.52" style="stroke: #000000; stroke-width: 1.5"/>
      </g>
     </g>
     <g id="text_2">
      <text style="font: 8px 'Arial', sans-serif, serif; text-anchor: middle" x="94.557993" y="85.24625" transform="rotate(-0 94.557993 85.24625)">10</text>
     </g>
    </g>
    <g id="xtick_3">
     <g id="line2d_3">
      <g>
       <use xlink:href="#m930f540f58" x="130.163486" y="72.52" style="stroke: #000000; stroke-width: 1.5"/>
      </g>
     </g>
     <g id="text_3">
      <text style="font: 8px 'Arial', sans-serif, serif; text-anchor: middle" x="130.163486" y="85.24625" transform="rotate(-0 130.163486 85.24625)">20</text>
     </g>
    </g>
    <g id="text_4">
     <text style="font: 8px 'Arial', sans-serif, serif; text-anchor: middle" x="94.6025" y="96.66" transform="rotate(-0 94.6025 96.66)">Time (ms)</text>
    </g>
   </g>
   <g id="matplotlib.axis_2">
    <g id="ytick_1">
     <g id="line2d_4">
      <defs>
       <path id="mc9ba9fa0ac" d="M 0 0 
L -3.5 0 
" style="stroke: #000000; stroke-width: 1.5"/>
      </defs>
      <g>
       <use xlink:href="#mc9ba9fa0ac" x="55.3875" y="69.020913" style="stroke: #000000; stroke-width: 1.5"/>
      </g>
     </g>
     <g id="text_5">
      <text style="font: 8px 'Arial', sans-serif, serif; text-anchor: end" x="48.3875" y="71.884038" transform="rotate(-0 48.3875 71.884038)">−100</text>
     </g>
    </g>
    <g id="ytick_2">
     <g id="line2d_5">
      <g>
       <use xlink:href="#mc9ba9fa0ac" x="55.3875" y="49.696998" style="stroke: #000000; stroke-width: 1.5"/>
      </g>
     </g>
     <g id="text_6">
      <text style="font: 8px 'Arial', sans-serif, serif; text-anchor: end" x="48.3875" y="52.560123" transform="rotate(-0 48.3875 52.560123)">−50</text>
     </g>
    </g>
    <g id="ytick_3">
     <g id="line2d_6">
      <g>
       <use xlink:href="#mc9ba9fa0ac" x="55.3875" y="30.373083" style="stroke: #000000; stroke-width: 1.5"/>
      </g>
     </g>
     <g id="text_7">
      <text style="font: 8px 'Arial', sans-serif, serif; text-anchor: end" x="48.3875" y="33.236208" transform="rotate(-0 48.3875 33.236208)">0</text>
     </g>
    </g>
    <g id="ytick_4">
     <g id="line2d_7">
      <g>
       <use xlink:href="#mc9ba9fa0ac" x="55.3875" y="11.049169" style="stroke: #000000; stroke-width: 1.5"/>
      </g>
     </g>
     <g id="text_8">
      <text style="font: 8px 'Arial', sans-serif, serif; text-anchor: end" x="48.3875" y="13.912294" transform="rotate(-0 48.3875 13.912294)">50</text>
     </g>
    </g>
    <g id="text_9">
     <text style="font: 8px 'Arial', sans-serif, serif; text-anchor: middle" x="24.685" y="39.86" transform="rotate(-90 24.685 39.86)">V (mV)</text>
    </g>
   </g>
   <g id="line2d_8">
    <path d="M 58.9525 64.583678 
L 59.308555 64.45178 
L 59.66461 63.911616 
L 60.198692 62.558746 
L 62.067981 56.825702 
L 62.869104 53.836473 
L 63.314173 51.254336 
L 63.670228 47.835366 
L 64.026283 41.88586 
L 64.382338 30.558101 
L 64.91642 11.794076 
L 65.183461 10.294869 
L 65.450502 10.172723 
L 65.895571 10.339548 
L 66.429654 10.757935 
L 67.05275 11.569768 
L 67.675846 12.762026 
L 68.476969 14.850621 
L 69.367107 17.828676 
L 70.524285 22.511903 
L 72.126532 30.026238 
L 73.372725 36.795983 
L 74.262862 42.84248 
L 74.885958 48.566669 
L 75.509054 56.794361 
L 76.13215 64.558607 
L 76.577219 67.073969 
L 77.022288 68.245158 
L 77.467356 68.783154 
L 77.912425 68.992186 
L 78.446507 69.006013 
L 79.247631 68.767362 
L 80.315796 68.196328 
L 81.829029 67.116216 
L 83.787331 65.423017 
L 86.546757 62.704622 
L 94.023911 54.909705 
L 94.825034 53.613942 
L 95.359117 52.361797 
L 95.804185 50.815856 
L 96.249254 48.353371 
L 96.605309 45.0542 
L 96.961364 39.25755 
L 97.317419 28.998704 
L 97.762488 15.345225 
L 98.029529 12.367787 
L 98.29657 11.756409 
L 98.474597 11.798052 
L 98.830652 12.23293 
L 99.364735 13.300923 
L 100.076845 15.254988 
L 100.966982 18.366513 
L 102.213174 23.627927 
L 103.904435 31.846192 
L 105.061614 38.408505 
L 105.862737 44.3062 
L 106.485833 50.632819 
L 107.821039 66.097501 
L 108.266108 67.713701 
L 108.711177 68.472972 
L 109.156245 68.802029 
L 109.690328 68.895434 
L 110.402438 68.748508 
L 111.381589 68.285563 
L 112.716795 67.395762 
L 114.497069 65.932575 
L 116.90044 63.646793 
L 124.733649 55.665341 
L 125.7128 54.367675 
L 126.424909 53.03567 
L 126.958992 51.526488 
L 127.404061 49.556661 
L 127.760115 47.051297 
L 128.11617 42.874272 
L 128.472225 35.387914 
L 129.273349 13.684964 
L 129.54039 12.056945 
L 129.718418 11.842704 
L 129.896445 11.90722 
L 130.2525 12.379098 
L 130.2525 12.379098 
" clip-path="url(#p9d293ac0ad)" style="fill: none; stroke: #4682b4; stroke-width: 1.5; stroke-linecap: square"/>
   </g>
   <g id="line2d_9">
    <path d="M 58.9525 64.583678 
L 59.308555 64.454953 
L 59.66461 63.932144 
L 60.287706 62.397966 
L 62.424036 56.195794 
L 63.047132 53.734122 
L 63.4922 50.827427 
L 63.848255 46.899685 
L 64.20431 40.258906 
L 64.560365 28.688508 
L 65.005434 13.751314 
L 65.272475 11.354731 
L 65.450502 11.102666 
L 65.62853 11.187576 
L 65.984585 11.765197 
L 66.429654 13.016356 
L 66.963736 15.228049 
L 67.76486 19.684677 
L 69.723162 32.5324 
L 71.859491 47.18514 
L 72.393574 52.724676 
L 73.461738 65.026509 
L 73.817793 66.411119 
L 74.262862 67.32108 
L 74.974972 68.205485 
L 75.865109 68.926693 
L 76.755247 69.402695 
L 77.467356 69.532007 
L 78.26848 69.42951 
L 79.336645 69.031293 
L 80.671851 68.282861 
L 82.363112 67.076311 
L 84.499441 65.268842 
L 88.149004 61.828287 
L 94.557993 55.580469 
L 95.270103 54.35579 
L 95.804185 52.958339 
L 96.249254 51.153746 
L 96.694323 48.224141 
L 97.050378 44.32832 
L 97.406433 37.80088 
L 98.385584 15.007025 
L 98.563611 14.480069 
L 98.741639 14.56137 
L 99.00868 15.244476 
L 99.453748 17.130516 
L 100.254872 21.733189 
L 103.103311 40.521886 
L 103.904435 46.598147 
L 104.438517 52.353061 
L 105.506682 65.840188 
L 105.862737 67.271124 
L 106.307806 68.126911 
L 106.841888 68.669462 
L 107.732026 69.227554 
L 108.533149 69.513357 
L 109.245259 69.535041 
L 110.135396 69.321856 
L 111.292575 68.795977 
L 112.805808 67.847155 
L 114.675097 66.399347 
L 117.167481 64.16303 
L 125.7128 55.971152 
L 126.424909 54.906864 
L 126.958992 53.77136 
L 127.404061 52.38712 
L 127.849129 50.258028 
L 128.205184 47.578862 
L 128.561239 43.281022 
L 128.917294 36.159878 
L 129.807431 15.619583 
L 130.074473 14.709962 
L 130.2525 14.869841 
L 130.2525 14.869841 
" clip-path="url(#p9d293ac0ad)" style="fill: none; stroke: #ff8c00; stroke-width: 1.5; stroke-linecap: square"/>
   </g>
   <g id="line2d_10">
    <path d="M 58.9525 64.583678 
L 59.308555 64.451844 
L 59.66461 63.912066 
L 60.198692 62.560638 
L 62.067981 56.841335 
L 62.869104 53.874198 
L 63.314173 51.32949 
L 63.670228 47.972351 
L 64.026283 42.135761 
L 64.382338 30.990679 
L 64.91642 11.900058 
L 65.183461 10.304476 
L 65.450502 10.169091 
L 65.895571 10.330696 
L 66.429654 10.741805 
L 67.05275 11.542276 
L 67.675846 12.720695 
L 68.476969 14.789446 
L 69.367107 17.745221 
L 70.524285 22.402593 
L 72.126532 29.88608 
L 73.372725 36.609781 
L 74.262862 42.590135 
L 74.885958 48.207344 
L 75.420041 54.98228 
L 76.13215 64.298673 
L 76.488205 66.577786 
L 76.933274 68.013714 
L 77.378343 68.681385 
L 77.823411 68.959754 
L 78.357494 69.019486 
L 79.069604 68.850384 
L 80.048755 68.375452 
L 81.472974 67.414674 
L 83.342263 65.858427 
L 85.834647 63.462243 
L 93.75687 55.330737 
L 94.647007 54.052005 
L 95.270103 52.772571 
L 95.804185 51.096368 
L 96.249254 48.833047 
L 96.605309 45.857329 
L 96.961364 40.71351 
L 97.317419 31.345436 
L 97.851501 14.738721 
L 98.118542 12.166681 
L 98.29657 11.75688 
L 98.474597 11.73303 
L 98.741639 11.984201 
L 99.186707 12.739852 
L 99.809803 14.240702 
L 100.610927 16.763248 
L 101.679092 20.922498 
L 103.192325 27.849791 
L 104.705559 35.720008 
L 105.595696 41.464074 
L 106.307806 47.602167 
L 106.841888 54.085805 
L 107.643012 64.398171 
L 108.088081 66.923437 
L 108.533149 68.105046 
L 108.978218 68.651561 
L 109.423287 68.866439 
L 109.957369 68.884024 
L 110.669479 68.683138 
L 111.737644 68.127062 
L 113.250877 67.054785 
L 115.209179 65.36786 
L 117.968605 62.661074 
L 125.534772 54.80311 
L 126.335896 53.49368 
L 126.869978 52.224885 
L 127.315047 50.657573 
L 127.760115 48.158767 
L 128.11617 44.798939 
L 128.472225 38.860411 
L 128.82828 28.318914 
L 129.273349 14.851494 
L 129.54039 12.22825 
L 129.718418 11.800031 
L 129.896445 11.768427 
L 130.163486 12.01764 
L 130.2525 12.143505 
L 130.2525 12.143505 
" clip-path="url(#p9d293ac0ad)" style="fill: none; stroke-dasharray: 1.5,2.475; stroke-dashoffset: 0; stroke: #000000; stroke-width: 1.5"/>
   </g>
   <g id="patch_3">
    <path d="M 55.3875 72.52 
L 55.3875 7.2 
" style="fill: none; stroke: #000000; stroke-width: 1.5; stroke-linejoin: miter; stroke-linecap: square"/>
   </g>
   <g id="patch_4">
    <path d="M 55.3875 72.52 
L 133.8175 72.52 
" style="fill: none; stroke: #000000; stroke-width: 1.5; stroke-linejoin: miter; stroke-linecap: square"/>
   </g>
   <g id="legend_1">
    <g id="line2d_11">
     <path d="M 10.4 17.42375 
L 18.4 17.42375 
L 26.4 17.42375 
" style="fill: none; stroke: #4682b4; stroke-width: 1.5; stroke-linecap: square"/>
    </g>
    <g id="text_10">
     <text style="font: 8px 'Arial', sans-serif, serif; text-anchor: start" x="32.8" y="20.22375" transform="rotate(-0 32.8 20.22375)">Inferred voltage (EKF)</text>
    </g>
    <g id="line2d_12">
     <path d="M 10.4 28.93125 
L 18.4 28.93125 
L 26.4 28.93125 
" style="fill: none; stroke: #ff8c00; stroke-width: 1.5; stroke-linecap: square"/>
    </g>
    <g id="text_11">
     <text style="font: 8px 'Arial', sans-serif, serif; text-anchor: start" x="32.8" y="31.73125" transform="rotate(-0 32.8 31.73125)">Inferred voltage (diagEKF)</text>
    </g>
    <g id="line2d_13">
     <path d="M 10.4 40.34125 
L 18.4 40.34125 
L 26.4 40.34125 
" style="fill: none; stroke-dasharray: 1.5,2.475; stroke-dashoffset: 0; stroke: #000000; stroke-width: 1.5"/>
    </g>
    <g id="text_12">
     <text style="font: 8px 'Arial', sans-serif, serif; text-anchor: start" x="32.8" y="43.14125" transform="rotate(-0 32.8 43.14125)">True voltage</text>
    </g>
   </g>
  </g>
 </g>
 <defs>
  <clipPath id="p9d293ac0ad">
   <rect x="55.3875" y="7.2" width="78.43" height="65.32"/>
  </clipPath>
 </defs>
</svg>
