<?xml version="1.0" encoding="utf-8" standalone="no"?>
<!DOCTYPE svg PUBLIC "-//W3C//DTD SVG 1.1//EN"
  "http://www.w3.org/Graphics/SVG/1.1/DTD/svg11.dtd">
<svg xmlns:xlink="http://www.w3.org/1999/xlink" width="129.812992pt" height="105.54375pt" viewBox="0 0 129.812992 105.54375" xmlns="http://www.w3.org/2000/svg" version="1.1">
 <metadata>
  <rdf:RDF xmlns:dc="http://purl.org/dc/elements/1.1/" xmlns:cc="http://creativecommons.org/ns#" xmlns:rdf="http://www.w3.org/1999/02/22-rdf-syntax-ns#">
   <cc:Work>
    <dc:type rdf:resource="http://purl.org/dc/dcmitype/StillImage"/>
    <dc:date>2025-10-24T02:33:56.498801</dc:date>
    <dc:format>image/svg+xml</dc:format>
    <dc:creator>
     <cc:Agent>
      <dc:title>Matplotlib v3.9.2, https://matplotlib.org/</dc:title>
     </cc:Agent>
    </dc:creator>
   </cc:Work>
  </rdf:RDF>
 </metadata>
 <defs>
  <style type="text/css">*{stroke-linejoin: round; stroke-linecap: butt}</style>
 </defs>
 <g id="figure_1">
  <g id="patch_1">
   <path d="M 0 105.54375 
L 129.812992 105.54375 
L 129.812992 0 
L 0 0 
z
" style="fill: #ffffff"/>
  </g>
  <g id="axes_1">
   <g id="patch_2">
    <path d="M 39.2775 72.52 
L 122.1175 72.52 
L 122.1175 7.2 
L 39.2775 7.2 
z
" style="fill: #ffffff"/>
   </g>
   <g id="matplotlib.axis_1">
    <g id="xtick_1">
     <g id="line2d_1">
      <defs>
       <path id="m73169025ca" d="M 0 0 
L 0 3.5 
" style="stroke: #000000; stroke-width: 1.5"/>
      </defs>
      <g>
       <use xlink:href="#m73169025ca" x="43.042955" y="72.52" style="stroke: #000000; stroke-width: 1.5"/>
      </g>
     </g>
     <g id="text_1">
      <text style="font: 8px 'Arial', sans-serif, serif; text-anchor: middle" x="43.042955" y="85.24625" transform="rotate(-0 43.042955 85.24625)">0</text>
     </g>
    </g>
    <g id="xtick_2">
     <g id="line2d_2">
      <g>
       <use xlink:href="#m73169025ca" x="80.603598" y="72.52" style="stroke: #000000; stroke-width: 1.5"/>
      </g>
     </g>
     <g id="text_2">
      <text style="font: 8px 'Arial', sans-serif, serif; text-anchor: middle" x="80.603598" y="85.24625" transform="rotate(-0 80.603598 85.24625)">5</text>
     </g>
    </g>
    <g id="xtick_3">
     <g id="line2d_3">
      <g>
       <use xlink:href="#m73169025ca" x="118.164242" y="72.52" style="stroke: #000000; stroke-width: 1.5"/>
      </g>
     </g>
     <g id="text_3">
      <text style="font: 8px 'Arial', sans-serif, serif; text-anchor: middle" x="118.164242" y="85.24625" transform="rotate(-0 118.164242 85.24625)">10</text>
     </g>
    </g>
    <g id="text_4">
     <text style="font: 8px 'Arial', sans-serif, serif; text-anchor: middle" x="80.6975" y="96.66" transform="rotate(-0 80.6975 96.66)">Time (ms)</text>
    </g>
   </g>
   <g id="matplotlib.axis_2">
    <g id="ytick_1">
     <g id="line2d_4">
      <defs>
       <path id="m4dcd4bd0e7" d="M 0 0 
L -3.5 0 
" style="stroke: #000000; stroke-width: 1.5"/>
      </defs>
      <g>
       <use xlink:href="#m4dcd4bd0e7" x="39.2775" y="58.2869" style="stroke: #000000; stroke-width: 1.5"/>
      </g>
     </g>
     <g id="text_5">
      <text style="font: 8px 'Arial', sans-serif, serif; text-anchor: end" x="32.2775" y="61.150025" transform="rotate(-0 32.2775 61.150025)">−50</text>
     </g>
    </g>
    <g id="ytick_2">
     <g id="line2d_5">
      <g>
       <use xlink:href="#m4dcd4bd0e7" x="39.2775" y="39.862199" style="stroke: #000000; stroke-width: 1.5"/>
      </g>
     </g>
     <g id="text_6">
      <text style="font: 8px 'Arial', sans-serif, serif; text-anchor: end" x="32.2775" y="42.725324" transform="rotate(-0 32.2775 42.725324)">−25</text>
     </g>
    </g>
    <g id="ytick_3">
     <g id="line2d_6">
      <g>
       <use xlink:href="#m4dcd4bd0e7" x="39.2775" y="21.437498" style="stroke: #000000; stroke-width: 1.5"/>
      </g>
     </g>
     <g id="text_7">
      <text style="font: 8px 'Arial', sans-serif, serif; text-anchor: end" x="32.2775" y="24.300623" transform="rotate(-0 32.2775 24.300623)">0</text>
     </g>
    </g>
    <g id="text_8">
     <text style="font: 8px 'Arial', sans-serif, serif; text-anchor: middle" x="13.02375" y="39.86" transform="rotate(-90 13.02375 39.86)">V (mV)</text>
    </g>
   </g>
   <g id="line2d_7">
    <path d="M 43.042955 69.356975 
L 44.357577 69.22778 
L 47.174625 68.611036 
L 59.006228 65.705831 
L 62.950096 64.488859 
L 65.579341 63.460718 
L 67.457373 62.515742 
L 68.959799 61.521533 
L 70.086618 60.517415 
L 71.025634 59.357901 
L 71.776847 58.01335 
L 72.340257 56.504364 
L 72.715863 55.013924 
L 73.09147 52.714921 
L 73.467076 48.543569 
L 73.842682 39.388379 
L 74.406092 20.42052 
L 74.593895 18.919843 
L 74.781699 19.543735 
L 75.157305 25.055052 
L 76.284124 46.963887 
L 76.847534 53.507974 
L 77.410944 57.983604 
L 77.974353 60.822537 
L 78.537763 62.519376 
L 79.101173 63.505689 
L 79.664582 64.064456 
L 80.415795 64.426415 
L 81.354811 64.547111 
L 82.481631 64.448272 
L 84.17186 64.053937 
L 86.237695 63.323903 
L 88.115727 62.416698 
L 89.618153 61.431993 
L 90.744972 60.422214 
L 91.683988 59.24309 
L 92.435201 57.859837 
L 92.998611 56.285731 
L 93.374217 54.706255 
L 93.749824 52.219159 
L 94.12543 47.568627 
L 94.501037 37.274379 
L 94.876643 23.185537 
L 95.064446 19.808003 
L 95.252249 19.037859 
L 95.440053 20.200352 
L 95.815659 26.337967 
L 96.754675 45.08276 
L 97.318085 52.192788 
L 97.881495 57.087688 
L 98.444904 60.257194 
L 99.008314 62.172779 
L 99.571724 63.293182 
L 100.135133 63.932911 
L 100.698543 64.282906 
L 101.449756 64.485513 
L 102.388772 64.502529 
L 103.703394 64.299305 
L 105.581427 63.764141 
L 107.459459 63.013023 
L 109.149688 62.110613 
L 110.46431 61.168712 
L 111.403326 60.270773 
L 112.154539 59.314312 
L 112.905752 57.966694 
L 113.469162 56.449043 
L 113.844768 54.945449 
L 114.220375 52.618238 
L 114.595981 48.377283 
L 114.971588 39.067005 
L 115.534997 20.39937 
L 115.7228 19.031594 
L 115.910604 19.751377 
L 116.28621 25.363016 
L 117.413029 47.107834 
L 117.976439 53.585287 
L 118.352045 56.743201 
L 118.352045 56.743201 
" clip-path="url(#paf9ca69663)" style="fill: none; stroke: #4682b4; stroke-width: 1.5; stroke-linecap: square"/>
   </g>
   <g id="line2d_8">
    <path d="M 43.042955 69.356975 
L 44.357577 69.219215 
L 47.174625 68.584711 
L 56.001377 66.326815 
L 59.569638 65.202939 
L 62.01108 64.230367 
L 63.889112 63.253827 
L 65.203734 62.343143 
L 66.330554 61.273403 
L 67.081767 60.276132 
L 67.645176 59.242432 
L 68.208586 57.723156 
L 68.584192 56.154251 
L 68.959799 53.539336 
L 69.335405 47.907532 
L 69.523208 41.852902 
L 70.086618 12.068068 
L 70.274421 10.169091 
L 70.462225 12.030158 
L 70.837831 23.139676 
L 71.589044 47.289878 
L 72.152454 57.494012 
L 72.715863 63.526807 
L 73.279273 66.643314 
L 73.842682 68.20602 
L 74.406092 68.980246 
L 74.969502 69.349778 
L 75.720715 69.531283 
L 76.847534 69.516191 
L 78.913369 69.209634 
L 83.796253 68.201693 
L 89.993759 66.720888 
L 94.12543 65.523367 
L 96.942478 64.487309 
L 99.008314 63.492205 
L 100.51074 62.520523 
L 101.637559 61.524118 
L 102.388772 60.619196 
L 103.139985 59.338538 
L 103.703394 57.875169 
L 104.079001 56.386216 
L 104.454607 53.959658 
L 104.830214 48.94294 
L 105.018017 43.719392 
L 105.76923 10.255539 
L 105.957033 11.270335 
L 106.332639 21.428471 
L 107.083852 46.193081 
L 107.647262 56.808502 
L 108.210672 63.152906 
L 108.774081 66.451827 
L 109.337491 68.107287 
L 109.900901 68.928663 
L 110.46431 69.322661 
L 111.215523 69.520127 
L 112.342342 69.514281 
L 114.408178 69.211887 
L 118.352045 68.413947 
L 118.352045 68.413947 
" clip-path="url(#paf9ca69663)" style="fill: none; stroke: #008000; stroke-width: 1.5; stroke-linecap: square"/>
   </g>
   <g id="line2d_9">
    <path d="M 43.042955 69.356975 
L 44.357577 69.227097 
L 47.174625 68.608868 
L 58.818425 65.742796 
L 62.762293 64.528183 
L 65.391538 63.505052 
L 67.26957 62.567874 
L 68.771996 61.586073 
L 69.898815 60.599951 
L 70.837831 59.469671 
L 71.589044 58.172833 
L 72.152454 56.738293 
L 72.52806 55.345616 
L 72.903666 53.246293 
L 73.279273 49.569039 
L 73.654879 41.700959 
L 74.218289 21.611 
L 74.406092 19.13249 
L 74.593895 19.035094 
L 74.781699 20.701039 
L 75.157305 27.4305 
L 76.096321 45.923058 
L 76.659731 52.783252 
L 77.22314 57.49404 
L 77.78655 60.51519 
L 78.34996 62.330911 
L 78.913369 63.389344 
L 79.476779 63.99116 
L 80.040189 64.317578 
L 80.791402 64.501178 
L 81.730418 64.504566 
L 83.232843 64.246268 
L 85.110876 63.677484 
L 86.988908 62.891577 
L 88.679137 61.941615 
L 89.993759 60.934462 
L 90.932775 59.953118 
L 91.683988 58.877819 
L 92.247398 57.761815 
L 92.810808 56.129785 
L 93.186414 54.470945 
L 93.562021 51.812385 
L 93.937627 46.710811 
L 94.313233 35.422078 
L 94.68884 22.018195 
L 94.876643 19.347715 
L 95.064446 19.105973 
L 95.252249 20.661066 
L 95.627856 27.24807 
L 96.566872 45.737898 
L 97.130282 52.632921 
L 97.693691 57.374884 
L 98.257101 60.426262 
L 98.820511 62.264416 
L 99.38392 63.337591 
L 99.94733 63.948708 
L 100.51074 64.280955 
L 101.261953 64.469112 
L 102.200969 64.475264 
L 103.515591 64.26184 
L 105.393623 63.713377 
L 107.271656 62.944404 
L 108.961884 62.015409 
L 110.276507 61.036442 
L 111.215523 60.091308 
L 111.966736 59.068277 
L 112.530146 58.023129 
L 113.093555 56.529883 
L 113.469162 55.058727 
L 113.844768 52.798592 
L 114.220375 48.725233 
L 114.595981 39.83003 
L 115.159391 20.673656 
L 115.347194 19.013092 
L 115.534997 19.516995 
L 115.910604 24.868271 
L 117.037423 46.76367 
L 117.600833 53.338459 
L 118.164242 57.844774 
L 118.352045 58.962965 
L 118.352045 58.962965 
" clip-path="url(#paf9ca69663)" style="fill: none; stroke-dasharray: 1.5,2.475; stroke-dashoffset: 0; stroke: #000000; stroke-width: 1.5"/>
   </g>
   <g id="patch_3">
    <path d="M 39.2775 72.52 
L 39.2775 7.2 
" style="fill: none; stroke: #000000; stroke-width: 1.5; stroke-linejoin: miter; stroke-linecap: square"/>
   </g>
   <g id="patch_4">
    <path d="M 39.2775 72.52 
L 122.1175 72.52 
" style="fill: none; stroke: #000000; stroke-width: 1.5; stroke-linejoin: miter; stroke-linecap: square"/>
   </g>
   <g id="legend_1">
    <g id="line2d_10">
     <path d="M 36.9325 17.42375 
L 44.9325 17.42375 
L 52.9325 17.42375 
" style="fill: none; stroke: #4682b4; stroke-width: 1.5; stroke-linecap: square"/>
    </g>
    <g id="text_9">
     <text style="font: 8px 'Arial', sans-serif, serif; text-anchor: start" x="59.3325" y="20.22375" transform="rotate(-0 59.3325 20.22375)">Inferred voltage</text>
    </g>
    <g id="line2d_11">
     <path d="M 36.9325 28.83375 
L 44.9325 28.83375 
L 52.9325 28.83375 
" style="fill: none; stroke: #008000; stroke-width: 1.5; stroke-linecap: square"/>
    </g>
    <g id="text_10">
     <text style="font: 8px 'Arial', sans-serif, serif; text-anchor: start" x="59.3325" y="31.63375" transform="rotate(-0 59.3325 31.63375)">Initial guess</text>
    </g>
    <g id="line2d_12">
     <path d="M 36.9325 40.24375 
L 44.9325 40.24375 
L 52.9325 40.24375 
" style="fill: none; stroke-dasharray: 1.5,2.475; stroke-dashoffset: 0; stroke: #000000; stroke-width: 1.5"/>
    </g>
    <g id="text_11">
     <text style="font: 8px 'Arial', sans-serif, serif; text-anchor: start" x="59.3325" y="43.04375" transform="rotate(-0 59.3325 43.04375)">True voltage</text>
    </g>
   </g>
  </g>
 </g>
 <defs>
  <clipPath id="paf9ca69663">
   <rect x="39.2775" y="7.2" width="82.84" height="65.32"/>
  </clipPath>
 </defs>
</svg>
