<?xml version="1.0" encoding="utf-8" standalone="no"?>
<!DOCTYPE svg PUBLIC "-//W3C//DTD SVG 1.1//EN"
  "http://www.w3.org/Graphics/SVG/1.1/DTD/svg11.dtd">
<svg xmlns:xlink="http://www.w3.org/1999/xlink" width="155.624677pt" height="105.54375pt" viewBox="0 0 155.624677 105.54375" xmlns="http://www.w3.org/2000/svg" version="1.1">
 <metadata>
  <rdf:RDF xmlns:dc="http://purl.org/dc/elements/1.1/" xmlns:cc="http://creativecommons.org/ns#" xmlns:rdf="http://www.w3.org/1999/02/22-rdf-syntax-ns#">
   <cc:Work>
    <dc:type rdf:resource="http://purl.org/dc/dcmitype/StillImage"/>
    <dc:date>2025-10-25T23:52:43.798981</dc:date>
    <dc:format>image/svg+xml</dc:format>
    <dc:creator>
     <cc:Agent>
      <dc:title>Matplotlib v3.9.2, https://matplotlib.org/</dc:title>
     </cc:Agent>
    </dc:creator>
   </cc:Work>
  </rdf:RDF>
 </metadata>
 <defs>
  <style type="text/css">*{stroke-linejoin: round; stroke-linecap: butt}</style>
 </defs>
 <g id="figure_1">
  <g id="patch_1">
   <path d="M 0 105.54375 
L 155.624677 105.54375 
L 155.624677 0 
L 0 0 
z
" style="fill: #ffffff"/>
  </g>
  <g id="axes_1">
   <g id="patch_2">
    <path d="M 70.96375 72.52 
L 147.54375 72.52 
L 147.54375 7.2 
L 70.96375 7.2 
z
" style="fill: #ffffff"/>
   </g>
   <g id="matplotlib.axis_1">
    <g id="xtick_1">
     <g id="line2d_1">
      <defs>
       <path id="m3e9a23c0a9" d="M 0 0 
L 0 3.5 
" style="stroke: #000000; stroke-width: 1.5"/>
      </defs>
      <g>
       <use xlink:href="#m3e9a23c0a9" x="74.444659" y="72.52" style="stroke: #000000; stroke-width: 1.5"/>
      </g>
     </g>
     <g id="text_1">
      <text style="font: 8px 'Arial', sans-serif, serif; text-anchor: middle" x="74.444659" y="85.24625" transform="rotate(-0 74.444659 85.24625)">0</text>
     </g>
    </g>
    <g id="xtick_2">
     <g id="line2d_2">
      <g>
       <use xlink:href="#m3e9a23c0a9" x="109.210293" y="72.52" style="stroke: #000000; stroke-width: 1.5"/>
      </g>
     </g>
     <g id="text_2">
      <text style="font: 8px 'Arial', sans-serif, serif; text-anchor: middle" x="109.210293" y="85.24625" transform="rotate(-0 109.210293 85.24625)">10</text>
     </g>
    </g>
    <g id="xtick_3">
     <g id="line2d_3">
      <g>
       <use xlink:href="#m3e9a23c0a9" x="143.975927" y="72.52" style="stroke: #000000; stroke-width: 1.5"/>
      </g>
     </g>
     <g id="text_3">
      <text style="font: 8px 'Arial', sans-serif, serif; text-anchor: middle" x="143.975927" y="85.24625" transform="rotate(-0 143.975927 85.24625)">20</text>
     </g>
    </g>
    <g id="text_4">
     <text style="font: 8px 'Arial', sans-serif, serif; text-anchor: middle" x="109.25375" y="96.66" transform="rotate(-0 109.25375 96.66)">Time (ms)</text>
    </g>
   </g>
   <g id="matplotlib.axis_2">
    <g id="ytick_1">
     <g id="line2d_4">
      <defs>
       <path id="m7510788eea" d="M 0 0 
L -3.5 0 
" style="stroke: #000000; stroke-width: 1.5"/>
      </defs>
      <g>
       <use xlink:href="#m7510788eea" x="70.96375" y="70.557144" style="stroke: #000000; stroke-width: 1.5"/>
      </g>
     </g>
     <g id="text_5">
      <text style="font: 8px 'Arial', sans-serif, serif; text-anchor: end" x="63.96375" y="73.420269" transform="rotate(-0 63.96375 73.420269)">−100</text>
     </g>
    </g>
    <g id="ytick_2">
     <g id="line2d_5">
      <g>
       <use xlink:href="#m7510788eea" x="70.96375" y="50.631472" style="stroke: #000000; stroke-width: 1.5"/>
      </g>
     </g>
     <g id="text_6">
      <text style="font: 8px 'Arial', sans-serif, serif; text-anchor: end" x="63.96375" y="53.494597" transform="rotate(-0 63.96375 53.494597)">−50</text>
     </g>
    </g>
    <g id="ytick_3">
     <g id="line2d_6">
      <g>
       <use xlink:href="#m7510788eea" x="70.96375" y="30.705799" style="stroke: #000000; stroke-width: 1.5"/>
      </g>
     </g>
     <g id="text_7">
      <text style="font: 8px 'Arial', sans-serif, serif; text-anchor: end" x="63.96375" y="33.568924" transform="rotate(-0 63.96375 33.568924)">0</text>
     </g>
    </g>
    <g id="ytick_4">
     <g id="line2d_7">
      <g>
       <use xlink:href="#m7510788eea" x="70.96375" y="10.780127" style="stroke: #000000; stroke-width: 1.5"/>
      </g>
     </g>
     <g id="text_8">
      <text style="font: 8px 'Arial', sans-serif, serif; text-anchor: end" x="63.96375" y="13.643252" transform="rotate(-0 63.96375 13.643252)">50</text>
     </g>
    </g>
    <g id="text_9">
     <text style="font: 8px 'Arial', sans-serif, serif; text-anchor: middle" x="40.26125" y="39.86" transform="rotate(-90 40.26125 39.86)">V (mV)</text>
    </g>
   </g>
   <g id="line2d_8">
    <path d="M 74.444659 65.981732 
L 74.618487 65.588473 
L 77.22591 56.071563 
L 77.834308 53.523431 
L 78.268879 50.758773 
L 78.616535 47.061736 
L 78.964191 40.950261 
L 79.398762 28.956087 
L 79.920246 13.714133 
L 80.180989 10.866291 
L 80.441731 10.198748 
L 80.702473 10.223801 
L 81.137044 10.665082 
L 81.658528 11.57541 
L 82.266927 13.150503 
L 83.049153 15.918559 
L 84.092122 20.574474 
L 85.74349 29.115092 
L 87.481772 39.076851 
L 88.263999 44.830998 
L 89.56771 56.764172 
L 90.263023 62.151458 
L 91.045249 66.486917 
L 91.566734 68.214999 
L 92.001304 68.930754 
L 92.435875 69.241962 
L 92.957359 69.311049 
L 93.652672 69.124354 
L 94.608727 68.604423 
L 95.999352 67.57481 
L 97.911462 65.860781 
L 100.518884 63.198635 
L 107.906582 55.187234 
L 108.775723 53.82869 
L 109.384121 52.48013 
L 109.905606 50.762767 
L 110.340176 48.570528 
L 110.774746 45.118903 
L 111.209317 39.479534 
L 111.643887 30.471033 
L 112.3392 15.648576 
L 112.599942 13.869018 
L 112.77377 13.553843 
L 112.947599 13.624643 
L 113.208341 14.129289 
L 113.729825 15.829188 
L 114.598966 19.64266 
L 116.076506 27.354397 
L 118.423186 40.701226 
L 119.205413 46.410551 
L 121.291351 63.712291 
L 121.986663 67.035226 
L 122.421234 68.228885 
L 122.855804 68.842256 
L 123.290375 69.09663 
L 123.811859 69.128276 
L 124.507172 68.914918 
L 125.550141 68.316496 
L 127.02768 67.180904 
L 129.026704 65.342854 
L 131.981783 62.282353 
L 138.761082 54.886024 
L 139.543309 53.600595 
L 140.151707 52.178821 
L 140.673192 50.343507 
L 141.107762 47.981485 
L 141.542332 44.249191 
L 141.976903 38.160165 
L 142.498387 26.637821 
L 143.019872 16.230351 
L 143.280614 14.185939 
L 143.541356 13.700117 
L 143.715185 13.841753 
L 143.975927 14.412776 
L 144.062841 14.714004 
L 144.062841 14.714004 
" clip-path="url(#p319719b225)" style="fill: none; stroke: #ff8c00; stroke-width: 1.5; stroke-linecap: square"/>
   </g>
   <g id="line2d_9">
    <path d="M 74.444659 65.981732 
L 74.618487 65.590255 
L 76.878253 57.427737 
L 77.747394 54.174755 
L 78.181965 51.733873 
L 78.529621 48.589098 
L 78.877277 43.382666 
L 79.311848 33.077647 
L 80.094075 12.960944 
L 80.354817 11.140438 
L 80.528645 10.859325 
L 80.702473 10.926314 
L 81.05013 11.517529 
L 81.571614 13.0368 
L 82.180013 15.584681 
L 83.136068 20.774161 
L 87.568686 47.568776 
L 88.263999 53.581028 
L 89.046225 59.910847 
L 89.741538 63.808034 
L 90.349937 66.150862 
L 91.132163 68.214924 
L 91.653648 69.063602 
L 92.088218 69.419047 
L 92.609703 69.550909 
L 93.218101 69.457443 
L 94.087242 69.070885 
L 95.304039 68.268113 
L 97.042321 66.831349 
L 99.302087 64.655801 
L 106.776699 56.899548 
L 108.08041 55.353877 
L 108.862637 54.123932 
L 109.471035 52.769745 
L 109.99252 51.027462 
L 110.42709 48.795621 
L 110.861661 45.312989 
L 111.296231 39.785308 
L 111.817715 29.408028 
L 112.426114 17.934384 
L 112.686856 16.10883 
L 112.860685 15.819596 
L 113.034513 16.014678 
L 113.382169 17.194642 
L 113.990568 20.325015 
L 115.555021 30.00146 
L 119.031585 52.106087 
L 120.248382 62.607461 
L 120.85678 65.27974 
L 121.552093 67.306749 
L 122.160492 68.579328 
L 122.681976 69.170546 
L 123.203461 69.387925 
L 123.811859 69.35293 
L 124.594086 69.054207 
L 125.723969 68.359885 
L 127.288423 67.124071 
L 129.374361 65.183001 
L 132.850924 61.589912 
L 138.93491 55.05074 
L 139.717137 53.722828 
L 140.325535 52.206992 
L 140.84702 50.198757 
L 141.28159 47.580948 
L 141.716161 43.472233 
L 142.150731 36.98681 
L 143.280614 16.715143 
L 143.541356 15.944589 
L 143.715185 16.104383 
L 143.975927 16.899777 
L 144.062841 17.306565 
L 144.062841 17.306565 
" clip-path="url(#p319719b225)" style="fill: none; stroke-dasharray: 1.5,2.475; stroke-dashoffset: 0; stroke: #000000; stroke-width: 1.5"/>
   </g>
   <g id="patch_3">
    <path d="M 70.96375 72.52 
L 70.96375 7.2 
" style="fill: none; stroke: #000000; stroke-width: 1.5; stroke-linejoin: miter; stroke-linecap: square"/>
   </g>
   <g id="patch_4">
    <path d="M 70.96375 72.52 
L 147.54375 72.52 
" style="fill: none; stroke: #000000; stroke-width: 1.5; stroke-linejoin: miter; stroke-linecap: square"/>
   </g>
   <g id="legend_1">
    <g id="line2d_10">
     <path d="M 10.4 17.42375 
L 18.4 17.42375 
L 26.4 17.42375 
" style="fill: none; stroke: #ff8c00; stroke-width: 1.5; stroke-linecap: square"/>
    </g>
    <g id="text_10">
     <text style="font: 8px 'Arial', sans-serif, serif; text-anchor: start" x="32.8" y="20.22375" transform="rotate(-0 32.8 20.22375)">Inferred voltage (mean ± 2SD)</text>
    </g>
    <g id="line2d_11">
     <path d="M 10.4 28.83375 
L 18.4 28.83375 
L 26.4 28.83375 
" style="fill: none; stroke-dasharray: 1.5,2.475; stroke-dashoffset: 0; stroke: #000000; stroke-width: 1.5"/>
    </g>
    <g id="text_11">
     <text style="font: 8px 'Arial', sans-serif, serif; text-anchor: start" x="32.8" y="31.63375" transform="rotate(-0 32.8 31.63375)">True voltage</text>
    </g>
   </g>
  </g>
 </g>
 <defs>
  <clipPath id="p319719b225">
   <rect x="70.96375" y="7.2" width="76.58" height="65.32"/>
  </clipPath>
 </defs>
</svg>
