<?xml version="1.0" encoding="utf-8" standalone="no"?>
<!DOCTYPE svg PUBLIC "-//W3C//DTD SVG 1.1//EN"
  "http://www.w3.org/Graphics/SVG/1.1/DTD/svg11.dtd">
<svg xmlns:xlink="http://www.w3.org/1999/xlink" width="141.606777pt" height="105.54375pt" viewBox="0 0 141.606777 105.54375" xmlns="http://www.w3.org/2000/svg" version="1.1">
 <metadata>
  <rdf:RDF xmlns:dc="http://purl.org/dc/elements/1.1/" xmlns:cc="http://creativecommons.org/ns#" xmlns:rdf="http://www.w3.org/1999/02/22-rdf-syntax-ns#">
   <cc:Work>
    <dc:type rdf:resource="http://purl.org/dc/dcmitype/StillImage"/>
    <dc:date>2025-10-25T23:47:23.038064</dc:date>
    <dc:format>image/svg+xml</dc:format>
    <dc:creator>
     <cc:Agent>
      <dc:title>Matplotlib v3.9.2, https://matplotlib.org/</dc:title>
     </cc:Agent>
    </dc:creator>
   </cc:Work>
  </rdf:RDF>
 </metadata>
 <defs>
  <style type="text/css">*{stroke-linejoin: round; stroke-linecap: butt}</style>
 </defs>
 <g id="figure_1">
  <g id="patch_1">
   <path d="M 0 105.54375 
L 141.606777 105.54375 
L 141.606777 0 
L 0 0 
z
" style="fill: #ffffff"/>
  </g>
  <g id="axes_1">
   <g id="patch_2">
    <path d="M 50.9775 72.52 
L 133.8175 72.52 
L 133.8175 7.2 
L 50.9775 7.2 
z
" style="fill: #ffffff"/>
   </g>
   <g id="matplotlib.axis_1">
    <g id="xtick_1">
     <g id="line2d_1">
      <defs>
       <path id="m71157e3da3" d="M 0 0 
L 0 3.5 
" style="stroke: #000000; stroke-width: 1.5"/>
      </defs>
      <g>
       <use xlink:href="#m71157e3da3" x="54.742955" y="72.52" style="stroke: #000000; stroke-width: 1.5"/>
      </g>
     </g>
     <g id="text_1">
      <text style="font: 8px 'Arial', sans-serif, serif; text-anchor: middle" x="54.742955" y="85.24625" transform="rotate(-0 54.742955 85.24625)">0</text>
     </g>
    </g>
    <g id="xtick_2">
     <g id="line2d_2">
      <g>
       <use xlink:href="#m71157e3da3" x="92.350491" y="72.52" style="stroke: #000000; stroke-width: 1.5"/>
      </g>
     </g>
     <g id="text_2">
      <text style="font: 8px 'Arial', sans-serif, serif; text-anchor: middle" x="92.350491" y="85.24625" transform="rotate(-0 92.350491 85.24625)">10</text>
     </g>
    </g>
    <g id="xtick_3">
     <g id="line2d_3">
      <g>
       <use xlink:href="#m71157e3da3" x="129.958027" y="72.52" style="stroke: #000000; stroke-width: 1.5"/>
      </g>
     </g>
     <g id="text_3">
      <text style="font: 8px 'Arial', sans-serif, serif; text-anchor: middle" x="129.958027" y="85.24625" transform="rotate(-0 129.958027 85.24625)">20</text>
     </g>
    </g>
    <g id="text_4">
     <text style="font: 8px 'Arial', sans-serif, serif; text-anchor: middle" x="92.3975" y="96.66" transform="rotate(-0 92.3975 96.66)">Time (ms)</text>
    </g>
   </g>
   <g id="matplotlib.axis_2">
    <g id="ytick_1">
     <g id="line2d_4">
      <defs>
       <path id="me405775fdd" d="M 0 0 
L -3.5 0 
" style="stroke: #000000; stroke-width: 1.5"/>
      </defs>
      <g>
       <use xlink:href="#me405775fdd" x="50.9775" y="53.644335" style="stroke: #000000; stroke-width: 1.5"/>
      </g>
     </g>
     <g id="text_5">
      <text style="font: 8px 'Arial', sans-serif, serif; text-anchor: end" x="43.9775" y="56.50746" transform="rotate(-0 43.9775 56.50746)">−50</text>
     </g>
    </g>
    <g id="ytick_2">
     <g id="line2d_5">
      <g>
       <use xlink:href="#me405775fdd" x="50.9775" y="32.996529" style="stroke: #000000; stroke-width: 1.5"/>
      </g>
     </g>
     <g id="text_6">
      <text style="font: 8px 'Arial', sans-serif, serif; text-anchor: end" x="43.9775" y="35.859654" transform="rotate(-0 43.9775 35.859654)">0</text>
     </g>
    </g>
    <g id="ytick_3">
     <g id="line2d_6">
      <g>
       <use xlink:href="#me405775fdd" x="50.9775" y="12.348723" style="stroke: #000000; stroke-width: 1.5"/>
      </g>
     </g>
     <g id="text_7">
      <text style="font: 8px 'Arial', sans-serif, serif; text-anchor: end" x="43.9775" y="15.211848" transform="rotate(-0 43.9775 15.211848)">50</text>
     </g>
    </g>
    <g id="text_8">
     <text style="font: 8px 'Arial', sans-serif, serif; text-anchor: middle" x="24.72375" y="39.86" transform="rotate(-90 24.72375 39.86)">V (mV)</text>
    </g>
   </g>
   <g id="line2d_7">
    <path d="M 54.742955 69.550909 
L 55.025011 63.376999 
L 55.401086 60.035087 
L 55.965199 57.215505 
L 57.187444 52.785315 
L 57.845576 49.925974 
L 58.31567 46.816927 
L 58.691746 42.742523 
L 59.067821 35.876931 
L 60.102028 13.161687 
L 60.478104 10.868143 
L 60.76016 10.245137 
L 60.948198 10.169091 
L 61.230255 10.380285 
L 61.60633 11.017211 
L 62.170443 12.448367 
L 62.922594 15.08077 
L 63.956801 19.705192 
L 66.307272 31.721595 
L 69.69195 49.39028 
L 70.53812 56.191963 
L 71.29027 62.031467 
L 71.760365 64.085473 
L 72.324478 65.4713 
L 72.98261 66.559677 
L 73.546723 67.080283 
L 74.016817 67.22135 
L 74.58093 67.147196 
L 75.333081 66.805446 
L 76.461307 66.0307 
L 78.247665 64.510539 
L 80.880192 61.953788 
L 88.495718 54.050079 
L 90.00002 52.228901 
L 90.940208 50.73572 
L 91.692359 49.076798 
L 92.256472 47.304959 
L 92.820585 44.717382 
L 93.290679 41.557046 
L 93.854792 36.109479 
L 95.359093 19.792288 
L 95.64115 18.518212 
L 95.829188 18.216404 
L 96.017225 18.312287 
L 96.299282 19.02124 
L 96.769376 21.049528 
L 98.179659 28.657216 
L 99.966017 37.851929 
L 101.846393 46.249416 
L 102.880601 51.251128 
L 103.632751 56.218452 
L 104.478921 61.705039 
L 104.949015 63.503296 
L 105.607147 65.063306 
L 106.359298 66.28735 
L 106.829392 66.712898 
L 107.299486 66.872926 
L 107.863599 66.815942 
L 108.61575 66.489112 
L 109.743976 65.727329 
L 111.530334 64.219939 
L 114.162861 61.681349 
L 121.59035 54.033782 
L 123.094651 52.241051 
L 124.03484 50.791638 
L 124.78699 49.208102 
L 125.351103 47.546305 
L 125.915216 45.161862 
L 126.47933 41.587855 
L 127.043443 36.349509 
L 128.641763 19.721359 
L 128.923819 18.651468 
L 129.111857 18.469354 
L 129.299895 18.659462 
L 129.581951 19.464781 
L 129.958027 21.11249 
L 130.052045 23.917067 
L 130.052045 23.917067 
" clip-path="url(#p2fe005fb56)" style="fill: none; stroke: #ff8c00; stroke-width: 1.5; stroke-linecap: square"/>
   </g>
   <g id="line2d_8">
    <path d="M 54.742955 69.550909 
L 55.025011 63.380792 
L 55.401086 60.045693 
L 55.965199 57.236126 
L 57.187444 52.82998 
L 57.845576 49.994949 
L 58.31567 46.922751 
L 58.691746 42.906095 
L 59.067821 36.130488 
L 60.102028 13.268662 
L 60.478104 10.936516 
L 60.76016 10.287172 
L 60.948198 10.192937 
L 61.230255 10.381923 
L 61.60633 10.997759 
L 62.170443 12.400383 
L 62.922594 14.992652 
L 63.862782 19.117238 
L 65.743159 28.64541 
L 69.879988 50.464752 
L 70.820176 58.322184 
L 71.384289 62.365951 
L 71.854383 64.279099 
L 72.418496 65.599856 
L 73.076628 66.63296 
L 73.546723 67.041856 
L 74.016817 67.187126 
L 74.58093 67.117372 
L 75.333081 66.779814 
L 76.461307 66.008359 
L 78.247665 64.489911 
L 80.880192 61.935282 
L 88.589737 53.954657 
L 90.00002 52.245179 
L 90.940208 50.760403 
L 91.692359 49.112986 
L 92.256472 47.355732 
L 92.820585 44.791513 
L 93.290679 41.657713 
L 93.854792 36.235057 
L 95.359093 19.861397 
L 95.735169 18.331917 
L 95.923207 18.206776 
L 96.111244 18.444781 
L 96.393301 19.294217 
L 96.957414 21.8985 
L 101.094243 42.855763 
L 102.880601 51.089581 
L 103.538733 55.3353 
L 104.478921 61.599721 
L 104.949015 63.440549 
L 105.607147 65.020961 
L 106.359298 66.252177 
L 106.829392 66.676798 
L 107.299486 66.835613 
L 107.863599 66.778593 
L 108.61575 66.452807 
L 109.743976 65.692269 
L 111.530334 64.185238 
L 114.162861 61.64785 
L 121.778388 53.82137 
L 123.18867 52.11243 
L 124.128859 50.626037 
L 124.881009 48.979856 
L 125.445122 47.232054 
L 126.009235 44.700623 
L 126.573348 40.8867 
L 127.137461 35.334168 
L 128.547744 20.187989 
L 128.923819 18.552101 
L 129.111857 18.382204 
L 129.299895 18.587662 
L 129.581951 19.411678 
L 129.958027 21.069872 
L 130.052045 23.874401 
L 130.052045 23.874401 
" clip-path="url(#p2fe005fb56)" style="fill: none; stroke-dasharray: 1.5,2.475; stroke-dashoffset: 0; stroke: #000000; stroke-width: 1.5"/>
   </g>
   <g id="patch_3">
    <path d="M 50.9775 72.52 
L 50.9775 7.2 
" style="fill: none; stroke: #000000; stroke-width: 1.5; stroke-linejoin: miter; stroke-linecap: square"/>
   </g>
   <g id="patch_4">
    <path d="M 50.9775 72.52 
L 133.8175 72.52 
" style="fill: none; stroke: #000000; stroke-width: 1.5; stroke-linejoin: miter; stroke-linecap: square"/>
   </g>
   <g id="legend_1">
    <g id="line2d_9">
     <path d="M 10.4 17.42375 
L 18.4 17.42375 
L 26.4 17.42375 
" style="fill: none; stroke: #ff8c00; stroke-width: 1.5; stroke-linecap: square"/>
    </g>
    <g id="text_9">
     <text style="font: 8px 'Arial', sans-serif, serif; text-anchor: start" x="32.8" y="20.22375" transform="rotate(-0 32.8 20.22375)">Inferred voltage (diagEKF)</text>
    </g>
    <g id="line2d_10">
     <path d="M 10.4 28.83375 
L 18.4 28.83375 
L 26.4 28.83375 
" style="fill: none; stroke-dasharray: 1.5,2.475; stroke-dashoffset: 0; stroke: #000000; stroke-width: 1.5"/>
    </g>
    <g id="text_10">
     <text style="font: 8px 'Arial', sans-serif, serif; text-anchor: start" x="32.8" y="31.63375" transform="rotate(-0 32.8 31.63375)">True voltage</text>
    </g>
   </g>
  </g>
 </g>
 <defs>
  <clipPath id="p2fe005fb56">
   <rect x="50.9775" y="7.2" width="82.84" height="65.32"/>
  </clipPath>
 </defs>
</svg>
