<?xml version="1.0" encoding="utf-8" standalone="no"?>
<!DOCTYPE svg PUBLIC "-//W3C//DTD SVG 1.1//EN"
  "http://www.w3.org/Graphics/SVG/1.1/DTD/svg11.dtd">
<svg xmlns:xlink="http://www.w3.org/1999/xlink" width="155.624677pt" height="105.54375pt" viewBox="0 0 155.624677 105.54375" xmlns="http://www.w3.org/2000/svg" version="1.1">
 <metadata>
  <rdf:RDF xmlns:dc="http://purl.org/dc/elements/1.1/" xmlns:cc="http://creativecommons.org/ns#" xmlns:rdf="http://www.w3.org/1999/02/22-rdf-syntax-ns#">
   <cc:Work>
    <dc:type rdf:resource="http://purl.org/dc/dcmitype/StillImage"/>
    <dc:date>2025-10-25T01:51:33.003412</dc:date>
    <dc:format>image/svg+xml</dc:format>
    <dc:creator>
     <cc:Agent>
      <dc:title>Matplotlib v3.9.2, https://matplotlib.org/</dc:title>
     </cc:Agent>
    </dc:creator>
   </cc:Work>
  </rdf:RDF>
 </metadata>
 <defs>
  <style type="text/css">*{stroke-linejoin: round; stroke-linecap: butt}</style>
 </defs>
 <g id="figure_1">
  <g id="patch_1">
   <path d="M 0 105.54375 
L 155.624677 105.54375 
L 155.624677 0 
L 0 0 
z
" style="fill: #ffffff"/>
  </g>
  <g id="axes_1">
   <g id="patch_2">
    <path d="M 70.96375 72.52 
L 147.54375 72.52 
L 147.54375 7.2 
L 70.96375 7.2 
z
" style="fill: #ffffff"/>
   </g>
   <g id="PolyCollection_1">
    <defs>
     <path id="ma5542d6a2b" d="M 74.444659 -39.742422 
L 74.444659 -39.742422 
L 74.531573 -39.888083 
L 74.618487 -40.225059 
L 74.705401 -40.689397 
L 74.792315 -41.223962 
L 74.87923 -41.794137 
L 74.966144 -42.381079 
L 75.053058 -42.974796 
L 75.139972 -43.569931 
L 75.226886 -44.163522 
L 75.3138 -44.753866 
L 75.400714 -45.339955 
L 75.487628 -45.921193 
L 75.574542 -46.49726 
L 75.661456 -47.068041 
L 75.74837 -47.63361 
L 75.835284 -48.194225 
L 75.922199 -48.750353 
L 76.009113 -49.302702 
L 76.096027 -49.852282 
L 76.182941 -50.400475 
L 76.269855 -50.949134 
L 76.356769 -51.500707 
L 76.443683 -52.058398 
L 76.530597 -52.626373 
L 76.617511 -53.210029 
L 76.704425 -53.816343 
L 76.791339 -54.454332 
L 76.878253 -55.135651 
L 76.965168 -55.8754 
L 77.052082 -56.693145 
L 77.138996 -57.614225 
L 77.22591 -58.67128 
L 77.312824 -59.905798 
L 77.399738 -61.369113 
L 77.486652 -63.121641 
L 77.573566 -65.228364 
L 77.66048 -67.748154 
L 77.747394 -70.715226 
L 77.834308 -74.113472 
L 77.921222 -77.848201 
L 78.008137 -81.726115 
L 78.095051 -85.463444 
L 78.181965 -88.744634 
L 78.268879 -91.32712 
L 78.355793 -93.133265 
L 78.442707 -94.256341 
L 78.529621 -94.881205 
L 78.616535 -95.192596 
L 78.703449 -95.326834 
L 78.790363 -95.367017 
L 78.877277 -95.357512 
L 78.964191 -95.319915 
L 79.051106 -95.264129 
L 79.13802 -95.194409 
L 79.224934 -95.112388 
L 79.311848 -95.018562 
L 79.398762 -94.912955 
L 79.485676 -94.795403 
L 79.57259 -94.665681 
L 79.659504 -94.523558 
L 79.746418 -94.368824 
L 79.833332 -94.201305 
L 79.920246 -94.020865 
L 80.007161 -93.827416 
L 80.094075 -93.620915 
L 80.180989 -93.401364 
L 80.267903 -93.168811 
L 80.354817 -92.923348 
L 80.441731 -92.665108 
L 80.528645 -92.394263 
L 80.615559 -92.111021 
L 80.702473 -91.815626 
L 80.789387 -91.50835 
L 80.876301 -91.189495 
L 80.963215 -90.859386 
L 81.05013 -90.518371 
L 81.137044 -90.166818 
L 81.223958 -89.805108 
L 81.310872 -89.433637 
L 81.397786 -89.052811 
L 81.4847 -88.663044 
L 81.571614 -88.264754 
L 81.658528 -87.858365 
L 81.745442 -87.444299 
L 81.832356 -87.022977 
L 81.91927 -86.594818 
L 82.006184 -86.160236 
L 82.093099 -85.719639 
L 82.180013 -85.273426 
L 82.266927 -84.821988 
L 82.353841 -84.365706 
L 82.440755 -83.904948 
L 82.527669 -83.440072 
L 82.614583 -82.971423 
L 82.701497 -82.499331 
L 82.788411 -82.024112 
L 82.875325 -81.54607 
L 82.962239 -81.06549 
L 83.049153 -80.582644 
L 83.136068 -80.097788 
L 83.222982 -79.611162 
L 83.309896 -79.122988 
L 83.39681 -78.633475 
L 83.483724 -78.142813 
L 83.570638 -77.651176 
L 83.657552 -77.158721 
L 83.744466 -76.665591 
L 83.83138 -76.171907 
L 83.918294 -75.677779 
L 84.005208 -75.183295 
L 84.092122 -74.68853 
L 84.179037 -74.193539 
L 84.265951 -73.69836 
L 84.352865 -73.203014 
L 84.439779 -72.707504 
L 84.526693 -72.211813 
L 84.613607 -71.715905 
L 84.700521 -71.219723 
L 84.787435 -70.723188 
L 84.874349 -70.226199 
L 84.961263 -69.728626 
L 85.048177 -69.230313 
L 85.135092 -68.73107 
L 85.222006 -68.230671 
L 85.30892 -67.728849 
L 85.395834 -67.225288 
L 85.482748 -66.719614 
L 85.569662 -66.21139 
L 85.656576 -65.700099 
L 85.74349 -65.185133 
L 85.830404 -64.665779 
L 85.917318 -64.141195 
L 86.004232 -63.610389 
L 86.091146 -63.072197 
L 86.178061 -62.52525 
L 86.264975 -61.967938 
L 86.351889 -61.398379 
L 86.438803 -60.814366 
L 86.525717 -60.213327 
L 86.612631 -59.592273 
L 86.699545 -58.94774 
L 86.786459 -58.275743 
L 86.873373 -57.571729 
L 86.960287 -56.830553 
L 87.047201 -56.046487 
L 87.134115 -55.213297 
L 87.22103 -54.324426 
L 87.307944 -53.373352 
L 87.394858 -52.354213 
L 87.481772 -51.262814 
L 87.568686 -50.098129 
L 87.6556 -48.864358 
L 87.742514 -47.573365 
L 87.829428 -46.246885 
L 87.916342 -44.917229 
L 88.003256 -43.624809 
L 88.09017 -42.41159 
L 88.177084 -41.312131 
L 88.263999 -40.346529 
L 88.350913 -39.519024 
L 88.437827 -38.821922 
L 88.524741 -38.241335 
L 88.611655 -37.761646 
L 88.698569 -37.36792 
L 88.785483 -37.046815 
L 88.872397 -36.786783 
L 88.959311 -36.577981 
L 89.046225 -36.412104 
L 89.133139 -36.28219 
L 89.220053 -36.182433 
L 89.306968 -36.108001 
L 89.393882 -36.054882 
L 89.480796 -36.019748 
L 89.56771 -35.999833 
L 89.654624 -35.992841 
L 89.741538 -35.996861 
L 89.828452 -36.010306 
L 89.915366 -36.03185 
L 90.00228 -36.060395 
L 90.089194 -36.095019 
L 90.176108 -36.134958 
L 90.263023 -36.179567 
L 90.349937 -36.228306 
L 90.436851 -36.280716 
L 90.523765 -36.336409 
L 90.610679 -36.395053 
L 90.697593 -36.456364 
L 90.784507 -36.520096 
L 90.871421 -36.586039 
L 90.958335 -36.654011 
L 91.045249 -36.723856 
L 91.132163 -36.795436 
L 91.219077 -36.868634 
L 91.305992 -36.943345 
L 91.392906 -37.019481 
L 91.47982 -37.096961 
L 91.566734 -37.175716 
L 91.653648 -37.255685 
L 91.740562 -37.336813 
L 91.827476 -37.419053 
L 91.91439 -37.502361 
L 92.001304 -37.586697 
L 92.088218 -37.672028 
L 92.175132 -37.758321 
L 92.262046 -37.845547 
L 92.348961 -37.93368 
L 92.435875 -38.022694 
L 92.522789 -38.112567 
L 92.609703 -38.203278 
L 92.696617 -38.294805 
L 92.783531 -38.387131 
L 92.870445 -38.480236 
L 92.957359 -38.574103 
L 93.044273 -38.668715 
L 93.131187 -38.764055 
L 93.218101 -38.860109 
L 93.305015 -38.956859 
L 93.39193 -39.054291 
L 93.478844 -39.152389 
L 93.565758 -39.251139 
L 93.652672 -39.350525 
L 93.739586 -39.450533 
L 93.8265 -39.551147 
L 93.913414 -39.652353 
L 94.000328 -39.754136 
L 94.087242 -39.856481 
L 94.174156 -39.959373 
L 94.26107 -40.062797 
L 94.347984 -40.166738 
L 94.434899 -40.271181 
L 94.521813 -40.376109 
L 94.608727 -40.481508 
L 94.695641 -40.587362 
L 94.782555 -40.693655 
L 94.869469 -40.800371 
L 94.956383 -40.907494 
L 95.043297 -41.015007 
L 95.130211 -41.122894 
L 95.217125 -41.231139 
L 95.304039 -41.339725 
L 95.390953 -41.448634 
L 95.477868 -41.55785 
L 95.564782 -41.667355 
L 95.651696 -41.777133 
L 95.73861 -41.887165 
L 95.825524 -41.997434 
L 95.912438 -42.107922 
L 95.999352 -42.218611 
L 96.086266 -42.329483 
L 96.17318 -42.440521 
L 96.260094 -42.551705 
L 96.347008 -42.663018 
L 96.433923 -42.774441 
L 96.520837 -42.885956 
L 96.607751 -42.997544 
L 96.694665 -43.109186 
L 96.781579 -43.220865 
L 96.868493 -43.332562 
L 96.955407 -43.444258 
L 97.042321 -43.555935 
L 97.129235 -43.667574 
L 97.216149 -43.779157 
L 97.303063 -43.890665 
L 97.389977 -44.002081 
L 97.476892 -44.113386 
L 97.563806 -44.224563 
L 97.65072 -44.335595 
L 97.737634 -44.446462 
L 97.824548 -44.557149 
L 97.911462 -44.667639 
L 97.998376 -44.777915 
L 98.08529 -44.88796 
L 98.172204 -44.997759 
L 98.259118 -45.107297 
L 98.346032 -45.216558 
L 98.432946 -45.325528 
L 98.519861 -45.434193 
L 98.606775 -45.542539 
L 98.693689 -45.650555 
L 98.780603 -45.758228 
L 98.867517 -45.865546 
L 98.954431 -45.972499 
L 99.041345 -46.079078 
L 99.128259 -46.185273 
L 99.215173 -46.291077 
L 99.302087 -46.396482 
L 99.389001 -46.501483 
L 99.475915 -46.606074 
L 99.56283 -46.710253 
L 99.649744 -46.814017 
L 99.736658 -46.917365 
L 99.823572 -47.020296 
L 99.910486 -47.122814 
L 99.9974 -47.22492 
L 100.084314 -47.32662 
L 100.171228 -47.42792 
L 100.258142 -47.528829 
L 100.345056 -47.629356 
L 100.43197 -47.729514 
L 100.518884 -47.829316 
L 100.605799 -47.928778 
L 100.692713 -48.02792 
L 100.779627 -48.126761 
L 100.866541 -48.225325 
L 100.953455 -48.323637 
L 101.040369 -48.421726 
L 101.127283 -48.519623 
L 101.214197 -48.617364 
L 101.301111 -48.714984 
L 101.388025 -48.812526 
L 101.474939 -48.910034 
L 101.561854 -49.007557 
L 101.648768 -49.105148 
L 101.735682 -49.202862 
L 101.822596 -49.300764 
L 101.90951 -49.398919 
L 101.996424 -49.4974 
L 102.083338 -49.596285 
L 102.170252 -49.695659 
L 102.257166 -49.795614 
L 102.34408 -49.89625 
L 102.430994 -49.997674 
L 102.517908 -50.100002 
L 102.604823 -50.203362 
L 102.691737 -50.307891 
L 102.778651 -50.413739 
L 102.865565 -50.52107 
L 102.952479 -50.630061 
L 103.039393 -50.740908 
L 103.126307 -50.853824 
L 103.213221 -50.969043 
L 103.300135 -51.086823 
L 103.387049 -51.207446 
L 103.473963 -51.331228 
L 103.560877 -51.458514 
L 103.647792 -51.589689 
L 103.734706 -51.725181 
L 103.82162 -51.865467 
L 103.908534 -52.011082 
L 103.995448 -52.162623 
L 104.082362 -52.320763 
L 104.169276 -52.486259 
L 104.25619 -52.65997 
L 104.343104 -52.842868 
L 104.430018 -53.036057 
L 104.516932 -53.240799 
L 104.603846 -53.458537 
L 104.690761 -53.690925 
L 104.777675 -53.93987 
L 104.864589 -54.207574 
L 104.951503 -54.496583 
L 105.038417 -54.80986 
L 105.125331 -55.15085 
L 105.212245 -55.523576 
L 105.299159 -55.932739 
L 105.386073 -56.383838 
L 105.472987 -56.883307 
L 105.559901 -57.438665 
L 105.646815 -58.058678 
L 105.73373 -58.753521 
L 105.820644 -59.534926 
L 105.907558 -60.416269 
L 105.994472 -61.41257 
L 106.081386 -62.54029 
L 106.1683 -63.816817 
L 106.255214 -65.259452 
L 106.342128 -66.883634 
L 106.429042 -68.7001 
L 106.515956 -70.710678 
L 106.60287 -72.902672 
L 106.689785 -75.242395 
L 106.776699 -77.669666 
L 106.863613 -80.096603 
L 106.950527 -82.414774 
L 107.037441 -84.512642 
L 107.124355 -86.299407 
L 107.211269 -87.725169 
L 107.298183 -88.787413 
L 107.385097 -89.521911 
L 107.472011 -89.985038 
L 107.558925 -90.236881 
L 107.645839 -90.330528 
L 107.732754 -90.307902 
L 107.819668 -90.199877 
L 107.906582 -90.028224 
L 107.993496 -89.807914 
L 108.08041 -89.54918 
L 108.167324 -89.259095 
L 108.254238 -88.942686 
L 108.341152 -88.603656 
L 108.428066 -88.244841 
L 108.51498 -87.868504 
L 108.601894 -87.476513 
L 108.688808 -87.070454 
L 108.775723 -86.651708 
L 108.862637 -86.221497 
L 108.949551 -85.780922 
L 109.036465 -85.330976 
L 109.123379 -84.872569 
L 109.210293 -84.406537 
L 109.297207 -83.933649 
L 109.384121 -83.454615 
L 109.471035 -82.970091 
L 109.557949 -82.480686 
L 109.644863 -81.986961 
L 109.731777 -81.489437 
L 109.818692 -80.988592 
L 109.905606 -80.484871 
L 109.99252 -79.978679 
L 110.079434 -79.470389 
L 110.166348 -78.960343 
L 110.253262 -78.448851 
L 110.340176 -77.936193 
L 110.42709 -77.422621 
L 110.514004 -76.90836 
L 110.600918 -76.393609 
L 110.687832 -75.87854 
L 110.774746 -75.363302 
L 110.861661 -74.848016 
L 110.948575 -74.332784 
L 111.035489 -73.817679 
L 111.122403 -73.302755 
L 111.209317 -72.78804 
L 111.296231 -72.273538 
L 111.383145 -71.759228 
L 111.470059 -71.245065 
L 111.556973 -70.730975 
L 111.643887 -70.216857 
L 111.730801 -69.702578 
L 111.817715 -69.187969 
L 111.90463 -68.672826 
L 111.991544 -68.156899 
L 112.078458 -67.639891 
L 112.165372 -67.121448 
L 112.252286 -66.60115 
L 112.3392 -66.078505 
L 112.426114 -65.552932 
L 112.513028 -65.02375 
L 112.599942 -64.490162 
L 112.686856 -63.951233 
L 112.77377 -63.405872 
L 112.860685 -62.852808 
L 112.947599 -62.290558 
L 113.034513 -61.7174 
L 113.121427 -61.131342 
L 113.208341 -60.530078 
L 113.295255 -59.910959 
L 113.382169 -59.27095 
L 113.469083 -58.606596 
L 113.555997 -57.913998 
L 113.642911 -57.1888 
L 113.729825 -56.426208 
L 113.816739 -55.621056 
L 113.903654 -54.76795 
L 113.990568 -53.861518 
L 114.077482 -52.896846 
L 114.164396 -51.870133 
L 114.25131 -50.779669 
L 114.338224 -49.62716 
L 114.425138 -48.419393 
L 114.512052 -47.170001 
L 114.598966 -45.900811 
L 114.68588 -44.641828 
L 114.772794 -43.428744 
L 114.859708 -42.297501 
L 114.946623 -41.277164 
L 115.033537 -40.384265 
L 115.120451 -39.621526 
L 115.207365 -38.981008 
L 115.294279 -38.449065 
L 115.381193 -38.010479 
L 115.468107 -37.650829 
L 115.555021 -37.357439 
L 115.641935 -37.119549 
L 115.728849 -36.928164 
L 115.815763 -36.775811 
L 115.902677 -36.656292 
L 115.989592 -36.564468 
L 116.076506 -36.496073 
L 116.16342 -36.447561 
L 116.250334 -36.415978 
L 116.337248 -36.398861 
L 116.424162 -36.394151 
L 116.511076 -36.400123 
L 116.59799 -36.41533 
L 116.684904 -36.438555 
L 116.771818 -36.468772 
L 116.858732 -36.505114 
L 116.945646 -36.546846 
L 117.032561 -36.593342 
L 117.119475 -36.644069 
L 117.206389 -36.698572 
L 117.293303 -36.756459 
L 117.380217 -36.817395 
L 117.467131 -36.881089 
L 117.554045 -36.947293 
L 117.640959 -37.015788 
L 117.727873 -37.086387 
L 117.814787 -37.158927 
L 117.901701 -37.233264 
L 117.988616 -37.309273 
L 118.07553 -37.386846 
L 118.162444 -37.465885 
L 118.249358 -37.546305 
L 118.336272 -37.628032 
L 118.423186 -37.710997 
L 118.5101 -37.795141 
L 118.597014 -37.880411 
L 118.683928 -37.966759 
L 118.770842 -38.05414 
L 118.857756 -38.142515 
L 118.94467 -38.231848 
L 119.031585 -38.322105 
L 119.118499 -38.413257 
L 119.205413 -38.505274 
L 119.292327 -38.59813 
L 119.379241 -38.691801 
L 119.466155 -38.786262 
L 119.553069 -38.881491 
L 119.639983 -38.977468 
L 119.726897 -39.074171 
L 119.813811 -39.171581 
L 119.900725 -39.26968 
L 119.987639 -39.368448 
L 120.074554 -39.467868 
L 120.161468 -39.567921 
L 120.248382 -39.668591 
L 120.335296 -39.769861 
L 120.42221 -39.871713 
L 120.509124 -39.97413 
L 120.596038 -40.077097 
L 120.682952 -40.180595 
L 120.769866 -40.284609 
L 120.85678 -40.389122 
L 120.943694 -40.494118 
L 121.030608 -40.599579 
L 121.117523 -40.705488 
L 121.204437 -40.81183 
L 121.291351 -40.918587 
L 121.378265 -41.025742 
L 121.465179 -41.133279 
L 121.552093 -41.241179 
L 121.639007 -41.349426 
L 121.725921 -41.458003 
L 121.812835 -41.566891 
L 121.899749 -41.676074 
L 121.986663 -41.785533 
L 122.073577 -41.895251 
L 122.160492 -42.005209 
L 122.247406 -42.115391 
L 122.33432 -42.225777 
L 122.421234 -42.33635 
L 122.508148 -42.44709 
L 122.595062 -42.55798 
L 122.681976 -42.669002 
L 122.76889 -42.780136 
L 122.855804 -42.891365 
L 122.942718 -43.002669 
L 123.029632 -43.11403 
L 123.116547 -43.225429 
L 123.203461 -43.336848 
L 123.290375 -43.448267 
L 123.377289 -43.55967 
L 123.464203 -43.671036 
L 123.551117 -43.782348 
L 123.638031 -43.893586 
L 123.724945 -44.004734 
L 123.811859 -44.115772 
L 123.898773 -44.226684 
L 123.985687 -44.33745 
L 124.072601 -44.448054 
L 124.159516 -44.558478 
L 124.24643 -44.668706 
L 124.333344 -44.77872 
L 124.420258 -44.888505 
L 124.507172 -44.998043 
L 124.594086 -45.107321 
L 124.681 -45.216322 
L 124.767914 -45.325032 
L 124.854828 -45.433437 
L 124.941742 -45.541523 
L 125.028656 -45.649278 
L 125.11557 -45.756688 
L 125.202485 -45.863743 
L 125.289399 -45.970432 
L 125.376313 -46.076744 
L 125.463227 -46.182671 
L 125.550141 -46.288203 
L 125.637055 -46.393335 
L 125.723969 -46.498058 
L 125.810883 -46.602369 
L 125.897797 -46.706263 
L 125.984711 -46.809737 
L 126.071625 -46.912789 
L 126.158539 -47.015418 
L 126.245454 -47.117627 
L 126.332368 -47.219416 
L 126.419282 -47.320791 
L 126.506196 -47.421756 
L 126.59311 -47.522319 
L 126.680024 -47.622489 
L 126.766938 -47.722276 
L 126.853852 -47.821693 
L 126.940766 -47.920754 
L 127.02768 -48.019477 
L 127.114594 -48.117881 
L 127.201508 -48.215986 
L 127.288423 -48.313817 
L 127.375337 -48.411399 
L 127.462251 -48.508762 
L 127.549165 -48.605937 
L 127.636079 -48.702959 
L 127.722993 -48.799867 
L 127.809907 -48.896702 
L 127.896821 -48.993507 
L 127.983735 -49.090333 
L 128.070649 -49.187232 
L 128.157563 -49.284261 
L 128.244477 -49.381481 
L 128.331392 -49.478959 
L 128.418306 -49.576768 
L 128.50522 -49.674985 
L 128.592134 -49.773693 
L 128.679048 -49.872984 
L 128.765962 -49.972956 
L 128.852876 -50.073715 
L 128.93979 -50.175376 
L 129.026704 -50.278063 
L 129.113618 -50.381911 
L 129.200532 -50.487069 
L 129.287447 -50.593694 
L 129.374361 -50.701962 
L 129.461275 -50.812062 
L 129.548189 -50.924203 
L 129.635103 -51.038611 
L 129.722017 -51.155538 
L 129.808931 -51.275257 
L 129.895845 -51.398071 
L 129.982759 -51.524316 
L 130.069673 -51.654362 
L 130.156587 -51.788621 
L 130.243501 -51.92755 
L 130.330416 -52.07166 
L 130.41733 -52.221523 
L 130.504244 -52.37778 
L 130.591158 -52.541153 
L 130.678072 -52.712454 
L 130.764986 -52.892605 
L 130.8519 -53.082649 
L 130.938814 -53.283775 
L 131.025728 -53.497338 
L 131.112642 -53.724891 
L 131.199556 -53.968216 
L 131.28647 -54.229361 
L 131.373385 -54.510695 
L 131.460299 -54.814954 
L 131.547213 -55.145313 
L 131.634127 -55.505461 
L 131.721041 -55.89969 
L 131.807955 -56.333001 
L 131.894869 -56.81122 
L 131.981783 -57.341133 
L 132.068697 -57.930628 
L 132.155611 -58.588844 
L 132.242525 -59.326303 
L 132.329439 -60.155024 
L 132.416354 -61.088542 
L 132.503268 -62.141809 
L 132.590182 -63.330851 
L 132.677096 -64.672041 
L 132.76401 -66.1808 
L 132.850924 -67.869445 
L 132.937838 -69.743908 
L 133.024752 -71.799152 
L 133.111666 -74.013473 
L 133.19858 -76.342746 
L 133.285494 -78.716932 
L 133.372408 -81.042358 
L 133.459323 -83.212878 
L 133.546237 -85.129429 
L 133.633151 -86.721587 
L 133.720065 -87.961225 
L 133.806979 -88.861999 
L 133.893893 -89.466811 
L 133.980807 -89.831169 
L 134.067721 -90.009708 
L 134.154635 -90.048777 
L 134.241549 -89.984329 
L 134.328463 -89.842823 
L 134.415378 -89.643091 
L 134.502292 -89.398237 
L 134.589206 -89.117323 
L 134.67612 -88.80671 
L 134.763034 -88.470994 
L 134.849948 -88.113626 
L 134.936862 -87.737294 
L 135.023776 -87.344175 
L 135.11069 -86.936085 
L 135.197604 -86.514581 
L 135.284518 -86.081024 
L 135.371432 -85.636627 
L 135.458347 -85.182476 
L 135.545261 -84.719561 
L 135.632175 -84.248783 
L 135.719089 -83.770968 
L 135.806003 -83.286876 
L 135.892917 -82.797207 
L 135.979831 -82.302608 
L 136.066745 -81.803672 
L 136.153659 -81.300948 
L 136.240573 -80.79494 
L 136.327487 -80.286113 
L 136.414401 -79.774892 
L 136.501316 -79.261664 
L 136.58823 -78.746784 
L 136.675144 -78.230572 
L 136.762058 -77.713317 
L 136.848972 -77.195278 
L 136.935886 -76.676684 
L 137.0228 -76.157737 
L 137.109714 -75.638611 
L 137.196628 -75.119454 
L 137.283542 -74.600388 
L 137.370456 -74.08151 
L 137.45737 -73.562893 
L 137.544285 -73.044584 
L 137.631199 -72.526605 
L 137.718113 -72.008954 
L 137.805027 -71.491603 
L 137.891941 -70.974495 
L 137.978855 -70.457547 
L 138.065769 -69.940644 
L 138.152683 -69.423638 
L 138.239597 -68.906344 
L 138.326511 -68.388536 
L 138.413425 -67.869943 
L 138.500339 -67.35024 
L 138.587254 -66.82904 
L 138.674168 -66.30589 
L 138.761082 -65.780252 
L 138.847996 -65.251498 
L 138.93491 -64.71889 
L 139.021824 -64.181564 
L 139.108738 -63.638512 
L 139.195652 -63.088558 
L 139.282566 -62.530331 
L 139.36948 -61.962243 
L 139.456394 -61.382449 
L 139.543309 -60.788821 
L 139.630223 -60.17891 
L 139.717137 -59.549908 
L 139.804051 -58.898618 
L 139.890965 -58.221421 
L 139.977879 -57.514263 
L 140.064793 -56.77266 
L 140.151707 -55.99174 
L 140.238621 -55.166346 
L 140.325535 -54.291231 
L 140.412449 -53.361389 
L 140.499363 -52.372579 
L 140.586278 -51.322116 
L 140.673192 -50.209977 
L 140.760106 -49.040241 
L 140.84702 -47.822768 
L 140.933934 -46.57475 
L 141.020848 -45.321454 
L 141.107762 -44.095136 
L 141.194676 -42.931264 
L 141.28159 -41.862279 
L 141.368504 -40.911067 
L 141.455418 -40.087321 
L 141.542332 -39.388462 
L 141.629247 -38.803775 
L 141.716161 -38.318993 
L 141.803075 -37.919516 
L 141.889989 -37.59202 
L 141.976903 -37.324983 
L 142.063817 -37.108685 
L 142.150731 -36.935012 
L 142.237645 -36.797221 
L 142.324559 -36.689711 
L 142.411473 -36.607829 
L 142.498387 -36.547704 
L 142.585301 -36.50611 
L 142.672216 -36.480356 
L 142.75913 -36.468188 
L 142.846044 -36.46772 
L 142.932958 -36.477363 
L 143.019872 -36.49578 
L 143.106786 -36.521841 
L 143.1937 -36.554589 
L 143.280614 -36.593211 
L 143.367528 -36.637014 
L 143.454442 -36.685409 
L 143.541356 -36.737889 
L 143.62827 -36.794022 
L 143.715185 -36.853435 
L 143.802099 -36.915807 
L 143.889013 -36.980862 
L 143.975927 -37.048361 
L 144.062841 -37.021539 
L 144.062841 -37.059991 
L 144.062841 -37.059991 
L 143.975927 -37.08686 
L 143.889013 -37.019325 
L 143.802099 -36.954274 
L 143.715185 -36.891957 
L 143.62827 -36.832663 
L 143.541356 -36.776724 
L 143.454442 -36.724533 
L 143.367528 -36.676543 
L 143.280614 -36.633288 
L 143.1937 -36.595393 
L 143.106786 -36.563591 
L 143.019872 -36.538747 
L 142.932958 -36.521881 
L 142.846044 -36.5142 
L 142.75913 -36.517131 
L 142.672216 -36.532369 
L 142.585301 -36.561928 
L 142.498387 -36.608207 
L 142.411473 -36.67407 
L 142.324559 -36.762942 
L 142.237645 -36.87893 
L 142.150731 -37.026962 
L 142.063817 -37.212966 
L 141.976903 -37.444069 
L 141.889989 -37.728831 
L 141.803075 -38.077474 
L 141.716161 -38.502032 
L 141.629247 -39.016221 
L 141.542332 -39.634635 
L 141.455418 -40.370665 
L 141.368504 -41.2328 
L 141.28159 -42.219982 
L 141.194676 -43.318273 
L 141.107762 -44.501381 
L 141.020848 -45.735446 
L 140.933934 -46.985721 
L 140.84702 -48.222109 
L 140.760106 -49.422018 
L 140.673192 -50.570766 
L 140.586278 -51.660506 
L 140.499363 -52.688599 
L 140.412449 -53.656002 
L 140.325535 -54.565944 
L 140.238621 -55.422927 
L 140.151707 -56.232033 
L 140.064793 -56.998468 
L 139.977879 -57.72728 
L 139.890965 -58.423198 
L 139.804051 -59.090548 
L 139.717137 -59.733228 
L 139.630223 -60.354704 
L 139.543309 -60.958037 
L 139.456394 -61.545907 
L 139.36948 -62.120651 
L 139.282566 -62.684299 
L 139.195652 -63.238605 
L 139.108738 -63.785084 
L 139.021824 -64.325039 
L 138.93491 -64.85959 
L 138.847996 -65.389696 
L 138.761082 -65.916176 
L 138.674168 -66.439734 
L 138.587254 -66.960967 
L 138.500339 -67.480383 
L 138.413425 -67.998415 
L 138.326511 -68.515429 
L 138.239597 -69.031732 
L 138.152683 -69.547582 
L 138.065769 -70.063191 
L 137.978855 -70.578735 
L 137.891941 -71.09435 
L 137.805027 -71.610143 
L 137.718113 -72.126191 
L 137.631199 -72.642543 
L 137.544285 -73.159222 
L 137.45737 -73.676224 
L 137.370456 -74.193524 
L 137.283542 -74.71107 
L 137.196628 -75.228786 
L 137.109714 -75.746572 
L 137.0228 -76.264303 
L 136.935886 -76.78183 
L 136.848972 -77.298975 
L 136.762058 -77.815535 
L 136.675144 -78.331282 
L 136.58823 -78.845953 
L 136.501316 -79.359261 
L 136.414401 -79.870884 
L 136.327487 -80.380467 
L 136.240573 -80.887624 
L 136.153659 -81.391928 
L 136.066745 -81.892915 
L 135.979831 -82.390082 
L 135.892917 -82.882879 
L 135.806003 -83.370712 
L 135.719089 -83.852933 
L 135.632175 -84.328842 
L 135.545261 -84.797678 
L 135.458347 -85.25861 
L 135.371432 -85.710735 
L 135.284518 -86.153062 
L 135.197604 -86.584498 
L 135.11069 -87.00383 
L 135.023776 -87.409692 
L 134.936862 -87.80053 
L 134.849948 -88.174536 
L 134.763034 -88.529554 
L 134.67612 -88.862948 
L 134.589206 -89.171379 
L 134.502292 -89.450484 
L 134.415378 -89.694377 
L 134.328463 -89.894903 
L 134.241549 -90.040501 
L 134.154635 -90.114482 
L 134.067721 -90.092713 
L 133.980807 -89.941305 
L 133.893893 -89.615439 
L 133.806979 -89.060925 
L 133.720065 -88.220603 
L 133.633151 -87.046878 
L 133.546237 -85.518417 
L 133.459323 -83.654426 
L 133.372408 -81.518052 
L 133.285494 -79.205106 
L 133.19858 -76.822986 
L 133.111666 -74.469763 
L 133.024752 -72.221034 
L 132.937838 -70.126075 
L 132.850924 -68.210566 
L 132.76401 -66.482215 
L 132.677096 -64.936653 
L 132.590182 -63.562316 
L 132.503268 -62.344 
L 132.416354 -61.265226 
L 132.329439 -60.309688 
L 132.242525 -59.462077 
L 132.155611 -58.708476 
L 132.068697 -58.036503 
L 131.981783 -57.435295 
L 131.894869 -56.895417 
L 131.807955 -56.40872 
L 131.721041 -55.968193 
L 131.634127 -55.567817 
L 131.547213 -55.202431 
L 131.460299 -54.867603 
L 131.373385 -54.559531 
L 131.28647 -54.274939 
L 131.199556 -54.011009 
L 131.112642 -53.765304 
L 131.025728 -53.535713 
L 130.938814 -53.320407 
L 130.8519 -53.117789 
L 130.764986 -52.926468 
L 130.678072 -52.745226 
L 130.591158 -52.572991 
L 130.504244 -52.408822 
L 130.41733 -52.251887 
L 130.330416 -52.101448 
L 130.243501 -51.956851 
L 130.156587 -51.817512 
L 130.069673 -51.682911 
L 129.982759 -51.552582 
L 129.895845 -51.426106 
L 129.808931 -51.303107 
L 129.722017 -51.183244 
L 129.635103 -51.06621 
L 129.548189 -50.951726 
L 129.461275 -50.839539 
L 129.374361 -50.729418 
L 129.287447 -50.621154 
L 129.200532 -50.514554 
L 129.113618 -50.409441 
L 129.026704 -50.305655 
L 128.93979 -50.203047 
L 128.852876 -50.10148 
L 128.765962 -50.000828 
L 128.679048 -49.900977 
L 128.592134 -49.801818 
L 128.50522 -49.703252 
L 128.418306 -49.605188 
L 128.331392 -49.507541 
L 128.244477 -49.410233 
L 128.157563 -49.313192 
L 128.070649 -49.216349 
L 127.983735 -49.119642 
L 127.896821 -49.023015 
L 127.809907 -48.926413 
L 127.722993 -48.829788 
L 127.636079 -48.733095 
L 127.549165 -48.63629 
L 127.462251 -48.539337 
L 127.375337 -48.4422 
L 127.288423 -48.344846 
L 127.201508 -48.247247 
L 127.114594 -48.149375 
L 127.02768 -48.051206 
L 126.940766 -47.952719 
L 126.853852 -47.853895 
L 126.766938 -47.754716 
L 126.680024 -47.655167 
L 126.59311 -47.555236 
L 126.506196 -47.454911 
L 126.419282 -47.354183 
L 126.332368 -47.253045 
L 126.245454 -47.15149 
L 126.158539 -47.049515 
L 126.071625 -46.947117 
L 125.984711 -46.844294 
L 125.897797 -46.741047 
L 125.810883 -46.637377 
L 125.723969 -46.533287 
L 125.637055 -46.428781 
L 125.550141 -46.323863 
L 125.463227 -46.218541 
L 125.376313 -46.112821 
L 125.289399 -46.00671 
L 125.202485 -45.900219 
L 125.11557 -45.793357 
L 125.028656 -45.686135 
L 124.941742 -45.578563 
L 124.854828 -45.470655 
L 124.767914 -45.362423 
L 124.681 -45.25388 
L 124.594086 -45.14504 
L 124.507172 -45.035918 
L 124.420258 -44.926529 
L 124.333344 -44.816888 
L 124.24643 -44.707011 
L 124.159516 -44.596915 
L 124.072601 -44.486615 
L 123.985687 -44.37613 
L 123.898773 -44.265475 
L 123.811859 -44.154669 
L 123.724945 -44.043729 
L 123.638031 -43.932674 
L 123.551117 -43.82152 
L 123.464203 -43.710287 
L 123.377289 -43.598992 
L 123.290375 -43.487654 
L 123.203461 -43.376292 
L 123.116547 -43.264924 
L 123.029632 -43.153569 
L 122.942718 -43.042245 
L 122.855804 -42.93097 
L 122.76889 -42.819765 
L 122.681976 -42.708647 
L 122.595062 -42.597634 
L 122.508148 -42.486746 
L 122.421234 -42.376001 
L 122.33432 -42.265417 
L 122.247406 -42.155013 
L 122.160492 -42.044806 
L 122.073577 -41.934816 
L 121.986663 -41.825059 
L 121.899749 -41.715555 
L 121.812835 -41.606321 
L 121.725921 -41.497375 
L 121.639007 -41.388733 
L 121.552093 -41.280415 
L 121.465179 -41.172438 
L 121.378265 -41.064818 
L 121.291351 -40.957573 
L 121.204437 -40.850721 
L 121.117523 -40.744277 
L 121.030608 -40.63826 
L 120.943694 -40.532686 
L 120.85678 -40.427572 
L 120.769866 -40.322934 
L 120.682952 -40.21879 
L 120.596038 -40.115157 
L 120.509124 -40.01205 
L 120.42221 -39.909487 
L 120.335296 -39.807485 
L 120.248382 -39.70606 
L 120.161468 -39.60523 
L 120.074554 -39.505012 
L 119.987639 -39.405424 
L 119.900725 -39.306483 
L 119.813811 -39.208208 
L 119.726897 -39.110617 
L 119.639983 -39.01373 
L 119.553069 -38.917566 
L 119.466155 -38.822146 
L 119.379241 -38.727492 
L 119.292327 -38.633626 
L 119.205413 -38.540572 
L 119.118499 -38.448355 
L 119.031585 -38.357003 
L 118.94467 -38.266543 
L 118.857756 -38.177008 
L 118.770842 -38.088431 
L 118.683928 -38.000848 
L 118.597014 -37.914301 
L 118.5101 -37.828833 
L 118.423186 -37.744495 
L 118.336272 -37.66134 
L 118.249358 -37.57943 
L 118.162444 -37.498835 
L 118.07553 -37.419631 
L 117.988616 -37.341906 
L 117.901701 -37.265761 
L 117.814787 -37.191309 
L 117.727873 -37.118681 
L 117.640959 -37.048024 
L 117.554045 -36.979512 
L 117.467131 -36.913343 
L 117.380217 -36.849747 
L 117.293303 -36.788989 
L 117.206389 -36.731381 
L 117.119475 -36.677283 
L 117.032561 -36.627119 
L 116.945646 -36.581384 
L 116.858732 -36.540658 
L 116.771818 -36.505624 
L 116.684904 -36.477086 
L 116.59799 -36.455991 
L 116.511076 -36.44346 
L 116.424162 -36.440815 
L 116.337248 -36.449628 
L 116.250334 -36.471764 
L 116.16342 -36.509446 
L 116.076506 -36.565328 
L 115.989592 -36.642587 
L 115.902677 -36.745036 
L 115.815763 -36.877258 
L 115.728849 -37.04477 
L 115.641935 -37.254221 
L 115.555021 -37.51362 
L 115.468107 -37.832575 
L 115.381193 -38.222514 
L 115.294279 -38.696729 
L 115.207365 -39.269947 
L 115.120451 -39.956888 
L 115.033537 -40.769212 
L 114.946623 -41.710945 
L 114.859708 -42.77399 
L 114.772794 -43.936596 
L 114.68588 -45.166517 
L 114.598966 -46.427544 
L 114.512052 -47.68613 
L 114.425138 -48.915632 
L 114.338224 -50.097708 
L 114.25131 -51.221682 
L 114.164396 -52.282976 
L 114.077482 -53.281366 
L 113.990568 -54.219463 
L 113.903654 -55.101535 
L 113.816739 -55.932678 
L 113.729825 -56.718252 
L 113.642911 -57.463535 
L 113.555997 -58.173515 
L 113.469083 -58.852782 
L 113.382169 -59.505483 
L 113.295255 -60.135316 
L 113.208341 -60.745548 
L 113.121427 -61.339042 
L 113.034513 -61.918297 
L 112.947599 -62.485481 
L 112.860685 -63.042468 
L 112.77377 -63.590877 
L 112.686856 -64.132098 
L 112.599942 -64.667327 
L 112.513028 -65.197588 
L 112.426114 -65.723756 
L 112.3392 -66.246579 
L 112.252286 -66.766696 
L 112.165372 -67.284651 
L 112.078458 -67.800904 
L 111.991544 -68.315848 
L 111.90463 -68.829813 
L 111.817715 -69.343077 
L 111.730801 -69.85587 
L 111.643887 -70.368384 
L 111.556973 -70.880772 
L 111.470059 -71.393154 
L 111.383145 -71.905623 
L 111.296231 -72.418241 
L 111.209317 -72.931047 
L 111.122403 -73.444052 
L 111.035489 -73.957245 
L 110.948575 -74.470592 
L 110.861661 -74.984034 
L 110.774746 -75.49749 
L 110.687832 -76.010857 
L 110.600918 -76.524007 
L 110.514004 -77.036787 
L 110.42709 -77.549023 
L 110.340176 -78.060512 
L 110.253262 -78.571027 
L 110.166348 -79.080315 
L 110.079434 -79.588093 
L 109.99252 -80.094049 
L 109.905606 -80.597843 
L 109.818692 -81.099102 
L 109.731777 -81.597419 
L 109.644863 -82.092353 
L 109.557949 -82.583426 
L 109.471035 -83.070121 
L 109.384121 -83.551878 
L 109.297207 -84.028094 
L 109.210293 -84.498114 
L 109.123379 -84.961235 
L 109.036465 -85.416692 
L 108.949551 -85.863656 
L 108.862637 -86.301225 
L 108.775723 -86.728411 
L 108.688808 -87.144126 
L 108.601894 -87.547159 
L 108.51498 -87.936144 
L 108.428066 -88.309515 
L 108.341152 -88.665436 
L 108.254238 -89.001693 
L 108.167324 -89.315525 
L 108.08041 -89.603367 
L 107.993496 -89.860438 
L 107.906582 -90.080103 
L 107.819668 -90.2529 
L 107.732754 -90.365077 
L 107.645839 -90.396516 
L 107.558925 -90.318155 
L 107.472011 -90.089638 
L 107.385097 -89.658757 
L 107.298183 -88.964963 
L 107.211269 -87.949295 
L 107.124355 -86.570902 
L 107.037441 -84.825515 
L 106.950527 -82.756588 
L 106.863613 -80.45108 
L 106.776699 -78.020357 
L 106.689785 -75.575734 
L 106.60287 -73.209452 
L 106.515956 -70.986045 
L 106.429042 -68.942696 
L 106.342128 -67.094497 
L 106.255214 -65.441028 
L 106.1683 -63.972233 
L 106.081386 -62.672862 
L 105.994472 -61.525513 
L 105.907558 -60.51254 
L 105.820644 -59.617159 
L 105.73373 -58.824014 
L 105.646815 -58.119406 
L 105.559901 -57.491314 
L 105.472987 -56.929307 
L 105.386073 -56.424396 
L 105.299159 -55.968874 
L 105.212245 -55.556143 
L 105.125331 -55.180564 
L 105.038417 -54.837315 
L 104.951503 -54.52227 
L 104.864589 -54.231891 
L 104.777675 -53.963142 
L 104.690761 -53.713408 
L 104.603846 -53.480435 
L 104.516932 -53.262274 
L 104.430018 -53.057235 
L 104.343104 -52.863846 
L 104.25619 -52.680826 
L 104.169276 -52.507052 
L 104.082362 -52.341539 
L 103.995448 -52.18342 
L 103.908534 -52.031929 
L 103.82162 -51.886388 
L 103.734706 -51.746195 
L 103.647792 -51.610812 
L 103.560877 -51.479759 
L 103.473963 -51.352607 
L 103.387049 -51.228969 
L 103.300135 -51.108497 
L 103.213221 -50.990877 
L 103.126307 -50.875824 
L 103.039393 -50.763081 
L 102.952479 -50.652413 
L 102.865565 -50.543606 
L 102.778651 -50.436465 
L 102.691737 -50.330811 
L 102.604823 -50.226481 
L 102.517908 -50.123324 
L 102.430994 -50.021204 
L 102.34408 -49.919992 
L 102.257166 -49.819572 
L 102.170252 -49.719836 
L 102.083338 -49.620684 
L 101.996424 -49.522025 
L 101.90951 -49.423773 
L 101.822596 -49.32585 
L 101.735682 -49.228183 
L 101.648768 -49.130705 
L 101.561854 -49.033354 
L 101.474939 -48.936072 
L 101.388025 -48.838807 
L 101.301111 -48.74151 
L 101.214197 -48.644135 
L 101.127283 -48.546642 
L 101.040369 -48.448992 
L 100.953455 -48.351151 
L 100.866541 -48.253087 
L 100.779627 -48.154772 
L 100.692713 -48.05618 
L 100.605799 -47.957286 
L 100.518884 -47.858071 
L 100.43197 -47.758515 
L 100.345056 -47.658603 
L 100.258142 -47.55832 
L 100.171228 -47.457653 
L 100.084314 -47.356593 
L 99.9974 -47.25513 
L 99.910486 -47.153259 
L 99.823572 -47.050975 
L 99.736658 -46.948273 
L 99.649744 -46.845152 
L 99.56283 -46.741611 
L 99.475915 -46.637652 
L 99.389001 -46.533276 
L 99.302087 -46.428487 
L 99.215173 -46.323289 
L 99.128259 -46.217689 
L 99.041345 -46.111692 
L 98.954431 -46.005307 
L 98.867517 -45.898543 
L 98.780603 -45.791409 
L 98.693689 -45.683915 
L 98.606775 -45.576072 
L 98.519861 -45.467893 
L 98.432946 -45.359391 
L 98.346032 -45.250577 
L 98.259118 -45.141467 
L 98.172204 -45.032074 
L 98.08529 -44.922413 
L 97.998376 -44.8125 
L 97.911462 -44.702351 
L 97.824548 -44.591982 
L 97.737634 -44.481408 
L 97.65072 -44.370648 
L 97.563806 -44.259717 
L 97.476892 -44.148634 
L 97.389977 -44.037416 
L 97.303063 -43.926082 
L 97.216149 -43.814648 
L 97.129235 -43.703133 
L 97.042321 -43.591555 
L 96.955407 -43.479933 
L 96.868493 -43.368285 
L 96.781579 -43.256629 
L 96.694665 -43.144984 
L 96.607751 -43.03337 
L 96.520837 -42.921803 
L 96.433923 -42.810303 
L 96.347008 -42.698887 
L 96.260094 -42.587576 
L 96.17318 -42.476387 
L 96.086266 -42.365338 
L 95.999352 -42.254447 
L 95.912438 -42.143733 
L 95.825524 -42.033214 
L 95.73861 -41.922908 
L 95.651696 -41.812832 
L 95.564782 -41.703005 
L 95.477868 -41.593443 
L 95.390953 -41.484165 
L 95.304039 -41.375187 
L 95.217125 -41.266527 
L 95.130211 -41.158202 
L 95.043297 -41.050228 
L 94.956383 -40.942622 
L 94.869469 -40.835402 
L 94.782555 -40.728582 
L 94.695641 -40.622179 
L 94.608727 -40.51621 
L 94.521813 -40.41069 
L 94.434899 -40.305636 
L 94.347984 -40.201061 
L 94.26107 -40.096983 
L 94.174156 -39.993417 
L 94.087242 -39.890377 
L 94.000328 -39.78788 
L 93.913414 -39.685939 
L 93.8265 -39.58457 
L 93.739586 -39.483788 
L 93.652672 -39.383608 
L 93.565758 -39.284044 
L 93.478844 -39.185112 
L 93.39193 -39.086827 
L 93.305015 -38.989203 
L 93.218101 -38.892256 
L 93.131187 -38.796002 
L 93.044273 -38.700456 
L 92.957359 -38.605633 
L 92.870445 -38.511552 
L 92.783531 -38.418228 
L 92.696617 -38.325679 
L 92.609703 -38.233923 
L 92.522789 -38.14298 
L 92.435875 -38.05287 
L 92.348961 -37.963614 
L 92.262046 -37.875236 
L 92.175132 -37.78776 
L 92.088218 -37.701212 
L 92.001304 -37.615622 
L 91.91439 -37.531022 
L 91.827476 -37.447447 
L 91.740562 -37.364935 
L 91.653648 -37.283531 
L 91.566734 -37.203284 
L 91.47982 -37.124247 
L 91.392906 -37.046484 
L 91.305992 -36.970065 
L 91.219077 -36.895072 
L 91.132163 -36.821597 
L 91.045249 -36.749748 
L 90.958335 -36.67965 
L 90.871421 -36.611445 
L 90.784507 -36.545302 
L 90.697593 -36.481417 
L 90.610679 -36.420021 
L 90.523765 -36.361385 
L 90.436851 -36.305827 
L 90.349937 -36.253725 
L 90.263023 -36.205526 
L 90.176108 -36.161756 
L 90.089194 -36.12304 
L 90.00228 -36.090119 
L 89.915366 -36.063865 
L 89.828452 -36.045316 
L 89.741538 -36.035701 
L 89.654624 -36.036485 
L 89.56771 -36.049419 
L 89.480796 -36.076597 
L 89.393882 -36.120537 
L 89.306968 -36.184268 
L 89.220053 -36.271434 
L 89.133139 -36.386425 
L 89.046225 -36.534519 
L 88.959311 -36.722048 
L 88.872397 -36.956577 
L 88.785483 -37.24709 
L 88.698569 -37.604168 
L 88.611655 -38.040115 
L 88.524741 -38.56892 
L 88.437827 -39.205751 
L 88.350913 -39.96539 
L 88.263999 -40.858879 
L 88.177084 -41.888353 
L 88.09017 -43.04194 
L 88.003256 -44.292254 
L 87.916342 -45.600688 
L 87.829428 -46.925735 
L 87.742514 -48.230958 
L 87.6556 -49.489479 
L 87.568686 -50.684731 
L 87.481772 -51.808894 
L 87.394858 -52.860519 
L 87.307944 -53.842287 
L 87.22103 -54.759243 
L 87.134115 -55.617562 
L 87.047201 -56.423748 
L 86.960287 -57.184156 
L 86.873373 -57.904728 
L 86.786459 -58.590861 
L 86.699545 -59.247372 
L 86.612631 -59.878503 
L 86.525717 -60.487956 
L 86.438803 -61.078938 
L 86.351889 -61.654217 
L 86.264975 -62.216169 
L 86.178061 -62.76683 
L 86.091146 -63.307939 
L 86.004232 -63.84098 
L 85.917318 -64.367214 
L 85.830404 -64.887716 
L 85.74349 -65.4034 
L 85.656576 -65.915041 
L 85.569662 -66.423297 
L 85.482748 -66.928729 
L 85.395834 -67.431814 
L 85.30892 -67.932954 
L 85.222006 -68.432493 
L 85.135092 -68.930722 
L 85.048177 -69.427887 
L 84.961263 -69.924195 
L 84.874349 -70.419818 
L 84.787435 -70.914899 
L 84.700521 -71.409554 
L 84.613607 -71.903873 
L 84.526693 -72.397924 
L 84.439779 -72.891754 
L 84.352865 -73.385391 
L 84.265951 -73.878843 
L 84.179037 -74.372099 
L 84.092122 -74.865133 
L 84.005208 -75.357899 
L 83.918294 -75.850335 
L 83.83138 -76.342363 
L 83.744466 -76.833887 
L 83.657552 -77.324795 
L 83.570638 -77.814959 
L 83.483724 -78.304235 
L 83.39681 -78.79246 
L 83.309896 -79.279459 
L 83.222982 -79.765038 
L 83.136068 -80.248988 
L 83.049153 -80.731084 
L 82.962239 -81.211084 
L 82.875325 -81.688733 
L 82.788411 -82.16376 
L 82.701497 -82.635877 
L 82.614583 -83.104785 
L 82.527669 -83.570167 
L 82.440755 -84.031696 
L 82.353841 -84.48903 
L 82.266927 -84.941815 
L 82.180013 -85.389685 
L 82.093099 -85.832265 
L 82.006184 -86.269169 
L 81.91927 -86.700003 
L 81.832356 -87.124366 
L 81.745442 -87.541851 
L 81.658528 -87.952046 
L 81.571614 -88.354537 
L 81.4847 -88.748911 
L 81.397786 -89.134753 
L 81.310872 -89.511654 
L 81.223958 -89.87921 
L 81.137044 -90.237023 
L 81.05013 -90.58471 
L 80.963215 -90.921896 
L 80.876301 -91.248226 
L 80.789387 -91.563363 
L 80.702473 -91.86699 
L 80.615559 -92.158815 
L 80.528645 -92.438577 
L 80.441731 -92.70604 
L 80.354817 -92.961006 
L 80.267903 -93.20331 
L 80.180989 -93.432827 
L 80.094075 -93.649472 
L 80.007161 -93.853204 
L 79.920246 -94.044023 
L 79.833332 -94.221979 
L 79.746418 -94.387162 
L 79.659504 -94.53971 
L 79.57259 -94.679798 
L 79.485676 -94.807638 
L 79.398762 -94.92346 
L 79.311848 -95.027492 
L 79.224934 -95.119904 
L 79.13802 -95.200695 
L 79.051106 -95.269438 
L 78.964191 -95.324707 
L 78.877277 -95.36278 
L 78.790363 -95.374659 
L 78.703449 -95.34003 
L 78.616535 -95.216725 
L 78.529621 -94.925052 
L 78.442707 -94.332373 
L 78.355793 -93.255213 
L 78.268879 -91.50393 
L 78.181965 -88.973506 
L 78.095051 -85.727986 
L 78.008137 -82.002212 
L 77.921222 -78.112902 
L 77.834308 -74.350842 
L 77.747394 -70.917599 
L 77.66048 -67.914542 
L 77.573566 -65.361992 
L 77.486652 -63.227697 
L 77.399738 -61.453146 
L 77.312824 -59.972809 
L 77.22591 -58.725375 
L 77.138996 -57.65859 
L 77.052082 -56.730169 
L 76.965168 -55.906842 
L 76.878253 -55.162789 
L 76.791339 -54.478089 
L 76.704425 -53.837389 
L 76.617511 -53.228843 
L 76.530597 -52.643306 
L 76.443683 -52.073708 
L 76.356769 -51.514584 
L 76.269855 -50.961721 
L 76.182941 -50.411884 
L 76.096027 -49.862601 
L 76.009113 -49.312005 
L 75.922199 -48.758702 
L 75.835284 -48.201677 
L 75.74837 -47.640215 
L 75.661456 -47.073847 
L 75.574542 -46.502315 
L 75.487628 -45.925545 
L 75.400714 -45.343651 
L 75.3138 -44.756953 
L 75.226886 -44.16605 
L 75.139972 -43.57195 
L 75.053058 -42.976357 
L 74.966144 -42.382236 
L 74.87923 -41.794945 
L 74.792315 -41.22448 
L 74.705401 -40.689685 
L 74.618487 -40.225184 
L 74.531573 -39.888113 
L 74.444659 -39.742422 
z
"/>
    </defs>
    <g clip-path="url(#p736aaae91e)">
     <use xlink:href="#ma5542d6a2b" x="0" y="105.54375" style="fill: #4682b4; fill-opacity: 0.2"/>
    </g>
   </g>
   <g id="matplotlib.axis_1">
    <g id="xtick_1">
     <g id="line2d_1">
      <defs>
       <path id="m09035c9f97" d="M 0 0 
L 0 3.5 
" style="stroke: #000000; stroke-width: 1.5"/>
      </defs>
      <g>
       <use xlink:href="#m09035c9f97" x="74.444659" y="72.52" style="stroke: #000000; stroke-width: 1.5"/>
      </g>
     </g>
     <g id="text_1">
      <text style="font: 8px 'Arial', sans-serif, serif; text-anchor: middle" x="74.444659" y="85.24625" transform="rotate(-0 74.444659 85.24625)">0</text>
     </g>
    </g>
    <g id="xtick_2">
     <g id="line2d_2">
      <g>
       <use xlink:href="#m09035c9f97" x="109.210293" y="72.52" style="stroke: #000000; stroke-width: 1.5"/>
      </g>
     </g>
     <g id="text_2">
      <text style="font: 8px 'Arial', sans-serif, serif; text-anchor: middle" x="109.210293" y="85.24625" transform="rotate(-0 109.210293 85.24625)">10</text>
     </g>
    </g>
    <g id="xtick_3">
     <g id="line2d_3">
      <g>
       <use xlink:href="#m09035c9f97" x="143.975927" y="72.52" style="stroke: #000000; stroke-width: 1.5"/>
      </g>
     </g>
     <g id="text_3">
      <text style="font: 8px 'Arial', sans-serif, serif; text-anchor: middle" x="143.975927" y="85.24625" transform="rotate(-0 143.975927 85.24625)">20</text>
     </g>
    </g>
    <g id="text_4">
     <text style="font: 8px 'Arial', sans-serif, serif; text-anchor: middle" x="109.25375" y="96.66" transform="rotate(-0 109.25375 96.66)">Time (ms)</text>
    </g>
   </g>
   <g id="matplotlib.axis_2">
    <g id="ytick_1">
     <g id="line2d_4">
      <defs>
       <path id="me9d3107308" d="M 0 0 
L -3.5 0 
" style="stroke: #000000; stroke-width: 1.5"/>
      </defs>
      <g>
       <use xlink:href="#me9d3107308" x="70.96375" y="70.358238" style="stroke: #000000; stroke-width: 1.5"/>
      </g>
     </g>
     <g id="text_5">
      <text style="font: 8px 'Arial', sans-serif, serif; text-anchor: end" x="63.96375" y="73.221363" transform="rotate(-0 63.96375 73.221363)">−100</text>
     </g>
    </g>
    <g id="ytick_2">
     <g id="line2d_5">
      <g>
       <use xlink:href="#me9d3107308" x="70.96375" y="50.513146" style="stroke: #000000; stroke-width: 1.5"/>
      </g>
     </g>
     <g id="text_6">
      <text style="font: 8px 'Arial', sans-serif, serif; text-anchor: end" x="63.96375" y="53.376271" transform="rotate(-0 63.96375 53.376271)">−50</text>
     </g>
    </g>
    <g id="ytick_3">
     <g id="line2d_6">
      <g>
       <use xlink:href="#me9d3107308" x="70.96375" y="30.668055" style="stroke: #000000; stroke-width: 1.5"/>
      </g>
     </g>
     <g id="text_7">
      <text style="font: 8px 'Arial', sans-serif, serif; text-anchor: end" x="63.96375" y="33.53118" transform="rotate(-0 63.96375 33.53118)">0</text>
     </g>
    </g>
    <g id="ytick_4">
     <g id="line2d_7">
      <g>
       <use xlink:href="#me9d3107308" x="70.96375" y="10.822964" style="stroke: #000000; stroke-width: 1.5"/>
      </g>
     </g>
     <g id="text_8">
      <text style="font: 8px 'Arial', sans-serif, serif; text-anchor: end" x="63.96375" y="13.686089" transform="rotate(-0 63.96375 13.686089)">50</text>
     </g>
    </g>
    <g id="text_9">
     <text style="font: 8px 'Arial', sans-serif, serif; text-anchor: middle" x="40.26125" y="39.86" transform="rotate(-90 40.26125 39.86)">V (mV)</text>
    </g>
   </g>
   <g id="line2d_8">
    <path d="M 74.444659 65.801328 
L 74.618487 65.318629 
L 75.139972 61.97281 
L 77.138996 47.907343 
L 77.486652 42.369081 
L 77.834308 31.311593 
L 78.355793 12.349511 
L 78.616535 10.33909 
L 78.790363 10.172912 
L 79.051106 10.276966 
L 79.485676 10.742229 
L 80.007161 11.70344 
L 80.615559 13.408832 
L 81.310872 16.071104 
L 82.266927 20.661849 
L 84.092122 30.766919 
L 86.525717 45.193108 
L 87.134115 50.128321 
L 87.6556 56.366832 
L 88.437827 66.529913 
L 88.785483 68.396797 
L 89.133139 69.209442 
L 89.480796 69.495578 
L 89.828452 69.515939 
L 90.349937 69.302734 
L 91.219077 68.661897 
L 92.609703 67.32515 
L 94.521813 65.15035 
L 97.824548 60.969185 
L 100.692713 57.5017 
L 103.473963 54.201833 
L 104.25619 52.873352 
L 104.777675 51.592244 
L 105.212245 50.00389 
L 105.646815 47.454708 
L 105.994472 44.074708 
L 106.342128 38.554684 
L 106.863613 25.269908 
L 107.298183 16.667562 
L 107.558925 15.266232 
L 107.732754 15.207261 
L 107.993496 15.709574 
L 108.428066 17.266572 
L 109.210293 21.091424 
L 110.861661 30.627725 
L 113.382169 46.155533 
L 113.990568 51.503259 
L 114.598966 59.379572 
L 115.120451 65.754543 
L 115.468107 67.802048 
L 115.815763 68.717216 
L 116.16342 69.065247 
L 116.511076 69.121959 
L 117.032561 68.933519 
L 117.814787 68.368632 
L 119.118499 67.112944 
L 121.030608 64.924831 
L 125.028656 59.876044 
L 127.636079 56.825723 
L 129.808931 54.254568 
L 130.591158 52.986678 
L 131.199556 51.554138 
L 131.634127 50.007111 
L 132.068697 47.560185 
L 132.416354 44.366866 
L 132.76401 39.212242 
L 133.19858 28.960884 
L 133.720065 17.452836 
L 133.980807 15.657513 
L 134.154635 15.462121 
L 134.328463 15.674887 
L 134.67612 16.708921 
L 135.284518 19.426707 
L 136.414401 25.720862 
L 139.630223 45.276943 
L 140.238621 50.249114 
L 140.760106 56.312621 
L 141.542332 66.032201 
L 141.889989 67.883324 
L 142.237645 68.705674 
L 142.585301 69.009731 
L 142.932958 69.044128 
L 143.454442 68.838779 
L 144.062841 68.502985 
L 144.062841 68.502985 
" clip-path="url(#p736aaae91e)" style="fill: none; stroke: #4682b4; stroke-width: 1.5; stroke-linecap: square"/>
   </g>
   <g id="line2d_9">
    <path d="M 74.444659 65.801328 
L 74.618487 65.319096 
L 75.139972 61.980329 
L 77.22591 47.048682 
L 77.486652 42.749279 
L 77.834308 32.121454 
L 78.355793 12.770773 
L 78.616535 10.423432 
L 78.790363 10.196912 
L 79.051106 10.277716 
L 79.485676 10.726543 
L 80.007161 11.667163 
L 80.615559 13.346196 
L 81.310872 15.979233 
L 82.266927 20.537628 
L 84.092122 30.609434 
L 86.525717 44.954538 
L 87.134115 49.762531 
L 87.6556 55.76125 
L 88.524741 66.717544 
L 88.872397 68.414995 
L 89.220053 69.151501 
L 89.56771 69.403245 
L 90.00228 69.383764 
L 90.610679 69.069251 
L 91.653648 68.21407 
L 93.218101 66.60671 
L 95.390953 64.01815 
L 101.127283 56.990373 
L 103.473963 54.213334 
L 104.25619 52.915686 
L 104.864589 51.423317 
L 105.299159 49.781562 
L 105.73373 47.134115 
L 106.081386 43.621359 
L 106.429042 37.918878 
L 107.037441 22.385812 
L 107.385097 16.553494 
L 107.645839 15.341859 
L 107.819668 15.338472 
L 108.08041 15.883017 
L 108.51498 17.478083 
L 109.297207 21.340404 
L 111.035489 31.406398 
L 113.469083 46.43775 
L 114.077482 51.851665 
L 114.68588 59.742403 
L 115.207365 65.844462 
L 115.555021 67.765446 
L 115.902677 68.628008 
L 116.250334 68.954287 
L 116.59799 69.001074 
L 117.119475 68.805003 
L 117.901701 68.232133 
L 119.205413 66.964285 
L 121.117523 64.764587 
L 130.591158 53.042035 
L 131.199556 51.670942 
L 131.721041 49.846279 
L 132.155611 47.350924 
L 132.503268 44.100232 
L 132.850924 38.881264 
L 133.285494 28.645099 
L 133.806979 17.464563 
L 134.067721 15.760433 
L 134.241549 15.588632 
L 134.415378 15.813941 
L 134.763034 16.864528 
L 135.371432 19.604104 
L 136.501316 25.917838 
L 139.717137 45.471322 
L 140.325535 50.467594 
L 140.84702 56.539916 
L 141.629247 66.012182 
L 141.976903 67.794328 
L 142.324559 68.592638 
L 142.672216 68.888929 
L 143.019872 68.920631 
L 143.541356 68.712971 
L 144.062841 68.444166 
L 144.062841 68.444166 
" clip-path="url(#p736aaae91e)" style="fill: none; stroke-dasharray: 1.5,2.475; stroke-dashoffset: 0; stroke: #000000; stroke-width: 1.5"/>
   </g>
   <g id="patch_3">
    <path d="M 70.96375 72.52 
L 70.96375 7.2 
" style="fill: none; stroke: #000000; stroke-width: 1.5; stroke-linejoin: miter; stroke-linecap: square"/>
   </g>
   <g id="patch_4">
    <path d="M 70.96375 72.52 
L 147.54375 72.52 
" style="fill: none; stroke: #000000; stroke-width: 1.5; stroke-linejoin: miter; stroke-linecap: square"/>
   </g>
   <g id="legend_1">
    <g id="line2d_10">
     <path d="M 10.4 17.42375 
L 18.4 17.42375 
L 26.4 17.42375 
" style="fill: none; stroke: #4682b4; stroke-width: 1.5; stroke-linecap: square"/>
    </g>
    <g id="text_10">
     <text style="font: 8px 'Arial', sans-serif, serif; text-anchor: start" x="32.8" y="20.22375" transform="rotate(-0 32.8 20.22375)">Inferred voltage (mean ± 2SD)</text>
    </g>
    <g id="line2d_11">
     <path d="M 10.4 28.83375 
L 18.4 28.83375 
L 26.4 28.83375 
" style="fill: none; stroke-dasharray: 1.5,2.475; stroke-dashoffset: 0; stroke: #000000; stroke-width: 1.5"/>
    </g>
    <g id="text_11">
     <text style="font: 8px 'Arial', sans-serif, serif; text-anchor: start" x="32.8" y="31.63375" transform="rotate(-0 32.8 31.63375)">True voltage</text>
    </g>
    <g id="patch_5">
     <path d="M 10.4 43.04375 
L 26.4 43.04375 
L 26.4 37.44375 
L 10.4 37.44375 
z
" style="fill: #4682b4; fill-opacity: 0.2"/>
    </g>
    <g id="text_12">
     <text style="font: 8px 'Arial', sans-serif, serif; text-anchor: start" x="32.8" y="43.04375" transform="rotate(-0 32.8 43.04375)">±2SD</text>
    </g>
   </g>
  </g>
 </g>
 <defs>
  <clipPath id="p736aaae91e">
   <rect x="70.96375" y="7.2" width="76.58" height="65.32"/>
  </clipPath>
 </defs>
</svg>
