<?xml version="1.0" encoding="utf-8" standalone="no"?>
<!DOCTYPE svg PUBLIC "-//W3C//DTD SVG 1.1//EN"
  "http://www.w3.org/Graphics/SVG/1.1/DTD/svg11.dtd">
<svg xmlns:xlink="http://www.w3.org/1999/xlink" width="129.812992pt" height="105.54375pt" viewBox="0 0 129.812992 105.54375" xmlns="http://www.w3.org/2000/svg" version="1.1">
 <metadata>
  <rdf:RDF xmlns:dc="http://purl.org/dc/elements/1.1/" xmlns:cc="http://creativecommons.org/ns#" xmlns:rdf="http://www.w3.org/1999/02/22-rdf-syntax-ns#">
   <cc:Work>
    <dc:type rdf:resource="http://purl.org/dc/dcmitype/StillImage"/>
    <dc:date>2025-10-23T23:19:45.022515</dc:date>
    <dc:format>image/svg+xml</dc:format>
    <dc:creator>
     <cc:Agent>
      <dc:title>Matplotlib v3.9.2, https://matplotlib.org/</dc:title>
     </cc:Agent>
    </dc:creator>
   </cc:Work>
  </rdf:RDF>
 </metadata>
 <defs>
  <style type="text/css">*{stroke-linejoin: round; stroke-linecap: butt}</style>
 </defs>
 <g id="figure_1">
  <g id="patch_1">
   <path d="M 0 105.54375 
L 129.812992 105.54375 
L 129.812992 0 
L 0 0 
z
" style="fill: #ffffff"/>
  </g>
  <g id="axes_1">
   <g id="patch_2">
    <path d="M 39.2775 72.52 
L 122.1175 72.52 
L 122.1175 7.2 
L 39.2775 7.2 
z
" style="fill: #ffffff"/>
   </g>
   <g id="matplotlib.axis_1">
    <g id="xtick_1">
     <g id="line2d_1">
      <defs>
       <path id="mcf318c80c1" d="M 0 0 
L 0 3.5 
" style="stroke: #000000; stroke-width: 1.5"/>
      </defs>
      <g>
       <use xlink:href="#mcf318c80c1" x="43.042955" y="72.52" style="stroke: #000000; stroke-width: 1.5"/>
      </g>
     </g>
     <g id="text_1">
      <text style="font: 8px 'Arial', sans-serif, serif; text-anchor: middle" x="43.042955" y="85.24625" transform="rotate(-0 43.042955 85.24625)">0</text>
     </g>
    </g>
    <g id="xtick_2">
     <g id="line2d_2">
      <g>
       <use xlink:href="#mcf318c80c1" x="80.603598" y="72.52" style="stroke: #000000; stroke-width: 1.5"/>
      </g>
     </g>
     <g id="text_2">
      <text style="font: 8px 'Arial', sans-serif, serif; text-anchor: middle" x="80.603598" y="85.24625" transform="rotate(-0 80.603598 85.24625)">5</text>
     </g>
    </g>
    <g id="xtick_3">
     <g id="line2d_3">
      <g>
       <use xlink:href="#mcf318c80c1" x="118.164242" y="72.52" style="stroke: #000000; stroke-width: 1.5"/>
      </g>
     </g>
     <g id="text_3">
      <text style="font: 8px 'Arial', sans-serif, serif; text-anchor: middle" x="118.164242" y="85.24625" transform="rotate(-0 118.164242 85.24625)">10</text>
     </g>
    </g>
    <g id="text_4">
     <text style="font: 8px 'Arial', sans-serif, serif; text-anchor: middle" x="80.6975" y="96.66" transform="rotate(-0 80.6975 96.66)">Time (ms)</text>
    </g>
   </g>
   <g id="matplotlib.axis_2">
    <g id="ytick_1">
     <g id="line2d_4">
      <defs>
       <path id="m7aeef41f0c" d="M 0 0 
L -3.5 0 
" style="stroke: #000000; stroke-width: 1.5"/>
      </defs>
      <g>
       <use xlink:href="#m7aeef41f0c" x="39.2775" y="58.357481" style="stroke: #000000; stroke-width: 1.5"/>
      </g>
     </g>
     <g id="text_5">
      <text style="font: 8px 'Arial', sans-serif, serif; text-anchor: end" x="32.2775" y="61.220606" transform="rotate(-0 32.2775 61.220606)">−50</text>
     </g>
    </g>
    <g id="ytick_2">
     <g id="line2d_5">
      <g>
       <use xlink:href="#m7aeef41f0c" x="39.2775" y="39.727474" style="stroke: #000000; stroke-width: 1.5"/>
      </g>
     </g>
     <g id="text_6">
      <text style="font: 8px 'Arial', sans-serif, serif; text-anchor: end" x="32.2775" y="42.590599" transform="rotate(-0 32.2775 42.590599)">−25</text>
     </g>
    </g>
    <g id="ytick_3">
     <g id="line2d_6">
      <g>
       <use xlink:href="#m7aeef41f0c" x="39.2775" y="21.097468" style="stroke: #000000; stroke-width: 1.5"/>
      </g>
     </g>
     <g id="text_7">
      <text style="font: 8px 'Arial', sans-serif, serif; text-anchor: end" x="32.2775" y="23.960593" transform="rotate(-0 32.2775 23.960593)">0</text>
     </g>
    </g>
    <g id="text_8">
     <text style="font: 8px 'Arial', sans-serif, serif; text-anchor: middle" x="13.02375" y="39.86" transform="rotate(-90 13.02375 39.86)">V (mV)</text>
    </g>
   </g>
   <g id="line2d_7">
    <path d="M 43.042955 69.550909 
L 43.794167 69.229189 
L 46.423412 68.511689 
L 61.259867 64.741888 
L 64.452522 63.613419 
L 66.70616 62.586649 
L 68.396389 61.572532 
L 69.711012 60.506893 
L 70.650028 59.464829 
L 71.401241 58.311616 
L 71.96465 57.097083 
L 72.52806 55.281028 
L 72.903666 53.380807 
L 73.279273 50.224059 
L 73.654879 43.946806 
L 74.593895 19.420536 
L 74.781699 19.963844 
L 75.157305 25.066295 
L 76.284124 46.23025 
L 76.847534 52.753578 
L 77.410944 57.312439 
L 77.974353 60.284546 
L 78.537763 62.092113 
L 79.101173 63.15196 
L 79.664582 63.754108 
L 80.227992 64.077566 
L 80.979205 64.25331 
L 81.918221 64.244099 
L 83.420647 63.965856 
L 85.298679 63.376803 
L 87.176711 62.574432 
L 88.86694 61.610149 
L 90.181563 60.590374 
L 91.120579 59.59835 
L 91.871792 58.513411 
L 92.435201 57.390562 
L 92.998611 55.756976 
L 93.374217 54.110784 
L 93.749824 51.511395 
L 94.12543 46.67257 
L 94.501037 36.37981 
L 94.876643 23.355855 
L 95.064446 20.264976 
L 95.252249 19.527569 
L 95.440053 20.573813 
L 95.815659 26.280456 
L 96.754675 44.373116 
L 97.318085 51.440931 
L 97.881495 56.394187 
L 98.444904 59.692541 
L 99.008314 61.725622 
L 99.571724 62.926786 
L 100.135133 63.615339 
L 100.698543 63.99192 
L 101.449756 64.208962 
L 102.388772 64.226717 
L 103.703394 64.012608 
L 105.581427 63.45732 
L 107.459459 62.685668 
L 109.149688 61.76185 
L 110.46431 60.79741 
L 111.403326 59.876265 
L 112.154539 58.892475 
L 112.905752 57.501097 
L 113.469162 55.92673 
L 113.844768 54.360311 
L 114.220375 51.928441 
L 114.595981 47.50861 
L 114.971588 38.117197 
L 115.534997 20.811755 
L 115.7228 19.530442 
L 115.910604 20.164838 
L 116.28621 25.366032 
L 117.413029 46.379819 
L 117.976439 52.837529 
L 118.352045 56.144778 
L 118.352045 56.144778 
" clip-path="url(#pd966b0b020)" style="fill: none; stroke: #4682b4; stroke-width: 1.5; stroke-linecap: square"/>
   </g>
   <g id="line2d_8">
    <path d="M 43.042955 69.550909 
L 43.794167 69.227506 
L 46.423412 68.497214 
L 57.691606 65.542116 
L 60.696457 64.486145 
L 62.950096 63.459942 
L 64.452522 62.556453 
L 65.579341 61.661373 
L 66.518357 60.651594 
L 67.26957 59.515467 
L 67.832979 58.287281 
L 68.396389 56.360432 
L 68.771996 54.175575 
L 69.147602 49.985831 
L 69.335405 45.956426 
L 69.523208 38.930369 
L 70.086618 11.401246 
L 70.274421 10.1898 
L 70.462225 12.124154 
L 70.837831 22.340238 
L 71.589044 45.237331 
L 72.152454 55.422838 
L 72.715863 62.005312 
L 73.279273 65.638183 
L 73.842682 67.529055 
L 74.406092 68.500011 
L 74.969502 68.985214 
L 75.720715 69.248941 
L 76.659731 69.293113 
L 78.34996 69.087368 
L 82.106024 68.333846 
L 88.86694 66.751547 
L 93.374217 65.48609 
L 96.379069 64.423174 
L 98.444904 63.480462 
L 99.94733 62.585967 
L 101.074149 61.70227 
L 102.013165 60.709462 
L 102.764378 59.599224 
L 103.327788 58.409095 
L 103.891198 56.567466 
L 104.266804 54.521872 
L 104.64241 50.723612 
L 104.830214 47.186452 
L 105.018017 41.100401 
L 105.581427 12.333028 
L 105.76923 10.169091 
L 105.957033 11.382543 
L 106.332639 20.757816 
L 107.083852 44.151677 
L 107.647262 54.704462 
L 108.210672 61.573061 
L 108.774081 65.406127 
L 109.337491 67.405163 
L 109.900901 68.433312 
L 110.46431 68.949407 
L 111.02772 69.190891 
L 111.966736 69.293072 
L 113.469162 69.148858 
L 116.661816 68.538879 
L 118.352045 68.283327 
L 118.352045 68.283327 
" clip-path="url(#pd966b0b020)" style="fill: none; stroke: #008000; stroke-width: 1.5; stroke-linecap: square"/>
   </g>
   <g id="line2d_9">
    <path d="M 43.042955 69.550909 
L 43.794167 69.229052 
L 46.423412 68.510491 
L 61.072064 64.781876 
L 64.264718 63.657732 
L 66.518357 62.638227 
L 68.208586 61.635342 
L 69.523208 60.587024 
L 70.462225 59.56868 
L 71.213437 58.451194 
L 71.776847 57.286914 
L 72.340257 55.573573 
L 72.715863 53.818692 
L 73.09147 50.984512 
L 73.467076 45.538358 
L 73.842682 34.059015 
L 74.218289 21.920584 
L 74.406092 19.625629 
L 74.593895 19.499432 
L 74.781699 21.014564 
L 75.157305 27.295185 
L 76.096321 45.204549 
L 76.659731 52.034098 
L 77.22314 56.814587 
L 77.78655 59.96635 
L 78.34996 61.895986 
L 78.913369 63.03147 
L 79.476779 63.679268 
L 80.040189 64.030219 
L 80.791402 64.226585 
L 81.730418 64.229846 
L 83.04504 64.004475 
L 84.923072 63.438429 
L 86.801105 62.655165 
L 88.491334 61.715408 
L 89.805956 60.729386 
L 90.744972 59.781086 
L 91.496185 58.759239 
L 92.247398 57.293923 
L 92.810808 55.600762 
L 93.186414 53.872597 
L 93.562021 51.096525 
L 93.937627 45.804938 
L 94.313233 34.630534 
L 94.68884 22.298039 
L 94.876643 19.83372 
L 95.064446 19.577012 
L 95.252249 20.989722 
L 95.627856 27.133961 
L 96.566872 45.028029 
L 97.130282 51.889706 
L 97.693691 56.697807 
L 98.257101 59.877907 
L 98.820511 61.829472 
L 99.38392 62.97952 
L 99.94733 63.63665 
L 100.51074 63.993634 
L 101.261953 64.194794 
L 102.200969 64.200855 
L 103.515591 63.97618 
L 105.393623 63.40753 
L 107.271656 62.617953 
L 108.961884 61.667229 
L 110.276507 60.665 
L 111.215523 59.695443 
L 111.966736 58.642982 
L 112.530146 57.564164 
L 113.093555 56.016491 
L 113.469162 54.485452 
L 113.844768 52.126209 
L 114.220375 47.883193 
L 114.595981 38.885687 
L 115.159391 21.065338 
L 115.347194 19.513177 
L 115.534997 19.945344 
L 115.910604 24.898592 
L 117.037423 46.045287 
L 117.600833 52.597817 
L 118.164242 57.182873 
L 118.352045 58.448236 
L 118.352045 58.448236 
" clip-path="url(#pd966b0b020)" style="fill: none; stroke-dasharray: 1.5,2.475; stroke-dashoffset: 0; stroke: #000000; stroke-width: 1.5"/>
   </g>
   <g id="patch_3">
    <path d="M 39.2775 72.52 
L 39.2775 7.2 
" style="fill: none; stroke: #000000; stroke-width: 1.5; stroke-linejoin: miter; stroke-linecap: square"/>
   </g>
   <g id="patch_4">
    <path d="M 39.2775 72.52 
L 122.1175 72.52 
" style="fill: none; stroke: #000000; stroke-width: 1.5; stroke-linejoin: miter; stroke-linecap: square"/>
   </g>
   <g id="legend_1">
    <g id="line2d_10">
     <path d="M 36.9325 17.42375 
L 44.9325 17.42375 
L 52.9325 17.42375 
" style="fill: none; stroke: #4682b4; stroke-width: 1.5; stroke-linecap: square"/>
    </g>
    <g id="text_9">
     <text style="font: 8px 'Arial', sans-serif, serif; text-anchor: start" x="59.3325" y="20.22375" transform="rotate(-0 59.3325 20.22375)">Inferred voltage</text>
    </g>
    <g id="line2d_11">
     <path d="M 36.9325 28.83375 
L 44.9325 28.83375 
L 52.9325 28.83375 
" style="fill: none; stroke: #008000; stroke-width: 1.5; stroke-linecap: square"/>
    </g>
    <g id="text_10">
     <text style="font: 8px 'Arial', sans-serif, serif; text-anchor: start" x="59.3325" y="31.63375" transform="rotate(-0 59.3325 31.63375)">Initial guess</text>
    </g>
    <g id="line2d_12">
     <path d="M 36.9325 40.24375 
L 44.9325 40.24375 
L 52.9325 40.24375 
" style="fill: none; stroke-dasharray: 1.5,2.475; stroke-dashoffset: 0; stroke: #000000; stroke-width: 1.5"/>
    </g>
    <g id="text_11">
     <text style="font: 8px 'Arial', sans-serif, serif; text-anchor: start" x="59.3325" y="43.04375" transform="rotate(-0 59.3325 43.04375)">True voltage</text>
    </g>
   </g>
  </g>
 </g>
 <defs>
  <clipPath id="pd966b0b020">
   <rect x="39.2775" y="7.2" width="82.84" height="65.32"/>
  </clipPath>
 </defs>
</svg>
