<?xml version="1.0" encoding="utf-8" standalone="no"?>
<!DOCTYPE svg PUBLIC "-//W3C//DTD SVG 1.1//EN"
  "http://www.w3.org/Graphics/SVG/1.1/DTD/svg11.dtd">
<svg xmlns:xlink="http://www.w3.org/1999/xlink" width="155.624677pt" height="105.54375pt" viewBox="0 0 155.624677 105.54375" xmlns="http://www.w3.org/2000/svg" version="1.1">
 <metadata>
  <rdf:RDF xmlns:dc="http://purl.org/dc/elements/1.1/" xmlns:cc="http://creativecommons.org/ns#" xmlns:rdf="http://www.w3.org/1999/02/22-rdf-syntax-ns#">
   <cc:Work>
    <dc:type rdf:resource="http://purl.org/dc/dcmitype/StillImage"/>
    <dc:date>2025-10-25T23:51:48.257628</dc:date>
    <dc:format>image/svg+xml</dc:format>
    <dc:creator>
     <cc:Agent>
      <dc:title>Matplotlib v3.9.2, https://matplotlib.org/</dc:title>
     </cc:Agent>
    </dc:creator>
   </cc:Work>
  </rdf:RDF>
 </metadata>
 <defs>
  <style type="text/css">*{stroke-linejoin: round; stroke-linecap: butt}</style>
 </defs>
 <g id="figure_1">
  <g id="patch_1">
   <path d="M 0 105.54375 
L 155.624677 105.54375 
L 155.624677 0 
L 0 0 
z
" style="fill: #ffffff"/>
  </g>
  <g id="axes_1">
   <g id="patch_2">
    <path d="M 70.96375 72.52 
L 147.54375 72.52 
L 147.54375 7.2 
L 70.96375 7.2 
z
" style="fill: #ffffff"/>
   </g>
   <g id="matplotlib.axis_1">
    <g id="xtick_1">
     <g id="line2d_1">
      <defs>
       <path id="m4772de9cc5" d="M 0 0 
L 0 3.5 
" style="stroke: #000000; stroke-width: 1.5"/>
      </defs>
      <g>
       <use xlink:href="#m4772de9cc5" x="74.444659" y="72.52" style="stroke: #000000; stroke-width: 1.5"/>
      </g>
     </g>
     <g id="text_1">
      <text style="font: 8px 'Arial', sans-serif, serif; text-anchor: middle" x="74.444659" y="85.24625" transform="rotate(-0 74.444659 85.24625)">0</text>
     </g>
    </g>
    <g id="xtick_2">
     <g id="line2d_2">
      <g>
       <use xlink:href="#m4772de9cc5" x="109.210293" y="72.52" style="stroke: #000000; stroke-width: 1.5"/>
      </g>
     </g>
     <g id="text_2">
      <text style="font: 8px 'Arial', sans-serif, serif; text-anchor: middle" x="109.210293" y="85.24625" transform="rotate(-0 109.210293 85.24625)">10</text>
     </g>
    </g>
    <g id="xtick_3">
     <g id="line2d_3">
      <g>
       <use xlink:href="#m4772de9cc5" x="143.975927" y="72.52" style="stroke: #000000; stroke-width: 1.5"/>
      </g>
     </g>
     <g id="text_3">
      <text style="font: 8px 'Arial', sans-serif, serif; text-anchor: middle" x="143.975927" y="85.24625" transform="rotate(-0 143.975927 85.24625)">20</text>
     </g>
    </g>
    <g id="text_4">
     <text style="font: 8px 'Arial', sans-serif, serif; text-anchor: middle" x="109.25375" y="96.66" transform="rotate(-0 109.25375 96.66)">Time (ms)</text>
    </g>
   </g>
   <g id="matplotlib.axis_2">
    <g id="ytick_1">
     <g id="line2d_4">
      <defs>
       <path id="m116d92d1de" d="M 0 0 
L -3.5 0 
" style="stroke: #000000; stroke-width: 1.5"/>
      </defs>
      <g>
       <use xlink:href="#m116d92d1de" x="70.96375" y="71.84498" style="stroke: #000000; stroke-width: 1.5"/>
      </g>
     </g>
     <g id="text_5">
      <text style="font: 8px 'Arial', sans-serif, serif; text-anchor: end" x="63.96375" y="74.708105" transform="rotate(-0 63.96375 74.708105)">−100</text>
     </g>
    </g>
    <g id="ytick_2">
     <g id="line2d_5">
      <g>
       <use xlink:href="#m116d92d1de" x="70.96375" y="51.403428" style="stroke: #000000; stroke-width: 1.5"/>
      </g>
     </g>
     <g id="text_6">
      <text style="font: 8px 'Arial', sans-serif, serif; text-anchor: end" x="63.96375" y="54.266553" transform="rotate(-0 63.96375 54.266553)">−50</text>
     </g>
    </g>
    <g id="ytick_3">
     <g id="line2d_6">
      <g>
       <use xlink:href="#m116d92d1de" x="70.96375" y="30.961875" style="stroke: #000000; stroke-width: 1.5"/>
      </g>
     </g>
     <g id="text_7">
      <text style="font: 8px 'Arial', sans-serif, serif; text-anchor: end" x="63.96375" y="33.825" transform="rotate(-0 63.96375 33.825)">0</text>
     </g>
    </g>
    <g id="ytick_4">
     <g id="line2d_7">
      <g>
       <use xlink:href="#m116d92d1de" x="70.96375" y="10.520323" style="stroke: #000000; stroke-width: 1.5"/>
      </g>
     </g>
     <g id="text_8">
      <text style="font: 8px 'Arial', sans-serif, serif; text-anchor: end" x="63.96375" y="13.383448" transform="rotate(-0 63.96375 13.383448)">50</text>
     </g>
    </g>
    <g id="text_9">
     <text style="font: 8px 'Arial', sans-serif, serif; text-anchor: middle" x="40.26125" y="39.86" transform="rotate(-90 40.26125 39.86)">V (mV)</text>
    </g>
   </g>
   <g id="line2d_8">
    <path d="M 74.444659 67.151109 
L 74.792315 64.889756 
L 75.400714 61.736721 
L 76.356769 58.185845 
L 77.486652 53.8772 
L 77.921222 51.40797 
L 78.268879 48.30842 
L 78.616535 43.099567 
L 79.051106 32.599186 
L 79.833332 13.432978 
L 80.094075 10.930989 
L 80.354817 10.202345 
L 80.528645 10.194079 
L 80.789387 10.477753 
L 81.223958 11.33799 
L 81.832356 13.15714 
L 82.527669 16.003694 
L 83.570638 21.32162 
L 86.873373 40.07292 
L 87.829428 46.270824 
L 88.698569 53.774089 
L 89.741538 62.418266 
L 90.349937 65.445986 
L 91.045249 67.771297 
L 91.566734 68.88709 
L 92.001304 69.359838 
L 92.435875 69.537253 
L 92.957359 69.508618 
L 93.652672 69.236777 
L 94.695641 68.569844 
L 96.260094 67.276948 
L 98.346032 65.249138 
L 101.648768 61.684425 
L 107.732754 54.833822 
L 108.51498 53.534451 
L 109.123379 52.131264 
L 109.644863 50.374635 
L 110.079434 48.190332 
L 110.514004 44.890728 
L 110.948575 39.91207 
L 111.470059 31.232511 
L 112.252286 17.623316 
L 112.513028 15.841099 
L 112.686856 15.488167 
L 112.860685 15.591381 
L 113.121427 16.272899 
L 113.642911 18.529021 
L 114.68588 24.27956 
L 119.031585 50.223639 
L 120.769866 63.84181 
L 121.465179 66.502949 
L 122.073577 68.178024 
L 122.508148 68.887928 
L 122.942718 69.23302 
L 123.464203 69.328811 
L 124.072601 69.183249 
L 124.941742 68.720482 
L 126.245454 67.746197 
L 128.070649 66.088231 
L 130.678072 63.389194 
L 137.978855 55.352825 
L 138.93491 53.935667 
L 139.630223 52.508364 
L 140.151707 50.969942 
L 140.673192 48.653636 
L 141.107762 45.679601 
L 141.542332 41.207152 
L 142.063817 33.259209 
L 143.019872 17.342077 
L 143.280614 15.902255 
L 143.454442 15.690633 
L 143.62827 15.884871 
L 143.975927 16.984834 
L 144.062841 17.569265 
L 144.062841 17.569265 
" clip-path="url(#pe0d260c9c4)" style="fill: none; stroke: #ff8c00; stroke-width: 1.5; stroke-linecap: square"/>
   </g>
   <g id="line2d_9">
    <path d="M 74.444659 67.151109 
L 74.792315 64.892238 
L 75.400714 61.747014 
L 76.356769 58.210711 
L 77.486652 53.931784 
L 77.921222 51.491198 
L 78.268879 48.437595 
L 78.616535 43.306723 
L 79.051106 32.895422 
L 79.833332 13.68395 
L 80.094075 11.05407 
L 80.354817 10.238797 
L 80.528645 10.202335 
L 80.789387 10.465394 
L 81.223958 11.305237 
L 81.745442 12.799193 
L 82.440755 15.521879 
L 83.39681 20.257232 
L 85.74349 33.482394 
L 87.742514 45.427023 
L 88.524741 51.904194 
L 89.741538 62.247411 
L 90.263023 64.993867 
L 90.958335 67.458681 
L 91.47982 68.688139 
L 91.91439 69.242309 
L 92.348961 69.47508 
L 92.870445 69.487685 
L 93.565758 69.246567 
L 94.608727 68.602263 
L 96.086266 67.40259 
L 98.172204 65.398311 
L 101.388025 61.948405 
L 107.732754 54.841518 
L 108.51498 53.550649 
L 109.123379 52.159161 
L 109.644863 50.420581 
L 110.079434 48.261868 
L 110.514004 45.001903 
L 110.948575 40.078014 
L 111.470059 31.484996 
L 112.252286 17.788101 
L 112.513028 15.90851 
L 112.686856 15.507525 
L 112.860685 15.577665 
L 113.121427 16.22938 
L 113.642911 18.45736 
L 114.68588 24.186764 
L 119.031585 50.063113 
L 120.85678 64.165991 
L 121.552093 66.734437 
L 122.160492 68.312133 
L 122.595062 68.938143 
L 123.029632 69.223645 
L 123.551117 69.276788 
L 124.159516 69.10418 
L 125.11557 68.563327 
L 126.506196 67.483721 
L 128.418306 65.702535 
L 131.28647 62.688482 
L 138.326511 54.873875 
L 139.195652 53.455715 
L 139.804051 52.062512 
L 140.325535 50.329537 
L 140.760106 48.191974 
L 141.194676 44.987969 
L 141.629247 40.173899 
L 142.150731 31.750774 
L 143.019872 17.200818 
L 143.280614 15.796673 
L 143.454442 15.615372 
L 143.62827 15.833471 
L 143.975927 16.957236 
L 144.062841 17.543895 
L 144.062841 17.543895 
" clip-path="url(#pe0d260c9c4)" style="fill: none; stroke-dasharray: 1.5,2.475; stroke-dashoffset: 0; stroke: #000000; stroke-width: 1.5"/>
   </g>
   <g id="patch_3">
    <path d="M 70.96375 72.52 
L 70.96375 7.2 
" style="fill: none; stroke: #000000; stroke-width: 1.5; stroke-linejoin: miter; stroke-linecap: square"/>
   </g>
   <g id="patch_4">
    <path d="M 70.96375 72.52 
L 147.54375 72.52 
" style="fill: none; stroke: #000000; stroke-width: 1.5; stroke-linejoin: miter; stroke-linecap: square"/>
   </g>
   <g id="legend_1">
    <g id="line2d_10">
     <path d="M 10.4 17.42375 
L 18.4 17.42375 
L 26.4 17.42375 
" style="fill: none; stroke: #ff8c00; stroke-width: 1.5; stroke-linecap: square"/>
    </g>
    <g id="text_10">
     <text style="font: 8px 'Arial', sans-serif, serif; text-anchor: start" x="32.8" y="20.22375" transform="rotate(-0 32.8 20.22375)">Inferred voltage (mean ± 2SD)</text>
    </g>
    <g id="line2d_11">
     <path d="M 10.4 28.83375 
L 18.4 28.83375 
L 26.4 28.83375 
" style="fill: none; stroke-dasharray: 1.5,2.475; stroke-dashoffset: 0; stroke: #000000; stroke-width: 1.5"/>
    </g>
    <g id="text_11">
     <text style="font: 8px 'Arial', sans-serif, serif; text-anchor: start" x="32.8" y="31.63375" transform="rotate(-0 32.8 31.63375)">True voltage</text>
    </g>
   </g>
  </g>
 </g>
 <defs>
  <clipPath id="pe0d260c9c4">
   <rect x="70.96375" y="7.2" width="76.58" height="65.32"/>
  </clipPath>
 </defs>
</svg>
