<?xml version="1.0" encoding="utf-8" standalone="no"?>
<!DOCTYPE svg PUBLIC "-//W3C//DTD SVG 1.1//EN"
  "http://www.w3.org/Graphics/SVG/1.1/DTD/svg11.dtd">
<svg xmlns:xlink="http://www.w3.org/1999/xlink" width="129.812992pt" height="103.748074pt" viewBox="0 0 129.812992 103.748074" xmlns="http://www.w3.org/2000/svg" version="1.1">
 <metadata>
  <rdf:RDF xmlns:dc="http://purl.org/dc/elements/1.1/" xmlns:cc="http://creativecommons.org/ns#" xmlns:rdf="http://www.w3.org/1999/02/22-rdf-syntax-ns#">
   <cc:Work>
    <dc:type rdf:resource="http://purl.org/dc/dcmitype/StillImage"/>
    <dc:date>2025-10-24T02:34:36.561214</dc:date>
    <dc:format>image/svg+xml</dc:format>
    <dc:creator>
     <cc:Agent>
      <dc:title>Matplotlib v3.9.2, https://matplotlib.org/</dc:title>
     </cc:Agent>
    </dc:creator>
   </cc:Work>
  </rdf:RDF>
 </metadata>
 <defs>
  <style type="text/css">*{stroke-linejoin: round; stroke-linecap: butt}</style>
 </defs>
 <g id="figure_1">
  <g id="patch_1">
   <path d="M 0 103.748074 
L 129.812992 103.748074 
L 129.812992 0 
L 0 0 
z
" style="fill: #ffffff"/>
  </g>
  <g id="axes_1">
   <g id="patch_2">
    <path d="M 39.2775 70.724324 
L 122.1175 70.724324 
L 122.1175 7.2 
L 39.2775 7.2 
z
" style="fill: #ffffff"/>
   </g>
   <g id="matplotlib.axis_1">
    <g id="xtick_1">
     <g id="line2d_1">
      <defs>
       <path id="m33d93fda34" d="M 0 0 
L 0 3.5 
" style="stroke: #000000; stroke-width: 1.5"/>
      </defs>
      <g>
       <use xlink:href="#m33d93fda34" x="43.042955" y="70.724324" style="stroke: #000000; stroke-width: 1.5"/>
      </g>
     </g>
     <g id="text_1">
      <text style="font: 8px 'Arial', sans-serif, serif; text-anchor: middle" x="43.042955" y="83.450574" transform="rotate(-0 43.042955 83.450574)">0</text>
     </g>
    </g>
    <g id="xtick_2">
     <g id="line2d_2">
      <g>
       <use xlink:href="#m33d93fda34" x="80.603598" y="70.724324" style="stroke: #000000; stroke-width: 1.5"/>
      </g>
     </g>
     <g id="text_2">
      <text style="font: 8px 'Arial', sans-serif, serif; text-anchor: middle" x="80.603598" y="83.450574" transform="rotate(-0 80.603598 83.450574)">5</text>
     </g>
    </g>
    <g id="xtick_3">
     <g id="line2d_3">
      <g>
       <use xlink:href="#m33d93fda34" x="118.164242" y="70.724324" style="stroke: #000000; stroke-width: 1.5"/>
      </g>
     </g>
     <g id="text_3">
      <text style="font: 8px 'Arial', sans-serif, serif; text-anchor: middle" x="118.164242" y="83.450574" transform="rotate(-0 118.164242 83.450574)">10</text>
     </g>
    </g>
    <g id="text_4">
     <text style="font: 8px 'Arial', sans-serif, serif; text-anchor: middle" x="80.6975" y="94.864324" transform="rotate(-0 80.6975 94.864324)">Time (ms)</text>
    </g>
   </g>
   <g id="matplotlib.axis_2">
    <g id="ytick_1">
     <g id="line2d_4">
      <defs>
       <path id="m359b8e33a6" d="M 0 0 
L -3.5 0 
" style="stroke: #000000; stroke-width: 1.5"/>
      </defs>
      <g>
       <use xlink:href="#m359b8e33a6" x="39.2775" y="56.62316" style="stroke: #000000; stroke-width: 1.5"/>
      </g>
     </g>
     <g id="text_5">
      <text style="font: 8px 'Arial', sans-serif, serif; text-anchor: end" x="32.2775" y="59.486285" transform="rotate(-0 32.2775 59.486285)">−50</text>
     </g>
    </g>
    <g id="ytick_2">
     <g id="line2d_5">
      <g>
       <use xlink:href="#m359b8e33a6" x="39.2775" y="21.912541" style="stroke: #000000; stroke-width: 1.5"/>
      </g>
     </g>
     <g id="text_6">
      <text style="font: 8px 'Arial', sans-serif, serif; text-anchor: end" x="32.2775" y="24.775666" transform="rotate(-0 32.2775 24.775666)">0</text>
     </g>
    </g>
    <g id="text_7">
     <text style="font: 8px 'Arial', sans-serif, serif; text-anchor: middle" x="13.02375" y="38.962162" transform="rotate(-90 13.02375 38.962162)">V (mV)</text>
    </g>
   </g>
   <g id="line2d_6">
    <path d="M 43.042955 67.050714 
L 44.920987 66.920142 
L 47.925838 66.461794 
L 53.559935 65.343786 
L 59.569638 63.943273 
L 63.513505 62.809664 
L 66.142751 61.847664 
L 68.208586 60.856519 
L 69.711012 59.879761 
L 70.837831 58.867259 
L 71.589044 57.935785 
L 72.340257 56.592463 
L 72.903666 55.010875 
L 73.279273 53.338363 
L 73.654879 50.465843 
L 74.030486 44.281196 
L 74.406092 30.405755 
L 74.781699 19.125459 
L 74.969502 18.078874 
L 75.157305 19.174967 
L 75.532911 25.511765 
L 76.471928 44.631746 
L 77.035337 51.676855 
L 77.598747 56.449972 
L 78.162157 59.428567 
L 78.725566 61.159507 
L 79.288976 62.132863 
L 79.852386 62.663238 
L 80.603598 62.986448 
L 81.542614 63.071667 
L 82.857237 62.919314 
L 84.735269 62.457444 
L 86.988908 61.667139 
L 88.86694 60.775435 
L 90.181563 59.940854 
L 91.308382 58.973134 
L 92.059595 58.09215 
L 92.810808 56.845044 
L 93.374217 55.421996 
L 93.749824 53.978545 
L 94.12543 51.645769 
L 94.501037 47.023607 
L 94.876643 36.082599 
L 95.252249 21.593977 
L 95.440053 18.625009 
L 95.627856 18.330858 
L 95.815659 19.971628 
L 96.191266 26.890411 
L 96.942478 42.595064 
L 97.505888 50.28578 
L 98.069298 55.511338 
L 98.632707 58.851159 
L 99.196117 60.816846 
L 99.759527 61.930078 
L 100.322936 62.542451 
L 100.886346 62.86186 
L 101.637559 63.029881 
L 102.764378 62.99932 
L 104.454607 62.671147 
L 106.520443 62.040914 
L 108.586278 61.186299 
L 110.088704 60.356977 
L 111.403326 59.374006 
L 112.342342 58.396965 
L 113.093555 57.292832 
L 113.656965 56.093737 
L 114.220375 54.198386 
L 114.595981 52.025871 
L 114.971588 47.849751 
L 115.347194 38.012089 
L 115.7228 22.896661 
L 115.910604 19.099242 
L 116.098407 18.200803 
L 116.28621 19.401843 
L 116.661816 25.839962 
L 117.600833 44.807282 
L 118.164242 51.775202 
L 118.352045 53.574273 
L 118.352045 53.574273 
" clip-path="url(#p804e46dcd6)" style="fill: none; stroke: #4682b4; stroke-width: 1.5; stroke-linecap: square"/>
   </g>
   <g id="line2d_7">
    <path d="M 43.042955 67.050714 
L 44.920987 66.908023 
L 47.925838 66.42981 
L 52.996525 65.375546 
L 57.879409 64.150847 
L 61.072064 63.143313 
L 63.325702 62.222927 
L 65.015931 61.30387 
L 66.142751 60.480796 
L 67.081767 59.547935 
L 67.832979 58.487087 
L 68.396389 57.315879 
L 68.771996 56.166743 
L 69.147602 54.369878 
L 69.523208 50.831794 
L 69.711012 47.269604 
L 69.898815 40.84955 
L 70.462225 11.347822 
L 70.650028 10.181898 
L 70.837831 12.695307 
L 71.213437 24.546952 
L 71.776847 43.280059 
L 72.340257 54.574844 
L 72.903666 61.360486 
L 73.467076 64.83471 
L 74.030486 66.523929 
L 74.593895 67.326337 
L 75.157305 67.68482 
L 75.908518 67.832214 
L 77.035337 67.764582 
L 79.476779 67.322584 
L 88.679137 65.343601 
L 93.562021 64.103883 
L 96.754675 63.085431 
L 99.008314 62.14957 
L 100.698543 61.206808 
L 101.825362 60.352942 
L 102.764378 59.370574 
L 103.515591 58.228221 
L 104.079001 56.924931 
L 104.454607 55.589077 
L 104.830214 53.350269 
L 105.018017 51.444406 
L 105.20582 48.333512 
L 105.393623 42.800604 
L 105.957033 12.349753 
L 106.144836 10.087469 
L 106.332639 11.793174 
L 106.708246 22.832411 
L 107.271656 42.063233 
L 107.835065 53.832091 
L 108.398475 60.951265 
L 108.961884 64.632502 
L 109.525294 66.425222 
L 110.088704 67.278875 
L 110.652113 67.663066 
L 111.403326 67.826294 
L 112.530146 67.766804 
L 114.971588 67.327293 
L 118.352045 66.626768 
L 118.352045 66.626768 
" clip-path="url(#p804e46dcd6)" style="fill: none; stroke: #008000; stroke-width: 1.5; stroke-linecap: square"/>
   </g>
   <g id="line2d_8">
    <path d="M 43.042955 67.050714 
L 44.920987 66.919185 
L 47.925838 66.459191 
L 53.559935 65.336656 
L 59.381835 63.976215 
L 63.325702 62.844559 
L 66.142751 61.808224 
L 68.020783 60.903741 
L 69.523208 59.939507 
L 70.650028 58.946259 
L 71.401241 58.03956 
L 72.152454 56.746763 
L 72.715863 55.251809 
L 73.09147 53.70747 
L 73.467076 51.142857 
L 73.842682 45.852897 
L 74.218289 33.4265 
L 74.593895 20.140604 
L 74.781699 18.117734 
L 74.969502 18.507371 
L 75.345108 24.018055 
L 76.471928 46.325676 
L 77.035337 52.822535 
L 77.598747 57.182865 
L 78.162157 59.853232 
L 78.725566 61.392038 
L 79.288976 62.252533 
L 79.852386 62.716863 
L 80.603598 62.991334 
L 81.542614 63.045971 
L 82.857237 62.872532 
L 84.735269 62.391895 
L 86.801105 61.65461 
L 88.679137 60.755712 
L 89.993759 59.911841 
L 91.120579 58.929611 
L 91.871792 58.031003 
L 92.623004 56.749704 
L 93.186414 55.270869 
L 93.562021 53.748605 
L 93.937627 51.235672 
L 94.313233 46.10048 
L 94.68884 34.017619 
L 95.064446 20.483229 
L 95.252249 18.278072 
L 95.440053 18.534291 
L 95.627856 20.575217 
L 96.191266 32.192274 
L 96.754675 43.341297 
L 97.318085 50.775951 
L 97.881495 55.828823 
L 98.444904 59.033582 
L 99.008314 60.912277 
L 99.571724 61.974035 
L 100.135133 62.556264 
L 100.698543 62.857663 
L 101.449756 63.011696 
L 102.576575 62.969766 
L 104.266804 62.630973 
L 106.332639 61.987241 
L 108.398475 61.111487 
L 109.900901 60.254908 
L 111.02772 59.397821 
L 111.966736 58.427028 
L 112.717949 57.333053 
L 113.281359 56.149602 
L 113.844768 54.290826 
L 114.220375 52.180083 
L 114.595981 48.172998 
L 114.971588 38.769709 
L 115.534997 19.304595 
L 115.7228 18.131808 
L 115.910604 19.133352 
L 116.28621 25.346878 
L 117.225226 44.460127 
L 117.788636 51.529786 
L 118.352045 56.328913 
L 118.352045 56.328913 
" clip-path="url(#p804e46dcd6)" style="fill: none; stroke-dasharray: 1.5,2.475; stroke-dashoffset: 0; stroke: #000000; stroke-width: 1.5"/>
   </g>
   <g id="patch_3">
    <path d="M 39.2775 70.724324 
L 39.2775 7.2 
" style="fill: none; stroke: #000000; stroke-width: 1.5; stroke-linejoin: miter; stroke-linecap: square"/>
   </g>
   <g id="patch_4">
    <path d="M 39.2775 70.724324 
L 122.1175 70.724324 
" style="fill: none; stroke: #000000; stroke-width: 1.5; stroke-linejoin: miter; stroke-linecap: square"/>
   </g>
   <g id="legend_1">
    <g id="line2d_9">
     <path d="M 36.9325 17.42375 
L 44.9325 17.42375 
L 52.9325 17.42375 
" style="fill: none; stroke: #4682b4; stroke-width: 1.5; stroke-linecap: square"/>
    </g>
    <g id="text_8">
     <text style="font: 8px 'Arial', sans-serif, serif; text-anchor: start" x="59.3325" y="20.22375" transform="rotate(-0 59.3325 20.22375)">Inferred voltage</text>
    </g>
    <g id="line2d_10">
     <path d="M 36.9325 28.83375 
L 44.9325 28.83375 
L 52.9325 28.83375 
" style="fill: none; stroke: #008000; stroke-width: 1.5; stroke-linecap: square"/>
    </g>
    <g id="text_9">
     <text style="font: 8px 'Arial', sans-serif, serif; text-anchor: start" x="59.3325" y="31.63375" transform="rotate(-0 59.3325 31.63375)">Initial guess</text>
    </g>
    <g id="line2d_11">
     <path d="M 36.9325 40.24375 
L 44.9325 40.24375 
L 52.9325 40.24375 
" style="fill: none; stroke-dasharray: 1.5,2.475; stroke-dashoffset: 0; stroke: #000000; stroke-width: 1.5"/>
    </g>
    <g id="text_10">
     <text style="font: 8px 'Arial', sans-serif, serif; text-anchor: start" x="59.3325" y="43.04375" transform="rotate(-0 59.3325 43.04375)">True voltage</text>
    </g>
   </g>
  </g>
 </g>
 <defs>
  <clipPath id="p804e46dcd6">
   <rect x="39.2775" y="7.2" width="82.84" height="63.524324"/>
  </clipPath>
 </defs>
</svg>
