<?xml version="1.0" encoding="utf-8" standalone="no"?>
<!DOCTYPE svg PUBLIC "-//W3C//DTD SVG 1.1//EN"
  "http://www.w3.org/Graphics/SVG/1.1/DTD/svg11.dtd">
<svg xmlns:xlink="http://www.w3.org/1999/xlink" width="155.624677pt" height="105.54375pt" viewBox="0 0 155.624677 105.54375" xmlns="http://www.w3.org/2000/svg" version="1.1">
 <metadata>
  <rdf:RDF xmlns:dc="http://purl.org/dc/elements/1.1/" xmlns:cc="http://creativecommons.org/ns#" xmlns:rdf="http://www.w3.org/1999/02/22-rdf-syntax-ns#">
   <cc:Work>
    <dc:type rdf:resource="http://purl.org/dc/dcmitype/StillImage"/>
    <dc:date>2025-10-25T23:55:43.380102</dc:date>
    <dc:format>image/svg+xml</dc:format>
    <dc:creator>
     <cc:Agent>
      <dc:title>Matplotlib v3.9.2, https://matplotlib.org/</dc:title>
     </cc:Agent>
    </dc:creator>
   </cc:Work>
  </rdf:RDF>
 </metadata>
 <defs>
  <style type="text/css">*{stroke-linejoin: round; stroke-linecap: butt}</style>
 </defs>
 <g id="figure_1">
  <g id="patch_1">
   <path d="M 0 105.54375 
L 155.624677 105.54375 
L 155.624677 0 
L 0 0 
z
" style="fill: #ffffff"/>
  </g>
  <g id="axes_1">
   <g id="patch_2">
    <path d="M 70.96375 72.52 
L 147.54375 72.52 
L 147.54375 7.2 
L 70.96375 7.2 
z
" style="fill: #ffffff"/>
   </g>
   <g id="matplotlib.axis_1">
    <g id="xtick_1">
     <g id="line2d_1">
      <defs>
       <path id="m7be6fa2488" d="M 0 0 
L 0 3.5 
" style="stroke: #000000; stroke-width: 1.5"/>
      </defs>
      <g>
       <use xlink:href="#m7be6fa2488" x="74.444659" y="72.52" style="stroke: #000000; stroke-width: 1.5"/>
      </g>
     </g>
     <g id="text_1">
      <text style="font: 8px 'Arial', sans-serif, serif; text-anchor: middle" x="74.444659" y="85.24625" transform="rotate(-0 74.444659 85.24625)">0</text>
     </g>
    </g>
    <g id="xtick_2">
     <g id="line2d_2">
      <g>
       <use xlink:href="#m7be6fa2488" x="109.210293" y="72.52" style="stroke: #000000; stroke-width: 1.5"/>
      </g>
     </g>
     <g id="text_2">
      <text style="font: 8px 'Arial', sans-serif, serif; text-anchor: middle" x="109.210293" y="85.24625" transform="rotate(-0 109.210293 85.24625)">10</text>
     </g>
    </g>
    <g id="xtick_3">
     <g id="line2d_3">
      <g>
       <use xlink:href="#m7be6fa2488" x="143.975927" y="72.52" style="stroke: #000000; stroke-width: 1.5"/>
      </g>
     </g>
     <g id="text_3">
      <text style="font: 8px 'Arial', sans-serif, serif; text-anchor: middle" x="143.975927" y="85.24625" transform="rotate(-0 143.975927 85.24625)">20</text>
     </g>
    </g>
    <g id="text_4">
     <text style="font: 8px 'Arial', sans-serif, serif; text-anchor: middle" x="109.25375" y="96.66" transform="rotate(-0 109.25375 96.66)">Time (ms)</text>
    </g>
   </g>
   <g id="matplotlib.axis_2">
    <g id="ytick_1">
     <g id="line2d_4">
      <defs>
       <path id="mb1786639d2" d="M 0 0 
L -3.5 0 
" style="stroke: #000000; stroke-width: 1.5"/>
      </defs>
      <g>
       <use xlink:href="#mb1786639d2" x="70.96375" y="69.020913" style="stroke: #000000; stroke-width: 1.5"/>
      </g>
     </g>
     <g id="text_5">
      <text style="font: 8px 'Arial', sans-serif, serif; text-anchor: end" x="63.96375" y="71.884038" transform="rotate(-0 63.96375 71.884038)">−100</text>
     </g>
    </g>
    <g id="ytick_2">
     <g id="line2d_5">
      <g>
       <use xlink:href="#mb1786639d2" x="70.96375" y="49.696998" style="stroke: #000000; stroke-width: 1.5"/>
      </g>
     </g>
     <g id="text_6">
      <text style="font: 8px 'Arial', sans-serif, serif; text-anchor: end" x="63.96375" y="52.560123" transform="rotate(-0 63.96375 52.560123)">−50</text>
     </g>
    </g>
    <g id="ytick_3">
     <g id="line2d_6">
      <g>
       <use xlink:href="#mb1786639d2" x="70.96375" y="30.373083" style="stroke: #000000; stroke-width: 1.5"/>
      </g>
     </g>
     <g id="text_7">
      <text style="font: 8px 'Arial', sans-serif, serif; text-anchor: end" x="63.96375" y="33.236208" transform="rotate(-0 63.96375 33.236208)">0</text>
     </g>
    </g>
    <g id="ytick_4">
     <g id="line2d_7">
      <g>
       <use xlink:href="#mb1786639d2" x="70.96375" y="11.049169" style="stroke: #000000; stroke-width: 1.5"/>
      </g>
     </g>
     <g id="text_8">
      <text style="font: 8px 'Arial', sans-serif, serif; text-anchor: end" x="63.96375" y="13.912294" transform="rotate(-0 63.96375 13.912294)">50</text>
     </g>
    </g>
    <g id="text_9">
     <text style="font: 8px 'Arial', sans-serif, serif; text-anchor: middle" x="40.26125" y="39.86" transform="rotate(-90 40.26125 39.86)">V (mV)</text>
    </g>
   </g>
   <g id="line2d_8">
    <path d="M 74.444659 64.583678 
L 74.792315 64.454953 
L 75.139972 63.932144 
L 75.74837 62.397966 
L 77.921222 55.897552 
L 78.442707 53.734122 
L 78.877277 50.827427 
L 79.224934 46.899685 
L 79.57259 40.258906 
L 79.920246 28.688508 
L 80.354817 13.751314 
L 80.615559 11.354731 
L 80.789387 11.102666 
L 80.963215 11.187576 
L 81.310872 11.765197 
L 81.745442 13.016356 
L 82.266927 15.228049 
L 83.049153 19.684677 
L 85.048177 33.112544 
L 86.960287 46.4292 
L 87.481772 51.654826 
L 88.698569 65.467327 
L 89.133139 66.839058 
L 89.654624 67.69896 
L 90.436851 68.530212 
L 91.392906 69.200205 
L 92.088218 69.479572 
L 92.783531 69.522653 
L 93.652672 69.32317 
L 94.782555 68.80678 
L 96.260094 67.866899 
L 98.08529 66.429109 
L 100.518884 64.203216 
L 108.862637 56.052082 
L 109.644863 54.874257 
L 110.166348 53.731578 
L 110.600918 52.329975 
L 111.035489 50.160836 
L 111.383145 47.420188 
L 111.730801 43.003587 
L 112.078458 35.58554 
L 112.860685 15.651789 
L 113.121427 14.480069 
L 113.295255 14.56137 
L 113.555997 15.244476 
L 113.990568 17.130516 
L 114.772794 21.733189 
L 117.554045 40.521886 
L 118.423186 47.411827 
L 118.94467 53.560928 
L 119.813811 65.271767 
L 120.161468 67.005521 
L 120.596038 67.999056 
L 121.117523 68.597324 
L 121.986663 69.181081 
L 122.76889 69.495341 
L 123.464203 69.543246 
L 124.333344 69.352271 
L 125.463227 68.843692 
L 126.940766 67.909282 
L 128.765962 66.473734 
L 131.199556 64.246705 
L 139.543309 56.08329 
L 140.325535 54.906864 
L 140.933934 53.535121 
L 141.368504 52.035805 
L 141.803075 49.692839 
L 142.150731 46.695627 
L 142.498387 41.817495 
L 142.846044 33.830339 
L 143.541356 16.450328 
L 143.802099 14.812006 
L 143.975927 14.740862 
L 144.062841 14.869841 
L 144.062841 14.869841 
" clip-path="url(#p48d19fbf0f)" style="fill: none; stroke: #ff8c00; stroke-width: 1.5; stroke-linecap: square"/>
   </g>
   <g id="line2d_9">
    <path d="M 74.444659 64.583678 
L 74.792315 64.451844 
L 75.139972 63.912066 
L 75.74837 62.304103 
L 77.747394 55.95302 
L 78.355793 53.452475 
L 78.790363 50.640247 
L 79.13802 46.818664 
L 79.485676 40.000859 
L 79.833332 27.089877 
L 80.180989 13.453806 
L 80.441731 10.531633 
L 80.615559 10.205563 
L 80.876301 10.184446 
L 81.397786 10.441853 
L 81.91927 10.933343 
L 82.527669 11.839751 
L 83.222982 13.342744 
L 84.005208 15.608728 
L 84.961263 19.092538 
L 86.264975 24.785034 
L 87.829428 32.620591 
L 88.872397 38.828304 
L 89.654624 44.777651 
L 90.263023 51.321005 
L 91.47982 66.134492 
L 91.91439 67.806145 
L 92.348961 68.587048 
L 92.783531 68.925124 
L 93.305015 69.023817 
L 94.000328 68.881963 
L 94.956383 68.426439 
L 96.260094 67.547445 
L 97.998376 66.096487 
L 100.345056 63.819254 
L 108.08041 55.755056 
L 109.036465 54.481509 
L 109.731777 53.190493 
L 110.253262 51.744389 
L 110.687832 49.876446 
L 111.035489 47.527799 
L 111.383145 43.664383 
L 111.730801 36.691401 
L 112.686856 12.166681 
L 112.860685 11.75688 
L 113.034513 11.73303 
L 113.295255 11.984201 
L 113.816739 12.925696 
L 114.512052 14.748423 
L 115.381193 17.727963 
L 116.511076 22.46309 
L 118.07553 30.050395 
L 119.379241 37.296094 
L 120.161468 42.82307 
L 120.769866 48.540525 
L 121.378265 56.671451 
L 121.986663 64.398171 
L 122.421234 66.923437 
L 122.855804 68.105046 
L 123.290375 68.651561 
L 123.724945 68.866439 
L 124.24643 68.884024 
L 124.941742 68.683138 
L 125.984711 68.127062 
L 127.462251 67.054785 
L 129.374361 65.36786 
L 132.068697 62.661074 
L 139.456394 54.80311 
L 140.238621 53.49368 
L 140.760106 52.224885 
L 141.194676 50.657573 
L 141.629247 48.158767 
L 141.976903 44.798939 
L 142.324559 38.860411 
L 142.672216 28.318914 
L 143.106786 14.851494 
L 143.367528 12.22825 
L 143.541356 11.800031 
L 143.715185 11.768427 
L 143.975927 12.01764 
L 144.062841 12.143505 
L 144.062841 12.143505 
" clip-path="url(#p48d19fbf0f)" style="fill: none; stroke-dasharray: 1.5,2.475; stroke-dashoffset: 0; stroke: #000000; stroke-width: 1.5"/>
   </g>
   <g id="patch_3">
    <path d="M 70.96375 72.52 
L 70.96375 7.2 
" style="fill: none; stroke: #000000; stroke-width: 1.5; stroke-linejoin: miter; stroke-linecap: square"/>
   </g>
   <g id="patch_4">
    <path d="M 70.96375 72.52 
L 147.54375 72.52 
" style="fill: none; stroke: #000000; stroke-width: 1.5; stroke-linejoin: miter; stroke-linecap: square"/>
   </g>
   <g id="legend_1">
    <g id="line2d_10">
     <path d="M 10.4 33.425 
L 18.4 33.425 
L 26.4 33.425 
" style="fill: none; stroke: #ff8c00; stroke-width: 1.5; stroke-linecap: square"/>
    </g>
    <g id="text_10">
     <text style="font: 8px 'Arial', sans-serif, serif; text-anchor: start" x="32.8" y="36.225" transform="rotate(-0 32.8 36.225)">Inferred voltage (mean ± 2SD)</text>
    </g>
    <g id="line2d_11">
     <path d="M 10.4 44.835 
L 18.4 44.835 
L 26.4 44.835 
" style="fill: none; stroke-dasharray: 1.5,2.475; stroke-dashoffset: 0; stroke: #000000; stroke-width: 1.5"/>
    </g>
    <g id="text_11">
     <text style="font: 8px 'Arial', sans-serif, serif; text-anchor: start" x="32.8" y="47.635" transform="rotate(-0 32.8 47.635)">True voltage</text>
    </g>
   </g>
  </g>
 </g>
 <defs>
  <clipPath id="p48d19fbf0f">
   <rect x="70.96375" y="7.2" width="76.58" height="65.32"/>
  </clipPath>
 </defs>
</svg>
