<?xml version="1.0" encoding="utf-8" standalone="no"?>
<!DOCTYPE svg PUBLIC "-//W3C//DTD SVG 1.1//EN"
  "http://www.w3.org/Graphics/SVG/1.1/DTD/svg11.dtd">
<svg xmlns:xlink="http://www.w3.org/1999/xlink" width="141.512992pt" height="105.54375pt" viewBox="0 0 141.512992 105.54375" xmlns="http://www.w3.org/2000/svg" version="1.1">
 <metadata>
  <rdf:RDF xmlns:dc="http://purl.org/dc/elements/1.1/" xmlns:cc="http://creativecommons.org/ns#" xmlns:rdf="http://www.w3.org/1999/02/22-rdf-syntax-ns#">
   <cc:Work>
    <dc:type rdf:resource="http://purl.org/dc/dcmitype/StillImage"/>
    <dc:date>2025-10-25T03:49:25.513369</dc:date>
    <dc:format>image/svg+xml</dc:format>
    <dc:creator>
     <cc:Agent>
      <dc:title>Matplotlib v3.9.2, https://matplotlib.org/</dc:title>
     </cc:Agent>
    </dc:creator>
   </cc:Work>
  </rdf:RDF>
 </metadata>
 <defs>
  <style type="text/css">*{stroke-linejoin: round; stroke-linecap: butt}</style>
 </defs>
 <g id="figure_1">
  <g id="patch_1">
   <path d="M 0 105.54375 
L 141.512992 105.54375 
L 141.512992 0 
L 0 0 
z
" style="fill: #ffffff"/>
  </g>
  <g id="axes_1">
   <g id="patch_2">
    <path d="M 50.9775 72.52 
L 133.8175 72.52 
L 133.8175 7.2 
L 50.9775 7.2 
z
" style="fill: #ffffff"/>
   </g>
   <g id="matplotlib.axis_1">
    <g id="xtick_1">
     <g id="line2d_1">
      <defs>
       <path id="m7a105b7413" d="M 0 0 
L 0 3.5 
" style="stroke: #000000; stroke-width: 1.5"/>
      </defs>
      <g>
       <use xlink:href="#m7a105b7413" x="54.742955" y="72.52" style="stroke: #000000; stroke-width: 1.5"/>
      </g>
     </g>
     <g id="text_1">
      <text style="font: 8px 'Arial', sans-serif, serif; text-anchor: middle" x="54.742955" y="85.24625" transform="rotate(-0 54.742955 85.24625)">0</text>
     </g>
    </g>
    <g id="xtick_2">
     <g id="line2d_2">
      <g>
       <use xlink:href="#m7a105b7413" x="92.303598" y="72.52" style="stroke: #000000; stroke-width: 1.5"/>
      </g>
     </g>
     <g id="text_2">
      <text style="font: 8px 'Arial', sans-serif, serif; text-anchor: middle" x="92.303598" y="85.24625" transform="rotate(-0 92.303598 85.24625)">5</text>
     </g>
    </g>
    <g id="xtick_3">
     <g id="line2d_3">
      <g>
       <use xlink:href="#m7a105b7413" x="129.864242" y="72.52" style="stroke: #000000; stroke-width: 1.5"/>
      </g>
     </g>
     <g id="text_3">
      <text style="font: 8px 'Arial', sans-serif, serif; text-anchor: middle" x="129.864242" y="85.24625" transform="rotate(-0 129.864242 85.24625)">10</text>
     </g>
    </g>
    <g id="text_4">
     <text style="font: 8px 'Arial', sans-serif, serif; text-anchor: middle" x="92.3975" y="96.66" transform="rotate(-0 92.3975 96.66)">Time (ms)</text>
    </g>
   </g>
   <g id="matplotlib.axis_2">
    <g id="ytick_1">
     <g id="line2d_4">
      <defs>
       <path id="m05f11a35b0" d="M 0 0 
L -3.5 0 
" style="stroke: #000000; stroke-width: 1.5"/>
      </defs>
      <g>
       <use xlink:href="#m05f11a35b0" x="50.9775" y="65.162995" style="stroke: #000000; stroke-width: 1.5"/>
      </g>
     </g>
     <g id="text_5">
      <text style="font: 8px 'Arial', sans-serif, serif; text-anchor: end" x="43.9775" y="68.02612" transform="rotate(-0 43.9775 68.02612)">−60</text>
     </g>
    </g>
    <g id="ytick_2">
     <g id="line2d_5">
      <g>
       <use xlink:href="#m05f11a35b0" x="50.9775" y="48.695047" style="stroke: #000000; stroke-width: 1.5"/>
      </g>
     </g>
     <g id="text_6">
      <text style="font: 8px 'Arial', sans-serif, serif; text-anchor: end" x="43.9775" y="51.558172" transform="rotate(-0 43.9775 51.558172)">−40</text>
     </g>
    </g>
    <g id="ytick_3">
     <g id="line2d_6">
      <g>
       <use xlink:href="#m05f11a35b0" x="50.9775" y="32.227099" style="stroke: #000000; stroke-width: 1.5"/>
      </g>
     </g>
     <g id="text_7">
      <text style="font: 8px 'Arial', sans-serif, serif; text-anchor: end" x="43.9775" y="35.090224" transform="rotate(-0 43.9775 35.090224)">−20</text>
     </g>
    </g>
    <g id="ytick_4">
     <g id="line2d_7">
      <g>
       <use xlink:href="#m05f11a35b0" x="50.9775" y="15.75915" style="stroke: #000000; stroke-width: 1.5"/>
      </g>
     </g>
     <g id="text_8">
      <text style="font: 8px 'Arial', sans-serif, serif; text-anchor: end" x="43.9775" y="18.622275" transform="rotate(-0 43.9775 18.622275)">0</text>
     </g>
    </g>
    <g id="text_9">
     <text style="font: 8px 'Arial', sans-serif, serif; text-anchor: middle" x="24.72375" y="39.86" transform="rotate(-90 24.72375 39.86)">V (mV)</text>
    </g>
   </g>
   <g id="line2d_8">
    <path d="M 54.742955 69.297025 
L 55.306364 69.011058 
L 57.3722 68.357878 
L 63.569706 66.721617 
L 70.330622 64.839776 
L 74.086686 63.576363 
L 76.715931 62.479295 
L 78.781767 61.379045 
L 80.284192 60.334237 
L 81.411012 59.30398 
L 82.350028 58.152567 
L 83.101241 56.878343 
L 83.66465 55.536364 
L 84.22806 53.529742 
L 84.603666 51.430122 
L 84.979273 47.942123 
L 85.354879 41.006171 
L 86.293895 13.90625 
L 86.481699 14.50657 
L 86.857305 20.144444 
L 87.984124 43.529226 
L 88.547534 50.737076 
L 89.110944 55.774318 
L 89.674353 59.058301 
L 90.237763 61.055544 
L 90.801173 62.226606 
L 91.364582 62.891939 
L 91.927992 63.249339 
L 92.679205 63.443526 
L 93.618221 63.433347 
L 94.932843 63.177058 
L 96.810876 62.550521 
L 98.688908 61.689012 
L 100.379137 60.65851 
L 101.693759 59.580515 
L 102.632775 58.547425 
L 103.383988 57.439116 
L 104.135201 55.860639 
L 104.698611 54.055634 
L 105.074217 52.236699 
L 105.449824 49.364545 
L 105.82543 44.017961 
L 106.201037 32.645135 
L 106.576643 18.25452 
L 106.764446 14.839302 
L 106.952249 14.024515 
L 107.140053 15.180546 
L 107.515659 21.486012 
L 108.454675 41.477214 
L 109.018085 49.286687 
L 109.581495 54.75971 
L 110.144904 58.404174 
L 110.708314 60.650596 
L 111.271724 61.977803 
L 111.835133 62.738609 
L 112.398543 63.154707 
L 113.149756 63.394524 
L 114.088772 63.414141 
L 115.403394 63.177565 
L 117.093623 62.636275 
L 118.971656 61.808109 
L 120.661884 60.81986 
L 121.976507 59.798057 
L 122.915523 58.834984 
L 123.666736 57.823443 
L 124.417949 56.428421 
L 124.981359 54.90741 
L 125.544768 52.512411 
L 125.920375 49.825353 
L 126.295981 44.94173 
L 126.671588 34.564835 
L 127.234997 15.443456 
L 127.4228 14.02769 
L 127.610604 14.728655 
L 127.98621 20.475633 
L 129.113029 43.69449 
L 129.676439 50.829836 
L 130.052045 54.484129 
L 130.052045 54.484129 
" clip-path="url(#pc6ec577f3b)" style="fill: none; stroke: #4682b4; stroke-width: 1.5; stroke-linecap: square"/>
   </g>
   <g id="line2d_9">
    <path d="M 54.742955 69.297025 
L 55.306364 69.015273 
L 57.3722 68.373764 
L 63.381903 66.82427 
L 70.142819 64.992382 
L 73.898883 63.748602 
L 76.528128 62.647526 
L 78.40616 61.630695 
L 79.908586 60.553535 
L 81.035405 59.455338 
L 81.786618 58.467578 
L 82.537831 57.093291 
L 83.101241 55.569973 
L 83.476847 54.085855 
L 83.852454 51.832396 
L 84.22806 47.805706 
L 84.415863 44.271039 
L 84.79147 29.850686 
L 85.167076 12.654812 
L 85.354879 10.200077 
L 85.542682 11.334417 
L 85.918289 20.879311 
L 86.669502 44.411285 
L 87.232911 55.507537 
L 87.796321 62.346765 
L 88.359731 65.996301 
L 88.92314 67.869809 
L 89.48655 68.818299 
L 90.04996 69.28173 
L 90.801173 69.51903 
L 91.740189 69.53406 
L 93.430418 69.285972 
L 97.749892 68.339995 
L 107.327856 66.01582 
L 112.21074 64.626422 
L 115.591198 63.442129 
L 118.032639 62.34871 
L 119.722868 61.365074 
L 121.037491 60.361178 
L 121.976507 59.414823 
L 122.72772 58.414479 
L 123.478933 57.016059 
L 124.042342 55.455089 
L 124.417949 53.921353 
L 124.793555 51.56535 
L 125.169162 47.274217 
L 125.356965 43.441454 
L 125.732571 27.973702 
L 126.108178 11.903265 
L 126.295981 10.169091 
L 126.483784 11.858018 
L 126.859391 22.025881 
L 127.610604 45.219443 
L 128.174013 56.033073 
L 128.737423 62.63599 
L 129.300833 66.142663 
L 129.864242 67.941569 
L 130.052045 68.437112 
L 130.052045 68.437112 
" clip-path="url(#pc6ec577f3b)" style="fill: none; stroke: #008000; stroke-width: 1.5; stroke-linecap: square"/>
   </g>
   <g id="line2d_10">
    <path d="M 54.742955 69.297025 
L 55.306364 69.010965 
L 57.3722 68.356943 
L 63.569706 66.716269 
L 70.142819 64.882567 
L 73.898883 63.621712 
L 76.528128 62.529734 
L 78.593963 61.438114 
L 80.096389 60.40566 
L 81.223208 59.392519 
L 82.162225 58.267317 
L 82.913437 57.032568 
L 83.476847 55.746114 
L 84.040257 53.852985 
L 84.415863 51.913956 
L 84.79147 48.782374 
L 85.167076 42.76473 
L 85.542682 30.080809 
L 85.918289 16.66864 
L 86.106092 14.132865 
L 86.293895 13.993425 
L 86.481699 15.667547 
L 86.857305 22.607222 
L 87.796321 42.395893 
L 88.359731 49.942098 
L 88.92314 55.224224 
L 89.48655 58.706716 
L 90.04996 60.838837 
L 90.613369 62.093472 
L 91.176779 62.809247 
L 91.740189 63.197024 
L 92.491402 63.413995 
L 93.430418 63.417599 
L 94.74504 63.168579 
L 96.435269 62.616535 
L 98.313301 61.775893 
L 100.00353 60.771012 
L 101.318153 59.72724 
L 102.257169 58.737247 
L 103.008382 57.68913 
L 103.759595 56.226197 
L 104.323004 54.602725 
L 104.698611 53.02429 
L 105.074217 50.646942 
L 105.449824 46.513477 
L 105.82543 37.923376 
L 106.38884 17.085703 
L 106.576643 14.362791 
L 106.764446 14.079147 
L 106.952249 15.640098 
L 107.327856 22.429079 
L 108.266872 42.20085 
L 108.830282 49.782554 
L 109.393691 55.09519 
L 109.957101 58.608992 
L 110.520511 60.765343 
L 111.08392 62.036071 
L 111.64733 62.762156 
L 112.21074 63.1566 
L 112.961953 63.378869 
L 113.900969 63.385566 
L 115.215591 63.137314 
L 116.90582 62.582851 
L 118.783852 61.735707 
L 120.474081 60.719559 
L 121.788704 59.659429 
L 122.72772 58.648498 
L 123.478933 57.571141 
L 124.230146 56.052457 
L 124.793555 54.34238 
L 125.169162 52.650683 
L 125.544768 50.043874 
L 125.920375 45.355619 
L 126.295981 35.413965 
L 126.859391 15.723649 
L 127.047194 14.008613 
L 127.234997 14.486128 
L 127.610604 19.959143 
L 128.737423 43.324855 
L 129.300833 50.56497 
L 129.864242 55.631156 
L 130.052045 57.029299 
L 130.052045 57.029299 
" clip-path="url(#pc6ec577f3b)" style="fill: none; stroke-dasharray: 1.5,2.475; stroke-dashoffset: 0; stroke: #000000; stroke-width: 1.5"/>
   </g>
   <g id="patch_3">
    <path d="M 50.9775 72.52 
L 50.9775 7.2 
" style="fill: none; stroke: #000000; stroke-width: 1.5; stroke-linejoin: miter; stroke-linecap: square"/>
   </g>
   <g id="patch_4">
    <path d="M 50.9775 72.52 
L 133.8175 72.52 
" style="fill: none; stroke: #000000; stroke-width: 1.5; stroke-linejoin: miter; stroke-linecap: square"/>
   </g>
   <g id="legend_1">
    <g id="line2d_11">
     <path d="M 10.4 17.42375 
L 18.4 17.42375 
L 26.4 17.42375 
" style="fill: none; stroke: #4682b4; stroke-width: 1.5; stroke-linecap: square"/>
    </g>
    <g id="text_10">
     <text style="font: 8px 'Arial', sans-serif, serif; text-anchor: start" x="32.8" y="20.22375" transform="rotate(-0 32.8 20.22375)">Inferred voltage (BD-EKF)</text>
    </g>
    <g id="line2d_12">
     <path d="M 10.4 28.93125 
L 18.4 28.93125 
L 26.4 28.93125 
" style="fill: none; stroke: #008000; stroke-width: 1.5; stroke-linecap: square"/>
    </g>
    <g id="text_11">
     <text style="font: 8px 'Arial', sans-serif, serif; text-anchor: start" x="32.8" y="31.73125" transform="rotate(-0 32.8 31.73125)">Inferred voltage (diagEKF)</text>
    </g>
    <g id="line2d_13">
     <path d="M 10.4 40.34125 
L 18.4 40.34125 
L 26.4 40.34125 
" style="fill: none; stroke-dasharray: 1.5,2.475; stroke-dashoffset: 0; stroke: #000000; stroke-width: 1.5"/>
    </g>
    <g id="text_12">
     <text style="font: 8px 'Arial', sans-serif, serif; text-anchor: start" x="32.8" y="43.14125" transform="rotate(-0 32.8 43.14125)">True voltage</text>
    </g>
   </g>
  </g>
 </g>
 <defs>
  <clipPath id="pc6ec577f3b">
   <rect x="50.9775" y="7.2" width="82.84" height="65.32"/>
  </clipPath>
 </defs>
</svg>
